<svg xmlns="http://www.w3.org/2000/svg" xmlns:xlink="http://www.w3.org/1999/xlink" fill="none" version="1.1" width="695.5" height="146" viewBox="0 0 695.5 146"><g style="mix-blend-mode:passthrough"><g><g style="mix-blend-mode:passthrough"><g><g style="mix-blend-mode:passthrough"><path d="M205.27734,34.30371Q205.27734,41.083,202.93945,44.1182Q202.51758,43.5967,201.9375,43.0869Q204.01172,40.3213,204.01172,34.4502L204.01172,27.99316L214.9102,27.99316L214.9102,32.49316L213.6445,32.49316L213.6445,32.11816L205.27734,32.11816L205.27734,34.30371ZM198.210938,36.2432Q199.2832,35.8096,200.46094,35.29395L200.46094,31.36816L198.369141,31.36816L198.369141,30.24316L200.46094,30.24316L200.46094,27.24316L201.72656,27.24316L201.72656,30.24316L203.41406,30.24316L203.41406,31.36816L201.72656,31.36816L201.72656,34.70215Q202.46484,34.3623,203.23828,33.99316Q203.29102,34.83691,203.37891,35.49316Q202.58789,35.8389,201.72656,36.2314L201.72656,41.833Q201.72656,43.585,200.33789,43.708Q199.63477,43.7607,198.650391,43.7432Q198.580078,42.963899999999995,198.439453,42.2432Q199.30078,42.313500000000005,199.86328,42.313500000000005Q200.46094,42.2783,200.46094,41.6455L200.46094,36.8467Q199.5293,37.2686,198.527344,37.7432L198.210938,36.2432ZM207.70312,36.583Q209.8242,36.5537,212.5898,36.4424Q212.0391,35.9736,211.4648,35.5166L212.3613,34.74316Q213.7676,35.8271,215.2617,37.1865L214.25979999999998,38.1182Q213.9023,37.7549,213.5215,37.3916Q208.0195,37.5557,206.17383,37.7432L205.92773,36.6182Q207.22266,35.8682,208.7051,34.36816L205.66406,34.36816L205.66406,33.24316L215.2266,33.24316L215.2266,34.36816L210.334,34.36816Q208.8281,35.7158,207.70312,36.583ZM204.60938,42.2432L209.5312,42.2432L209.5312,40.3682L205.75195,40.3682L205.75195,39.2432L209.5312,39.2432L209.5312,37.7432L210.7969,37.7432L210.7969,39.2432L214.6641,39.2432L214.6641,40.3682L210.7969,40.3682L210.7969,42.2432L215.6484,42.2432L215.6484,43.3682L204.60938,43.3682L204.60938,42.2432ZM213.6445,29.11816L205.27734,29.11816L205.27734,30.99316L213.6445,30.99316L213.6445,29.11816ZM216.3867,36.9932L224.3145,36.9932L224.3145,33.99316L217.6172,33.99316L217.6172,32.49316L224.3145,32.49316L224.3145,29.23535Q220.9863,29.3877,217.5469,29.49316Q217.4414,28.72559,217.2832,27.99316Q226.2656,27.8291,231.8555,27.24316L232.084,28.74316Q228.99020000000002,28.97168,225.791,29.14746L225.791,32.49316L232.1719,32.49316L232.1719,33.99316L225.791,33.99316L225.791,36.9932L233.6836,36.9932L233.6836,38.4932L225.791,38.4932L225.791,41.6396Q225.791,43.7197,223.6113,43.7432Q222.5039,43.7432,220.5352,43.7432Q220.44729999999998,42.987300000000005,220.2539,42.2432Q222.2227,42.2432,223.2246,42.2432Q224.3145,42.2432,224.3145,41.1182L224.3145,38.4932L216.3867,38.4932L216.3867,36.9932Z" fill="#DDDDDD" fill-opacity="1"/></g></g><path d="M150,1.5L150,3L158,3L158,1.5L150,1.5ZM162,1.5L162,3L170,3L170,1.5L162,1.5ZM174,1.5L174,3L182,3L182,1.5L174,1.5ZM186,1.5L186,3L194,3L194,1.5L186,1.5ZM198,1.5L198,3L206,3L206,1.5L198,1.5ZM210,1.5L210,3L218,3L218,1.5L210,1.5ZM222,1.5L222,3L230,3L230,1.5L222,1.5ZM234,1.5L234,3L242,3L242,1.5L234,1.5ZM246,1.5L246,3L254,3L254,1.5L246,1.5ZM258,1.5L258,3L266,3L266,1.5L258,1.5ZM270,1.5L270,3L278,3L278,1.5L270,1.5ZM280.5,1.5L280.5,9.5L282,9.5L282,1.5L280.5,1.5ZM282,13.5L280.5,13.5L280.5,21.5L282,21.5L282,13.5ZM282,25.5L280.5,25.5L280.5,33.5L282,33.5L282,25.5ZM282,37.5L280.5,37.5L280.5,45.5L282,45.5L282,37.5ZM282,49.5L280.5,49.5L280.5,57.5L282,57.5L282,49.5ZM282,61.5L280.5,61.5L280.5,69.5L282,69.5L282,61.5ZM282,72L274,72L274,73.5L282,73.5L282,72ZM270,73.5L270,72L262,72L262,73.5L270,73.5ZM258,73.5L258,72L250,72L250,73.5L258,73.5ZM246,73.5L246,72L238,72L238,73.5L246,73.5ZM234,73.5L234,72L226,72L226,73.5L234,73.5ZM222,73.5L222,72L214,72L214,73.5L222,73.5ZM210,73.5L210,72L202,72L202,73.5L210,73.5ZM198,73.5L198,72L190,72L190,73.5L198,73.5ZM186,73.5L186,72L178,72L178,73.5L186,73.5ZM174,73.5L174,72L166,72L166,73.5L174,73.5ZM162,73.5L162,72L154,72L154,73.5L162,73.5ZM151.5,73.5L151.5,65.5L150,65.5L150,73.5L151.5,73.5ZM150,61.5L151.5,61.5L151.5,53.5L150,53.5L150,61.5ZM150,49.5L151.5,49.5L151.5,41.5L150,41.5L150,49.5ZM150,37.5L151.5,37.5L151.5,29.5L150,29.5L150,37.5ZM150,25.5L151.5,25.5L151.5,17.5L150,17.5L150,25.5ZM150,13.5L151.5,13.5L151.5,5.5L150,5.5L150,13.5Z" fill-rule="evenodd" fill="#DDDDDD" fill-opacity="1"/></g><g style="mix-blend-mode:passthrough"><g><g style="mix-blend-mode:passthrough"><path d="M332.00586,40.7432L343.9062,40.7432L343.9062,44.1182L342.7109,44.1182L342.7109,43.7432L333.20117,43.7432L333.20117,44.1182L332.00586,44.1182L332.00586,40.7432ZM329.439453,32.58691Q330.74023,31.08691,331.51367,29.02441L332.55078,29.35254Q332.44531,29.62207,332.33984,29.86816L338.01758,29.86816Q337.89453,31.97754,337.78906,33.31934Q337.64844,35.11816,336.1543,35.11816Q335.46875,35.11816,334.67773,35.08301Q334.60156,34.76074,334.51953,34.36816L332.16406,34.36816L332.16406,34.74316L331.17969,34.74316L331.17969,31.52051Q330.66992,32.49316,330.14258,33.24316Q329.861328,32.9209,329.439453,32.58691ZM338.5625,30.71191Q340.0918,29.08301,340.9883,26.86816L342.166,27.16699Q341.832,27.98145,341.4746,28.74316L346.5254,28.74316L346.5254,29.86816L345.1895,29.86816Q344.6621,31.9541,343.6016,33.19629Q344.7793,33.95801,346.5781,34.46191Q346.4023,34.66699,345.8398,35.49316Q343.9766,34.81348,342.7754,33.93457Q341.6562,34.78418,339.916,35.49316Q339.6348,34.97754,339.1953,34.46191Q340.8066,33.89941,341.8848,33.16113Q340.9297,32.15332,340.3672,30.72363Q339.875,31.2627,339.3359,31.74316Q339.002,31.24512,338.5625,30.71191ZM329.580078,35.8682L337.89453,35.8682Q337.63086,35.4873,337.36719,35.16504L338.47461,34.74316Q338.80859,35.25293,339.1543,35.8682L346.5605,35.8682L346.5605,36.6182L329.580078,36.6182L329.580078,35.8682ZM329.474609,27.99316L332.28711,27.99316L332.28711,26.86816L333.37695,26.86816L333.37695,27.99316L335.64453,27.99316L335.64453,26.86816L336.73438,26.86816L336.73438,27.99316L339.3711,27.99316L339.3711,28.74316L336.73438,28.74316L336.73438,29.49316L335.64453,29.49316L335.64453,28.74316L333.37695,28.74316L333.37695,29.49316L332.28711,29.49316L332.28711,28.74316L329.474609,28.74316L329.474609,27.99316ZM342.7109,41.4932L333.20117,41.4932L333.20117,42.9932L342.7109,42.9932L342.7109,41.4932ZM332.09375,38.8682L343.8359,38.8682L343.8359,39.6182L332.09375,39.6182L332.09375,38.8682ZM332.05859,37.3682L343.7656,37.3682L343.7656,38.1182L332.05859,38.1182L332.05859,37.3682ZM331.2793,31.74316L335.38086,31.74316L335.38086,33.97559Q335.63867,33.99316,335.85547,33.99316Q336.62891,33.99316,336.7168,33.03809Q336.82227,31.9541,336.875,30.61816L331.87695,30.61816Q331.57812,31.21582,331.2793,31.74316ZM342.7227,32.49902Q343.6074,31.51465,344.0293,29.86816L341.0938,29.86816Q341.6562,31.48535,342.7227,32.49902ZM334.39648,33.61816L334.39648,32.49316L332.16406,32.49316L332.16406,33.61816L334.39648,33.61816ZM349.8477,36.9932L362.3457,36.9932L362.3457,43.7432L360.9395,43.7432L360.9395,42.9932L351.2539,42.9932L351.2539,43.7432L349.8477,43.7432L349.8477,36.9932ZM347.4922,33.61816L355.8242,33.61816L355.8242,30.99316L351.0781,30.99316Q350.3516,32.21777,349.5137,33.24316Q348.9336,32.83887,348.2129,32.41699Q350.1465,30.02637,351.0781,27.24316L352.5371,27.66504Q352.1445,28.62012,351.7109,29.49316L355.8242,29.49316L355.8242,26.86816L357.2656,26.86816L357.2656,29.49316L363.34770000000003,29.49316L363.34770000000003,30.99316L357.2656,30.99316L357.2656,33.61816L364.666,33.61816L364.666,35.11816L347.4922,35.11816L347.4922,33.61816ZM360.9395,38.1182L351.2539,38.1182L351.2539,41.8682L360.9395,41.8682L360.9395,38.1182Z" fill="#DDDDDD" fill-opacity="1"/></g></g><path d="M281,1.5L281,3L289,3L289,1.5L281,1.5ZM293,1.5L293,3L301,3L301,1.5L293,1.5ZM305,1.5L305,3L313,3L313,1.5L305,1.5ZM317,1.5L317,3L325,3L325,1.5L317,1.5ZM329,1.5L329,3L337,3L337,1.5L329,1.5ZM341,1.5L341,3L349,3L349,1.5L341,1.5ZM353,1.5L353,3L361,3L361,1.5L353,1.5ZM365,1.5L365,3L373,3L373,1.5L365,1.5ZM377,1.5L377,3L385,3L385,1.5L377,1.5ZM389,1.5L389,3L397,3L397,1.5L389,1.5ZM401,1.5L401,3L409,3L409,1.5L401,1.5ZM411.5,1.5L411.5,9.5L413,9.5L413,1.5L411.5,1.5ZM413,13.5L411.5,13.5L411.5,21.5L413,21.5L413,13.5ZM413,25.5L411.5,25.5L411.5,33.5L413,33.5L413,25.5ZM413,37.5L411.5,37.5L411.5,45.5L413,45.5L413,37.5ZM413,49.5L411.5,49.5L411.5,57.5L413,57.5L413,49.5ZM413,61.5L411.5,61.5L411.5,69.5L413,69.5L413,61.5ZM413,72L405,72L405,73.5L413,73.5L413,72ZM401,73.5L401,72L393,72L393,73.5L401,73.5ZM389,73.5L389,72L381,72L381,73.5L389,73.5ZM377,73.5L377,72L369,72L369,73.5L377,73.5ZM365,73.5L365,72L357,72L357,73.5L365,73.5ZM353,73.5L353,72L345,72L345,73.5L353,73.5ZM341,73.5L341,72L333,72L333,73.5L341,73.5ZM329,73.5L329,72L321,72L321,73.5L329,73.5ZM317,73.5L317,72L309,72L309,73.5L317,73.5ZM305,73.5L305,72L297,72L297,73.5L305,73.5ZM293,73.5L293,72L285,72L285,73.5L293,73.5ZM282.5,73.5L282.5,72L281,72L281,73.5L282.5,73.5Z" fill-rule="evenodd" fill="#DDDDDD" fill-opacity="1"/></g><g style="mix-blend-mode:passthrough"><g><g style="mix-blend-mode:passthrough"><path d="M468.34961,27.55371L469.63281,26.86816Q470.3887,27.85254,471.0742,28.99512L470.2246,29.49316L477.3496,29.49316L477.3496,30.99316L463.65625,30.99316L463.65625,35.14746Q463.65625,41.1533,461.08984,44.1182Q460.667969,43.626000000000005,460.0703125,43.0869Q462.17969,40.7549,462.17969,35.1123L462.17969,29.49316L469.61523,29.49316Q469.04688,28.50293,468.34961,27.55371ZM463.55078,41.8682L471.6836,41.8682Q473.0547,38.4404,474.5898,32.49316L476.1191,32.91504Q474.4785,38.5752,473.2012,41.8682L477.543,41.8682L477.543,43.3682L463.55078,43.3682L463.55078,41.8682ZM464.5,33.7002L465.83594,33.24316Q466.92578,36.2197,467.94531,39.9111L466.45117,40.3682Q465.64258,37.1338,464.5,33.7002ZM468.73633,32.87988L470.0898,32.49316Q471.0039,35.49316,471.707,39.2139L470.1602,39.6182Q469.65039,36.3135,468.73633,32.87988ZM486.6836,43.7432L486.6836,38.1182L481.5684,38.1182Q481.2695,41.7334,479.4414,44.1182Q478.9844,43.626000000000005,478.4043,43.0869Q479.5469,41.4873,479.9512,39.5361Q480.3379,37.6553,480.3379,34.20996L480.3379,27.99316L494.6641,27.99316L494.6641,41.6924Q494.6641,43.7432,492.6777,43.7432Q491.4648,43.7432,489.9531,43.7432Q489.8652,43.2979,489.6895,42.6182Q491.2188,42.6182,492.168,42.6182Q493.2578,42.6182,493.2578,41.5283L493.2578,38.1182L488.0898,38.1182L488.0898,43.7432L486.6836,43.7432ZM488.0898,36.9932L493.2578,36.9932L493.2578,33.61816L488.0898,33.61816L488.0898,36.9932ZM493.2578,29.11816L488.0898,29.11816L488.0898,32.49316L493.2578,32.49316L493.2578,29.11816ZM481.668,36.9932L486.6836,36.9932L486.6836,33.61816L481.7441,33.61816Q481.7969,35.37012,481.668,36.9932ZM481.7441,29.11816L481.7441,32.49316L486.6836,32.49316L486.6836,29.11816L481.7441,29.11816ZM507.7422,26.86816L509.1484,27.0791Q508.7793,28.77246,508.2871,30.24316L513.6659999999999,30.24316L513.6659999999999,31.36816L512.5586,31.36816Q512.1191,36.6123,510.3086,39.6943Q511.7324,41.7686,513.9297,43.0869Q513.3672,43.8721,512.9805,44.4932Q510.8359,42.998999999999995,509.4121,40.9424Q507.7949,42.987300000000005,505.5625,44.4932Q505.1758,44.0186,504.5605,43.4619Q507.0215,41.8096,508.5508,39.7061Q507.127,37.1631,506.6699,33.83496Q506.3008,34.52051,505.8965,35.11816Q505.5449,34.64941,505.0176,34.08691Q507.0566,31.12207,507.7422,26.86816ZM496.4219,36.9932L499.0938,36.9932Q499.4805,36.2607,499.8496,35.49316L501.1152,35.8975Q500.834,36.4541,500.5527,36.9932L504.8594,36.9932L504.8594,38.1006Q504.1914,39.9346,502.8379,41.3174Q503.8047,41.8271,504.8066,42.3369L504.0332,43.3682Q502.9434,42.7354,501.7656,42.1025Q499.7793,43.6143,496.7559,44.4932Q496.4746,43.9775,496.1582,43.3682Q498.7246,42.700199999999995,500.5,41.4463Q498.9883,40.6553,497.3359,39.8291Q497.8984,38.9971,498.4258,38.1182L496.4219,38.1182L496.4219,36.9932ZM496.6152,30.99316L500.6582,30.99316L500.6582,26.86816L501.959,26.86816L501.959,30.99316L505.334,30.99316L505.334,32.11816L501.959,32.11816L501.959,33.00293L502.4863,32.39941Q504.1211,33.56543,505.2285,34.46191L504.3848,35.49316Q503.418,34.5791,501.959,33.43652L501.959,35.49316L500.6582,35.49316L500.6582,32.97949Q499.0586,34.62012,496.9316,35.8682Q496.59770000000003,35.37598,496.1758,34.83691Q498.3906,33.72363,500.2363,32.11816L496.6152,32.11816L496.6152,30.99316ZM511.15229999999997,31.36816L507.8652,31.36816Q507.77729999999997,31.60254,507.6719,31.81934Q507.9883,35.6455,509.4297,38.3701Q510.8359,35.7334,511.15229999999997,31.36816ZM499.0586,39.3838Q500.3066,40.04,501.625,40.7549Q502.8379,39.6357,503.5234,38.1182L499.8672,38.1182Q499.4629,38.7686,499.0586,39.3838ZM504.543,27.61816L505.6328,28.33887Q504.666,29.37012,503.6992,30.24316Q503.2949,29.8916,502.75,29.50488Q503.6641,28.63184,504.543,27.61816ZM497.0723,28.30371L498.0742,27.61816Q498.8652,28.47949,499.709,29.46973L498.6191,30.24316Q497.8457,29.21777,497.0723,28.30371ZM522.1562,38.1182L525.7773,38.1182L525.7773,35.8682L521.6816,35.8682Q521.4883,41.2061,519.1855,44.1182Q518.7637,43.6084,518.2363,43.0869Q520.4336,40.3916,520.4336,34.81348L520.4336,27.99316L530.8047,27.99316L530.8047,32.86816L529.5391,32.86816L529.5391,32.49316L521.6992,32.49316L521.6992,34.74316L525.7773,34.74316L525.7773,32.86816L527.043,32.86816L527.043,34.74316L531.6836,34.74316L531.6836,35.8682L527.043,35.8682L527.043,38.1182L530.6992,38.1182L530.6992,44.1182L529.4336,44.1182L529.4336,42.9932L523.4219,42.9932L523.4219,44.1182L522.1562,44.1182L522.1562,38.1182ZM514.2812,36.2432Q515.5293,35.9268,516.707,35.6045L516.707,31.36816L514.4922,31.36816L514.4922,30.24316L516.707,30.24316L516.707,26.86816L518.0078,26.86816L518.0078,30.24316L519.9238,30.24316L519.9238,31.36816L518.0078,31.36816L518.0078,35.2002Q518.8457,34.97754,519.6426,34.74316Q519.6602,35.6104,519.748,36.2432Q518.8457,36.4893,518.0078,36.7236L518.0078,42.0791Q518.0078,44.083,516.2676,44.1182Q515.7227,44.1357,514.6504,44.1006Q514.5801,43.333,514.4395,42.512699999999995Q515.4062,42.6182,515.9159999999999,42.6182Q516.707,42.6182,516.707,41.7334L516.707,37.1514Q515.5059,37.4619,514.457,37.7432L514.2812,36.2432ZM529.5391,29.11816L521.6992,29.11816L521.6992,31.36816L529.5391,31.36816L529.5391,29.11816ZM529.4336,39.2432L523.4219,39.2432L523.4219,41.8682L529.4336,41.8682L529.4336,39.2432Z" fill="#DDDDDD" fill-opacity="1"/></g></g><path d="M412,1.5L412,3L420,3L420,1.5L412,1.5ZM424,1.5L424,3L432,3L432,1.5L424,1.5ZM436,1.5L436,3L444,3L444,1.5L436,1.5ZM448,1.5L448,3L456,3L456,1.5L448,1.5ZM460,1.5L460,3L468,3L468,1.5L460,1.5ZM472,1.5L472,3L480,3L480,1.5L472,1.5ZM484,1.5L484,3L492,3L492,1.5L484,1.5ZM496,1.5L496,3L504,3L504,1.5L496,1.5ZM508,1.5L508,3L516,3L516,1.5L508,1.5ZM520,1.5L520,3L528,3L528,1.5L520,1.5ZM532,1.5L532,3L540,3L540,1.5L532,1.5ZM544,1.5L544,3L552,3L552,1.5L544,1.5ZM556,1.5L556,3L564,3L564,1.5L556,1.5ZM568,1.5L568,3L576,3L576,1.5L568,1.5ZM578.5,1.5L578.5,9.5L580,9.5L580,1.5L578.5,1.5ZM580,13.5L578.5,13.5L578.5,21.5L580,21.5L580,13.5ZM580,25.5L578.5,25.5L578.5,33.5L580,33.5L580,25.5ZM580,37.5L578.5,37.5L578.5,45.5L580,45.5L580,37.5ZM580,49.5L578.5,49.5L578.5,57.5L580,57.5L580,49.5ZM580,61.5L578.5,61.5L578.5,69.5L580,69.5L580,61.5ZM580,72L572,72L572,73.5L580,73.5L580,72ZM568,73.5L568,72L560,72L560,73.5L568,73.5ZM556,73.5L556,72L548,72L548,73.5L556,73.5ZM544,73.5L544,72L536,72L536,73.5L544,73.5ZM532,73.5L532,72L524,72L524,73.5L532,73.5ZM520,73.5L520,72L512,72L512,73.5L520,73.5ZM508,73.5L508,72L500,72L500,73.5L508,73.5ZM496,73.5L496,72L488,72L488,73.5L496,73.5ZM484,73.5L484,72L476,72L476,73.5L484,73.5ZM472,73.5L472,72L464,72L464,73.5L472,73.5ZM460,73.5L460,72L452,72L452,73.5L460,73.5ZM448,73.5L448,72L440,72L440,73.5L448,73.5ZM436,73.5L436,72L428,72L428,73.5L436,73.5ZM424,73.5L424,72L416,72L416,73.5L424,73.5ZM413.5,73.5L413.5,72L412,72L412,73.5L413.5,73.5Z" fill-rule="evenodd" fill="#DDDDDD" fill-opacity="1"/></g><g style="mix-blend-mode:passthrough"><g><g style="mix-blend-mode:passthrough"><path d="M628.875,40.749Q628.875,40.9717,628.78711,41.1768Q628.70508,41.3818,628.55859,41.54Q628.41211,41.6924,628.20117,41.7803Q627.99609,41.8682,627.75,41.8682Q627.50391,41.8682,627.29297,41.7803Q627.08789,41.6924,626.941406,41.5459Q626.794922,41.3936,626.707031,41.1885Q626.625,40.9834,626.625,40.749Q626.625,40.5146,626.707031,40.3096Q626.794922,40.1045,626.941406,39.9521Q627.08789,39.7939,627.29297,39.7061Q627.50391,39.6182,627.75,39.6182Q627.99609,39.6182,628.20117,39.7061Q628.41211,39.7939,628.55859,39.9463Q628.70508,40.0928,628.78711,40.3037Q628.875,40.5146,628.875,40.749ZM632.25,40.749Q632.25,40.9717,632.16211,41.1768Q632.08008,41.3818,631.93359,41.54Q631.78711,41.6924,631.57617,41.7803Q631.37109,41.8682,631.125,41.8682Q630.87891,41.8682,630.66797,41.7803Q630.46289,41.6924,630.31641,41.5459Q630.16992,41.3936,630.08203,41.1885Q630,40.9834,630,40.749Q630,40.5146,630.08203,40.3096Q630.16992,40.1045,630.31641,39.9521Q630.46289,39.7939,630.66797,39.7061Q630.87891,39.6182,631.125,39.6182Q631.37109,39.6182,631.57617,39.7061Q631.78711,39.7939,631.93359,39.9463Q632.08008,40.0928,632.16211,40.3037Q632.25,40.5146,632.25,40.749ZM635.625,40.749Q635.625,40.9717,635.53711,41.1768Q635.45508,41.3818,635.30859,41.54Q635.16211,41.6924,634.95117,41.7803Q634.74609,41.8682,634.5,41.8682Q634.25391,41.8682,634.04297,41.7803Q633.83789,41.6924,633.69141,41.5459Q633.54492,41.3936,633.45703,41.1885Q633.375,40.9834,633.375,40.749Q633.375,40.5146,633.45703,40.3096Q633.54492,40.1045,633.69141,39.9521Q633.83789,39.7939,634.04297,39.7061Q634.25391,39.6182,634.5,39.6182Q634.74609,39.6182,634.95117,39.7061Q635.16211,39.7939,635.30859,39.9463Q635.45508,40.0928,635.53711,40.3037Q635.625,40.5146,635.625,40.749ZM638.625,40.749Q638.625,40.9717,638.5371,41.1768Q638.4551,41.3818,638.3086,41.54Q638.1621,41.6924,637.9512,41.7803Q637.7461,41.8682,637.5,41.8682Q637.2539,41.8682,637.043,41.7803Q636.8379,41.6924,636.6914,41.5459Q636.5449,41.3936,636.457,41.1885Q636.375,40.9834,636.375,40.749Q636.375,40.5146,636.457,40.3096Q636.5449,40.1045,636.6914,39.9521Q636.8379,39.7939,637.043,39.7061Q637.2539,39.6182,637.5,39.6182Q637.7461,39.6182,637.9512,39.7061Q638.1621,39.7939,638.3086,39.9463Q638.4551,40.0928,638.5371,40.3037Q638.625,40.5146,638.625,40.749ZM642,40.749Q642,40.9717,641.9121,41.1768Q641.8301,41.3818,641.6836,41.54Q641.5371,41.6924,641.3262,41.7803Q641.1211,41.8682,640.875,41.8682Q640.6289,41.8682,640.418,41.7803Q640.2129,41.6924,640.0664,41.5459Q639.9199,41.3936,639.832,41.1885Q639.75,40.9834,639.75,40.749Q639.75,40.5146,639.832,40.3096Q639.9199,40.1045,640.0664,39.9521Q640.2129,39.7939,640.418,39.7061Q640.6289,39.6182,640.875,39.6182Q641.1211,39.6182,641.3262,39.7061Q641.5371,39.7939,641.6836,39.9463Q641.8301,40.0928,641.9121,40.3037Q642,40.5146,642,40.749ZM645.375,40.749Q645.375,40.9717,645.2871,41.1768Q645.2051,41.3818,645.0586,41.54Q644.9121,41.6924,644.7012,41.7803Q644.4961,41.8682,644.25,41.8682Q644.0039,41.8682,643.793,41.7803Q643.5879,41.6924,643.4414,41.5459Q643.2949,41.3936,643.207,41.1885Q643.125,40.9834,643.125,40.749Q643.125,40.5146,643.207,40.3096Q643.2949,40.1045,643.4414,39.9521Q643.5879,39.7939,643.793,39.7061Q644.0039,39.6182,644.25,39.6182Q644.4961,39.6182,644.7012,39.7061Q644.9121,39.7939,645.0586,39.9463Q645.2051,40.0928,645.2871,40.3037Q645.375,40.5146,645.375,40.749Z" fill="#DDDDDD" fill-opacity="1"/></g></g><path d="M579.5,3L586,3L586,1.5L578,1.5L578,3L579.5,3ZM590,1.5L590,3L598,3L598,1.5L590,1.5ZM602,1.5L602,3L610,3L610,1.5L602,1.5ZM614,1.5L614,3L622,3L622,1.5L614,1.5ZM626,1.5L626,3L634,3L634,1.5L626,1.5ZM638,1.5L638,3L646,3L646,1.5L638,1.5ZM650,1.5L650,3L658,3L658,1.5L650,1.5ZM662,1.5L662,3L670,3L670,1.5L662,1.5ZM674,1.5L674,3L682,3L682,1.5L674,1.5ZM686,1.5L686,3L694,3L694,1.5L686,1.5ZM694,5.5L692.5,5.5L692.5,13.5L694,13.5L694,5.5ZM694,17.5L692.5,17.5L692.5,25.5L694,25.5L694,17.5ZM694,29.5L692.5,29.5L692.5,37.5L694,37.5L694,29.5ZM694,41.5L692.5,41.5L692.5,49.5L694,49.5L694,41.5ZM694,53.5L692.5,53.5L692.5,61.5L694,61.5L694,53.5ZM694,65.5L692.5,65.5L692.5,73.5L694,73.5L694,65.5ZM690,73.5L690,72L682,72L682,73.5L690,73.5ZM678,73.5L678,72L670,72L670,73.5L678,73.5ZM666,73.5L666,72L658,72L658,73.5L666,73.5ZM654,73.5L654,72L646,72L646,73.5L654,73.5ZM642,73.5L642,72L634,72L634,73.5L642,73.5ZM630,73.5L630,72L622,72L622,73.5L630,73.5ZM618,73.5L618,72L610,72L610,73.5L618,73.5ZM606,73.5L606,72L598,72L598,73.5L606,73.5ZM594,73.5L594,72L586,72L586,73.5L594,73.5ZM582,73.5L582,72L578,72L578,73.5L582,73.5Z" fill-rule="evenodd" fill="#DDDDDD" fill-opacity="1"/></g><g style="mix-blend-mode:passthrough"><g><g style="mix-blend-mode:passthrough"><path d="M412.36719,106.49316L412.36719,112.0244Q412.36719,113.2432,413.63281,113.2432L418.1152,113.2432Q419.7148,113.2432,419.9258,112.1182Q420.1191,111.21000000000001,420.2949,109.4932Q421.0508,109.792,421.7715,110.0029Q421.543,111.6377,421.2617,112.8447Q420.875,114.7432,418.4141,114.7432L413.14062,114.7432Q410.99609,114.7432,410.99609,112.5342L410.99609,104.99316L419.1172,104.99316L419.1172,100.49316L410.25781,100.49316L410.25781,98.99316L420.4883,98.99316L420.4883,107.2432L419.1172,107.2432L419.1172,106.49316L412.36719,106.49316ZM410.20508,110.9932Q410.25781,111.9014,410.32812,112.4932Q408.04297,114.08109999999999,406.79492,115.1182L405.96875,114.0869Q406.56641,113.6357,406.56641,112.5283L406.56641,105.74316L404.28125,105.74316L404.28125,104.24316L407.9375,104.24316L407.9375,112.7217Q408.99219,111.94239999999999,410.20508,110.9932ZM406.26758,98.24316Q408.18359,100.3291,409.04492,101.33105L407.81445,102.36816Q406.70703,100.82715,405.19531,99.1748L406.26758,98.24316ZM437.3281,107.2432L438.34770000000003,108.2744Q436.8535,109.0947,434.6387,110.2021Q436.6953,111.8604,439.7715,112.5869Q439.2266,113.3252,438.8047,113.9932Q434.0234,112.5283,431.7734,109.0244L431.7734,112.9385Q431.7734,115.1182,429.5938,115.1182Q428.5566,115.1182,427.1328,115.1182Q427.0273,114.4736,426.8867,113.6182Q428.1523,113.6182,429.1543,113.6182Q430.4023,113.6182,430.4023,112.53999999999999L430.4023,106.49316L422.4922,106.49316L422.4922,104.99316L435.6055,104.99316L435.6055,103.49316L424.707,103.49316L424.707,101.99316L435.6055,101.99316L435.6055,100.49316L424.373,100.49316L424.373,98.99316L436.9238,98.99316L436.9238,104.99316L439.6484,104.99316L439.6484,106.49316L431.7734,106.49316L431.7734,106.39941Q432.4941,108.05760000000001,433.6367,109.3057Q435.6758,108.251,437.3281,107.2432ZM422.2461,112.1182Q425.6914,111.16890000000001,429.7168,109.8682Q429.8574,110.7354,429.9805,111.3682Q426.4824,112.4404,422.791,113.6182L422.2461,112.1182ZM424.6895,107.2432Q426.377,108.1045,428.1172,109.1182L427.2559,110.1494Q425.6562,109.18260000000001,423.8809,108.2744L424.6895,107.2432Z" fill="#DDDDDD" fill-opacity="1"/></g></g><path d="M150,92.5L150,84.5L151.5,84.5L151.5,92.5L150,92.5ZM150,104.5L150,96.5L151.5,96.5L151.5,104.5L150,104.5ZM150,116.5L150,108.5L151.5,108.5L151.5,116.5L150,116.5ZM150,128.5L150,120.5L151.5,120.5L151.5,128.5L150,128.5ZM150,140.5L150,132.5L151.5,132.5L151.5,140.5L150,140.5ZM150,143L150,144.5L158,144.5L158,143L150,143ZM162,143L162,144.5L170,144.5L170,143L162,143ZM174,143L174,144.5L182,144.5L182,143L174,143ZM186,143L186,144.5L194,144.5L194,143L186,143ZM198,143L198,144.5L206,144.5L206,143L198,143ZM210,143L210,144.5L218,144.5L218,143L210,143ZM222,143L222,144.5L230,144.5L230,143L222,143ZM234,143L234,144.5L242,144.5L242,143L234,143ZM246,143L246,144.5L254,144.5L254,143L246,143ZM258,143L258,144.5L266,144.5L266,143L258,143ZM270,143L270,144.5L278,144.5L278,143L270,143ZM282,143L282,144.5L290,144.5L290,143L282,143ZM294,143L294,144.5L302,144.5L302,143L294,143ZM306,143L306,144.5L314,144.5L314,143L306,143ZM318,143L318,144.5L326,144.5L326,143L318,143ZM330,143L330,144.5L338,144.5L338,143L330,143ZM342,143L342,144.5L350,144.5L350,143L342,143ZM354,143L354,144.5L362,144.5L362,143L354,143ZM366,143L366,144.5L374,144.5L374,143L366,143ZM378,143L378,144.5L386,144.5L386,143L378,143ZM390,143L390,144.5L398,144.5L398,143L390,143ZM402,143L402,144.5L410,144.5L410,143L402,143ZM414,143L414,144.5L422,144.5L422,143L414,143ZM426,143L426,144.5L434,144.5L434,143L426,143ZM438,143L438,144.5L446,144.5L446,143L438,143ZM450,143L450,144.5L458,144.5L458,143L450,143ZM462,143L462,144.5L470,144.5L470,143L462,143ZM474,143L474,144.5L482,144.5L482,143L474,143ZM486,143L486,144.5L494,144.5L494,143L486,143ZM498,143L498,144.5L506,144.5L506,143L498,143ZM510,143L510,144.5L518,144.5L518,143L510,143ZM522,143L522,144.5L530,144.5L530,143L522,143ZM534,143L534,144.5L542,144.5L542,143L534,143ZM546,143L546,144.5L554,144.5L554,143L546,143ZM558,143L558,144.5L566,144.5L566,143L558,143ZM570,143L570,144.5L578,144.5L578,143L570,143ZM582,143L582,144.5L590,144.5L590,143L582,143ZM594,143L594,144.5L602,144.5L602,143L594,143ZM606,143L606,144.5L614,144.5L614,143L606,143ZM618,143L618,144.5L626,144.5L626,143L618,143ZM630,143L630,144.5L638,144.5L638,143L630,143ZM642,143L642,144.5L650,144.5L650,143L642,143ZM654,143L654,144.5L662,144.5L662,143L654,143ZM666,143L666,144.5L674,144.5L674,143L666,143ZM678,143L678,144.5L686,144.5L686,143L678,143ZM690,143L690,144.5L694,144.5L694,140.5L692.5,140.5L692.5,143L690,143ZM692.5,136.5L694,136.5L694,128.5L692.5,128.5L692.5,136.5ZM692.5,124.5L694,124.5L694,116.5L692.5,116.5L692.5,124.5ZM692.5,112.5L694,112.5L694,104.5L692.5,104.5L692.5,112.5ZM692.5,100.5L694,100.5L694,92.5L692.5,92.5L692.5,100.5ZM692.5,88.5L694,88.5L694,80.5L692.5,80.5L692.5,88.5ZM692.5,76.5L694,76.5L694,72.5L692.5,72.5L692.5,76.5ZM151.5,80.5L151.5,72.5L150,72.5L150,80.5L151.5,80.5Z" fill-rule="evenodd" fill="#DDDDDD" fill-opacity="1"/></g><g style="mix-blend-mode:passthrough"><g><g style="mix-blend-mode:passthrough"><path d="M49.79297,30.243144741210937L56.2793,30.243144741210937L56.2793,27.243144741210937L57.7207,27.243144741210937L57.7207,30.243144741210937L64.1719,30.243144741210937L64.1719,41.58108474121094Q64.1719,43.76068474121094,61.9746,43.74318474121094Q60.8145,43.74318474121094,59.127,43.74318474121094Q59.0742,43.15718474121094,58.8633,42.24318474121094Q60.5332,42.24318474121094,61.6406,42.24318474121094Q62.748,42.27828474121094,62.748,41.194284741210936L62.748,31.743144741210937L57.68555,31.743144741210937Q57.61523,33.27830474121094,57.29883,34.47361474121094Q60.4102,36.81148474121094,62.3262,38.58688474121094L61.2539,39.61818474121094Q59.373,37.74898474121094,56.87695,35.73928474121094Q55.68164,38.18258474121094,52.32422,39.99318474121094Q51.58594,39.161084741210935,51.33984,38.96188474121094Q54.20508,37.47948474121094,55.25977,35.66308474121094Q56.10352,34.33299474121094,56.24414,31.743144741210937L51.2168,31.743144741210937L51.2168,44.11818474121094L49.79297,44.11818474121094L49.79297,30.243144741210937ZM75.9844,32.72166474121094Q75.8438,32.891584741210934,75.6855,33.102524741210935Q79.0605,36.83498474121094,83.7539,38.21188474121094Q83.1738,38.82128474121094,82.8926,39.24318474121094Q81.7324,38.84468474121094,80.6953,38.36428474121094L80.6953,44.11818474121094L79.2891,44.11818474121094L79.2891,43.36818474121094L70.6934,43.36818474121094L70.6934,44.11818474121094L69.2871,44.11818474121094L69.2871,38.52248474121094Q68.1445,39.131784741210936,66.9492,39.61818474121094Q66.6328,39.079084741210934,66.1758,38.58688474121094Q71.625,36.079084741210934,74.5078,32.49314474121094L75.9844,32.72166474121094ZM67.0195,29.118144741210937L74.543,29.118144741210937Q74.1562,28.356434741210936,73.6641,27.483384741210937L75.0176,26.868144741210937Q75.668,27.928694741210936,76.248,29.118144741210937L82.96289999999999,29.118144741210937L82.96289999999999,31.743144741210937L81.53909999999999,31.743144741210937L81.53909999999999,30.243144741210937L68.4258,30.243144741210937L68.4258,31.743144741210937L67.0195,31.743144741210937L67.0195,29.118144741210937ZM79.2891,39.24318474121094L70.6934,39.24318474121094L70.6934,42.24318474121094L79.2891,42.24318474121094L79.2891,39.24318474121094ZM74.8945,34.05174474121094Q72.7324,36.41888474121094,70.2012,38.11818474121094L79.9219,38.11818474121094Q76.8809,36.33688474121094,74.8945,34.05174474121094ZM72.5742,30.993144741210937L73.418,32.02439474121094Q70.1836,34.04588474121094,67.9863,35.11814474121094Q67.6699,34.625964741210936,67.1777,34.08689474121094Q70.2012,32.71580474121094,72.5742,30.993144741210937ZM77.2676,30.993144741210937Q79.9043,32.352524741210935,82.69919999999999,34.08689474121094L81.8906,35.11814474121094Q79.7109,33.70018474121094,76.5293,32.02439474121094L77.2676,30.993144741210937ZM85.1074,44.11818474121094Q84.5977,43.54388474121094,84.1406,43.08688474121094Q86.3203,39.987284741210935,86.3203,34.204084741210934L86.3203,27.618144741210937L100.7695,27.618144741210937L100.7695,33.24314474121094L99.4336,33.24314474121094L99.4336,32.49314474121094L87.6562,32.49314474121094L87.6562,34.391584741210934Q87.6562,40.33888474121094,85.1074,44.11818474121094ZM96.0762,40.069284741210936L97.02539999999999,39.24318474121094Q99.62700000000001,41.50488474121094,101.1562,43.15138474121093L100.0664,44.11818474121094Q99.5332,43.85448474121094,98.98830000000001,43.42678474121094Q93.6328,43.45018474121093,90.2402,43.707984741210936Q89.74799999999999,43.74318474121094,88.9922,44.11818474121094L88.3945,42.61818474121094Q89.44919999999999,42.172884741210936,90.0293,41.627884741210934Q91.0312,40.53808474121094,92.1738,38.86818474121094L87.8672,38.86818474121094L87.8672,37.74318474121094L101.6836,37.74318474121094L101.6836,38.86818474121094L93.9844,38.86818474121094Q92.50200000000001,40.85448474121094,91.22460000000001,42.24318474121094Q94.52340000000001,42.22558474121094,97.8457,42.155284741210934Q96.9727,41.07708474121094,96.0762,40.069284741210936ZM87.6562,28.743144741210937L87.6562,31.368144741210937L99.4336,31.368144741210937L99.4336,28.743144741210937L87.6562,28.743144741210937ZM89.1152,34.36814474121094L100.1191,34.36814474121094L100.1191,35.49314474121094L89.1152,35.49314474121094L89.1152,34.36814474121094Z" fill="#DDDDDD" fill-opacity="1"/></g></g></g><g style="mix-blend-mode:passthrough"><g><g style="mix-blend-mode:passthrough"><path d="M56.36719,106.49314474121094L56.36719,112.02438474121094Q56.36719,113.24318474121094,57.63281,113.24318474121094L62.1152,113.24318474121094Q63.7148,113.24318474121094,63.9258,112.11818474121094Q64.1191,111.20998474121095,64.2949,109.49318474121094Q65.0508,109.79198474121094,65.7715,110.00288474121093Q65.543,111.63768474121093,65.2617,112.84468474121094Q64.875,114.74318474121094,62.4141,114.74318474121094L57.14062,114.74318474121094Q54.99609,114.74318474121094,54.99609,112.53418474121094L54.99609,104.99314474121094L63.1172,104.99314474121094L63.1172,100.49314474121094L54.25781,100.49314474121094L54.25781,98.99314474121094L64.4883,98.99314474121094L64.4883,107.24318474121094L63.1172,107.24318474121094L63.1172,106.49314474121094L56.36719,106.49314474121094ZM54.20508,110.99318474121094Q54.25781,111.90138474121093,54.32812,112.49318474121094Q52.04297,114.08108474121093,50.79492,115.11818474121094L49.96875,114.08688474121094Q50.56641,113.63568474121094,50.56641,112.52828474121094L50.56641,105.74314474121094L48.28125,105.74314474121094L48.28125,104.24314474121094L51.9375,104.24314474121094L51.9375,112.72168474121094Q52.99219,111.94238474121093,54.20508,110.99318474121094ZM50.26758,98.24314474121094Q52.18359,100.32908474121093,53.04492,101.33103474121094L51.81445,102.36814474121094Q50.70703,100.82713474121094,49.19531,99.17478474121094L50.26758,98.24314474121094ZM81.3281,107.24318474121094L82.3477,108.27438474121094Q80.8535,109.09468474121094,78.6387,110.20208474121094Q80.6953,111.86038474121094,83.7715,112.58688474121094Q83.22659999999999,113.32518474121093,82.8047,113.99318474121094Q78.0234,112.52828474121094,75.7734,109.02438474121094L75.7734,112.93848474121094Q75.7734,115.11818474121094,73.5938,115.11818474121094Q72.5566,115.11818474121094,71.1328,115.11818474121094Q71.0273,114.47358474121094,70.8867,113.61818474121094Q72.1523,113.61818474121094,73.1543,113.61818474121094Q74.4023,113.61818474121094,74.4023,112.53998474121093L74.4023,106.49314474121094L66.4922,106.49314474121094L66.4922,104.99314474121094L79.6055,104.99314474121094L79.6055,103.49314474121094L68.707,103.49314474121094L68.707,101.99314474121094L79.6055,101.99314474121094L79.6055,100.49314474121094L68.373,100.49314474121094L68.373,98.99314474121094L80.9238,98.99314474121094L80.9238,104.99314474121094L83.64840000000001,104.99314474121094L83.64840000000001,106.49314474121094L75.7734,106.49314474121094L75.7734,106.39939474121094Q76.4941,108.05758474121095,77.6367,109.30568474121094Q79.6758,108.25098474121094,81.3281,107.24318474121094ZM66.2461,112.11818474121094Q69.6914,111.16888474121095,73.7168,109.86818474121094Q73.8574,110.73538474121094,73.9805,111.36818474121094Q70.4824,112.44038474121093,66.791,113.61818474121094L66.2461,112.11818474121094ZM68.6895,107.24318474121094Q70.377,108.10448474121094,72.1172,109.11818474121094L71.2559,110.14938474121094Q69.6562,109.18258474121095,67.8809,108.27438474121094L68.6895,107.24318474121094ZM85.1074,115.11818474121094Q84.5977,114.54388474121095,84.1406,114.08688474121094Q86.3203,110.98728474121094,86.3203,105.20408474121093L86.3203,98.61814474121094L100.7695,98.61814474121094L100.7695,104.24314474121094L99.4336,104.24314474121094L99.4336,103.49314474121094L87.6562,103.49314474121094L87.6562,105.39158474121093Q87.6562,111.33888474121093,85.1074,115.11818474121094ZM96.0762,111.06928474121094L97.02539999999999,110.24318474121094Q99.62700000000001,112.50488474121093,101.1562,114.15138474121093L100.0664,115.11818474121094Q99.5332,114.85448474121094,98.98830000000001,114.42678474121094Q93.6328,114.45018474121093,90.2402,114.70798474121094Q89.74799999999999,114.74318474121094,88.9922,115.11818474121094L88.3945,113.61818474121094Q89.44919999999999,113.17288474121094,90.0293,112.62788474121093Q91.0312,111.53808474121094,92.1738,109.86818474121094L87.8672,109.86818474121094L87.8672,108.74318474121094L101.6836,108.74318474121094L101.6836,109.86818474121094L93.9844,109.86818474121094Q92.50200000000001,111.85448474121094,91.22460000000001,113.24318474121094Q94.52340000000001,113.22558474121094,97.8457,113.15528474121093Q96.9727,112.07708474121094,96.0762,111.06928474121094ZM87.6562,99.74314474121094L87.6562,102.36814474121094L99.4336,102.36814474121094L99.4336,99.74314474121094L87.6562,99.74314474121094ZM89.1152,105.36814474121094L100.1191,105.36814474121094L100.1191,106.49314474121094L89.1152,106.49314474121094L89.1152,105.36814474121094Z" fill="#DDDDDD" fill-opacity="1"/></g></g></g></g></g></svg>