<svg xmlns="http://www.w3.org/2000/svg" xmlns:xlink="http://www.w3.org/1999/xlink" fill="none" version="1.1" width="711.5" height="146" viewBox="0 0 711.5 146"><g style="mix-blend-mode:passthrough"><g><g style="mix-blend-mode:passthrough"><g><g style="mix-blend-mode:passthrough"><path d="M203.61328,37.0466Q203.32617,37.1931,202.00781,37.7205L202.00781,43.0349Q202.00781,44.0193,201.62695,44.400099999999995Q201.25195,44.781,200.19141,44.781Q199.59961,44.781,198.966797,44.663799999999995L198.697266,43.187200000000004Q199.27148,43.5212,200.00977,43.5212Q200.42578,43.5212,200.54883,43.3865Q200.67773,43.2458,200.67773,42.841499999999996L200.67773,38.2068L198.767578,38.8982L198.480469,37.4919L200.67773,36.730199999999996L200.67773,33.38451L198.75,33.38451L198.75,31.98998L200.67773,31.98998L200.67773,28.65014L202.00781,28.65014L202.00781,31.98998L203.63086,31.98998L203.63086,33.38451L202.00781,33.38451L202.00781,36.2439Q202.98047,35.9099,203.61328,35.6462L203.61328,37.0466ZM205.72266,33.531L205.72266,35.411860000000004Q205.72266,37.615,205.59375,39.1326Q205.4707,40.6501,205.08398,42.0681Q204.69727,43.480199999999996,203.94141,45.033L202.69336,44.1892Q203.43164,42.8181,203.7832,41.5994Q204.14062,40.3806,204.25781,38.9861Q204.375,37.5857,204.375,35.32983L204.375,29.406L214.2129,29.406L214.2129,33.531L205.72266,33.531ZM212.8594,32.38256L212.8594,30.613030000000002L205.72266,30.613030000000002L205.72266,32.38256L212.8594,32.38256ZM210.9375,43.281L214.9512,43.281L214.9512,44.4119L205.70508,44.4119L205.70508,43.281L209.5664,43.281L209.5664,41.417699999999996L206.50781,41.417699999999996L206.50781,40.281L209.5664,40.281L209.5664,38.8572Q208.2363,38.9275,207.60352,38.903999999999996Q206.70703,38.9568,206.32617,39.0212L206.14453,38.0662Q206.57227,37.949,206.88867,37.6736Q207.65039,36.9236,208.5059,35.792699999999996L206.27344,35.792699999999996L206.27344,34.656L214.5,34.656L214.5,35.792699999999996L210.0176,35.792699999999996Q209.0566,37.040800000000004,208.1602,37.9724L212.373,37.7205L212.0859,37.2341Q211.7812,36.6892,211.5645,36.3904L212.5898,35.792699999999996Q212.9531,36.2966,213.4277,37.0935Q213.9082,37.8904,214.0312,38.1072L214.5879,39.0212L213.5449,39.5955L212.9648,38.7458L210.9375,38.7986L210.9375,40.281L214.1191,40.281L214.1191,41.417699999999996L210.9375,41.417699999999996L210.9375,43.281ZM233.25,38.406L233.25,39.7712L226.10739999999998,39.7712L226.10739999999998,42.5603Q226.10739999999998,43.4216,225.9316,43.8962Q225.7617,44.3708,225.3457,44.575900000000004Q224.9355,44.781,224.1797,44.781Q222.95510000000002,44.781,221.7129,44.6697L221.4082,43.2341Q222.91989999999998,43.4099,223.6758,43.4099Q224.1797,43.4099,224.3789,43.105199999999996Q224.5781,42.8005,224.5781,42.0681L224.5781,39.7712L217.125,39.7712L217.125,38.406L224.5781,38.406L224.5781,35.687200000000004L218.38479999999998,35.687200000000004L218.38479999999998,34.281L224.5781,34.281L224.5781,31.18139Q221.2441,31.39819,218.2031,31.50365L218.08010000000002,30.13842Q220.7754,30.06811,224.8418,29.769280000000002Q228.9082,29.47045,231.791,29.13061L232.0078,30.53686Q229.8867,30.788809999999998,226.10739999999998,31.07592L226.10739999999998,34.281L231.99020000000002,34.281L231.99020000000002,35.687200000000004L226.10739999999998,35.687200000000004L226.10739999999998,38.406L233.25,38.406Z" fill="#DDDDDD" fill-opacity="1"/></g></g><path d="M150,1.5L150,3L158,3L158,1.5L150,1.5ZM162,1.5L162,3L170,3L170,1.5L162,1.5ZM174,1.5L174,3L182,3L182,1.5L174,1.5ZM186,1.5L186,3L194,3L194,1.5L186,1.5ZM198,1.5L198,3L206,3L206,1.5L198,1.5ZM210,1.5L210,3L218,3L218,1.5L210,1.5ZM222,1.5L222,3L230,3L230,1.5L222,1.5ZM234,1.5L234,3L242,3L242,1.5L234,1.5ZM246,1.5L246,3L254,3L254,1.5L246,1.5ZM258,1.5L258,3L266,3L266,1.5L258,1.5ZM270,1.5L270,3L278,3L278,1.5L270,1.5ZM280.5,1.5L280.5,9.5L282,9.5L282,1.5L280.5,1.5ZM282,13.5L280.5,13.5L280.5,21.5L282,21.5L282,13.5ZM282,25.5L280.5,25.5L280.5,33.5L282,33.5L282,25.5ZM282,37.5L280.5,37.5L280.5,45.5L282,45.5L282,37.5ZM282,49.5L280.5,49.5L280.5,57.5L282,57.5L282,49.5ZM282,61.5L280.5,61.5L280.5,69.5L282,69.5L282,61.5ZM282,72L274,72L274,73.5L282,73.5L282,72ZM270,73.5L270,72L262,72L262,73.5L270,73.5ZM258,73.5L258,72L250,72L250,73.5L258,73.5ZM246,73.5L246,72L238,72L238,73.5L246,73.5ZM234,73.5L234,72L226,72L226,73.5L234,73.5ZM222,73.5L222,72L214,72L214,73.5L222,73.5ZM210,73.5L210,72L202,72L202,73.5L210,73.5ZM198,73.5L198,72L190,72L190,73.5L198,73.5ZM186,73.5L186,72L178,72L178,73.5L186,73.5ZM174,73.5L174,72L166,72L166,73.5L174,73.5ZM162,73.5L162,72L154,72L154,73.5L162,73.5ZM151.5,73.5L151.5,65.5L150,65.5L150,73.5L151.5,73.5ZM150,61.5L151.5,61.5L151.5,53.5L150,53.5L150,61.5ZM150,49.5L151.5,49.5L151.5,41.5L150,41.5L150,49.5ZM150,37.5L151.5,37.5L151.5,29.5L150,29.5L150,37.5ZM150,25.5L151.5,25.5L151.5,17.5L150,17.5L150,25.5ZM150,13.5L151.5,13.5L151.5,5.5L150,5.5L150,13.5Z" fill-rule="evenodd" fill="#DDDDDD" fill-opacity="1"/></g><g style="mix-blend-mode:passthrough"><g><g style="mix-blend-mode:passthrough"><path d="M338.48047,32.06615Q339.2715,31.2224,339.7988,30.39623Q340.332,29.570059999999998,340.8008,28.57983L341.9375,28.89037Q341.6504,29.58764,341.2871,30.20287L345.9629,30.20287L345.9629,31.22826L344.7383,31.22826Q344.4336,32.13061,344.0645,32.81615Q343.6953,33.49584,343.1738,34.04076Q344.252,34.65014,346.1328,35.16576L345.5469,36.2615Q343.502,35.6345,342.2246,34.849360000000004Q341.1113,35.5876,339.1309,36.1853L338.5332,35.08959Q340.332,34.59155,341.2344,34.075919999999996Q340.4082,33.27319,339.8457,32.13061Q339.5586,32.52319,339.1484,32.98608L338.48047,32.06615ZM333.6582,31.14037L332.45117,31.14037L332.45117,30.63647L330.05469,30.63647L330.05469,29.69897L332.45117,29.69897L332.45117,28.656L333.6582,28.656L333.6582,29.69897L335.70898,29.69897L335.70898,28.656L336.93359,28.656L336.93359,29.69897L339.2012,29.69897L339.2012,30.63647L336.93359,30.63647L336.93359,31.24584L335.70898,31.24584L335.70898,30.63647L333.6582,30.63647L333.6582,31.14037ZM331.80078,32.406Q330.97461,33.52514,330.03711,34.24584L329.568359,33.30248Q330.88086,32.200919999999996,331.61914,31.0349L332.57422,31.33373L332.39844,31.5974L338.31641,31.5974Q338.31641,33.02123,338.17578,34.732169999999996Q338.10547,35.5525,337.75391,35.839600000000004Q337.40234,36.1208,336.48242,36.1794Q336.10742,36.197,335.62109,36.138400000000004L335.43945,35.294669999999996Q335.85547,35.3474,336.17773,35.3474Q336.6582,35.3474,336.81641,35.2185Q336.98047,35.08373,337.0332,34.58569Q337.16211,33.46655,337.17969,32.406L331.80078,32.406ZM340.6191,31.22826L340.5605,31.31615Q341.1406,32.5935,342.166,33.40795Q342.6172,32.99194,342.9277,32.46459Q343.2441,31.93725,343.4785,31.22826L340.6191,31.22826ZM335.31055,33.156L335.31055,35.5701L331.60156,35.5701L331.60156,33.156L335.31055,33.156ZM334.32031,33.8767L332.60938,33.8767L332.60938,34.849360000000004L334.32031,34.849360000000004L334.32031,33.8767ZM338.55078,35.9392Q338.7207,36.2439,339.0957,36.906L346.0918,36.906L346.0918,37.8435L329.75,37.8435L329.75,36.906L337.61328,36.906Q337.43164,36.5662,337.19727,36.2615L338.55078,35.9392ZM331.98242,38.7224L343.8945,38.7224L343.8945,39.531L331.98242,39.531L331.98242,38.7224ZM343.8945,41.031L331.98242,41.031L331.98242,40.152100000000004L343.8945,40.152100000000004L343.8945,41.031ZM333.04297,44.781L331.76562,44.781L331.76562,41.7224L344.1113,41.7224L344.1113,44.7576L342.834,44.7576L342.834,44.4294L333.04297,44.4294L333.04297,44.781ZM342.834,43.5505L342.834,42.531L333.04297,42.531L333.04297,43.5505L342.834,43.5505ZM357.125,35.130610000000004L364.1445,35.130610000000004L364.1445,36.531L348.125,36.531L348.125,35.130610000000004L355.6309,35.130610000000004L355.6309,32.406L351.4355,32.406Q350.8262,33.57201,350.1406,34.52709L348.8633,33.66576Q349.8008,32.42944,350.3926,31.310299999999998Q350.9844,30.185299999999998,351.418,28.86108L352.7715,29.3474Q352.4609,30.26733,352.1211,31.02319L355.6309,31.02319L355.6309,28.55639L357.125,28.55639L357.125,31.02319L363.0664,31.02319L363.0664,32.406L357.125,32.406L357.125,35.130610000000004ZM351.6172,44.781L350.1406,44.781L350.1406,38.406L362.0762,38.406L362.0762,44.781L360.582,44.781L360.582,44.031L351.6172,44.031L351.6172,44.781ZM360.582,42.6423L360.582,39.8064L351.6172,39.8064L351.6172,42.6423L360.582,42.6423Z" fill="#DDDDDD" fill-opacity="1"/></g></g><path d="M281,1.5L281,3L289,3L289,1.5L281,1.5ZM293,1.5L293,3L301,3L301,1.5L293,1.5ZM305,1.5L305,3L313,3L313,1.5L305,1.5ZM317,1.5L317,3L325,3L325,1.5L317,1.5ZM329,1.5L329,3L337,3L337,1.5L329,1.5ZM341,1.5L341,3L349,3L349,1.5L341,1.5ZM353,1.5L353,3L361,3L361,1.5L353,1.5ZM365,1.5L365,3L373,3L373,1.5L365,1.5ZM377,1.5L377,3L385,3L385,1.5L377,1.5ZM389,1.5L389,3L397,3L397,1.5L389,1.5ZM401,1.5L401,3L409,3L409,1.5L401,1.5ZM411.5,1.5L411.5,9.5L413,9.5L413,1.5L411.5,1.5ZM413,13.5L411.5,13.5L411.5,21.5L413,21.5L413,13.5ZM413,25.5L411.5,25.5L411.5,33.5L413,33.5L413,25.5ZM413,37.5L411.5,37.5L411.5,45.5L413,45.5L413,37.5ZM413,49.5L411.5,49.5L411.5,57.5L413,57.5L413,49.5ZM413,61.5L411.5,61.5L411.5,69.5L413,69.5L413,61.5ZM413,72L405,72L405,73.5L413,73.5L413,72ZM401,73.5L401,72L393,72L393,73.5L401,73.5ZM389,73.5L389,72L381,72L381,73.5L389,73.5ZM377,73.5L377,72L369,72L369,73.5L377,73.5ZM365,73.5L365,72L357,72L357,73.5L365,73.5ZM353,73.5L353,72L345,72L345,73.5L353,73.5ZM341,73.5L341,72L333,72L333,73.5L341,73.5ZM329,73.5L329,72L321,72L321,73.5L329,73.5ZM317,73.5L317,72L309,72L309,73.5L317,73.5ZM305,73.5L305,72L297,72L297,73.5L305,73.5ZM293,73.5L293,72L285,72L285,73.5L293,73.5ZM282.5,73.5L282.5,72L281,72L281,73.5L282.5,73.5Z" fill-rule="evenodd" fill="#DDDDDD" fill-opacity="1"/></g><g style="mix-blend-mode:passthrough"><g><g style="mix-blend-mode:passthrough"><path d="M476.7461,30.531L476.7461,31.95483L463.75,31.95483L463.75,35.49389Q463.75,37.6326,463.63281,39.103300000000004Q463.51562,40.574,463.14648,42.0212Q462.77734,43.4685,462.02148,45.027100000000004L460.726562,44.253699999999995Q461.42969,42.8357,461.78125,41.5056Q462.13281,40.1755,462.23828,38.839600000000004Q462.34961,37.4978,462.34961,35.540800000000004L462.34961,30.531L468.98828,30.531Q468.61328,29.54076,468.32617,28.913809999999998L469.76172,28.497799999999998Q470.248,29.52319,470.6113,30.531L476.7461,30.531ZM470.1777,40.3572Q469.97852,38.7458,469.55664,36.7419Q469.13477,34.73803,468.75391,33.62475L470.1426,33.35522Q470.4824,34.421620000000004,470.916,36.4138Q471.3496,38.406,471.584,39.999700000000004L470.1777,40.3572ZM476.9277,42.906L476.9277,44.288799999999995L463.87891,44.288799999999995L463.87891,42.906L471.2734,42.906Q472.2461,40.949,473.1074,38.353300000000004Q473.9746,35.7576,474.3906,33.6599L475.791,34.0349Q475.416,35.8455,474.5488,38.4001Q473.6875,40.949,472.7852,42.906L476.9277,42.906ZM466.91992,41.3826Q466.52148,39.6951,465.85352,37.5857Q465.19141,35.47631,464.66992,34.34545L465.94727,33.94701Q466.46875,35.11303,467.16016,37.199Q467.85742,39.278999999999996,468.23242,40.9314L466.91992,41.3826ZM480.625,29.48217L494.0605,29.48217L494.0605,42.6892Q494.0605,43.8611,493.6328,44.3005Q493.2051,44.7458,492.1504,44.781Q491.0664,44.822,489.9238,44.6755L489.666,43.1931Q491.0254,43.3806,491.6699,43.3806Q492.2559,43.3806,492.4375,43.128699999999995Q492.625,42.8767,492.625,42.150099999999995L492.625,39.531L488.0488,39.531L488.0488,44.781L486.625,44.781L486.625,39.531L482.0312,39.531Q481.9023,41.042699999999996,481.5156,42.3201Q481.1289,43.5974,480.3379,45.1794L479.0078,44.605199999999996Q479.7285,43.1931,480.0566,42.226299999999995Q480.3906,41.2595,480.5078,40.1111Q480.625,38.9568,480.625,36.9001L480.625,29.48217ZM486.625,33.906L486.625,30.906L482.1016,30.906L482.1016,33.906L486.625,33.906ZM488.0488,33.906L492.625,33.906L492.625,30.906L488.0488,30.906L488.0488,33.906ZM482.1016,38.124700000000004L486.625,38.124700000000004L486.625,35.31225L482.1016,35.31225L482.1016,37.322L482.1016,38.124700000000004ZM488.0488,35.31225L488.0488,38.124700000000004L492.625,38.124700000000004L492.625,35.31225L488.0488,35.31225ZM509.6406,40.3982Q510.8828,42.214600000000004,513.1152,43.9431L512.2188,45.150099999999995Q510.127,43.4568,508.8496,41.6404Q507.6777,43.292699999999996,505.5918,45.074L504.6895,43.8904Q506.8691,42.1267,508.041,40.322Q506.9043,38.1716,506.3125,35.1892Q506.1836,35.44115,506.0664,35.6345Q505.9492,35.822,505.8789,35.9451L504.8887,34.86108Q505.75,33.4724,506.418,31.820059999999998Q507.0859,30.16772,507.4258,28.550530000000002L508.7793,28.779049999999998Q508.52729999999997,29.98022,508.0059,31.497799999999998L512.8281,31.497799999999998L512.8281,32.9392L511.5684,32.9392Q511.334,35.39428,510.8828,37.1755Q510.4316,38.9568,509.6406,40.3982ZM496.6211,36.5837Q497.5586,36.0154,498.4141,35.23608Q499.2695,34.45678,499.9199,33.56615L497.0723,33.56615L497.0723,32.38256L500.6406,32.38256L500.6406,28.656L501.918,28.656L501.918,32.38256L505.0703,32.38256L505.0703,33.56615L501.918,33.56615L501.918,33.818110000000004L504.9414,35.8689L504.2734,36.865Q503.3242,36.074,501.918,35.130610000000004L501.918,36.9705L500.6406,36.9705L500.6406,34.357169999999996Q500.0078,35.28881,499.15229999999997,36.1443Q498.2969,36.999700000000004,497.3242,37.656L496.6211,36.5837ZM498.9121,32.0603Q498.3848,31.175530000000002,497.3066,29.663809999999998L498.209,29.05444L499.8848,31.42748L498.9121,32.0603ZM505.3047,29.69897Q504.4902,30.88842,503.53520000000003,32.14819L502.6035,31.48022Q503.6113,30.15014,504.332,29.07201L505.3047,29.69897ZM507.2324,33.38451Q507.502,35.11889,507.8652,36.4607Q508.2344,37.8025,508.7969,38.9568Q509.3535,37.749700000000004,509.7051,36.2849Q510.0625,34.82006,510.2559,32.9392L507.4258,32.9392L507.2324,33.38451ZM504.1152,44.230199999999996Q503.2891,43.7087,501.8828,42.988Q500.2246,44.124700000000004,497.1074,45.114999999999995L496.5156,43.8904Q499.1289,43.1345,500.5527,42.3611Q499.2168,41.7458,498.584,41.4763L497.8633,41.153999999999996Q498.4551,40.199,498.8008,39.531L496.75,39.531L496.75,38.365L499.3984,38.365Q499.7734,37.4275,499.8848,37.105199999999996L501.21479999999997,37.4685Q500.998,38.0779,500.875,38.365L504.6719,38.365L504.6719,39.478300000000004Q503.9688,41.0779,502.9609,42.091499999999996Q503.793,42.4841,504.8008,43.075900000000004L504.1152,44.230199999999996ZM499.7031,40.667699999999996Q500.0254,40.8083,500.9629,41.1892L501.7715,41.528999999999996Q502.6738,40.7732,503.2129,39.531L500.3184,39.531Q499.9199,40.2869,499.7031,40.667699999999996ZM520.3398,36.9763L518.6172,37.7029L518.6172,42.8826Q518.6172,43.6619,518.4238,44.0603Q518.2363,44.4587,517.7852,44.6169Q517.3398,44.781,516.4961,44.781Q516.1328,44.781,515.377,44.7048L515.1426,43.374700000000004Q515.7344,43.480199999999996,516.3438,43.480199999999996Q516.8652,43.480199999999996,517.0527,43.263400000000004Q517.2461,43.040800000000004,517.2461,42.4314L517.2461,38.2244L515.0723,39.033L514.7676,37.6853Q515.8457,37.3337,517.2461,36.812200000000004L517.2461,33.26733L515.125,33.26733L515.125,31.966549999999998L517.2461,31.966549999999998L517.2461,28.779049999999998L518.6172,28.779049999999998L518.6172,31.966549999999998L520.2344,31.966549999999998L520.2344,33.26733L518.6172,33.26733L518.6172,36.2556Q519.6895,35.7517,520.0879,35.540800000000004L520.3398,36.9763ZM531.2441,37.281L527.3534999999999,37.281L527.3534999999999,39.0681L530.125,39.0681L530.125,44.781L528.7773,44.781L528.7773,44.0955L524.3477,44.0955L524.3477,44.7986L523,44.7986L523,39.0681L526,39.0681L526,37.281L522.2617,37.281Q522.1738,39.7712,521.7871,41.4294Q521.4062,43.087599999999995,520.5508,44.781L519.2441,44.1482Q520.0117,42.753699999999995,520.4043,41.5232Q520.8027,40.2869,520.9609,38.7341Q521.125,37.1814,521.125,34.74975L521.125,29.663809999999998L530.4355,29.663809999999998L530.4355,34.02319L527.3534999999999,34.02319L527.3534999999999,36.0564L531.2441,36.0564L531.2441,37.281ZM529.0469,32.781L529.0469,30.906L522.4902,30.906L522.4902,32.781L529.0469,32.781ZM522.4902,36.0564L526,36.0564L526,34.02319L522.4902,34.02319L522.4902,34.890370000000004L522.4902,36.0564ZM524.3477,42.906L528.7773,42.906L528.7773,40.292699999999996L524.3477,40.292699999999996L524.3477,42.906Z" fill="#DDDDDD" fill-opacity="1"/></g></g><path d="M412,1.5L412,3L420,3L420,1.5L412,1.5ZM424,1.5L424,3L432,3L432,1.5L424,1.5ZM436,1.5L436,3L444,3L444,1.5L436,1.5ZM448,1.5L448,3L456,3L456,1.5L448,1.5ZM460,1.5L460,3L468,3L468,1.5L460,1.5ZM472,1.5L472,3L480,3L480,1.5L472,1.5ZM484,1.5L484,3L492,3L492,1.5L484,1.5ZM496,1.5L496,3L504,3L504,1.5L496,1.5ZM508,1.5L508,3L516,3L516,1.5L508,1.5ZM520,1.5L520,3L528,3L528,1.5L520,1.5ZM532,1.5L532,3L540,3L540,1.5L532,1.5ZM544,1.5L544,3L552,3L552,1.5L544,1.5ZM556,1.5L556,3L564,3L564,1.5L556,1.5ZM568,1.5L568,3L576,3L576,1.5L568,1.5ZM578.5,1.5L578.5,9.5L580,9.5L580,1.5L578.5,1.5ZM580,13.5L578.5,13.5L578.5,21.5L580,21.5L580,13.5ZM580,25.5L578.5,25.5L578.5,33.5L580,33.5L580,25.5ZM580,37.5L578.5,37.5L578.5,45.5L580,45.5L580,37.5ZM580,49.5L578.5,49.5L578.5,57.5L580,57.5L580,49.5ZM580,61.5L578.5,61.5L578.5,69.5L580,69.5L580,61.5ZM580,72L572,72L572,73.5L580,73.5L580,72ZM568,73.5L568,72L560,72L560,73.5L568,73.5ZM556,73.5L556,72L548,72L548,73.5L556,73.5ZM544,73.5L544,72L536,72L536,73.5L544,73.5ZM532,73.5L532,72L524,72L524,73.5L532,73.5ZM520,73.5L520,72L512,72L512,73.5L520,73.5ZM508,73.5L508,72L500,72L500,73.5L508,73.5ZM496,73.5L496,72L488,72L488,73.5L496,73.5ZM484,73.5L484,72L476,72L476,73.5L484,73.5ZM472,73.5L472,72L464,72L464,73.5L472,73.5ZM460,73.5L460,72L452,72L452,73.5L460,73.5ZM448,73.5L448,72L440,72L440,73.5L448,73.5ZM436,73.5L436,72L428,72L428,73.5L436,73.5ZM424,73.5L424,72L416,72L416,73.5L424,73.5ZM413.5,73.5L413.5,72L412,72L412,73.5L413.5,73.5Z" fill-rule="evenodd" fill="#DDDDDD" fill-opacity="1"/></g><g style="mix-blend-mode:passthrough"><g><g style="mix-blend-mode:passthrough"><path d="M629.18164,43.8435Q628.79492,43.8435,628.51953,43.5095Q628.25,43.1697,628.25,42.7244Q628.25,42.249700000000004,628.51953,41.9216Q628.79492,41.5935,629.18164,41.5935Q629.58008,41.5935,629.84961,41.9216Q630.125,42.249700000000004,630.125,42.7244Q630.125,43.187200000000004,629.84961,43.5154Q629.58008,43.8435,629.18164,43.8435ZM635.18164,43.8435Q634.79492,43.8435,634.51953,43.5095Q634.25,43.1697,634.25,42.7244Q634.25,42.249700000000004,634.51953,41.9216Q634.79492,41.5935,635.18164,41.5935Q635.58008,41.5935,635.84961,41.9216Q636.125,42.249700000000004,636.125,42.7244Q636.125,43.187200000000004,635.84961,43.5154Q635.58008,43.8435,635.18164,43.8435ZM641.1816,43.8435Q640.7949,43.8435,640.5195,43.5095Q640.25,43.1697,640.25,42.7244Q640.25,42.249700000000004,640.5195,41.9216Q640.7949,41.5935,641.1816,41.5935Q641.5801,41.5935,641.8496,41.9216Q642.125,42.249700000000004,642.125,42.7244Q642.125,43.187200000000004,641.8496,43.5154Q641.5801,43.8435,641.1816,43.8435ZM646.8066,43.8435Q646.4199,43.8435,646.1445,43.5095Q645.875,43.1697,645.875,42.7244Q645.875,42.249700000000004,646.1445,41.9216Q646.4199,41.5935,646.8066,41.5935Q647.2051,41.5935,647.4746,41.9216Q647.75,42.249700000000004,647.75,42.7244Q647.75,43.187200000000004,647.4746,43.5154Q647.2051,43.8435,646.8066,43.8435ZM652.8066,43.8435Q652.4199,43.8435,652.1445,43.5095Q651.875,43.1697,651.875,42.7244Q651.875,42.249700000000004,652.1445,41.9216Q652.4199,41.5935,652.8066,41.5935Q653.2051,41.5935,653.4746,41.9216Q653.75,42.249700000000004,653.75,42.7244Q653.75,43.187200000000004,653.4746,43.5154Q653.2051,43.8435,652.8066,43.8435ZM658.8066,43.8435Q658.4199,43.8435,658.1445,43.5095Q657.875,43.1697,657.875,42.7244Q657.875,42.249700000000004,658.1445,41.9216Q658.4199,41.5935,658.8066,41.5935Q659.2051,41.5935,659.4746,41.9216Q659.75,42.249700000000004,659.75,42.7244Q659.75,43.187200000000004,659.4746,43.5154Q659.2051,43.8435,658.8066,43.8435Z" fill="#DDDDDD" fill-opacity="1"/></g></g><path d="M578,1.5L578,3L586,3L586,1.5L578,1.5ZM590,1.5L590,3L598,3L598,1.5L590,1.5ZM602,1.5L602,3L610,3L610,1.5L602,1.5ZM614,1.5L614,3L622,3L622,1.5L614,1.5ZM626,1.5L626,3L634,3L634,1.5L626,1.5ZM638,1.5L638,3L646,3L646,1.5L638,1.5ZM650,1.5L650,3L658,3L658,1.5L650,1.5ZM662,1.5L662,3L670,3L670,1.5L662,1.5ZM674,1.5L674,3L682,3L682,1.5L674,1.5ZM686,1.5L686,3L694,3L694,1.5L686,1.5ZM698,1.5L698,3L706,3L706,1.5L698,1.5ZM708.5,1.5L708.5,9.5L710,9.5L710,1.5L708.5,1.5ZM710,13.5L708.5,13.5L708.5,21.5L710,21.5L710,13.5ZM710,25.5L708.5,25.5L708.5,33.5L710,33.5L710,25.5ZM710,37.5L708.5,37.5L708.5,45.5L710,45.5L710,37.5ZM710,49.5L708.5,49.5L708.5,57.5L710,57.5L710,49.5ZM710,61.5L708.5,61.5L708.5,69.5L710,69.5L710,61.5ZM710,72L702,72L702,73.5L710,73.5L710,72ZM698,73.5L698,72L690,72L690,73.5L698,73.5ZM686,73.5L686,72L678,72L678,73.5L686,73.5ZM674,73.5L674,72L666,72L666,73.5L674,73.5ZM662,73.5L662,72L654,72L654,73.5L662,73.5ZM650,73.5L650,72L642,72L642,73.5L650,73.5ZM638,73.5L638,72L630,72L630,73.5L638,73.5ZM626,73.5L626,72L618,72L618,73.5L626,73.5ZM614,73.5L614,72L606,72L606,73.5L614,73.5ZM602,73.5L602,72L594,72L594,73.5L602,73.5ZM590,73.5L590,72L582,72L582,73.5L590,73.5ZM579.5,73.5L579.5,72L578,72L578,73.5L579.5,73.5Z" fill-rule="evenodd" fill="#DDDDDD" fill-opacity="1"/></g><g style="mix-blend-mode:passthrough"><g><g style="mix-blend-mode:passthrough"><path d="M407.13477,99.9724Q407.79688,100.61694,408.64648,101.53686Q409.49609,102.45678,409.99414,103.11303L408.95703,104.05639Q408.43555,103.37084,407.55078,102.40405Q406.67188,101.43725,406.09766,100.9099L407.13477,99.9724ZM411.35352,100.781L420.0781,100.781L420.0781,107.5017L413.375,107.5017L413.375,112.6755Q413.375,113.3552,413.50391,113.6658Q413.63281,113.9705,413.96094,114.0818Q414.2891,114.1872,415.0098,114.2517Q415.7715,114.3044,416.5098,114.3044Q417.2715,114.3044,417.9922,114.2517Q418.7363,114.1872,419.0527,114.0818Q419.3691,113.9705,419.4805,113.7009Q419.5918,113.4314,419.6504,112.7634Q419.6855,112.283,419.709,111.615Q419.7383,110.947,419.7383,110.4665L421.2148,110.8005Q421.1797,112.031,421.0859,113.279Q421.0098,114.2927,420.8105,114.7497Q420.6113,115.2126,420.1191,115.4119Q419.6328,115.6111,418.5664,115.7048Q417.6641,115.781,416.5039,115.781Q415.3789,115.781,414.4414,115.7107Q413.38086,115.6404,412.86523,115.4177Q412.35547,115.1951,412.13281,114.6794Q411.91602,114.1697,411.91602,113.1208L411.91602,106.031L418.625,106.031L418.625,102.20483L411.35352,102.20483L411.35352,100.781ZM405.00195,105.22826L408.78125,105.22826L408.78125,112.9861Q410.59766,111.5388,410.89648,111.2458L411.30078,112.8044Q411.17188,112.8747,410.85547,113.1501Q408.78711,114.7263,408.50586,114.9841Q408.14844,115.2419,407.73828,115.7107L406.85352,114.5564Q407.19336,114.2283,407.28125,114.0232Q407.375,113.8181,407.375,113.4548L407.375,106.5173L405.00195,106.5173L405.00195,105.22826ZM434.1934,111.281Q436.0449,112.7869,439.1035,113.9294L438.3711,115.3122Q435.8105,114.1462,434.2637,113.0095Q432.7168,111.8728,431.6562,110.3318L431.6562,113.7712Q431.6562,114.615,431.4453,115.0427Q431.2402,115.4705,430.7598,115.6228Q430.2852,115.781,429.4062,115.781Q428.791,115.781,427.7832,115.6697L427.5312,114.2341Q428.5039,114.3923,429.4766,114.3923Q429.9277,114.3923,430.0859,114.199Q430.25,113.9997,430.25,113.4607L430.25,110.9763L429.582,111.3923Q426.0547,113.6599,423.6465,114.9314L422.9785,113.6775Q425.0117,112.658,426.9746,111.5388Q428.9375,110.4197,430.25,109.529L430.25,107.2205L423.125,107.2205L423.125,105.94311L434.8965,105.94311L434.8965,104.531L425.4102,104.531L425.4102,103.28881L434.8965,103.28881L434.8965,101.60717L424.9062,101.60717L424.9062,100.31225L436.3203,100.31225L436.3203,105.94311L438.9277,105.94311L438.9277,107.2205L431.6562,107.2205L431.6562,108.1872Q432.3359,109.4177,433.2207,110.3669Q435.0605,108.99,436.3555,107.49L437.3984,108.5271Q435.9043,110.0037,434.1934,111.281ZM425.2285,107.7185Q426.6699,108.6208,428.0527,109.7986L427.2266,110.8708Q425.4805,109.406,424.4551,108.7615L425.2285,107.7185Z" fill="#DDDDDD" fill-opacity="1"/></g></g><path d="M150,92.5L150,84.5L151.5,84.5L151.5,92.5L150,92.5ZM150,104.5L150,96.5L151.5,96.5L151.5,104.5L150,104.5ZM150,116.5L150,108.5L151.5,108.5L151.5,116.5L150,116.5ZM150,128.5L150,120.5L151.5,120.5L151.5,128.5L150,128.5ZM150,140.5L150,132.5L151.5,132.5L151.5,140.5L150,140.5ZM150,143L150,144.5L158,144.5L158,143L150,143ZM162,143L162,144.5L170,144.5L170,143L162,143ZM174,143L174,144.5L182,144.5L182,143L174,143ZM186,143L186,144.5L194,144.5L194,143L186,143ZM198,143L198,144.5L206,144.5L206,143L198,143ZM210,143L210,144.5L218,144.5L218,143L210,143ZM222,143L222,144.5L230,144.5L230,143L222,143ZM234,143L234,144.5L242,144.5L242,143L234,143ZM246,143L246,144.5L254,144.5L254,143L246,143ZM258,143L258,144.5L266,144.5L266,143L258,143ZM270,143L270,144.5L278,144.5L278,143L270,143ZM282,143L282,144.5L290,144.5L290,143L282,143ZM294,143L294,144.5L302,144.5L302,143L294,143ZM306,143L306,144.5L314,144.5L314,143L306,143ZM318,143L318,144.5L326,144.5L326,143L318,143ZM330,143L330,144.5L338,144.5L338,143L330,143ZM342,143L342,144.5L350,144.5L350,143L342,143ZM354,143L354,144.5L362,144.5L362,143L354,143ZM366,143L366,144.5L374,144.5L374,143L366,143ZM378,143L378,144.5L386,144.5L386,143L378,143ZM390,143L390,144.5L398,144.5L398,143L390,143ZM402,143L402,144.5L410,144.5L410,143L402,143ZM414,143L414,144.5L422,144.5L422,143L414,143ZM426,143L426,144.5L434,144.5L434,143L426,143ZM438,143L438,144.5L446,144.5L446,143L438,143ZM450,143L450,144.5L458,144.5L458,143L450,143ZM462,143L462,144.5L470,144.5L470,143L462,143ZM474,143L474,144.5L482,144.5L482,143L474,143ZM486,143L486,144.5L494,144.5L494,143L486,143ZM498,143L498,144.5L506,144.5L506,143L498,143ZM510,143L510,144.5L518,144.5L518,143L510,143ZM522,143L522,144.5L530,144.5L530,143L522,143ZM534,143L534,144.5L542,144.5L542,143L534,143ZM546,143L546,144.5L554,144.5L554,143L546,143ZM558,143L558,144.5L566,144.5L566,143L558,143ZM570,143L570,144.5L578,144.5L578,143L570,143ZM582,143L582,144.5L590,144.5L590,143L582,143ZM594,143L594,144.5L602,144.5L602,143L594,143ZM606,143L606,144.5L614,144.5L614,143L606,143ZM618,143L618,144.5L626,144.5L626,143L618,143ZM630,143L630,144.5L638,144.5L638,143L630,143ZM642,143L642,144.5L650,144.5L650,143L642,143ZM654,143L654,144.5L662,144.5L662,143L654,143ZM666,143L666,144.5L674,144.5L674,143L666,143ZM678,143L678,144.5L686,144.5L686,143L678,143ZM690,143L690,144.5L694,144.5L694,140.5L692.5,140.5L692.5,143L690,143ZM692.5,136.5L694,136.5L694,128.5L692.5,128.5L692.5,136.5ZM692.5,124.5L694,124.5L694,116.5L692.5,116.5L692.5,124.5ZM692.5,112.5L694,112.5L694,104.5L692.5,104.5L692.5,112.5ZM692.5,100.5L694,100.5L694,92.5L692.5,92.5L692.5,100.5ZM692.5,88.5L694,88.5L694,80.5L692.5,80.5L692.5,88.5ZM692.5,76.5L694,76.5L694,72.5L692.5,72.5L692.5,76.5ZM151.5,80.5L151.5,72.5L150,72.5L150,80.5L151.5,80.5Z" fill-rule="evenodd" fill="#DDDDDD" fill-opacity="1"/></g><g style="mix-blend-mode:passthrough"><g><g style="mix-blend-mode:passthrough"><path d="M64.0605,31.36301474121094L64.0605,42.58958474121094Q64.0605,43.51538474121094,63.8555,43.966484741210934Q63.6562,44.42358474121094,63.1523,44.59938474121094Q62.6543,44.780984741210936,61.6523,44.780984741210936Q60.3223,44.780984741210936,59.373,44.69308474121094L59.0977,43.22828474121094Q60.2402,43.37468474121094,61.2129,43.37468474121094Q61.8574,43.37468474121094,62.1387,43.280984741210936Q62.4199,43.181384741210934,62.5195,42.92938474121094Q62.625,42.671584741210935,62.625,42.109084741210935L62.625,32.780984741210936L57.76758,32.780984741210936Q57.73242,34.08762474121094,57.48047,35.154034741210936Q58.4473,36.00368474121094,59.9297,37.39818474121094Q61.4121,38.792684741210934,62.3262,39.73608474121094L61.2363,40.89618474121094Q60.3984,39.97048474121094,59.1914,38.734084741210935Q57.98438,37.49188474121094,56.99414,36.54858474121094Q56.46094,37.743884741210934,55.45312,38.857184741210936Q54.44531,39.97048474121094,52.83984,41.20088474121094L51.87891,39.935284741210936Q53.58398,38.68718474121094,54.52148,37.62078474121094Q55.45898,36.54858474121094,55.85742,35.41770474121094Q56.25586,34.280984741210936,56.29102,32.780984741210936L51.68555,32.780984741210936L51.68555,44.780984741210936L50.25,44.780984741210936L50.25,31.36301474121094L56.29102,31.36301474121094L56.29102,28.64426474121094L57.76758,28.64426474121094L57.76758,31.36301474121094L64.0605,31.36301474121094ZM69,31.655984741210936L69,33.654034741210936L67.5996,33.654034741210936L67.5996,30.325904741210937L74.3262,30.325904741210937Q73.9102,29.37082474121094,73.5352,28.667704741210937L74.9238,28.146214741210937Q75.416,29.118874741210938,75.8496,30.325904741210937L82.125,30.325904741210937L82.125,33.68918474121094L80.7012,33.68918474121094L80.7012,31.655984741210936L69,31.655984741210936ZM76.7695,32.288794741210936Q77.7656,32.757544741210936,79.3652,33.57785474121094Q80.9707,34.39817474121094,82.24799999999999,35.101294741210936L81.6211,36.278984741210934Q80.291,35.53488474121094,78.6738,34.67942474121094Q77.0566,33.81809474121094,76.1016,33.384494741210936L76.7695,32.288794741210936ZM67.6172,35.08371474121094Q68.8359,34.59738474121094,70.2012,33.84738474121094Q71.5723,33.09738474121094,72.7734,32.30637474121094L73.4766,33.419654741210934Q71.0273,35.08371474121094,68.2266,36.34938474121094L67.6172,35.08371474121094ZM82.5762,40.632584741210934Q81.43950000000001,40.198984741210936,80.25,39.62468474121094L80.25,44.780984741210936L78.832,44.780984741210936L78.832,44.18328474121094L70.875,44.18328474121094L70.875,44.780984741210936L69.4512,44.780984741210936L69.4512,39.62468474121094Q68.1738,40.234084741210935,67.1309,40.632584741210934L66.5742,39.33758474121094Q69.2461,38.359084741210935,71.0918,37.23998474121094Q72.9434,36.11498474121094,74.2031,34.70285474121094L75.5215,34.70285474121094Q76.8574,36.15008474121094,78.7148,37.27508474121094Q80.5723,38.39428474121094,83.168,39.320084741210934L82.5762,40.632584741210934ZM79.3184,39.155984741210936Q76.623,37.70868474121094,74.8711,35.89818474121094Q73.0488,37.72628474121094,70.3711,39.155984741210936L79.3184,39.155984741210936ZM70.875,40.468484741210936L70.875,42.905984741210936L78.832,42.905984741210936L78.832,40.468484741210936L70.875,40.468484741210936ZM100.2422,33.96457474121094L88.125,33.96457474121094L88.125,35.18332474121094Q88.125,37.55048474121094,87.9551,39.17358474121094Q87.7852,40.796584741210935,87.3398,42.15008474121093Q86.90039999999999,43.50368474121093,86.0918,44.91578474121094L84.7031,44.341484741210934Q85.4941,42.96458474121094,85.916,41.74578474121094Q86.3438,40.52118474121094,86.5195,38.91578474121094Q86.7012,37.30438474121094,86.7012,34.75559474121094L86.7012,29.405984741210936L100.2422,29.405984741210936L100.2422,33.96457474121094ZM98.82419999999999,32.780984741210936L98.82419999999999,30.648174741210937L88.125,30.648174741210937L88.125,32.780984741210936L98.82419999999999,32.780984741210936ZM99.73830000000001,35.780984741210936L99.73830000000001,36.98798474121094L89.42580000000001,36.98798474121094L89.42580000000001,35.780984741210936L99.73830000000001,35.780984741210936ZM93.9434,40.00558474121094Q92.9531,41.31808474121094,91.18950000000001,42.97048474121094L97.5293,42.41378474121093Q96.832,41.55248474121093,96.2695,40.90208474121094L97.40039999999999,40.15208474121094Q98.1387,41.00168474121094,99.0293,42.08568474121094Q99.9199,43.169684741210936,100.4941,43.966484741210934L99.4336,44.88058474121094Q99.0938,44.39428474121094,98.4082,43.53298474121094Q95.2207,43.74968474121094,91.10159999999999,44.107184741210936L88.957,44.306384741210934L88.6523,43.08178474121094Q89.3555,42.84738474121094,89.7656,42.507584741210934Q91.1191,41.33568474121094,92.1973,40.00558474121094L88.4707,40.00558474121094L88.4707,38.780984741210936L100.875,38.780984741210936L100.875,40.00558474121094L93.9434,40.00558474121094Z" fill="#DDDDDD" fill-opacity="1"/></g></g></g><g style="mix-blend-mode:passthrough"><g><g style="mix-blend-mode:passthrough"><path d="M51.13477,99.97238474121093Q51.79688,100.61692474121094,52.64648,101.53684474121094Q53.49609,102.45676474121093,53.99414,103.11301474121093L52.95703,104.05637474121093Q52.43555,103.37082474121094,51.55078,102.40403474121094Q50.67188,101.43723474121094,50.09766,100.90988474121093L51.13477,99.97238474121093ZM55.35352,100.78098474121094L64.0781,100.78098474121094L64.0781,107.50168474121094L57.375,107.50168474121094L57.375,112.67548474121094Q57.375,113.35518474121093,57.50391,113.66578474121094Q57.63281,113.97048474121094,57.96094,114.08178474121094Q58.2891,114.18718474121094,59.0098,114.25168474121094Q59.7715,114.30438474121094,60.5098,114.30438474121094Q61.2715,114.30438474121094,61.9922,114.25168474121094Q62.7363,114.18718474121094,63.0527,114.08178474121094Q63.3691,113.97048474121094,63.4805,113.70088474121094Q63.5918,113.43138474121093,63.6504,112.76338474121094Q63.6855,112.28298474121094,63.709,111.61498474121093Q63.7383,110.94698474121094,63.7383,110.46648474121093L65.2148,110.80048474121094Q65.1797,112.03098474121094,65.0859,113.27898474121093Q65.0098,114.29268474121093,64.8105,114.74968474121094Q64.6113,115.21258474121093,64.1191,115.41188474121094Q63.6328,115.61108474121093,62.5664,115.70478474121094Q61.6641,115.78098474121094,60.5039,115.78098474121094Q59.3789,115.78098474121094,58.4414,115.71068474121094Q57.38086,115.64038474121094,56.86523,115.41768474121093Q56.35547,115.19508474121093,56.13281,114.67938474121094Q55.91602,114.16968474121094,55.91602,113.12078474121094L55.91602,106.03098474121094L62.625,106.03098474121094L62.625,102.20481474121094L55.35352,102.20481474121094L55.35352,100.78098474121094ZM49.00195,105.22824474121094L52.78125,105.22824474121094L52.78125,112.98608474121093Q54.59766,111.53878474121093,54.89648,111.24578474121094L55.30078,112.80438474121094Q55.17188,112.87468474121094,54.85547,113.15008474121093Q52.78711,114.72628474121093,52.50586,114.98408474121094Q52.14844,115.24188474121094,51.73828,115.71068474121094L50.85352,114.55638474121093Q51.19336,114.22828474121094,51.28125,114.02318474121094Q51.375,113.81808474121094,51.375,113.45478474121094L51.375,106.51728474121094L49.00195,106.51728474121094L49.00195,105.22824474121094ZM78.1934,111.28098474121094Q80.0449,112.78688474121094,83.1035,113.92938474121094L82.3711,115.31218474121094Q79.8105,114.14618474121093,78.2637,113.00948474121094Q76.7168,111.87278474121094,75.6562,110.33178474121094L75.6562,113.77118474121093Q75.6562,114.61498474121093,75.4453,115.04268474121093Q75.2402,115.47048474121094,74.7598,115.62278474121094Q74.2852,115.78098474121094,73.4062,115.78098474121094Q72.791,115.78098474121094,71.7832,115.66968474121094L71.5312,114.23408474121094Q72.5039,114.39228474121094,73.4766,114.39228474121094Q73.9277,114.39228474121094,74.0859,114.19898474121094Q74.25,113.99968474121094,74.25,113.46068474121094L74.25,110.97628474121093L73.582,111.39228474121094Q70.0547,113.65988474121093,67.6465,114.93138474121093L66.9785,113.67748474121093Q69.0117,112.65798474121094,70.9746,111.53878474121093Q72.9375,110.41968474121094,74.25,109.52898474121093L74.25,107.22048474121094L67.125,107.22048474121094L67.125,105.94309474121094L78.8965,105.94309474121094L78.8965,104.53098474121094L69.4102,104.53098474121094L69.4102,103.28879474121094L78.8965,103.28879474121094L78.8965,101.60715474121093L68.9062,101.60715474121093L68.9062,100.31223474121094L80.3203,100.31223474121094L80.3203,105.94309474121094L82.9277,105.94309474121094L82.9277,107.22048474121094L75.6562,107.22048474121094L75.6562,108.18718474121094Q76.3359,109.41768474121093,77.2207,110.36688474121094Q79.0605,108.98998474121093,80.3555,107.48998474121093L81.39840000000001,108.52708474121094Q79.9043,110.00368474121093,78.1934,111.28098474121094ZM69.2285,107.71848474121094Q70.6699,108.62078474121094,72.0527,109.79858474121093L71.2266,110.87078474121094Q69.4805,109.40598474121094,68.4551,108.76148474121094L69.2285,107.71848474121094ZM100.2422,104.96457474121094L88.125,104.96457474121094L88.125,106.18332474121094Q88.125,108.55048474121094,87.9551,110.17358474121093Q87.7852,111.79658474121094,87.3398,113.15008474121093Q86.90039999999999,114.50368474121093,86.0918,115.91578474121094L84.7031,115.34148474121093Q85.4941,113.96458474121094,85.916,112.74578474121094Q86.3438,111.52118474121093,86.5195,109.91578474121094Q86.7012,108.30438474121094,86.7012,105.75559474121094L86.7012,100.40598474121094L100.2422,100.40598474121094L100.2422,104.96457474121094ZM98.82419999999999,103.78098474121094L98.82419999999999,101.64817474121094L88.125,101.64817474121094L88.125,103.78098474121094L98.82419999999999,103.78098474121094ZM99.73830000000001,106.78098474121094L99.73830000000001,107.98798474121094L89.42580000000001,107.98798474121094L89.42580000000001,106.78098474121094L99.73830000000001,106.78098474121094ZM93.9434,111.00558474121094Q92.9531,112.31808474121094,91.18950000000001,113.97048474121094L97.5293,113.41378474121093Q96.832,112.55248474121093,96.2695,111.90208474121094L97.40039999999999,111.15208474121094Q98.1387,112.00168474121094,99.0293,113.08568474121094Q99.9199,114.16968474121094,100.4941,114.96648474121093L99.4336,115.88058474121094Q99.0938,115.39428474121094,98.4082,114.53298474121094Q95.2207,114.74968474121094,91.10159999999999,115.10718474121094L88.957,115.30638474121093L88.6523,114.08178474121094Q89.3555,113.84738474121093,89.7656,113.50758474121093Q91.1191,112.33568474121094,92.1973,111.00558474121094L88.4707,111.00558474121094L88.4707,109.78098474121094L100.875,109.78098474121094L100.875,111.00558474121094L93.9434,111.00558474121094Z" fill="#DDDDDD" fill-opacity="1"/></g></g></g></g></g></svg>