<svg xmlns="http://www.w3.org/2000/svg" xmlns:xlink="http://www.w3.org/1999/xlink" fill="none" version="1.1" width="463" height="265" viewBox="0 0 463 265"><g style="mix-blend-mode:passthrough"><g><g style="mix-blend-mode:passthrough"><g><g style="mix-blend-mode:passthrough"><path d="M61.8984,31.74316L58.5,31.74316L58.5,41.8682L57,41.8682L57,31.74316L53.5957,31.74316L53.5957,30.24316L61.8984,30.24316L61.8984,31.74316ZM71.3965,41.8682L64.875,41.8682L64.875,30.24316L66.375,30.24316L66.375,40.3682L71.3965,40.3682L71.3965,41.8682ZM81,38.6514Q81,39.4541,80.6719,40.0635Q80.3438,40.667,79.7578,41.0713Q79.1719,41.4697,78.3457,41.6689Q77.5254,41.8682,76.5352,41.8682Q76.084,41.8682,75.6387,41.833Q75.1934,41.792,74.7832,41.7334Q74.3789,41.674800000000005,74.0156,41.598600000000005Q73.6523,41.5225,73.3594,41.4404L73.3594,39.8408Q74.0156,40.0869,74.8359,40.2275Q75.6562,40.3682,76.6992,40.3682Q77.4551,40.3682,77.9824,40.2568Q78.5156,40.1455,78.8555,39.9287Q79.1953,39.7119,79.3477,39.4014Q79.5,39.0908,79.5,38.6924Q79.5,38.2588,79.2422,37.9541Q78.9844,37.6494,78.5625,37.4092Q78.1406,37.1631,77.6016,36.9639Q77.0625,36.7646,76.5,36.5361Q75.9375,36.3076,75.3984,36.0439Q74.8594,35.7744,74.4375,35.41113Q74.0156,35.04785,73.7578,34.56152Q73.5,34.06934,73.5,33.39551Q73.5,32.80957,73.7402,32.24121Q73.9805,31.67285,74.4844,31.2334Q74.9941,30.78809,75.791,30.51855Q76.5879,30.24316,77.6895,30.24316Q77.9707,30.24316,78.3047,30.27246Q78.6387,30.30176,78.9785,30.35449Q79.3184,30.40723,79.6465,30.47754Q79.9805,30.54785,80.2617,30.62402L80.2617,32.1416Q79.5879,31.94824,78.9082,31.84863Q78.2344,31.74316,77.6074,31.74316Q76.2656,31.74316,75.6328,32.16504Q75,32.58691,75,33.2959Q75,33.73535,75.2578,34.05176Q75.5156,34.3623,75.9375,34.61426Q76.3594,34.86035,76.8984,35.06543Q77.4375,35.26465,78,35.49316Q78.5625,35.7158,79.1016,35.9854Q79.6406,36.249,80.0625,36.6182Q80.4844,36.9873,80.7422,37.4795Q81,37.9717,81,38.6514ZM56.77734,58.3037Q56.77734,65.083,54.43945,68.1182Q54.01758,67.5967,53.4375,67.0869Q55.51172,64.32130000000001,55.51172,58.4502L55.51172,51.9932L66.4102,51.9932L66.4102,56.4932L65.1445,56.4932L65.1445,56.1182L56.77734,56.1182L56.77734,58.3037ZM49.710938,60.2432Q50.7832,59.8096,51.96094,59.2939L51.96094,55.3682L49.869141,55.3682L49.869141,54.2432L51.96094,54.2432L51.96094,51.2432L53.22656,51.2432L53.22656,54.2432L54.91406,54.2432L54.91406,55.3682L53.22656,55.3682L53.22656,58.7021Q53.96484,58.3623,54.73828,57.9932Q54.79102,58.8369,54.87891,59.4932Q54.08789,59.8389,53.22656,60.2314L53.22656,65.833Q53.22656,67.58500000000001,51.83789,67.708Q51.13477,67.7607,50.150391,67.7432Q50.080078,66.9639,49.939453,66.2432Q50.80078,66.3135,51.36328,66.3135Q51.96094,66.2783,51.96094,65.6455L51.96094,60.8467Q51.0293,61.2686,50.027344,61.7432L49.710938,60.2432ZM59.20312,60.583Q61.3242,60.5537,64.0898,60.4424Q63.5391,59.9736,62.9648,59.5166L63.8613,58.7432Q65.2676,59.8271,66.7617,61.1865L65.7598,62.1182Q65.4023,61.7549,65.0215,61.3916Q59.5195,61.5557,57.67383,61.7432L57.42773,60.6182Q58.72266,59.8682,60.2051,58.3682L57.16406,58.3682L57.16406,57.2432L66.7266,57.2432L66.7266,58.3682L61.834,58.3682Q60.3281,59.7158,59.20312,60.583ZM56.10938,66.2432L61.0312,66.2432L61.0312,64.3682L57.25195,64.3682L57.25195,63.2432L61.0312,63.2432L61.0312,61.7432L62.2969,61.7432L62.2969,63.2432L66.1641,63.2432L66.1641,64.3682L62.2969,64.3682L62.2969,66.2432L67.1484,66.2432L67.1484,67.3682L56.10938,67.3682L56.10938,66.2432ZM65.1445,53.1182L56.77734,53.1182L56.77734,54.9932L65.1445,54.9932L65.1445,53.1182ZM67.8867,60.9932L75.8145,60.9932L75.8145,57.9932L69.1172,57.9932L69.1172,56.4932L75.8145,56.4932L75.8145,53.2354Q72.4863,53.387699999999995,69.0469,53.4932Q68.9414,52.7256,68.7832,51.9932Q77.7656,51.8291,83.3555,51.2432L83.584,52.7432Q80.4902,52.9717,77.291,53.1475L77.291,56.4932L83.6719,56.4932L83.6719,57.9932L77.291,57.9932L77.291,60.9932L85.1836,60.9932L85.1836,62.4932L77.291,62.4932L77.291,65.6396Q77.291,67.7197,75.1113,67.7432Q74.0039,67.7432,72.0352,67.7432Q71.9473,66.9873,71.7539,66.2432Q73.7227,66.2432,74.7246,66.2432Q75.8145,66.2432,75.8145,65.1182L75.8145,62.4932L67.8867,62.4932L67.8867,60.9932Z" fill="#DDDDDD" fill-opacity="1"/></g></g><path d="M1.5,1.5L1.5,3L9.5,3L9.5,1.5L1.5,1.5ZM13.5,1.5L13.5,3L21.5,3L21.5,1.5L13.5,1.5ZM25.5,1.5L25.5,3L33.5,3L33.5,1.5L25.5,1.5ZM37.5,1.5L37.5,3L45.5,3L45.5,1.5L37.5,1.5ZM49.5,1.5L49.5,3L57.5,3L57.5,1.5L49.5,1.5ZM61.5,1.5L61.5,3L69.5,3L69.5,1.5L61.5,1.5ZM73.5,1.5L73.5,3L81.5,3L81.5,1.5L73.5,1.5ZM85.5,1.5L85.5,3L93.5,3L93.5,1.5L85.5,1.5ZM97.5,1.5L97.5,3L105.5,3L105.5,1.5L97.5,1.5ZM109.5,1.5L109.5,3L117.5,3L117.5,1.5L109.5,1.5ZM121.5,1.5L121.5,3L129.5,3L129.5,1.5L121.5,1.5ZM132,1.5L132,9.5L133.5,9.5L133.5,1.5L132,1.5ZM133.5,13.5L132,13.5L132,21.5L133.5,21.5L133.5,13.5ZM133.5,25.5L132,25.5L132,33.5L133.5,33.5L133.5,25.5ZM133.5,37.5L132,37.5L132,45.5L133.5,45.5L133.5,37.5ZM133.5,49.5L132,49.5L132,57.5L133.5,57.5L133.5,49.5ZM133.5,61.5L132,61.5L132,69.5L133.5,69.5L133.5,61.5ZM133.5,73.5L132,73.5L132,81.5L133.5,81.5L133.5,73.5ZM133.5,85.5L132,85.5L132,93.5L133.5,93.5L133.5,85.5ZM133.5,96L132,96L132,97.5L133.5,97.5L133.5,96ZM3,5.5L1.5,5.5L1.5,13.5L3,13.5L3,5.5ZM3,17.5L1.5,17.5L1.5,25.5L3,25.5L3,17.5ZM3,29.5L1.5,29.5L1.5,37.5L3,37.5L3,29.5ZM3,41.5L1.5,41.5L1.5,49.5L3,49.5L3,41.5ZM3,53.5L1.5,53.5L1.5,61.5L3,61.5L3,53.5ZM3,65.5L1.5,65.5L1.5,73.5L3,73.5L3,65.5ZM3,77.5L1.5,77.5L1.5,85.5L3,85.5L3,77.5ZM3,89.5L1.5,89.5L1.5,97.5L3,97.5L3,89.5Z" fill-rule="evenodd" fill="#DDDDDD" fill-opacity="1"/></g><g style="mix-blend-mode:passthrough"><g><g style="mix-blend-mode:passthrough"><path d="M189.014,136.8682Q188.094,136.73930000000001,187.40800000000002,136.2939Q186.723,135.8486,186.27100000000002,135.1279Q185.82,134.4014,185.598,133.417Q185.375,132.42680000000001,185.375,131.2256Q185.375,129.67871,185.738,128.54785Q186.102,127.41699,186.72899999999998,126.68457Q187.35500000000002,125.94629,188.188,125.59473Q189.025,125.24316,189.957,125.24316Q191.07,125.24316,191.902,125.6416Q192.73399999999998,126.03418,193.285,126.77832Q193.836,127.52246,194.10500000000002,128.57715Q194.375,129.63184,194.375,130.9561Q194.375,132.3447,194.07,133.3936Q193.77100000000002,134.4424,193.244,135.1748Q192.723,135.9014,192.014,136.32319999999999Q191.305,136.73930000000001,190.49,136.8682Q190.619,137.7119,191.10500000000002,138.2275Q191.598,138.7432,192.482,138.7432Q192.91,138.7432,193.32,138.6025Q193.736,138.4619,194.164,138.1279L194.85500000000002,139.2646Q194.275,139.792,193.654,140.0146Q193.03300000000002,140.2432,192.377,140.2432Q191.668,140.2432,191.07,140.0264Q190.47899999999998,139.8154,190.039,139.3936Q189.6,138.9717,189.32999999999998,138.333Q189.066,137.7002,189.014,136.8682ZM192.875,131.1084Q192.875,130.12988,192.711,129.33301Q192.547,128.53027,192.184,127.95605Q191.82,127.38184,191.24599999999998,127.06543Q190.678,126.74316,189.863,126.74316Q189.084,126.74316,188.51600000000002,127.08301Q187.953,127.41699,187.59,127.99121Q187.227,128.56543,187.051,129.33301Q186.875,130.10059,186.875,130.9619Q186.875,131.9639,187.039,132.7725Q187.209,133.5811,187.566,134.1611Q187.93,134.7412,188.498,135.0576Q189.066,135.3682,189.863,135.3682Q190.648,135.3682,191.21699999999998,135.0342Q191.785,134.6943,192.154,134.1201Q192.523,133.54,192.699,132.7666Q192.875,131.9873,192.875,131.1084ZM203.375,132.7197Q203.375,133.6631,203.123,134.4365Q202.87099999999998,135.2041,202.385,135.7432Q201.898,136.2822,201.189,136.5752Q200.486,136.8682,199.572,136.8682Q198.564,136.8682,197.861,136.5869Q197.164,136.3057,196.719,135.7959Q196.279,135.2803,196.074,134.5596Q195.875,133.8389,195.875,132.9541L195.875,125.24316L197.375,125.24316L197.375,132.6904Q197.375,133.3525,197.49200000000002,133.8564Q197.60899999999998,134.3545,197.87900000000002,134.6885Q198.148,135.0225,198.576,135.19819999999999Q199.00400000000002,135.3682,199.619,135.3682Q200.779,135.3682,201.324,134.665Q201.875,133.9561,201.875,132.6729L201.875,125.24316L203.375,125.24316L203.375,132.7197ZM208.625,126.74316L205.977,126.74316L205.977,125.24316L212.768,125.24316L212.768,126.74316L210.125,126.74316L210.125,135.3682L212.768,135.3682L212.768,136.8682L205.977,136.8682L205.977,135.3682L208.625,135.3682L208.625,126.74316ZM222.775,136.2529Q221.393,136.8682,219.881,136.8682Q217.449,136.8682,216.225,135.4326Q215,133.9971,215,131.1787Q215,129.81934,215.322,128.71777Q215.65,127.61621,216.271,126.84863Q216.893,126.0752,217.842,125.65918Q218.791,125.24316,219.969,125.24316Q220.771,125.24316,221.457,125.38965Q222.143,125.53613,222.775,125.84082L222.775,127.44629Q222.148,127.10645,221.48,126.9248Q220.812,126.74316,220.021,126.74316Q219.213,126.74316,218.557,127.03613Q217.906,127.32324,217.449,127.87988Q216.992,128.43066,216.746,129.22754Q216.5,130.02441,216.5,131.0498Q216.5,133.1885,217.402,134.2783Q218.311,135.3682,220.057,135.3682Q220.795,135.3682,221.469,135.19819999999999Q222.148,135.0283,222.775,134.7178L222.775,136.2529ZM230.785,135.2744L231.541,134.2432Q233.557,135.333,235.408,136.4229L238.818,132.7432L231.33,132.7432L231.33,131.6006Q231.682,130.47559,232.01,129.36816L229.256,129.36816L229.256,128.24316L232.367,128.24316Q232.713,126.91309,233.012,125.61816L230.117,125.61816L230.117,124.49316L233.328,124.49316Q233.633,123.16309,233.896,121.86816L235.408,121.86816Q235.139,123.13965,234.822,124.49316L241.016,124.49316L241.016,125.61816L234.506,125.61816Q234.195,126.90137,233.855,128.24316L241.719,128.24316L241.719,129.36816L233.504,129.36816Q233.188,130.47559,232.842,131.6182L240.611,131.6182L240.611,132.7959L236.604,137.1436Q237.693,137.7939,238.73,138.4619L237.816,139.4932Q234.107,137.0381,230.785,135.2744ZM224.246,130.49316Q226.707,126.86035,228.131,121.86816L229.555,122.29004Q228.898,124.34082,228.148,126.12793L228.148,139.1182L226.76,139.1182L226.76,129.18066Q225.863,130.7217,224.861,131.9932Q224.598,131.26069999999999,224.246,130.49316ZM243.758,130.49316L245.34,130.49316L245.34,127.49316L246.5,127.49316L246.5,130.49316L248.188,130.49316L248.188,131.6182L246.5,131.6182L246.5,134.1377Q247.432,134.0205,248.398,133.8682Q248.311,134.48930000000001,248.275,134.9932Q247.379,135.1045,246.5,135.21L246.5,139.4932L245.34,139.4932L245.34,135.3623Q243.916,135.5439,242.475,135.7432L242.281,134.6182Q243.793,134.4658,245.34,134.2842L245.34,131.6182L242.527,131.6182L242.527,130.44043Q243.195,128.54199,243.916,125.61816L242.369,125.61816L242.369,124.49316L244.197,124.49316Q244.496,123.26855,244.812,121.86816L246.078,122.14941Q245.744,123.3916,245.445,124.49316L248.627,124.49316L248.627,125.61816L245.146,125.61816Q244.373,128.48926,243.758,130.49316ZM249.91,139.1182L248.785,139.1182L248.785,128.61816L253.461,128.61816L253.461,137.5244Q253.461,139.1182,252.037,139.1182Q251.492,139.1182,250.666,139.1182Q250.578,138.7197,250.42,137.9932Q251.123,137.9932,251.703,137.9932Q252.336,137.9932,252.336,137.3193L252.336,135.3682L249.91,135.3682L249.91,139.1182ZM254.99,121.86816L254.691,122.2666Q256.748,125.71777,259.842,127.21191Q259.244,127.80957,258.928,128.24316Q257.73199999999997,127.52246,256.71299999999997,126.61426L256.71299999999997,127.49316L250.613,127.49316L250.613,126.70215Q249.576,127.54004,248.451,128.24316Q247.924,127.58105,247.52,127.21191Q251.018,125.09082,253.162,121.86816L254.99,121.86816ZM257.60900000000004,128.61816L258.805,128.61816L258.805,137.1553Q258.805,139.1006,257.152,139.1182Q256.256,139.13569999999999,255.096,139.083Q255.008,138.5439,254.85,137.9932Q255.957,137.9932,256.748,137.9932Q257.60900000000004,137.9932,257.60900000000004,137.07319999999999L257.60900000000004,128.61816ZM253.83,123.2041Q252.512,124.95605,250.982,126.36816L256.432,126.36816Q254.938,124.99121,253.83,123.2041ZM254.92,128.99316L256.04499999999996,128.99316L256.04499999999996,135.7432L254.92,135.7432L254.92,128.99316ZM249.91,134.2432L252.336,134.2432L252.336,132.7432L249.91,132.7432L249.91,134.2432ZM252.336,129.74316L249.91,129.74316L249.91,131.6182L252.336,131.6182L252.336,129.74316ZM261.10699999999997,139.1182Q260.598,138.5439,260.14099999999996,138.0869Q262.32,134.9873,262.32,129.2041L262.32,122.61816L276.77,122.61816L276.77,128.24316L275.43399999999997,128.24316L275.43399999999997,127.49316L263.656,127.49316L263.656,129.3916Q263.656,135.3389,261.10699999999997,139.1182ZM272.076,135.0693L273.025,134.2432Q275.627,136.5049,277.156,138.1514L276.06600000000003,139.1182Q275.533,138.8545,274.988,138.42680000000001Q269.63300000000004,138.4502,266.24,138.708Q265.748,138.7432,264.99199999999996,139.1182L264.395,137.6182Q265.449,137.1729,266.029,136.6279Q267.031,135.5381,268.174,133.8682L263.86699999999996,133.8682L263.86699999999996,132.7432L277.68399999999997,132.7432L277.68399999999997,133.8682L269.98400000000004,133.8682Q268.502,135.8545,267.225,137.2432Q270.523,137.2256,273.846,137.1553Q272.973,136.0771,272.076,135.0693ZM263.656,123.74316L263.656,126.36816L275.43399999999997,126.36816L275.43399999999997,123.74316L263.656,123.74316ZM265.115,129.36816L276.119,129.36816L276.119,130.49316L265.115,130.49316L265.115,129.36816ZM88.7246,163.8682Q85.625,160.4053,85.625,155.48340000000002Q85.625,150.5029,88.707,146.9932L90.2188,146.9932Q87.125,150.5908,87.125,155.4658Q87.125,160.2705,90.2188,163.8682L88.7246,163.8682ZM110.5977,150.3682Q111.9688,152.0322,113.6387,154.417Q112.98830000000001,154.8213,112.37299999999999,155.2432Q111.9336,154.6631,111.52340000000001,154.0889Q107.2051,154.2822,103.584,154.4756Q103.0215,154.4932,102.1777,154.8682L101.5801,153.3682Q102.2305,152.9932,102.8105,152.46Q104.1758,151.1592,105.5176,149.2432L101.6152,149.2432L101.6152,148.1182L107.1992,148.1182Q106.5312,147.0283,105.9219,146.2139L107.082,145.4932Q107.7324,146.3486,108.5586,147.4971L107.6445,148.1182L113.6211,148.1182L113.6211,149.2432L105.8516,149.2432L107.0117,149.7764Q105.377,151.6924,103.9531,152.9932Q106.7949,152.9053,110.6797,152.7646Q110.0645,151.8682,109.5078,151.1064L110.5977,150.3682ZM109.666,155.2432L110.9844,155.2432L110.9844,161.1787Q110.9844,161.9932,111.6172,161.9932L112.2324,161.9932Q112.7773,161.9932,112.918,161.126Q113.041,160.2119,113.0762,158.9932Q113.6914,159.2627,114.3945,159.4795Q114.2715,160.8799,114.1309,161.6299Q113.9199,163.1182,112.46090000000001,163.1182L111.3711,163.1182Q109.666,163.1182,109.666,161.07319999999999L109.666,155.2432ZM102.9863,155.6182L104.3223,155.6182Q104.3223,159.2744,103.6016,160.73930000000001Q102.8809,162.3564,100.6836,163.4932Q100.2793,162.9131,99.7871,162.4619Q101.791,161.44819999999999,102.3359,160.13569999999999Q102.9863,158.8525,102.9863,155.6182ZM97.2734,162.6436Q98.3281,159.79590000000002,99.1016,156.3682Q99.875,156.7021,100.5254,156.9131Q99.7344,159.708,98.8203,163.1182L97.2734,162.6436ZM106.4492,155.2432L107.7676,155.2432L107.7676,163.1182L106.4492,163.1182L106.4492,155.2432ZM96.7285,151.751L97.6074,150.7432Q99.0312,151.7158,100.5957,152.9873Q99.9629,153.7197,99.5762,154.1182Q97.748,152.501,96.7285,151.751ZM97.4141,147.1514L98.3105,146.2432Q99.5938,147.2275,101.1758,148.5811L100.1387,149.6182Q98.6797,148.17680000000001,97.4141,147.1514ZM114.7637,149.2432L124.53710000000001,149.2432Q124.4668,147.6494,124.4316,145.8682L125.92580000000001,145.8682Q125.9199,147.57319999999999,125.9785,149.2432L132.0254,149.2432L132.0254,150.7432L126.043,150.7432Q126.3828,159.38569999999999,129.002,161.2373Q129.9512,161.9932,130.3379,160.8447Q130.6016,159.9658,130.8125,158.2432Q131.6387,158.542,132.2363,158.7002Q131.9023,160.70409999999998,131.5156,161.9346Q131.0938,163.1182,129.8984,163.1182Q128.6855,163.1182,127.4902,161.9111Q124.97659999999999,159.292,124.6191,150.7432L114.7637,150.7432L114.7637,149.2432ZM114.834,160.1182Q116.8203,159.9014,118.91210000000001,159.6436L118.91210000000001,154.8682L115.4844,154.8682L115.4844,153.3682L123.7461,153.3682L123.7461,154.8682L120.3535,154.8682L120.3535,159.4619Q122.4043,159.19819999999999,124.5547,158.8994Q124.5195,159.6201,124.5195,160.3994Q119.2285,161.0615,115.18549999999999,161.6182L114.834,160.1182ZM127.2793,146.5244L128.123,145.8682Q129.3887,146.7354,130.6895,147.8369L129.6875,148.8682Q128.5625,147.6611,127.2793,146.5244ZM139.2852,159.2744L140.041,158.2432Q142.0566,159.333,143.9082,160.4229L147.3184,156.7432L139.83010000000002,156.7432L139.83010000000002,155.6006Q140.1816,154.4756,140.50979999999998,153.3682L137.7559,153.3682L137.7559,152.2432L140.8672,152.2432Q141.2129,150.9131,141.5117,149.6182L138.6172,149.6182L138.6172,148.4932L141.8281,148.4932Q142.1328,147.1631,142.3965,145.8682L143.9082,145.8682Q143.6387,147.1396,143.32229999999998,148.4932L149.5156,148.4932L149.5156,149.6182L143.0059,149.6182Q142.6953,150.9014,142.3555,152.2432L150.2188,152.2432L150.2188,153.3682L142.0039,153.3682Q141.6875,154.4756,141.3418,155.6182L149.1113,155.6182L149.1113,156.79590000000002L145.1035,161.1436Q146.1934,161.7939,147.2305,162.4619L146.3164,163.4932Q142.60739999999998,161.0381,139.2852,159.2744ZM132.7461,154.4932Q135.207,150.8604,136.6309,145.8682L138.0547,146.29Q137.3984,148.3408,136.6484,150.1279L136.6484,163.1182L135.25979999999998,163.1182L135.25979999999998,153.1807Q134.3633,154.7217,133.3613,155.9932Q133.0977,155.26069999999999,132.7461,154.4932ZM152.2578,154.4932L153.8398,154.4932L153.8398,151.4932L155,151.4932L155,154.4932L156.6875,154.4932L156.6875,155.6182L155,155.6182L155,158.1377Q155.9316,158.0205,156.89839999999998,157.8682Q156.8105,158.48930000000001,156.7754,158.9932Q155.8789,159.1045,155,159.21L155,163.4932L153.8398,163.4932L153.8398,159.3623Q152.416,159.5439,150.9746,159.7432L150.7812,158.6182Q152.293,158.4658,153.8398,158.2842L153.8398,155.6182L151.0273,155.6182L151.0273,154.4404Q151.6953,152.542,152.416,149.6182L150.8691,149.6182L150.8691,148.4932L152.69729999999998,148.4932Q152.9961,147.2686,153.3125,145.8682L154.5781,146.1494Q154.2441,147.3916,153.9453,148.4932L157.127,148.4932L157.127,149.6182L153.6465,149.6182Q152.873,152.48930000000001,152.2578,154.4932ZM158.4102,163.1182L157.2852,163.1182L157.2852,152.6182L161.96089999999998,152.6182L161.96089999999998,161.5244Q161.96089999999998,163.1182,160.5371,163.1182Q159.9922,163.1182,159.166,163.1182Q159.0781,162.7197,158.91989999999998,161.9932Q159.623,161.9932,160.2031,161.9932Q160.83589999999998,161.9932,160.83589999999998,161.3193L160.83589999999998,159.3682L158.4102,159.3682L158.4102,163.1182ZM163.49020000000002,145.8682L163.1914,146.2666Q165.248,149.7178,168.3418,151.2119Q167.7441,151.8096,167.42770000000002,152.2432Q166.23239999999998,151.5225,165.2129,150.61430000000001L165.2129,151.4932L159.11329999999998,151.4932L159.11329999999998,150.7021Q158.0762,151.54,156.9512,152.2432Q156.4238,151.5811,156.0195,151.2119Q159.51760000000002,149.0908,161.6621,145.8682L163.49020000000002,145.8682ZM166.1094,152.6182L167.3047,152.6182L167.3047,161.1553Q167.3047,163.1006,165.6523,163.1182Q164.7559,163.13569999999999,163.5957,163.083Q163.5078,162.5439,163.3496,161.9932Q164.457,161.9932,165.248,161.9932Q166.1094,161.9932,166.1094,161.07319999999999L166.1094,152.6182ZM162.33010000000002,147.2041Q161.01170000000002,148.9561,159.48239999999998,150.3682L164.9316,150.3682Q163.4375,148.9912,162.33010000000002,147.2041ZM163.41989999999998,152.9932L164.54489999999998,152.9932L164.54489999999998,159.7432L163.41989999999998,159.7432L163.41989999999998,152.9932ZM158.4102,158.2432L160.83589999999998,158.2432L160.83589999999998,156.7432L158.4102,156.7432L158.4102,158.2432ZM160.83589999999998,153.7432L158.4102,153.7432L158.4102,155.6182L160.83589999999998,155.6182L160.83589999999998,153.7432ZM173.9316,162.0869L172.877,163.1182Q171.3945,161.4951,169.6191,160.0244L170.55079999999998,158.9932Q172.7363,160.8213,173.9316,162.0869ZM188.785,151.1182L196.537,151.1182L196.537,158.2432L190.174,158.2432L190.174,159.3682L188.785,159.3682L188.785,151.1182ZM186.834,146.9932L204.201,146.9932L204.201,148.4932L201.28300000000002,148.4932L201.28300000000002,160.6689Q201.28300000000002,163.1006,198.98000000000002,163.1182Q197.328,163.1182,195.764,163.1182Q195.676,162.3623,195.482,161.6182Q197.469,161.6182,198.506,161.6182Q199.80700000000002,161.6182,199.80700000000002,160.17680000000001L199.80700000000002,148.4932L186.834,148.4932L186.834,146.9932ZM195.148,152.2432L190.174,152.2432L190.174,157.1182L195.148,157.1182L195.148,152.2432ZM207.453,151.8682L219.547,151.8682L219.547,155.6182L218.281,155.6182L218.281,155.2432L208.719,155.2432L208.719,155.6182L207.453,155.6182L207.453,151.8682ZM204.957,149.6182L212.832,149.6182L212.832,148.4932L208.367,148.4932Q207.787,149.085,207.172,149.6182Q206.662,149.1436,206.11700000000002,148.8447Q207.787,147.5381,208.895,145.8682L210.125,146.3428Q209.738,146.876,209.346,147.3682L212.832,147.3682L212.832,145.8682L214.168,145.8682L214.168,147.3682L220.549,147.3682L220.549,148.4932L214.168,148.4932L214.168,149.6182L222.043,149.6182L222.043,150.7432L204.957,150.7432L204.957,149.6182ZM214.766,163.1182L214.766,155.6182L216.066,155.6182L216.066,156.3682L221.621,156.3682L221.621,157.4932L216.066,157.4932L216.066,158.2432L221.234,158.2432L221.234,159.3682L216.066,159.3682L216.066,160.4932L222.148,160.4932L222.148,161.6182L216.066,161.6182L216.066,163.1182L214.766,163.1182ZM210.951,163.1182L210.951,161.6182L204.922,161.6182L204.922,160.4932L210.951,160.4932L210.951,159.3682L205.801,159.3682L205.801,158.2432L210.951,158.2432L210.951,157.4932L205.43200000000002,157.4932L205.43200000000002,156.3682L210.951,156.3682L210.951,155.6182L212.252,155.6182L212.252,163.1182L210.951,163.1182ZM218.281,152.9932L208.719,152.9932L208.719,154.1182L218.281,154.1182L218.281,152.9932ZM234.295,153.3682L235.648,153.94819999999999Q234.342,157.0361,232.531,158.9639Q235.168,160.88569999999999,240.008,161.7119Q239.357,162.5498,238.953,163.1182Q234.271,161.958,231.482,159.8955Q229.068,161.665,223.801,163.1182Q223.414,162.4795,222.922,161.7119Q227.873,160.5752,230.387,158.9463Q228.646,157.2061,227.387,154.4111L228.564,153.7432Q229.719,156.3037,231.482,158.0381Q233.094,156.3799,234.295,153.3682ZM223.045,148.4932L231.283,148.4932Q230.867,147.6729,230.094,146.501L231.395,145.8682Q232.15,146.8818,232.73,148.001L231.746,148.4932L239.92,148.4932L239.92,149.9932L223.045,149.9932L223.045,148.4932ZM228.248,150.7432L229.373,151.6572Q226.912,154.2881,224.258,156.3682Q223.818,155.8701,223.273,155.3369Q225.928,153.3799,228.248,150.7432ZM234.559,150.7432Q237.775,153.2627,239.586,154.9619Q239.094,155.4072,238.531,155.9932Q236.545,154.0127,233.592,151.6572L234.559,150.7432ZM245.879,149.9932L253.93,149.9932L253.93,145.8682L255.354,145.8682L255.354,149.9932L257.902,149.9932L257.902,151.4932L255.354,151.4932L255.354,160.0654Q255.354,162.708,252.875,162.7432Q252.049,162.76069999999999,250.238,162.7432Q250.15,162.0928,249.957,161.2432Q251.645,161.2432,252.559,161.2432Q253.367,161.26069999999999,253.648,160.9092Q253.93,160.5869,253.93,159.57909999999998L253.93,151.4932L245.879,151.4932L245.879,149.9932ZM240.764,154.4932Q243.207,150.9834,244.771,145.8682L246.213,146.4131Q245.486,148.3701,244.719,150.0576L244.719,163.1182L243.312,163.1182L243.312,153.1162Q242.34,154.73930000000001,241.309,155.9932Q240.992,154.9326,240.764,154.4932ZM247.021,154.1064L248.199,153.3682Q249.271,154.92680000000001,250.713,157.4521L249.447,158.2432Q248.217,155.82319999999999,247.021,154.1064ZM263.932,162.0869L262.877,163.1182Q261.395,161.4951,259.619,160.0244L260.551,158.9932Q262.736,160.8213,263.932,162.0869ZM283.953,157.8682Q283.74199999999996,161.0264,282.15999999999997,163.1182Q281.65,162.5557,281.123,162.0811Q282.178,160.4111,282.494,158.6533Q282.75800000000004,157.1064,282.75800000000004,153.5029L282.75800000000004,146.9932L293.199,146.9932L293.199,161.167Q293.199,163.1006,291.459,163.1182Q290.703,163.13569999999999,289.385,163.1182Q289.244,162.3037,289.10400000000004,161.6182Q290.369,161.6182,291.03700000000003,161.6182Q291.898,161.6182,291.898,160.7627L291.898,157.8682L288.611,157.8682L288.611,162.3682L287.31100000000004,162.3682L287.31100000000004,157.8682L283.953,157.8682ZM276.72900000000004,155.2432Q277.85400000000004,154.9385,279.031,154.5928L279.031,150.7432L276.922,150.7432L276.922,149.6182L279.031,149.6182L279.031,146.2432L280.332,146.2432L280.332,149.6182L282.301,149.6182L282.301,150.7432L280.332,150.7432L280.332,154.2061Q281.22900000000004,153.9424,282.15999999999997,153.6494Q282.178,154.5225,282.195,155.1494Q281.264,155.4072,280.332,155.6885L280.332,161.2256Q280.332,163.083,278.71500000000003,163.1182Q278.06399999999996,163.1533,277.027,163.1182Q276.922,162.2979,276.799,161.5127Q277.801,161.6182,278.328,161.6182Q279.031,161.6182,279.031,160.8096L279.031,156.0986Q277.977,156.415,276.922,156.7432L276.72900000000004,155.2432ZM288.611,156.3682L291.898,156.3682L291.898,152.9932L288.611,152.9932L288.611,156.3682ZM291.898,148.4932L288.611,148.4932L288.611,151.4932L291.898,151.4932L291.898,148.4932ZM284.076,152.9932Q284.094,154.833,284.023,156.3682L287.31100000000004,156.3682L287.31100000000004,152.9932L284.076,152.9932ZM284.076,151.4932L287.31100000000004,151.4932L287.31100000000004,148.4932L284.076,148.4932L284.076,151.4932ZM295.273,155.2432L300.283,155.2432L300.283,154.1182L296.52099999999996,154.1182L296.52099999999996,152.9932L300.283,152.9932L300.283,151.8682L296.029,151.8682L296.029,150.7432L300.283,150.7432L300.283,149.2432L301.549,149.2432L301.549,150.7432L305.469,150.7432L305.469,149.2432L306.73400000000004,149.2432L306.73400000000004,150.7432L311.094,150.7432L311.094,151.8682L306.73400000000004,151.8682L306.73400000000004,152.9932L310.56600000000003,152.9932L310.56600000000003,154.1182L306.73400000000004,154.1182L306.73400000000004,155.2432L311.797,155.2432L311.797,156.3682L307.033,156.3682Q309.02,158.26659999999998,312.289,159.0869Q311.779,159.61430000000001,311.39300000000003,160.1182Q307.736,158.9463,305.504,156.3682L301.438,156.3682Q299.082,158.6064,295.59000000000003,160.1182Q295.256,159.6494,294.746,159.0869Q297.488,158.167,299.75,156.3682L295.273,156.3682L295.273,155.2432ZM296.188,161.2432L302.85,161.2432L302.85,159.7432L299.14099999999996,159.7432L299.14099999999996,158.6182L302.85,158.6182L302.85,157.1182L304.115,157.1182L304.115,158.6182L307.525,158.6182L307.525,159.7432L304.115,159.7432L304.115,161.2432L310.672,161.2432L310.672,162.3682L296.188,162.3682L296.188,161.2432ZM295.52,147.7432L302.91999999999996,147.7432Q302.58000000000004,147.0752,302.199,146.4307L303.447,145.8682Q304.027,146.835,304.52,147.7432L311.51599999999996,147.7432L311.51599999999996,150.3682L310.21500000000003,150.3682L310.21500000000003,148.8682L296.82,148.8682L296.82,150.3682L295.52,150.3682L295.52,147.7432ZM301.549,155.2432L305.469,155.2432L305.469,154.1182L301.549,154.1182L301.549,155.2432ZM301.549,152.9932L305.469,152.9932L305.469,151.8682L301.549,151.8682L301.549,152.9932ZM312.746,155.2432Q314.047,154.92090000000002,315.24199999999996,154.6104L315.24199999999996,150.3682L312.834,150.3682L312.834,149.2432L315.24199999999996,149.2432L315.24199999999996,145.8682L316.613,145.8682L316.613,149.2432L318.406,149.2432L318.406,150.3682L316.613,150.3682L316.613,154.2471Q317.527,153.9951,318.371,153.7432Q318.406,154.6279,318.494,155.2432Q317.52099999999996,155.4951,316.613,155.7412L316.613,161.2314Q316.613,163.1182,314.943,163.1182Q314.363,163.1182,313.13300000000004,163.083Q313.062,162.2979,312.904,161.4951Q313.94100000000003,161.6182,314.451,161.6182Q315.24199999999996,161.6182,315.24199999999996,160.7979L315.24199999999996,156.1338Q314.006,156.4561,312.922,156.7432L312.746,155.2432ZM319.32,155.6182L329.305,155.6182L329.305,156.7432L324.98,156.7432L324.98,161.2432L330.148,161.2432L330.148,162.7432L318.15999999999997,162.7432L318.15999999999997,161.2432L323.60900000000004,161.2432L323.60900000000004,156.7432L319.32,156.7432L319.32,155.6182ZM319.057,148.4932L324.102,148.4932Q323.451,147.5439,322.65999999999997,146.5889L323.78499999999997,145.8682Q324.77,147.0166,325.45500000000004,147.9424L324.58799999999997,148.4932L329.656,148.4932L329.656,151.4932L328.28499999999997,151.4932L328.28499999999997,149.6182L320.428,149.6182L320.428,151.4932L319.057,151.4932L319.057,148.4932ZM325.174,151.6572L326.105,150.7432Q328.443,152.624,330.06100000000004,154.2119L329.076,155.2432Q327.477,153.5439,325.174,151.6572ZM323.52099999999996,151.71Q321.46500000000003,153.6846,319.619,155.2432L318.652,154.2119Q320.797,152.542,322.52,150.7432L323.52099999999996,151.71ZM335.861,145.8682L337.232,145.8682L337.232,148.8682L341.047,148.8682L341.047,149.9932L337.232,149.9932L337.232,152.6182L341.82,152.6182L341.82,153.7432L337.232,153.7432L337.232,155.6182L341.082,155.6182L341.082,159.7314Q341.082,161.6006,339.359,161.6182Q338.814,161.63569999999999,337.9,161.6182Q337.812,161.1201,337.637,160.4932Q338.498,160.4932,339.043,160.4932Q339.781,160.4932,339.781,159.6025L339.781,156.7432L337.232,156.7432L337.232,163.4932L335.861,163.4932L335.861,156.7432L333.43600000000004,156.7432L333.43600000000004,161.9932L332.135,161.9932L332.135,155.6182L335.861,155.6182L335.861,153.7432L330.81600000000003,153.7432L330.81600000000003,152.6182L335.861,152.6182L335.861,149.9932L333.26,149.9932Q332.81399999999996,151.1826,332.24,152.2432Q331.65999999999997,151.9092,331.04499999999996,151.5752Q332.43399999999997,149.29,332.97900000000004,146.6182L334.279,146.9521Q334.051,147.94819999999999,333.764,148.8682L335.861,148.8682L335.861,145.8682ZM345.881,145.8682L347.287,145.8682L347.287,160.6924Q347.287,163.1182,345.195,163.1182Q344.51,163.1182,342.84,163.1006Q342.734,162.4385,342.559,161.6182Q344.035,161.6182,344.773,161.6182Q345.881,161.6182,345.881,160.3467L345.881,145.8682ZM343.859,158.6182L342.506,158.6182L342.506,147.7432L343.859,147.7432L343.859,158.6182ZM348.852,154.4932L356.691,154.4932L356.691,152.6182L350.082,152.6182L350.082,151.4932L356.691,151.4932L356.691,150.3682L358.062,150.3682L358.062,151.4932L364.953,151.4932L364.953,152.6182L358.062,152.6182L358.062,154.4932L366.184,154.4932L366.184,155.6182L348.852,155.6182L348.852,154.4932ZM349.449,157.4932L360.453,157.4932L360.453,155.9932L361.824,155.9932L361.824,157.4932L365.586,157.4932L365.586,158.6182L361.824,158.6182L361.824,160.92680000000001Q361.824,163.1182,359.539,163.1182Q358.203,163.1182,356.85,163.1182Q356.762,162.6436,356.586,161.9932Q357.992,161.9932,359.17,161.9932Q360.453,161.9932,360.453,160.89159999999998L360.453,158.6182L349.449,158.6182L349.449,157.4932ZM352.139,145.8682L353.65,145.8682Q353.246,146.6475,352.754,147.3682L357.852,147.3682L357.852,148.4932L351.998,148.4932Q350.961,149.9111,349.59,151.1182Q349.238,150.6611,348.711,150.0869Q350.908,148.3701,352.139,145.8682ZM359.662,145.8682L361.174,145.8682Q360.781,146.6592,360.348,147.3682L366.008,147.3682L366.008,148.4932L359.709,148.4932Q359.111,149.5186,358.449,150.3682Q357.711,149.8408,357.271,149.665Q358.801,147.9951,359.662,145.8682ZM352.719,159.5146L353.65,158.6182Q354.846,159.9072,356.094,161.3955L355.074,162.3682Q354.125,161.10840000000002,352.719,159.5146ZM354.178,151.1182Q353.51,150.1514,352.719,149.1436L353.633,148.4932Q354.477,149.3896,355.215,150.3271L354.178,151.1182ZM361.842,151.1182Q361.508,150.5381,360.418,149.1436L361.332,148.4932Q362.281,149.5068,362.879,150.3271L361.842,151.1182ZM374.264,163.8682L372.752,163.8682Q375.875,160.2822,375.875,155.3779Q375.875,150.5615,372.881,146.9932L374.375,146.9932Q377.375,150.4326,377.375,155.3779Q377.375,160.376,374.264,163.8682Z" fill="#DDDDDD" fill-opacity="1"/></g></g><path d="M1.5,116.5L1.5,108.5L3,108.5L3,116.5L1.5,116.5ZM1.5,128.5L1.5,120.5L3,120.5L3,128.5L1.5,128.5ZM1.5,140.5L1.5,132.5L3,132.5L3,140.5L1.5,140.5ZM1.5,152.5L1.5,144.5L3,144.5L3,152.5L1.5,152.5ZM1.5,164.5L1.5,156.5L3,156.5L3,164.5L1.5,164.5ZM1.5,176.5L1.5,168.5L3,168.5L3,176.5L1.5,176.5ZM1.5,188.5L1.5,180.5L3,180.5L3,188.5L1.5,188.5ZM1.5,191L1.5,192.5L3,192.5L3,191L1.5,191ZM3,104.5L3,98L9.5,98L9.5,96.5L1.5,96.5L1.5,104.5L3,104.5ZM13.5,96.5L13.5,98L21.5,98L21.5,96.5L13.5,96.5ZM25.5,96.5L25.5,98L33.5,98L33.5,96.5L25.5,96.5ZM37.5,96.5L37.5,98L45.5,98L45.5,96.5L37.5,96.5ZM49.5,96.5L49.5,98L57.5,98L57.5,96.5L49.5,96.5ZM61.5,96.5L61.5,98L69.5,98L69.5,96.5L61.5,96.5ZM73.5,96.5L73.5,98L81.5,98L81.5,96.5L73.5,96.5ZM85.5,96.5L85.5,98L93.5,98L93.5,96.5L85.5,96.5ZM97.5,96.5L97.5,98L105.5,98L105.5,96.5L97.5,96.5ZM109.5,96.5L109.5,98L117.5,98L117.5,96.5L109.5,96.5ZM121.5,96.5L121.5,98L129.5,98L129.5,96.5L121.5,96.5ZM133.5,96.5L133.5,98L141.5,98L141.5,96.5L133.5,96.5ZM145.5,96.5L145.5,98L153.5,98L153.5,96.5L145.5,96.5ZM157.5,96.5L157.5,98L165.5,98L165.5,96.5L157.5,96.5ZM169.5,96.5L169.5,98L177.5,98L177.5,96.5L169.5,96.5ZM181.5,96.5L181.5,98L189.5,98L189.5,96.5L181.5,96.5ZM193.5,96.5L193.5,98L201.5,98L201.5,96.5L193.5,96.5ZM205.5,96.5L205.5,98L213.5,98L213.5,96.5L205.5,96.5ZM217.5,96.5L217.5,98L225.5,98L225.5,96.5L217.5,96.5ZM229.5,96.5L229.5,98L237.5,98L237.5,96.5L229.5,96.5ZM241.5,96.5L241.5,98L249.5,98L249.5,96.5L241.5,96.5ZM253.5,96.5L253.5,98L261.5,98L261.5,96.5L253.5,96.5ZM265.5,96.5L265.5,98L273.5,98L273.5,96.5L265.5,96.5ZM277.5,96.5L277.5,98L285.5,98L285.5,96.5L277.5,96.5ZM289.5,96.5L289.5,98L297.5,98L297.5,96.5L289.5,96.5ZM301.5,96.5L301.5,98L309.5,98L309.5,96.5L301.5,96.5ZM313.5,96.5L313.5,98L321.5,98L321.5,96.5L313.5,96.5ZM325.5,96.5L325.5,98L333.5,98L333.5,96.5L325.5,96.5ZM337.5,96.5L337.5,98L345.5,98L345.5,96.5L337.5,96.5ZM349.5,96.5L349.5,98L357.5,98L357.5,96.5L349.5,96.5ZM361.5,96.5L361.5,98L369.5,98L369.5,96.5L361.5,96.5ZM373.5,96.5L373.5,98L381.5,98L381.5,96.5L373.5,96.5ZM385.5,96.5L385.5,98L393.5,98L393.5,96.5L385.5,96.5ZM397.5,96.5L397.5,98L405.5,98L405.5,96.5L397.5,96.5ZM409.5,96.5L409.5,98L417.5,98L417.5,96.5L409.5,96.5ZM421.5,96.5L421.5,98L429.5,98L429.5,96.5L421.5,96.5ZM433.5,96.5L433.5,98L441.5,98L441.5,96.5L433.5,96.5ZM445.5,96.5L445.5,98L453.5,98L453.5,96.5L445.5,96.5ZM457.5,96.5L457.5,98L460,98L460,100.5L461.5,100.5L461.5,96.5L457.5,96.5ZM461.5,104.5L460,104.5L460,112.5L461.5,112.5L461.5,104.5ZM461.5,116.5L460,116.5L460,124.5L461.5,124.5L461.5,116.5ZM461.5,128.5L460,128.5L460,136.5L461.5,136.5L461.5,128.5ZM461.5,140.5L460,140.5L460,148.5L461.5,148.5L461.5,140.5ZM461.5,152.5L460,152.5L460,160.5L461.5,160.5L461.5,152.5ZM461.5,164.5L460,164.5L460,172.5L461.5,172.5L461.5,164.5ZM461.5,176.5L460,176.5L460,184.5L461.5,184.5L461.5,176.5ZM461.5,188.5L460,188.5L460,192.5L461.5,192.5L461.5,188.5Z" fill-rule="evenodd" fill="#DDDDDD" fill-opacity="1"/></g><g style="mix-blend-mode:passthrough"><g><g style="mix-blend-mode:passthrough"><path d="M171.01367,231.8682Q170.09375,231.73930000000001,169.4082,231.2939Q168.72266,230.8486,168.27148,230.1279Q167.820312,229.4014,167.597656,228.417Q167.375,227.42680000000001,167.375,226.2256Q167.375,224.67871,167.738281,223.54785Q168.10156,222.41699,168.72852,221.68457Q169.35547,220.94629,170.1875,220.59473Q171.02539,220.24316,171.95703,220.24316Q173.07031,220.24316,173.90234,220.6416Q174.73438,221.03418,175.28516,221.77832Q175.83594,222.52246,176.10547,223.57715Q176.375,224.63184,176.375,225.9561Q176.375,227.3447,176.07031,228.3936Q175.77148,229.4424,175.24414,230.1748Q174.72266,230.9014,174.01367,231.32319999999999Q173.30469,231.73930000000001,172.49023,231.8682Q172.61914,232.7119,173.10547,233.2275Q173.59766,233.7432,174.48242,233.7432Q174.91016,233.7432,175.32031,233.6025Q175.73633,233.4619,176.16406,233.1279L176.85547,234.2646Q176.27539,234.792,175.6543,235.0146Q175.0332,235.2432,174.37695,235.2432Q173.66797,235.2432,173.07031,235.0264Q172.47852,234.8154,172.03906,234.3936Q171.59961,233.9717,171.33008,233.333Q171.06641,232.7002,171.01367,231.8682ZM174.875,226.1084Q174.875,225.12988,174.71094,224.33301Q174.54688,223.53027,174.18359,222.95605Q173.82031,222.38184,173.24609,222.06543Q172.67773,221.74316,171.86328,221.74316Q171.08398,221.74316,170.51562,222.08301Q169.95312,222.41699,169.58984,222.99121Q169.22656,223.56543,169.05078,224.33301Q168.875,225.10059,168.875,225.9619Q168.875,226.9639,169.03906,227.7725Q169.20898,228.5811,169.56641,229.1611Q169.92969,229.7412,170.49805,230.0576Q171.06641,230.3682,171.86328,230.3682Q172.64844,230.3682,173.2168,230.0342Q173.78516,229.6943,174.1543,229.1201Q174.52344,228.54,174.69922,227.7666Q174.875,226.9873,174.875,226.1084ZM185.375,227.7197Q185.375,228.6631,185.123,229.4365Q184.8711,230.2041,184.38479999999998,230.7432Q183.8984,231.2822,183.1895,231.5752Q182.4863,231.8682,181.5723,231.8682Q180.5645,231.8682,179.8613,231.5869Q179.1641,231.3057,178.7188,230.7959Q178.2793,230.2803,178.0742,229.5596Q177.875,228.8389,177.875,227.9541L177.875,220.24316L179.375,220.24316L179.375,227.6904Q179.375,228.3525,179.4922,228.8564Q179.6094,229.3545,179.8789,229.6885Q180.1484,230.0225,180.5762,230.19819999999999Q181.0039,230.3682,181.6191,230.3682Q182.7793,230.3682,183.3242,229.665Q183.875,228.9561,183.875,227.6729L183.875,220.24316L185.375,220.24316L185.375,227.7197ZM190.625,221.74316L187.9766,221.74316L187.9766,220.24316L194.76760000000002,220.24316L194.76760000000002,221.74316L192.125,221.74316L192.125,230.3682L194.76760000000002,230.3682L194.76760000000002,231.8682L187.9766,231.8682L187.9766,230.3682L190.625,230.3682L190.625,221.74316ZM204.7754,231.2529Q203.39260000000002,231.8682,201.8809,231.8682Q199.4492,231.8682,198.2246,230.4326Q197,228.9971,197,226.1787Q197,224.81934,197.32229999999998,223.71777Q197.6504,222.61621,198.2715,221.84863Q198.89260000000002,221.0752,199.8418,220.65918Q200.791,220.24316,201.9688,220.24316Q202.7715,220.24316,203.457,220.38965Q204.14260000000002,220.53613,204.7754,220.84082L204.7754,222.44629Q204.1484,222.10645,203.4805,221.9248Q202.8125,221.74316,202.0215,221.74316Q201.2129,221.74316,200.5566,222.03613Q199.9062,222.32324,199.4492,222.87988Q198.9922,223.43066,198.7461,224.22754Q198.5,225.02441,198.5,226.0498Q198.5,228.1885,199.4023,229.2783Q200.3105,230.3682,202.0566,230.3682Q202.79489999999998,230.3682,203.4688,230.19819999999999Q204.1484,230.0283,204.7754,229.7178L204.7754,231.2529ZM217.7422,216.86816L219.1484,217.0791Q218.7793,218.77246,218.2871,220.24316L223.666,220.24316L223.666,221.36816L222.5586,221.36816Q222.1191,226.6123,220.3086,229.6943Q221.73239999999998,231.7686,223.9297,233.0869Q223.3672,233.8721,222.9805,234.4932Q220.8359,232.999,219.4121,230.9424Q217.79489999999998,232.9873,215.5625,234.4932Q215.1758,234.0186,214.5605,233.4619Q217.0215,231.8096,218.5508,229.7061Q217.127,227.1631,216.66989999999998,223.83496Q216.3008,224.52051,215.8965,225.11816Q215.54489999999998,224.64941,215.01760000000002,224.08691Q217.0566,221.12207,217.7422,216.86816ZM206.4219,226.9932L209.0938,226.9932Q209.4805,226.26069999999999,209.8496,225.49316L211.11520000000002,225.8975Q210.834,226.4541,210.55270000000002,226.9932L214.8594,226.9932L214.8594,228.1006Q214.1914,229.9346,212.8379,231.3174Q213.8047,231.8271,214.8066,232.3369L214.0332,233.3682Q212.9434,232.7354,211.7656,232.1025Q209.7793,233.61430000000001,206.7559,234.4932Q206.4746,233.9775,206.1582,233.3682Q208.7246,232.7002,210.5,231.4463Q208.9883,230.6553,207.3359,229.8291Q207.8984,228.9971,208.4258,228.1182L206.4219,228.1182L206.4219,226.9932ZM206.61520000000002,220.99316L210.6582,220.99316L210.6582,216.86816L211.959,216.86816L211.959,220.99316L215.334,220.99316L215.334,222.11816L211.959,222.11816L211.959,223.00293L212.4863,222.39941Q214.1211,223.56543,215.2285,224.46191L214.38479999999998,225.49316Q213.418,224.5791,211.959,223.43652L211.959,225.49316L210.6582,225.49316L210.6582,222.97949Q209.0586,224.62012,206.9316,225.8682Q206.5977,225.37598,206.1758,224.83691Q208.3906,223.72363,210.2363,222.11816L206.61520000000002,222.11816L206.61520000000002,220.99316ZM221.1523,221.36816L217.86520000000002,221.36816Q217.7773,221.60254,217.6719,221.81934Q217.9883,225.6455,219.4297,228.3701Q220.8359,225.7334,221.1523,221.36816ZM209.0586,229.3838Q210.3066,230.04,211.625,230.7549Q212.8379,229.63569999999999,213.5234,228.1182L209.8672,228.1182Q209.4629,228.7686,209.0586,229.3838ZM214.543,217.61816L215.6328,218.33887Q214.666,219.37012,213.6992,220.24316Q213.29489999999998,219.8916,212.75,219.50488Q213.6641,218.63184,214.543,217.61816ZM207.07229999999998,218.30371L208.0742,217.61816Q208.86520000000002,218.47949,209.709,219.46973L208.6191,220.24316Q207.8457,219.21777,207.07229999999998,218.30371ZM232.1562,228.1182L235.7773,228.1182L235.7773,225.8682L231.6816,225.8682Q231.48829999999998,231.2061,229.1855,234.1182Q228.7637,233.6084,228.2363,233.0869Q230.4336,230.3916,230.4336,224.81348L230.4336,217.99316L240.8047,217.99316L240.8047,222.86816L239.53910000000002,222.86816L239.53910000000002,222.49316L231.69920000000002,222.49316L231.69920000000002,224.74316L235.7773,224.74316L235.7773,222.86816L237.043,222.86816L237.043,224.74316L241.6836,224.74316L241.6836,225.8682L237.043,225.8682L237.043,228.1182L240.69920000000002,228.1182L240.69920000000002,234.1182L239.4336,234.1182L239.4336,232.9932L233.4219,232.9932L233.4219,234.1182L232.1562,234.1182L232.1562,228.1182ZM224.2812,226.2432Q225.5293,225.92680000000001,226.707,225.6045L226.707,221.36816L224.4922,221.36816L224.4922,220.24316L226.707,220.24316L226.707,216.86816L228.0078,216.86816L228.0078,220.24316L229.9238,220.24316L229.9238,221.36816L228.0078,221.36816L228.0078,225.2002Q228.8457,224.97754,229.64260000000002,224.74316Q229.6602,225.6104,229.748,226.2432Q228.8457,226.48930000000001,228.0078,226.7236L228.0078,232.0791Q228.0078,234.083,226.26760000000002,234.1182Q225.7227,234.13569999999999,224.6504,234.1006Q224.58010000000002,233.333,224.4395,232.5127Q225.4062,232.6182,225.916,232.6182Q226.707,232.6182,226.707,231.7334L226.707,227.1514Q225.5059,227.4619,224.457,227.7432L224.2812,226.2432ZM239.53910000000002,219.11816L231.69920000000002,219.11816L231.69920000000002,221.36816L239.53910000000002,221.36816L239.53910000000002,219.11816ZM239.4336,229.2432L233.4219,229.2432L233.4219,231.8682L239.4336,231.8682L239.4336,229.2432ZM246.67579999999998,216.86816L248.1172,217.25488Q247.7305,218.21582,247.3086,219.11816L257.4336,219.11816Q257.3633,225.41699,257.15229999999997,227.8311Q256.9414,230.76069999999999,254.252,230.7432Q253.5488,230.7432,251.7559,230.7432Q251.6504,230.0576,251.4746,229.2432Q252.9336,229.2432,254.0586,229.2432Q255.6582,229.26069999999999,255.7812,227.5967Q255.9746,225.44043,256.02729999999997,220.61816L246.6582,220.61816Q246.043,221.59668,245.3398,222.49316L252.6523,222.49316L252.6523,227.3682L246.28910000000002,227.3682L246.28910000000002,230.80180000000001Q246.28910000000002,232.2432,247.748,232.2432L255.9395,232.2432Q257.6094,232.2432,257.8906,231.1416Q258.15430000000003,230.1514,258.3125,228.4932Q259.0684,228.792,259.7188,229.0029Q259.5078,230.6494,259.2617,231.6865Q258.8223,233.7432,256.2734,233.7432L247.44920000000002,233.7432Q244.8828,233.7432,244.8828,231.2295L244.8828,223.17871Q244.0215,224.39746,243.0547,225.49316Q242.6504,224.90137,242.17579999999998,224.46191Q245.2344,220.99316,246.67579999999998,216.86816ZM251.2812,223.61816L246.28910000000002,223.61816L246.28910000000002,226.2432L251.2812,226.2432L251.2812,223.61816ZM266.3633,217.99316L276.172,217.99316L276.172,224.74316L274.836,224.74316L274.836,223.99316L271.883,223.99316L271.883,226.2432L277.68399999999997,226.2432L277.68399999999997,227.3682L272.902,227.3682Q274.52,230.0459,277.824,231.5869Q277.279,232.4014,276.945,232.9932Q273.641,230.9541,271.883,227.4912L271.883,234.4932L270.6,234.4932L270.6,227.4209Q268.473,231.32319999999999,265.2734,233.3682Q264.8691,232.8936,264.2891,232.3369Q267.418,230.5615,269.369,227.3682L264.7637,227.3682L264.7637,226.2432L270.6,226.2432L270.6,223.99316L267.699,223.99316L267.699,224.74316L266.3633,224.74316L266.3633,217.99316ZM260.1934,225.49316Q262.5488,222.08887,263.8496,217.24316L265.1504,217.62988Q264.4297,219.89746,263.5859,221.87207L263.5859,234.4932L262.3203,234.4932L262.3203,224.46777Q261.5645,225.8271,260.7383,226.9932Q260.4922,226.2256,260.1934,225.49316ZM274.836,219.11816L267.699,219.11816L267.699,222.86816L274.836,222.86816L274.836,219.11816ZM288.459,217.60645L289.619,216.86816Q290.34000000000003,217.66504,291.201,218.7959L290.07,219.49316L294.84000000000003,219.49316L294.84000000000003,227.3682L293.486,227.3682L293.486,226.6182L286.719,226.6182Q286.484,231.3994,284.205,234.4932Q283.766,234.0361,283.062,233.4912Q285.383,230.5674,285.383,225.1123L285.383,219.49316L289.877,219.49316Q289.121,218.42676,288.459,217.60645ZM278.246,226.2432Q279.488,225.8799,280.848,225.44629L280.848,221.36816L278.492,221.36816L278.492,220.24316L280.848,220.24316L280.848,216.86816L282.201,216.86816L282.201,220.24316L284.43399999999997,220.24316L284.43399999999997,221.36816L282.201,221.36816L282.201,225.05957Q283.273,224.68457,284.416,224.27441Q284.43399999999997,225.22363,284.451,225.7744Q283.344,226.1084,282.201,226.4717L282.201,232.126Q282.201,234.1006,280.355,234.1182Q279.758,234.13569999999999,278.738,234.1182Q278.633,233.3389,278.492,232.6182Q279.529,232.6182,280.092,232.6182Q280.848,232.6182,280.848,231.7686L280.848,226.8936Q279.652,227.3037,278.422,227.7432L278.246,226.2432ZM286.754,220.61816L286.754,225.49316L293.486,225.49316L293.486,220.61816L286.754,220.61816Z" fill="#DDDDDD" fill-opacity="1"/></g></g><path d="M1.5,211.5L1.5,203.5L3,203.5L3,211.5L1.5,211.5ZM1.5,223.5L1.5,215.5L3,215.5L3,223.5L1.5,223.5ZM1.5,235.5L1.5,227.5L3,227.5L3,235.5L1.5,235.5ZM1.5,247.5L1.5,239.5L3,239.5L3,247.5L1.5,247.5ZM1.5,259.5L1.5,251.5L3,251.5L3,259.5L1.5,259.5ZM1.5,262L1.5,263.5L9.5,263.5L9.5,262L1.5,262ZM21.5,263.5L13.5,263.5L13.5,262L21.5,262L21.5,263.5ZM33.5,263.5L25.5,263.5L25.5,262L33.5,262L33.5,263.5ZM45.5,263.5L37.5,263.5L37.5,262L45.5,262L45.5,263.5ZM57.5,263.5L49.5,263.5L49.5,262L57.5,262L57.5,263.5ZM69.5,263.5L61.5,263.5L61.5,262L69.5,262L69.5,263.5ZM81.5,263.5L73.5,263.5L73.5,262L81.5,262L81.5,263.5ZM93.5,263.5L85.5,263.5L85.5,262L93.5,262L93.5,263.5ZM105.5,263.5L97.5,263.5L97.5,262L105.5,262L105.5,263.5ZM117.5,263.5L109.5,263.5L109.5,262L117.5,262L117.5,263.5ZM129.5,263.5L121.5,263.5L121.5,262L129.5,262L129.5,263.5ZM141.5,263.5L133.5,263.5L133.5,262L141.5,262L141.5,263.5ZM153.5,263.5L145.5,263.5L145.5,262L153.5,262L153.5,263.5ZM165.5,263.5L157.5,263.5L157.5,262L165.5,262L165.5,263.5ZM177.5,263.5L169.5,263.5L169.5,262L177.5,262L177.5,263.5ZM189.5,263.5L181.5,263.5L181.5,262L189.5,262L189.5,263.5ZM201.5,263.5L193.5,263.5L193.5,262L201.5,262L201.5,263.5ZM213.5,263.5L205.5,263.5L205.5,262L213.5,262L213.5,263.5ZM225.5,263.5L217.5,263.5L217.5,262L225.5,262L225.5,263.5ZM237.5,263.5L229.5,263.5L229.5,262L237.5,262L237.5,263.5ZM249.5,263.5L241.5,263.5L241.5,262L249.5,262L249.5,263.5ZM261.5,263.5L253.5,263.5L253.5,262L261.5,262L261.5,263.5ZM273.5,263.5L265.5,263.5L265.5,262L273.5,262L273.5,263.5ZM285.5,263.5L277.5,263.5L277.5,262L285.5,262L285.5,263.5ZM297.5,263.5L289.5,263.5L289.5,262L297.5,262L297.5,263.5ZM309.5,263.5L301.5,263.5L301.5,262L309.5,262L309.5,263.5ZM321.5,263.5L313.5,263.5L313.5,262L321.5,262L321.5,263.5ZM333.5,263.5L325.5,263.5L325.5,262L333.5,262L333.5,263.5ZM345.5,263.5L337.5,263.5L337.5,262L345.5,262L345.5,263.5ZM357.5,263.5L349.5,263.5L349.5,262L357.5,262L357.5,263.5ZM369.5,263.5L361.5,263.5L361.5,262L369.5,262L369.5,263.5ZM381.5,263.5L373.5,263.5L373.5,262L381.5,262L381.5,263.5ZM393.5,263.5L385.5,263.5L385.5,262L393.5,262L393.5,263.5ZM405.5,263.5L397.5,263.5L397.5,262L405.5,262L405.5,263.5ZM417.5,263.5L409.5,263.5L409.5,262L417.5,262L417.5,263.5ZM429.5,263.5L421.5,263.5L421.5,262L429.5,262L429.5,263.5ZM441.5,263.5L433.5,263.5L433.5,262L441.5,262L441.5,263.5ZM453.5,263.5L445.5,263.5L445.5,262L453.5,262L453.5,263.5ZM461.5,247.5L461.5,255.5L460,255.5L460,247.5L461.5,247.5ZM461.5,235.5L461.5,243.5L460,243.5L460,235.5L461.5,235.5ZM461.5,223.5L461.5,231.5L460,231.5L460,223.5L461.5,223.5ZM461.5,211.5L461.5,219.5L460,219.5L460,211.5L461.5,211.5ZM461.5,199.5L461.5,207.5L460,207.5L460,199.5L461.5,199.5ZM445.5,191.5L453.5,191.5L453.5,193L445.5,193L445.5,191.5ZM433.5,191.5L441.5,191.5L441.5,193L433.5,193L433.5,191.5ZM421.5,191.5L429.5,191.5L429.5,193L421.5,193L421.5,191.5ZM409.5,191.5L417.5,191.5L417.5,193L409.5,193L409.5,191.5ZM397.5,191.5L405.5,191.5L405.5,193L397.5,193L397.5,191.5ZM385.5,191.5L393.5,191.5L393.5,193L385.5,193L385.5,191.5ZM373.5,191.5L381.5,191.5L381.5,193L373.5,193L373.5,191.5ZM361.5,191.5L369.5,191.5L369.5,193L361.5,193L361.5,191.5ZM349.5,191.5L357.5,191.5L357.5,193L349.5,193L349.5,191.5ZM337.5,191.5L345.5,191.5L345.5,193L337.5,193L337.5,191.5ZM325.5,191.5L333.5,191.5L333.5,193L325.5,193L325.5,191.5ZM313.5,191.5L321.5,191.5L321.5,193L313.5,193L313.5,191.5ZM301.5,191.5L309.5,191.5L309.5,193L301.5,193L301.5,191.5ZM289.5,191.5L297.5,191.5L297.5,193L289.5,193L289.5,191.5ZM277.5,191.5L285.5,191.5L285.5,193L277.5,193L277.5,191.5ZM265.5,191.5L273.5,191.5L273.5,193L265.5,193L265.5,191.5ZM253.5,191.5L261.5,191.5L261.5,193L253.5,193L253.5,191.5ZM241.5,191.5L249.5,191.5L249.5,193L241.5,193L241.5,191.5ZM229.5,191.5L237.5,191.5L237.5,193L229.5,193L229.5,191.5ZM217.5,191.5L225.5,191.5L225.5,193L217.5,193L217.5,191.5ZM205.5,191.5L213.5,191.5L213.5,193L205.5,193L205.5,191.5ZM193.5,191.5L201.5,191.5L201.5,193L193.5,193L193.5,191.5ZM181.5,191.5L189.5,191.5L189.5,193L181.5,193L181.5,191.5ZM169.5,191.5L177.5,191.5L177.5,193L169.5,193L169.5,191.5ZM157.5,191.5L165.5,191.5L165.5,193L157.5,193L157.5,191.5ZM145.5,191.5L153.5,191.5L153.5,193L145.5,193L145.5,191.5ZM133.5,191.5L141.5,191.5L141.5,193L133.5,193L133.5,191.5ZM121.5,191.5L129.5,191.5L129.5,193L121.5,193L121.5,191.5ZM109.5,191.5L117.5,191.5L117.5,193L109.5,193L109.5,191.5ZM97.5,191.5L105.5,191.5L105.5,193L97.5,193L97.5,191.5ZM85.5,191.5L93.5,191.5L93.5,193L85.5,193L85.5,191.5ZM73.5,191.5L81.5,191.5L81.5,193L73.5,193L73.5,191.5ZM61.5,191.5L69.5,191.5L69.5,193L61.5,193L61.5,191.5ZM49.5,191.5L57.5,191.5L57.5,193L49.5,193L49.5,191.5ZM37.5,191.5L45.5,191.5L45.5,193L37.5,193L37.5,191.5ZM25.5,191.5L33.5,191.5L33.5,193L25.5,193L25.5,191.5ZM13.5,191.5L21.5,191.5L21.5,193L13.5,193L13.5,191.5ZM9.5,191.5L1.5,191.5L1.5,199.5L3,199.5L3,193L9.5,193L9.5,191.5ZM457.5,191.5L461.5,191.5L461.5,195.5L460,195.5L460,193L457.5,193L457.5,191.5ZM461.5,259.5L461.5,263.5L457.5,263.5L457.5,262L460,262L460,259.5L461.5,259.5Z" fill-rule="evenodd" fill="#DDDDDD" fill-opacity="1"/></g><g style="mix-blend-mode:passthrough"><g><g style="mix-blend-mode:passthrough"><path d="M192.8984,31.74316L189.5,31.74316L189.5,41.8682L188,41.8682L188,31.74316L184.5957,31.74316L184.5957,30.24316L192.8984,30.24316L192.8984,31.74316ZM202.3965,41.8682L195.875,41.8682L195.875,30.24316L197.375,30.24316L197.375,40.3682L202.3965,40.3682L202.3965,41.8682ZM212,38.6514Q212,39.4541,211.6719,40.0635Q211.3438,40.667,210.7578,41.0713Q210.1719,41.4697,209.3457,41.6689Q208.5254,41.8682,207.5352,41.8682Q207.084,41.8682,206.6387,41.833Q206.1934,41.792,205.7832,41.7334Q205.3789,41.674800000000005,205.0156,41.598600000000005Q204.6523,41.5225,204.3594,41.4404L204.3594,39.8408Q205.0156,40.0869,205.8359,40.2275Q206.6562,40.3682,207.6992,40.3682Q208.45510000000002,40.3682,208.98239999999998,40.2568Q209.5156,40.1455,209.8555,39.9287Q210.1953,39.7119,210.3477,39.4014Q210.5,39.0908,210.5,38.6924Q210.5,38.2588,210.2422,37.9541Q209.9844,37.6494,209.5625,37.4092Q209.1406,37.1631,208.6016,36.9639Q208.0625,36.7646,207.5,36.5361Q206.9375,36.3076,206.3984,36.0439Q205.8594,35.7744,205.4375,35.41113Q205.0156,35.04785,204.7578,34.56152Q204.5,34.06934,204.5,33.39551Q204.5,32.80957,204.74020000000002,32.24121Q204.9805,31.67285,205.4844,31.2334Q205.9941,30.78809,206.791,30.51855Q207.5879,30.24316,208.6895,30.24316Q208.9707,30.24316,209.3047,30.27246Q209.6387,30.30176,209.9785,30.35449Q210.3184,30.40723,210.6465,30.47754Q210.9805,30.54785,211.2617,30.62402L211.2617,32.1416Q210.5879,31.94824,209.9082,31.84863Q209.2344,31.74316,208.60739999999998,31.74316Q207.2656,31.74316,206.6328,32.16504Q206,32.58691,206,33.2959Q206,33.73535,206.2578,34.05176Q206.5156,34.3623,206.9375,34.61426Q207.3594,34.86035,207.8984,35.06543Q208.4375,35.26465,209,35.49316Q209.5625,35.7158,210.1016,35.9854Q210.6406,36.249,211.0625,36.6182Q211.4844,36.9873,211.7422,37.4795Q212,37.9717,212,38.6514ZM183.50586,64.7432L195.4062,64.7432L195.4062,68.1182L194.2109,68.1182L194.2109,67.7432L184.70117,67.7432L184.70117,68.1182L183.50586,68.1182L183.50586,64.7432ZM180.939453,56.5869Q182.24023,55.0869,183.01367,53.0244L184.05078,53.3525Q183.94531,53.6221,183.83984,53.8682L189.51758,53.8682Q189.39453,55.9775,189.28906,57.3193Q189.14844,59.1182,187.6543,59.1182Q186.96875,59.1182,186.17773,59.083Q186.10156,58.7607,186.01953,58.3682L183.66406,58.3682L183.66406,58.7432L182.67969,58.7432L182.67969,55.5205Q182.16992,56.4932,181.64258,57.2432Q181.361328,56.9209,180.939453,56.5869ZM190.0625,54.7119Q191.5918,53.083,192.4883,50.8682L193.666,51.167Q193.332,51.9814,192.9746,52.7432L198.0254,52.7432L198.0254,53.8682L196.6895,53.8682Q196.1621,55.9541,195.1016,57.1963Q196.2793,57.958,198.0781,58.4619Q197.9023,58.667,197.3398,59.4932Q195.4766,58.8135,194.2754,57.9346Q193.1562,58.7842,191.416,59.4932Q191.1348,58.9775,190.6953,58.4619Q192.3066,57.8994,193.3848,57.161100000000005Q192.4297,56.1533,191.8672,54.723600000000005Q191.375,55.262699999999995,190.8359,55.7432Q190.502,55.2451,190.0625,54.7119ZM181.080078,59.8682L189.39453,59.8682Q189.13086,59.4873,188.86719,59.165L189.97461,58.7432Q190.30859,59.2529,190.6543,59.8682L198.0605,59.8682L198.0605,60.6182L181.080078,60.6182L181.080078,59.8682ZM180.974609,51.9932L183.78711,51.9932L183.78711,50.8682L184.87695,50.8682L184.87695,51.9932L187.14453,51.9932L187.14453,50.8682L188.23438,50.8682L188.23438,51.9932L190.8711,51.9932L190.8711,52.7432L188.23438,52.7432L188.23438,53.4932L187.14453,53.4932L187.14453,52.7432L184.87695,52.7432L184.87695,53.4932L183.78711,53.4932L183.78711,52.7432L180.974609,52.7432L180.974609,51.9932ZM194.2109,65.4932L184.70117,65.4932L184.70117,66.9932L194.2109,66.9932L194.2109,65.4932ZM183.59375,62.8682L195.3359,62.8682L195.3359,63.6182L183.59375,63.6182L183.59375,62.8682ZM183.55859,61.3682L195.2656,61.3682L195.2656,62.1182L183.55859,62.1182L183.55859,61.3682ZM182.7793,55.7432L186.88086,55.7432L186.88086,57.9756Q187.13867,57.9932,187.35547,57.9932Q188.12891,57.9932,188.2168,57.0381Q188.32227,55.9541,188.375,54.6182L183.37695,54.6182Q183.07812,55.2158,182.7793,55.7432ZM194.2227,56.498999999999995Q195.1074,55.5146,195.5293,53.8682L192.5938,53.8682Q193.1562,55.4854,194.2227,56.498999999999995ZM185.89648,57.6182L185.89648,56.4932L183.66406,56.4932L183.66406,57.6182L185.89648,57.6182ZM201.3477,60.9932L213.8457,60.9932L213.8457,67.7432L212.4395,67.7432L212.4395,66.9932L202.7539,66.9932L202.7539,67.7432L201.3477,67.7432L201.3477,60.9932ZM198.9922,57.6182L207.3242,57.6182L207.3242,54.9932L202.5781,54.9932Q201.8516,56.2178,201.0137,57.2432Q200.4336,56.838899999999995,199.7129,56.417Q201.6465,54.026399999999995,202.5781,51.2432L204.0371,51.665Q203.6445,52.6201,203.2109,53.4932L207.3242,53.4932L207.3242,50.8682L208.7656,50.8682L208.7656,53.4932L214.8477,53.4932L214.8477,54.9932L208.7656,54.9932L208.7656,57.6182L216.166,57.6182L216.166,59.1182L198.9922,59.1182L198.9922,57.6182ZM212.4395,62.1182L202.7539,62.1182L202.7539,65.8682L212.4395,65.8682L212.4395,62.1182Z" fill="#DDDDDD" fill-opacity="1"/></g></g><path d="M132.5,1.5L132.5,3L140.5,3L140.5,1.5L132.5,1.5ZM144.5,1.5L144.5,3L152.5,3L152.5,1.5L144.5,1.5ZM156.5,1.5L156.5,3L164.5,3L164.5,1.5L156.5,1.5ZM168.5,1.5L168.5,3L176.5,3L176.5,1.5L168.5,1.5ZM180.5,1.5L180.5,3L188.5,3L188.5,1.5L180.5,1.5ZM192.5,1.5L192.5,3L200.5,3L200.5,1.5L192.5,1.5ZM204.5,1.5L204.5,3L212.5,3L212.5,1.5L204.5,1.5ZM216.5,1.5L216.5,3L224.5,3L224.5,1.5L216.5,1.5ZM228.5,1.5L228.5,3L236.5,3L236.5,1.5L228.5,1.5ZM240.5,1.5L240.5,3L248.5,3L248.5,1.5L240.5,1.5ZM252.5,1.5L252.5,3L260.5,3L260.5,1.5L252.5,1.5ZM263,1.5L263,9.5L264.5,9.5L264.5,1.5L263,1.5ZM264.5,13.5L263,13.5L263,21.5L264.5,21.5L264.5,13.5ZM264.5,25.5L263,25.5L263,33.5L264.5,33.5L264.5,25.5ZM264.5,37.5L263,37.5L263,45.5L264.5,45.5L264.5,37.5ZM264.5,49.5L263,49.5L263,57.5L264.5,57.5L264.5,49.5ZM264.5,61.5L263,61.5L263,69.5L264.5,69.5L264.5,61.5ZM264.5,73.5L263,73.5L263,81.5L264.5,81.5L264.5,73.5ZM264.5,85.5L263,85.5L263,93.5L264.5,93.5L264.5,85.5ZM264.5,96L263,96L263,97.5L264.5,97.5L264.5,96Z" fill-rule="evenodd" fill="#DDDDDD" fill-opacity="1"/></g><g style="mix-blend-mode:passthrough"><g><g style="mix-blend-mode:passthrough"><path d="M342.01367,41.8682Q341.09375,41.7393,340.4082,41.2939Q339.72266,40.8486,339.27148,40.1279Q338.82031,39.4014,338.59766,38.417Q338.375,37.4268,338.375,36.2256Q338.375,34.67871,338.73828,33.54785Q339.10156,32.41699,339.72852,31.68457Q340.35547,30.94629,341.1875,30.59473Q342.02539,30.24316,342.95703,30.24316Q344.07031,30.24316,344.90234,30.6416Q345.73438,31.03418,346.28516,31.77832Q346.83594,32.52246,347.10547,33.57715Q347.375,34.63184,347.375,35.9561Q347.375,37.3447,347.07031,38.3936Q346.77148,39.4424,346.24414,40.1748Q345.72266,40.9014,345.01367,41.3232Q344.30469,41.7393,343.49023,41.8682Q343.61914,42.7119,344.10547,43.2275Q344.59766,43.7432,345.48242,43.7432Q345.91016,43.7432,346.32031,43.6025Q346.73633,43.4619,347.16406,43.1279L347.8555,44.2646Q347.27539,44.792,346.6543,45.0146Q346.0332,45.2432,345.37695,45.2432Q344.66797,45.2432,344.07031,45.026399999999995Q343.47852,44.8154,343.03906,44.3936Q342.59961,43.9717,342.33008,43.333Q342.06641,42.700199999999995,342.01367,41.8682ZM345.875,36.1084Q345.875,35.12988,345.71094,34.33301Q345.54688,33.53027,345.18359,32.95605Q344.82031,32.38184,344.24609,32.06543Q343.67773,31.74316,342.86328,31.74316Q342.08398,31.74316,341.51562,32.08301Q340.95312,32.41699,340.58984,32.99121Q340.22656,33.56543,340.05078,34.33301Q339.875,35.10059,339.875,35.9619Q339.875,36.9639,340.03906,37.7725Q340.20898,38.5811,340.56641,39.1611Q340.92969,39.7412,341.49805,40.0576Q342.06641,40.3682,342.86328,40.3682Q343.64844,40.3682,344.2168,40.0342Q344.78516,39.6943,345.1543,39.1201Q345.52344,38.54,345.69922,37.7666Q345.875,36.9873,345.875,36.1084ZM356.375,37.7197Q356.375,38.6631,356.123,39.4365Q355.8711,40.2041,355.3848,40.7432Q354.8984,41.2822,354.1895,41.575199999999995Q353.4863,41.8682,352.5723,41.8682Q351.5645,41.8682,350.8613,41.5869Q350.1641,41.3057,349.7188,40.7959Q349.2793,40.2803,349.0742,39.5596Q348.875,38.8389,348.875,37.9541L348.875,30.24316L350.375,30.24316L350.375,37.6904Q350.375,38.3525,350.4922,38.8564Q350.6094,39.3545,350.8789,39.6885Q351.1484,40.0225,351.5762,40.1982Q352.0039,40.3682,352.6191,40.3682Q353.7793,40.3682,354.3242,39.665Q354.875,38.9561,354.875,37.6729L354.875,30.24316L356.375,30.24316L356.375,37.7197ZM361.625,31.74316L358.9766,31.74316L358.9766,30.24316L365.7676,30.24316L365.7676,31.74316L363.125,31.74316L363.125,40.3682L365.7676,40.3682L365.7676,41.8682L358.9766,41.8682L358.9766,40.3682L361.625,40.3682L361.625,31.74316ZM375.7754,41.2529Q374.3926,41.8682,372.8809,41.8682Q370.4492,41.8682,369.2246,40.4326Q368,38.9971,368,36.1787Q368,34.81934,368.3223,33.71777Q368.6504,32.61621,369.2715,31.84863Q369.8926,31.0752,370.8418,30.65918Q371.791,30.24316,372.9688,30.24316Q373.7715,30.24316,374.457,30.38965Q375.1426,30.53613,375.7754,30.84082L375.7754,32.44629Q375.1484,32.10645,374.4805,31.9248Q373.8125,31.74316,373.0215,31.74316Q372.2129,31.74316,371.5566,32.03613Q370.9062,32.32324,370.4492,32.87988Q369.9922,33.43066,369.7461,34.22754Q369.5,35.02441,369.5,36.0498Q369.5,38.1885,370.40229999999997,39.2783Q371.3105,40.3682,373.0566,40.3682Q373.7949,40.3682,374.4688,40.1982Q375.1484,40.0283,375.7754,39.7178L375.7754,41.2529ZM385.3496,27.55371L386.6328,26.86816Q387.3887,27.85254,388.0742,28.99512L387.2246,29.49316L394.3496,29.49316L394.3496,30.99316L380.6562,30.99316L380.6562,35.14746Q380.6562,41.1533,378.08979999999997,44.1182Q377.668,43.626000000000005,377.0703,43.0869Q379.1797,40.7549,379.1797,35.1123L379.1797,29.49316L386.6152,29.49316Q386.0469,28.50293,385.3496,27.55371ZM380.5508,41.8682L388.6836,41.8682Q390.0547,38.4404,391.58979999999997,32.49316L393.1191,32.91504Q391.4785,38.5752,390.2012,41.8682L394.543,41.8682L394.543,43.3682L380.5508,43.3682L380.5508,41.8682ZM381.5,33.7002L382.8359,33.24316Q383.9258,36.2197,384.9453,39.9111L383.4512,40.3682Q382.6426,37.1338,381.5,33.7002ZM385.7363,32.87988L387.08979999999997,32.49316Q388.0039,35.49316,388.707,39.2139L387.16020000000003,39.6182Q386.6504,36.3135,385.7363,32.87988ZM403.6836,43.7432L403.6836,38.1182L398.5684,38.1182Q398.2695,41.7334,396.4414,44.1182Q395.9844,43.626000000000005,395.4043,43.0869Q396.5469,41.4873,396.9512,39.5361Q397.3379,37.6553,397.3379,34.20996L397.3379,27.99316L411.6641,27.99316L411.6641,41.6924Q411.6641,43.7432,409.6777,43.7432Q408.46479999999997,43.7432,406.9531,43.7432Q406.8652,43.2979,406.6895,42.6182Q408.2188,42.6182,409.168,42.6182Q410.2578,42.6182,410.2578,41.5283L410.2578,38.1182L405.08979999999997,38.1182L405.08979999999997,43.7432L403.6836,43.7432ZM405.08979999999997,36.9932L410.2578,36.9932L410.2578,33.61816L405.08979999999997,33.61816L405.08979999999997,36.9932ZM410.2578,29.11816L405.08979999999997,29.11816L405.08979999999997,32.49316L410.2578,32.49316L410.2578,29.11816ZM398.668,36.9932L403.6836,36.9932L403.6836,33.61816L398.7441,33.61816Q398.7969,35.37012,398.668,36.9932ZM398.7441,29.11816L398.7441,32.49316L403.6836,32.49316L403.6836,29.11816L398.7441,29.11816ZM348.9746,68.8682Q345.875,65.4053,345.875,60.4834Q345.875,55.5029,348.957,51.9932L350.4688,51.9932Q347.375,55.5908,347.375,60.4658Q347.375,65.2705,350.4688,68.8682L348.9746,68.8682ZM365,65.8682L363.5,65.8682L363.5,60.3545Q363.5,59.3584,363.1426,58.8662Q362.791,58.3682,362.1289,58.3682Q361.8418,58.3682,361.5898,58.4502Q361.3438,58.5322,361.0742,58.7373Q360.8047,58.9365,360.4824,59.2822Q360.166,59.6221,359.75,60.1377L359.75,65.8682L358.25,65.8682L358.25,53.4932L359.75,53.4932L359.75,57.026399999999995L359.75,58.415Q360.084,57.9814,360.4062,57.6885Q360.7344,57.3955,361.0566,57.213899999999995Q361.3848,57.026399999999995,361.7188,56.950199999999995Q362.0586,56.8682,362.4219,56.8682Q363.6523,56.8682,364.3262,57.6768Q365,58.4795,365,60.1025L365,65.8682ZM375.125,62.2764Q375.125,63.0205,374.8203,63.6768Q374.5215,64.3271,373.918,64.8193Q373.3145,65.3057,372.4004,65.5869Q371.4863,65.8682,370.2734,65.8682Q369.5996,65.8682,369.0605,65.82130000000001Q368.5273,65.76859999999999,368.0645,65.6865L368.0645,64.16890000000001Q368.6035,64.2627,369.207,64.3154Q369.8105,64.3682,370.4375,64.3682Q371.293,64.3682,371.8965,64.22749999999999Q372.5059,64.0869,372.8867,63.8232Q373.2734,63.5596,373.4492,63.1846Q373.625,62.8096,373.625,62.335Q373.625,61.9072,373.3438,61.5908Q373.0625,61.2686,372.65229999999997,61.0518Q372.248,60.835,371.71479999999997,60.7295Q371.1875,60.6182,370.5547,60.6182L369.2422,60.6182L369.2422,59.1182L370.5723,59.1182Q371.0879,59.1182,371.5156,58.9951Q371.9434,58.8721,372.2422,58.6494Q372.5469,58.4209,372.7109,58.0869Q372.875,57.7471,372.875,57.325199999999995Q372.875,56.498999999999995,372.3359,56.123999999999995Q371.8027,55.7432,370.7656,55.7432Q370.21479999999997,55.7432,369.6289,55.8604Q369.043,55.9717,368.375,56.200199999999995L368.375,54.7471Q368.6562,54.6299,368.9785,54.536100000000005Q369.3008,54.4424,369.6172,54.3779Q369.9395,54.313500000000005,370.2559,54.2783Q370.5723,54.2432,370.8652,54.2432Q371.7266,54.2432,372.3828,54.436499999999995Q373.0449,54.6299,373.4844,54.998999999999995Q373.9238,55.362300000000005,374.1465,55.8838Q374.375,56.3994,374.375,57.049800000000005Q374.375,58.0166,373.8711,58.6787Q373.3672,59.335,372.4883,59.7217Q372.9336,59.792,373.3672,60.0029Q373.8066,60.208,374.1699,60.5361Q374.5391,60.8584,374.832,61.2979Q375.125,61.7373,375.125,62.2764ZM376.6016,59.4932L384.4414,59.4932L384.4414,57.6182L377.832,57.6182L377.832,56.4932L384.4414,56.4932L384.4414,55.3682L385.8125,55.3682L385.8125,56.4932L392.7031,56.4932L392.7031,57.6182L385.8125,57.6182L385.8125,59.4932L393.9336,59.4932L393.9336,60.6182L376.6016,60.6182L376.6016,59.4932ZM377.1992,62.4932L388.2031,62.4932L388.2031,60.9932L389.5742,60.9932L389.5742,62.4932L393.3359,62.4932L393.3359,63.6182L389.5742,63.6182L389.5742,65.9268Q389.5742,68.1182,387.2891,68.1182Q385.9531,68.1182,384.5996,68.1182Q384.5117,67.64359999999999,384.3359,66.9932Q385.7422,66.9932,386.9199,66.9932Q388.2031,66.9932,388.2031,65.8916L388.2031,63.6182L377.1992,63.6182L377.1992,62.4932ZM379.8887,50.8682L381.4004,50.8682Q380.9961,51.6475,380.5039,52.3682L385.6016,52.3682L385.6016,53.4932L379.748,53.4932Q378.7109,54.911100000000005,377.33979999999997,56.1182Q376.9883,55.661100000000005,376.4609,55.0869Q378.6582,53.3701,379.8887,50.8682ZM387.4121,50.8682L388.9238,50.8682Q388.5312,51.6592,388.09770000000003,52.3682L393.7578,52.3682L393.7578,53.4932L387.459,53.4932Q386.8613,54.5186,386.1992,55.3682Q385.4609,54.8408,385.0215,54.665Q386.5508,52.9951,387.4121,50.8682ZM380.4688,64.5146L381.4004,63.6182Q382.5957,64.9072,383.8438,66.3955L382.8242,67.3682Q381.875,66.1084,380.4688,64.5146ZM381.9277,56.1182Q381.2598,55.151399999999995,380.4688,54.1436L381.3828,53.4932Q382.2266,54.3896,382.96479999999997,55.3271L381.9277,56.1182ZM389.5918,56.1182Q389.2578,55.5381,388.168,54.1436L389.082,53.4932Q390.0312,54.5068,390.6289,55.3271L389.5918,56.1182ZM402.0137,68.8682L400.502,68.8682Q403.625,65.2822,403.625,60.3779Q403.625,55.561499999999995,400.6309,51.9932L402.125,51.9932Q405.125,55.4326,405.125,60.3779Q405.125,65.376,402.0137,68.8682Z" fill="#DDDDDD" fill-opacity="1"/></g></g><path d="M289.5,21.5L289.5,13.5L291,13.5L291,21.5L289.5,21.5ZM289.5,33.5L289.5,25.5L291,25.5L291,33.5L289.5,33.5ZM289.5,45.5L289.5,37.5L291,37.5L291,45.5L289.5,45.5ZM289.5,57.5L289.5,49.5L291,49.5L291,57.5L289.5,57.5ZM289.5,69.5L289.5,61.5L291,61.5L291,69.5L289.5,69.5ZM289.5,81.5L289.5,73.5L291,73.5L291,81.5L289.5,81.5ZM289.5,93.5L289.5,85.5L291,85.5L291,93.5L289.5,93.5ZM289.5,96L289.5,97.5L291,97.5L291,96L289.5,96ZM291,9.5L291,3L297.5,3L297.5,1.5L289.5,1.5L289.5,9.5L291,9.5ZM301.5,1.5L301.5,3L309.5,3L309.5,1.5L301.5,1.5ZM313.5,1.5L313.5,3L321.5,3L321.5,1.5L313.5,1.5ZM325.5,1.5L325.5,3L333.5,3L333.5,1.5L325.5,1.5ZM337.5,1.5L337.5,3L345.5,3L345.5,1.5L337.5,1.5ZM349.5,1.5L349.5,3L357.5,3L357.5,1.5L349.5,1.5ZM361.5,1.5L361.5,3L369.5,3L369.5,1.5L361.5,1.5ZM373.5,1.5L373.5,3L381.5,3L381.5,1.5L373.5,1.5ZM385.5,1.5L385.5,3L393.5,3L393.5,1.5L385.5,1.5ZM397.5,1.5L397.5,3L405.5,3L405.5,1.5L397.5,1.5ZM409.5,1.5L409.5,3L417.5,3L417.5,1.5L409.5,1.5ZM421.5,1.5L421.5,3L429.5,3L429.5,1.5L421.5,1.5ZM433.5,1.5L433.5,3L441.5,3L441.5,1.5L433.5,1.5ZM445.5,1.5L445.5,3L453.5,3L453.5,1.5L445.5,1.5ZM457.5,1.5L457.5,3L460,3L460,5.5L461.5,5.5L461.5,1.5L457.5,1.5ZM461.5,9.5L460,9.5L460,17.5L461.5,17.5L461.5,9.5ZM461.5,21.5L460,21.5L460,29.5L461.5,29.5L461.5,21.5ZM461.5,33.5L460,33.5L460,41.5L461.5,41.5L461.5,33.5ZM461.5,45.5L460,45.5L460,53.5L461.5,53.5L461.5,45.5ZM461.5,57.5L460,57.5L460,65.5L461.5,65.5L461.5,57.5ZM461.5,69.5L460,69.5L460,77.5L461.5,77.5L461.5,69.5ZM461.5,81.5L460,81.5L460,89.5L461.5,89.5L461.5,81.5ZM461.5,93.5L460,93.5L460,97.5L461.5,97.5L461.5,93.5Z" fill-rule="evenodd" fill="#DDDDDD" fill-opacity="1"/></g></g></g></svg>