<svg xmlns="http://www.w3.org/2000/svg" xmlns:xlink="http://www.w3.org/1999/xlink" fill="none" version="1.1" width="466" height="265" viewBox="0 0 466 265"><g style="mix-blend-mode:passthrough"><g><g style="mix-blend-mode:passthrough"><g><g style="mix-blend-mode:passthrough"><path d="M52.5,30.156L62.25,30.156L62.25,31.6267L58.24219,31.6267L58.24219,43.656L56.625,43.656L56.625,31.6267L52.5,31.6267L52.5,30.156ZM64.125,30.156L65.7422,30.156L65.7422,42.1853L72.1875,42.1853L72.1875,43.656L64.125,43.656L64.125,30.156ZM82.5,39.906Q82.5,41.0662,81.9785,41.962599999999995Q81.457,42.853300000000004,80.4434,43.351299999999995Q79.4355,43.8435,78.0527,43.8435Q76.1191,43.8435,74.748,42.9353Q73.377,42.0212,72.9434,40.5095L74.2031,39.730199999999996Q74.7012,41.0076,75.6738,41.6931Q76.6465,42.3728,78.0938,42.3728Q79.4121,42.3728,80.1445,41.7869Q80.8828,41.1951,80.8828,40.1462Q80.8828,39.2966,80.4258,38.7693Q79.9688,38.2419,79.3008,37.949Q78.6387,37.656,77.4727,37.3103Q76.1777,36.917699999999996,75.3867,36.572Q74.5957,36.2205,74.0449,35.5173Q73.5,34.8142,73.5,33.671620000000004Q73.5,32.51733,74.0801,31.67944Q74.6602,30.83569,75.6738,30.40209Q76.6934,29.9685,77.959,29.9685Q79.7285,29.9685,80.8184,30.75951Q81.91409999999999,31.54467,82.2949,32.7517L81.0527,33.52514Q80.6309,32.54662,79.8809,31.99584Q79.1309,31.4392,77.8945,31.4392Q76.6348,31.4392,75.873,32.0017Q75.1172,32.55834,75.1172,33.5017Q75.1172,34.19897,75.5273,34.64428Q75.9375,35.08373,76.5527,35.34155Q77.1738,35.5994,78.2578,35.915800000000004Q79.623,36.3201,80.4609,36.7068Q81.2988,37.0876,81.8965,37.8669Q82.5,38.6404,82.5,39.906ZM55.11328,61.0466Q54.82617,61.1931,53.50781,61.7205L53.50781,67.0349Q53.50781,68.0193,53.12695,68.40010000000001Q52.75195,68.781,51.69141,68.781Q51.09961,68.781,50.466797,68.66380000000001L50.197266,67.18719999999999Q50.77148,67.5212,51.50977,67.5212Q51.92578,67.5212,52.04883,67.3865Q52.17773,67.2458,52.17773,66.8415L52.17773,62.2068L50.267578,62.8982L49.980469,61.4919L52.17773,60.7302L52.17773,57.3845L50.25,57.3845L50.25,55.989999999999995L52.17773,55.989999999999995L52.17773,52.650099999999995L53.50781,52.650099999999995L53.50781,55.989999999999995L55.13086,55.989999999999995L55.13086,57.3845L53.50781,57.3845L53.50781,60.2439Q54.48047,59.9099,55.11328,59.6462L55.11328,61.0466ZM57.22266,57.531L57.22266,59.4119Q57.22266,61.615,57.09375,63.1326Q56.9707,64.65010000000001,56.58398,66.0681Q56.19727,67.4802,55.44141,69.033L54.19336,68.1892Q54.93164,66.8181,55.2832,65.5994Q55.64062,64.3806,55.75781,62.9861Q55.875,61.5857,55.875,59.3298L55.875,53.406L65.7129,53.406L65.7129,57.531L57.22266,57.531ZM64.3594,56.3826L64.3594,54.613L57.22266,54.613L57.22266,56.3826L64.3594,56.3826ZM62.4375,67.281L66.4512,67.281L66.4512,68.4119L57.20508,68.4119L57.20508,67.281L61.0664,67.281L61.0664,65.4177L58.00781,65.4177L58.00781,64.281L61.0664,64.281L61.0664,62.8572Q59.7363,62.9275,59.10352,62.904Q58.20703,62.9568,57.82617,63.0212L57.64453,62.0662Q58.07227,61.949,58.38867,61.6736Q59.15039,60.9236,60.0059,59.7927L57.77344,59.7927L57.77344,58.656L66,58.656L66,59.7927L61.5176,59.7927Q60.5566,61.0408,59.6602,61.9724L63.873,61.7205L63.5859,61.2341Q63.2812,60.6892,63.0645,60.3904L64.0898,59.7927Q64.4531,60.2966,64.9277,61.0935Q65.4082,61.8904,65.5312,62.1072L66.0879,63.0212L65.0449,63.5955L64.4648,62.7458L62.4375,62.7986L62.4375,64.281L65.6191,64.281L65.6191,65.4177L62.4375,65.4177L62.4375,67.281ZM84.75,62.406L84.75,63.7712L77.6074,63.7712L77.6074,66.5603Q77.6074,67.4216,77.4316,67.8962Q77.2617,68.3708,76.8457,68.57589999999999Q76.4355,68.781,75.6797,68.781Q74.4551,68.781,73.2129,68.6697L72.9082,67.2341Q74.4199,67.4099,75.1758,67.4099Q75.6797,67.4099,75.8789,67.1052Q76.0781,66.8005,76.0781,66.0681L76.0781,63.7712L68.625,63.7712L68.625,62.406L76.0781,62.406L76.0781,59.6872L69.8848,59.6872L69.8848,58.281L76.0781,58.281L76.0781,55.1814Q72.7441,55.3982,69.7031,55.503699999999995L69.5801,54.138400000000004Q72.2754,54.0681,76.3418,53.7693Q80.4082,53.4705,83.291,53.1306L83.5078,54.5369Q81.3867,54.788799999999995,77.6074,55.075900000000004L77.6074,58.281L83.4902,58.281L83.4902,59.6872L77.6074,59.6872L77.6074,62.406L84.75,62.406Z" fill="#DDDDDD" fill-opacity="1"/></g></g><path d="M1.5,1.5L1.5,3L9.5,3L9.5,1.5L1.5,1.5ZM13.5,1.5L13.5,3L21.5,3L21.5,1.5L13.5,1.5ZM25.5,1.5L25.5,3L33.5,3L33.5,1.5L25.5,1.5ZM37.5,1.5L37.5,3L45.5,3L45.5,1.5L37.5,1.5ZM49.5,1.5L49.5,3L57.5,3L57.5,1.5L49.5,1.5ZM61.5,1.5L61.5,3L69.5,3L69.5,1.5L61.5,1.5ZM73.5,1.5L73.5,3L81.5,3L81.5,1.5L73.5,1.5ZM85.5,1.5L85.5,3L93.5,3L93.5,1.5L85.5,1.5ZM97.5,1.5L97.5,3L105.5,3L105.5,1.5L97.5,1.5ZM109.5,1.5L109.5,3L117.5,3L117.5,1.5L109.5,1.5ZM121.5,1.5L121.5,3L129.5,3L129.5,1.5L121.5,1.5ZM132,1.5L132,9.5L133.5,9.5L133.5,1.5L132,1.5ZM133.5,13.5L132,13.5L132,21.5L133.5,21.5L133.5,13.5ZM133.5,25.5L132,25.5L132,33.5L133.5,33.5L133.5,25.5ZM133.5,37.5L132,37.5L132,45.5L133.5,45.5L133.5,37.5ZM133.5,49.5L132,49.5L132,57.5L133.5,57.5L133.5,49.5ZM133.5,61.5L132,61.5L132,69.5L133.5,69.5L133.5,61.5ZM133.5,73.5L132,73.5L132,81.5L133.5,81.5L133.5,73.5ZM133.5,85.5L132,85.5L132,93.5L133.5,93.5L133.5,85.5ZM133.5,96L132,96L132,97.5L133.5,97.5L133.5,96ZM3,5.5L1.5,5.5L1.5,13.5L3,13.5L3,5.5ZM3,17.5L1.5,17.5L1.5,25.5L3,25.5L3,17.5ZM3,29.5L1.5,29.5L1.5,37.5L3,37.5L3,29.5ZM3,41.5L1.5,41.5L1.5,49.5L3,49.5L3,41.5ZM3,53.5L1.5,53.5L1.5,61.5L3,61.5L3,53.5ZM3,65.5L1.5,65.5L1.5,73.5L3,73.5L3,65.5ZM3,77.5L1.5,77.5L1.5,85.5L3,85.5L3,77.5ZM3,89.5L1.5,89.5L1.5,97.5L3,97.5L3,89.5Z" fill-rule="evenodd" fill="#DDDDDD" fill-opacity="1"/></g><g style="mix-blend-mode:passthrough"><g><g style="mix-blend-mode:passthrough"><path d="M196.918,141.4685L194.56799999999998,141.4685L191.064,138.738Q190.49599999999998,138.8435,189.91,138.8435Q188.199,138.8435,186.822,137.9997Q185.445,137.156,184.66,135.574Q183.875,133.9919,183.875,131.9001Q183.875,129.82592,184.654,128.24389Q185.434,126.66186,186.799,125.81811Q188.17000000000002,124.9685,189.875,124.9685Q191.57999999999998,124.9685,192.945,125.82983Q194.316,126.6853,195.096,128.26147Q195.875,129.83178,195.875,131.9119Q195.875,134.0798,195.049,135.6912Q194.223,137.3025,192.799,138.1287L196.918,141.4685ZM185.49200000000002,131.906Q185.49200000000002,133.5115,186.01999999999998,134.7537Q186.547,135.99,187.543,136.6814Q188.54500000000002,137.3728,189.875,137.3728Q191.211,137.3728,192.195,136.6814Q193.186,135.99,193.719,134.7537Q194.25799999999998,133.5115,194.25799999999998,131.906Q194.25799999999998,130.28295,193.719,129.04662Q193.186,127.80444,192.195,127.12475Q191.211,126.4392,189.875,126.4392Q188.54500000000002,126.4392,187.555,127.12475Q186.57,127.80444,186.031,129.04662Q185.49200000000002,130.28295,185.49200000000002,131.906ZM206.75,125.156L208.367,125.156L208.367,133.1892Q208.367,134.9236,207.758,136.2068Q207.148,137.4841,205.988,138.1638Q204.834,138.8435,203.23399999999998,138.8435Q200.832,138.8435,199.47899999999998,137.3318Q198.125,135.8201,198.125,133.1892L198.125,125.156L199.74200000000002,125.156L199.74200000000002,132.9548Q199.74200000000002,135.0994,200.63299999999998,136.2361Q201.523,137.3728,203.24,137.3728Q204.951,137.3728,205.848,136.2361Q206.75,135.0994,206.75,132.9548L206.75,125.156ZM212.867,138.656L211.25,138.656L211.25,125.156L212.867,125.156L212.867,138.656ZM220.883,137.3728Q223.045,137.3728,224.053,135.322L225.348,136.0955Q224.797,137.3904,223.631,138.1169Q222.471,138.8435,220.953,138.8435Q219.289,138.8435,217.93,137.9646Q216.57,137.0857,215.785,135.5037Q215,133.9216,215,131.9001Q215,129.87865,215.785,128.29662Q216.57,126.71459,217.93,125.84155Q219.289,124.9685,220.953,124.9685Q222.471,124.9685,223.631,125.70092Q224.797,126.42748,225.348,127.71655L224.053,128.48998Q223.045,126.4392,220.883,126.4392Q219.623,126.4392,218.65,127.12475Q217.684,127.8103,217.15,129.05248Q216.617,130.28881,216.617,131.9001Q216.617,133.5056,217.15,134.7595Q217.684,136.0076,218.65,136.69310000000002Q219.623,137.3728,220.883,137.3728ZM242.967,130.781L235.912,130.781Q235.584,131.906,235.314,132.656L241.602,132.656L241.602,133.9685Q241.297,134.4372,240.506,135.5212Q239.715,136.6052,239.029,137.5076L241.654,138.7029L241.045,140.03300000000002Q235.953,137.4783,233.158,136.3298L233.68,135.1638Q234.688,135.5622,237.207,136.6755L237.746,136.9158Q238.25,136.2947,238.889,135.4216Q239.533,134.5427,239.891,133.9861L233.75,133.9861L233.75,132.779Q234.055,131.9412,234.4,130.781L231.5,130.781L231.5,129.42748L234.775,129.42748Q234.957,128.77709,235.279,127.406L232.473,127.406L232.473,126.07592L235.584,126.07592Q235.965,124.11303,236.053,123.44506L237.512,123.6267Q237.266,125.156,237.066,126.07592L242.299,126.07592L242.299,127.406L236.773,127.406Q236.451,128.77709,236.27,129.42748L242.967,129.42748L242.967,130.781ZM231.863,123.93139Q231.16,126.04662,230.375,127.73998L230.375,139.781L228.992,139.781L228.992,130.31225Q228.143,131.7419,227.064,133.0896L226.379,131.6189Q227.533,130.08959,228.617,127.96264Q229.701,125.83569,230.48,123.55053L231.863,123.93139ZM250.59,135.8962L249.02,136.1482L249.02,139.781L247.742,139.781L247.742,136.365Q246.072,136.6755,244.865,136.9275L244.701,135.5037Q245.557,135.3923,246.834,135.158Q247.186,135.1228,247.742,135.0173L247.742,132.5681L245.117,132.5681L245.117,131.2205Q245.744,129.4978,246.377,127.13647L244.9,127.13647L244.9,125.84155L246.699,125.84155Q247.027,124.50561,247.221,123.4099L248.48,123.67944Q248.287,124.63451,247.959,125.84155L251,125.84155L251,127.13647L247.637,127.13647Q246.986,129.55053,246.395,131.3083L247.742,131.3083L247.742,128.6599L249.02,128.6599L249.02,131.3083L250.479,131.3083L250.479,132.5681L249.02,132.5681L249.02,134.783Q249.289,134.7478,249.541,134.7009Q249.799,134.654,250.033,134.6189L250.496,134.531L250.59,135.8962ZM256.59000000000003,123.6267Q257.428,124.98022,258.682,126.15795Q259.94100000000003,127.33569,261.4,128.16772L260.773,129.23412Q259.60699999999997,128.63647,258.5,127.80444L258.5,128.906L253.115,128.906L253.115,128.05639Q252.154,128.73022,251.076,129.33373L250.244,128.29076Q251.879,127.29467,253.08,126.15795Q254.287,125.01537,255.184,123.6267L256.59000000000003,123.6267ZM258.43,127.7517Q256.895,126.4099,255.928,124.88647Q254.92,126.42748,253.455,127.7517L258.43,127.7517ZM259.209,129.57397L260.375,129.57397L260.375,137.9119Q260.375,138.949,260,139.365Q259.631,139.781,258.652,139.781Q257.855,139.781,256.988,139.6697L256.754,138.4451Q257.738,138.5915,258.5,138.5915Q258.875,138.5915,259.039,138.3279Q259.209,138.0642,259.209,137.5076L259.209,129.57397ZM251.334,139.781L251.334,129.93139L255.764,129.93139L255.764,138.1872Q255.764,139.0427,255.482,139.3826Q255.207,139.7283,254.539,139.7283Q254.141,139.7283,253.35,139.6521L253.115,138.5037Q253.244,138.5212,253.549,138.56810000000002Q253.854,138.6091,254.135,138.6091Q254.428,138.6091,254.545,138.4392Q254.662,138.2693,254.662,137.865L254.662,136.3474L252.482,136.3474L252.482,139.781L251.334,139.781ZM257.006,136.781L257.006,130.21264L258.119,130.21264L258.119,136.781L257.006,136.781ZM254.662,132.6267L254.662,131.0564L252.482,131.0564L252.482,132.6267L254.662,132.6267ZM252.482,133.7048L252.482,135.2517L254.662,135.2517L254.662,133.7048L252.482,133.7048ZM278.11699999999996,128.96459L266,128.96459L266,130.18334Q266,132.5505,265.83000000000004,134.1736Q265.65999999999997,135.7966,265.21500000000003,137.1501Q264.775,138.5037,263.967,139.9158L262.578,139.3415Q263.369,137.9646,263.791,136.7458Q264.219,135.5212,264.395,133.9158Q264.576,132.3044,264.576,129.75561L264.576,124.406L278.11699999999996,124.406L278.11699999999996,128.96459ZM276.699,127.781L276.699,125.64819L266,125.64819L266,127.781L276.699,127.781ZM277.613,130.781L277.613,131.988L267.301,131.988L267.301,130.781L277.613,130.781ZM271.818,135.0056Q270.828,136.3181,269.06399999999996,137.97050000000002L275.404,137.4138Q274.707,136.5525,274.145,135.9021L275.275,135.1521Q276.014,136.0017,276.904,137.0857Q277.79499999999996,138.1697,278.369,138.9665L277.30899999999997,139.88060000000002Q276.969,139.3943,276.283,138.53300000000002Q273.096,138.7497,268.977,139.1072L266.832,139.3064L266.527,138.0818Q267.23,137.8474,267.64099999999996,137.5076Q268.994,136.3357,270.072,135.0056L266.346,135.0056L266.346,133.781L278.75,133.781L278.75,135.0056L271.818,135.0056ZM90.4707,155.9939Q90.4707,153.4509,91.3145,151.3005Q92.1641,149.1501,93.6406,147.656L95.0938,147.656Q93.6406,149.4197,92.8555,151.4646Q92.0703,153.5095,92.0703,155.9939Q92.0703,158.4958,92.8555,160.5466Q93.6406,162.5974,95.0938,164.3259L93.6406,164.3259Q92.1641,162.8318,91.3145,160.69310000000002Q90.4707,158.5486,90.4707,155.9939ZM111.85159999999999,156.1521L111.0195,155.0798Q107.7441,155.22050000000002,104.498,155.4841Q102.9336,155.63060000000002,102.1074,155.7361L101.7441,154.47050000000002Q102.3594,154.4001,102.7344,154.0486Q103.8359,153.029,105.418,151.031L102.125,151.031L102.125,149.6658L106.6777,149.6658Q105.8691,148.0427,105.6699,147.75560000000002L107.0586,147.1462Q107.2578,147.4158,108.0078,148.8923L108.4238,149.6658L113.1934,149.6658L113.1934,151.031L107.2168,151.031Q106.5312,151.904,105.7344,152.8122Q104.9375,153.72050000000002,104.3223,154.3122Q105.7637,154.2185,107.1934,154.113Q108.6289,154.0076,110.0469,153.9021Q109.1797,152.8357,108.6055,152.1912L109.7012,151.406Q111.7168,153.779,112.9414,155.2732L111.85159999999999,156.1521ZM100.6309,151.4822Q100.0156,150.94310000000002,99.1074,150.2517Q98.1992,149.5603,97.6074,149.1794L98.4336,148.0427Q99.0078,148.4236,99.8984,149.074Q100.7891,149.7185,101.4922,150.2751L100.6309,151.4822ZM100.127,155.7654Q99.459,155.1912,98.4688,154.4412Q97.4785,153.6912,96.8516,153.281L97.6777,152.156Q99.4238,153.3162,100.9707,154.5642L100.127,155.7654ZM103.1035,157.9509Q103.0801,157.4763,103.0801,156.199L104.4102,156.199L104.3926,158.1267Q104.3926,159.6033,104.1641,160.5583Q103.9414,161.5134,103.3027,162.3572Q102.6641,163.2009,101.3867,164.2673L100.3789,163.4412Q101.457,162.6091,102.0254,161.97050000000002Q102.5996,161.3318,102.8574,160.5525Q103.1211,159.7673,103.1211,158.5779Q103.1211,158.1677,103.1035,157.9509ZM113.8672,159.7322Q113.81450000000001,161.7302,113.7793,162.1521Q113.72659999999999,163.031,113.3457,163.3943Q112.9648,163.7634,112.0977,163.7986Q111.916,163.8162,111.5352,163.8162Q111.166,163.8162,110.9668,163.7986Q110.1875,163.7634,109.8359,163.3826Q109.4844,163.0076,109.4844,162.15800000000002L109.4844,156.199L110.8203,156.199L110.8203,161.78300000000002Q110.8203,162.15800000000002,110.9375,162.3279Q111.0547,162.49779999999998,111.3652,162.5212L111.6875,162.5388Q112.0566,162.5388,112.209,162.49779999999998Q112.3672,162.4509,112.4375,162.2869Q112.5078,162.1169,112.56049999999999,161.7185Q112.60159999999999,161.4021,112.625,160.7224Q112.6543,160.0427,112.6543,159.5564L113.8672,159.7322ZM107.6328,163.781L106.3379,163.781L106.3379,156.4158L107.6328,156.4158L107.6328,163.781ZM100.8477,157.4822Q100.4668,158.6599,99.8457,160.62279999999998Q99.2246,162.5857,98.8496,163.8162L97.4082,163.5701Q97.6602,162.9783,98.498,160.324Q99.3359,157.6697,99.459,157.09550000000002L100.8477,157.4822ZM131.3867,150.656L131.3867,152.0564L125.9727,152.0564Q126.18950000000001,155.5486,126.66409999999999,157.7986Q127.1445,160.0486,127.90039999999999,161.3201Q128.16989999999998,161.7595,128.4043,161.9236Q128.6387,162.0876,128.9258,162.0876Q129.2129,162.0876,129.3711,161.8474Q129.5352,161.6013,129.7168,160.781Q129.916,159.8611,130.0918,158.6599L131.3516,159.1111Q131.082,160.8513,130.9062,161.572Q130.5781,162.8083,130.0977,163.2947Q129.623,163.781,128.9434,163.781Q128.2578,163.781,127.6602,163.3298Q127.0625,162.8845,126.4531,161.7947Q125.7148,160.447,125.1934,157.9802Q124.6719,155.5134,124.4727,152.0564L115.56049999999999,152.0564L115.56049999999999,150.656L124.4199,150.656Q124.3848,148.2244,124.31450000000001,147.5037L125.8262,147.5037Q125.8262,148.9451,125.9023,150.656L131.3867,150.656ZM129.1953,150.5271Q128.293,149.5544,127.0332,148.5466L127.91210000000001,147.5915Q128.3984,147.9665,129.0488,148.5408Q129.6992,149.1091,130.0742,149.4841L129.1953,150.5271ZM120.67580000000001,160.5818Q122.4043,160.3298,124.4375,159.99L124.4727,161.4255Q118.9238,162.3279,115.666,162.738L115.4727,161.3142Q116.8789,161.1326,117.5586,161.03300000000002L119.1816,160.8162L119.1816,156.2048L115.9941,156.2048L115.9941,154.781L123.8223,154.781L123.8223,156.2048L120.67580000000001,156.2048L120.67580000000001,160.5818ZM149.5918,154.781L142.5371,154.781Q142.209,155.906,141.9395,156.656L148.22660000000002,156.656L148.22660000000002,157.9685Q147.9219,158.4372,147.1309,159.5212Q146.3398,160.6052,145.6543,161.5076L148.2793,162.7029L147.66989999999998,164.03300000000002Q142.5781,161.4783,139.7832,160.3298L140.3047,159.1638Q141.3125,159.5622,143.832,160.6755L144.3711,160.9158Q144.875,160.2947,145.5137,159.4216Q146.1582,158.5427,146.5156,157.9861L140.375,157.9861L140.375,156.779Q140.6797,155.9412,141.0254,154.781L138.125,154.781L138.125,153.4275L141.4004,153.4275Q141.582,152.7771,141.9043,151.406L139.0977,151.406L139.0977,150.0759L142.209,150.0759Q142.5898,148.113,142.67770000000002,147.4451L144.13670000000002,147.6267Q143.8906,149.156,143.6914,150.0759L148.9238,150.0759L148.9238,151.406L143.39839999999998,151.406Q143.0762,152.7771,142.8945,153.4275L149.5918,153.4275L149.5918,154.781ZM138.4883,147.9314Q137.7852,150.0466,137,151.74L137,163.781L135.6172,163.781L135.6172,154.3122Q134.76760000000002,155.7419,133.6895,157.0896L133.0039,155.6189Q134.1582,154.0896,135.2422,151.9626Q136.3262,149.8357,137.1055,147.5505L138.4883,147.9314ZM157.2148,159.8962L155.6445,160.1482L155.6445,163.781L154.3672,163.781L154.3672,160.365Q152.69729999999998,160.6755,151.49020000000002,160.9275L151.3262,159.5037Q152.1816,159.3923,153.459,159.15800000000002Q153.8105,159.12279999999998,154.3672,159.0173L154.3672,156.56810000000002L151.7422,156.56810000000002L151.7422,155.22050000000002Q152.3691,153.49779999999998,153.002,151.1365L151.5254,151.1365L151.5254,149.8415L153.32420000000002,149.8415Q153.6523,148.50560000000002,153.8457,147.4099L155.1055,147.6794Q154.9121,148.6345,154.584,149.8415L157.625,149.8415L157.625,151.1365L154.26170000000002,151.1365Q153.6113,153.5505,153.0195,155.3083L154.3672,155.3083L154.3672,152.6599L155.6445,152.6599L155.6445,155.3083L157.1035,155.3083L157.1035,156.56810000000002L155.6445,156.56810000000002L155.6445,158.78300000000002Q155.91410000000002,158.74779999999998,156.166,158.7009Q156.4238,158.654,156.6582,158.6189L157.1211,158.531L157.2148,159.8962ZM163.2148,147.6267Q164.05270000000002,148.9802,165.3066,150.15800000000002Q166.5664,151.3357,168.0254,152.1677L167.39839999999998,153.2341Q166.23239999999998,152.6365,165.125,151.8044L165.125,152.906L159.74020000000002,152.906L159.74020000000002,152.0564Q158.7793,152.7302,157.7012,153.3337L156.8691,152.2908Q158.5039,151.2947,159.70510000000002,150.15800000000002Q160.9121,149.0154,161.8086,147.6267L163.2148,147.6267ZM165.0547,151.7517Q163.5195,150.4099,162.55270000000002,148.8865Q161.54489999999998,150.4275,160.08010000000002,151.7517L165.0547,151.7517ZM165.834,153.574L167,153.574L167,161.9119Q167,162.949,166.625,163.365Q166.2559,163.781,165.2773,163.781Q164.4805,163.781,163.61329999999998,163.6697L163.3789,162.4451Q164.36329999999998,162.5915,165.125,162.5915Q165.5,162.5915,165.66410000000002,162.3279Q165.834,162.0642,165.834,161.5076L165.834,153.574ZM157.959,163.781L157.959,153.9314L162.3887,153.9314L162.3887,162.1872Q162.3887,163.0427,162.10739999999998,163.3826Q161.832,163.7283,161.16410000000002,163.7283Q160.7656,163.7283,159.9746,163.6521L159.74020000000002,162.5037Q159.8691,162.5212,160.1738,162.56810000000002Q160.4785,162.6091,160.75979999999998,162.6091Q161.05270000000002,162.6091,161.16989999999998,162.4392Q161.2871,162.2693,161.2871,161.865L161.2871,160.3474L159.10739999999998,160.3474L159.10739999999998,163.781L157.959,163.781ZM163.6309,160.781L163.6309,154.2126L164.7441,154.2126L164.7441,160.781L163.6309,160.781ZM161.2871,156.6267L161.2871,155.0564L159.10739999999998,155.0564L159.10739999999998,156.6267L161.2871,156.6267ZM159.10739999999998,157.7048L159.10739999999998,159.2517L161.2871,159.2517L161.2871,157.7048L159.10739999999998,157.7048ZM171.0547,160.154Q172.04489999999998,160.7458,172.9648,161.5662Q173.88479999999998,162.3865,174.5996,163.324L173.57420000000002,164.25560000000002Q172.1738,162.2986,170.35160000000002,160.9451L171.0547,160.154ZM203.75,148.5232L203.75,149.906L201.377,149.906L201.377,161.1794Q201.377,162.2341,201.16,162.779Q200.949,163.3298,200.369,163.5525Q199.79500000000002,163.781,198.652,163.781Q197.305,163.781,196.332,163.69310000000002L196.04500000000002,162.281Q197.375,162.4333,198.529,162.4333Q199.12099999999998,162.4333,199.42000000000002,162.2869Q199.719,162.1404,199.836,161.7947Q199.953,161.449,199.953,160.7869L199.953,149.906L187.461,149.906L187.461,148.5232L203.75,148.5232ZM189.459,152.6423L196.73000000000002,152.6423L196.73000000000002,159.656L189.459,159.656L189.459,152.6423ZM190.824,158.2908L195.34199999999998,158.2908L195.34199999999998,154.031L190.824,154.031L190.824,158.2908ZM214.309,151.0896L221.527,151.0896L221.527,152.156L205.25,152.156L205.25,151.0896L212.814,151.0896L212.814,149.906L208.707,149.906Q208.332,150.404,207.898,150.8494L206.814,150.1111Q207.828,149.1501,208.707,147.5447L210.02,147.99Q209.768,148.3943,209.445,148.8396L212.814,148.8396L212.814,147.5271L214.309,147.5271L214.309,148.8396L220.016,148.8396L220.016,149.906L214.309,149.906L214.309,151.0896ZM220.643,160.406L215.855,160.406L215.855,161.531L221.451,161.531L221.451,162.49779999999998L215.855,162.49779999999998L215.855,163.781L214.396,163.781L214.396,155.906L212.363,155.906L212.363,163.781L210.904,163.781L210.904,162.49779999999998L205.43200000000002,162.49779999999998L205.43200000000002,161.531L210.904,161.531L210.904,160.406L206.25799999999998,160.406L206.25799999999998,159.3396L210.904,159.3396L210.904,158.156L205.936,158.156L205.936,157.0896L210.904,157.0896L210.904,155.906L207.447,155.906L207.447,153.0408L219.365,153.0408L219.365,155.906L215.855,155.906L215.855,157.0896L220.971,157.0896L220.971,158.156L215.855,158.156L215.855,159.3396L220.643,159.3396L220.643,160.406ZM217.906,154.031L208.906,154.031L208.906,154.8396L217.906,154.8396L217.906,154.031ZM239.193,149.59550000000002L239.193,151.031L223.625,151.031L223.625,149.59550000000002L230.809,149.59550000000002Q230.305,148.3884,230.012,147.8318L231.488,147.34550000000002Q232.068,148.6052,232.426,149.59550000000002L239.193,149.59550000000002ZM238.098,156.6501Q237.195,155.8591,235.52,154.5818Q233.85,153.2986,232.766,152.5837L233.65,151.5173Q234.676,152.1677,236.328,153.3923Q237.986,154.6169,238.994,155.4607L238.098,156.6501ZM223.783,155.6423Q225.137,154.7927,226.42,153.7322Q227.709,152.6716,228.734,151.5583L229.836,152.49Q228.77,153.6267,227.422,154.781Q226.074,155.9294,224.65,156.9021L223.783,155.6423ZM239.123,163.8513Q236.439,163.13060000000002,234.6,162.3572Q232.766,161.5837,231.418,160.5583Q230.07,161.5837,228.236,162.4099Q226.402,163.2361,223.789,164.0095L223.121,162.6267Q225.57,161.9587,227.305,161.2322Q229.039,160.4997,230.305,159.6033Q228.828,158.197,227.422,155.78300000000002L228.629,155.0447Q229.941,157.31810000000002,231.418,158.6833Q232.93,157.2595,234.025,155.0271L235.326,155.6951Q234.066,158.1091,232.531,159.5857Q233.814,160.4822,235.537,161.1501Q237.266,161.81810000000002,239.715,162.3747L239.123,163.8513ZM246.775,148.1892Q245.996,150.4568,245.352,151.8747L245.352,163.781L243.875,163.781L243.875,154.69310000000002Q243.066,156.029,242.076,157.2419L241.121,155.906Q242.293,154.4412,243.406,152.2732Q244.525,150.1052,245.299,147.7732L246.775,148.1892ZM257.75,151.406L257.75,152.8826L255.248,152.8826L255.248,161.4314Q255.248,162.6677,254.715,163.1892Q254.182,163.7107,252.869,163.7283Q251.58,163.7634,250.537,163.6345L250.227,162.1111Q251.434,162.2693,252.26,162.2693Q252.904,162.2693,253.209,162.1638Q253.52,162.0583,253.637,161.7947Q253.754,161.531,253.754,160.9626L253.754,152.8826L246.588,152.8826L246.588,151.406L253.754,151.406L253.754,147.8787L255.248,147.8787L255.248,151.406L257.75,151.406ZM250.279,159.3572Q249.107,157.5408,247.379,155.0798L248.586,154.2712Q249.254,155.18529999999998,250.051,156.3572Q250.854,157.5232,251.504,158.49L250.279,159.3572ZM261.055,160.154Q262.04499999999996,160.7458,262.96500000000003,161.5662Q263.885,162.3865,264.6,163.324L263.574,164.25560000000002Q262.174,162.2986,260.352,160.9451L261.055,160.154ZM282.44100000000003,156.0701L281.97900000000004,156.2751Q280.88300000000004,156.75560000000002,280.707,156.8318L280.707,161.9646Q280.707,162.697,280.50800000000004,163.0837Q280.30899999999997,163.47050000000002,279.869,163.62279999999998Q279.43600000000004,163.781,278.621,163.781Q278.299,163.781,277.619,163.7048L277.36699999999996,162.322Q278.123,162.4275,278.533,162.4275Q279.002,162.4275,279.178,162.24Q279.35900000000004,162.0525,279.35900000000004,161.4958L279.35900000000004,157.3884L277.426,158.1267L277.156,156.6677Q278.07,156.3513,279.35900000000004,155.8533L279.35900000000004,152.4021L277.47900000000004,152.4021L277.47900000000004,151.031L279.35900000000004,151.031L279.35900000000004,147.56810000000002L280.707,147.56810000000002L280.707,151.031L282.5,151.031L282.5,152.4021L280.707,152.4021L280.707,155.3142Q281.54499999999996,154.9802,282.348,154.6287L282.44100000000003,156.0701ZM283.25,148.5232L293,148.5232L293,161.6951Q293,162.5505,292.801,162.9724Q292.60699999999997,163.4001,292.18,163.5583Q291.75800000000004,163.7224,290.943,163.7224Q290.586,163.7224,289.877,163.6521L289.596,162.2869Q290.475,162.3923,290.855,162.3923Q291.312,162.3923,291.477,162.1638Q291.64599999999996,161.9294,291.64599999999996,161.3083L291.64599999999996,158.7537L288.875,158.7537L288.875,163.781L287.54499999999996,163.781L287.54499999999996,158.7537L284.527,158.7537Q284.404,160.3474,284.041,161.5544Q283.678,162.75560000000002,282.90999999999997,164.0505L281.568,163.7165Q282.277,162.4919,282.623,161.5017Q282.969,160.50560000000002,283.10900000000004,159.2283Q283.25,157.9509,283.25,155.8415L283.25,148.5232ZM287.54499999999996,153.0583L287.54499999999996,149.906L284.598,149.906L284.598,153.0583L287.54499999999996,153.0583ZM288.875,153.0583L291.64599999999996,153.0583L291.64599999999996,149.906L288.875,149.906L288.875,153.0583ZM287.54499999999996,157.406L287.54499999999996,154.406L284.598,154.406L284.598,156.2986Q284.598,157.0544,284.58000000000004,157.406L287.54499999999996,157.406ZM288.875,154.406L288.875,157.406L291.64599999999996,157.406L291.64599999999996,154.406L288.875,154.406ZM307.156,157.406Q308.791,158.7537,311.832,159.6794L311.223,160.9626Q309.312,160.2244,307.918,159.3513Q306.523,158.4783,305.551,157.406L301.39599999999996,157.406Q300.406,158.5251,299.029,159.4333Q297.652,160.3357,295.707,161.1443L295.15,159.8025Q298.062,158.8415,299.703,157.406L295.56100000000004,157.406L295.56100000000004,156.2693L300.424,156.2693L300.424,155.115L297.055,155.115L297.055,154.031L300.424,154.031L300.424,152.9001L296.855,152.9001L296.855,151.781L300.424,151.781L300.424,150.2517L297.488,150.2517L297.488,151.4763L296.11699999999996,151.4763L296.11699999999996,149.156L303.049,149.156Q302.58000000000004,148.2888,302.20500000000004,147.6794L303.605,147.2107L303.916,147.7497Q304.50800000000004,148.8103,304.68899999999996,149.156L310.865,149.156L310.865,151.4763L309.512,151.4763L309.512,150.2517L306.6,150.2517L306.6,151.781L310.145,151.781L310.145,152.9001L306.6,152.9001L306.6,154.031L309.96299999999997,154.031L309.96299999999997,155.115L306.6,155.115L306.6,156.2693L311.422,156.2693L311.422,157.406L307.156,157.406ZM305.299,150.2517L301.701,150.2517L301.701,151.781L305.299,151.781L305.299,150.2517ZM305.299,152.9001L301.701,152.9001L301.701,154.031L305.299,154.031L305.299,152.9001ZM305.299,155.115L301.701,155.115L301.701,156.2693L305.299,156.2693L305.299,155.115ZM307.514,160.47050000000002L304.203,160.47050000000002L304.203,162.2341L310.326,162.2341L310.326,163.406L296.71500000000003,163.406L296.71500000000003,162.2341L302.832,162.2341L302.832,160.47050000000002L299.52099999999996,160.47050000000002L299.52099999999996,159.281L302.832,159.281L302.832,158.2029L304.203,158.2029L304.203,159.281L307.514,159.281L307.514,160.47050000000002ZM320.375,151.1013L320.375,153.1697L319.01,153.1697L319.01,149.7537L323.25800000000004,149.7537Q322.906,148.69310000000002,322.555,147.8435L323.885,147.5037L324.746,149.7537L329,149.7537L329,153.1697L327.682,153.1697L327.682,151.1013L320.375,151.1013ZM318.56399999999996,155.9294L316.895,156.5505L316.895,161.7888Q316.895,162.87279999999998,316.496,163.324Q316.098,163.781,315.113,163.781Q314.28700000000003,163.781,313.613,163.6345L313.33799999999997,162.2927Q314.27,162.4509,314.69100000000003,162.4509Q315.154,162.4509,315.33000000000004,162.1814Q315.506,161.9119,315.506,161.3318L315.506,157.0837Q315.43600000000004,157.1189,314.152,157.62279999999998Q313.461,157.8747,313.279,157.9626L312.916,156.56810000000002L314.43399999999997,156.0349Q315.248,155.7302,315.506,155.6423L315.506,152.4548L313.279,152.4548L313.279,151.031L315.506,151.031L315.506,147.738L316.895,147.738L316.895,151.031L318.5,151.031L318.5,152.4548L316.895,152.4548L316.895,155.1443L317.451,154.9451Q317.398,154.9626,318.56399999999996,154.5583L318.56399999999996,155.9294ZM325.062,152.3787Q328.227,154.47050000000002,329.52099999999996,155.4138L328.71299999999997,156.53300000000002Q327.576,155.6247,324.248,153.4744L325.062,152.3787ZM323.217,153.4744Q321.529,155.1208,319.355,156.6208L318.664,155.4841Q320.416,154.4119,322.31399999999996,152.5427L323.217,153.4744ZM328.31399999999996,158.3787L324.5,158.3787L324.5,161.906L329.40999999999997,161.906L329.40999999999997,163.2595L318.418,163.2595L318.418,161.906L323.041,161.906L323.041,158.3787L319.461,158.3787L319.461,157.031L328.31399999999996,157.031L328.31399999999996,158.3787ZM337.379,151.2126L337.379,153.3337L341.375,153.3337L341.375,154.6697L337.379,154.6697L337.379,156.4861L340.801,156.4861L340.801,161.1326Q340.801,161.9294,340.449,162.3337Q340.098,162.738,339.324,162.738Q338.891,162.738,338.064,162.6267L337.812,161.4197Q337.971,161.4372,338.311,161.4841Q338.656,161.531,338.926,161.531Q339.248,161.531,339.383,161.3669Q339.523,161.2029,339.523,160.7751L339.523,157.7986L337.379,157.7986L337.379,163.781L336.031,163.781L336.031,157.7986L333.834,157.7986L333.834,162.8376L332.557,162.8376L332.557,156.4861L336.031,156.4861L336.031,154.6697L331.584,154.6697L331.584,153.3337L336.031,153.3337L336.031,151.2126L333.81600000000003,151.2126Q333.488,152.0564,333.148,152.7244L331.889,152.3083Q332.879,150.1052,333.29499999999996,147.9724L334.625,148.2126Q334.496,148.9216,334.23199999999997,149.9001L336.031,149.9001L336.031,147.3103L337.379,147.3103L337.379,149.9001L340.994,149.9001L340.994,151.2126L337.379,151.2126ZM345.652,147.5505L347,147.5505L347,161.5076Q347,162.7087,346.531,163.2419Q346.068,163.781,344.879,163.781Q344.023,163.781,342.729,163.6169L342.441,162.2517Q343.701,162.4333,344.48,162.4333Q345.113,162.4333,345.383,162.0701Q345.652,161.7068,345.652,160.9744L345.652,147.5505ZM342.5,149.197L343.854,149.197L343.854,160.031L342.5,160.031L342.5,149.197ZM352.285,150.3103Q351.389,151.7107,350.463,152.6833L349.314,151.9099Q350.199,150.9548,351.008,149.7068Q351.816,148.4529,352.32,147.322L353.727,147.6794Q353.457,148.3122,353.041,149.06810000000002L357.254,149.06810000000002L357.254,150.3103L354.646,150.3103L355.191,151.1716L355.531,151.7107L354.377,152.3083L353.135,150.3103L352.285,150.3103ZM359.322,150.3103Q359.035,150.8142,358.555,151.5349L357.289,150.9197Q357.869,150.1462,358.332,149.2908Q358.801,148.4353,359.27,147.322L360.635,147.6619L359.99,149.06810000000002L365.375,149.06810000000002L365.375,150.3103L362.17,150.3103Q362.656,151.0076,363.014,151.5876L361.859,152.2322L361.643,151.8747Q361.496,151.6404,361.162,151.13060000000002Q360.828,150.615,360.617,150.3103L359.322,150.3103ZM365.428,157.031L361.771,157.031L361.771,158.5134L364.818,158.5134L364.818,159.75560000000002L361.771,159.75560000000002L361.771,161.5837Q361.771,162.4685,361.52,162.9255Q361.268,163.3884,360.646,163.5818Q360.025,163.781,358.859,163.781Q357.939,163.781,356.984,163.6697L356.75,162.4333Q357.922,162.5915,358.678,162.5915Q359.398,162.5915,359.721,162.49779999999998Q360.043,162.3982,360.16,162.1345Q360.277,161.8708,360.277,161.25560000000002L360.277,159.75560000000002L349.889,159.75560000000002L349.889,158.5134L360.277,158.5134L360.277,157.031L349.297,157.031L349.297,155.824L356.609,155.824L356.609,154.0896L350.592,154.0896L350.592,152.9001L356.609,152.9001L356.609,151.8572L358.121,151.8572L358.121,152.9001L364.115,152.9001L364.115,154.0896L358.121,154.0896L358.121,155.824L365.428,155.824L365.428,157.031ZM352.988,160.0134Q355.297,161.2146,356.305,161.8357L355.566,162.9724Q353.727,161.8708,352.32,161.1091L352.988,160.0134ZM372.529,155.9939Q372.529,158.531,371.68,160.6814Q370.836,162.8318,369.359,164.3259L367.906,164.3259Q369.359,162.5622,370.145,160.5232Q370.93,158.4783,370.93,155.9939Q370.93,153.4919,370.145,151.4412Q369.359,149.3845,367.906,147.656L369.359,147.656Q370.836,149.1501,371.68,151.2947Q372.529,153.4333,372.529,155.9939Z" fill="#DDDDDD" fill-opacity="1"/></g></g><path d="M1.5,116.5L1.5,108.5L3,108.5L3,116.5L1.5,116.5ZM1.5,128.5L1.5,120.5L3,120.5L3,128.5L1.5,128.5ZM1.5,140.5L1.5,132.5L3,132.5L3,140.5L1.5,140.5ZM1.5,152.5L1.5,144.5L3,144.5L3,152.5L1.5,152.5ZM1.5,164.5L1.5,156.5L3,156.5L3,164.5L1.5,164.5ZM1.5,176.5L1.5,168.5L3,168.5L3,176.5L1.5,176.5ZM1.5,188.5L1.5,180.5L3,180.5L3,188.5L1.5,188.5ZM1.5,191L1.5,192.5L3,192.5L3,191L1.5,191ZM3,104.5L3,98L9.5,98L9.5,96.5L1.5,96.5L1.5,104.5L3,104.5ZM13.5,96.5L13.5,98L21.5,98L21.5,96.5L13.5,96.5ZM25.5,96.5L25.5,98L33.5,98L33.5,96.5L25.5,96.5ZM37.5,96.5L37.5,98L45.5,98L45.5,96.5L37.5,96.5ZM49.5,96.5L49.5,98L57.5,98L57.5,96.5L49.5,96.5ZM61.5,96.5L61.5,98L69.5,98L69.5,96.5L61.5,96.5ZM73.5,96.5L73.5,98L81.5,98L81.5,96.5L73.5,96.5ZM85.5,96.5L85.5,98L93.5,98L93.5,96.5L85.5,96.5ZM97.5,96.5L97.5,98L105.5,98L105.5,96.5L97.5,96.5ZM109.5,96.5L109.5,98L117.5,98L117.5,96.5L109.5,96.5ZM121.5,96.5L121.5,98L129.5,98L129.5,96.5L121.5,96.5ZM133.5,96.5L133.5,98L141.5,98L141.5,96.5L133.5,96.5ZM145.5,96.5L145.5,98L153.5,98L153.5,96.5L145.5,96.5ZM157.5,96.5L157.5,98L165.5,98L165.5,96.5L157.5,96.5ZM169.5,96.5L169.5,98L177.5,98L177.5,96.5L169.5,96.5ZM181.5,96.5L181.5,98L189.5,98L189.5,96.5L181.5,96.5ZM193.5,96.5L193.5,98L201.5,98L201.5,96.5L193.5,96.5ZM205.5,96.5L205.5,98L213.5,98L213.5,96.5L205.5,96.5ZM217.5,96.5L217.5,98L225.5,98L225.5,96.5L217.5,96.5ZM229.5,96.5L229.5,98L237.5,98L237.5,96.5L229.5,96.5ZM241.5,96.5L241.5,98L249.5,98L249.5,96.5L241.5,96.5ZM253.5,96.5L253.5,98L261.5,98L261.5,96.5L253.5,96.5ZM265.5,96.5L265.5,98L273.5,98L273.5,96.5L265.5,96.5ZM277.5,96.5L277.5,98L285.5,98L285.5,96.5L277.5,96.5ZM289.5,96.5L289.5,98L297.5,98L297.5,96.5L289.5,96.5ZM301.5,96.5L301.5,98L309.5,98L309.5,96.5L301.5,96.5ZM313.5,96.5L313.5,98L321.5,98L321.5,96.5L313.5,96.5ZM325.5,96.5L325.5,98L333.5,98L333.5,96.5L325.5,96.5ZM337.5,96.5L337.5,98L345.5,98L345.5,96.5L337.5,96.5ZM349.5,96.5L349.5,98L357.5,98L357.5,96.5L349.5,96.5ZM361.5,96.5L361.5,98L369.5,98L369.5,96.5L361.5,96.5ZM373.5,96.5L373.5,98L381.5,98L381.5,96.5L373.5,96.5ZM385.5,96.5L385.5,98L393.5,98L393.5,96.5L385.5,96.5ZM397.5,96.5L397.5,98L405.5,98L405.5,96.5L397.5,96.5ZM409.5,96.5L409.5,98L417.5,98L417.5,96.5L409.5,96.5ZM421.5,96.5L421.5,98L429.5,98L429.5,96.5L421.5,96.5ZM433.5,96.5L433.5,98L441.5,98L441.5,96.5L433.5,96.5ZM445.5,96.5L445.5,98L453.5,98L453.5,96.5L445.5,96.5ZM457.5,96.5L457.5,98L460,98L460,100.5L461.5,100.5L461.5,96.5L457.5,96.5ZM461.5,104.5L460,104.5L460,112.5L461.5,112.5L461.5,104.5ZM461.5,116.5L460,116.5L460,124.5L461.5,124.5L461.5,116.5ZM461.5,128.5L460,128.5L460,136.5L461.5,136.5L461.5,128.5ZM461.5,140.5L460,140.5L460,148.5L461.5,148.5L461.5,140.5ZM461.5,152.5L460,152.5L460,160.5L461.5,160.5L461.5,152.5ZM461.5,164.5L460,164.5L460,172.5L461.5,172.5L461.5,164.5ZM461.5,176.5L460,176.5L460,184.5L461.5,184.5L461.5,176.5ZM461.5,188.5L460,188.5L460,192.5L461.5,192.5L461.5,188.5Z" fill-rule="evenodd" fill="#DDDDDD" fill-opacity="1"/></g><g style="mix-blend-mode:passthrough"><g><g style="mix-blend-mode:passthrough"><path d="M178.918,236.4685L176.5684,236.4685L173.06445,233.738Q172.49609,233.8435,171.91016,233.8435Q170.19922,233.8435,168.82227,232.9997Q167.44531,232.156,166.66016,230.574Q165.875,228.9919,165.875,226.9001Q165.875,224.82592,166.6543,223.24389Q167.43359,221.66186,168.79883,220.81811Q170.16992,219.9685,171.875,219.9685Q173.58008,219.9685,174.94531,220.82983Q176.3164,221.6853,177.0957,223.26147Q177.875,224.83178,177.875,226.9119Q177.875,229.0798,177.0488,230.6912Q176.2227,232.3025,174.79883,233.1287L178.918,236.4685ZM167.49219,226.906Q167.49219,228.5115,168.01953,229.7537Q168.54688,230.99,169.54297,231.6814Q170.54492,232.3728,171.875,232.3728Q173.21094,232.3728,174.19531,231.6814Q175.1855,230.99,175.7188,229.7537Q176.2578,228.5115,176.2578,226.906Q176.2578,225.28295,175.7188,224.04662Q175.1855,222.80444,174.19531,222.12475Q173.21094,221.4392,171.875,221.4392Q170.54492,221.4392,169.55469,222.12475Q168.57031,222.80444,168.03125,224.04662Q167.49219,225.28295,167.49219,226.906ZM188.75,220.156L190.3672,220.156L190.3672,228.1892Q190.3672,229.9236,189.7578,231.2068Q189.1484,232.4841,187.9883,233.1638Q186.834,233.8435,185.2344,233.8435Q182.832,233.8435,181.4785,232.3318Q180.125,230.8201,180.125,228.1892L180.125,220.156L181.7422,220.156L181.7422,227.9548Q181.7422,230.0994,182.6328,231.2361Q183.5234,232.3728,185.24020000000002,232.3728Q186.9512,232.3728,187.8477,231.2361Q188.75,230.0994,188.75,227.9548L188.75,220.156ZM194.8672,233.656L193.25,233.656L193.25,220.156L194.8672,220.156L194.8672,233.656ZM202.8828,232.3728Q205.04489999999998,232.3728,206.05270000000002,230.322L207.3477,231.0955Q206.7969,232.3904,205.6309,233.1169Q204.4707,233.8435,202.9531,233.8435Q201.2891,233.8435,199.9297,232.9646Q198.5703,232.0857,197.7852,230.5037Q197,228.9216,197,226.9001Q197,224.87865,197.7852,223.29662Q198.5703,221.71459,199.9297,220.84155Q201.2891,219.9685,202.9531,219.9685Q204.4707,219.9685,205.6309,220.70092Q206.7969,221.42748,207.3477,222.71655L206.05270000000002,223.48998Q205.04489999999998,221.4392,202.8828,221.4392Q201.623,221.4392,200.6504,222.12475Q199.6836,222.8103,199.1504,224.05248Q198.6172,225.28881,198.6172,226.9001Q198.6172,228.5056,199.1504,229.7595Q199.6836,231.0076,200.6504,231.69310000000002Q201.623,232.3728,202.8828,232.3728ZM221.5156,230.3982Q222.7578,232.2146,224.99020000000002,233.94310000000002L224.0938,235.1501Q222.002,233.4568,220.7246,231.6404Q219.55270000000002,233.2927,217.4668,235.074L216.5645,233.8904Q218.7441,232.1267,219.916,230.322Q218.7793,228.1716,218.1875,225.1892Q218.0586,225.44115,217.9414,225.6345Q217.8242,225.822,217.7539,225.9451L216.7637,224.86108Q217.625,223.4724,218.293,221.82006Q218.9609,220.16772,219.3008,218.55053L220.6543,218.77905Q220.4023,219.98022,219.8809,221.4978L224.7031,221.4978L224.7031,222.9392L223.4434,222.9392Q223.209,225.39428,222.7578,227.1755Q222.3066,228.9568,221.5156,230.3982ZM208.4961,226.5837Q209.4336,226.0154,210.2891,225.23608Q211.1445,224.45678,211.79489999999998,223.56615L208.94729999999998,223.56615L208.94729999999998,222.38256L212.5156,222.38256L212.5156,218.656L213.793,218.656L213.793,222.38256L216.9453,222.38256L216.9453,223.56615L213.793,223.56615L213.793,223.81811L216.8164,225.8689L216.1484,226.865Q215.1992,226.074,213.793,225.13061L213.793,226.9705L212.5156,226.9705L212.5156,224.35717Q211.8828,225.28881,211.0273,226.1443Q210.1719,226.9997,209.1992,227.656L208.4961,226.5837ZM210.7871,222.0603Q210.25979999999998,221.17553,209.1816,219.66381L210.084,219.05444L211.75979999999998,221.42748L210.7871,222.0603ZM217.1797,219.69897Q216.36520000000002,220.88842,215.4102,222.14819L214.4785,221.48022Q215.4863,220.15014,216.207,219.07201L217.1797,219.69897ZM219.10739999999998,223.38451Q219.377,225.11889,219.74020000000002,226.4607Q220.1094,227.8025,220.6719,228.9568Q221.2285,227.7497,221.58010000000002,226.2849Q221.9375,224.82006,222.1309,222.9392L219.3008,222.9392L219.10739999999998,223.38451ZM215.99020000000002,234.2302Q215.1641,233.7087,213.7578,232.988Q212.0996,234.1247,208.98239999999998,235.115L208.3906,233.8904Q211.0039,233.1345,212.42770000000002,232.3611Q211.0918,231.7458,210.459,231.4763L209.7383,231.154Q210.33010000000002,230.199,210.6758,229.531L208.625,229.531L208.625,228.365L211.2734,228.365Q211.6484,227.4275,211.75979999999998,227.1052L213.0898,227.4685Q212.873,228.0779,212.75,228.365L216.5469,228.365L216.5469,229.4783Q215.8438,231.0779,214.8359,232.0915Q215.668,232.4841,216.6758,233.0759L215.99020000000002,234.2302ZM211.5781,230.6677Q211.9004,230.8083,212.8379,231.1892L213.6465,231.529Q214.5488,230.7732,215.0879,229.531L212.1934,229.531Q211.79489999999998,230.2869,211.5781,230.6677ZM232.2148,226.9763L230.4922,227.7029L230.4922,232.8826Q230.4922,233.6619,230.2988,234.0603Q230.1113,234.4587,229.6602,234.6169Q229.2148,234.781,228.3711,234.781Q228.0078,234.781,227.252,234.7048L227.01760000000002,233.3747Q227.6094,233.4802,228.2188,233.4802Q228.74020000000002,233.4802,228.92770000000002,233.2634Q229.1211,233.0408,229.1211,232.4314L229.1211,228.2244L226.94729999999998,229.033L226.64260000000002,227.6853Q227.7207,227.3337,229.1211,226.8122L229.1211,223.26733L227,223.26733L227,221.96655L229.1211,221.96655L229.1211,218.77905L230.4922,218.77905L230.4922,221.96655L232.1094,221.96655L232.1094,223.26733L230.4922,223.26733L230.4922,226.2556Q231.5645,225.7517,231.9629,225.5408L232.2148,226.9763ZM243.1191,227.281L239.2285,227.281L239.2285,229.0681L242,229.0681L242,234.781L240.6523,234.781L240.6523,234.09550000000002L236.2227,234.09550000000002L236.2227,234.7986L234.875,234.7986L234.875,229.0681L237.875,229.0681L237.875,227.281L234.13670000000002,227.281Q234.0488,229.7712,233.6621,231.4294Q233.2812,233.0876,232.42579999999998,234.781L231.1191,234.1482Q231.88670000000002,232.7537,232.2793,231.5232Q232.67770000000002,230.2869,232.83589999999998,228.7341Q233,227.1814,233,224.74975L233,219.66381L242.3105,219.66381L242.3105,224.02319L239.2285,224.02319L239.2285,226.0564L243.1191,226.0564L243.1191,227.281ZM240.9219,222.781L240.9219,220.906L234.36520000000002,220.906L234.36520000000002,222.781L240.9219,222.781ZM234.36520000000002,226.0564L237.875,226.0564L237.875,224.02319L234.36520000000002,224.02319L234.36520000000002,224.89037L234.36520000000002,226.0564ZM236.2227,232.906L240.6523,232.906L240.6523,230.2927L236.2227,230.2927L236.2227,232.906ZM260.6621,230.4099Q260.627,230.9724,260.5566,231.6228Q260.4863,232.2673,260.41020000000003,232.7537Q260.2871,233.56810000000002,260.03520000000003,233.9548Q259.78319999999997,234.3415,259.2559,234.50560000000002Q258.7285,234.6697,257.6621,234.74Q255.834,234.8689,253.4844,234.8689Q251.2754,234.8689,249.5352,234.74Q248.5273,234.6638,247.9707,234.4646Q247.41410000000002,234.2654,247.1445,233.7673Q246.875,233.2693,246.875,232.3318L246.875,224.66186Q246.33589999999998,225.28881,245.8496,225.7751L244.7305,224.6267Q246.0488,223.38451,247.0918,221.8142Q248.13479999999998,220.23803,248.709,218.62084L250.25,219.10717Q249.9746,219.79272,249.6055,220.531L259.1855,220.531Q259.2031,221.08178,259.2031,222.23608Q259.2031,223.98803,259.1328,225.781Q259.0625,227.574,258.9512,228.8279Q258.8633,229.7888,258.582,230.3103Q258.3066,230.8318,257.7734,231.0486Q257.2461,231.2595,256.3672,231.2595Q256.0801,231.2595,255.07229999999998,231.1833Q254.9082,231.1833,254.4805,231.1482L254.2988,229.7595Q255.5586,229.8708,256.1094,229.8884Q256.666,229.9236,256.9355,229.7947Q257.2109,229.6599,257.3223,229.3435Q257.4395,229.0271,257.5156,228.3533Q257.7676,225.6052,257.7676,223.06225Q257.7676,222.27123,257.75,221.90209L248.8906,221.90209Q248.2227,222.97436,247.49020000000002,223.906L254.75,223.906L254.75,229.3962L248.2637,229.3962L248.2637,231.9333Q248.2637,232.5251,248.4043,232.8064Q248.55079999999998,233.0818,248.8672,233.1872Q249.1895,233.2927,249.89260000000002,233.3513Q251.54489999999998,233.4802,253.67770000000002,233.4802Q255.834,233.4802,257.4688,233.34550000000002Q258.1309,233.2869,258.4238,233.1697Q258.72270000000003,233.0525,258.8574,232.7771Q258.9922,232.4958,259.0625,231.8865Q259.1152,231.488,259.1562,230.9197Q259.2031,230.3455,259.2031,229.9939L260.6621,230.4099ZM253.3613,228.031L253.3613,225.31225L248.2637,225.31225L248.2637,228.031L253.3613,228.031ZM267.646,219.08959Q267.031,221.09936,266.24,222.91576L266.24,234.781L264.875,234.781L264.875,225.6111Q264.1719,226.8122,263.252,227.99L262.3906,226.7361Q263.4688,225.26537,264.5645,222.99194Q265.666,220.7185,266.188,218.70873L267.646,219.08959ZM274.631,228.406Q276.324,230.7966,279.219,232.5369L278.428,233.8083Q275.674,231.8923,273.84000000000003,229.2439L273.84000000000003,234.7107L272.486,234.7107L272.486,229.1384Q271.555,230.5505,270.383,231.699Q269.211,232.8415,267.699,233.8904L266.908,232.6892Q268.402,231.7165,269.533,230.697Q270.67,229.6775,271.59000000000003,228.406L267.48199999999997,228.406L267.48199999999997,227.0935L272.486,227.0935L272.486,225.25365L268.672,225.25365L268.672,219.5349L277.672,219.5349L277.672,225.25365L273.84000000000003,225.25365L273.84000000000003,227.0935L278.879,227.0935L278.879,228.406L274.631,228.406ZM276.248,220.906L270.096,220.906L270.096,223.906L276.248,223.906L276.248,220.906ZM296.375,220.87084L296.375,227.5564L288.916,227.5564Q288.84000000000003,229.3025,288.605,230.5095Q288.377,231.7107,287.932,232.7595Q287.486,233.8083,286.678,235.06810000000002L285.342,234.2947Q286.25,232.9412,286.695,231.84550000000002Q287.146,230.7439,287.328,229.3376Q287.51,227.9314,287.51,225.6287L287.51,220.87084L291.506,220.87084Q290.861,219.55834,290.43899999999996,218.83764L291.822,218.281Q292.115,218.80248,292.473,219.50561Q292.836,220.20287,293.14599999999996,220.87084L296.375,220.87084ZM286.637,226.947Q285.46500000000003,227.4275,284.639,227.7322L284.639,233.00560000000002Q284.639,233.738,284.457,234.1072Q284.281,234.4822,283.812,234.6287Q283.344,234.781,282.424,234.781Q281.99,234.781,281.094,234.7048L280.807,233.322Q281.545,233.4275,282.283,233.4275Q282.875,233.4275,283.051,233.2634Q283.23199999999997,233.0935,283.23199999999997,232.4958L283.23199999999997,228.2478L282.424,228.529L280.824,229.0798L280.496,227.6794Q281.68600000000004,227.2986,283.23199999999997,226.7478L283.23199999999997,223.156L281,223.156L281,221.75561L283.23199999999997,221.75561L283.23199999999997,218.56811L284.639,218.56811L284.639,221.75561L286.531,221.75561L286.531,223.156L284.639,223.156L284.639,226.2263L286.549,225.46459L286.637,226.947ZM288.951,226.156L294.986,226.156L294.986,222.24194L288.951,222.24194L288.951,225.46459L288.951,226.156Z" fill="#DDDDDD" fill-opacity="1"/></g></g><path d="M1.5,211.5L1.5,203.5L3,203.5L3,211.5L1.5,211.5ZM1.5,223.5L1.5,215.5L3,215.5L3,223.5L1.5,223.5ZM1.5,235.5L1.5,227.5L3,227.5L3,235.5L1.5,235.5ZM1.5,247.5L1.5,239.5L3,239.5L3,247.5L1.5,247.5ZM1.5,259.5L1.5,251.5L3,251.5L3,259.5L1.5,259.5ZM1.5,262L1.5,263.5L9.5,263.5L9.5,262L1.5,262ZM21.5,263.5L13.5,263.5L13.5,262L21.5,262L21.5,263.5ZM33.5,263.5L25.5,263.5L25.5,262L33.5,262L33.5,263.5ZM45.5,263.5L37.5,263.5L37.5,262L45.5,262L45.5,263.5ZM57.5,263.5L49.5,263.5L49.5,262L57.5,262L57.5,263.5ZM69.5,263.5L61.5,263.5L61.5,262L69.5,262L69.5,263.5ZM81.5,263.5L73.5,263.5L73.5,262L81.5,262L81.5,263.5ZM93.5,263.5L85.5,263.5L85.5,262L93.5,262L93.5,263.5ZM105.5,263.5L97.5,263.5L97.5,262L105.5,262L105.5,263.5ZM117.5,263.5L109.5,263.5L109.5,262L117.5,262L117.5,263.5ZM129.5,263.5L121.5,263.5L121.5,262L129.5,262L129.5,263.5ZM141.5,263.5L133.5,263.5L133.5,262L141.5,262L141.5,263.5ZM153.5,263.5L145.5,263.5L145.5,262L153.5,262L153.5,263.5ZM165.5,263.5L157.5,263.5L157.5,262L165.5,262L165.5,263.5ZM177.5,263.5L169.5,263.5L169.5,262L177.5,262L177.5,263.5ZM189.5,263.5L181.5,263.5L181.5,262L189.5,262L189.5,263.5ZM201.5,263.5L193.5,263.5L193.5,262L201.5,262L201.5,263.5ZM213.5,263.5L205.5,263.5L205.5,262L213.5,262L213.5,263.5ZM225.5,263.5L217.5,263.5L217.5,262L225.5,262L225.5,263.5ZM237.5,263.5L229.5,263.5L229.5,262L237.5,262L237.5,263.5ZM249.5,263.5L241.5,263.5L241.5,262L249.5,262L249.5,263.5ZM261.5,263.5L253.5,263.5L253.5,262L261.5,262L261.5,263.5ZM273.5,263.5L265.5,263.5L265.5,262L273.5,262L273.5,263.5ZM285.5,263.5L277.5,263.5L277.5,262L285.5,262L285.5,263.5ZM297.5,263.5L289.5,263.5L289.5,262L297.5,262L297.5,263.5ZM309.5,263.5L301.5,263.5L301.5,262L309.5,262L309.5,263.5ZM321.5,263.5L313.5,263.5L313.5,262L321.5,262L321.5,263.5ZM333.5,263.5L325.5,263.5L325.5,262L333.5,262L333.5,263.5ZM345.5,263.5L337.5,263.5L337.5,262L345.5,262L345.5,263.5ZM357.5,263.5L349.5,263.5L349.5,262L357.5,262L357.5,263.5ZM369.5,263.5L361.5,263.5L361.5,262L369.5,262L369.5,263.5ZM381.5,263.5L373.5,263.5L373.5,262L381.5,262L381.5,263.5ZM393.5,263.5L385.5,263.5L385.5,262L393.5,262L393.5,263.5ZM405.5,263.5L397.5,263.5L397.5,262L405.5,262L405.5,263.5ZM417.5,263.5L409.5,263.5L409.5,262L417.5,262L417.5,263.5ZM429.5,263.5L421.5,263.5L421.5,262L429.5,262L429.5,263.5ZM441.5,263.5L433.5,263.5L433.5,262L441.5,262L441.5,263.5ZM453.5,263.5L445.5,263.5L445.5,262L453.5,262L453.5,263.5ZM461.5,247.5L461.5,255.5L460,255.5L460,247.5L461.5,247.5ZM461.5,235.5L461.5,243.5L460,243.5L460,235.5L461.5,235.5ZM461.5,223.5L461.5,231.5L460,231.5L460,223.5L461.5,223.5ZM461.5,211.5L461.5,219.5L460,219.5L460,211.5L461.5,211.5ZM461.5,199.5L461.5,207.5L460,207.5L460,199.5L461.5,199.5ZM445.5,191.5L453.5,191.5L453.5,193L445.5,193L445.5,191.5ZM433.5,191.5L441.5,191.5L441.5,193L433.5,193L433.5,191.5ZM421.5,191.5L429.5,191.5L429.5,193L421.5,193L421.5,191.5ZM409.5,191.5L417.5,191.5L417.5,193L409.5,193L409.5,191.5ZM397.5,191.5L405.5,191.5L405.5,193L397.5,193L397.5,191.5ZM385.5,191.5L393.5,191.5L393.5,193L385.5,193L385.5,191.5ZM373.5,191.5L381.5,191.5L381.5,193L373.5,193L373.5,191.5ZM361.5,191.5L369.5,191.5L369.5,193L361.5,193L361.5,191.5ZM349.5,191.5L357.5,191.5L357.5,193L349.5,193L349.5,191.5ZM337.5,191.5L345.5,191.5L345.5,193L337.5,193L337.5,191.5ZM325.5,191.5L333.5,191.5L333.5,193L325.5,193L325.5,191.5ZM313.5,191.5L321.5,191.5L321.5,193L313.5,193L313.5,191.5ZM301.5,191.5L309.5,191.5L309.5,193L301.5,193L301.5,191.5ZM289.5,191.5L297.5,191.5L297.5,193L289.5,193L289.5,191.5ZM277.5,191.5L285.5,191.5L285.5,193L277.5,193L277.5,191.5ZM265.5,191.5L273.5,191.5L273.5,193L265.5,193L265.5,191.5ZM253.5,191.5L261.5,191.5L261.5,193L253.5,193L253.5,191.5ZM241.5,191.5L249.5,191.5L249.5,193L241.5,193L241.5,191.5ZM229.5,191.5L237.5,191.5L237.5,193L229.5,193L229.5,191.5ZM217.5,191.5L225.5,191.5L225.5,193L217.5,193L217.5,191.5ZM205.5,191.5L213.5,191.5L213.5,193L205.5,193L205.5,191.5ZM193.5,191.5L201.5,191.5L201.5,193L193.5,193L193.5,191.5ZM181.5,191.5L189.5,191.5L189.5,193L181.5,193L181.5,191.5ZM169.5,191.5L177.5,191.5L177.5,193L169.5,193L169.5,191.5ZM157.5,191.5L165.5,191.5L165.5,193L157.5,193L157.5,191.5ZM145.5,191.5L153.5,191.5L153.5,193L145.5,193L145.5,191.5ZM133.5,191.5L141.5,191.5L141.5,193L133.5,193L133.5,191.5ZM121.5,191.5L129.5,191.5L129.5,193L121.5,193L121.5,191.5ZM109.5,191.5L117.5,191.5L117.5,193L109.5,193L109.5,191.5ZM97.5,191.5L105.5,191.5L105.5,193L97.5,193L97.5,191.5ZM85.5,191.5L93.5,191.5L93.5,193L85.5,193L85.5,191.5ZM73.5,191.5L81.5,191.5L81.5,193L73.5,193L73.5,191.5ZM61.5,191.5L69.5,191.5L69.5,193L61.5,193L61.5,191.5ZM49.5,191.5L57.5,191.5L57.5,193L49.5,193L49.5,191.5ZM37.5,191.5L45.5,191.5L45.5,193L37.5,193L37.5,191.5ZM25.5,191.5L33.5,191.5L33.5,193L25.5,193L25.5,191.5ZM13.5,191.5L21.5,191.5L21.5,193L13.5,193L13.5,191.5ZM9.5,191.5L1.5,191.5L1.5,199.5L3,199.5L3,193L9.5,193L9.5,191.5ZM457.5,191.5L461.5,191.5L461.5,195.5L460,195.5L460,193L457.5,193L457.5,191.5ZM461.5,259.5L461.5,263.5L457.5,263.5L457.5,262L460,262L460,259.5L461.5,259.5Z" fill-rule="evenodd" fill="#DDDDDD" fill-opacity="1"/></g><g style="mix-blend-mode:passthrough"><g><g style="mix-blend-mode:passthrough"><path d="M183.5,30.156L193.25,30.156L193.25,31.6267L189.24219,31.6267L189.24219,43.656L187.625,43.656L187.625,31.6267L183.5,31.6267L183.5,30.156ZM195.125,30.156L196.7422,30.156L196.7422,42.1853L203.1875,42.1853L203.1875,43.656L195.125,43.656L195.125,30.156ZM213.5,39.906Q213.5,41.0662,212.9785,41.962599999999995Q212.457,42.853300000000004,211.4434,43.351299999999995Q210.4355,43.8435,209.05270000000002,43.8435Q207.1191,43.8435,205.748,42.9353Q204.377,42.0212,203.9434,40.5095L205.2031,39.730199999999996Q205.7012,41.0076,206.6738,41.6931Q207.6465,42.3728,209.0938,42.3728Q210.4121,42.3728,211.1445,41.7869Q211.8828,41.1951,211.8828,40.1462Q211.8828,39.2966,211.4258,38.7693Q210.9688,38.2419,210.3008,37.949Q209.6387,37.656,208.4727,37.3103Q207.17770000000002,36.917699999999996,206.3867,36.572Q205.5957,36.2205,205.04489999999998,35.5173Q204.5,34.8142,204.5,33.671620000000004Q204.5,32.51733,205.08010000000002,31.67944Q205.6602,30.83569,206.6738,30.40209Q207.6934,29.9685,208.959,29.9685Q210.7285,29.9685,211.8184,30.75951Q212.9141,31.54467,213.29489999999998,32.7517L212.05270000000002,33.52514Q211.6309,32.54662,210.8809,31.99584Q210.1309,31.4392,208.8945,31.4392Q207.63479999999998,31.4392,206.873,32.0017Q206.1172,32.55834,206.1172,33.5017Q206.1172,34.19897,206.5273,34.64428Q206.9375,35.08373,207.55270000000002,35.34155Q208.1738,35.5994,209.2578,35.915800000000004Q210.623,36.3201,211.4609,36.7068Q212.2988,37.0876,212.8965,37.8669Q213.5,38.6404,213.5,39.906ZM189.98047,56.066199999999995Q190.7715,55.2224,191.2988,54.3962Q191.832,53.5701,192.3008,52.5798L193.4375,52.8904Q193.1504,53.587599999999995,192.7871,54.2029L197.4629,54.2029L197.4629,55.228300000000004L196.2383,55.228300000000004Q195.9336,56.1306,195.5645,56.816199999999995Q195.1953,57.4958,194.6738,58.0408Q195.752,58.6501,197.6328,59.1658L197.0469,60.2615Q195.002,59.6345,193.7246,58.8494Q192.6113,59.5876,190.6309,60.1853L190.0332,59.0896Q191.832,58.5915,192.7344,58.0759Q191.9082,57.2732,191.3457,56.1306Q191.0586,56.5232,190.6484,56.9861L189.98047,56.066199999999995ZM185.1582,55.1404L183.95117,55.1404L183.95117,54.6365L181.55469,54.6365L181.55469,53.699L183.95117,53.699L183.95117,52.656L185.1582,52.656L185.1582,53.699L187.20898,53.699L187.20898,52.656L188.43359,52.656L188.43359,53.699L190.7012,53.699L190.7012,54.6365L188.43359,54.6365L188.43359,55.2458L187.20898,55.2458L187.20898,54.6365L185.1582,54.6365L185.1582,55.1404ZM183.30078,56.406Q182.47461,57.5251,181.53711,58.2458L181.068359,57.302499999999995Q182.38086,56.200900000000004,183.11914,55.0349L184.07422,55.3337L183.89844,55.5974L189.81641,55.5974Q189.81641,57.0212,189.67578,58.7322Q189.60547,59.5525,189.25391,59.8396Q188.90234,60.1208,187.98242,60.1794Q187.60742,60.197,187.12109,60.1384L186.93945,59.2947Q187.35547,59.3474,187.67773,59.3474Q188.1582,59.3474,188.31641,59.2185Q188.48047,59.0837,188.5332,58.5857Q188.66211,57.466499999999996,188.67969,56.406L183.30078,56.406ZM192.1191,55.228300000000004L192.0605,55.316199999999995Q192.6406,56.5935,193.666,57.408Q194.1172,56.9919,194.4277,56.464600000000004Q194.7441,55.937200000000004,194.9785,55.228300000000004L192.1191,55.228300000000004ZM186.81055,57.156L186.81055,59.5701L183.10156,59.5701L183.10156,57.156L186.81055,57.156ZM185.82031,57.8767L184.10938,57.8767L184.10938,58.8494L185.82031,58.8494L185.82031,57.8767ZM190.05078,59.9392Q190.2207,60.2439,190.5957,60.906L197.5918,60.906L197.5918,61.8435L181.25,61.8435L181.25,60.906L189.11328,60.906Q188.93164,60.5662,188.69727,60.2615L190.05078,59.9392ZM183.48242,62.7224L195.3945,62.7224L195.3945,63.531L183.48242,63.531L183.48242,62.7224ZM195.3945,65.031L183.48242,65.031L183.48242,64.15209999999999L195.3945,64.15209999999999L195.3945,65.031ZM184.54297,68.781L183.26562,68.781L183.26562,65.7224L195.6113,65.7224L195.6113,68.7576L194.334,68.7576L194.334,68.4294L184.54297,68.4294L184.54297,68.781ZM194.334,67.5505L194.334,66.531L184.54297,66.531L184.54297,67.5505L194.334,67.5505ZM208.625,59.1306L215.6445,59.1306L215.6445,60.531L199.625,60.531L199.625,59.1306L207.1309,59.1306L207.1309,56.406L202.9355,56.406Q202.3262,57.572,201.6406,58.5271L200.3633,57.6658Q201.3008,56.4294,201.89260000000002,55.3103Q202.4844,54.1853,202.918,52.8611L204.2715,53.3474Q203.9609,54.2673,203.6211,55.0232L207.1309,55.0232L207.1309,52.5564L208.625,52.5564L208.625,55.0232L214.5664,55.0232L214.5664,56.406L208.625,56.406L208.625,59.1306ZM203.1172,68.781L201.6406,68.781L201.6406,62.406L213.5762,62.406L213.5762,68.781L212.082,68.781L212.082,68.031L203.1172,68.031L203.1172,68.781ZM212.082,66.6423L212.082,63.8064L203.1172,63.8064L203.1172,66.6423L212.082,66.6423Z" fill="#DDDDDD" fill-opacity="1"/></g></g><path d="M132.5,1.5L132.5,3L140.5,3L140.5,1.5L132.5,1.5ZM144.5,1.5L144.5,3L152.5,3L152.5,1.5L144.5,1.5ZM156.5,1.5L156.5,3L164.5,3L164.5,1.5L156.5,1.5ZM168.5,1.5L168.5,3L176.5,3L176.5,1.5L168.5,1.5ZM180.5,1.5L180.5,3L188.5,3L188.5,1.5L180.5,1.5ZM192.5,1.5L192.5,3L200.5,3L200.5,1.5L192.5,1.5ZM204.5,1.5L204.5,3L212.5,3L212.5,1.5L204.5,1.5ZM216.5,1.5L216.5,3L224.5,3L224.5,1.5L216.5,1.5ZM228.5,1.5L228.5,3L236.5,3L236.5,1.5L228.5,1.5ZM240.5,1.5L240.5,3L248.5,3L248.5,1.5L240.5,1.5ZM252.5,1.5L252.5,3L260.5,3L260.5,1.5L252.5,1.5ZM263,1.5L263,9.5L264.5,9.5L264.5,1.5L263,1.5ZM264.5,13.5L263,13.5L263,21.5L264.5,21.5L264.5,13.5ZM264.5,25.5L263,25.5L263,33.5L264.5,33.5L264.5,25.5ZM264.5,37.5L263,37.5L263,45.5L264.5,45.5L264.5,37.5ZM264.5,49.5L263,49.5L263,57.5L264.5,57.5L264.5,49.5ZM264.5,61.5L263,61.5L263,69.5L264.5,69.5L264.5,61.5ZM264.5,73.5L263,73.5L263,81.5L264.5,81.5L264.5,73.5ZM264.5,85.5L263,85.5L263,93.5L264.5,93.5L264.5,85.5ZM264.5,96L263,96L263,97.5L264.5,97.5L264.5,96Z" fill-rule="evenodd" fill="#DDDDDD" fill-opacity="1"/></g><g style="mix-blend-mode:passthrough"><g><g style="mix-blend-mode:passthrough"><path d="M351.418,46.4685L349.0684,46.4685L345.56445,43.738Q344.99609,43.8435,344.41016,43.8435Q342.69922,43.8435,341.32227,42.999700000000004Q339.94531,42.156,339.16016,40.574Q338.375,38.9919,338.375,36.9001Q338.375,34.825919999999996,339.1543,33.24389Q339.93359,31.66186,341.29883,30.81811Q342.66992,29.9685,344.375,29.9685Q346.08008,29.9685,347.44531,30.82983Q348.8164,31.685299999999998,349.5957,33.26147Q350.375,34.83178,350.375,36.9119Q350.375,39.0798,349.5488,40.6912Q348.7227,42.302499999999995,347.29883,43.128699999999995L351.418,46.4685ZM339.99219,36.906Q339.99219,38.5115,340.51953,39.7537Q341.04688,40.99,342.04297,41.6814Q343.04492,42.3728,344.375,42.3728Q345.71094,42.3728,346.69531,41.6814Q347.6855,40.99,348.2188,39.7537Q348.7578,38.5115,348.7578,36.906Q348.7578,35.28295,348.2188,34.046620000000004Q347.6855,32.80444,346.69531,32.12475Q345.71094,31.4392,344.375,31.4392Q343.04492,31.4392,342.05469,32.12475Q341.07031,32.80444,340.53125,34.046620000000004Q339.99219,35.28295,339.99219,36.906ZM361.25,30.156L362.8672,30.156L362.8672,38.1892Q362.8672,39.9236,362.2578,41.2068Q361.6484,42.4841,360.4883,43.163799999999995Q359.334,43.8435,357.7344,43.8435Q355.332,43.8435,353.9785,42.3318Q352.625,40.8201,352.625,38.1892L352.625,30.156L354.2422,30.156L354.2422,37.9548Q354.2422,40.0994,355.1328,41.2361Q356.0234,42.3728,357.7402,42.3728Q359.4512,42.3728,360.3477,41.2361Q361.25,40.0994,361.25,37.9548L361.25,30.156ZM367.3672,43.656L365.75,43.656L365.75,30.156L367.3672,30.156L367.3672,43.656ZM375.3828,42.3728Q377.5449,42.3728,378.5527,40.322L379.84770000000003,41.0955Q379.2969,42.3904,378.1309,43.1169Q376.9707,43.8435,375.4531,43.8435Q373.7891,43.8435,372.4297,42.964600000000004Q371.0703,42.0857,370.28520000000003,40.5037Q369.5,38.9216,369.5,36.9001Q369.5,34.87865,370.28520000000003,33.29662Q371.0703,31.71459,372.4297,30.841549999999998Q373.7891,29.9685,375.4531,29.9685Q376.9707,29.9685,378.1309,30.70092Q379.2969,31.42748,379.84770000000003,32.71655L378.5527,33.48998Q377.5449,31.4392,375.3828,31.4392Q374.123,31.4392,373.1504,32.12475Q372.1836,32.8103,371.6504,34.05248Q371.1172,35.28881,371.1172,36.9001Q371.1172,38.5056,371.6504,39.7595Q372.1836,41.0076,373.1504,41.6931Q374.123,42.3728,375.3828,42.3728ZM397.1211,30.531L397.1211,31.95483L384.125,31.95483L384.125,35.49389Q384.125,37.6326,384.0078,39.103300000000004Q383.8906,40.574,383.5215,42.0212Q383.15229999999997,43.4685,382.3965,45.027100000000004L381.1016,44.253699999999995Q381.8047,42.8357,382.1562,41.5056Q382.5078,40.1755,382.6133,38.839600000000004Q382.7246,37.4978,382.7246,35.540800000000004L382.7246,30.531L389.3633,30.531Q388.9883,29.54076,388.7012,28.913809999999998L390.1367,28.497799999999998Q390.623,29.52319,390.9863,30.531L397.1211,30.531ZM390.5527,40.3572Q390.3535,38.7458,389.9316,36.7419Q389.5098,34.73803,389.1289,33.62475L390.5176,33.35522Q390.8574,34.421620000000004,391.291,36.4138Q391.7246,38.406,391.959,39.999700000000004L390.5527,40.3572ZM397.3027,42.906L397.3027,44.288799999999995L384.2539,44.288799999999995L384.2539,42.906L391.6484,42.906Q392.6211,40.949,393.4824,38.353300000000004Q394.3496,35.7576,394.7656,33.6599L396.166,34.0349Q395.791,35.8455,394.9238,38.4001Q394.0625,40.949,393.16020000000003,42.906L397.3027,42.906ZM387.2949,41.3826Q386.8965,39.6951,386.2285,37.5857Q385.5664,35.47631,385.0449,34.34545L386.3223,33.94701Q386.8438,35.11303,387.53520000000003,37.199Q388.2324,39.278999999999996,388.6074,40.9314L387.2949,41.3826ZM401,29.48217L414.4355,29.48217L414.4355,42.6892Q414.4355,43.8611,414.0078,44.3005Q413.5801,44.7458,412.5254,44.781Q411.4414,44.822,410.2988,44.6755L410.041,43.1931Q411.4004,43.3806,412.0449,43.3806Q412.6309,43.3806,412.8125,43.128699999999995Q413,42.8767,413,42.150099999999995L413,39.531L408.4238,39.531L408.4238,44.781L407,44.781L407,39.531L402.4062,39.531Q402.27729999999997,41.042699999999996,401.8906,42.3201Q401.5039,43.5974,400.7129,45.1794L399.3828,44.605199999999996Q400.1035,43.1931,400.4316,42.226299999999995Q400.7656,41.2595,400.8828,40.1111Q401,38.9568,401,36.9001L401,29.48217ZM407,33.906L407,30.906L402.4766,30.906L402.4766,33.906L407,33.906ZM408.4238,33.906L413,33.906L413,30.906L408.4238,30.906L408.4238,33.906ZM402.4766,38.124700000000004L407,38.124700000000004L407,35.31225L402.4766,35.31225L402.4766,37.322L402.4766,38.124700000000004ZM408.4238,35.31225L408.4238,38.124700000000004L413,38.124700000000004L413,35.31225L408.4238,35.31225ZM351.6582,60.9939Q351.6582,58.4509,352.502,56.3005Q353.3516,54.150099999999995,354.8281,52.656L356.2812,52.656Q354.8281,54.4197,354.043,56.464600000000004Q353.2578,58.5095,353.2578,60.9939Q353.2578,63.4958,354.043,65.5466Q354.8281,67.5974,356.2812,69.32589999999999L354.8281,69.32589999999999Q353.3516,67.8318,352.502,65.6931Q351.6582,63.5486,351.6582,60.9939ZM363.7812,58.0935Q365.2285,58.0935,366.1426,59.0837Q367.0625,60.074,367.0625,61.8904L367.0625,67.656L365.4453,67.656L365.4453,62.3298Q365.4453,60.9997,364.9238,60.2849Q364.4023,59.5642,363.3828,59.5642Q362.7207,59.5642,362.1289,59.8806Q361.543,60.1912,361.1738,60.8122Q360.8047,61.4333,360.8047,62.3474L360.8047,67.656L359.1875,67.656L359.1875,53.781L360.8047,53.781L360.8047,59.7283Q361.291,58.9255,362.0586,58.5095Q362.832,58.0935,363.7812,58.0935ZM375.1484,60.3787Q376.3672,60.7654,376.96479999999997,61.6384Q377.5625,62.5115,377.5625,63.7947Q377.5625,65.0544,376.9824,65.9802Q376.4082,66.90010000000001,375.4414,67.37469999999999Q374.4805,67.8435,373.3379,67.8435Q371.8906,67.8435,370.666,67.08760000000001Q369.4414,66.32589999999999,369.0195,64.8728L370.3145,64.1052Q370.6719,65.2244,371.5332,65.7986Q372.3945,66.3728,373.3906,66.3728Q374.4863,66.3728,375.2129,65.6931Q375.9453,65.0076,375.9453,63.7888Q375.9453,61.281,372.5176,61.281L371.9375,61.281L371.9375,59.8103L372.5762,59.8103Q373.918,59.8103,374.6152,59.1599Q375.3125,58.5095,375.3125,57.489999999999995Q375.3125,56.528999999999996,374.7207,55.9841Q374.1289,55.4392,373.1855,55.4392Q372.2129,55.4392,371.5332,56.0193Q370.8594,56.5994,370.4961,57.6892L369.2012,56.9451Q369.6289,55.4744,370.7012,54.7244Q371.7793,53.9685,373.2266,53.9685Q374.90229999999997,53.9685,375.916,54.9294Q376.9297,55.8904,376.9297,57.4548Q376.9297,58.4509,376.4902,59.2185Q376.0566,59.9802,375.1484,60.3787ZM382.09770000000003,55.3103Q381.2012,56.7107,380.2754,57.6833L379.127,56.9099Q380.0117,55.9548,380.8203,54.7068Q381.6289,53.4529,382.1328,52.322L383.5391,52.6794Q383.2695,53.312200000000004,382.8535,54.0681L387.0664,54.0681L387.0664,55.3103L384.459,55.3103L385.0039,56.1716L385.3438,56.7107L384.1895,57.3083L382.9473,55.3103L382.09770000000003,55.3103ZM389.1348,55.3103Q388.84770000000003,55.8142,388.3672,56.5349L387.1016,55.9197Q387.6816,55.1462,388.1445,54.290800000000004Q388.6133,53.4353,389.082,52.322L390.4473,52.6619L389.8027,54.0681L395.1875,54.0681L395.1875,55.3103L391.9824,55.3103Q392.4688,56.0076,392.8262,56.587599999999995L391.6719,57.2322L391.4551,56.874700000000004Q391.3086,56.6404,390.9746,56.1306Q390.6406,55.614999999999995,390.4297,55.3103L389.1348,55.3103ZM395.2402,62.031L391.584,62.031L391.584,63.5134L394.6309,63.5134L394.6309,64.7556L391.584,64.7556L391.584,66.5837Q391.584,67.4685,391.332,67.9255Q391.0801,68.38839999999999,390.459,68.5818Q389.8379,68.781,388.6719,68.781Q387.752,68.781,386.7969,68.6697L386.5625,67.4333Q387.7344,67.5915,388.4902,67.5915Q389.2109,67.5915,389.5332,67.4978Q389.8555,67.3982,389.97270000000003,67.1345Q390.08979999999997,66.8708,390.08979999999997,66.2556L390.08979999999997,64.7556L379.7012,64.7556L379.7012,63.5134L390.08979999999997,63.5134L390.08979999999997,62.031L379.1094,62.031L379.1094,60.824L386.4219,60.824L386.4219,59.0896L380.4043,59.0896L380.4043,57.9001L386.4219,57.9001L386.4219,56.8572L387.9336,56.8572L387.9336,57.9001L393.9277,57.9001L393.9277,59.0896L387.9336,59.0896L387.9336,60.824L395.2402,60.824L395.2402,62.031ZM382.8008,65.01339999999999Q385.1094,66.21459999999999,386.1172,66.8357L385.3789,67.9724Q383.5391,66.8708,382.1328,66.1091L382.8008,65.01339999999999ZM402.34180000000003,60.9939Q402.34180000000003,63.531,401.4922,65.6814Q400.6484,67.8318,399.1719,69.32589999999999L397.7188,69.32589999999999Q399.1719,67.56219999999999,399.957,65.5232Q400.7422,63.4783,400.7422,60.9939Q400.7422,58.4919,399.957,56.441199999999995Q399.1719,54.3845,397.7188,52.656L399.1719,52.656Q400.6484,54.150099999999995,401.4922,56.2947Q402.34180000000003,58.4333,402.34180000000003,60.9939Z" fill="#DDDDDD" fill-opacity="1"/></g></g><path d="M289.5,15.5L289.5,7.5L291,7.5L291,15.5L289.5,15.5ZM289.5,27.5L289.5,19.5L291,19.5L291,27.5L289.5,27.5ZM289.5,39.5L289.5,31.5L291,31.5L291,39.5L289.5,39.5ZM289.5,51.5L289.5,43.5L291,43.5L291,51.5L289.5,51.5ZM289.5,63.5L289.5,55.5L291,55.5L291,63.5L289.5,63.5ZM289.5,75.5L289.5,67.5L291,67.5L291,75.5L289.5,75.5ZM289.5,87.5L289.5,79.5L291,79.5L291,87.5L289.5,87.5ZM291,96L291,91.5L289.5,91.5L289.5,97.5L291,97.5L291,96ZM291,3.5L291,3L297.5,3L297.5,1.5L289.5,1.5L289.5,3.5L291,3.5ZM301.5,1.5L301.5,3L309.5,3L309.5,1.5L301.5,1.5ZM313.5,1.5L313.5,3L321.5,3L321.5,1.5L313.5,1.5ZM325.5,1.5L325.5,3L333.5,3L333.5,1.5L325.5,1.5ZM337.5,1.5L337.5,3L345.5,3L345.5,1.5L337.5,1.5ZM349.5,1.5L349.5,3L357.5,3L357.5,1.5L349.5,1.5ZM361.5,1.5L361.5,3L369.5,3L369.5,1.5L361.5,1.5ZM373.5,1.5L373.5,3L381.5,3L381.5,1.5L373.5,1.5ZM385.5,1.5L385.5,3L393.5,3L393.5,1.5L385.5,1.5ZM397.5,1.5L397.5,3L405.5,3L405.5,1.5L397.5,1.5ZM409.5,1.5L409.5,3L417.5,3L417.5,1.5L409.5,1.5ZM421.5,1.5L421.5,3L429.5,3L429.5,1.5L421.5,1.5ZM433.5,1.5L433.5,3L441.5,3L441.5,1.5L433.5,1.5ZM445.5,1.5L445.5,3L453.5,3L453.5,1.5L445.5,1.5ZM457.5,1.5L457.5,3L464.5,3L464.5,1.5L457.5,1.5ZM464.5,6.5L463,6.5L463,14.5L464.5,14.5L464.5,6.5ZM464.5,18.5L463,18.5L463,26.5L464.5,26.5L464.5,18.5ZM464.5,30.5L463,30.5L463,38.5L464.5,38.5L464.5,30.5ZM464.5,42.5L463,42.5L463,50.5L464.5,50.5L464.5,42.5ZM464.5,54.5L463,54.5L463,62.5L464.5,62.5L464.5,54.5ZM464.5,66.5L463,66.5L463,74.5L464.5,74.5L464.5,66.5ZM464.5,78.5L463,78.5L463,86.5L464.5,86.5L464.5,78.5ZM464.5,90.5L463,90.5L463,97.5L464.5,97.5L464.5,90.5Z" fill-rule="evenodd" fill="#DDDDDD" fill-opacity="1"/></g></g></g></svg>