<svg xmlns="http://www.w3.org/2000/svg" xmlns:xlink="http://www.w3.org/1999/xlink" fill="none" version="1.1" width="842" height="258" viewBox="0 0 842 258"><g style="mix-blend-mode:passthrough"><g style="mix-blend-mode:passthrough"><path d="M107,32L107,37.333330000000004L105.5,37.333330000000004L105.5,32M107,42.6667L107,48L105.5,48L105.5,42.6667M0,48L0,42.6667L1.5,42.6667L1.5,48M0,37.333330000000004L0,32L1.5,32L1.5,37.333330000000004" fill="#DDDDDD" fill-opacity="1"/></g><g style="mix-blend-mode:passthrough"><g style="mix-blend-mode:passthrough"><path d="M57.8125,81.2734Q57.8125,84.6836,56.69336,86.4355Q55.58008,88.1875,53.49414,88.1875Q51.41992,88.1875,50.30078,86.4297Q49.1875,84.666,49.1875,81.2734Q49.1875,77.85742,50.30078,76.08789Q51.41992,74.3125,53.49414,74.3125Q55.58008,74.3125,56.69336,76.07617Q57.8125,77.83984,57.8125,81.2734ZM50.80469,81.2793Q50.80469,84.0273,51.45508,85.375Q52.11133,86.7168,53.49414,86.7168Q54.87109,86.7168,55.5332,85.3809Q56.19531,84.0449,56.19531,81.2793Q56.19531,78.49609,55.5332,77.14258Q54.87109,75.7832,53.49414,75.7832Q52.11133,75.7832,51.45508,77.14258Q50.80469,78.49609,50.80469,81.2793Z" fill="#DDDDDD" fill-opacity="1"/></g><path d="M0,62L0,54L1.5,54L1.5,62L0,62ZM0,74L0,66L1.5,66L1.5,74L0,74ZM0,86L0,78L1.5,78L1.5,86L0,86ZM0,98L0,90L1.5,90L1.5,98L0,98ZM0,110L0,102L1.5,102L1.5,110L0,110ZM15.8519,118L7.92593,118L7.92593,116.5L15.8519,116.5L15.8519,118ZM27.7407,118L19.8148,118L19.8148,116.5L27.7407,116.5L27.7407,118ZM39.6296,118L31.7037,118L31.7037,116.5L39.6296,116.5L39.6296,118ZM51.5185,118L43.5926,118L43.5926,116.5L51.5185,116.5L51.5185,118ZM63.4074,118L55.4815,118L55.4815,116.5L63.4074,116.5L63.4074,118ZM75.2963,118L67.3704,118L67.3704,116.5L75.2963,116.5L75.2963,118ZM87.1852,118L79.2593,118L79.2593,116.5L87.1852,116.5L87.1852,118ZM99.0741,118L91.1481,118L91.1481,116.5L99.0741,116.5L99.0741,118ZM107,102L107,110L105.5,110L105.5,102L107,102ZM107,90L107,98L105.5,98L105.5,90L107,90ZM107,78L107,86L105.5,86L105.5,78L107,78ZM107,66L107,74L105.5,74L105.5,66L107,66ZM107,54L107,62L105.5,62L105.5,54L107,54ZM91.1481,46L99.0741,46L99.0741,47.5L91.1481,47.5L91.1481,46ZM79.2593,46L87.1852,46L87.1852,47.5L79.2593,47.5L79.2593,46ZM67.3704,46L75.2963,46L75.2963,47.5L67.3704,47.5L67.3704,46ZM55.4815,46L63.4074,46L63.4074,47.5L55.4815,47.5L55.4815,46ZM43.5926,46L51.5185,46L51.5185,47.5L43.5926,47.5L43.5926,46ZM31.7037,46L39.6296,46L39.6296,47.5L31.7037,47.5L31.7037,46ZM19.8148,46L27.7407,46L27.7407,47.5L19.8148,47.5L19.8148,46ZM7.92593,46L15.8519,46L15.8519,47.5L7.92593,47.5L7.92593,46ZM3.96296,46L3.96296,47.5L1.5,47.5L1.5,50L0,50L0,46L3.96296,46ZM103.037,46L107,46L107,50L105.5,50L105.5,47.5L103.037,47.5L103.037,46ZM107,114L107,118L103.037,118L103.037,116.5L105.5,116.5L105.5,114L107,114ZM3.96297,118L0,118L0,114L1.5,114L1.5,116.5L3.96297,116.5L3.96297,118Z" fill-rule="evenodd" fill="#DDDDDD" fill-opacity="1"/></g><g style="mix-blend-mode:passthrough"><g style="mix-blend-mode:passthrough"><path d="M49.86719,150.1543L56.875,150.1543L56.875,144.5L58.4922,144.5L58.4922,158L56.875,158L56.875,151.625L49.86719,151.625L49.86719,158L48.25,158L48.25,144.5L49.86719,144.5L49.86719,150.1543Z" fill="#DDDDDD" fill-opacity="1"/></g><path d="M0,132L0,124L1.5,124L1.5,132L0,132ZM0,144L0,136L1.5,136L1.5,144L0,144ZM0,156L0,148L1.5,148L1.5,156L0,156ZM0,168L0,160L1.5,160L1.5,168L0,168ZM0,180L0,172L1.5,172L1.5,180L0,180ZM15.8519,188L7.92593,188L7.92593,186.5L15.8519,186.5L15.8519,188ZM27.7407,188L19.8148,188L19.8148,186.5L27.7407,186.5L27.7407,188ZM39.6296,188L31.7037,188L31.7037,186.5L39.6296,186.5L39.6296,188ZM51.5185,188L43.5926,188L43.5926,186.5L51.5185,186.5L51.5185,188ZM63.4074,188L55.4815,188L55.4815,186.5L63.4074,186.5L63.4074,188ZM75.2963,188L67.3704,188L67.3704,186.5L75.2963,186.5L75.2963,188ZM87.1852,188L79.2593,188L79.2593,186.5L87.1852,186.5L87.1852,188ZM99.0741,188L91.1481,188L91.1481,186.5L99.0741,186.5L99.0741,188ZM107,172L107,180L105.5,180L105.5,172L107,172ZM107,160L107,168L105.5,168L105.5,160L107,160ZM107,148L107,156L105.5,156L105.5,148L107,148ZM107,136L107,144L105.5,144L105.5,136L107,136ZM107,124L107,132L105.5,132L105.5,124L107,124ZM91.1481,116L99.0741,116L99.0741,117.5L91.1481,117.5L91.1481,116ZM79.2593,116L87.1852,116L87.1852,117.5L79.2593,117.5L79.2593,116ZM67.3704,116L75.2963,116L75.2963,117.5L67.3704,117.5L67.3704,116ZM55.4815,116L63.4074,116L63.4074,117.5L55.4815,117.5L55.4815,116ZM43.5926,116L51.5185,116L51.5185,117.5L43.5926,117.5L43.5926,116ZM31.7037,116L39.6296,116L39.6296,117.5L31.7037,117.5L31.7037,116ZM19.8148,116L27.7407,116L27.7407,117.5L19.8148,117.5L19.8148,116ZM7.92593,116L15.8519,116L15.8519,117.5L7.92593,117.5L7.92593,116ZM3.96296,116L3.96296,117.5L1.5,117.5L1.5,120L0,120L0,116L3.96296,116ZM103.037,116L107,116L107,120L105.5,120L105.5,117.5L103.037,117.5L103.037,116ZM107,184L107,188L103.037,188L103.037,186.5L105.5,186.5L105.5,184L107,184ZM3.96297,188L0,188L0,184L1.5,184L1.5,186.5L3.96297,186.5L3.96297,188Z" fill-rule="evenodd" fill="#DDDDDD" fill-opacity="1"/></g><g style="mix-blend-mode:passthrough"><g style="mix-blend-mode:passthrough"></g><path d="M0,186.0000000596046L3.96296,186.0000000596046L3.96296,187.5L0,187.5M7.92593,186.0000000596046L15.8519,186.0000000596046L15.8519,187.5L7.92593,187.5M19.8148,186.0000000596046L27.7407,186.0000000596046L27.7407,187.5L19.8148,187.5M31.7037,186.0000000596046L39.6296,186.0000000596046L39.6296,187.5L31.7037,187.5M43.5926,186.0000000596046L51.5185,186.0000000596046L51.5185,187.5L43.5926,187.5M55.4815,186.0000000596046L63.4074,186.0000000596046L63.4074,187.5L55.4815,187.5M67.3704,186.0000000596046L75.2963,186.0000000596046L75.2963,187.5L67.3704,187.5M79.2592,186.0000000596046L87.1852,186.0000000596046L87.1852,187.5L79.2592,187.5M91.1481,186.0000000596046L99.0741,186.0000000596046L99.0741,187.5L91.1481,187.5M103.037,186.0000000596046L107,186.0000000596046L107,187.5L103.037,187.5M107,258L103.037,258L103.037,256.5L107,256.5M99.0741,258L91.1481,258L91.1481,256.5L99.0741,256.5M87.1852,258L79.2593,258L79.2593,256.5L87.1852,256.5M75.2963,258L67.3704,258L67.3704,256.5L75.2963,256.5M63.4074,258L55.4815,258L55.4815,256.5L63.4074,256.5M51.5185,258L43.5926,258L43.5926,256.5L51.5185,256.5M39.6296,258L31.7037,258L31.7037,256.5L39.6296,256.5M27.7408,258L19.8148,258L19.8148,256.5L27.7408,256.5M15.8519,258L7.92593,258L7.92593,256.5L15.8519,256.5M3.96297,258L0.00000762939,258L0.00000762939,256.5L3.96297,256.5M0,258L0,254L1.5,254L1.5,258M0,250L0,242L1.5,242L1.5,250M0,238L0,230L1.5,230L1.5,238M0,226L0,218L1.5,218L1.5,226M0,214L0,206L1.5,206L1.5,214M0,202L0,194L1.5,194L1.5,202M0,190L0,186L1.5,186L1.5,190" fill="#DDDDDD" fill-opacity="1"/></g><g style="mix-blend-mode:passthrough"><path d="M527,32L527,37.333330000000004L525.5,37.333330000000004L525.5,32M527,42.6667L527,48L525.5,48L525.5,42.6667M420,48L420,42.6667L421.5,42.6667L421.5,48M420,37.333330000000004L420,32L421.5,32L421.5,37.333330000000004" fill="#DDDDDD" fill-opacity="1"/></g><g style="mix-blend-mode:passthrough"><path d="M211.99993896484375,32L211.99993896484375,37.333330000000004L210.49993896484375,37.333330000000004L210.49993896484375,32M211.99993896484375,42.6667L211.99993896484375,48L210.49993896484375,48L210.49993896484375,42.6667M104.99993896484375,48L104.99993896484375,42.6667L106.49993896484375,42.6667L106.49993896484375,48M104.99993896484375,37.333330000000004L104.99993896484375,32L106.49993896484375,32L106.49993896484375,37.333330000000004" fill="#DDDDDD" fill-opacity="1"/></g><g style="mix-blend-mode:passthrough"><g style="mix-blend-mode:passthrough"><path d="M153.62493896484375,74.5L163.37493896484375,74.5L163.37493896484375,75.9707L159.36712896484374,75.9707L159.36712896484374,88L157.74993896484375,88L157.74993896484375,75.9707L153.62493896484375,75.9707L153.62493896484375,74.5Z" fill="#DDDDDD" fill-opacity="1"/></g><path d="M104.99993896484375,62L104.99993896484375,54L106.49993896484375,54L106.49993896484375,62L104.99993896484375,62ZM104.99993896484375,74L104.99993896484375,66L106.49993896484375,66L106.49993896484375,74L104.99993896484375,74ZM104.99993896484375,86L104.99993896484375,78L106.49993896484375,78L106.49993896484375,86L104.99993896484375,86ZM104.99993896484375,98L104.99993896484375,90L106.49993896484375,90L106.49993896484375,98L104.99993896484375,98ZM104.99993896484375,110L104.99993896484375,102L106.49993896484375,102L106.49993896484375,110L104.99993896484375,110ZM120.85183896484375,118L112.92586896484374,118L112.92586896484374,116.5L120.85183896484375,116.5L120.85183896484375,118ZM132.74063896484375,118L124.81473896484376,118L124.81473896484376,116.5L132.74063896484375,116.5L132.74063896484375,118ZM144.62953896484376,118L136.70363896484375,118L136.70363896484375,116.5L144.62953896484376,116.5L144.62953896484376,118ZM156.51843896484377,118L148.59253896484375,118L148.59253896484375,116.5L156.51843896484377,116.5L156.51843896484377,118ZM168.40733896484375,118L160.48143896484373,118L160.48143896484373,116.5L168.40733896484375,116.5L168.40733896484375,118ZM180.29623896484375,118L172.37033896484377,118L172.37033896484377,116.5L180.29623896484375,116.5L180.29623896484375,118ZM192.18513896484376,118L184.25923896484375,118L184.25923896484375,116.5L192.18513896484376,116.5L192.18513896484376,118ZM204.07403896484374,118L196.14803896484375,118L196.14803896484375,116.5L204.07403896484374,116.5L204.07403896484374,118ZM211.99993896484375,102L211.99993896484375,110L210.49993896484375,110L210.49993896484375,102L211.99993896484375,102ZM211.99993896484375,90L211.99993896484375,98L210.49993896484375,98L210.49993896484375,90L211.99993896484375,90ZM211.99993896484375,78L211.99993896484375,86L210.49993896484375,86L210.49993896484375,78L211.99993896484375,78ZM211.99993896484375,66L211.99993896484375,74L210.49993896484375,74L210.49993896484375,66L211.99993896484375,66ZM211.99993896484375,54L211.99993896484375,62L210.49993896484375,62L210.49993896484375,54L211.99993896484375,54ZM196.14803896484375,46L204.07403896484374,46L204.07403896484374,47.5L196.14803896484375,47.5L196.14803896484375,46ZM184.25923896484375,46L192.18513896484376,46L192.18513896484376,47.5L184.25923896484375,47.5L184.25923896484375,46ZM172.37033896484377,46L180.29623896484375,46L180.29623896484375,47.5L172.37033896484377,47.5L172.37033896484377,46ZM160.48143896484373,46L168.40733896484375,46L168.40733896484375,47.5L160.48143896484373,47.5L160.48143896484373,46ZM148.59253896484375,46L156.51843896484377,46L156.51843896484377,47.5L148.59253896484375,47.5L148.59253896484375,46ZM136.70363896484375,46L144.62953896484376,46L144.62953896484376,47.5L136.70363896484375,47.5L136.70363896484375,46ZM124.81473896484376,46L132.74063896484375,46L132.74063896484375,47.5L124.81473896484376,47.5L124.81473896484376,46ZM112.92586896484374,46L120.85183896484375,46L120.85183896484375,47.5L112.92586896484374,47.5L112.92586896484374,46ZM108.96289896484375,46L108.96289896484375,47.5L106.49993896484375,47.5L106.49993896484375,50L104.99993896484375,50L104.99993896484375,46L108.96289896484375,46ZM208.03693896484376,46L211.99993896484375,46L211.99993896484375,50L210.49993896484375,50L210.49993896484375,47.5L208.03693896484376,47.5L208.03693896484376,46ZM211.99993896484375,114L211.99993896484375,118L208.03693896484376,118L208.03693896484376,116.5L210.49993896484375,116.5L210.49993896484375,114L211.99993896484375,114ZM108.96290896484375,118L104.99993896484375,118L104.99993896484375,114L106.49993896484375,114L106.49993896484375,116.5L108.96290896484375,116.5L108.96290896484375,118Z" fill-rule="evenodd" fill="#DDDDDD" fill-opacity="1"/></g><g style="mix-blend-mode:passthrough"><path d="M632,32L632,37.333330000000004L630.5,37.333330000000004L630.5,32M632,42.6667L632,48L630.5,48L630.5,42.6667M525,48L525,42.6667L526.5,42.6667L526.5,48M525,37.333330000000004L525,32L526.5,32L526.5,37.333330000000004" fill="#DDDDDD" fill-opacity="1"/></g><g style="mix-blend-mode:passthrough"><path d="M317,32L317,37.333330000000004L315.5,37.333330000000004L315.5,32M317,42.6667L317,48L315.5,48L315.5,42.6667M210,48L210,42.6667L211.5,42.6667L211.5,48M210,37.333330000000004L210,32L211.5,32L211.5,37.333330000000004" fill="#DDDDDD" fill-opacity="1"/></g><g style="mix-blend-mode:passthrough"><path d="M737,32L737,37.333330000000004L735.5,37.333330000000004L735.5,32M737,42.6667L737,48L735.5,48L735.5,42.6667M630,48L630,42.6667L631.5,42.6667L631.5,48M630,37.333330000000004L630,32L631.5,32L631.5,37.333330000000004" fill="#DDDDDD" fill-opacity="1"/></g><g style="mix-blend-mode:passthrough"><path d="M422,32L422,37.333330000000004L420.5,37.333330000000004L420.5,32M422,42.6667L422,48L420.5,48L420.5,42.6667M315,48L315,42.6667L316.5,42.6667L316.5,48M315,37.333330000000004L315,32L316.5,32L316.5,37.333330000000004" fill="#DDDDDD" fill-opacity="1"/></g><g style="mix-blend-mode:passthrough"><path d="M57.8125,11.2734Q57.8125,14.6836,56.69336,16.4355Q55.58008,18.1875,53.49414,18.1875Q51.41992,18.1875,50.30078,16.4297Q49.1875,14.666,49.1875,11.2734Q49.1875,7.85742,50.30078,6.08789Q51.41992,4.3125,53.49414,4.3125Q55.58008,4.3125,56.69336,6.07617Q57.8125,7.83984,57.8125,11.2734ZM50.80469,11.2793Q50.80469,14.0273,51.45508,15.375Q52.11133,16.7168,53.49414,16.7168Q54.87109,16.7168,55.5332,15.3809Q56.19531,14.0449,56.19531,11.2793Q56.19531,8.49609,55.5332,7.14258Q54.87109,5.7832,53.49414,5.7832Q52.11133,5.7832,51.45508,7.14258Q50.80469,8.49609,50.80469,11.2793Z" fill="#DDDDDD" fill-opacity="1"/></g><g style="mix-blend-mode:passthrough"><path d="M476.6875,9.75L476.6875,13.5293L478.5625,13.5293L478.5625,15L476.6875,15L476.6875,18L475.07031,18L475.07031,15L469.1875,15L469.1875,13.8164L474.17969,4.5L475.94336,4.5L471.07422,13.5293L475.07031,13.5293L475.07031,9.75L476.6875,9.75Z" fill="#DDDDDD" fill-opacity="1"/></g><g style="mix-blend-mode:passthrough"><path d="M155.3125,8.47852L155.3125,6.78516L159.08008,4.5L160.30469,4.5L160.30469,18L158.6875,18L158.6875,6.46875L155.3125,8.47852Z" fill="#DDDDDD" fill-opacity="1"/></g><g style="mix-blend-mode:passthrough"><path d="M578.59375,9.4043Q579.74805,9.4043,580.65039,9.9668Q581.55859,10.5293,582.05664,11.5137Q582.55469,12.4922,582.55469,13.7402Q582.55469,15.0527,581.99805,16.0605Q581.44727,17.0684,580.48633,17.6309Q579.52539,18.1875,578.34766,18.1875Q577.04688,18.1875,576.03906,17.5254Q575.03125,16.8574,574.63867,15.5684L575.93359,14.8125Q576.25586,15.7559,576.87695,16.2363Q577.49805,16.7168,578.38281,16.7168Q579.57227,16.7168,580.25195,15.9023Q580.9375,15.0879,580.9375,13.8164Q580.9375,12.5801,580.28125,11.7305Q579.625,10.875,578.38281,10.875Q576.81836,10.875,575.93359,12.334L574.9082,11.8008L575.81055,4.5L581.99219,4.5L581.99219,5.9707L577.21094,5.9707L576.68945,9.91406Q577.46875,9.4043,578.59375,9.4043Z" fill="#DDDDDD" fill-opacity="1"/></g><g style="mix-blend-mode:passthrough"><path d="M261.63672,16.5293L267.4375,16.5293L267.4375,18L259.1875,18L259.1875,16.9395L263.45898,12.0879Q264.66016,10.7285,265.11133,9.94922Q265.5625,9.16992,265.5625,8.24414Q265.5625,7.06641,264.92969,6.42773Q264.30273,5.7832,263.34766,5.7832Q262.375,5.7832,261.63672,6.45703Q260.89844,7.125,260.57617,8.22656L259.27539,7.4707Q259.66797,5.9707,260.82812,5.14453Q261.98828,4.3125,263.41797,4.3125Q264.44922,4.3125,265.30469,4.76367Q266.16602,5.21484,266.66992,6.08789Q267.17969,6.95508,267.17969,8.17969Q267.17969,9.375,266.61133,10.4414Q266.04297,11.5078,264.61914,13.1191L261.63672,16.5293Z" fill="#DDDDDD" fill-opacity="1"/></g><g style="mix-blend-mode:passthrough"><path d="M683.96289,9.75Q685.11719,9.75,686.01953,10.3125Q686.92188,10.8691,687.42578,11.8301Q687.92969,12.7852,687.92969,13.9453Q687.92969,15.1348,687.39062,16.1133Q686.85742,17.0859,685.89062,17.6367Q684.92969,18.1875,683.74609,18.1875Q682.52734,18.1875,681.57227,17.6367Q680.61719,17.0859,680.08984,16.0957Q679.5625,15.0996,679.5625,13.8281Q679.5625,12.832,679.9082,11.9941Q680.25391,11.1562,681.05078,9.79688L684.15625,4.5L685.98438,4.5L683.24805,9.1582Q682.99023,9.57422,682.73828,9.93164Q683.28906,9.75,683.96289,9.75ZM683.75781,16.7168Q684.91797,16.7168,685.61523,15.9551Q686.3125,15.1934,686.3125,13.9805Q686.3125,12.7559,685.62109,11.9883Q684.93555,11.2207,683.75781,11.2207Q682.57422,11.2207,681.87695,11.9883Q681.17969,12.7559,681.17969,13.9805Q681.17969,15.2109,681.87695,15.9668Q682.57422,16.7168,683.75781,16.7168Z" fill="#DDDDDD" fill-opacity="1"/></g><g style="mix-blend-mode:passthrough"><path d="M370.39844,10.7227Q371.61719,11.1094,372.21484,11.9824Q372.8125,12.8555,372.8125,14.1387Q372.8125,15.3984,372.23242,16.3242Q371.6582,17.2441,370.69141,17.7188Q369.73047,18.1875,368.58789,18.1875Q367.14062,18.1875,365.91602,17.4316Q364.69141,16.6699,364.26953,15.2168L365.56445,14.4492Q365.92188,15.5684,366.7832,16.1426Q367.64453,16.7168,368.64062,16.7168Q369.73633,16.7168,370.46289,16.0371Q371.19531,15.3516,371.19531,14.1328Q371.19531,11.625,367.76758,11.625L367.1875,11.625L367.1875,10.1543L367.82617,10.1543Q369.16797,10.1543,369.86523,9.50391Q370.5625,8.85352,370.5625,7.83398Q370.5625,6.87305,369.9707,6.32812Q369.37891,5.7832,368.43555,5.7832Q367.46289,5.7832,366.7832,6.36328Q366.10938,6.94336,365.74609,8.0332L364.45117,7.28906Q364.87891,5.81836,365.95117,5.06836Q367.0293,4.3125,368.47656,4.3125Q370.15234,4.3125,371.16602,5.27344Q372.17969,6.23438,372.17969,7.79883Q372.17969,8.79492,371.74023,9.5625Q371.30664,10.3242,370.39844,10.7227Z" fill="#DDDDDD" fill-opacity="1"/></g><g style="mix-blend-mode:passthrough"><g style="mix-blend-mode:passthrough"><path d="M414.91211,143.1582Q414.32031,145.39062,413.6875,147.07227L413.6875,159.125L412.28711,159.125L412.28711,149.94336Q411.56641,151.332,410.86328,152.375L410.089844,150.8281Q411.13281,149.33984,411.98828,147.25977Q412.84375,145.17969,413.43555,142.85938L414.91211,143.1582ZM425.2305,147.40039L425.2305,157.49020000000002L426.8125,157.49020000000002L426.8125,158.75L414.51953,158.75L414.51953,157.49020000000002L416.13672,157.49020000000002L416.13672,147.40039L419.9746,147.40039L419.9746,145.67188L415.4043,145.67188L415.4043,144.42969L419.9746,144.42969L419.9746,142.90039L421.4102,142.90039L421.4102,144.42969L426.3086,144.42969L426.3086,145.67188L421.4102,145.67188L421.4102,147.40039L425.2305,147.40039ZM423.7891,149.76172L423.7891,148.625L417.57812,148.625L417.57812,149.76172L423.7891,149.76172ZM417.57812,152.375L423.7891,152.375L423.7891,150.875L417.57812,150.875L417.57812,152.375ZM423.7891,155L423.7891,153.5059L417.57812,153.5059L417.57812,155L423.7891,155ZM423.7891,156.0957L417.57812,156.0957L417.57812,157.49020000000002L423.7891,157.49020000000002L423.7891,156.0957ZM444.0566,145.55469L444.0566,146.32227Q444.0566,148.63672,443.9395,151.7363Q443.8223,154.8359,443.6641,156.834Q443.5938,157.7305,443.3418,158.2168Q443.0957,158.7031,442.627,158.9023Q442.1582,159.10739999999998,441.3555,159.14260000000002Q441.168,159.1602,440.793,159.1602Q440.5,159.1602,440.1191,159.14260000000002Q439.7441,159.125,439.5332,159.10739999999998L439.0586,159.0664L438.8125,157.5195Q440.0723,157.7363,440.7754,157.7363Q441.3203,157.7363,441.6074,157.6191Q441.9004,157.4961,442.0645,157.1562Q442.2285,156.8164,442.2988,156.1016Q442.5625,152.9609,442.5625,148.36133L442.5625,146.94336L438.2148,146.94336Q437.623,148.53711,437.0781,149.74414L435.8535,148.87695Q436.5391,147.51172,437.1309,145.82422Q437.7227,144.13672,438.0742,142.625L439.4805,142.91211Q439.1113,144.37109,438.707,145.55469L444.0566,145.55469ZM433.457,143.01758Q433.2051,144.20703,432.7773,145.71875L435.3613,145.71875L435.3613,158.668L429.1562,158.668L429.1562,145.71875L431.125,145.71875Q431.5762,144.44141,431.9102,142.74805L433.457,143.01758ZM430.5625,150.875L433.9375,150.875L433.9375,147.125L430.5625,147.125L430.5625,150.875ZM439.9141,154.707Q439.3574,153.8105,438.5488,152.6855Q437.7461,151.5547,437.1836,150.8926L438.2324,150.0078Q438.8125,150.6934,439.6094,151.7832Q440.4062,152.8672,441.0039,153.7578L439.9141,154.707ZM430.5625,152.2637L430.5625,157.25L433.9375,157.25L433.9375,152.2637L430.5625,152.2637ZM455.0371,151.25Q456.1387,153.4297,457.873,154.8184Q459.6133,156.2012,462.6016,157.2969L461.8633,158.7383Q458.6406,157.5137,456.6777,155.7617Q454.71479999999997,154.0039,453.47270000000003,151.25L450.6484,151.25L450.6484,157.2617L455.1484,155.5332L455.2012,157.0977L454.4805,157.3496Q451.6387,158.3398,450.6484,158.7559Q449.8926,159.043,449.2422,159.4062L448.5215,157.8535Q448.8672,157.67770000000002,449.0371,157.4785Q449.207,157.2793,449.207,157.0273L449.207,151.25L446.3301,151.25L446.3301,149.82617L449.207,149.82617L449.207,142.9707L450.6484,142.9707L450.6484,149.82617L462.4375,149.82617L462.4375,151.25L455.0371,151.25ZM460.8379,144.73438Q459.0332,145.84766,456.666,146.9668Q454.2988,148.08008,452.1777,148.81836L451.6211,147.45312Q453.6895,146.75,456.0039,145.625Q458.3184,144.5,460.1348,143.3457L460.8379,144.73438ZM467.3125,149L467.3125,150.3711Q467.3125,152.498,467.1133,153.9922Q466.9199,155.4805,466.4922,156.6992Q466.0703,157.9121,465.3145,159.248L464.0195,158.5273Q464.793,157.1445,465.1797,155.9844Q465.5664,154.8242,465.7305,153.4355Q465.8945,152.041,465.8945,149.9082L465.8945,144.48242L472.6094,144.48242Q472.1934,143.54492,471.959,143.13477L473.418,142.78906Q473.6875,143.29297,474.209,144.48242L480.3672,144.48242L480.3672,145.75977L477.3555,145.75977L477.3555,147.75781L480.2734,147.75781L480.2734,149L477.3555,149L477.3555,151.625L470.08979999999997,151.625L470.08979999999997,149L467.3125,149ZM470.08979999999997,147.75781L470.08979999999997,145.75977L467.3125,145.75977L467.3125,147.75781L470.08979999999997,147.75781ZM471.47270000000003,147.75781L475.9551,147.75781L475.9551,145.75977L471.47270000000003,145.75977L471.47270000000003,147.75781ZM471.47270000000003,150.4062L475.9551,150.4062L475.9551,149L471.47270000000003,149L471.47270000000003,150.4062ZM480.1152,159.2305Q477.9531,158.8906,476.3828,158.4805Q474.8184,158.0762,473.5762,157.4844Q471.1504,158.5273,467.2246,159.3594L466.6504,158.0586Q469.8965,157.5195,472.1406,156.6934Q470.5527,155.668,469.15229999999997,153.9395L468.0918,153.9395L468.0918,152.75L478.5625,152.75L478.5625,153.957Q477.1445,155.6328,475.03520000000003,156.7812Q477.03319999999997,157.4844,480.543,157.9004L480.1152,159.2305ZM470.7344,153.9395Q471.9238,155.2871,473.5059,156.1367Q475.3633,155.2695,476.6934,153.9395L470.7344,153.9395ZM493.53319999999997,151.3379Q493.53319999999997,148.79492,494.377,146.64453Q495.2266,144.49414,496.7031,143L498.1562,143Q496.7031,144.76367,495.918,146.80859Q495.1328,148.85352,495.1328,151.3379Q495.1328,153.8398,495.918,155.8906Q496.7031,157.9414,498.1562,159.66989999999998L496.7031,159.66989999999998Q495.2266,158.1758,494.377,156.0371Q493.53319999999997,153.8926,493.53319999999997,151.3379ZM507.1094,145.9707L500.6875,145.9707L500.6875,144.5L508.9375,144.5L508.9375,145.54883L503.9805,158L502.2051,158L507.1094,145.9707ZM513.812,147.125L515.312,147.125L515.312,150.875L518.688,150.875L518.688,152.3457L515.312,152.3457L515.312,155.75L513.812,155.75L513.812,152.3457L510.438,152.3457L510.438,150.875L513.812,150.875L513.812,147.125ZM525.467,151.3379Q525.467,153.875,524.617,156.0254Q523.773,158.1758,522.297,159.66989999999998L520.844,159.66989999999998Q522.297,157.9062,523.082,155.8672Q523.867,153.8223,523.867,151.3379Q523.867,148.83594,523.082,146.78516Q522.297,144.72852,520.844,143L522.297,143Q523.773,144.49414,524.617,146.63867Q525.467,148.77734,525.467,151.3379Z" fill="#DDDDDD" fill-opacity="1"/></g></g><g style="mix-blend-mode:passthrough"><g style="mix-blend-mode:passthrough"></g><path d="M104.99993896484375,116.0000000596046L108.96289896484375,116.0000000596046L108.96289896484375,117.5L104.99993896484375,117.5M112.92586896484374,116.0000000596046L120.85183896484375,116.0000000596046L120.85183896484375,117.5L112.92586896484374,117.5M124.81473896484376,116.0000000596046L132.74063896484375,116.0000000596046L132.74063896484375,117.5L124.81473896484376,117.5M136.70363896484375,116.0000000596046L144.62953896484376,116.0000000596046L144.62953896484376,117.5L136.70363896484375,117.5M148.59253896484375,116.0000000596046L156.51843896484377,116.0000000596046L156.51843896484377,117.5L148.59253896484375,117.5M160.48143896484373,116.0000000596046L168.40733896484375,116.0000000596046L168.40733896484375,117.5L160.48143896484373,117.5M172.37033896484377,116.0000000596046L180.29623896484375,116.0000000596046L180.29623896484375,117.5L172.37033896484377,117.5M184.25913896484377,116.0000000596046L192.18513896484376,116.0000000596046L192.18513896484376,117.5L184.25913896484377,117.5M196.14803896484375,116.0000000596046L204.07403896484374,116.0000000596046L204.07403896484374,117.5L196.14803896484375,117.5M208.03693896484376,116.0000000596046L211.99993896484375,116.0000000596046L211.99993896484375,117.5L208.03693896484376,117.5M211.99993896484375,188L208.03693896484376,188L208.03693896484376,186.5L211.99993896484375,186.5M204.07403896484374,188L196.14803896484375,188L196.14803896484375,186.5L204.07403896484374,186.5M192.18513896484376,188L184.25923896484375,188L184.25923896484375,186.5L192.18513896484376,186.5M180.29623896484375,188L172.37033896484377,188L172.37033896484377,186.5L180.29623896484375,186.5M168.40733896484375,188L160.48143896484373,188L160.48143896484373,186.5L168.40733896484375,186.5M156.51843896484377,188L148.59253896484375,188L148.59253896484375,186.5L156.51843896484377,186.5M144.62953896484376,188L136.70363896484375,188L136.70363896484375,186.5L144.62953896484376,186.5M132.74073896484376,188L124.81473896484376,188L124.81473896484376,186.5L132.74073896484376,186.5M120.85183896484375,188L112.92586896484374,188L112.92586896484374,186.5L120.85183896484375,186.5M108.96290896484375,188L104.99994659423375,188L104.99994659423375,186.5L108.96290896484375,186.5M104.99993896484375,188L104.99993896484375,184L106.49993896484375,184L106.49993896484375,188M104.99993896484375,180L104.99993896484375,172L106.49993896484375,172L106.49993896484375,180M104.99993896484375,168L104.99993896484375,160L106.49993896484375,160L106.49993896484375,168M104.99993896484375,156L104.99993896484375,148L106.49993896484375,148L106.49993896484375,156M104.99993896484375,144L104.99993896484375,136L106.49993896484375,136L106.49993896484375,144M104.99993896484375,132L104.99993896484375,124L106.49993896484375,124L106.49993896484375,132M104.99993896484375,120L104.99993896484375,116L106.49993896484375,116L106.49993896484375,120" fill="#DDDDDD" fill-opacity="1"/></g><g style="mix-blend-mode:passthrough"><g style="mix-blend-mode:passthrough"></g><path d="M104.99993896484375,186.0000000596046L108.96289896484375,186.0000000596046L108.96289896484375,187.5L104.99993896484375,187.5M112.92586896484374,186.0000000596046L120.85183896484375,186.0000000596046L120.85183896484375,187.5L112.92586896484374,187.5M124.81473896484376,186.0000000596046L132.74063896484375,186.0000000596046L132.74063896484375,187.5L124.81473896484376,187.5M136.70363896484375,186.0000000596046L144.62953896484376,186.0000000596046L144.62953896484376,187.5L136.70363896484375,187.5M148.59253896484375,186.0000000596046L156.51843896484377,186.0000000596046L156.51843896484377,187.5L148.59253896484375,187.5M160.48143896484373,186.0000000596046L168.40733896484375,186.0000000596046L168.40733896484375,187.5L160.48143896484373,187.5M172.37033896484377,186.0000000596046L180.29623896484375,186.0000000596046L180.29623896484375,187.5L172.37033896484377,187.5M184.25913896484377,186.0000000596046L192.18513896484376,186.0000000596046L192.18513896484376,187.5L184.25913896484377,187.5M196.14803896484375,186.0000000596046L204.07403896484374,186.0000000596046L204.07403896484374,187.5L196.14803896484375,187.5M208.03693896484376,186.0000000596046L211.99993896484375,186.0000000596046L211.99993896484375,187.5L208.03693896484376,187.5M211.99993896484375,258L208.03693896484376,258L208.03693896484376,256.5L211.99993896484375,256.5M204.07403896484374,258L196.14803896484375,258L196.14803896484375,256.5L204.07403896484374,256.5M192.18513896484376,258L184.25923896484375,258L184.25923896484375,256.5L192.18513896484376,256.5M180.29623896484375,258L172.37033896484377,258L172.37033896484377,256.5L180.29623896484375,256.5M168.40733896484375,258L160.48143896484373,258L160.48143896484373,256.5L168.40733896484375,256.5M156.51843896484377,258L148.59253896484375,258L148.59253896484375,256.5L156.51843896484377,256.5M144.62953896484376,258L136.70363896484375,258L136.70363896484375,256.5L144.62953896484376,256.5M132.74073896484376,258L124.81473896484376,258L124.81473896484376,256.5L132.74073896484376,256.5M120.85183896484375,258L112.92586896484374,258L112.92586896484374,256.5L120.85183896484375,256.5M108.96290896484375,258L104.99994659423375,258L104.99994659423375,256.5L108.96290896484375,256.5" fill="#DDDDDD" fill-opacity="1"/></g><g style="mix-blend-mode:passthrough"><g style="mix-blend-mode:passthrough"><path d="M477.8359,76Q476.3008,77.82227,474.3906,79.24609Q472.4805,80.6641,470.00781,81.8066L477.8125,81.8066L477.8125,89.125L476.4121,89.125L476.4121,88.2109L467.98633,88.2109L467.98633,89.125L466.5625,89.125L466.5625,83.2188Q464.96289,83.7812,463.43359,84.2383L462.876953,82.8906Q467.54102,81.584,470.65234,79.91992Q473.7637,78.25586,475.8555,76L469.10547,76Q468.63672,76.47461,468.11523,76.94922Q469.53906,77.98633,470.51172,78.80078L469.60938,79.9668Q468.54297,79.01758,467.01367,77.89258Q465.78906,78.89453,464.58789,79.65625L463.68555,78.41992Q465.4668,77.35352,467.24219,75.71875Q469.01758,74.08398,470.10156,72.61914L471.48438,73.14062Q471.0332,73.79102,470.34766,74.63477L477.8359,74.63477L477.8359,76ZM467.98633,86.875L476.4121,86.875L476.4121,83.125L467.98633,83.125L467.98633,86.875ZM490.0996,76.62109Q489.5137,78.28516,488.7285,79.82031L487.4688,79.15234Q488.166,77.875,488.793,76.15234Q489.4199,74.42383,489.748,72.87695L491.1543,73.11133Q490.9199,74.11914,490.5742,75.25L497.0254,75.25L497.0254,76.62109L495.6016,79.63867L494.3066,79.15234L495.5137,76.62109L490.0996,76.62109ZM484.8496,80.4004Q486.5664,82.0234,487.1406,82.6211L486.2559,83.6348Q485.9512,83.2891,484.8496,82.1875L484.8496,89.125L483.5371,89.125L483.5371,81.8242Q482.5469,84.4082,481.4277,86.0371L480.6367,84.8066Q481.4453,83.6172,482.1836,82.1348Q482.9219,80.6523,483.4082,79.20508L481.1582,79.20508L481.1582,77.875L483.5371,77.875L483.5371,75.44922Q481.8965,75.68359,481.375,75.73633L481.2285,74.42383Q482.5117,74.27734,484.082,74.01953Q485.6582,73.75586,486.8301,73.46875L487.0293,74.78125Q485.9629,75.05078,484.8496,75.23242L484.8496,77.875L486.8125,77.875L486.8125,79.20508L484.8496,79.20508L484.8496,80.4004ZM491.4473,78.05664L492.8125,78.05664L492.8125,87.1738Q492.8125,88.2051,492.3848,88.6445Q491.9629,89.084,490.9961,89.125Q490.0176,89.1602,489.2324,89.0312L488.9453,87.625Q489.7832,87.7715,490.5332,87.7715Q491.0254,87.7715,491.2363,87.4961Q491.4473,87.2148,491.4473,86.6523L491.4473,78.05664ZM495.2441,80.5059Q495.7129,81.6777,496.375,83.793Q497.043,85.9082,497.4062,87.2266L496.1406,87.6836Q495.7598,86.1484,495.1387,84.1855Q494.5234,82.2227,494.0195,80.9395L495.2441,80.5059ZM490.0469,81.0449Q489.6309,82.6914,488.9863,84.4902Q488.3477,86.2832,487.6152,87.6602L486.3438,87.1738Q487.0352,85.9434,487.6797,84.1738Q488.3301,82.4043,488.7812,80.7578L490.0469,81.0449ZM512.4766,84.5078Q510.9473,84.5957,507.8828,84.7422L507.8828,87.0566Q507.8828,88.1641,507.4844,88.6211Q507.0859,89.084,506.2246,89.125Q505.4453,89.1426,504.3379,89.0488L504.0859,87.7422Q504.2324,87.7598,504.7656,87.8301Q505.2988,87.9004,505.7676,87.9004Q506.1309,87.9004,506.2949,87.6016Q506.459,87.2969,506.459,86.6758L506.459,84.8301L501.918,85.0469L500.0195,85.1523L499.8027,83.875Q501.1973,83.875,501.58979999999997,83.7461Q503.6113,83.0898,506.2012,81.6602Q504.7539,81.7656,502.1465,81.9473L500.916,82.0469L500.72270000000003,81.0508Q501.7363,80.9629,502.0938,80.8164Q503.2363,80.3535,505.78520000000003,78.38477L501.0625,78.38477L501.0625,80.3652L499.5859,80.3652L499.5859,77.125L506.3125,77.125L506.3125,75.625L500.0195,75.625L500.0195,74.36523L506.3125,74.36523L506.3125,72.87109L507.7363,72.87109L507.7363,74.36523L514.123,74.36523L514.123,75.625L507.7363,75.625L507.7363,77.125L514.5391,77.125L514.5391,80.4004L513.0625,80.4004L513.0625,78.38477L507.6836,78.38477Q506.998,78.95898,506.0254,79.67383Q505.0586,80.3828,504.3555,80.8516L508.1816,80.541Q509.752,79.5918,510.6719,78.94141L511.457,80.0078Q509.3887,81.3789,507.8945,82.2578Q506.4004,83.1309,504.9355,83.6992L511.2402,83.3184Q510.4141,82.5508,510.0508,82.252L510.9824,81.373Q513.2852,83.4473,514.4277,84.7188L513.5664,85.6504Q513.3496,85.3984,512.7695,84.7949Q512.7695,84.7949,512.4766,84.5078ZM504.3203,86.3301Q503.27729999999997,87.0449,501.9297,87.7656Q500.582,88.4863,499.2988,89.0371L498.7422,87.7246Q499.97270000000003,87.2441,501.3496,86.5293Q502.7324,85.8086,503.6348,85.1523L504.3203,86.3301ZM509.9219,85.1348Q511.2109,85.75,514.3691,87.332L515.2012,87.7422L514.5742,88.9961Q513.6836,88.498,512.0137,87.6719Q510.3438,86.8398,509.2715,86.3418L509.9219,85.1348ZM529.9082,72.97656L531.4375,72.97656L531.4375,89.125L529.9082,89.125L529.9082,72.97656ZM526.1875,73.75L526.1875,79.24609L519.9414,79.24609L519.7305,81.625L526.2812,81.625Q526.2637,83.8574,525.9355,86.4062Q525.7949,87.502,525.4784999999999,88.0703Q525.1621,88.6445,524.5117,88.8848Q523.8672,89.125,522.7188,89.125Q521.418,89.125,519.8887,88.9434L519.6016,87.5078Q521.3301,87.7715,522.6426,87.7715Q523.5098,87.7715,523.9023,87.3789Q524.3008,86.9863,524.4414,85.9961Q524.6758,84.4023,524.752,83.0254L518.1074,83.0254L518.5409999999999,77.875L524.6582,77.875L524.6582,75.13867L518.125,75.13867L518.125,73.75L526.1875,73.75ZM546.0332,81.3379Q546.0332,78.79492,546.877,76.64453Q547.7266,74.49414,549.2031,73L550.6562,73Q549.2031,74.76367,548.418,76.80859Q547.6328,78.85352,547.6328,81.3379Q547.6328,83.8398,548.418,85.8906Q549.2031,87.9414,550.6562,89.6699L549.2031,89.6699Q547.7266,88.1758,546.877,86.0371Q546.0332,83.8926,546.0332,81.3379ZM557.5879,79.75Q558.7422,79.75,559.6445,80.3125Q560.5469,80.8691,561.0508,81.8301Q561.5547,82.7852,561.5547,83.9453Q561.5547,85.1348,561.0156,86.1133Q560.4824,87.0859,559.5156,87.6367Q558.5547,88.1875,557.3711,88.1875Q556.1523,88.1875,555.1973,87.6367Q554.2422,87.0859,553.7148,86.0957Q553.1875,85.0996,553.1875,83.8281Q553.1875,82.832,553.5332,81.9941Q553.8789,81.1562,554.6758,79.79688L557.7812,74.5L559.6094,74.5L556.873,79.1582Q556.6152,79.57422,556.3633,79.93164Q556.9141,79.75,557.5879,79.75ZM557.3828,86.7168Q558.543,86.7168,559.2402,85.9551Q559.9375,85.1934,559.9375,83.9805Q559.9375,82.7559,559.2461,81.9883Q558.5605,81.2207,557.3828,81.2207Q556.1992,81.2207,555.502,81.9883Q554.8047,82.7559,554.8047,83.9805Q554.8047,85.2109,555.502,85.9668Q556.1992,86.7168,557.3828,86.7168ZM566.312,77.125L567.812,77.125L567.812,80.875L571.188,80.875L571.188,82.3457L567.812,82.3457L567.812,85.75L566.312,85.75L566.312,82.3457L562.938,82.3457L562.938,80.875L566.312,80.875L566.312,77.125ZM577.967,81.3379Q577.967,83.875,577.117,86.0254Q576.273,88.1758,574.797,89.6699L573.344,89.6699Q574.797,87.9062,575.582,85.8672Q576.367,83.8223,576.367,81.3379Q576.367,78.83594,575.582,76.78516Q574.797,74.72852,573.344,73L574.797,73Q576.273,74.49414,577.117,76.63867Q577.967,78.77734,577.967,81.3379Z" fill="#DDDDDD" fill-opacity="1"/></g><path d="M210,62L210,54L211.5,54L211.5,62L210,62ZM210,74L210,66L211.5,66L211.5,74L210,74ZM210,86L210,78L211.5,78L211.5,86L210,86ZM210,98L210,90L211.5,90L211.5,98L210,98ZM210,110L210,102L211.5,102L211.5,110L210,110ZM225.899,118L217.94934,118L217.94934,116.5L225.899,116.5L225.899,118ZM237.8236,118L229.8739,118L229.8739,116.5L237.8236,116.5L237.8236,118ZM249.7482,118L241.7985,118L241.7985,116.5L249.7482,116.5L249.7482,118ZM261.6727,118L253.723,118L253.723,116.5L261.6727,116.5L261.6727,118ZM273.5973,118L265.6476,118L265.6476,116.5L273.5973,116.5L273.5973,118ZM285.5219,118L277.5721,118L277.5721,116.5L285.5219,116.5L285.5219,118ZM297.4464,118L289.49670000000003,118L289.49670000000003,116.5L297.4464,116.5L297.4464,118ZM309.371,118L301.4213,118L301.4213,116.5L309.371,116.5L309.371,118ZM321.296,118L313.346,118L313.346,116.5L321.296,116.5L321.296,118ZM333.22,118L325.27,118L325.27,116.5L333.22,116.5L333.22,118ZM345.145,118L337.195,118L337.195,116.5L345.145,116.5L345.145,118ZM357.06899999999996,118L349.119,118L349.119,116.5L357.06899999999996,116.5L357.06899999999996,118ZM368.994,118L361.044,118L361.044,116.5L368.994,116.5L368.994,118ZM380.918,118L372.969,118L372.969,116.5L380.918,116.5L380.918,118ZM392.84299999999996,118L384.89300000000003,118L384.89300000000003,116.5L392.84299999999996,116.5L392.84299999999996,118ZM404.767,118L396.818,118L396.818,116.5L404.767,116.5L404.767,118ZM416.692,118L408.74199999999996,118L408.74199999999996,116.5L416.692,116.5L416.692,118ZM428.616,118L420.66700000000003,118L420.66700000000003,116.5L428.616,116.5L428.616,118ZM440.541,118L432.591,118L432.591,116.5L440.541,116.5L440.541,118ZM452.46500000000003,118L444.51599999999996,118L444.51599999999996,116.5L452.46500000000003,116.5L452.46500000000003,118ZM464.39,118L456.44,118L456.44,116.5L464.39,116.5L464.39,118ZM476.314,118L468.365,118L468.365,116.5L476.314,116.5L476.314,118ZM488.239,118L480.289,118L480.289,116.5L488.239,116.5L488.239,118ZM500.163,118L492.214,118L492.214,116.5L500.163,116.5L500.163,118ZM512.088,118L504.138,118L504.138,116.5L512.088,116.5L512.088,118ZM524.0129999999999,118L516.063,118L516.063,116.5L524.0129999999999,116.5L524.0129999999999,118ZM535.937,118L527.9870000000001,118L527.9870000000001,116.5L535.937,116.5L535.937,118ZM547.8620000000001,118L539.912,118L539.912,116.5L547.8620000000001,116.5L547.8620000000001,118ZM559.7860000000001,118L551.836,118L551.836,116.5L559.7860000000001,116.5L559.7860000000001,118ZM571.711,118L563.761,118L563.761,116.5L571.711,116.5L571.711,118ZM583.635,118L575.6859999999999,118L575.6859999999999,116.5L583.635,116.5L583.635,118ZM595.56,118L587.61,118L587.61,116.5L595.56,116.5L595.56,118ZM607.4839999999999,118L599.5350000000001,118L599.5350000000001,116.5L607.4839999999999,116.5L607.4839999999999,118ZM619.409,118L611.4590000000001,118L611.4590000000001,116.5L619.409,116.5L619.409,118ZM631.3330000000001,118L623.384,118L623.384,116.5L631.3330000000001,116.5L631.3330000000001,118ZM643.258,118L635.308,118L635.308,116.5L643.258,116.5L643.258,118ZM655.182,118L647.233,118L647.233,116.5L655.182,116.5L655.182,118ZM667.107,118L659.1569999999999,118L659.1569999999999,116.5L667.107,116.5L667.107,118ZM679.031,118L671.082,118L671.082,116.5L679.031,116.5L679.031,118ZM690.956,118L683.006,118L683.006,116.5L690.956,116.5L690.956,118ZM702.88,118L694.931,118L694.931,116.5L702.88,116.5L702.88,118ZM714.8050000000001,118L706.855,118L706.855,116.5L714.8050000000001,116.5L714.8050000000001,118ZM726.73,118L718.78,118L718.78,116.5L726.73,116.5L726.73,118ZM738.654,118L730.704,118L730.704,116.5L738.654,116.5L738.654,118ZM750.579,118L742.629,118L742.629,116.5L750.579,116.5L750.579,118ZM762.503,118L754.553,118L754.553,116.5L762.503,116.5L762.503,118ZM774.428,118L766.478,118L766.478,116.5L774.428,116.5L774.428,118ZM786.352,118L778.403,118L778.403,116.5L786.352,116.5L786.352,118ZM798.277,118L790.327,118L790.327,116.5L798.277,116.5L798.277,118ZM810.201,118L802.252,118L802.252,116.5L810.201,116.5L810.201,118ZM822.126,118L814.176,118L814.176,116.5L822.126,116.5L822.126,118ZM834.05,118L826.101,118L826.101,116.5L834.05,116.5L834.05,118ZM842,102L842,110L840.5,110L840.5,102L842,102ZM842,90L842,98L840.5,98L840.5,90L842,90ZM842,78L842,86L840.5,86L840.5,78L842,78ZM842,66L842,74L840.5,74L840.5,66L842,66ZM842,54L842,62L840.5,62L840.5,54L842,54ZM826.101,46L834.051,46L834.051,47.5L826.101,47.5L826.101,46ZM814.176,46L822.126,46L822.126,47.5L814.176,47.5L814.176,46ZM802.252,46L810.202,46L810.202,47.5L802.252,47.5L802.252,46ZM790.327,46L798.277,46L798.277,47.5L790.327,47.5L790.327,46ZM778.403,46L786.352,46L786.352,47.5L778.403,47.5L778.403,46ZM766.478,46L774.428,46L774.428,47.5L766.478,47.5L766.478,46ZM754.554,46L762.503,46L762.503,47.5L754.554,47.5L754.554,46ZM742.629,46L750.579,46L750.579,47.5L742.629,47.5L742.629,46ZM730.704,46L738.654,46L738.654,47.5L730.704,47.5L730.704,46ZM718.78,46L726.73,46L726.73,47.5L718.78,47.5L718.78,46ZM706.855,46L714.8050000000001,46L714.8050000000001,47.5L706.855,47.5L706.855,46ZM694.931,46L702.881,46L702.881,47.5L694.931,47.5L694.931,46ZM683.006,46L690.956,46L690.956,47.5L683.006,47.5L683.006,46ZM671.082,46L679.031,46L679.031,47.5L671.082,47.5L671.082,46ZM659.1569999999999,46L667.107,46L667.107,47.5L659.1569999999999,47.5L659.1569999999999,46ZM647.233,46L655.182,46L655.182,47.5L647.233,47.5L647.233,46ZM635.308,46L643.258,46L643.258,47.5L635.308,47.5L635.308,46ZM623.384,46L631.3330000000001,46L631.3330000000001,47.5L623.384,47.5L623.384,46ZM611.4590000000001,46L619.409,46L619.409,47.5L611.4590000000001,47.5L611.4590000000001,46ZM599.5350000000001,46L607.4839999999999,46L607.4839999999999,47.5L599.5350000000001,47.5L599.5350000000001,46ZM587.61,46L595.56,46L595.56,47.5L587.61,47.5L587.61,46ZM575.6859999999999,46L583.635,46L583.635,47.5L575.6859999999999,47.5L575.6859999999999,46ZM563.761,46L571.711,46L571.711,47.5L563.761,47.5L563.761,46ZM551.837,46L559.7860000000001,46L559.7860000000001,47.5L551.837,47.5L551.837,46ZM539.912,46L547.8620000000001,46L547.8620000000001,47.5L539.912,47.5L539.912,46ZM527.9870000000001,46L535.937,46L535.937,47.5L527.9870000000001,47.5L527.9870000000001,46ZM516.063,46L524.0129999999999,46L524.0129999999999,47.5L516.063,47.5L516.063,46ZM504.138,46L512.088,46L512.088,47.5L504.138,47.5L504.138,46ZM492.214,46L500.164,46L500.164,47.5L492.214,47.5L492.214,46ZM480.289,46L488.239,46L488.239,47.5L480.289,47.5L480.289,46ZM468.365,46L476.314,46L476.314,47.5L468.365,47.5L468.365,46ZM456.44,46L464.39,46L464.39,47.5L456.44,47.5L456.44,46ZM444.51599999999996,46L452.46500000000003,46L452.46500000000003,47.5L444.51599999999996,47.5L444.51599999999996,46ZM432.591,46L440.541,46L440.541,47.5L432.591,47.5L432.591,46ZM420.66700000000003,46L428.616,46L428.616,47.5L420.66700000000003,47.5L420.66700000000003,46ZM408.74199999999996,46L416.692,46L416.692,47.5L408.74199999999996,47.5L408.74199999999996,46ZM396.818,46L404.767,46L404.767,47.5L396.818,47.5L396.818,46ZM384.89300000000003,46L392.84299999999996,46L392.84299999999996,47.5L384.89300000000003,47.5L384.89300000000003,46ZM372.969,46L380.918,46L380.918,47.5L372.969,47.5L372.969,46ZM361.044,46L368.994,46L368.994,47.5L361.044,47.5L361.044,46ZM349.12,46L357.06899999999996,46L357.06899999999996,47.5L349.12,47.5L349.12,46ZM337.195,46L345.145,46L345.145,47.5L337.195,47.5L337.195,46ZM325.27,46L333.22,46L333.22,47.5L325.27,47.5L325.27,46ZM313.346,46L321.296,46L321.296,47.5L313.346,47.5L313.346,46ZM301.4214,46L309.3711,46L309.3711,47.5L301.4214,47.5L301.4214,46ZM289.4969,46L297.4465,46L297.4465,47.5L289.4969,47.5L289.4969,46ZM277.5723,46L285.522,46L285.522,47.5L277.5723,47.5L277.5723,46ZM265.6478,46L273.59749999999997,46L273.59749999999997,47.5L265.6478,47.5L265.6478,46ZM253.7233,46L261.673,46L261.673,47.5L253.7233,47.5L253.7233,46ZM241.7987,46L249.7484,46L249.7484,47.5L241.7987,47.5L241.7987,46ZM229.8742,46L237.8239,46L237.8239,47.5L229.8742,47.5L229.8742,46ZM217.94969,46L225.8994,46L225.8994,47.5L217.94969,47.5L217.94969,46ZM213.97484,46L213.97484,47.5L211.5,47.5L211.5,50L210,50L210,46L213.97484,46ZM838.026,46L842,46L842,50L840.5,50L840.5,47.5L838.026,47.5L838.026,46ZM842,114L842,118L838.025,118L838.025,116.5L840.5,116.5L840.5,114L842,114ZM213.97449,118L210,118L210,114L211.5,114L211.5,116.5L213.97449,116.5L213.97449,118Z" fill-rule="evenodd" fill="#DDDDDD" fill-opacity="1"/></g><g style="mix-blend-mode:passthrough"><g style="mix-blend-mode:passthrough"></g><path d="M210,116L213.97484,116L213.97484,117.5L210,117.5M217.94969,116L225.8994,116L225.8994,117.5L217.94969,117.5M229.8742,116L237.8239,116L237.8239,117.5L229.8742,117.5M241.7987,116L249.7484,116L249.7484,117.5L241.7987,117.5M253.7233,116L261.673,116L261.673,117.5L253.7233,117.5M265.6478,116L273.59749999999997,116L273.59749999999997,117.5L265.6478,117.5M277.5723,116L285.522,116L285.522,117.5L277.5723,117.5M289.4969,116L297.4465,116L297.4465,117.5L289.4969,117.5M301.4214,116L309.3711,116L309.3711,117.5L301.4214,117.5M313.346,116L321.296,116L321.296,117.5L313.346,117.5M325.27,116L333.22,116L333.22,117.5L325.27,117.5M337.195,116L345.145,116L345.145,117.5L337.195,117.5M349.119,116L357.06899999999996,116L357.06899999999996,117.5L349.119,117.5M361.044,116L368.994,116L368.994,117.5L361.044,117.5M372.969,116L380.918,116L380.918,117.5L372.969,117.5M384.89300000000003,116L392.84299999999996,116L392.84299999999996,117.5L384.89300000000003,117.5M396.818,116L404.767,116L404.767,117.5L396.818,117.5M408.74199999999996,116L416.692,116L416.692,117.5L408.74199999999996,117.5M420.66700000000003,116L428.616,116L428.616,117.5L420.66700000000003,117.5M432.591,116L440.541,116L440.541,117.5L432.591,117.5M444.51599999999996,116L452.46500000000003,116L452.46500000000003,117.5L444.51599999999996,117.5M456.44,116L464.39,116L464.39,117.5L456.44,117.5M468.365,116L476.314,116L476.314,117.5L468.365,117.5M480.289,116L488.239,116L488.239,117.5L480.289,117.5M492.214,116L500.164,116L500.164,117.5L492.214,117.5M504.138,116L512.088,116L512.088,117.5L504.138,117.5M516.063,116L524.0129999999999,116L524.0129999999999,117.5L516.063,117.5M527.9870000000001,116L535.937,116L535.937,117.5L527.9870000000001,117.5M539.912,116L547.8620000000001,116L547.8620000000001,117.5L539.912,117.5M551.836,116L559.7860000000001,116L559.7860000000001,117.5L551.836,117.5M563.761,116L571.711,116L571.711,117.5L563.761,117.5M575.6859999999999,116L583.635,116L583.635,117.5L575.6859999999999,117.5M587.61,116L595.56,116L595.56,117.5L587.61,117.5M599.5350000000001,116L607.4839999999999,116L607.4839999999999,117.5L599.5350000000001,117.5M611.4590000000001,116L619.409,116L619.409,117.5L611.4590000000001,117.5M623.384,116L631.3330000000001,116L631.3330000000001,117.5L623.384,117.5M635.308,116L643.258,116L643.258,117.5L635.308,117.5M647.233,116L655.182,116L655.182,117.5L647.233,117.5M659.1569999999999,116L667.107,116L667.107,117.5L659.1569999999999,117.5M671.082,116L679.031,116L679.031,117.5L671.082,117.5M683.006,116L690.956,116L690.956,117.5L683.006,117.5M694.931,116L702.88,116L702.88,117.5L694.931,117.5M706.855,116L714.8050000000001,116L714.8050000000001,117.5L706.855,117.5M718.78,116L726.73,116L726.73,117.5L718.78,117.5M730.704,116L738.654,116L738.654,117.5L730.704,117.5M742.629,116L750.579,116L750.579,117.5L742.629,117.5M754.553,116L762.503,116L762.503,117.5L754.553,117.5M766.478,116L774.428,116L774.428,117.5L766.478,117.5M778.403,116L786.352,116L786.352,117.5L778.403,117.5M790.327,116L798.277,116L798.277,117.5L790.327,117.5M802.252,116L810.201,116L810.201,117.5L802.252,117.5M814.176,116L822.126,116L822.126,117.5L814.176,117.5M826.101,116L834.05,116L834.05,117.5L826.101,117.5M838.025,116L842,116L842,117.5L838.025,117.5M842,116L842,120L840.5,120L840.5,116M842,124L842,132L840.5,132L840.5,124M842,136L842,144L840.5,144L840.5,136M842,148L842,156L840.5,156L840.5,148M842,160L842,168L840.5,168L840.5,160M842,172L842,180L840.5,180L840.5,172M842,184L842,188L840.5,188L840.5,184M842,188L838.025,188L838.025,186.5L842,186.5M834.05,188L826.101,188L826.101,186.5L834.05,186.5M822.126,188L814.176,188L814.176,186.5L822.126,186.5M810.201,188L802.252,188L802.252,186.5L810.201,186.5M798.277,188L790.327,188L790.327,186.5L798.277,186.5M786.352,188L778.403,188L778.403,186.5L786.352,186.5M774.428,188L766.478,188L766.478,186.5L774.428,186.5M762.503,188L754.553,188L754.553,186.5L762.503,186.5M750.579,188L742.629,188L742.629,186.5L750.579,186.5M738.654,188L730.704,188L730.704,186.5L738.654,186.5M726.73,188L718.78,188L718.78,186.5L726.73,186.5M714.8050000000001,188L706.855,188L706.855,186.5L714.8050000000001,186.5M702.88,188L694.931,188L694.931,186.5L702.88,186.5M690.956,188L683.006,188L683.006,186.5L690.956,186.5M679.031,188L671.082,188L671.082,186.5L679.031,186.5M667.107,188L659.1569999999999,188L659.1569999999999,186.5L667.107,186.5M655.182,188L647.233,188L647.233,186.5L655.182,186.5M643.258,188L635.308,188L635.308,186.5L643.258,186.5M631.3330000000001,188L623.384,188L623.384,186.5L631.3330000000001,186.5M619.409,188L611.4590000000001,188L611.4590000000001,186.5L619.409,186.5M607.4839999999999,188L599.5350000000001,188L599.5350000000001,186.5L607.4839999999999,186.5M595.56,188L587.61,188L587.61,186.5L595.56,186.5M583.635,188L575.6859999999999,188L575.6859999999999,186.5L583.635,186.5M571.711,188L563.761,188L563.761,186.5L571.711,186.5M559.7860000000001,188L551.836,188L551.836,186.5L559.7860000000001,186.5M547.8620000000001,188L539.912,188L539.912,186.5L547.8620000000001,186.5M535.937,188L527.9870000000001,188L527.9870000000001,186.5L535.937,186.5M524.0129999999999,188L516.063,188L516.063,186.5L524.0129999999999,186.5M512.088,188L504.138,188L504.138,186.5L512.088,186.5M500.164,188L492.214,188L492.214,186.5L500.164,186.5M488.239,188L480.289,188L480.289,186.5L488.239,186.5M476.314,188L468.365,188L468.365,186.5L476.314,186.5M464.39,188L456.44,188L456.44,186.5L464.39,186.5M452.46500000000003,188L444.51599999999996,188L444.51599999999996,186.5L452.46500000000003,186.5M440.541,188L432.591,188L432.591,186.5L440.541,186.5M428.616,188L420.66700000000003,188L420.66700000000003,186.5L428.616,186.5M416.692,188L408.74199999999996,188L408.74199999999996,186.5L416.692,186.5M404.767,188L396.818,188L396.818,186.5L404.767,186.5M392.84299999999996,188L384.89300000000003,188L384.89300000000003,186.5L392.84299999999996,186.5M380.918,188L372.969,188L372.969,186.5L380.918,186.5M368.994,188L361.044,188L361.044,186.5L368.994,186.5M357.06899999999996,188L349.12,188L349.12,186.5L357.06899999999996,186.5M345.145,188L337.195,188L337.195,186.5L345.145,186.5M333.22,188L325.27,188L325.27,186.5L333.22,186.5M321.296,188L313.346,188L313.346,186.5L321.296,186.5M309.3711,188L301.4214,188L301.4214,186.5L309.3711,186.5M297.4465,188L289.4968,188L289.4968,186.5L297.4465,186.5M285.522,188L277.5723,188L277.5723,186.5L285.522,186.5M273.59749999999997,188L265.6478,188L265.6478,186.5L273.59749999999997,186.5M261.673,188L253.7233,188L253.7233,186.5L261.673,186.5M249.7484,188L241.7988,188L241.7988,186.5L249.7484,186.5M237.8239,188L229.8742,188L229.8742,186.5L237.8239,186.5M225.8994,188L217.94971,188L217.94971,186.5L225.8994,186.5M213.97485,188L210,188L210,186.5L213.97485,186.5" fill="#DDDDDD" fill-opacity="1"/></g><g style="mix-blend-mode:passthrough"><g style="mix-blend-mode:passthrough"></g><path d="M210,186L213.97484,186L213.97484,187.5L210,187.5M217.94969,186L225.8994,186L225.8994,187.5L217.94969,187.5M229.8742,186L237.8239,186L237.8239,187.5L229.8742,187.5M241.7987,186L249.7484,186L249.7484,187.5L241.7987,187.5M253.7233,186L261.673,186L261.673,187.5L253.7233,187.5M265.6478,186L273.59749999999997,186L273.59749999999997,187.5L265.6478,187.5M277.5723,186L285.522,186L285.522,187.5L277.5723,187.5M289.4969,186L297.4465,186L297.4465,187.5L289.4969,187.5M301.4214,186L309.3711,186L309.3711,187.5L301.4214,187.5M313.346,186L321.296,186L321.296,187.5L313.346,187.5M325.27,186L333.22,186L333.22,187.5L325.27,187.5M337.195,186L345.145,186L345.145,187.5L337.195,187.5M349.119,186L357.06899999999996,186L357.06899999999996,187.5L349.119,187.5M361.044,186L368.994,186L368.994,187.5L361.044,187.5M372.969,186L380.918,186L380.918,187.5L372.969,187.5M384.89300000000003,186L392.84299999999996,186L392.84299999999996,187.5L384.89300000000003,187.5M396.818,186L404.767,186L404.767,187.5L396.818,187.5M408.74199999999996,186L416.692,186L416.692,187.5L408.74199999999996,187.5M420.66700000000003,186L428.616,186L428.616,187.5L420.66700000000003,187.5M432.591,186L440.541,186L440.541,187.5L432.591,187.5M444.51599999999996,186L452.46500000000003,186L452.46500000000003,187.5L444.51599999999996,187.5M456.44,186L464.39,186L464.39,187.5L456.44,187.5M468.365,186L476.314,186L476.314,187.5L468.365,187.5M480.289,186L488.239,186L488.239,187.5L480.289,187.5M492.214,186L500.164,186L500.164,187.5L492.214,187.5M504.138,186L512.088,186L512.088,187.5L504.138,187.5M516.063,186L524.0129999999999,186L524.0129999999999,187.5L516.063,187.5M527.9870000000001,186L535.937,186L535.937,187.5L527.9870000000001,187.5M539.912,186L547.8620000000001,186L547.8620000000001,187.5L539.912,187.5M551.836,186L559.7860000000001,186L559.7860000000001,187.5L551.836,187.5M563.761,186L571.711,186L571.711,187.5L563.761,187.5M575.6859999999999,186L583.635,186L583.635,187.5L575.6859999999999,187.5M587.61,186L595.56,186L595.56,187.5L587.61,187.5M599.5350000000001,186L607.4839999999999,186L607.4839999999999,187.5L599.5350000000001,187.5M611.4590000000001,186L619.409,186L619.409,187.5L611.4590000000001,187.5M623.384,186L631.3330000000001,186L631.3330000000001,187.5L623.384,187.5M635.308,186L643.258,186L643.258,187.5L635.308,187.5M647.233,186L655.182,186L655.182,187.5L647.233,187.5M659.1569999999999,186L667.107,186L667.107,187.5L659.1569999999999,187.5M671.082,186L679.031,186L679.031,187.5L671.082,187.5M683.006,186L690.956,186L690.956,187.5L683.006,187.5M694.931,186L702.88,186L702.88,187.5L694.931,187.5M706.855,186L714.8050000000001,186L714.8050000000001,187.5L706.855,187.5M718.78,186L726.73,186L726.73,187.5L718.78,187.5M730.704,186L738.654,186L738.654,187.5L730.704,187.5M742.629,186L750.579,186L750.579,187.5L742.629,187.5M754.553,186L762.503,186L762.503,187.5L754.553,187.5M766.478,186L774.428,186L774.428,187.5L766.478,187.5M778.403,186L786.352,186L786.352,187.5L778.403,187.5M790.327,186L798.277,186L798.277,187.5L790.327,187.5M802.252,186L810.201,186L810.201,187.5L802.252,187.5M814.176,186L822.126,186L822.126,187.5L814.176,187.5M826.101,186L834.05,186L834.05,187.5L826.101,187.5M838.025,186L842,186L842,187.5L838.025,187.5M842,186L842,190L840.5,190L840.5,186M842,194L842,202L840.5,202L840.5,194M842,206L842,214L840.5,214L840.5,206M842,218L842,226L840.5,226L840.5,218M842,230L842,238L840.5,238L840.5,230M842,242L842,250L840.5,250L840.5,242M842,254L842,258L840.5,258L840.5,254M842,258L838.025,258L838.025,256.5L842,256.5M834.05,258L826.101,258L826.101,256.5L834.05,256.5M822.126,258L814.176,258L814.176,256.5L822.126,256.5M810.201,258L802.252,258L802.252,256.5L810.201,256.5M798.277,258L790.327,258L790.327,256.5L798.277,256.5M786.352,258L778.403,258L778.403,256.5L786.352,256.5M774.428,258L766.478,258L766.478,256.5L774.428,256.5M762.503,258L754.553,258L754.553,256.5L762.503,256.5M750.579,258L742.629,258L742.629,256.5L750.579,256.5M738.654,258L730.704,258L730.704,256.5L738.654,256.5M726.73,258L718.78,258L718.78,256.5L726.73,256.5M714.8050000000001,258L706.855,258L706.855,256.5L714.8050000000001,256.5M702.88,258L694.931,258L694.931,256.5L702.88,256.5M690.956,258L683.006,258L683.006,256.5L690.956,256.5M679.031,258L671.082,258L671.082,256.5L679.031,256.5M667.107,258L659.1569999999999,258L659.1569999999999,256.5L667.107,256.5M655.182,258L647.233,258L647.233,256.5L655.182,256.5M643.258,258L635.308,258L635.308,256.5L643.258,256.5M631.3330000000001,258L623.384,258L623.384,256.5L631.3330000000001,256.5M619.409,258L611.4590000000001,258L611.4590000000001,256.5L619.409,256.5M607.4839999999999,258L599.5350000000001,258L599.5350000000001,256.5L607.4839999999999,256.5M595.56,258L587.61,258L587.61,256.5L595.56,256.5M583.635,258L575.6859999999999,258L575.6859999999999,256.5L583.635,256.5M571.711,258L563.761,258L563.761,256.5L571.711,256.5M559.7860000000001,258L551.836,258L551.836,256.5L559.7860000000001,256.5M547.8620000000001,258L539.912,258L539.912,256.5L547.8620000000001,256.5M535.937,258L527.9870000000001,258L527.9870000000001,256.5L535.937,256.5M524.0129999999999,258L516.063,258L516.063,256.5L524.0129999999999,256.5M512.088,258L504.138,258L504.138,256.5L512.088,256.5M500.164,258L492.214,258L492.214,256.5L500.164,256.5M488.239,258L480.289,258L480.289,256.5L488.239,256.5M476.314,258L468.365,258L468.365,256.5L476.314,256.5M464.39,258L456.44,258L456.44,256.5L464.39,256.5M452.46500000000003,258L444.51599999999996,258L444.51599999999996,256.5L452.46500000000003,256.5M440.541,258L432.591,258L432.591,256.5L440.541,256.5M428.616,258L420.66700000000003,258L420.66700000000003,256.5L428.616,256.5M416.692,258L408.74199999999996,258L408.74199999999996,256.5L416.692,256.5M404.767,258L396.818,258L396.818,256.5L404.767,256.5M392.84299999999996,258L384.89300000000003,258L384.89300000000003,256.5L392.84299999999996,256.5M380.918,258L372.969,258L372.969,256.5L380.918,256.5M368.994,258L361.044,258L361.044,256.5L368.994,256.5M357.06899999999996,258L349.12,258L349.12,256.5L357.06899999999996,256.5M345.145,258L337.195,258L337.195,256.5L345.145,256.5M333.22,258L325.27,258L325.27,256.5L333.22,256.5M321.296,258L313.346,258L313.346,256.5L321.296,256.5M309.3711,258L301.4214,258L301.4214,256.5L309.3711,256.5M297.4465,258L289.4968,258L289.4968,256.5L297.4465,256.5M285.522,258L277.5723,258L277.5723,256.5L285.522,256.5M273.59749999999997,258L265.6478,258L265.6478,256.5L273.59749999999997,256.5M261.673,258L253.7233,258L253.7233,256.5L261.673,256.5M249.7484,258L241.7988,258L241.7988,256.5L249.7484,256.5M237.8239,258L229.8742,258L229.8742,256.5L237.8239,256.5M225.8994,258L217.94971,258L217.94971,256.5L225.8994,256.5M213.97485,258L210,258L210,256.5L213.97485,256.5" fill="#DDDDDD" fill-opacity="1"/></g><g style="mix-blend-mode:passthrough"><g style="mix-blend-mode:passthrough"><path d="M282.34961,213.1582Q281.75781,215.39062,281.125,217.07227L281.125,229.125L279.72461,229.125L279.72461,219.94336Q279.00391,221.332,278.30078,222.375L277.527344,220.8281Q278.57031,219.33984,279.42578,217.25977Q280.28125,215.17969,280.87305,212.85938L282.34961,213.1582ZM292.668,217.40039L292.668,227.49020000000002L294.25,227.49020000000002L294.25,228.75L281.95703,228.75L281.95703,227.49020000000002L283.57422,227.49020000000002L283.57422,217.40039L287.4121,217.40039L287.4121,215.67188L282.8418,215.67188L282.8418,214.42969L287.4121,214.42969L287.4121,212.90039L288.8477,212.90039L288.8477,214.42969L293.7461,214.42969L293.7461,215.67188L288.8477,215.67188L288.8477,217.40039L292.668,217.40039ZM291.2266,219.76172L291.2266,218.625L285.01562,218.625L285.01562,219.76172L291.2266,219.76172ZM285.01562,222.375L291.2266,222.375L291.2266,220.875L285.01562,220.875L285.01562,222.375ZM291.2266,225L291.2266,223.5059L285.01562,223.5059L285.01562,225L291.2266,225ZM291.2266,226.0957L285.01562,226.0957L285.01562,227.49020000000002L291.2266,227.49020000000002L291.2266,226.0957ZM311.4941,215.55469L311.4941,216.32227Q311.4941,218.63672,311.377,221.7363Q311.2598,224.8359,311.1016,226.834Q311.0312,227.7305,310.7793,228.2168Q310.5332,228.7031,310.0645,228.9023Q309.5957,229.10739999999998,308.793,229.14260000000002Q308.6055,229.1602,308.2305,229.1602Q307.9375,229.1602,307.5566,229.14260000000002Q307.1816,229.125,306.9707,229.10739999999998L306.4961,229.0664L306.25,227.5195Q307.5098,227.7363,308.2129,227.7363Q308.7578,227.7363,309.0449,227.6191Q309.3379,227.4961,309.502,227.1562Q309.666,226.8164,309.7363,226.1016Q310,222.9609,310,218.36133L310,216.94336L305.6523,216.94336Q305.0605,218.53711,304.5156,219.74414L303.291,218.87695Q303.9766,217.51172,304.5684,215.82422Q305.1602,214.13672,305.5117,212.625L306.918,212.91211Q306.5488,214.37109,306.1445,215.55469L311.4941,215.55469ZM300.8945,213.01758Q300.6426,214.20703,300.2148,215.71875L302.7988,215.71875L302.7988,228.668L296.5938,228.668L296.5938,215.71875L298.5625,215.71875Q299.0137,214.44141,299.3477,212.74805L300.8945,213.01758ZM298,220.875L301.375,220.875L301.375,217.125L298,217.125L298,220.875ZM307.3516,224.707Q306.7949,223.8105,305.9863,222.6855Q305.1836,221.5547,304.6211,220.8926L305.6699,220.0078Q306.25,220.6934,307.0469,221.7832Q307.8438,222.8672,308.4414,223.7578L307.3516,224.707ZM298,222.2637L298,227.25L301.375,227.25L301.375,222.2637L298,222.2637ZM329.0605,215.70703L329.0605,226.9336Q329.0605,227.8594,328.8555,228.3105Q328.6562,228.76760000000002,328.15229999999997,228.9434Q327.6543,229.125,326.65229999999997,229.125Q325.3223,229.125,324.373,229.0371L324.09770000000003,227.57229999999998Q325.2402,227.7188,326.2129,227.7188Q326.8574,227.7188,327.1387,227.625Q327.4199,227.5254,327.5195,227.2734Q327.625,227.0156,327.625,226.4531L327.625,217.125L322.7676,217.125Q322.7324,218.43164,322.4805,219.49805Q323.4473,220.3477,324.9297,221.7422Q326.4121,223.1367,327.3262,224.0801L326.2363,225.2402Q325.3984,224.3145,324.1914,223.0781Q322.9844,221.8359,321.9941,220.8926Q321.4609,222.0879,320.4531,223.2012Q319.4453,224.3145,317.83979999999997,225.5449L316.8789,224.2793Q318.584,223.0312,319.5215,221.9648Q320.459,220.8926,320.8574,219.76172Q321.2559,218.625,321.291,217.125L316.6855,217.125L316.6855,229.125L315.25,229.125L315.25,215.70703L321.291,215.70703L321.291,212.98828L322.7676,212.98828L322.7676,215.70703L329.0605,215.70703ZM334,216L334,217.99805L332.5996,217.99805L332.5996,214.66992L339.3262,214.66992Q338.91020000000003,213.71484,338.53520000000003,213.01172L339.9238,212.49023Q340.416,213.46289,340.8496,214.66992L347.125,214.66992L347.125,218.0332L345.7012,218.0332L345.7012,216L334,216ZM341.7695,216.63281Q342.7656,217.10156,344.3652,217.92188Q345.97069999999997,218.74219,347.248,219.44531L346.6211,220.623Q345.291,219.87891,343.6738,219.02344Q342.0566,218.16211,341.1016,217.72852L341.7695,216.63281ZM332.6172,219.42773Q333.8359,218.94141,335.2012,218.19141Q336.5723,217.44141,337.7734,216.65039L338.4766,217.76367Q336.02729999999997,219.42773,333.2266,220.6934L332.6172,219.42773ZM347.5762,224.9766Q346.4395,224.543,345.25,223.9688L345.25,229.125L343.832,229.125L343.832,228.5273L335.875,228.5273L335.875,229.125L334.4512,229.125L334.4512,223.9688Q333.1738,224.5781,332.1309,224.9766L331.5742,223.6816Q334.2461,222.7031,336.0918,221.584Q337.9434,220.459,339.2031,219.04688L340.5215,219.04688Q341.8574,220.4941,343.71479999999997,221.6191Q345.5723,222.7383,348.168,223.6641L347.5762,224.9766ZM344.3184,223.5Q341.623,222.0527,339.8711,220.2422Q338.0488,222.0703,335.3711,223.5L344.3184,223.5ZM335.875,224.8125L335.875,227.25L343.832,227.25L343.832,224.8125L335.875,224.8125ZM360.97069999999997,221.3379Q360.97069999999997,218.79492,361.8145,216.64453Q362.6641,214.49414,364.1406,213L365.5938,213Q364.1406,214.76367,363.3555,216.80859Q362.5703,218.85352,362.5703,221.3379Q362.5703,223.8398,363.3555,225.8906Q364.1406,227.9414,365.5938,229.66989999999998L364.1406,229.66989999999998Q362.6641,228.1758,361.8145,226.0371Q360.97069999999997,223.8926,360.97069999999997,221.3379ZM369.8535,216.25781L369.8535,218.8125L368.377,218.8125L368.377,214.875L375.3438,214.875Q374.752,213.63281,374.4824,213.19922L375.9941,212.7832L377.049,214.875L383.371,214.875L383.371,218.83008L381.877,218.83008L381.877,216.25781L369.8535,216.25781ZM383.875,222.8438L383.875,224.25L376.7266,224.25L376.7266,226.7637Q376.7266,227.75979999999998,376.52729999999997,228.252Q376.334,228.75,375.8535,228.9375Q375.3789,229.125,374.4238,229.125Q373.668,229.125,372.1914,228.9785L371.90430000000003,227.5781Q373.1641,227.7539,374.16020000000003,227.7539Q374.6465,227.7539,374.8633,227.6602Q375.0801,227.5605,375.1562,227.2734Q375.2383,226.9805,375.2383,226.3594L375.2383,224.25L367.8379,224.25L367.8379,222.8438L375.2383,222.8438L375.2383,221.666L378.49,219.63281L370.6973,219.63281L370.6973,218.25L381.033,218.25L381.033,219.61523L376.7266,222.2344L376.7266,222.8438L383.875,222.8438ZM397.451,213L397.451,215.17969L401.969,215.17969L401.969,216.63281L397.451,216.63281L397.451,218.52539L395.975,218.52539L395.975,216.63281L391.762,216.63281L391.762,218.52539L390.303,218.52539L390.303,216.63281L385.75,216.63281L385.75,215.17969L390.303,215.17969L390.303,213L391.762,213L391.762,215.17969L395.975,215.17969L395.975,213L397.451,213ZM386.67,220.8164L386.67,219.375L400.223,219.375Q400.205,222.0059,399.953,224.5312Q399.848,225.5977,399.596,226.166Q399.344,226.7344,398.84000000000003,226.9863Q398.336,227.23239999999998,397.43399999999997,227.25Q396.244,227.26760000000002,394.949,227.1387L394.66200000000003,225.6855Q394.826,225.7031,395.51800000000003,225.8027Q396.209,225.8965,396.889,225.8965Q397.445,225.8965,397.744,225.7207Q398.043,225.5449,398.18399999999997,225.1523Q398.33,224.7539,398.418,224.0098Q398.512,223.3066,398.57,222.2754Q398.635,221.2383,398.617,220.8164L392.986,220.8164L392.986,229.125L391.43899999999996,229.125L391.43899999999996,220.8164L386.67,220.8164ZM416.64099999999996,224.7422Q417.88300000000004,226.5586,420.115,228.2871L419.219,229.4941Q417.127,227.8008,415.85,225.9844Q414.678,227.6367,412.592,229.418L411.68899999999996,228.2344Q413.869,226.4707,415.041,224.666Q413.904,222.5156,413.312,219.5332Q413.18399999999997,219.78516,413.06600000000003,219.97852Q412.949,220.166,412.879,220.2891L411.889,219.20508Q412.75,217.81641,413.418,216.16406Q414.086,214.51172,414.426,212.89453L415.779,213.12305Q415.527,214.32422,415.006,215.8418L419.828,215.8418L419.828,217.2832L418.568,217.2832Q418.334,219.73828,417.88300000000004,221.5195Q417.432,223.3008,416.64099999999996,224.7422ZM403.621,220.9277Q404.55899999999997,220.3594,405.414,219.58008Q406.27,218.80078,406.91999999999996,217.91016L404.072,217.91016L404.072,216.72656L407.64099999999996,216.72656L407.64099999999996,213L408.918,213L408.918,216.72656L412.07,216.72656L412.07,217.91016L408.918,217.91016L408.918,218.16211L411.94100000000003,220.2129L411.273,221.209Q410.324,220.418,408.918,219.47461L408.918,221.3145L407.64099999999996,221.3145L407.64099999999996,218.70117Q407.00800000000004,219.63281,406.152,220.4883Q405.297,221.3438,404.324,222L403.621,220.9277ZM405.91200000000003,216.4043Q405.385,215.51953,404.307,214.00781L405.209,213.39844L406.885,215.77148L405.91200000000003,216.4043ZM412.305,214.04297Q411.49,215.23242,410.53499999999997,216.49219L409.60400000000004,215.82422Q410.611,214.49414,411.332,213.41602L412.305,214.04297ZM414.23199999999997,217.72852Q414.502,219.46289,414.865,220.8047Q415.23400000000004,222.1465,415.797,223.3008Q416.35400000000004,222.0938,416.70500000000004,220.6289Q417.062,219.16406,417.256,217.2832L414.426,217.2832L414.23199999999997,217.72852ZM411.115,228.5742Q410.289,228.05270000000002,408.88300000000004,227.332Q407.225,228.4688,404.10699999999997,229.459L403.516,228.2344Q406.129,227.4785,407.553,226.70510000000002Q406.217,226.0898,405.584,225.8203L404.863,225.498Q405.45500000000004,224.543,405.801,223.875L403.75,223.875L403.75,222.709L406.398,222.709Q406.773,221.7715,406.885,221.4492L408.21500000000003,221.8125Q407.998,222.4219,407.875,222.709L411.672,222.709L411.672,223.8223Q410.969,225.4219,409.961,226.4355Q410.793,226.8281,411.801,227.41989999999998L411.115,228.5742ZM406.703,225.0117Q407.025,225.1523,407.96299999999997,225.5332L408.77099999999996,225.873Q409.674,225.1172,410.21299999999997,223.875L407.318,223.875Q406.91999999999996,224.6309,406.703,225.0117ZM437.342,216.75L426.361,216.75L426.16200000000003,219.38086L436.457,219.38086Q436.404,222.668,436.006,226.0605Q435.865,227.3262,435.584,227.9531Q435.30899999999997,228.58010000000002,434.70500000000004,228.8438Q434.102,229.10739999999998,432.91200000000003,229.125L432.174,229.125Q430.66200000000003,229.125,429.602,229.0371L429.31399999999996,227.5898Q430.791,227.7422,432.051,227.7422Q433.076,227.7422,433.52099999999996,227.625Q433.973,227.5078,434.18899999999996,227.11520000000002Q434.406,226.7227,434.53499999999997,225.7734Q434.875,223.3477,434.875,220.875L424.504,220.875L425.119,213.11133L426.631,213.11133L426.467,215.32617L437.342,215.32617L437.342,216.75ZM421.75,223.2012L433.562,223.2012L433.562,224.625L421.75,224.625L421.75,223.2012ZM444.35,213.1582Q443.75800000000004,215.39062,443.125,217.07227L443.125,229.125L441.725,229.125L441.725,219.94336Q441.004,221.332,440.301,222.375L439.527,220.8281Q440.57,219.33984,441.426,217.25977Q442.281,215.17969,442.873,212.85938L444.35,213.1582ZM454.668,217.40039L454.668,227.49020000000002L456.25,227.49020000000002L456.25,228.75L443.957,228.75L443.957,227.49020000000002L445.574,227.49020000000002L445.574,217.40039L449.41200000000003,217.40039L449.41200000000003,215.67188L444.842,215.67188L444.842,214.42969L449.41200000000003,214.42969L449.41200000000003,212.90039L450.848,212.90039L450.848,214.42969L455.746,214.42969L455.746,215.67188L450.848,215.67188L450.848,217.40039L454.668,217.40039ZM453.227,219.76172L453.227,218.625L447.01599999999996,218.625L447.01599999999996,219.76172L453.227,219.76172ZM447.01599999999996,222.375L453.227,222.375L453.227,220.875L447.01599999999996,220.875L447.01599999999996,222.375ZM453.227,225L453.227,223.5059L447.01599999999996,223.5059L447.01599999999996,225L453.227,225ZM453.227,226.0957L447.01599999999996,226.0957L447.01599999999996,227.49020000000002L453.227,227.49020000000002L453.227,226.0957ZM473.494,215.55469L473.494,216.32227Q473.494,218.63672,473.377,221.7363Q473.26,224.8359,473.102,226.834Q473.031,227.7305,472.779,228.2168Q472.533,228.7031,472.06399999999996,228.9023Q471.596,229.10739999999998,470.793,229.14260000000002Q470.605,229.1602,470.23,229.1602Q469.938,229.1602,469.557,229.14260000000002Q469.182,229.125,468.971,229.10739999999998L468.496,229.0664L468.25,227.5195Q469.51,227.7363,470.21299999999997,227.7363Q470.75800000000004,227.7363,471.04499999999996,227.6191Q471.33799999999997,227.4961,471.502,227.1562Q471.666,226.8164,471.736,226.1016Q472,222.9609,472,218.36133L472,216.94336L467.652,216.94336Q467.06100000000004,218.53711,466.51599999999996,219.74414L465.291,218.87695Q465.977,217.51172,466.568,215.82422Q467.15999999999997,214.13672,467.512,212.625L468.918,212.91211Q468.549,214.37109,468.145,215.55469L473.494,215.55469ZM462.895,213.01758Q462.64300000000003,214.20703,462.21500000000003,215.71875L464.799,215.71875L464.799,228.668L458.594,228.668L458.594,215.71875L460.562,215.71875Q461.014,214.44141,461.348,212.74805L462.895,213.01758ZM460,220.875L463.375,220.875L463.375,217.125L460,217.125L460,220.875ZM469.352,224.707Q468.79499999999996,223.8105,467.986,222.6855Q467.18399999999997,221.5547,466.621,220.8926L467.66999999999996,220.0078Q468.25,220.6934,469.047,221.7832Q469.844,222.8672,470.44100000000003,223.7578L469.352,224.707ZM460,222.2637L460,227.25L463.375,227.25L463.375,222.2637L460,222.2637ZM484.475,221.25Q485.576,223.4297,487.31100000000004,224.8184Q489.051,226.2012,492.039,227.2969L491.301,228.7383Q488.078,227.5137,486.115,225.7617Q484.152,224.0039,482.90999999999997,221.25L480.086,221.25L480.086,227.2617L484.586,225.5332L484.639,227.0977L483.918,227.3496Q481.076,228.3398,480.086,228.7559Q479.33000000000004,229.043,478.68,229.4062L477.959,227.8535Q478.305,227.67770000000002,478.475,227.4785Q478.645,227.2793,478.645,227.0273L478.645,221.25L475.76800000000003,221.25L475.76800000000003,219.82617L478.645,219.82617L478.645,212.9707L480.086,212.9707L480.086,219.82617L491.875,219.82617L491.875,221.25L484.475,221.25ZM490.275,214.73438Q488.471,215.84766,486.10400000000004,216.9668Q483.736,218.08008,481.615,218.81836L481.05899999999997,217.45312Q483.127,216.75,485.44100000000003,215.625Q487.756,214.5,489.572,213.3457L490.275,214.73438ZM496.75,219L496.75,220.3711Q496.75,222.498,496.551,223.9922Q496.35699999999997,225.4805,495.93,226.6992Q495.50800000000004,227.9121,494.752,229.248L493.457,228.5273Q494.23,227.1445,494.61699999999996,225.9844Q495.004,224.8242,495.168,223.4355Q495.332,222.041,495.332,219.9082L495.332,214.48242L502.047,214.48242Q501.631,213.54492,501.39599999999996,213.13477L502.855,212.78906Q503.125,213.29297,503.64599999999996,214.48242L509.805,214.48242L509.805,215.75977L506.793,215.75977L506.793,217.75781L509.711,217.75781L509.711,219L506.793,219L506.793,221.625L499.527,221.625L499.527,219L496.75,219ZM499.527,217.75781L499.527,215.75977L496.75,215.75977L496.75,217.75781L499.527,217.75781ZM500.90999999999997,217.75781L505.39300000000003,217.75781L505.39300000000003,215.75977L500.90999999999997,215.75977L500.90999999999997,217.75781ZM500.90999999999997,220.4062L505.39300000000003,220.4062L505.39300000000003,219L500.90999999999997,219L500.90999999999997,220.4062ZM509.553,229.2305Q507.39099999999996,228.8906,505.82,228.4805Q504.256,228.0762,503.014,227.4844Q500.58799999999997,228.5273,496.66200000000003,229.3594L496.08799999999997,228.0586Q499.334,227.5195,501.578,226.6934Q499.99,225.668,498.59000000000003,223.9395L497.529,223.9395L497.529,222.75L508,222.75L508,223.957Q506.582,225.6328,504.473,226.7812Q506.471,227.4844,509.98,227.9004L509.553,229.2305ZM500.172,223.9395Q501.361,225.2871,502.943,226.1367Q504.801,225.2695,506.131,223.9395L500.172,223.9395ZM511.75,219.75L527.91,219.75L527.91,221.3027L511.75,221.3027L511.75,219.75ZM542.5409999999999,224.7715Q543.818,226.7168,546.068,228.2461L545.148,229.5234Q542.975,227.9238,541.75,226.0664Q540.473,227.8828,538.182,229.6113L537.367,228.4102Q539.799,226.6406,540.971,224.7539Q540.361,223.5059,539.969,222.0527Q539.576,220.5996,539.2660000000001,218.71289Q538.8140000000001,219.55664,538.434,220.1133L537.596,219.00586Q538.393,217.76953,538.9200000000001,216.24023Q539.447,214.70508,539.8399999999999,212.78906L541.1700000000001,213.02344Q540.848,214.51172,540.4490000000001,215.75391L545.8340000000001,215.75391L545.8340000000001,217.125L544.375,217.125Q544.105,219.74414,543.6890000000001,221.5312Q543.279,223.3184,542.5409999999999,224.7715ZM537.566,227.6133L529.58,228.80270000000002L529.451,227.4375L529.873,227.3789Q532.023,227.0566,533.102,226.916L533.102,224.25L530.143,224.25L530.143,222.8965L533.102,222.8965L533.102,220.4648L531.982,220.6289L530.16,220.8867L529.855,219.58594Q530.178,219.49219,530.359,219.29297Q531.033,218.52539,532.592,215.37891L529.779,215.37891L529.779,214.03125L537.625,214.03125L537.625,215.37891L534.139,215.37891Q532.609,218.27344,531.877,219.41016L535.744,218.8418Q535.381,217.9043,534.865,216.85547L536.037,216.43945Q536.688,217.82227,537.6949999999999,220.5176L536.5640000000001,221.0332Q536.512,220.8867,536.201,220.0195Q535.164,220.1543,534.52,220.2598L534.52,222.8965L537.367,222.8965L537.367,224.25L534.52,224.25L534.52,226.6992L537.549,226.2656L537.566,227.6133ZM540.256,217.125Q540.49,219.08203,540.8299999999999,220.5703Q541.1759999999999,222.0586,541.732,223.3301Q542.236,222.1523,542.512,220.7461Q542.793,219.33984,543.062,217.125L540.256,217.125ZM553.029,221.3379Q553.029,223.875,552.1800000000001,226.0254Q551.336,228.1758,549.8589999999999,229.66989999999998L548.406,229.66989999999998Q549.8589999999999,227.9062,550.645,225.8672Q551.4300000000001,223.8223,551.4300000000001,221.3379Q551.4300000000001,218.83594,550.645,216.78516Q549.8589999999999,214.72852,548.406,213L549.8589999999999,213Q551.336,214.49414,552.1800000000001,216.63867Q553.029,218.77734,553.029,221.3379Z" fill="#DDDDDD" fill-opacity="1"/></g></g><g style="mix-blend-mode:passthrough"><path d="M842,32L842,37.333330000000004L840.5,37.333330000000004L840.5,32M842,42.6667L842,48L840.5,48L840.5,42.6667M735,48L735,42.6667L736.5,42.6667L736.5,48M735,37.333330000000004L735,32L736.5,32L736.5,37.333330000000004" fill="#DDDDDD" fill-opacity="1"/></g><g style="mix-blend-mode:passthrough"><path d="M790.98438,5.9707L784.5625,5.9707L784.5625,4.5L792.8125,4.5L792.8125,5.54883L787.85547,18L786.08008,18L790.98438,5.9707Z" fill="#DDDDDD" fill-opacity="1"/></g></g></svg>