<svg xmlns="http://www.w3.org/2000/svg" xmlns:xlink="http://www.w3.org/1999/xlink" fill="none" version="1.1" width="667.0000610351562" height="276" viewBox="0 0 667.0000610351562 276"><g style="mix-blend-mode:passthrough"><g style="mix-blend-mode:passthrough"><g style="mix-blend-mode:passthrough"><path d="M81.09967103515625,32.4375Q82.58209103515625,32.4375,83.47858103515625,33.42773Q84.37506103515625,34.418,84.37506103515625,36.2344L84.37506103515625,42L82.75787103515626,42L82.75787103515626,36.6738Q82.75787103515626,35.3438,82.23639103515625,34.6289Q81.71490103515625,33.9082,80.69537103515626,33.9082Q80.03326103515624,33.9082,79.44147103515625,34.2246Q78.85553103515625,34.5352,78.48639103515625,35.1562Q78.11725103515624,35.7773,78.11725103515624,36.6914L78.11725103515624,42L76.50006103515625,42L76.50006103515625,32.625L77.95318103515625,32.625Q77.95318103515625,33.55078,78.04694103515625,34.2129Q78.51568103515625,33.33984,79.31256103515625,32.88867Q80.10944103515625,32.4375,81.09967103515625,32.4375ZM91.50006103515625,37.125L91.50006103515625,35.6543L97.87506103515625,35.6543L97.87506103515625,37.125L91.50006103515625,37.125ZM105.75006103515625,32.47852L105.75006103515625,30.78516L109.51766103515625,28.5L110.74226103515625,28.5L110.74226103515625,42L109.12506103515625,42L109.12506103515625,30.46875L105.75006103515625,32.47852Z" fill="#DDDDDD" fill-opacity="1"/></g><path d="M27.00006103515625,16L27.00006103515625,8L28.50006103515625,8L28.50006103515625,16L27.00006103515625,16ZM27.00006103515625,28L27.00006103515625,20L28.50006103515625,20L28.50006103515625,28L27.00006103515625,28ZM27.00006103515625,40L27.00006103515625,32L28.50006103515625,32L28.50006103515625,40L27.00006103515625,40ZM27.00006103515625,52L27.00006103515625,44L28.50006103515625,44L28.50006103515625,52L27.00006103515625,52ZM27.00006103515625,64L27.00006103515625,56L28.50006103515625,56L28.50006103515625,64L27.00006103515625,64ZM43.363661035156255,72L35.18188103515625,72L35.18188103515625,70.5L43.363661035156255,70.5L43.363661035156255,72ZM55.636461035156245,72L47.454561035156246,72L47.454561035156246,70.5L55.636461035156245,70.5L55.636461035156245,72ZM67.90916103515625,72L59.72736103515625,72L59.72736103515625,70.5L67.90916103515625,70.5L67.90916103515625,72ZM80.18186103515626,72L72.00006103515625,72L72.00006103515625,70.5L80.18186103515626,70.5L80.18186103515626,72ZM92.45456103515625,72L84.27276103515625,72L84.27276103515625,70.5L92.45456103515625,70.5L92.45456103515625,72ZM104.72736103515625,72L96.54556103515625,72L96.54556103515625,70.5L104.72736103515625,70.5L104.72736103515625,72ZM117.00006103515625,72L108.81826103515625,72L108.81826103515625,70.5L117.00006103515625,70.5L117.00006103515625,72ZM129.27306103515625,72L121.09096103515625,72L121.09096103515625,70.5L129.27306103515625,70.5L129.27306103515625,72ZM141.54506103515627,72L133.36406103515625,72L133.36406103515625,70.5L141.54506103515627,70.5L141.54506103515627,72ZM153.81806103515623,72L145.63606103515625,72L145.63606103515625,70.5L153.81806103515623,70.5L153.81806103515623,72ZM162.00006103515625,56L162.00006103515625,64L160.50006103515625,64L160.50006103515625,56L162.00006103515625,56ZM162.00006103515625,44L162.00006103515625,52L160.50006103515625,52L160.50006103515625,44L162.00006103515625,44ZM162.00006103515625,32L162.00006103515625,40L160.50006103515625,40L160.50006103515625,32L162.00006103515625,32ZM162.00006103515625,20L162.00006103515625,28L160.50006103515625,28L160.50006103515625,20L162.00006103515625,20ZM162.00006103515625,8L162.00006103515625,16L160.50006103515625,16L160.50006103515625,8L162.00006103515625,8ZM145.63606103515625,0L153.81806103515623,0L153.81806103515623,1.5L145.63606103515625,1.5L145.63606103515625,0ZM133.36406103515625,0L141.54506103515627,0L141.54506103515627,1.5L133.36406103515625,1.5L133.36406103515625,0ZM121.09096103515625,0L129.27306103515625,0L129.27306103515625,1.5L121.09096103515625,1.5L121.09096103515625,0ZM108.81826103515625,0L117.00006103515625,0L117.00006103515625,1.5L108.81826103515625,1.5L108.81826103515625,0ZM96.54556103515625,0L104.72736103515625,0L104.72736103515625,1.5L96.54556103515625,1.5L96.54556103515625,0ZM84.27276103515625,0L92.45456103515625,0L92.45456103515625,1.5L84.27276103515625,1.5L84.27276103515625,0ZM72.00006103515625,0L80.18186103515626,0L80.18186103515626,1.5L72.00006103515625,1.5L72.00006103515625,0ZM59.72736103515625,0L67.90916103515625,0L67.90916103515625,1.5L59.72736103515625,1.5L59.72736103515625,0ZM47.454561035156246,0L55.636461035156245,0L55.636461035156245,1.5L47.454561035156246,1.5L47.454561035156246,0ZM35.18188103515625,0L43.363661035156255,0L43.363661035156255,1.5L35.18188103515625,1.5L35.18188103515625,0ZM31.09097103515625,0L31.09097103515625,1.5L28.50006103515625,1.5L28.50006103515625,4L27.00006103515625,4L27.00006103515625,0L31.09097103515625,0ZM157.90906103515624,0L162.00006103515625,0L162.00006103515625,4L160.50006103515625,4L160.50006103515625,1.5L157.90906103515624,1.5L157.90906103515624,0ZM162.00006103515625,68L162.00006103515625,72L157.90906103515624,72L157.90906103515624,70.5L160.50006103515625,70.5L160.50006103515625,68L162.00006103515625,68ZM31.09097103515625,72L27.00006103515625,72L27.00006103515625,68L28.50006103515625,68L28.50006103515625,70.5L31.09097103515625,70.5L31.09097103515625,72Z" fill-rule="evenodd" fill="#DDDDDD" fill-opacity="1"/></g><g style="mix-blend-mode:passthrough"><g style="mix-blend-mode:passthrough"><path d="M242.99420103515624,42.1875Q242.60748103515624,42.1875,242.33209103515625,41.8535Q242.06256103515625,41.5137,242.06256103515625,41.0684Q242.06256103515625,40.5938,242.33209103515625,40.2656Q242.60748103515624,39.9375,242.99420103515624,39.9375Q243.39264103515626,39.9375,243.66217103515626,40.2656Q243.93756103515625,40.5938,243.93756103515625,41.0684Q243.93756103515625,41.5312,243.66217103515626,41.8594Q243.39264103515626,42.1875,242.99420103515624,42.1875ZM248.99420103515624,42.1875Q248.60748103515624,42.1875,248.33209103515625,41.8535Q248.06256103515625,41.5137,248.06256103515625,41.0684Q248.06256103515625,40.5938,248.33209103515625,40.2656Q248.60748103515624,39.9375,248.99420103515624,39.9375Q249.39264103515626,39.9375,249.66217103515626,40.2656Q249.93756103515625,40.5938,249.93756103515625,41.0684Q249.93756103515625,41.5312,249.66217103515626,41.8594Q249.39264103515626,42.1875,248.99420103515624,42.1875ZM254.99416103515625,42.1875Q254.60746103515626,42.1875,254.33206103515624,41.8535Q254.06256103515625,41.5137,254.06256103515625,41.0684Q254.06256103515625,40.5938,254.33206103515624,40.2656Q254.60746103515626,39.9375,254.99416103515625,39.9375Q255.39266103515624,39.9375,255.66216103515626,40.2656Q255.93756103515625,40.5938,255.93756103515625,41.0684Q255.93756103515625,41.5312,255.66216103515626,41.8594Q255.39266103515624,42.1875,254.99416103515625,42.1875Z" fill="#DDDDDD" fill-opacity="1"/></g><path d="M161.00006103515625,16L161.00006103515625,8L162.50006103515625,8L162.50006103515625,16L161.00006103515625,16ZM161.00006103515625,28L161.00006103515625,20L162.50006103515625,20L162.50006103515625,28L161.00006103515625,28ZM161.00006103515625,40L161.00006103515625,32L162.50006103515625,32L162.50006103515625,40L161.00006103515625,40ZM161.00006103515625,52L161.00006103515625,44L162.50006103515625,44L162.50006103515625,52L161.00006103515625,52ZM161.00006103515625,64L161.00006103515625,56L162.50006103515625,56L162.50006103515625,64L161.00006103515625,64ZM176.64446103515624,72L168.82228103515624,72L168.82228103515624,70.5L176.64446103515624,70.5L176.64446103515624,72ZM188.37786103515626,72L180.55566103515625,72L180.55566103515625,70.5L188.37786103515626,70.5L188.37786103515626,72ZM200.11116103515624,72L192.28896103515626,72L192.28896103515626,70.5L200.11116103515624,70.5L200.11116103515624,72ZM211.84456103515623,72L204.02226103515625,72L204.02226103515625,70.5L211.84456103515623,70.5L211.84456103515623,72ZM223.57786103515625,72L215.75566103515627,72L215.75566103515627,70.5L223.57786103515625,70.5L223.57786103515625,72ZM235.31116103515626,72L227.48896103515625,72L227.48896103515625,70.5L235.31116103515626,70.5L235.31116103515626,72ZM247.04446103515625,72L239.22226103515624,72L239.22226103515624,70.5L247.04446103515625,70.5L247.04446103515625,72ZM258.77786103515626,72L250.95566103515625,72L250.95566103515625,70.5L258.77786103515626,70.5L258.77786103515626,72ZM270.5110610351562,72L262.6890610351562,72L262.6890610351562,70.5L270.5110610351562,70.5L270.5110610351562,72ZM282.2440610351563,72L274.4220610351563,72L274.4220610351563,70.5L282.2440610351563,70.5L282.2440610351563,72ZM293.97806103515626,72L286.15606103515626,72L286.15606103515626,70.5L293.97806103515626,70.5L293.97806103515626,72ZM305.71106103515626,72L297.88906103515626,72L297.88906103515626,70.5L305.71106103515626,70.5L305.71106103515626,72ZM317.4440610351562,72L309.62206103515626,72L309.62206103515626,70.5L317.4440610351562,70.5L317.4440610351562,72ZM329.17806103515625,72L321.35606103515624,72L321.35606103515624,70.5L329.17806103515625,70.5L329.17806103515625,72ZM337.00006103515625,56L337.00006103515625,64L335.50006103515625,64L335.50006103515625,56L337.00006103515625,56ZM337.00006103515625,44L337.00006103515625,52L335.50006103515625,52L335.50006103515625,44L337.00006103515625,44ZM337.00006103515625,32L337.00006103515625,40L335.50006103515625,40L335.50006103515625,32L337.00006103515625,32ZM337.00006103515625,20L337.00006103515625,28L335.50006103515625,28L335.50006103515625,20L337.00006103515625,20ZM337.00006103515625,8L337.00006103515625,16L335.50006103515625,16L335.50006103515625,8L337.00006103515625,8ZM321.35606103515624,0L329.17806103515625,0L329.17806103515625,1.5L321.35606103515624,1.5L321.35606103515624,0ZM309.62206103515626,0L317.4440610351562,0L317.4440610351562,1.5L309.62206103515626,1.5L309.62206103515626,0ZM297.88906103515626,0L305.71106103515626,0L305.71106103515626,1.5L297.88906103515626,1.5L297.88906103515626,0ZM286.15606103515626,0L293.97806103515626,0L293.97806103515626,1.5L286.15606103515626,1.5L286.15606103515626,0ZM274.4220610351563,0L282.2440610351563,0L282.2440610351563,1.5L274.4220610351563,1.5L274.4220610351563,0ZM262.6890610351562,0L270.5110610351562,0L270.5110610351562,1.5L262.6890610351562,1.5L262.6890610351562,0ZM250.95566103515625,0L258.77786103515626,0L258.77786103515626,1.5L250.95566103515625,1.5L250.95566103515625,0ZM239.22226103515624,0L247.04446103515625,0L247.04446103515625,1.5L239.22226103515624,1.5L239.22226103515624,0ZM227.48896103515625,0L235.31116103515626,0L235.31116103515626,1.5L227.48896103515625,1.5L227.48896103515625,0ZM215.75566103515627,0L223.57786103515625,0L223.57786103515625,1.5L215.75566103515627,1.5L215.75566103515627,0ZM204.02226103515625,0L211.84446103515626,0L211.84446103515626,1.5L204.02226103515625,1.5L204.02226103515625,0ZM192.28896103515626,0L200.11116103515624,0L200.11116103515624,1.5L192.28896103515626,1.5L192.28896103515626,0ZM180.55566103515625,0L188.37786103515626,0L188.37786103515626,1.5L180.55566103515625,1.5L180.55566103515625,0ZM168.82228103515624,0L176.64446103515624,0L176.64446103515624,1.5L168.82228103515624,1.5L168.82228103515624,0ZM164.91117103515626,0L164.91117103515626,1.5L162.50006103515625,1.5L162.50006103515625,4L161.00006103515625,4L161.00006103515625,0L164.91117103515626,0ZM333.08906103515625,0L337.00006103515625,0L337.00006103515625,4L335.50006103515625,4L335.50006103515625,1.5L333.08906103515625,1.5L333.08906103515625,0ZM337.00006103515625,68L337.00006103515625,72L333.08906103515625,72L333.08906103515625,70.5L335.50006103515625,70.5L335.50006103515625,68L337.00006103515625,68ZM164.91116103515625,72L161.00006103515625,72L161.00006103515625,68L162.50006103515625,68L162.50006103515625,70.5L164.91116103515625,70.5L164.91116103515625,72Z" fill-rule="evenodd" fill="#DDDDDD" fill-opacity="1"/></g><g style="mix-blend-mode:passthrough"><g style="mix-blend-mode:passthrough"><path d="M390.47467103515623,102.4375Q391.9570910351562,102.4375,392.85358103515625,103.42773Q393.75006103515625,104.418,393.75006103515625,106.2344L393.75006103515625,112L392.13287103515626,112L392.13287103515626,106.6738Q392.13287103515626,105.3438,391.61139103515626,104.6289Q391.08990103515623,103.9082,390.07037103515626,103.9082Q389.4082610351563,103.9082,388.81647103515627,104.2246Q388.2305310351563,104.5352,387.86139103515626,105.1562Q387.49225103515624,105.7773,387.49225103515624,106.6914L387.49225103515624,112L385.87506103515625,112L385.87506103515625,102.625L387.32818103515626,102.625Q387.32818103515626,103.55078,387.42194103515624,104.2129Q387.89068103515626,103.33984,388.68756103515625,102.88867Q389.48444103515624,102.4375,390.47467103515623,102.4375ZM400.87506103515625,107.125L400.87506103515625,105.6543L407.25006103515625,105.6543L407.25006103515625,107.125L400.87506103515625,107.125ZM421.12506103515625,98.125L422.7422610351563,98.125L422.7422610351563,112L421.28916103515627,112Q421.28916103515627,111.0391,421.1953610351562,110.377Q420.69146103515624,111.291,419.85946103515624,111.7422Q419.0332610351563,112.1875,418.10166103515627,112.1875Q417.0293610351562,112.1875,416.08596103515623,111.6133Q415.14846103515623,111.0391,414.57426103515627,109.9316Q414.00006103515625,108.8242,414.00006103515625,107.3125Q414.00006103515625,105.8184,414.57426103515627,104.7109Q415.14846103515623,103.60352,416.08596103515623,103.02344Q417.0293610351562,102.4375,418.10166103515627,102.4375Q418.9922610351563,102.4375,419.80086103515623,102.85938Q420.60946103515624,103.27539,421.12506103515625,104.1074L421.12506103515625,98.125ZM418.29496103515623,110.7168Q419.44926103515627,110.7168,420.28716103515626,109.8965Q421.12506103515625,109.0703,421.12506103515625,107.3008Q421.12506103515625,105.5488,420.28716103515626,104.7285Q419.44926103515627,103.9082,418.29496103515623,103.9082Q417.08206103515624,103.9082,416.34966103515626,104.8047Q415.6172610351563,105.6953,415.6172610351563,107.3008Q415.6172610351563,108.9238,416.34966103515626,109.8203Q417.08206103515624,110.7168,418.29496103515623,110.7168ZM430.12506103515625,107.125L430.12506103515625,105.6543L436.50006103515625,105.6543L436.50006103515625,107.125L430.12506103515625,107.125ZM444.37506103515625,102.47852L444.37506103515625,100.78516L448.14266103515627,98.5L449.3672610351563,98.5L449.3672610351563,112L447.75006103515625,112L447.75006103515625,100.46875L444.37506103515625,102.47852Z" fill="#DDDDDD" fill-opacity="1"/></g><path d="M336.00006103515625,86L336.00006103515625,78L337.50006103515625,78L337.50006103515625,86L336.00006103515625,86ZM336.00006103515625,98L336.00006103515625,90L337.50006103515625,90L337.50006103515625,98L336.00006103515625,98ZM336.00006103515625,110L336.00006103515625,102L337.50006103515625,102L337.50006103515625,110L336.00006103515625,110ZM336.00006103515625,122L336.00006103515625,114L337.50006103515625,114L337.50006103515625,122L336.00006103515625,122ZM336.00006103515625,134L336.00006103515625,126L337.50006103515625,126L337.50006103515625,134L336.00006103515625,134ZM351.71436103515623,142L343.85719103515623,142L343.85719103515623,140.5L351.71436103515623,140.5L351.71436103515623,142ZM363.50006103515625,142L355.64296103515625,142L355.64296103515625,140.5L363.50006103515625,140.5L363.50006103515625,142ZM375.28576103515627,142L367.42866103515627,142L367.42866103515627,140.5L375.28576103515627,140.5L375.28576103515627,142ZM387.07146103515623,142L379.21436103515623,142L379.21436103515623,140.5L387.07146103515623,140.5L387.07146103515623,142ZM398.85716103515625,142L391.00006103515625,142L391.00006103515625,140.5L398.85716103515625,140.5L398.85716103515625,142ZM410.64296103515625,142L402.78576103515627,142L402.78576103515627,140.5L410.64296103515625,140.5L410.64296103515625,142ZM422.42866103515627,142L414.57146103515623,142L414.57146103515623,140.5L422.42866103515627,140.5L422.42866103515627,142ZM434.21436103515623,142L426.35716103515625,142L426.35716103515625,140.5L434.21436103515623,140.5L434.21436103515623,142ZM446.00006103515625,142L438.1430610351563,142L438.1430610351563,140.5L446.00006103515625,140.5L446.00006103515625,142ZM457.78606103515625,142L449.9290610351562,142L449.9290610351562,140.5L457.78606103515625,140.5L457.78606103515625,142ZM469.5710610351563,142L461.71406103515625,142L461.71406103515625,140.5L469.5710610351563,140.5L469.5710610351563,142ZM481.3570610351562,142L473.50006103515625,142L473.50006103515625,140.5L481.3570610351562,140.5L481.3570610351562,142ZM493.1430610351563,142L485.28606103515625,142L485.28606103515625,140.5L493.1430610351563,140.5L493.1430610351563,142ZM501.00006103515625,126L501.00006103515625,134L499.50006103515625,134L499.50006103515625,126L501.00006103515625,126ZM501.00006103515625,114L501.00006103515625,122L499.50006103515625,122L499.50006103515625,114L501.00006103515625,114ZM501.00006103515625,102L501.00006103515625,110L499.50006103515625,110L499.50006103515625,102L501.00006103515625,102ZM501.00006103515625,90L501.00006103515625,98L499.50006103515625,98L499.50006103515625,90L501.00006103515625,90ZM501.00006103515625,78L501.00006103515625,86L499.50006103515625,86L499.50006103515625,78L501.00006103515625,78ZM485.28606103515625,70L493.1430610351563,70L493.1430610351563,71.5L485.28606103515625,71.5L485.28606103515625,70ZM473.50006103515625,70L481.3570610351562,70L481.3570610351562,71.5L473.50006103515625,71.5L473.50006103515625,70ZM461.71406103515625,70L469.5710610351563,70L469.5710610351563,71.5L461.71406103515625,71.5L461.71406103515625,70ZM449.9290610351562,70L457.78606103515625,70L457.78606103515625,71.5L449.9290610351562,71.5L449.9290610351562,70ZM438.1430610351563,70L446.00006103515625,70L446.00006103515625,71.5L438.1430610351563,71.5L438.1430610351563,70ZM426.35716103515625,70L434.21436103515623,70L434.21436103515623,71.5L426.35716103515625,71.5L426.35716103515625,70ZM414.57146103515623,70L422.42866103515627,70L422.42866103515627,71.5L414.57146103515623,71.5L414.57146103515623,70ZM402.78576103515627,70L410.64296103515625,70L410.64296103515625,71.5L402.78576103515627,71.5L402.78576103515627,70ZM391.00006103515625,70L398.85716103515625,70L398.85716103515625,71.5L391.00006103515625,71.5L391.00006103515625,70ZM379.21436103515623,70L387.07146103515623,70L387.07146103515623,71.5L379.21436103515623,71.5L379.21436103515623,70ZM367.42866103515627,70L375.28576103515627,70L375.28576103515627,71.5L367.42866103515627,71.5L367.42866103515627,70ZM355.64296103515625,70L363.50006103515625,70L363.50006103515625,71.5L355.64296103515625,71.5L355.64296103515625,70ZM343.85720103515627,70L351.71436103515623,70L351.71436103515623,71.5L343.85720103515627,71.5L343.85720103515627,70ZM339.92863103515623,70L339.92863103515623,71.5L337.50006103515625,71.5L337.50006103515625,74L336.00006103515625,74L336.00006103515625,70L339.92863103515623,70ZM497.0710610351563,70L501.00006103515625,70L501.00006103515625,74L499.50006103515625,74L499.50006103515625,71.5L497.0710610351563,71.5L497.0710610351563,70ZM501.00006103515625,138L501.00006103515625,142L497.0710610351563,142L497.0710610351563,140.5L499.50006103515625,140.5L499.50006103515625,138L501.00006103515625,138ZM339.92862103515625,142L336.00006103515625,142L336.00006103515625,138L337.50006103515625,138L337.50006103515625,140.5L339.92862103515625,140.5L339.92862103515625,142Z" fill-rule="evenodd" fill="#DDDDDD" fill-opacity="1"/></g><g style="mix-blend-mode:passthrough"><g style="mix-blend-mode:passthrough"><path d="M98.81256103515625,105.2734Q98.81256103515625,108.6836,97.69342103515625,110.4355Q96.58014103515625,112.1875,94.49420103515625,112.1875Q92.41998103515625,112.1875,91.30084103515625,110.4297Q90.18756103515625,108.666,90.18756103515625,105.2734Q90.18756103515625,101.85742,91.30084103515625,100.08789Q92.41998103515625,98.3125,94.49420103515625,98.3125Q96.58014103515625,98.3125,97.69342103515625,100.07617Q98.81256103515625,101.83984,98.81256103515625,105.2734ZM91.80475103515624,105.2793Q91.80475103515624,108.0273,92.45514103515625,109.375Q93.11139103515625,110.7168,94.49420103515625,110.7168Q95.87115103515625,110.7168,96.53326103515624,109.3809Q97.19537103515626,108.0449,97.19537103515626,105.2793Q97.19537103515626,102.49609,96.53326103515624,101.14258Q95.87115103515625,99.7832,94.49420103515625,99.7832Q93.11139103515625,99.7832,92.45514103515625,101.14258Q91.80475103515624,102.49609,91.80475103515624,105.2793Z" fill="#DDDDDD" fill-opacity="1"/></g><path d="M27.00006103515625,86L27.00006103515625,78L28.50006103515625,78L28.50006103515625,86L27.00006103515625,86ZM27.00006103515625,98L27.00006103515625,90L28.50006103515625,90L28.50006103515625,98L27.00006103515625,98ZM27.00006103515625,110L27.00006103515625,102L28.50006103515625,102L28.50006103515625,110L27.00006103515625,110ZM27.00006103515625,122L27.00006103515625,114L28.50006103515625,114L28.50006103515625,122L27.00006103515625,122ZM27.00006103515625,134L27.00006103515625,126L28.50006103515625,126L28.50006103515625,134L27.00006103515625,134ZM43.363661035156255,142L35.18188103515625,142L35.18188103515625,140.5L43.363661035156255,140.5L43.363661035156255,142ZM55.636461035156245,142L47.454561035156246,142L47.454561035156246,140.5L55.636461035156245,140.5L55.636461035156245,142ZM67.90916103515625,142L59.72736103515625,142L59.72736103515625,140.5L67.90916103515625,140.5L67.90916103515625,142ZM80.18186103515626,142L72.00006103515625,142L72.00006103515625,140.5L80.18186103515626,140.5L80.18186103515626,142ZM92.45456103515625,142L84.27276103515625,142L84.27276103515625,140.5L92.45456103515625,140.5L92.45456103515625,142ZM104.72736103515625,142L96.54556103515625,142L96.54556103515625,140.5L104.72736103515625,140.5L104.72736103515625,142ZM117.00006103515625,142L108.81826103515625,142L108.81826103515625,140.5L117.00006103515625,140.5L117.00006103515625,142ZM129.27306103515625,142L121.09096103515625,142L121.09096103515625,140.5L129.27306103515625,140.5L129.27306103515625,142ZM141.54506103515627,142L133.36406103515625,142L133.36406103515625,140.5L141.54506103515627,140.5L141.54506103515627,142ZM153.81806103515623,142L145.63606103515625,142L145.63606103515625,140.5L153.81806103515623,140.5L153.81806103515623,142ZM162.00006103515625,126L162.00006103515625,134L160.50006103515625,134L160.50006103515625,126L162.00006103515625,126ZM162.00006103515625,114L162.00006103515625,122L160.50006103515625,122L160.50006103515625,114L162.00006103515625,114ZM162.00006103515625,102L162.00006103515625,110L160.50006103515625,110L160.50006103515625,102L162.00006103515625,102ZM162.00006103515625,90L162.00006103515625,98L160.50006103515625,98L160.50006103515625,90L162.00006103515625,90ZM162.00006103515625,78L162.00006103515625,86L160.50006103515625,86L160.50006103515625,78L162.00006103515625,78ZM145.63606103515625,70L153.81806103515623,70L153.81806103515623,71.5L145.63606103515625,71.5L145.63606103515625,70ZM133.36406103515625,70L141.54506103515627,70L141.54506103515627,71.5L133.36406103515625,71.5L133.36406103515625,70ZM121.09096103515625,70L129.27306103515625,70L129.27306103515625,71.5L121.09096103515625,71.5L121.09096103515625,70ZM108.81826103515625,70L117.00006103515625,70L117.00006103515625,71.5L108.81826103515625,71.5L108.81826103515625,70ZM96.54556103515625,70L104.72736103515625,70L104.72736103515625,71.5L96.54556103515625,71.5L96.54556103515625,70ZM84.27276103515625,70L92.45456103515625,70L92.45456103515625,71.5L84.27276103515625,71.5L84.27276103515625,70ZM72.00006103515625,70L80.18186103515626,70L80.18186103515626,71.5L72.00006103515625,71.5L72.00006103515625,70ZM59.72736103515625,70L67.90916103515625,70L67.90916103515625,71.5L59.72736103515625,71.5L59.72736103515625,70ZM47.454561035156246,70L55.636461035156245,70L55.636461035156245,71.5L47.454561035156246,71.5L47.454561035156246,70ZM35.18188103515625,70L43.363661035156255,70L43.363661035156255,71.5L35.18188103515625,71.5L35.18188103515625,70ZM31.09097103515625,70L31.09097103515625,71.5L28.50006103515625,71.5L28.50006103515625,74L27.00006103515625,74L27.00006103515625,70L31.09097103515625,70ZM157.90906103515624,70L162.00006103515625,70L162.00006103515625,74L160.50006103515625,74L160.50006103515625,71.5L157.90906103515624,71.5L157.90906103515624,70ZM162.00006103515625,138L162.00006103515625,142L157.90906103515624,142L157.90906103515624,140.5L160.50006103515625,140.5L160.50006103515625,138L162.00006103515625,138ZM31.09097103515625,142L27.00006103515625,142L27.00006103515625,138L28.50006103515625,138L28.50006103515625,140.5L31.09097103515625,140.5L31.09097103515625,142Z" fill-rule="evenodd" fill="#DDDDDD" fill-opacity="1"/></g><g style="mix-blend-mode:passthrough"><g style="mix-blend-mode:passthrough"><path d="M242.99420103515624,112.1875Q242.60748103515624,112.1875,242.33209103515625,111.8535Q242.06256103515625,111.5137,242.06256103515625,111.0684Q242.06256103515625,110.5938,242.33209103515625,110.2656Q242.60748103515624,109.9375,242.99420103515624,109.9375Q243.39264103515626,109.9375,243.66217103515626,110.2656Q243.93756103515625,110.5938,243.93756103515625,111.0684Q243.93756103515625,111.5312,243.66217103515626,111.8594Q243.39264103515626,112.1875,242.99420103515624,112.1875ZM248.99420103515624,112.1875Q248.60748103515624,112.1875,248.33209103515625,111.8535Q248.06256103515625,111.5137,248.06256103515625,111.0684Q248.06256103515625,110.5938,248.33209103515625,110.2656Q248.60748103515624,109.9375,248.99420103515624,109.9375Q249.39264103515626,109.9375,249.66217103515626,110.2656Q249.93756103515625,110.5938,249.93756103515625,111.0684Q249.93756103515625,111.5312,249.66217103515626,111.8594Q249.39264103515626,112.1875,248.99420103515624,112.1875ZM254.99416103515625,112.1875Q254.60746103515626,112.1875,254.33206103515624,111.8535Q254.06256103515625,111.5137,254.06256103515625,111.0684Q254.06256103515625,110.5938,254.33206103515624,110.2656Q254.60746103515626,109.9375,254.99416103515625,109.9375Q255.39266103515624,109.9375,255.66216103515626,110.2656Q255.93756103515625,110.5938,255.93756103515625,111.0684Q255.93756103515625,111.5312,255.66216103515626,111.8594Q255.39266103515624,112.1875,254.99416103515625,112.1875Z" fill="#DDDDDD" fill-opacity="1"/></g><path d="M161.00006103515625,86L161.00006103515625,78L162.50006103515625,78L162.50006103515625,86L161.00006103515625,86ZM161.00006103515625,98L161.00006103515625,90L162.50006103515625,90L162.50006103515625,98L161.00006103515625,98ZM161.00006103515625,110L161.00006103515625,102L162.50006103515625,102L162.50006103515625,110L161.00006103515625,110ZM161.00006103515625,122L161.00006103515625,114L162.50006103515625,114L162.50006103515625,122L161.00006103515625,122ZM161.00006103515625,134L161.00006103515625,126L162.50006103515625,126L162.50006103515625,134L161.00006103515625,134ZM176.64446103515624,142L168.82228103515624,142L168.82228103515624,140.5L176.64446103515624,140.5L176.64446103515624,142ZM188.37786103515626,142L180.55566103515625,142L180.55566103515625,140.5L188.37786103515626,140.5L188.37786103515626,142ZM200.11116103515624,142L192.28896103515626,142L192.28896103515626,140.5L200.11116103515624,140.5L200.11116103515624,142ZM211.84456103515623,142L204.02226103515625,142L204.02226103515625,140.5L211.84456103515623,140.5L211.84456103515623,142ZM223.57786103515625,142L215.75566103515627,142L215.75566103515627,140.5L223.57786103515625,140.5L223.57786103515625,142ZM235.31116103515626,142L227.48896103515625,142L227.48896103515625,140.5L235.31116103515626,140.5L235.31116103515626,142ZM247.04446103515625,142L239.22226103515624,142L239.22226103515624,140.5L247.04446103515625,140.5L247.04446103515625,142ZM258.77786103515626,142L250.95566103515625,142L250.95566103515625,140.5L258.77786103515626,140.5L258.77786103515626,142ZM270.5110610351562,142L262.6890610351562,142L262.6890610351562,140.5L270.5110610351562,140.5L270.5110610351562,142ZM282.2440610351563,142L274.4220610351563,142L274.4220610351563,140.5L282.2440610351563,140.5L282.2440610351563,142ZM293.97806103515626,142L286.15606103515626,142L286.15606103515626,140.5L293.97806103515626,140.5L293.97806103515626,142ZM305.71106103515626,142L297.88906103515626,142L297.88906103515626,140.5L305.71106103515626,140.5L305.71106103515626,142ZM317.4440610351562,142L309.62206103515626,142L309.62206103515626,140.5L317.4440610351562,140.5L317.4440610351562,142ZM329.17806103515625,142L321.35606103515624,142L321.35606103515624,140.5L329.17806103515625,140.5L329.17806103515625,142ZM337.00006103515625,126L337.00006103515625,134L335.50006103515625,134L335.50006103515625,126L337.00006103515625,126ZM337.00006103515625,114L337.00006103515625,122L335.50006103515625,122L335.50006103515625,114L337.00006103515625,114ZM337.00006103515625,102L337.00006103515625,110L335.50006103515625,110L335.50006103515625,102L337.00006103515625,102ZM337.00006103515625,90L337.00006103515625,98L335.50006103515625,98L335.50006103515625,90L337.00006103515625,90ZM337.00006103515625,78L337.00006103515625,86L335.50006103515625,86L335.50006103515625,78L337.00006103515625,78ZM321.35606103515624,70L329.17806103515625,70L329.17806103515625,71.5L321.35606103515624,71.5L321.35606103515624,70ZM309.62206103515626,70L317.4440610351562,70L317.4440610351562,71.5L309.62206103515626,71.5L309.62206103515626,70ZM297.88906103515626,70L305.71106103515626,70L305.71106103515626,71.5L297.88906103515626,71.5L297.88906103515626,70ZM286.15606103515626,70L293.97806103515626,70L293.97806103515626,71.5L286.15606103515626,71.5L286.15606103515626,70ZM274.4220610351563,70L282.2440610351563,70L282.2440610351563,71.5L274.4220610351563,71.5L274.4220610351563,70ZM262.6890610351562,70L270.5110610351562,70L270.5110610351562,71.5L262.6890610351562,71.5L262.6890610351562,70ZM250.95566103515625,70L258.77786103515626,70L258.77786103515626,71.5L250.95566103515625,71.5L250.95566103515625,70ZM239.22226103515624,70L247.04446103515625,70L247.04446103515625,71.5L239.22226103515624,71.5L239.22226103515624,70ZM227.48896103515625,70L235.31116103515626,70L235.31116103515626,71.5L227.48896103515625,71.5L227.48896103515625,70ZM215.75566103515627,70L223.57786103515625,70L223.57786103515625,71.5L215.75566103515627,71.5L215.75566103515627,70ZM204.02226103515625,70L211.84446103515626,70L211.84446103515626,71.5L204.02226103515625,71.5L204.02226103515625,70ZM192.28896103515626,70L200.11116103515624,70L200.11116103515624,71.5L192.28896103515626,71.5L192.28896103515626,70ZM180.55566103515625,70L188.37786103515626,70L188.37786103515626,71.5L180.55566103515625,71.5L180.55566103515625,70ZM168.82228103515624,70L176.64446103515624,70L176.64446103515624,71.5L168.82228103515624,71.5L168.82228103515624,70ZM164.91117103515626,70L164.91117103515626,71.5L162.50006103515625,71.5L162.50006103515625,74L161.00006103515625,74L161.00006103515625,70L164.91117103515626,70ZM333.08906103515625,70L337.00006103515625,70L337.00006103515625,74L335.50006103515625,74L335.50006103515625,71.5L333.08906103515625,71.5L333.08906103515625,70ZM337.00006103515625,138L337.00006103515625,142L333.08906103515625,142L333.08906103515625,140.5L335.50006103515625,140.5L335.50006103515625,138L337.00006103515625,138ZM164.91116103515625,142L161.00006103515625,142L161.00006103515625,138L162.50006103515625,138L162.50006103515625,140.5L164.91116103515625,140.5L164.91116103515625,142Z" fill-rule="evenodd" fill="#DDDDDD" fill-opacity="1"/></g><g style="mix-blend-mode:passthrough"><g style="mix-blend-mode:passthrough"><path d="M420.93756103515625,28.125L422.55475103515624,28.125L422.55475103515624,42L421.10162103515626,42Q421.10162103515626,41.039100000000005,421.00787103515626,40.376999999999995Q420.50397103515627,41.291,419.67194103515624,41.7422Q418.8457610351563,42.1875,417.91412103515626,42.1875Q416.8418610351562,42.1875,415.89850103515624,41.613299999999995Q414.96100103515624,41.039100000000005,414.3867810351563,39.9316Q413.81256103515625,38.8242,413.81256103515625,37.3125Q413.81256103515625,35.8184,414.3867810351563,34.7109Q414.96100103515624,33.60352,415.89850103515624,33.02344Q416.8418610351562,32.4375,417.91412103515626,32.4375Q418.80475103515624,32.4375,419.6133410351562,32.85938Q420.42194103515624,33.27539,420.93756103515625,34.1074L420.93756103515625,28.125ZM418.10748103515624,40.7168Q419.2617810351563,40.7168,420.09967103515623,39.8965Q420.93756103515625,39.0703,420.93756103515625,37.3008Q420.93756103515625,35.5488,420.09967103515623,34.7285Q419.2617810351563,33.9082,418.10748103515624,33.9082Q416.8945910351562,33.9082,416.16217103515623,34.8047Q415.42975103515624,35.6953,415.42975103515624,37.3008Q415.42975103515624,38.9238,416.16217103515623,39.8203Q416.8945910351562,40.7168,418.10748103515624,40.7168Z" fill="#DDDDDD" fill-opacity="1"/></g><path d="M336.00006103515625,16L336.00006103515625,8L337.50006103515625,8L337.50006103515625,16L336.00006103515625,16ZM336.00006103515625,28L336.00006103515625,20L337.50006103515625,20L337.50006103515625,28L336.00006103515625,28ZM336.00006103515625,40L336.00006103515625,32L337.50006103515625,32L337.50006103515625,40L336.00006103515625,40ZM336.00006103515625,52L336.00006103515625,44L337.50006103515625,44L337.50006103515625,52L336.00006103515625,52ZM336.00006103515625,64L336.00006103515625,56L337.50006103515625,56L337.50006103515625,64L336.00006103515625,64ZM351.71436103515623,72L343.85719103515623,72L343.85719103515623,70.5L351.71436103515623,70.5L351.71436103515623,72ZM363.50006103515625,72L355.64296103515625,72L355.64296103515625,70.5L363.50006103515625,70.5L363.50006103515625,72ZM375.28576103515627,72L367.42866103515627,72L367.42866103515627,70.5L375.28576103515627,70.5L375.28576103515627,72ZM387.07146103515623,72L379.21436103515623,72L379.21436103515623,70.5L387.07146103515623,70.5L387.07146103515623,72ZM398.85716103515625,72L391.00006103515625,72L391.00006103515625,70.5L398.85716103515625,70.5L398.85716103515625,72ZM410.64296103515625,72L402.78576103515627,72L402.78576103515627,70.5L410.64296103515625,70.5L410.64296103515625,72ZM422.42866103515627,72L414.57146103515623,72L414.57146103515623,70.5L422.42866103515627,70.5L422.42866103515627,72ZM434.21436103515623,72L426.35716103515625,72L426.35716103515625,70.5L434.21436103515623,70.5L434.21436103515623,72ZM446.00006103515625,72L438.1430610351563,72L438.1430610351563,70.5L446.00006103515625,70.5L446.00006103515625,72ZM457.78606103515625,72L449.9290610351562,72L449.9290610351562,70.5L457.78606103515625,70.5L457.78606103515625,72ZM469.5710610351563,72L461.71406103515625,72L461.71406103515625,70.5L469.5710610351563,70.5L469.5710610351563,72ZM481.3570610351562,72L473.50006103515625,72L473.50006103515625,70.5L481.3570610351562,70.5L481.3570610351562,72ZM493.1430610351563,72L485.28606103515625,72L485.28606103515625,70.5L493.1430610351563,70.5L493.1430610351563,72ZM501.00006103515625,56L501.00006103515625,64L499.50006103515625,64L499.50006103515625,56L501.00006103515625,56ZM501.00006103515625,44L501.00006103515625,52L499.50006103515625,52L499.50006103515625,44L501.00006103515625,44ZM501.00006103515625,32L501.00006103515625,40L499.50006103515625,40L499.50006103515625,32L501.00006103515625,32ZM501.00006103515625,20L501.00006103515625,28L499.50006103515625,28L499.50006103515625,20L501.00006103515625,20ZM501.00006103515625,8L501.00006103515625,16L499.50006103515625,16L499.50006103515625,8L501.00006103515625,8ZM485.28606103515625,0L493.1430610351563,0L493.1430610351563,1.5L485.28606103515625,1.5L485.28606103515625,0ZM473.50006103515625,0L481.3570610351562,0L481.3570610351562,1.5L473.50006103515625,1.5L473.50006103515625,0ZM461.71406103515625,0L469.5710610351563,0L469.5710610351563,1.5L461.71406103515625,1.5L461.71406103515625,0ZM449.9290610351562,0L457.78606103515625,0L457.78606103515625,1.5L449.9290610351562,1.5L449.9290610351562,0ZM438.1430610351563,0L446.00006103515625,0L446.00006103515625,1.5L438.1430610351563,1.5L438.1430610351563,0ZM426.35716103515625,0L434.21436103515623,0L434.21436103515623,1.5L426.35716103515625,1.5L426.35716103515625,0ZM414.57146103515623,0L422.42866103515627,0L422.42866103515627,1.5L414.57146103515623,1.5L414.57146103515623,0ZM402.78576103515627,0L410.64296103515625,0L410.64296103515625,1.5L402.78576103515627,1.5L402.78576103515627,0ZM391.00006103515625,0L398.85716103515625,0L398.85716103515625,1.5L391.00006103515625,1.5L391.00006103515625,0ZM379.21436103515623,0L387.07146103515623,0L387.07146103515623,1.5L379.21436103515623,1.5L379.21436103515623,0ZM367.42866103515627,0L375.28576103515627,0L375.28576103515627,1.5L367.42866103515627,1.5L367.42866103515627,0ZM355.64296103515625,0L363.50006103515625,0L363.50006103515625,1.5L355.64296103515625,1.5L355.64296103515625,0ZM343.85720103515627,0L351.71436103515623,0L351.71436103515623,1.5L343.85720103515627,1.5L343.85720103515627,0ZM339.92863103515623,0L339.92863103515623,1.5L337.50006103515625,1.5L337.50006103515625,4L336.00006103515625,4L336.00006103515625,0L339.92863103515623,0ZM497.0710610351563,0L501.00006103515625,0L501.00006103515625,4L499.50006103515625,4L499.50006103515625,1.5L497.0710610351563,1.5L497.0710610351563,0ZM501.00006103515625,68L501.00006103515625,72L497.0710610351563,72L497.0710610351563,70.5L499.50006103515625,70.5L499.50006103515625,68L501.00006103515625,68ZM339.92862103515625,72L336.00006103515625,72L336.00006103515625,68L337.50006103515625,68L337.50006103515625,70.5L339.92862103515625,70.5L339.92862103515625,72Z" fill-rule="evenodd" fill="#DDDDDD" fill-opacity="1"/></g><g style="mix-blend-mode:passthrough"><g style="mix-blend-mode:passthrough"><path d="M563.8398610351562,39.2227Q563.8398610351562,39.8438,563.7461610351562,40.7695Q563.6582610351562,41.6543,563.4121610351563,42.1172Q563.1719610351563,42.5801,562.6445610351562,42.7852Q562.1230610351563,42.9961,561.1504610351562,43.0664Q559.8613610351563,43.1602,558.8359610351563,43.1602Q557.8164610351563,43.1602,556.5215410351562,43.0664Q555.5957610351562,42.9961,555.1270110351562,42.791Q554.6641210351562,42.585899999999995,554.4766210351562,42.1055Q554.2891210351562,41.6309,554.2891210351562,40.6699L554.2891210351562,32.94727L553.4102210351563,32.28516Q555.5723310351563,29.7832,556.9434210351562,26.48438L558.1973610351563,26.95312Q557.9688610351562,27.49219,557.4707610351562,28.5L562.1465610351562,28.5L562.1465610351562,29.67188L560.3125610351562,32.13867L562.8848610351563,32.13867L562.8848610351563,37.875L555.6250610351562,37.875L555.6250610351562,40.3477Q555.6250610351562,40.9336,555.7188110351562,41.2031Q555.8184210351562,41.4668,556.0762310351563,41.5723Q556.3399010351562,41.6777,556.9317010351563,41.7305Q557.8633610351562,41.8066,559.0117610351563,41.8066Q560.1602610351563,41.8066,561.0742610351563,41.7305Q561.6484610351563,41.6777,561.9121610351563,41.5664Q562.1816610351563,41.449200000000005,562.2871610351563,41.185500000000005Q562.3984610351563,40.916,562.4336610351562,40.3652L562.4512610351562,39.9258Q562.5098610351563,39.3574,562.5098610351563,38.8652L563.8398610351562,39.2227ZM548.2774010351562,33.95508Q547.9902950351562,34.0254,547.8672490351563,34.043L547.5039670351563,32.5957Q547.9024050351562,32.44922,548.1895110351562,32.08594Q548.6406810351563,31.48828,549.4492810351562,29.78906Q550.2578710351562,28.08984,550.8145110351562,26.68359L552.0567010351563,27.22266L551.7695910351563,27.84961Q550.9610010351563,29.60156,550.3926410351562,30.76172Q549.8301410351562,31.91602,549.4141210351562,32.57227Q550.1875610351562,32.4082,550.4746710351562,32.36719L551.5176410351562,32.16797Q552.4024010351562,30.44531,552.7422510351563,29.70703L553.8379510351563,30.28125Q552.9180310351562,32.14453,551.8867810351562,34.0664Q550.8555310351562,35.9883,550.1699810351563,37.0078L553.2110010351563,36.1758L553.2285810351563,37.459Q550.7442010351563,38.1504,549.1973310351563,38.5605L548.2422510351563,38.8242L547.8496700351562,37.2891Q548.5645110351562,37.0898,548.8926410351562,36.6094Q549.8301410351562,35.2441,550.8379510351563,33.39844L548.8926410351562,33.82617L548.2774010351562,33.95508ZM560.5000610351562,29.70703L556.8203710351562,29.70703Q556.0235010351563,31.10156,555.2617810351562,32.13867L558.7363610351563,32.13867L560.5000610351562,29.70703ZM555.6250610351562,33.39844L555.6250610351562,36.6504L557.8750610351562,36.6504L557.8750610351562,33.39844L555.6250610351562,33.39844ZM559.1875610351562,36.6504L561.6250610351562,36.6504L561.6250610351562,33.39844L559.1875610351562,33.39844L559.1875610351562,36.6504ZM547.6504520351563,41.0684Q548.7988910351562,40.7637,550.7969410351562,40.2012Q552.7949810351563,39.6387,553.3574810351563,39.4512L553.4981110351563,40.9688Q552.7949810351563,41.1914,550.6680310351562,41.7598Q548.5469410351562,42.3223,547.9375610351562,42.439499999999995L547.6504520351563,41.0684ZM582.2559610351562,30.48633L582.2559610351562,31.875L580.0410610351562,31.875L580.0410610351562,40.6406Q580.0410610351562,41.976600000000005,579.5078610351562,42.5332Q578.9805610351563,43.0898,577.6270610351562,43.1074Q576.4082610351562,43.148399999999995,575.4180610351563,43.0195L575.1074610351562,41.543Q576.2617610351563,41.689499999999995,577.2871610351563,41.689499999999995Q577.8262610351562,41.689499999999995,578.0957610351562,41.5723Q578.3652610351562,41.4551,578.4648610351562,41.150400000000005Q578.5645610351562,40.8398,578.5645610351562,40.224599999999995L578.5645610351562,31.875L573.5430610351563,31.875L573.5430610351563,30.48633L578.5645610351562,30.48633L578.5645610351562,26.90625L580.0410610351562,26.90625L580.0410610351562,30.48633L582.2559610351562,30.48633ZM572.7520610351562,30.26953Q572.1367610351563,33.78516,570.9531610351562,36.4746Q571.3105610351563,36.9785,571.9961610351562,37.9922Q573.3086610351562,39.8906,573.6309610351562,40.335899999999995L572.4121610351563,41.273399999999995Q571.1875610351562,39.4336,570.1973610351563,37.9922Q568.9199610351562,40.3652,566.6465610351562,42.9082L565.6035610351563,41.7422Q567.9648610351562,39.1641,569.2598610351563,36.6035Q567.0742610351563,33.43359,566.2305610351563,32.29102L567.3848610351563,31.47656Q568.2871610351563,32.67188,569.9805610351563,35.0684Q570.8242610351563,32.92383,571.3105610351563,30.25195L566.1250610351562,30.25195L566.1250610351562,28.81055L572.7520610351562,28.81055L572.7520610351562,30.26953ZM576.1504610351562,38.3672Q575.6699610351562,37.5762,574.7734610351563,36.1875Q573.8828610351562,34.793,573.4199610351562,34.1309L574.5332610351562,33.375Q575.1426610351563,34.2715,575.9336610351562,35.4668Q576.7305610351563,36.6621,577.3574610351562,37.6113L576.1504610351562,38.3672ZM597.4141610351562,38.5078Q595.8848610351563,38.5957,592.8203610351562,38.7422L592.8203610351562,41.0566Q592.8203610351562,42.164100000000005,592.4219610351563,42.6211Q592.0234610351563,43.084,591.1621610351563,43.125Q590.3828610351562,43.1426,589.2754610351562,43.0488L589.0234610351563,41.7422Q589.1699610351562,41.7598,589.7031610351562,41.8301Q590.2363610351563,41.900400000000005,590.7051610351563,41.900400000000005Q591.0684610351562,41.900400000000005,591.2324610351562,41.601600000000005Q591.3965610351563,41.2969,591.3965610351563,40.675799999999995L591.3965610351563,38.8301L586.8555610351563,39.0469L584.9570610351562,39.1523L584.7402610351562,37.875Q586.1348610351563,37.875,586.5273610351562,37.7461Q588.5488610351563,37.0898,591.1387610351562,35.6602Q589.6914610351563,35.7656,587.0840610351563,35.9473L585.8535610351562,36.0469L585.6602610351563,35.0508Q586.6738610351563,34.9629,587.0312610351563,34.8164Q588.1738610351563,34.3535,590.7227610351563,32.38477L586.0000610351562,32.38477L586.0000610351562,34.3652L584.5234610351563,34.3652L584.5234610351563,31.125L591.2500610351562,31.125L591.2500610351562,29.625L584.9570610351562,29.625L584.9570610351562,28.36523L591.2500610351562,28.36523L591.2500610351562,26.87109L592.6738610351563,26.87109L592.6738610351563,28.36523L599.0605610351563,28.36523L599.0605610351563,29.625L592.6738610351563,29.625L592.6738610351563,31.125L599.4766610351562,31.125L599.4766610351562,34.4004L598.0000610351562,34.4004L598.0000610351562,32.38477L592.6211610351562,32.38477Q591.9355610351563,32.95898,590.9629610351562,33.67383Q589.9961610351562,34.3828,589.2930610351563,34.8516L593.1191610351563,34.541Q594.6895610351562,33.5918,595.6094610351563,32.94141L596.3945610351562,34.0078Q594.3262610351562,35.3789,592.8320610351562,36.2578Q591.3379610351562,37.1309,589.8730610351563,37.6992L596.1777610351562,37.3184Q595.3516610351562,36.5508,594.9883610351562,36.252L595.9199610351562,35.373Q598.2227610351563,37.4473,599.3652610351562,38.7188L598.5039610351563,39.6504Q598.2871610351563,39.3984,597.7070610351562,38.7949Q597.7070610351562,38.7949,597.4141610351562,38.5078ZM589.2578610351562,40.3301Q588.2148610351562,41.0449,586.8672610351563,41.7656Q585.5195610351562,42.4863,584.2363610351563,43.037099999999995L583.6797610351563,41.724599999999995Q584.9102610351563,41.2441,586.2871610351563,40.5293Q587.6699610351562,39.8086,588.5723610351563,39.1523L589.2578610351562,40.3301ZM594.8594610351563,39.1348Q596.1484610351563,39.75,599.3066610351563,41.332L600.1387610351562,41.7422L599.5117610351563,42.9961Q598.6211610351562,42.498000000000005,596.9512610351562,41.6719Q595.2812610351563,40.8398,594.2090610351563,40.3418L594.8594610351563,39.1348ZM614.8457610351562,26.97656L616.3750610351562,26.97656L616.3750610351562,43.125L614.8457610351562,43.125L614.8457610351562,26.97656ZM611.1250610351562,27.75L611.1250610351562,33.24609L604.8789610351563,33.24609L604.6680610351563,35.625L611.2188610351562,35.625Q611.2012610351562,37.8574,610.8730610351563,40.4062Q610.7324610351562,41.501999999999995,610.4160610351562,42.0703Q610.0996610351563,42.6445,609.4492610351563,42.8848Q608.8047610351563,43.125,607.6562610351563,43.125Q606.3555610351563,43.125,604.8262610351562,42.9434L604.5391610351562,41.5078Q606.2676610351563,41.7715,607.5801610351563,41.7715Q608.4473610351563,41.7715,608.8398610351562,41.3789Q609.2383610351562,40.9863,609.3789610351563,39.9961Q609.6133610351562,38.4023,609.6895610351562,37.0254L603.0449610351562,37.0254L603.4785610351562,31.875L609.5957610351562,31.875L609.5957610351562,29.13867L603.0625610351562,29.13867L603.0625610351562,27.75L611.1250610351562,27.75Z" fill="#DDDDDD" fill-opacity="1"/></g></g><g style="mix-blend-mode:passthrough"><g style="mix-blend-mode:passthrough"><path d="M551.9863910351562,101.69336L551.9863910351562,103.02344Q553.1172510351563,104.2012,554.3594410351562,105.7188L553.4981110351563,106.8086Q552.9942010351563,106.0586,551.9863910351562,104.793L551.9863910351562,113.125L550.6328710351562,113.125L550.6328710351562,104.8281Q549.5488910351562,107.541,548.4004510351563,109.2168L547.5918580351563,107.9219Q548.4414710351563,106.7266,549.2500610351562,105.0332Q550.0586510351562,103.33398,550.5625610351562,101.69336L548.0957610351562,101.69336L548.0957610351562,100.375L550.6328710351562,100.375L550.6328710351562,96.71289L551.9863910351562,96.71289L551.9863910351562,100.375L554.2715410351562,100.375L554.2715410351562,101.69336L551.9863910351562,101.69336ZM555.0215410351562,113.1602L555.0215410351562,98.125L563.3652610351562,98.125L563.3652610351562,113.125L562.0000610351562,113.125L562.0000610351562,112L556.3750610351562,112L556.3750610351562,113.1602L555.0215410351562,113.1602ZM562.0000610351562,102.25L562.0000610351562,99.47852L556.3750610351562,99.47852L556.3750610351562,102.25L562.0000610351562,102.25ZM562.0000610351562,103.5625L556.3750610351562,103.5625L556.3750610351562,106.375L562.0000610351562,106.375L562.0000610351562,103.5625ZM556.3750610351562,107.6699L556.3750610351562,110.6699L562.0000610351562,110.6699L562.0000610351562,107.6699L556.3750610351562,107.6699ZM582.2559610351562,100.48633L582.2559610351562,101.875L580.0410610351562,101.875L580.0410610351562,110.6406Q580.0410610351562,111.9766,579.5078610351562,112.5332Q578.9805610351563,113.0898,577.6270610351562,113.1074Q576.4082610351562,113.1484,575.4180610351563,113.0195L575.1074610351562,111.543Q576.2617610351563,111.6895,577.2871610351563,111.6895Q577.8262610351562,111.6895,578.0957610351562,111.5723Q578.3652610351562,111.4551,578.4648610351562,111.1504Q578.5645610351562,110.8398,578.5645610351562,110.2246L578.5645610351562,101.875L573.5430610351563,101.875L573.5430610351563,100.48633L578.5645610351562,100.48633L578.5645610351562,96.90625L580.0410610351562,96.90625L580.0410610351562,100.48633L582.2559610351562,100.48633ZM572.7520610351562,100.26953Q572.1367610351563,103.78516,570.9531610351562,106.4746Q571.3105610351563,106.9785,571.9961610351562,107.9922Q573.3086610351562,109.8906,573.6309610351562,110.3359L572.4121610351563,111.2734Q571.1875610351562,109.4336,570.1973610351563,107.9922Q568.9199610351562,110.3652,566.6465610351562,112.9082L565.6035610351563,111.7422Q567.9648610351562,109.1641,569.2598610351563,106.6035Q567.0742610351563,103.43359,566.2305610351563,102.29102L567.3848610351563,101.47656Q568.2871610351563,102.67188,569.9805610351563,105.0684Q570.8242610351563,102.92383,571.3105610351563,100.25195L566.1250610351562,100.25195L566.1250610351562,98.81055L572.7520610351562,98.81055L572.7520610351562,100.26953ZM576.1504610351562,108.3672Q575.6699610351562,107.5762,574.7734610351563,106.1875Q573.8828610351562,104.793,573.4199610351562,104.1309L574.5332610351562,103.375Q575.1426610351563,104.2715,575.9336610351562,105.4668Q576.7305610351563,106.6621,577.3574610351562,107.6113L576.1504610351562,108.3672ZM597.4141610351562,108.5078Q595.8848610351563,108.5957,592.8203610351562,108.7422L592.8203610351562,111.0566Q592.8203610351562,112.1641,592.4219610351563,112.6211Q592.0234610351563,113.084,591.1621610351563,113.125Q590.3828610351562,113.1426,589.2754610351562,113.0488L589.0234610351563,111.7422Q589.1699610351562,111.7598,589.7031610351562,111.8301Q590.2363610351563,111.9004,590.7051610351563,111.9004Q591.0684610351562,111.9004,591.2324610351562,111.6016Q591.3965610351563,111.2969,591.3965610351563,110.6758L591.3965610351563,108.8301L586.8555610351563,109.0469L584.9570610351562,109.1523L584.7402610351562,107.875Q586.1348610351563,107.875,586.5273610351562,107.7461Q588.5488610351563,107.0898,591.1387610351562,105.6602Q589.6914610351563,105.7656,587.0840610351563,105.9473L585.8535610351562,106.0469L585.6602610351563,105.0508Q586.6738610351563,104.9629,587.0312610351563,104.8164Q588.1738610351563,104.3535,590.7227610351563,102.38477L586.0000610351562,102.38477L586.0000610351562,104.3652L584.5234610351563,104.3652L584.5234610351563,101.125L591.2500610351562,101.125L591.2500610351562,99.625L584.9570610351562,99.625L584.9570610351562,98.36523L591.2500610351562,98.36523L591.2500610351562,96.87109L592.6738610351563,96.87109L592.6738610351563,98.36523L599.0605610351563,98.36523L599.0605610351563,99.625L592.6738610351563,99.625L592.6738610351563,101.125L599.4766610351562,101.125L599.4766610351562,104.4004L598.0000610351562,104.4004L598.0000610351562,102.38477L592.6211610351562,102.38477Q591.9355610351563,102.95898,590.9629610351562,103.67383Q589.9961610351562,104.3828,589.2930610351563,104.8516L593.1191610351563,104.541Q594.6895610351562,103.5918,595.6094610351563,102.94141L596.3945610351562,104.0078Q594.3262610351562,105.3789,592.8320610351562,106.2578Q591.3379610351562,107.1309,589.8730610351563,107.6992L596.1777610351562,107.3184Q595.3516610351562,106.5508,594.9883610351562,106.252L595.9199610351562,105.373Q598.2227610351563,107.4473,599.3652610351562,108.7188L598.5039610351563,109.6504Q598.2871610351563,109.3984,597.7070610351562,108.7949Q597.7070610351562,108.7949,597.4141610351562,108.5078ZM589.2578610351562,110.3301Q588.2148610351562,111.0449,586.8672610351563,111.7656Q585.5195610351562,112.4863,584.2363610351563,113.0371L583.6797610351563,111.7246Q584.9102610351563,111.2441,586.2871610351563,110.5293Q587.6699610351562,109.8086,588.5723610351563,109.1523L589.2578610351562,110.3301ZM594.8594610351563,109.1348Q596.1484610351563,109.75,599.3066610351563,111.332L600.1387610351562,111.7422L599.5117610351563,112.9961Q598.6211610351562,112.498,596.9512610351562,111.6719Q595.2812610351563,110.8398,594.2090610351563,110.3418L594.8594610351563,109.1348ZM614.8457610351562,96.97656L616.3750610351562,96.97656L616.3750610351562,113.125L614.8457610351562,113.125L614.8457610351562,96.97656ZM611.1250610351562,97.75L611.1250610351562,103.24609L604.8789610351563,103.24609L604.6680610351563,105.625L611.2188610351562,105.625Q611.2012610351562,107.8574,610.8730610351563,110.4062Q610.7324610351562,111.502,610.4160610351562,112.0703Q610.0996610351563,112.6445,609.4492610351563,112.8848Q608.8047610351563,113.125,607.6562610351563,113.125Q606.3555610351563,113.125,604.8262610351562,112.9434L604.5391610351562,111.5078Q606.2676610351563,111.7715,607.5801610351563,111.7715Q608.4473610351563,111.7715,608.8398610351562,111.3789Q609.2383610351562,110.9863,609.3789610351563,109.9961Q609.6133610351562,108.4023,609.6895610351562,107.0254L603.0449610351562,107.0254L603.4785610351562,101.875L609.5957610351562,101.875L609.5957610351562,99.13867L603.0625610351562,99.13867L603.0625610351562,97.75L611.1250610351562,97.75Z" fill="#DDDDDD" fill-opacity="1"/></g></g><g style="mix-blend-mode:passthrough"><path d="M4.85358103515625,182.80078L4.85358103515625,185.87695L6.48248103515625,185.87695L6.48248103515625,187.35938L4.85358103515625,187.35938L4.85358103515625,190.0723L6.15436103515625,189.49805L6.24225103515625,190.9512L4.85358103515625,191.584L4.85358103515625,197.2969Q4.85358103515625,198.334,4.455141035156251,198.7266Q4.05670103515625,199.125,3.06647103515625,199.125Q2.47467103515625,199.125,1.90045103515625,199.07229999999998L1.64264103515625,197.64260000000002Q2.28717103515625,197.7539,2.79108103515625,197.7539Q3.24225103515625,197.7539,3.39459103515625,197.5605Q3.55279103515625,197.3672,3.55279103515625,196.8457L3.55279103515625,192.1699Q2.4863910351562497,192.6445,1.51373103515625,193.0254L1.35553003515625,191.5312Q2.39850103515625,191.1211,3.55279103515625,190.6289L3.55279103515625,187.35938L1.62506103515625,187.35938L1.62506103515625,185.87695L3.55279103515625,185.87695L3.55279103515625,182.80078L4.85358103515625,182.80078ZM12.74616103515625,196.8633L15.66996103515625,196.8633L15.66996103515625,194.707L13.60166103515625,194.707L13.60166103515625,193.4648L15.66996103515625,193.4648L15.66996103515625,191.4023L13.53126103515625,191.4023L13.53126103515625,190.125L17.00006103515625,190.125L17.00006103515625,199.125L15.66996103515625,199.125L15.66996103515625,198.1641L8.55084103515625,198.1641L8.55084103515625,199.14260000000002L7.25006103515625,199.14260000000002L7.25006103515625,190.4121Q7.98834103515625,190.2715,8.81451103515625,190.0195Q9.64654103515625,189.76172,10.29694103515625,189.48633L10.68956103515625,190.7168Q9.75201103515625,191.1738,8.55084103515625,191.5137L8.55084103515625,193.4648L10.56646103515625,193.4648L10.56646103515625,194.707L8.55084103515625,194.707L8.55084103515625,196.8633L11.37506103515625,196.8633L11.37506103515625,188.44336L7.00397103515625,188.44336L7.00397103515625,187.125L11.37506103515625,187.125L11.37506103515625,185.01562Q9.00201103515625,185.21484,7.37897103515625,185.26758L7.25006103515625,183.97266Q9.10748103515625,183.90234,12.06646103515625,183.66211Q15.02546103515625,183.41602,16.96486103515625,183.14648L17.19926103515625,184.44141Q15.11916103515625,184.71094,12.74616103515625,184.91016L12.74616103515625,187.125L17.70316103515625,187.125L17.70316103515625,188.44336L12.74616103515625,188.44336L12.74616103515625,196.8633ZM28.22076103515625,185.55469Q28.65436103515625,189.47461,30.44146103515625,192.4922Q32.23446103515625,195.5098,35.74416103515625,197.8828L34.75396103515625,199.14260000000002Q31.81846103515625,196.9805,30.06056103515625,194.5723Q28.30866103515625,192.1582,27.50006103515625,188.90039Q25.93556103515625,194.5371,20.17586103515625,199.17770000000002L19.07426103515625,197.9531Q22.83596103515625,195.1465,24.63486103515625,192.082Q26.43956103515625,189.01172,26.83206103515625,185.75391Q26.65626103515625,185.47852,26.28716103515625,185.36719Q25.91806103515625,185.25,25.28526103515625,185.25L22.73056103515625,185.25L22.73056103515625,183.73242L25.84186103515625,183.73242Q26.99616103515625,183.73242,27.56456103515625,184.14844Q28.13286103515625,184.56445,28.22076103515625,185.55469ZM45.88676103515625,188.25L51.81646103515625,188.25L51.81646103515625,193.875L39.50006103515625,193.875L39.50006103515625,188.25L44.37506103515625,188.25L44.37506103515625,182.77734L45.88676103515625,182.77734L45.88676103515625,184.55859L53.12896103515625,184.55859L53.12896103515625,186L45.88676103515625,186L45.88676103515625,188.25ZM40.94146103515625,192.4863L50.37506103515625,192.4863L50.37506103515625,189.68555L40.94146103515625,189.68555L40.94146103515625,192.4863ZM51.50596103515625,194.5078Q52.46096103515625,196.0547,53.65046103515625,198.39260000000002L52.39066103515625,199.1133Q51.66996103515625,197.5488,50.22856103515625,195.0996L51.50596103515625,194.5078ZM37.52546103515625,198.5742Q38.15236103515625,197.6543,38.71486103515625,196.5469Q39.28326103515625,195.4395,39.60556103515625,194.5254L40.92386103515625,195.0645Q40.56646103515625,196.0371,39.98636103515625,197.19729999999998Q39.41216103515625,198.35739999999998,38.83796103515625,199.3125L37.52546103515625,198.5742ZM47.65046103515625,194.7773Q47.97276103515625,195.5332,48.36526103515625,196.5938Q48.75786103515625,197.6543,48.99226103515625,198.4453L47.63286103515625,198.8262Q47.22856103515625,197.3496,46.34386103515625,195.1875L47.65046103515625,194.7773ZM43.76566103515625,194.9531Q43.97666103515625,195.6914,44.21096103515625,196.7988Q44.44536103515625,197.9062,44.57426103515625,198.69729999999998L43.13286103515625,198.9844Q42.96886103515625,197.38479999999998,42.41806103515625,195.2051L43.76566103515625,194.9531Z" fill="#DDDDDD" fill-opacity="1"/></g><g style="mix-blend-mode:passthrough"><path d="M487.40046103515624,183.06445L488.67776103515627,183.06445L488.67776103515627,196.834Q488.67776103515627,199.125,486.83206103515624,199.125Q485.8828610351562,199.125,484.78716103515626,198.9961L484.55866103515626,197.877Q485.81256103515625,197.918,486.43366103515626,197.918Q486.94926103515627,197.918,487.17196103515624,197.5781Q487.40046103515624,197.23239999999998,487.40046103515624,196.5117L487.40046103515624,183.06445ZM483.27546103515624,183.74414L483.27546103515624,189.9375L484.21296103515624,189.9375L484.21296103515624,191.2324L483.27546103515624,191.2324L483.27546103515624,197.4258Q483.27546103515624,198.3398,482.95316103515626,198.73239999999998Q482.63096103515625,199.125,481.89264103515626,199.125Q481.22467103515623,199.125,480.7207610351563,199.0254L480.48639103515626,197.60739999999998Q481.1367810351563,197.8477,481.4883410351562,197.8477Q481.81647103515627,197.8477,481.9395110351563,197.6133Q482.06842103515623,197.3789,482.06842103515623,196.8691L482.06842103515623,191.2324L480.5918610351562,191.2324Q480.5742810351563,193.2891,480.4395110351563,194.6426Q480.30475103515624,195.9961,480.05279103515625,197.00979999999998Q479.80670103515627,198.01760000000002,479.33795103515627,199.2305L478.18365103515623,198.8262Q478.65240103515623,197.6602,478.89264103515626,196.7461Q479.13873103515624,195.8262,479.24420103515627,194.5723Q479.3555310351563,193.3184,479.39068103515626,191.2324L478.21881103515625,191.2324L478.21881103515625,197.0566Q478.21881103515625,197.9883,477.91998103515624,198.3691Q477.6270110351563,198.75,476.81842103515623,198.75Q476.20318103515626,198.75,475.7520110351563,198.6621L475.50006103515625,197.3789Q476.15045103515627,197.49020000000002,476.4668610351562,197.49020000000002Q476.75397103515627,197.49020000000002,476.90045103515627,197.2441Q477.04694103515624,196.998,477.04694103515624,196.5762L477.04694103515624,191.2324L475.68170103515627,191.2324Q475.66412103515626,193.4355,475.5293610351562,194.748Q475.3945910351562,196.0547,475.08990103515623,197.0215Q474.78522103515627,197.98239999999998,474.16998103515624,199.17770000000002L473.01568603515625,198.6504Q473.6133410351562,197.5195,473.90045103515627,196.6582Q474.18756103515625,195.791,474.30475103515624,194.5957Q474.42194103515624,193.4004,474.4570910351562,191.2324L473.25006103515625,191.2324L473.25006103515625,189.9375L474.4570910351562,189.9375L474.4570910351562,189.73828L474.4570910351562,183.74414L478.21881103515625,183.74414L478.21881103515625,189.9375L479.39068103515626,189.9375L479.39068103515626,189.73828L479.39068103515626,183.74414L483.27546103515624,183.74414ZM484.79306103515626,184.5L486.00006103515625,184.5L486.00006103515625,195.4277L484.79306103515626,195.4277L484.79306103515626,184.5ZM475.68170103515627,185.03906L475.68170103515627,189.9375L477.04694103515624,189.9375L477.04694103515624,185.03906L475.68170103515627,185.03906ZM480.5918610351562,185.03906L480.5918610351562,189.9375L482.06842103515623,189.9375L482.06842103515623,185.03906L480.5918610351562,185.03906ZM507.25206103515626,193.0078L503.05666103515625,193.0078L503.05666103515625,197.2148Q503.05666103515625,198.2285,502.6582610351563,198.6738Q502.26566103515626,199.125,501.38096103515625,199.125Q500.57816103515626,199.125,499.6582610351563,198.9785L499.3887610351562,197.6367Q500.43166103515625,197.8066,500.91806103515626,197.8066Q501.38676103515627,197.8066,501.55666103515625,197.60739999999998Q501.72666103515627,197.4023,501.72666103515627,196.8691L501.72666103515627,193.0078L497.62506103515625,193.0078L497.62506103515625,191.625L501.72666103515627,191.625L501.72666103515627,189.58008L499.03126103515626,189.58008L499.03126103515626,188.43164Q498.1523610351563,189.16406,497.4727610351562,189.65039L496.55866103515626,188.48438Q499.9922610351563,186.2168,501.65626103515626,183.12305L503.05666103515625,183.12305Q503.86526103515627,184.57031,505.18956103515626,185.97656Q506.51956103515624,187.37695,508.1543610351562,188.55469L507.27546103515624,189.68555Q505.7578610351562,188.61328,504.47466103515626,187.25977Q503.19736103515623,185.90039,502.35356103515625,184.49414Q501.13486103515623,186.52148,499.23056103515626,188.25L505.48836103515623,188.25L505.48836103515623,189.58008L503.05666103515625,189.58008L503.05666103515625,191.625L507.25206103515626,191.625L507.25206103515626,193.0078ZM497.04496103515623,193.7695Q497.04496103515623,195.3047,496.5762610351562,195.9023Q496.10746103515623,196.5,495.0293610351562,196.5Q494.52546103515624,196.5,494.00396103515624,196.3887L493.73446103515624,195.0938Q494.18556103515624,195.2402,494.7422610351563,195.2402Q495.2988610351563,195.2402,495.52156103515625,194.8242Q495.75006103515625,194.4082,495.75006103515625,193.5234Q495.75006103515625,191.6953,494.43756103515625,189.86719L495.73246103515623,185.25L493.50006103515625,185.25L493.50006103515625,199.125L492.16416103515627,199.125L492.16416103515627,183.87891L497.08016103515627,183.87891L497.08016103515627,185.26758L495.7148610351563,189.65039Q496.41216103515626,190.8398,496.72856103515625,191.8066Q497.04496103515623,192.7734,497.04496103515623,193.7695ZM505.07236103515623,193.5645Q505.59386103515624,194.3379,506.38486103515623,195.5977Q507.18166103515625,196.85739999999998,507.73836103515623,197.8066L506.56646103515624,198.4746Q506.18556103515624,197.7656,505.37706103515626,196.4297Q504.56846103515625,195.0938,504.01176103515627,194.2676L505.07236103515623,193.5645ZM500.29106103515625,194.2207Q499.74616103515626,195.2988,498.93166103515625,196.5234Q498.1172610351563,197.748,497.3203610351562,198.6738L496.21886103515624,197.8242Q496.99806103515624,197.00979999999998,497.77156103515625,195.8613Q498.54496103515623,194.7129,499.10166103515627,193.6113L500.29106103515625,194.2207ZM517.8867610351563,188.25L523.8164610351563,188.25L523.8164610351563,193.875L511.50006103515625,193.875L511.50006103515625,188.25L516.3750610351562,188.25L516.3750610351562,182.77734L517.8867610351563,182.77734L517.8867610351563,184.55859L525.1289610351563,184.55859L525.1289610351563,186L517.8867610351563,186L517.8867610351563,188.25ZM512.9414610351563,192.4863L522.3750610351562,192.4863L522.3750610351562,189.68555L512.9414610351563,189.68555L512.9414610351563,192.4863ZM523.5059610351562,194.5078Q524.4609610351563,196.0547,525.6504610351562,198.39260000000002L524.3906610351562,199.1133Q523.6699610351562,197.5488,522.2285610351562,195.0996L523.5059610351562,194.5078ZM509.52546103515624,198.5742Q510.1523610351562,197.6543,510.7148610351562,196.5469Q511.2832610351563,195.4395,511.60556103515626,194.5254L512.9238610351563,195.0645Q512.5664610351563,196.0371,511.9863610351563,197.19729999999998Q511.41216103515626,198.35739999999998,510.83796103515624,199.3125L509.52546103515624,198.5742ZM519.6504610351562,194.7773Q519.9727610351563,195.5332,520.3652610351562,196.5938Q520.7578610351562,197.6543,520.9922610351563,198.4453L519.6328610351562,198.8262Q519.2285610351562,197.3496,518.3438610351562,195.1875L519.6504610351562,194.7773ZM515.7656610351562,194.9531Q515.9766610351562,195.6914,516.2109610351563,196.7988Q516.4453610351562,197.9062,516.5742610351563,198.69729999999998L515.1328610351562,198.9844Q514.9688610351562,197.38479999999998,514.4180610351563,195.2051L515.7656610351562,194.9531Z" fill="#DDDDDD" fill-opacity="1"/></g><g style="mix-blend-mode:passthrough" transform="matrix(0,1,-1,0,181.50006103515625,126.49993896484375)"><path d="M51.50006103515625,154.75L47.50006103515625,154.75L47.50006103515625,153.25L51.50006103515625,153.25M43.50006103515625,154.75L35.50006103515625,154.75L35.50006103515625,153.25L43.50006103515625,153.25M31.50006103515625,154.75L27.50006103515625,154.75L27.50006103515625,153.25L31.50006103515625,153.25M26.96973103515625,153.46967L31.74270103515625,148.6967Q31.79493103515625,148.64447,31.85635103515625,148.60343Q31.91777103515625,148.56239,31.98602103515625,148.53412Q32.05426103515625,148.50585,32.12671103515625,148.49144Q32.19916103515625,148.47703,32.27303103515625,148.47703Q32.34690103515625,148.47703,32.419351035156254,148.49144Q32.49180103515625,148.50585,32.56004103515625,148.53412Q32.62829103515625,148.56239,32.68971103515625,148.60343Q32.75113103515625,148.64447,32.80336103515625,148.6967Q32.85559103515625,148.74893,32.89663103515625,148.81035Q32.93767103515625,148.87177,32.96594103515625,148.94002Q32.99421103515625,149.00826,33.00862103515625,149.08071Q33.02303103515625,149.15316,33.02303103515625,149.22703Q33.02303103515625,149.3009,33.00862103515625,149.37335Q32.99421103515625,149.4458,32.96594103515625,149.51404Q32.93767103515625,149.58229,32.89663103515625,149.64371Q32.85559103515625,149.70513,32.80336103515625,149.75736L28.03039103515625,154.53033Q27.978158035156248,154.582563,27.91673903515625,154.623602Q27.85531903515625,154.664641,27.78707303515625,154.69291Q27.71882803515625,154.721178,27.64637903515625,154.735589Q27.57392943515625,154.75,27.50006091295125,154.75Q27.42619233515625,154.75,27.35374303515625,154.735589Q27.28129403515625,154.721178,27.21304803515625,154.692909Q27.14480303515625,154.664641,27.08338303515625,154.623602Q27.021964035156252,154.582563,26.96973103515625,154.53033Q26.91749803515625,154.478097,26.876459035156252,154.416678Q26.83542003515625,154.355258,26.80715103515625,154.287012Q26.77888303515625,154.218767,26.76447203515625,154.146318Q26.75006103515625,154.0738684,26.75006103515625,153.999999877795Q26.75006103515625,153.9261313,26.76447203515625,153.853682Q26.77888303515625,153.781233,26.80715203515625,153.712987Q26.83542003515625,153.644742,26.876459035156252,153.583322Q26.91749803515625,153.521903,26.96973103515625,153.46967ZM28.03039103515625,153.46967L32.80336103515625,158.24264Q32.85559103515625,158.29487,32.89663103515625,158.35629Q32.93767103515625,158.41771,32.96594103515625,158.48596Q32.99421103515625,158.5542,33.00862103515625,158.62665Q33.02303103515625,158.6991,33.02303103515625,158.77297Q33.02303103515625,158.84684,33.00862103515625,158.91929Q32.99421103515625,158.99174,32.96594103515625,159.05998Q32.93767103515625,159.12823,32.89663103515625,159.18965Q32.85559103515625,159.25107,32.80336103515625,159.3033Q32.75113103515625,159.35553,32.68971103515625,159.39657Q32.62829103515625,159.43761,32.56004103515625,159.46588Q32.49180103515625,159.49415,32.419351035156254,159.50856Q32.34690103515625,159.52297,32.27303103515625,159.52297Q32.19916103515625,159.52297,32.12671103515625,159.50856Q32.05426103515625,159.49415,31.98602103515625,159.46588Q31.91777103515625,159.43761,31.85635103515625,159.39657Q31.79493103515625,159.35553,31.74270103515625,159.3033L26.96973103515625,154.53033Q26.91749803515625,154.478097,26.876459035156252,154.416678Q26.83542003515625,154.355258,26.80715103515625,154.287013Q26.77888303515625,154.218767,26.76447203515625,154.146318Q26.75006103515625,154.0738687,26.75006103515625,154.000000122205Q26.75006103515625,153.9261316,26.76447203515625,153.853682Q26.77888303515625,153.781233,26.80715103515625,153.712988Q26.83542003515625,153.644742,26.876459035156252,153.583322Q26.91749803515625,153.521903,26.96973103515625,153.46967Q27.021964035156252,153.417437,27.08338303515625,153.376398Q27.14480303515625,153.335359,27.21304803515625,153.30709Q27.28129403515625,153.278822,27.35374303515625,153.264411Q27.42619233515625,153.25,27.50006091295125,153.25Q27.57392943515625,153.25,27.64637903515625,153.264411Q27.71882803515625,153.278822,27.78707303515625,153.30709Q27.85531903515625,153.335359,27.91673903515625,153.376398Q27.978158035156248,153.417437,28.03039103515625,153.46967Z" fill="#DDDDDD" fill-opacity="1"/></g><g style="mix-blend-mode:passthrough" transform="matrix(0,1,-1,0,653.5000610351562,-345.50006103515625)"><path d="M523.5000610351562,154.75L519.5000610351562,154.75L519.5000610351562,153.25L523.5000610351562,153.25M515.5000610351562,154.75L507.50006103515625,154.75L507.50006103515625,153.25L515.5000610351562,153.25M503.50006103515625,154.75L499.50006103515625,154.75L499.50006103515625,153.25L503.50006103515625,153.25M498.96973103515626,153.46967L503.74270103515624,148.6967Q503.79493103515625,148.64447,503.85635103515625,148.60343Q503.91777103515625,148.56239,503.9860210351562,148.53412Q504.05426103515623,148.50585,504.12671103515623,148.49144Q504.19916103515624,148.47703,504.27303103515624,148.47703Q504.34690103515624,148.47703,504.41935103515624,148.49144Q504.49180103515624,148.50585,504.56004103515625,148.53412Q504.6282910351562,148.56239,504.6897110351563,148.60343Q504.7511310351563,148.64447,504.80336103515623,148.6967Q504.85559103515624,148.74893,504.89663103515625,148.81035Q504.93767103515626,148.87177,504.9659410351563,148.94002Q504.99421103515624,149.00826,505.00862103515624,149.08071Q505.02303103515624,149.15316,505.02303103515624,149.22703Q505.02303103515624,149.3009,505.00862103515624,149.37335Q504.99421103515624,149.4458,504.9659410351563,149.51404Q504.93767103515626,149.58229,504.89663103515625,149.64371Q504.85559103515624,149.70513,504.80336103515623,149.75736L500.03039103515624,154.53033Q499.97815803515624,154.582563,499.91673903515624,154.623602Q499.85531903515624,154.664641,499.78707303515625,154.69291Q499.71882803515626,154.721178,499.64637903515626,154.735589Q499.57392943515623,154.75,499.50006091295126,154.75Q499.42619233515626,154.75,499.35374303515624,154.735589Q499.28129403515624,154.721178,499.21304803515625,154.692909Q499.14480303515626,154.664641,499.08338303515626,154.623602Q499.02196403515626,154.582563,498.96973103515626,154.53033Q498.91749803515626,154.478097,498.87645903515624,154.416678Q498.83542003515623,154.355258,498.80715103515627,154.287012Q498.77888303515624,154.218767,498.76447203515625,154.146318Q498.75006103515625,154.0738684,498.75006103515625,153.999999877795Q498.75006103515625,153.9261313,498.76447203515625,153.853682Q498.77888303515624,153.781233,498.80715203515626,153.712987Q498.83542003515623,153.644742,498.87645903515624,153.583322Q498.91749803515626,153.521903,498.96973103515626,153.46967ZM500.03039103515624,153.46967L504.80336103515623,158.24264Q504.85559103515624,158.29487,504.89663103515625,158.35629Q504.93767103515626,158.41771,504.9659410351563,158.48596Q504.99421103515624,158.5542,505.00862103515624,158.62665Q505.02303103515624,158.6991,505.02303103515624,158.77297Q505.02303103515624,158.84684,505.00862103515624,158.91929Q504.99421103515624,158.99174,504.9659410351563,159.05998Q504.93767103515626,159.12823,504.89663103515625,159.18965Q504.85559103515624,159.25107,504.80336103515623,159.3033Q504.7511310351563,159.35553,504.6897110351563,159.39657Q504.6282910351562,159.43761,504.56004103515625,159.46588Q504.49180103515624,159.49415,504.41935103515624,159.50856Q504.34690103515624,159.52297,504.27303103515624,159.52297Q504.19916103515624,159.52297,504.12671103515623,159.50856Q504.05426103515623,159.49415,503.9860210351562,159.46588Q503.91777103515625,159.43761,503.85635103515625,159.39657Q503.79493103515625,159.35553,503.74270103515624,159.3033L498.96973103515626,154.53033Q498.91749803515626,154.478097,498.87645903515624,154.416678Q498.83542003515623,154.355258,498.80715103515627,154.287013Q498.77888303515624,154.218767,498.76447203515625,154.146318Q498.75006103515625,154.0738687,498.75006103515625,154.000000122205Q498.75006103515625,153.9261316,498.76447203515625,153.853682Q498.77888303515624,153.781233,498.80715103515627,153.712988Q498.83542003515623,153.644742,498.87645903515624,153.583322Q498.91749803515626,153.521903,498.96973103515626,153.46967Q499.02196403515626,153.417437,499.08338303515626,153.376398Q499.14480303515626,153.335359,499.21304803515625,153.30709Q499.28129403515624,153.278822,499.35374303515624,153.264411Q499.42619233515626,153.25,499.50006091295126,153.25Q499.57392943515623,153.25,499.64637903515626,153.264411Q499.71882803515626,153.278822,499.78707303515625,153.30709Q499.85531903515624,153.335359,499.91673903515624,153.376398Q499.97815803515624,153.417437,500.03039103515624,153.46967Z" fill="#DDDDDD" fill-opacity="1"/></g><g style="mix-blend-mode:passthrough"><path d="M6.09961,236.4375Q7.58203,236.4375,8.47852,237.42773Q9.375,238.418,9.375,240.2344L9.375,246L7.75781,246L7.75781,240.6738Q7.75781,239.3438,7.23633,238.6289Q6.71484,237.9082,5.69531,237.9082Q5.0332,237.9082,4.44141,238.2246Q3.85547,238.5352,3.48633,239.1562Q3.11719,239.7773,3.11719,240.6914L3.11719,246L1.5,246L1.5,236.625L2.95312,236.625Q2.95312,237.55078,3.04688,238.2129Q3.51562,237.33984,4.3125,236.88867Q5.10938,236.4375,6.09961,236.4375ZM24.375,238.0957L16.125,238.0957L16.125,236.625L24.375,236.625L24.375,238.0957ZM24.375,241.875L16.125,241.875L16.125,240.4043L24.375,240.4043L24.375,241.875ZM34.3535,230.80078L34.3535,233.87695L35.9824,233.87695L35.9824,235.35938L34.3535,235.35938L34.3535,238.0723L35.6543,237.49805L35.7422,238.9512L34.3535,239.584L34.3535,245.2969Q34.3535,246.334,33.9551,246.7266Q33.5566,247.125,32.5664,247.125Q31.9746,247.125,31.4004,247.07229999999998L31.1426,245.64260000000002Q31.7871,245.7539,32.291,245.7539Q32.7422,245.7539,32.8945,245.5605Q33.0527,245.3672,33.0527,244.8457L33.0527,240.1699Q31.9863,240.6445,31.0137,241.0254L30.8555,239.5312Q31.8984,239.1211,33.0527,238.6289L33.0527,235.35938L31.125,235.35938L31.125,233.87695L33.0527,233.87695L33.0527,230.80078L34.3535,230.80078ZM42.2461,244.8633L45.1699,244.8633L45.1699,242.707L43.1016,242.707L43.1016,241.4648L45.1699,241.4648L45.1699,239.4023L43.0312,239.4023L43.0312,238.125L46.5,238.125L46.5,247.125L45.1699,247.125L45.1699,246.1641L38.0508,246.1641L38.0508,247.14260000000002L36.75,247.14260000000002L36.75,238.4121Q37.4883,238.2715,38.3145,238.0195Q39.1465,237.76172,39.7969,237.48633L40.1895,238.7168Q39.252,239.1738,38.0508,239.5137L38.0508,241.4648L40.0664,241.4648L40.0664,242.707L38.0508,242.707L38.0508,244.8633L40.875,244.8633L40.875,236.44336L36.5039,236.44336L36.5039,235.125L40.875,235.125L40.875,233.01562Q38.502,233.21484,36.8789,233.26758L36.75,231.97266Q38.6074,231.90234,41.5664,231.66211Q44.5254,231.41602,46.4648,231.14648L46.6992,232.44141Q44.6191,232.71094,42.2461,232.91016L42.2461,235.125L47.2031,235.125L47.2031,236.44336L42.2461,236.44336L42.2461,244.8633ZM57.7207,233.55469Q58.1543,237.47461,59.9414,240.4922Q61.7344,243.5098,65.2441,245.8828L64.2539,247.14260000000002Q61.3184,244.9805,59.5605,242.5723Q57.8086,240.1582,57,236.90039Q55.4355,242.5371,49.6758,247.17770000000002L48.5742,245.9531Q52.3359,243.1465,54.1348,240.082Q55.9395,237.01172,56.332,233.75391Q56.1562,233.47852,55.7871,233.36719Q55.418,233.25,54.7852,233.25L52.2305,233.25L52.2305,231.73242L55.3418,231.73242Q56.4961,231.73242,57.0645,232.14844Q57.6328,232.56445,57.7207,233.55469ZM82.4941,233.55469L82.4941,234.32227Q82.4941,236.63672,82.377,239.7363Q82.2598,242.8359,82.1016,244.834Q82.0312,245.7305,81.7793,246.2168Q81.5332,246.7031,81.0645,246.9023Q80.5957,247.10739999999998,79.793,247.14260000000002Q79.6055,247.1602,79.2305,247.1602Q78.9375,247.1602,78.5566,247.14260000000002Q78.1816,247.125,77.9707,247.10739999999998L77.4961,247.0664L77.25,245.5195Q78.5098,245.7363,79.2129,245.7363Q79.7578,245.7363,80.0449,245.6191Q80.3379,245.4961,80.502,245.1562Q80.666,244.8164,80.7363,244.1016Q81,240.9609,81,236.36133L81,234.94336L76.6523,234.94336Q76.0605,236.53711,75.5156,237.74414L74.291,236.87695Q74.9766,235.51172,75.5684,233.82422Q76.1602,232.13672,76.5117,230.625L77.918,230.91211Q77.5488,232.37109,77.1445,233.55469L82.4941,233.55469ZM71.8945,231.01758Q71.6426,232.20703,71.2148,233.71875L73.7988,233.71875L73.7988,246.668L67.5938,246.668L67.5938,233.71875L69.5625,233.71875Q70.0137,232.44141,70.3477,230.74805L71.8945,231.01758ZM69,238.875L72.375,238.875L72.375,235.125L69,235.125L69,238.875ZM78.3516,242.707Q77.7949,241.8105,76.9863,240.6855Q76.1836,239.5547,75.6211,238.8926L76.6699,238.0078Q77.25,238.6934,78.0469,239.7832Q78.8438,240.8672,79.4414,241.7578L78.3516,242.707ZM69,240.2637L69,245.25L72.375,245.25L72.375,240.2637L69,240.2637ZM84.668,238.2246Q88.2012,237.69141,91.1543,236.6543Q89.6074,235.82812,88.4004,234.81445Q87.2695,235.77539,85.916,236.63672L85.1543,235.45898Q86.6309,234.52148,88.0137,233.26172Q89.4023,231.99609,90.2695,230.8418L91.6172,231.50977Q91.2012,232.04883,90.8086,232.46484L98.9414,232.46484L98.9414,233.83008Q97.0898,235.47656,94.6582,236.67188Q95.9355,237.08203,97.4473,237.39844Q98.959,237.70898,101.086,238.0664L100.764,239.3906Q95.9531,238.6934,92.9121,237.46289Q89.6016,238.7988,85.0488,239.5898L84.668,238.2246ZM89.4434,233.88867Q90.9785,235.17188,92.8418,235.99219Q95.2734,234.95508,96.873,233.68945L89.6602,233.68945L89.4434,233.88867ZM100.166,241.7402L93.6855,241.7402L93.6855,244.9043Q93.6855,246.1289,93.2168,246.627Q92.7539,247.125,91.5996,247.125Q90.3809,247.125,89.4609,247.0137L89.1738,245.625Q90.2754,245.7539,91.0781,245.7539Q91.7637,245.7539,92.0039,245.4668Q92.25,245.1797,92.25,244.4355L92.25,241.7402L85.5,241.7402L85.5,240.375L92.25,240.375L92.25,238.6934L93.6855,238.6934L93.6855,240.375L100.166,240.375L100.166,241.7402ZM90.3281,243.2754Q88.5469,245.08010000000002,85.2832,246.9785L84.4922,245.625Q85.8926,244.9746,87.1816,244.0898Q88.4766,243.2051,89.4082,242.2441L90.3281,243.2754ZM95.666,242.3789Q95.9355,242.5195,98.5312,244.0312L100.922,245.4258L100.148,246.7793Q98.9414,245.9883,97.5117,245.0859Q96.082,244.17770000000002,94.9453,243.4922L95.666,242.3789ZM105,247.1836L105,231.80859L117,231.80859L117,247.125L115.547,247.125L115.547,246L106.477,246L106.477,247.1836L105,247.1836ZM115.547,236.25L115.547,233.25L106.477,233.25L106.477,236.25L115.547,236.25ZM115.547,240.375L115.547,237.63281L106.477,237.63281L106.477,240.375L115.547,240.375ZM106.477,241.7637L106.477,244.5938L115.547,244.5938L115.547,241.7637L106.477,241.7637ZM133.641,242.7422Q134.883,244.5586,137.115,246.2871L136.219,247.4941Q134.127,245.8008,132.85,243.9844Q131.678,245.6367,129.592,247.418L128.689,246.2344Q130.869,244.4707,132.041,242.666Q130.904,240.5156,130.312,237.5332Q130.184,237.78516,130.066,237.97852Q129.949,238.166,129.879,238.2891L128.889,237.20508Q129.75,235.81641,130.418,234.16406Q131.086,232.51172,131.426,230.89453L132.779,231.12305Q132.527,232.32422,132.006,233.8418L136.828,233.8418L136.828,235.2832L135.568,235.2832Q135.334,237.73828,134.883,239.5195Q134.432,241.3008,133.641,242.7422ZM120.621,238.9277Q121.559,238.3594,122.414,237.58008Q123.27,236.80078,123.92,235.91016L121.072,235.91016L121.072,234.72656L124.641,234.72656L124.641,231L125.918,231L125.918,234.72656L129.07,234.72656L129.07,235.91016L125.918,235.91016L125.918,236.16211L128.941,238.2129L128.273,239.209Q127.324,238.418,125.918,237.47461L125.918,239.3145L124.641,239.3145L124.641,236.70117Q124.008,237.63281,123.152,238.4883Q122.297,239.3438,121.324,240L120.621,238.9277ZM122.912,234.4043Q122.385,233.51953,121.307,232.00781L122.209,231.39844L123.885,233.77148L122.912,234.4043ZM129.305,232.04297Q128.49,233.23242,127.535,234.49219L126.604,233.82422Q127.611,232.49414,128.332,231.41602L129.305,232.04297ZM131.232,235.72852Q131.502,237.46289,131.865,238.8047Q132.234,240.1465,132.797,241.3008Q133.354,240.0938,133.705,238.6289Q134.062,237.16406,134.256,235.2832L131.426,235.2832L131.232,235.72852ZM128.115,246.5742Q127.289,246.05270000000002,125.883,245.332Q124.225,246.4688,121.107,247.459L120.516,246.2344Q123.129,245.4785,124.553,244.70510000000002Q123.217,244.0898,122.584,243.8203L121.863,243.498Q122.455,242.543,122.801,241.875L120.75,241.875L120.75,240.709L123.398,240.709Q123.773,239.7715,123.885,239.4492L125.215,239.8125Q124.998,240.4219,124.875,240.709L128.672,240.709L128.672,241.8223Q127.969,243.4219,126.961,244.4355Q127.793,244.8281,128.801,245.41989999999998L128.115,246.5742ZM123.703,243.0117Q124.025,243.1523,124.963,243.5332L125.771,243.873Q126.674,243.1172,127.213,241.875L124.318,241.875Q123.92,242.6309,123.703,243.0117Z" fill="#DDDDDD" fill-opacity="1"/></g><g style="mix-blend-mode:passthrough"><path d="M7.875,256.125L9.49219,256.125L9.49219,270L8.03906,270Q8.03906,269.0391,7.94531,268.377Q7.44141,269.291,6.60938,269.7422Q5.7832,270.1875,4.85156,270.1875Q3.7793,270.1875,2.83594,269.6133Q1.89844,269.0391,1.32422,267.9316Q0.75,266.8242,0.75,265.3125Q0.75,263.8184,1.32422,262.7109Q1.89844,261.60352,2.83594,261.02344Q3.7793,260.4375,4.85156,260.4375Q5.74219,260.4375,6.55078,260.85938Q7.35938,261.27539,7.875,262.1074L7.875,256.125ZM5.04492,268.7168Q6.19922,268.7168,7.03711,267.8965Q7.875,267.0703,7.875,265.3008Q7.875,263.5488,7.03711,262.7285Q6.19922,261.9082,5.04492,261.9082Q3.83203,261.9082,3.09961,262.8047Q2.36719,263.6953,2.36719,265.3008Q2.36719,266.9238,3.09961,267.8203Q3.83203,268.7168,5.04492,268.7168ZM24.75,262.0957L16.5,262.0957L16.5,260.625L24.75,260.625L24.75,262.0957ZM24.75,265.875L16.5,265.875L16.5,264.4043L24.75,264.4043L24.75,265.875ZM45.2754,255.06445L46.5527,255.06445L46.5527,268.834Q46.5527,271.125,44.707,271.125Q43.7578,271.125,42.6621,270.9961L42.4336,269.877Q43.6875,269.918,44.3086,269.918Q44.8242,269.918,45.0469,269.5781Q45.2754,269.2324,45.2754,268.5117L45.2754,255.06445ZM41.1504,255.74414L41.1504,261.9375L42.0879,261.9375L42.0879,263.2324L41.1504,263.2324L41.1504,269.4258Q41.1504,270.3398,40.8281,270.7324Q40.5059,271.125,39.7676,271.125Q39.0996,271.125,38.5957,271.0254L38.3613,269.6074Q39.0117,269.8477,39.3633,269.8477Q39.6914,269.8477,39.8145,269.6133Q39.9434,269.3789,39.9434,268.8691L39.9434,263.2324L38.4668,263.2324Q38.4492,265.2891,38.3145,266.6426Q38.1797,267.9961,37.9277,269.0098Q37.6816,270.0176,37.2129,271.2305L36.0586,270.8262Q36.5273,269.6602,36.7676,268.7461Q37.0137,267.8262,37.1191,266.5723Q37.2305,265.3184,37.2656,263.2324L36.0938,263.2324L36.0938,269.0566Q36.0938,269.9883,35.7949,270.3691Q35.502,270.75,34.6934,270.75Q34.0781,270.75,33.627,270.6621L33.375,269.3789Q34.0254,269.4902,34.3418,269.4902Q34.6289,269.4902,34.7754,269.2441Q34.9219,268.998,34.9219,268.5762L34.9219,263.2324L33.5566,263.2324Q33.5391,265.4355,33.4043,266.748Q33.2695,268.0547,32.9648,269.0215Q32.6602,269.9824,32.0449,271.1777L30.8906,270.6504Q31.4883,269.5195,31.7754,268.6582Q32.0625,267.791,32.1797,266.5957Q32.2969,265.4004,32.332,263.2324L31.125,263.2324L31.125,261.9375L32.332,261.9375L32.332,261.73828L32.332,255.74414L36.0938,255.74414L36.0938,261.9375L37.2656,261.9375L37.2656,261.73828L37.2656,255.74414L41.1504,255.74414ZM42.668,256.5L43.875,256.5L43.875,267.4277L42.668,267.4277L42.668,256.5ZM33.5566,257.03906L33.5566,261.9375L34.9219,261.9375L34.9219,257.03906L33.5566,257.03906ZM38.4668,257.03906L38.4668,261.9375L39.9434,261.9375L39.9434,257.03906L38.4668,257.03906ZM65.127,265.0078L60.9316,265.0078L60.9316,269.2148Q60.9316,270.2285,60.5332,270.6738Q60.1406,271.125,59.2559,271.125Q58.4531,271.125,57.5332,270.9785L57.2637,269.6367Q58.3066,269.8066,58.793,269.8066Q59.2617,269.8066,59.4316,269.6074Q59.6016,269.4023,59.6016,268.8691L59.6016,265.0078L55.5,265.0078L55.5,263.625L59.6016,263.625L59.6016,261.58008L56.9062,261.58008L56.9062,260.43164Q56.0273,261.16406,55.3477,261.65039L54.4336,260.48438Q57.8672,258.2168,59.5312,255.12305L60.9316,255.12305Q61.7402,256.57031,63.0645,257.97656Q64.3945,259.37695,66.0293,260.55469L65.1504,261.68555Q63.6328,260.61328,62.3496,259.25977Q61.0723,257.90039,60.2285,256.49414Q59.0098,258.52148,57.1055,260.25L63.3633,260.25L63.3633,261.58008L60.9316,261.58008L60.9316,263.625L65.127,263.625L65.127,265.0078ZM54.9199,265.7695Q54.9199,267.3047,54.4512,267.9023Q53.9824,268.5,52.9043,268.5Q52.4004,268.5,51.8789,268.3887L51.6094,267.0938Q52.0605,267.2402,52.6172,267.2402Q53.1738,267.2402,53.3965,266.8242Q53.625,266.4082,53.625,265.5234Q53.625,263.6953,52.3125,261.86719L53.6074,257.25L51.375,257.25L51.375,271.125L50.0391,271.125L50.0391,255.87891L54.9551,255.87891L54.9551,257.26758L53.5898,261.65039Q54.2871,262.8398,54.6035,263.8066Q54.9199,264.7734,54.9199,265.7695ZM62.9473,265.5645Q63.4688,266.3379,64.2598,267.5977Q65.0566,268.8574,65.6133,269.8066L64.4414,270.4746Q64.0605,269.7656,63.252,268.4297Q62.4434,267.0938,61.8867,266.2676L62.9473,265.5645ZM58.166,266.2207Q57.6211,267.2988,56.8066,268.5234Q55.9922,269.748,55.1953,270.6738L54.0938,269.8242Q54.873,269.0098,55.6465,267.8613Q56.4199,266.7129,56.9766,265.6113L58.166,266.2207ZM82.8691,257.55469L82.8691,258.32227Q82.8691,260.63672,82.752,263.7363Q82.6348,266.8359,82.4766,268.834Q82.4062,269.7305,82.1543,270.2168Q81.9082,270.7031,81.4395,270.9023Q80.9707,271.1074,80.168,271.1426Q79.9805,271.1602,79.6055,271.1602Q79.3125,271.1602,78.9316,271.1426Q78.5566,271.125,78.3457,271.1074L77.8711,271.0664L77.625,269.5195Q78.8848,269.7363,79.5879,269.7363Q80.1328,269.7363,80.4199,269.6191Q80.7129,269.4961,80.877,269.1562Q81.041,268.8164,81.1113,268.1016Q81.375,264.9609,81.375,260.36133L81.375,258.94336L77.0273,258.94336Q76.4355,260.53711,75.8906,261.74414L74.666,260.87695Q75.3516,259.51172,75.9434,257.82422Q76.5352,256.13672,76.8867,254.625L78.293,254.91211Q77.9238,256.37109,77.5195,257.55469L82.8691,257.55469ZM72.2695,255.01758Q72.0176,256.20703,71.5898,257.71875L74.1738,257.71875L74.1738,270.668L67.9688,270.668L67.9688,257.71875L69.9375,257.71875Q70.3887,256.44141,70.7227,254.74805L72.2695,255.01758ZM69.375,262.875L72.75,262.875L72.75,259.125L69.375,259.125L69.375,262.875ZM78.7266,266.707Q78.1699,265.8105,77.3613,264.6855Q76.5586,263.5547,75.9961,262.8926L77.0449,262.0078Q77.625,262.6934,78.4219,263.7832Q79.2188,264.8672,79.8164,265.7578L78.7266,266.707ZM69.375,264.2637L69.375,269.25L72.75,269.25L72.75,264.2637L69.375,264.2637ZM85.043,262.2246Q88.5762,261.69141,91.5293,260.6543Q89.9824,259.82812,88.7754,258.81445Q87.6445,259.77539,86.291,260.63672L85.5293,259.45898Q87.0059,258.52148,88.3887,257.26172Q89.7773,255.99609,90.6445,254.8418L91.9922,255.50977Q91.5762,256.04883,91.1836,256.46484L99.3164,256.46484L99.3164,257.83008Q97.4648,259.47656,95.0332,260.67188Q96.3105,261.08203,97.8223,261.39844Q99.334,261.70898,101.461,262.0664L101.139,263.3906Q96.3281,262.6934,93.2871,261.46289Q89.9766,262.7988,85.4238,263.5898L85.043,262.2246ZM89.8184,257.88867Q91.3535,259.17188,93.2168,259.99219Q95.6484,258.95508,97.248,257.68945L90.0352,257.68945L89.8184,257.88867ZM100.541,265.7402L94.0605,265.7402L94.0605,268.9043Q94.0605,270.1289,93.5918,270.627Q93.1289,271.125,91.9746,271.125Q90.7559,271.125,89.8359,271.0137L89.5488,269.625Q90.6504,269.7539,91.4531,269.7539Q92.1387,269.7539,92.3789,269.4668Q92.625,269.1797,92.625,268.4355L92.625,265.7402L85.875,265.7402L85.875,264.375L92.625,264.375L92.625,262.6934L94.0605,262.6934L94.0605,264.375L100.541,264.375L100.541,265.7402ZM90.7031,267.2754Q88.9219,269.0801,85.6582,270.9785L84.8672,269.625Q86.2676,268.9746,87.5566,268.0898Q88.8516,267.2051,89.7832,266.2441L90.7031,267.2754ZM96.041,266.3789Q96.3105,266.5195,98.9062,268.0312L101.297,269.4258L100.523,270.7793Q99.3164,269.9883,97.8867,269.0859Q96.457,268.1777,95.3203,267.4922L96.041,266.3789ZM105.375,271.1836L105.375,255.80859L117.375,255.80859L117.375,271.125L115.922,271.125L115.922,270L106.852,270L106.852,271.1836L105.375,271.1836ZM115.922,260.25L115.922,257.25L106.852,257.25L106.852,260.25L115.922,260.25ZM115.922,264.375L115.922,261.63281L106.852,261.63281L106.852,264.375L115.922,264.375ZM106.852,265.7637L106.852,268.5938L115.922,268.5938L115.922,265.7637L106.852,265.7637ZM134.016,266.7422Q135.258,268.5586,137.49,270.2871L136.594,271.4941Q134.502,269.8008,133.225,267.9844Q132.053,269.6367,129.967,271.418L129.064,270.2344Q131.244,268.4707,132.416,266.666Q131.279,264.5156,130.688,261.5332Q130.559,261.78516,130.441,261.97852Q130.324,262.166,130.254,262.2891L129.264,261.20508Q130.125,259.81641,130.793,258.16406Q131.461,256.51172,131.801,254.89453L133.154,255.12305Q132.902,256.32422,132.381,257.8418L137.203,257.8418L137.203,259.2832L135.943,259.2832Q135.709,261.73828,135.258,263.5195Q134.807,265.3008,134.016,266.7422ZM120.996,262.9277Q121.934,262.3594,122.789,261.58008Q123.645,260.80078,124.295,259.91016L121.447,259.91016L121.447,258.72656L125.016,258.72656L125.016,255L126.293,255L126.293,258.72656L129.445,258.72656L129.445,259.91016L126.293,259.91016L126.293,260.16211L129.316,262.2129L128.648,263.209Q127.699,262.418,126.293,261.47461L126.293,263.3145L125.016,263.3145L125.016,260.70117Q124.383,261.63281,123.527,262.4883Q122.672,263.3438,121.699,264L120.996,262.9277ZM123.287,258.4043Q122.76,257.51953,121.682,256.00781L122.584,255.39844L124.26,257.77148L123.287,258.4043ZM129.68,256.04297Q128.865,257.23242,127.91,258.49219L126.979,257.82422Q127.986,256.49414,128.707,255.41602L129.68,256.04297ZM131.607,259.72852Q131.877,261.46289,132.24,262.8047Q132.609,264.1465,133.172,265.3008Q133.729,264.0938,134.08,262.6289Q134.438,261.16406,134.631,259.2832L131.801,259.2832L131.607,259.72852ZM128.49,270.5742Q127.664,270.0527,126.258,269.332Q124.6,270.4688,121.482,271.459L120.891,270.2344Q123.504,269.4785,124.928,268.7051Q123.592,268.0898,122.959,267.8203L122.238,267.498Q122.83,266.543,123.176,265.875L121.125,265.875L121.125,264.709L123.773,264.709Q124.148,263.7715,124.26,263.4492L125.59,263.8125Q125.373,264.4219,125.25,264.709L129.047,264.709L129.047,265.8223Q128.344,267.4219,127.336,268.4355Q128.168,268.8281,129.176,269.4199L128.49,270.5742ZM124.078,267.0117Q124.4,267.1523,125.338,267.5332L126.146,267.873Q127.049,267.1172,127.588,265.875L124.693,265.875Q124.295,266.6309,124.078,267.0117Z" fill="#DDDDDD" fill-opacity="1"/></g></g></svg>