<svg xmlns="http://www.w3.org/2000/svg" xmlns:xlink="http://www.w3.org/1999/xlink" fill="none" version="1.1" width="842" height="118" viewBox="0 0 842 118"><g style="mix-blend-mode:passthrough"><g style="mix-blend-mode:passthrough"><path d="M107,32L107,37.333330000000004L105.5,37.333330000000004L105.5,32M107,42.6667L107,48L105.5,48L105.5,42.6667M0,48L0,42.6667L1.5,42.6667L1.5,48M0,37.333330000000004L0,32L1.5,32L1.5,37.333330000000004" fill="#DDDDDD" fill-opacity="1"/></g><g style="mix-blend-mode:passthrough"><path d="M527,32L527,37.333330000000004L525.5,37.333330000000004L525.5,32M527,42.6667L527,48L525.5,48L525.5,42.6667M420,48L420,42.6667L421.5,42.6667L421.5,48M420,37.333330000000004L420,32L421.5,32L421.5,37.333330000000004" fill="#DDDDDD" fill-opacity="1"/></g><g style="mix-blend-mode:passthrough"><path d="M211.99993896484375,32L211.99993896484375,37.333330000000004L210.49993896484375,37.333330000000004L210.49993896484375,32M211.99993896484375,42.6667L211.99993896484375,48L210.49993896484375,48L210.49993896484375,42.6667M104.99993896484375,48L104.99993896484375,42.6667L106.49993896484375,42.6667L106.49993896484375,48M104.99993896484375,37.333330000000004L104.99993896484375,32L106.49993896484375,32L106.49993896484375,37.333330000000004" fill="#DDDDDD" fill-opacity="1"/></g><g style="mix-blend-mode:passthrough"><path d="M632,32L632,37.333330000000004L630.5,37.333330000000004L630.5,32M632,42.6667L632,48L630.5,48L630.5,42.6667M525,48L525,42.6667L526.5,42.6667L526.5,48M525,37.333330000000004L525,32L526.5,32L526.5,37.333330000000004" fill="#DDDDDD" fill-opacity="1"/></g><g style="mix-blend-mode:passthrough"><path d="M317,32L317,37.333330000000004L315.5,37.333330000000004L315.5,32M317,42.6667L317,48L315.5,48L315.5,42.6667M210,48L210,42.6667L211.5,42.6667L211.5,48M210,37.333330000000004L210,32L211.5,32L211.5,37.333330000000004" fill="#DDDDDD" fill-opacity="1"/></g><g style="mix-blend-mode:passthrough"><path d="M737,32L737,37.333330000000004L735.5,37.333330000000004L735.5,32M737,42.6667L737,48L735.5,48L735.5,42.6667M630,48L630,42.6667L631.5,42.6667L631.5,48M630,37.333330000000004L630,32L631.5,32L631.5,37.333330000000004" fill="#DDDDDD" fill-opacity="1"/></g><g style="mix-blend-mode:passthrough"><path d="M422,32L422,37.333330000000004L420.5,37.333330000000004L420.5,32M422,42.6667L422,48L420.5,48L420.5,42.6667M315,48L315,42.6667L316.5,42.6667L316.5,48M315,37.333330000000004L315,32L316.5,32L316.5,37.333330000000004" fill="#DDDDDD" fill-opacity="1"/></g><g style="mix-blend-mode:passthrough"><path d="M57.8125,11.2734Q57.8125,14.6836,56.69336,16.4355Q55.58008,18.1875,53.49414,18.1875Q51.41992,18.1875,50.30078,16.4297Q49.1875,14.666,49.1875,11.2734Q49.1875,7.85742,50.30078,6.08789Q51.41992,4.3125,53.49414,4.3125Q55.58008,4.3125,56.69336,6.07617Q57.8125,7.83984,57.8125,11.2734ZM50.80469,11.2793Q50.80469,14.0273,51.45508,15.375Q52.11133,16.7168,53.49414,16.7168Q54.87109,16.7168,55.5332,15.3809Q56.19531,14.0449,56.19531,11.2793Q56.19531,8.49609,55.5332,7.14258Q54.87109,5.7832,53.49414,5.7832Q52.11133,5.7832,51.45508,7.14258Q50.80469,8.49609,50.80469,11.2793Z" fill="#DDDDDD" fill-opacity="1"/></g><g style="mix-blend-mode:passthrough"><path d="M476.6875,9.75L476.6875,13.5293L478.5625,13.5293L478.5625,15L476.6875,15L476.6875,18L475.07031,18L475.07031,15L469.1875,15L469.1875,13.8164L474.17969,4.5L475.94336,4.5L471.07422,13.5293L475.07031,13.5293L475.07031,9.75L476.6875,9.75Z" fill="#DDDDDD" fill-opacity="1"/></g><g style="mix-blend-mode:passthrough"><path d="M155.3125,8.47852L155.3125,6.78516L159.08008,4.5L160.30469,4.5L160.30469,18L158.6875,18L158.6875,6.46875L155.3125,8.47852Z" fill="#DDDDDD" fill-opacity="1"/></g><g style="mix-blend-mode:passthrough"><path d="M578.59375,9.4043Q579.74805,9.4043,580.65039,9.9668Q581.55859,10.5293,582.05664,11.5137Q582.55469,12.4922,582.55469,13.7402Q582.55469,15.0527,581.99805,16.0605Q581.44727,17.0684,580.48633,17.6309Q579.52539,18.1875,578.34766,18.1875Q577.04688,18.1875,576.03906,17.5254Q575.03125,16.8574,574.63867,15.5684L575.93359,14.8125Q576.25586,15.7559,576.87695,16.2363Q577.49805,16.7168,578.38281,16.7168Q579.57227,16.7168,580.25195,15.9023Q580.9375,15.0879,580.9375,13.8164Q580.9375,12.5801,580.28125,11.7305Q579.625,10.875,578.38281,10.875Q576.81836,10.875,575.93359,12.334L574.9082,11.8008L575.81055,4.5L581.99219,4.5L581.99219,5.9707L577.21094,5.9707L576.68945,9.91406Q577.46875,9.4043,578.59375,9.4043Z" fill="#DDDDDD" fill-opacity="1"/></g><g style="mix-blend-mode:passthrough"><path d="M261.63672,16.5293L267.4375,16.5293L267.4375,18L259.1875,18L259.1875,16.9395L263.45898,12.0879Q264.66016,10.7285,265.11133,9.94922Q265.5625,9.16992,265.5625,8.24414Q265.5625,7.06641,264.92969,6.42773Q264.30273,5.7832,263.34766,5.7832Q262.375,5.7832,261.63672,6.45703Q260.89844,7.125,260.57617,8.22656L259.27539,7.4707Q259.66797,5.9707,260.82812,5.14453Q261.98828,4.3125,263.41797,4.3125Q264.44922,4.3125,265.30469,4.76367Q266.16602,5.21484,266.66992,6.08789Q267.17969,6.95508,267.17969,8.17969Q267.17969,9.375,266.61133,10.4414Q266.04297,11.5078,264.61914,13.1191L261.63672,16.5293Z" fill="#DDDDDD" fill-opacity="1"/></g><g style="mix-blend-mode:passthrough"><path d="M683.96289,9.75Q685.11719,9.75,686.01953,10.3125Q686.92188,10.8691,687.42578,11.8301Q687.92969,12.7852,687.92969,13.9453Q687.92969,15.1348,687.39062,16.1133Q686.85742,17.0859,685.89062,17.6367Q684.92969,18.1875,683.74609,18.1875Q682.52734,18.1875,681.57227,17.6367Q680.61719,17.0859,680.08984,16.0957Q679.5625,15.0996,679.5625,13.8281Q679.5625,12.832,679.9082,11.9941Q680.25391,11.1562,681.05078,9.79688L684.15625,4.5L685.98438,4.5L683.24805,9.1582Q682.99023,9.57422,682.73828,9.93164Q683.28906,9.75,683.96289,9.75ZM683.75781,16.7168Q684.91797,16.7168,685.61523,15.9551Q686.3125,15.1934,686.3125,13.9805Q686.3125,12.7559,685.62109,11.9883Q684.93555,11.2207,683.75781,11.2207Q682.57422,11.2207,681.87695,11.9883Q681.17969,12.7559,681.17969,13.9805Q681.17969,15.2109,681.87695,15.9668Q682.57422,16.7168,683.75781,16.7168Z" fill="#DDDDDD" fill-opacity="1"/></g><g style="mix-blend-mode:passthrough"><path d="M370.39844,10.7227Q371.61719,11.1094,372.21484,11.9824Q372.8125,12.8555,372.8125,14.1387Q372.8125,15.3984,372.23242,16.3242Q371.6582,17.2441,370.69141,17.7188Q369.73047,18.1875,368.58789,18.1875Q367.14062,18.1875,365.91602,17.4316Q364.69141,16.6699,364.26953,15.2168L365.56445,14.4492Q365.92188,15.5684,366.7832,16.1426Q367.64453,16.7168,368.64062,16.7168Q369.73633,16.7168,370.46289,16.0371Q371.19531,15.3516,371.19531,14.1328Q371.19531,11.625,367.76758,11.625L367.1875,11.625L367.1875,10.1543L367.82617,10.1543Q369.16797,10.1543,369.86523,9.50391Q370.5625,8.85352,370.5625,7.83398Q370.5625,6.87305,369.9707,6.32812Q369.37891,5.7832,368.43555,5.7832Q367.46289,5.7832,366.7832,6.36328Q366.10938,6.94336,365.74609,8.0332L364.45117,7.28906Q364.87891,5.81836,365.95117,5.06836Q367.0293,4.3125,368.47656,4.3125Q370.15234,4.3125,371.16602,5.27344Q372.17969,6.23438,372.17969,7.79883Q372.17969,8.79492,371.74023,9.5625Q371.30664,10.3242,370.39844,10.7227Z" fill="#DDDDDD" fill-opacity="1"/></g><g style="mix-blend-mode:passthrough"><path d="M842,32L842,37.333330000000004L840.5,37.333330000000004L840.5,32M842,42.6667L842,48L840.5,48L840.5,42.6667M735,48L735,42.6667L736.5,42.6667L736.5,48M735,37.333330000000004L735,32L736.5,32L736.5,37.333330000000004" fill="#DDDDDD" fill-opacity="1"/></g><g style="mix-blend-mode:passthrough"><path d="M790.98438,5.9707L784.5625,5.9707L784.5625,4.5L792.8125,4.5L792.8125,5.54883L787.85547,18L786.08008,18L790.98438,5.9707Z" fill="#DDDDDD" fill-opacity="1"/></g><g style="mix-blend-mode:passthrough"><g style="mix-blend-mode:passthrough"><path d="M50.3125,78.47852L50.3125,76.78516L54.08008,74.5L55.30469,74.5L55.30469,88L53.6875,88L53.6875,76.46875L50.3125,78.47852Z" fill="#DDDDDD" fill-opacity="1"/></g><path d="M0,62L0,54L1.5,54L1.5,62L0,62ZM0,74L0,66L1.5,66L1.5,74L0,74ZM0,86L0,78L1.5,78L1.5,86L0,86ZM0,98L0,90L1.5,90L1.5,98L0,98ZM0,110L0,102L1.5,102L1.5,110L0,110ZM15.8519,118L7.92593,118L7.92593,116.5L15.8519,116.5L15.8519,118ZM27.7407,118L19.8148,118L19.8148,116.5L27.7407,116.5L27.7407,118ZM39.6296,118L31.7037,118L31.7037,116.5L39.6296,116.5L39.6296,118ZM51.5185,118L43.5926,118L43.5926,116.5L51.5185,116.5L51.5185,118ZM63.4074,118L55.4815,118L55.4815,116.5L63.4074,116.5L63.4074,118ZM75.2963,118L67.3704,118L67.3704,116.5L75.2963,116.5L75.2963,118ZM87.1852,118L79.2593,118L79.2593,116.5L87.1852,116.5L87.1852,118ZM99.0741,118L91.1481,118L91.1481,116.5L99.0741,116.5L99.0741,118ZM107,102L107,110L105.5,110L105.5,102L107,102ZM107,90L107,98L105.5,98L105.5,90L107,90ZM107,78L107,86L105.5,86L105.5,78L107,78ZM107,66L107,74L105.5,74L105.5,66L107,66ZM107,54L107,62L105.5,62L105.5,54L107,54ZM91.1481,46L99.0741,46L99.0741,47.5L91.1481,47.5L91.1481,46ZM79.2593,46L87.1852,46L87.1852,47.5L79.2593,47.5L79.2593,46ZM67.3704,46L75.2963,46L75.2963,47.5L67.3704,47.5L67.3704,46ZM55.4815,46L63.4074,46L63.4074,47.5L55.4815,47.5L55.4815,46ZM43.5926,46L51.5185,46L51.5185,47.5L43.5926,47.5L43.5926,46ZM31.7037,46L39.6296,46L39.6296,47.5L31.7037,47.5L31.7037,46ZM19.8148,46L27.7407,46L27.7407,47.5L19.8148,47.5L19.8148,46ZM7.92593,46L15.8519,46L15.8519,47.5L7.92593,47.5L7.92593,46ZM3.96296,46L3.96296,47.5L1.5,47.5L1.5,50L0,50L0,46L3.96296,46ZM103.037,46L107,46L107,50L105.5,50L105.5,47.5L103.037,47.5L103.037,46ZM107,114L107,118L103.037,118L103.037,116.5L105.5,116.5L105.5,114L107,114ZM3.96297,118L0,118L0,114L1.5,114L1.5,116.5L3.96297,116.5L3.96297,118Z" fill-rule="evenodd" fill="#DDDDDD" fill-opacity="1"/></g><g style="mix-blend-mode:passthrough"><g style="mix-blend-mode:passthrough"><path d="M153.62493896484375,74.5L163.37493896484375,74.5L163.37493896484375,75.9707L159.36712896484374,75.9707L159.36712896484374,88L157.74993896484375,88L157.74993896484375,75.9707L153.62493896484375,75.9707L153.62493896484375,74.5Z" fill="#DDDDDD" fill-opacity="1"/></g><path d="M104.99993896484375,62L104.99993896484375,54L106.49993896484375,54L106.49993896484375,62L104.99993896484375,62ZM104.99993896484375,74L104.99993896484375,66L106.49993896484375,66L106.49993896484375,74L104.99993896484375,74ZM104.99993896484375,86L104.99993896484375,78L106.49993896484375,78L106.49993896484375,86L104.99993896484375,86ZM104.99993896484375,98L104.99993896484375,90L106.49993896484375,90L106.49993896484375,98L104.99993896484375,98ZM104.99993896484375,110L104.99993896484375,102L106.49993896484375,102L106.49993896484375,110L104.99993896484375,110ZM120.85183896484375,118L112.92586896484374,118L112.92586896484374,116.5L120.85183896484375,116.5L120.85183896484375,118ZM132.74063896484375,118L124.81473896484376,118L124.81473896484376,116.5L132.74063896484375,116.5L132.74063896484375,118ZM144.62953896484376,118L136.70363896484375,118L136.70363896484375,116.5L144.62953896484376,116.5L144.62953896484376,118ZM156.51843896484377,118L148.59253896484375,118L148.59253896484375,116.5L156.51843896484377,116.5L156.51843896484377,118ZM168.40733896484375,118L160.48143896484373,118L160.48143896484373,116.5L168.40733896484375,116.5L168.40733896484375,118ZM180.29623896484375,118L172.37033896484377,118L172.37033896484377,116.5L180.29623896484375,116.5L180.29623896484375,118ZM192.18513896484376,118L184.25923896484375,118L184.25923896484375,116.5L192.18513896484376,116.5L192.18513896484376,118ZM204.07403896484374,118L196.14803896484375,118L196.14803896484375,116.5L204.07403896484374,116.5L204.07403896484374,118ZM211.99993896484375,102L211.99993896484375,110L210.49993896484375,110L210.49993896484375,102L211.99993896484375,102ZM211.99993896484375,90L211.99993896484375,98L210.49993896484375,98L210.49993896484375,90L211.99993896484375,90ZM211.99993896484375,78L211.99993896484375,86L210.49993896484375,86L210.49993896484375,78L211.99993896484375,78ZM211.99993896484375,66L211.99993896484375,74L210.49993896484375,74L210.49993896484375,66L211.99993896484375,66ZM211.99993896484375,54L211.99993896484375,62L210.49993896484375,62L210.49993896484375,54L211.99993896484375,54ZM196.14803896484375,46L204.07403896484374,46L204.07403896484374,47.5L196.14803896484375,47.5L196.14803896484375,46ZM184.25923896484375,46L192.18513896484376,46L192.18513896484376,47.5L184.25923896484375,47.5L184.25923896484375,46ZM172.37033896484377,46L180.29623896484375,46L180.29623896484375,47.5L172.37033896484377,47.5L172.37033896484377,46ZM160.48143896484373,46L168.40733896484375,46L168.40733896484375,47.5L160.48143896484373,47.5L160.48143896484373,46ZM148.59253896484375,46L156.51843896484377,46L156.51843896484377,47.5L148.59253896484375,47.5L148.59253896484375,46ZM136.70363896484375,46L144.62953896484376,46L144.62953896484376,47.5L136.70363896484375,47.5L136.70363896484375,46ZM124.81473896484376,46L132.74063896484375,46L132.74063896484375,47.5L124.81473896484376,47.5L124.81473896484376,46ZM112.92586896484374,46L120.85183896484375,46L120.85183896484375,47.5L112.92586896484374,47.5L112.92586896484374,46ZM108.96289896484375,46L108.96289896484375,47.5L106.49993896484375,47.5L106.49993896484375,50L104.99993896484375,50L104.99993896484375,46L108.96289896484375,46ZM208.03693896484376,46L211.99993896484375,46L211.99993896484375,50L210.49993896484375,50L210.49993896484375,47.5L208.03693896484376,47.5L208.03693896484376,46ZM211.99993896484375,114L211.99993896484375,118L208.03693896484376,118L208.03693896484376,116.5L210.49993896484375,116.5L210.49993896484375,114L211.99993896484375,114ZM108.96290896484375,118L104.99993896484375,118L104.99993896484375,114L106.49993896484375,114L106.49993896484375,116.5L108.96290896484375,116.5L108.96290896484375,118Z" fill-rule="evenodd" fill="#DDDDDD" fill-opacity="1"/></g><g style="mix-blend-mode:passthrough"><g style="mix-blend-mode:passthrough"><path d="M494.4766,84.5078Q492.9473,84.5957,489.88281,84.7422L489.88281,87.0566Q489.88281,88.1641,489.48438,88.6211Q489.08594,89.084,488.22461,89.125Q487.44531,89.1426,486.33789,89.0488L486.08594,87.7422Q486.23242,87.7598,486.76562,87.8301Q487.29883,87.9004,487.76758,87.9004Q488.13086,87.9004,488.29492,87.6016Q488.45898,87.2969,488.45898,86.6758L488.45898,84.8301L483.91797,85.0469L482.01953,85.1523L481.80273,83.875Q483.19727,83.875,483.58984,83.7461Q485.61133,83.0898,488.20117,81.6602Q486.75391,81.7656,484.14648,81.9473L482.91602,82.0469L482.72266,81.0508Q483.73633,80.9629,484.09375,80.8164Q485.23633,80.3535,487.78516,78.38477L483.0625,78.38477L483.0625,80.3652L481.58594,80.3652L481.58594,77.125L488.3125,77.125L488.3125,75.625L482.01953,75.625L482.01953,74.36523L488.3125,74.36523L488.3125,72.87109L489.73633,72.87109L489.73633,74.36523L496.123,74.36523L496.123,75.625L489.73633,75.625L489.73633,77.125L496.5391,77.125L496.5391,80.4004L495.0625,80.4004L495.0625,78.38477L489.68359,78.38477Q488.99805,78.95898,488.02539,79.67383Q487.05859,80.3828,486.35547,80.8516L490.1816,80.541Q491.752,79.5918,492.6719,78.94141L493.457,80.0078Q491.3887,81.3789,489.89453,82.2578Q488.40039,83.1309,486.93555,83.6992L493.2402,83.3184Q492.4141,82.5508,492.0508,82.252L492.9824,81.373Q495.2852,83.4473,496.4277,84.7188L495.5664,85.6504Q495.3496,85.3984,494.7695,84.7949Q494.7695,84.7949,494.4766,84.5078ZM486.32031,86.3301Q485.27734,87.0449,483.92969,87.7656Q482.58203,88.4863,481.29883,89.0371L480.742188,87.7246Q481.97266,87.2441,483.34961,86.5293Q484.73242,85.8086,485.63477,85.1523L486.32031,86.3301ZM491.9219,85.1348Q493.2109,85.75,496.3691,87.332L497.2012,87.7422L496.5742,88.9961Q495.6836,88.498,494.0137,87.6719Q492.3438,86.8398,491.2715,86.3418L491.9219,85.1348ZM511.9082,72.97656L513.4375,72.97656L513.4375,89.125L511.9082,89.125L511.9082,72.97656ZM508.1875,73.75L508.1875,79.24609L501.9414,79.24609L501.7305,81.625L508.2812,81.625Q508.2637,83.8574,507.9355,86.4062Q507.7949,87.502,507.4785,88.0703Q507.1621,88.6445,506.5117,88.8848Q505.8672,89.125,504.7188,89.125Q503.418,89.125,501.8887,88.9434L501.6016,87.5078Q503.3301,87.7715,504.6426,87.7715Q505.5098,87.7715,505.9023,87.3789Q506.3008,86.9863,506.4414,85.9961Q506.6758,84.4023,506.752,83.0254L500.1074,83.0254L500.541,77.875L506.6582,77.875L506.6582,75.13867L500.125,75.13867L500.125,73.75L508.1875,73.75ZM528.0332,81.3379Q528.0332,78.79492,528.877,76.64453Q529.7266,74.49414,531.2031,73L532.6562,73Q531.2031,74.76367,530.418,76.80859Q529.6328,78.85352,529.6328,81.3379Q529.6328,83.8398,530.418,85.8906Q531.2031,87.9414,532.6562,89.6699L531.2031,89.6699Q529.7266,88.1758,528.877,86.0371Q528.0332,83.8926,528.0332,81.3379ZM539.5879,79.75Q540.7422,79.75,541.6445,80.3125Q542.5469,80.8691,543.0508,81.8301Q543.5547,82.7852,543.5547,83.9453Q543.5547,85.1348,543.0156,86.1133Q542.4824,87.0859,541.5156,87.6367Q540.5547,88.1875,539.3711,88.1875Q538.1523,88.1875,537.1973,87.6367Q536.2422,87.0859,535.7148,86.0957Q535.1875,85.0996,535.1875,83.8281Q535.1875,82.832,535.5332,81.9941Q535.8789,81.1562,536.6758,79.79688L539.7812,74.5L541.6094,74.5L538.873,79.1582Q538.6152,79.57422,538.3633,79.93164Q538.9141,79.75,539.5879,79.75ZM539.3828,86.7168Q540.543,86.7168,541.2402,85.9551Q541.9375,85.1934,541.9375,83.9805Q541.9375,82.7559,541.2461,81.9883Q540.5605,81.2207,539.3828,81.2207Q538.1992,81.2207,537.502,81.9883Q536.8047,82.7559,536.8047,83.9805Q536.8047,85.2109,537.502,85.9668Q538.1992,86.7168,539.3828,86.7168ZM548.3125,77.125L549.8125,77.125L549.8125,80.875L553.1875,80.875L553.1875,82.3457L549.8125,82.3457L549.8125,85.75L548.3125,85.75L548.3125,82.3457L544.9375,82.3457L544.9375,80.875L548.3125,80.875L548.3125,77.125ZM559.9668,81.3379Q559.9668,83.875,559.1172,86.0254Q558.2734,88.1758,556.7969,89.6699L555.3438,89.6699Q556.7969,87.9062,557.582,85.8672Q558.3672,83.8223,558.3672,81.3379Q558.3672,78.83594,557.582,76.78516Q556.7969,74.72852,555.3438,73L556.7969,73Q558.2734,74.49414,559.1172,76.63867Q559.9668,78.77734,559.9668,81.3379Z" fill="#DDDDDD" fill-opacity="1"/></g><path d="M210,62L210,54L211.5,54L211.5,62L210,62ZM210,74L210,66L211.5,66L211.5,74L210,74ZM210,86L210,78L211.5,78L211.5,86L210,86ZM210,98L210,90L211.5,90L211.5,98L210,98ZM210,110L210,102L211.5,102L211.5,110L210,110ZM225.899,118L217.94934,118L217.94934,116.5L225.899,116.5L225.899,118ZM237.8236,118L229.8739,118L229.8739,116.5L237.8236,116.5L237.8236,118ZM249.7482,118L241.7985,118L241.7985,116.5L249.7482,116.5L249.7482,118ZM261.6727,118L253.723,118L253.723,116.5L261.6727,116.5L261.6727,118ZM273.5973,118L265.6476,118L265.6476,116.5L273.5973,116.5L273.5973,118ZM285.5219,118L277.5721,118L277.5721,116.5L285.5219,116.5L285.5219,118ZM297.4464,118L289.49670000000003,118L289.49670000000003,116.5L297.4464,116.5L297.4464,118ZM309.371,118L301.4213,118L301.4213,116.5L309.371,116.5L309.371,118ZM321.296,118L313.346,118L313.346,116.5L321.296,116.5L321.296,118ZM333.22,118L325.27,118L325.27,116.5L333.22,116.5L333.22,118ZM345.145,118L337.195,118L337.195,116.5L345.145,116.5L345.145,118ZM357.06899999999996,118L349.119,118L349.119,116.5L357.06899999999996,116.5L357.06899999999996,118ZM368.994,118L361.044,118L361.044,116.5L368.994,116.5L368.994,118ZM380.918,118L372.969,118L372.969,116.5L380.918,116.5L380.918,118ZM392.84299999999996,118L384.89300000000003,118L384.89300000000003,116.5L392.84299999999996,116.5L392.84299999999996,118ZM404.767,118L396.818,118L396.818,116.5L404.767,116.5L404.767,118ZM416.692,118L408.74199999999996,118L408.74199999999996,116.5L416.692,116.5L416.692,118ZM428.616,118L420.66700000000003,118L420.66700000000003,116.5L428.616,116.5L428.616,118ZM440.541,118L432.591,118L432.591,116.5L440.541,116.5L440.541,118ZM452.46500000000003,118L444.51599999999996,118L444.51599999999996,116.5L452.46500000000003,116.5L452.46500000000003,118ZM464.39,118L456.44,118L456.44,116.5L464.39,116.5L464.39,118ZM476.314,118L468.365,118L468.365,116.5L476.314,116.5L476.314,118ZM488.239,118L480.289,118L480.289,116.5L488.239,116.5L488.239,118ZM500.163,118L492.214,118L492.214,116.5L500.163,116.5L500.163,118ZM512.088,118L504.138,118L504.138,116.5L512.088,116.5L512.088,118ZM524.0129999999999,118L516.063,118L516.063,116.5L524.0129999999999,116.5L524.0129999999999,118ZM535.937,118L527.9870000000001,118L527.9870000000001,116.5L535.937,116.5L535.937,118ZM547.8620000000001,118L539.912,118L539.912,116.5L547.8620000000001,116.5L547.8620000000001,118ZM559.7860000000001,118L551.836,118L551.836,116.5L559.7860000000001,116.5L559.7860000000001,118ZM571.711,118L563.761,118L563.761,116.5L571.711,116.5L571.711,118ZM583.635,118L575.6859999999999,118L575.6859999999999,116.5L583.635,116.5L583.635,118ZM595.56,118L587.61,118L587.61,116.5L595.56,116.5L595.56,118ZM607.4839999999999,118L599.5350000000001,118L599.5350000000001,116.5L607.4839999999999,116.5L607.4839999999999,118ZM619.409,118L611.4590000000001,118L611.4590000000001,116.5L619.409,116.5L619.409,118ZM631.3330000000001,118L623.384,118L623.384,116.5L631.3330000000001,116.5L631.3330000000001,118ZM643.258,118L635.308,118L635.308,116.5L643.258,116.5L643.258,118ZM655.182,118L647.233,118L647.233,116.5L655.182,116.5L655.182,118ZM667.107,118L659.1569999999999,118L659.1569999999999,116.5L667.107,116.5L667.107,118ZM679.031,118L671.082,118L671.082,116.5L679.031,116.5L679.031,118ZM690.956,118L683.006,118L683.006,116.5L690.956,116.5L690.956,118ZM702.88,118L694.931,118L694.931,116.5L702.88,116.5L702.88,118ZM714.8050000000001,118L706.855,118L706.855,116.5L714.8050000000001,116.5L714.8050000000001,118ZM726.73,118L718.78,118L718.78,116.5L726.73,116.5L726.73,118ZM738.654,118L730.704,118L730.704,116.5L738.654,116.5L738.654,118ZM750.579,118L742.629,118L742.629,116.5L750.579,116.5L750.579,118ZM762.503,118L754.553,118L754.553,116.5L762.503,116.5L762.503,118ZM774.428,118L766.478,118L766.478,116.5L774.428,116.5L774.428,118ZM786.352,118L778.403,118L778.403,116.5L786.352,116.5L786.352,118ZM798.277,118L790.327,118L790.327,116.5L798.277,116.5L798.277,118ZM810.201,118L802.252,118L802.252,116.5L810.201,116.5L810.201,118ZM822.126,118L814.176,118L814.176,116.5L822.126,116.5L822.126,118ZM834.05,118L826.101,118L826.101,116.5L834.05,116.5L834.05,118ZM842,102L842,110L840.5,110L840.5,102L842,102ZM842,90L842,98L840.5,98L840.5,90L842,90ZM842,78L842,86L840.5,86L840.5,78L842,78ZM842,66L842,74L840.5,74L840.5,66L842,66ZM842,54L842,62L840.5,62L840.5,54L842,54ZM826.101,46L834.051,46L834.051,47.5L826.101,47.5L826.101,46ZM814.176,46L822.126,46L822.126,47.5L814.176,47.5L814.176,46ZM802.252,46L810.202,46L810.202,47.5L802.252,47.5L802.252,46ZM790.327,46L798.277,46L798.277,47.5L790.327,47.5L790.327,46ZM778.403,46L786.352,46L786.352,47.5L778.403,47.5L778.403,46ZM766.478,46L774.428,46L774.428,47.5L766.478,47.5L766.478,46ZM754.554,46L762.503,46L762.503,47.5L754.554,47.5L754.554,46ZM742.629,46L750.579,46L750.579,47.5L742.629,47.5L742.629,46ZM730.704,46L738.654,46L738.654,47.5L730.704,47.5L730.704,46ZM718.78,46L726.73,46L726.73,47.5L718.78,47.5L718.78,46ZM706.855,46L714.8050000000001,46L714.8050000000001,47.5L706.855,47.5L706.855,46ZM694.931,46L702.881,46L702.881,47.5L694.931,47.5L694.931,46ZM683.006,46L690.956,46L690.956,47.5L683.006,47.5L683.006,46ZM671.082,46L679.031,46L679.031,47.5L671.082,47.5L671.082,46ZM659.1569999999999,46L667.107,46L667.107,47.5L659.1569999999999,47.5L659.1569999999999,46ZM647.233,46L655.182,46L655.182,47.5L647.233,47.5L647.233,46ZM635.308,46L643.258,46L643.258,47.5L635.308,47.5L635.308,46ZM623.384,46L631.3330000000001,46L631.3330000000001,47.5L623.384,47.5L623.384,46ZM611.4590000000001,46L619.409,46L619.409,47.5L611.4590000000001,47.5L611.4590000000001,46ZM599.5350000000001,46L607.4839999999999,46L607.4839999999999,47.5L599.5350000000001,47.5L599.5350000000001,46ZM587.61,46L595.56,46L595.56,47.5L587.61,47.5L587.61,46ZM575.6859999999999,46L583.635,46L583.635,47.5L575.6859999999999,47.5L575.6859999999999,46ZM563.761,46L571.711,46L571.711,47.5L563.761,47.5L563.761,46ZM551.837,46L559.7860000000001,46L559.7860000000001,47.5L551.837,47.5L551.837,46ZM539.912,46L547.8620000000001,46L547.8620000000001,47.5L539.912,47.5L539.912,46ZM527.9870000000001,46L535.937,46L535.937,47.5L527.9870000000001,47.5L527.9870000000001,46ZM516.063,46L524.0129999999999,46L524.0129999999999,47.5L516.063,47.5L516.063,46ZM504.138,46L512.088,46L512.088,47.5L504.138,47.5L504.138,46ZM492.214,46L500.164,46L500.164,47.5L492.214,47.5L492.214,46ZM480.289,46L488.239,46L488.239,47.5L480.289,47.5L480.289,46ZM468.365,46L476.314,46L476.314,47.5L468.365,47.5L468.365,46ZM456.44,46L464.39,46L464.39,47.5L456.44,47.5L456.44,46ZM444.51599999999996,46L452.46500000000003,46L452.46500000000003,47.5L444.51599999999996,47.5L444.51599999999996,46ZM432.591,46L440.541,46L440.541,47.5L432.591,47.5L432.591,46ZM420.66700000000003,46L428.616,46L428.616,47.5L420.66700000000003,47.5L420.66700000000003,46ZM408.74199999999996,46L416.692,46L416.692,47.5L408.74199999999996,47.5L408.74199999999996,46ZM396.818,46L404.767,46L404.767,47.5L396.818,47.5L396.818,46ZM384.89300000000003,46L392.84299999999996,46L392.84299999999996,47.5L384.89300000000003,47.5L384.89300000000003,46ZM372.969,46L380.918,46L380.918,47.5L372.969,47.5L372.969,46ZM361.044,46L368.994,46L368.994,47.5L361.044,47.5L361.044,46ZM349.12,46L357.06899999999996,46L357.06899999999996,47.5L349.12,47.5L349.12,46ZM337.195,46L345.145,46L345.145,47.5L337.195,47.5L337.195,46ZM325.27,46L333.22,46L333.22,47.5L325.27,47.5L325.27,46ZM313.346,46L321.296,46L321.296,47.5L313.346,47.5L313.346,46ZM301.4214,46L309.3711,46L309.3711,47.5L301.4214,47.5L301.4214,46ZM289.4969,46L297.4465,46L297.4465,47.5L289.4969,47.5L289.4969,46ZM277.5723,46L285.522,46L285.522,47.5L277.5723,47.5L277.5723,46ZM265.6478,46L273.59749999999997,46L273.59749999999997,47.5L265.6478,47.5L265.6478,46ZM253.7233,46L261.673,46L261.673,47.5L253.7233,47.5L253.7233,46ZM241.7987,46L249.7484,46L249.7484,47.5L241.7987,47.5L241.7987,46ZM229.8742,46L237.8239,46L237.8239,47.5L229.8742,47.5L229.8742,46ZM217.94969,46L225.8994,46L225.8994,47.5L217.94969,47.5L217.94969,46ZM213.97484,46L213.97484,47.5L211.5,47.5L211.5,50L210,50L210,46L213.97484,46ZM838.026,46L842,46L842,50L840.5,50L840.5,47.5L838.026,47.5L838.026,46ZM842,114L842,118L838.025,118L838.025,116.5L840.5,116.5L840.5,114L842,114ZM213.97449,118L210,118L210,114L211.5,114L211.5,116.5L213.97449,116.5L213.97449,118Z" fill-rule="evenodd" fill="#DDDDDD" fill-opacity="1"/></g></g></svg>