<svg xmlns="http://www.w3.org/2000/svg" xmlns:xlink="http://www.w3.org/1999/xlink" fill="none" version="1.1" width="842" height="118" viewBox="0 0 842 118"><g style="mix-blend-mode:passthrough"><g style="mix-blend-mode:passthrough"><path d="M107,32L107,37.333330000000004L105.5,37.333330000000004L105.5,32M107,42.6667L107,48L105.5,48L105.5,42.6667M0,48L0,42.6667L1.5,42.6667L1.5,48M0,37.333330000000004L0,32L1.5,32L1.5,37.333330000000004" fill="#DDDDDD" fill-opacity="1"/></g><g style="mix-blend-mode:passthrough"><path d="M527,32L527,37.333330000000004L525.5,37.333330000000004L525.5,32M527,42.6667L527,48L525.5,48L525.5,42.6667M420,48L420,42.6667L421.5,42.6667L421.5,48M420,37.333330000000004L420,32L421.5,32L421.5,37.333330000000004" fill="#DDDDDD" fill-opacity="1"/></g><g style="mix-blend-mode:passthrough"><path d="M211.99993896484375,32L211.99993896484375,37.333330000000004L210.49993896484375,37.333330000000004L210.49993896484375,32M211.99993896484375,42.6667L211.99993896484375,48L210.49993896484375,48L210.49993896484375,42.6667M104.99993896484375,48L104.99993896484375,42.6667L106.49993896484375,42.6667L106.49993896484375,48M104.99993896484375,37.333330000000004L104.99993896484375,32L106.49993896484375,32L106.49993896484375,37.333330000000004" fill="#DDDDDD" fill-opacity="1"/></g><g style="mix-blend-mode:passthrough"><path d="M632,32L632,37.333330000000004L630.5,37.333330000000004L630.5,32M632,42.6667L632,48L630.5,48L630.5,42.6667M525,48L525,42.6667L526.5,42.6667L526.5,48M525,37.333330000000004L525,32L526.5,32L526.5,37.333330000000004" fill="#DDDDDD" fill-opacity="1"/></g><g style="mix-blend-mode:passthrough"><path d="M317,32L317,37.333330000000004L315.5,37.333330000000004L315.5,32M317,42.6667L317,48L315.5,48L315.5,42.6667M210,48L210,42.6667L211.5,42.6667L211.5,48M210,37.333330000000004L210,32L211.5,32L211.5,37.333330000000004" fill="#DDDDDD" fill-opacity="1"/></g><g style="mix-blend-mode:passthrough"><path d="M737,32L737,37.333330000000004L735.5,37.333330000000004L735.5,32M737,42.6667L737,48L735.5,48L735.5,42.6667M630,48L630,42.6667L631.5,42.6667L631.5,48M630,37.333330000000004L630,32L631.5,32L631.5,37.333330000000004" fill="#DDDDDD" fill-opacity="1"/></g><g style="mix-blend-mode:passthrough"><path d="M422,32L422,37.333330000000004L420.5,37.333330000000004L420.5,32M422,42.6667L422,48L420.5,48L420.5,42.6667M315,48L315,42.6667L316.5,42.6667L316.5,48M315,37.333330000000004L315,32L316.5,32L316.5,37.333330000000004" fill="#DDDDDD" fill-opacity="1"/></g><g style="mix-blend-mode:passthrough"><path d="M57.8125,11.2734Q57.8125,14.6836,56.69336,16.4355Q55.58008,18.1875,53.49414,18.1875Q51.41992,18.1875,50.30078,16.4297Q49.1875,14.666,49.1875,11.2734Q49.1875,7.85742,50.30078,6.08789Q51.41992,4.3125,53.49414,4.3125Q55.58008,4.3125,56.69336,6.07617Q57.8125,7.83984,57.8125,11.2734ZM50.80469,11.2793Q50.80469,14.0273,51.45508,15.375Q52.11133,16.7168,53.49414,16.7168Q54.87109,16.7168,55.5332,15.3809Q56.19531,14.0449,56.19531,11.2793Q56.19531,8.49609,55.5332,7.14258Q54.87109,5.7832,53.49414,5.7832Q52.11133,5.7832,51.45508,7.14258Q50.80469,8.49609,50.80469,11.2793Z" fill="#DDDDDD" fill-opacity="1"/></g><g style="mix-blend-mode:passthrough"><path d="M476.6875,9.75L476.6875,13.5293L478.5625,13.5293L478.5625,15L476.6875,15L476.6875,18L475.07031,18L475.07031,15L469.1875,15L469.1875,13.8164L474.17969,4.5L475.94336,4.5L471.07422,13.5293L475.07031,13.5293L475.07031,9.75L476.6875,9.75Z" fill="#DDDDDD" fill-opacity="1"/></g><g style="mix-blend-mode:passthrough"><path d="M155.3125,8.47852L155.3125,6.78516L159.08008,4.5L160.30469,4.5L160.30469,18L158.6875,18L158.6875,6.46875L155.3125,8.47852Z" fill="#DDDDDD" fill-opacity="1"/></g><g style="mix-blend-mode:passthrough"><path d="M578.59375,9.4043Q579.74805,9.4043,580.65039,9.9668Q581.55859,10.5293,582.05664,11.5137Q582.55469,12.4922,582.55469,13.7402Q582.55469,15.0527,581.99805,16.0605Q581.44727,17.0684,580.48633,17.6309Q579.52539,18.1875,578.34766,18.1875Q577.04688,18.1875,576.03906,17.5254Q575.03125,16.8574,574.63867,15.5684L575.93359,14.8125Q576.25586,15.7559,576.87695,16.2363Q577.49805,16.7168,578.38281,16.7168Q579.57227,16.7168,580.25195,15.9023Q580.9375,15.0879,580.9375,13.8164Q580.9375,12.5801,580.28125,11.7305Q579.625,10.875,578.38281,10.875Q576.81836,10.875,575.93359,12.334L574.9082,11.8008L575.81055,4.5L581.99219,4.5L581.99219,5.9707L577.21094,5.9707L576.68945,9.91406Q577.46875,9.4043,578.59375,9.4043Z" fill="#DDDDDD" fill-opacity="1"/></g><g style="mix-blend-mode:passthrough"><path d="M261.63672,16.5293L267.4375,16.5293L267.4375,18L259.1875,18L259.1875,16.9395L263.45898,12.0879Q264.66016,10.7285,265.11133,9.94922Q265.5625,9.16992,265.5625,8.24414Q265.5625,7.06641,264.92969,6.42773Q264.30273,5.7832,263.34766,5.7832Q262.375,5.7832,261.63672,6.45703Q260.89844,7.125,260.57617,8.22656L259.27539,7.4707Q259.66797,5.9707,260.82812,5.14453Q261.98828,4.3125,263.41797,4.3125Q264.44922,4.3125,265.30469,4.76367Q266.16602,5.21484,266.66992,6.08789Q267.17969,6.95508,267.17969,8.17969Q267.17969,9.375,266.61133,10.4414Q266.04297,11.5078,264.61914,13.1191L261.63672,16.5293Z" fill="#DDDDDD" fill-opacity="1"/></g><g style="mix-blend-mode:passthrough"><path d="M683.96289,9.75Q685.11719,9.75,686.01953,10.3125Q686.92188,10.8691,687.42578,11.8301Q687.92969,12.7852,687.92969,13.9453Q687.92969,15.1348,687.39062,16.1133Q686.85742,17.0859,685.89062,17.6367Q684.92969,18.1875,683.74609,18.1875Q682.52734,18.1875,681.57227,17.6367Q680.61719,17.0859,680.08984,16.0957Q679.5625,15.0996,679.5625,13.8281Q679.5625,12.832,679.9082,11.9941Q680.25391,11.1562,681.05078,9.79688L684.15625,4.5L685.98438,4.5L683.24805,9.1582Q682.99023,9.57422,682.73828,9.93164Q683.28906,9.75,683.96289,9.75ZM683.75781,16.7168Q684.91797,16.7168,685.61523,15.9551Q686.3125,15.1934,686.3125,13.9805Q686.3125,12.7559,685.62109,11.9883Q684.93555,11.2207,683.75781,11.2207Q682.57422,11.2207,681.87695,11.9883Q681.17969,12.7559,681.17969,13.9805Q681.17969,15.2109,681.87695,15.9668Q682.57422,16.7168,683.75781,16.7168Z" fill="#DDDDDD" fill-opacity="1"/></g><g style="mix-blend-mode:passthrough"><path d="M370.39844,10.7227Q371.61719,11.1094,372.21484,11.9824Q372.8125,12.8555,372.8125,14.1387Q372.8125,15.3984,372.23242,16.3242Q371.6582,17.2441,370.69141,17.7188Q369.73047,18.1875,368.58789,18.1875Q367.14062,18.1875,365.91602,17.4316Q364.69141,16.6699,364.26953,15.2168L365.56445,14.4492Q365.92188,15.5684,366.7832,16.1426Q367.64453,16.7168,368.64062,16.7168Q369.73633,16.7168,370.46289,16.0371Q371.19531,15.3516,371.19531,14.1328Q371.19531,11.625,367.76758,11.625L367.1875,11.625L367.1875,10.1543L367.82617,10.1543Q369.16797,10.1543,369.86523,9.50391Q370.5625,8.85352,370.5625,7.83398Q370.5625,6.87305,369.9707,6.32812Q369.37891,5.7832,368.43555,5.7832Q367.46289,5.7832,366.7832,6.36328Q366.10938,6.94336,365.74609,8.0332L364.45117,7.28906Q364.87891,5.81836,365.95117,5.06836Q367.0293,4.3125,368.47656,4.3125Q370.15234,4.3125,371.16602,5.27344Q372.17969,6.23438,372.17969,7.79883Q372.17969,8.79492,371.74023,9.5625Q371.30664,10.3242,370.39844,10.7227Z" fill="#DDDDDD" fill-opacity="1"/></g><g style="mix-blend-mode:passthrough"><path d="M842,32L842,37.333330000000004L840.5,37.333330000000004L840.5,32M842,42.6667L842,48L840.5,48L840.5,42.6667M735,48L735,42.6667L736.5,42.6667L736.5,48M735,37.333330000000004L735,32L736.5,32L736.5,37.333330000000004" fill="#DDDDDD" fill-opacity="1"/></g><g style="mix-blend-mode:passthrough"><path d="M790.98438,5.9707L784.5625,5.9707L784.5625,4.5L792.8125,4.5L792.8125,5.54883L787.85547,18L786.08008,18L790.98438,5.9707Z" fill="#DDDDDD" fill-opacity="1"/></g><g style="mix-blend-mode:passthrough"><g style="mix-blend-mode:passthrough"><path d="M50.3125,78.47852L50.3125,76.78516L54.08008,74.5L55.30469,74.5L55.30469,88L53.6875,88L53.6875,76.46875L50.3125,78.47852Z" fill="#DDDDDD" fill-opacity="1"/></g><path d="M0,62L0,54L1.5,54L1.5,62L0,62ZM0,74L0,66L1.5,66L1.5,74L0,74ZM0,86L0,78L1.5,78L1.5,86L0,86ZM0,98L0,90L1.5,90L1.5,98L0,98ZM0,110L0,102L1.5,102L1.5,110L0,110ZM15.8519,118L7.92593,118L7.92593,116.5L15.8519,116.5L15.8519,118ZM27.7407,118L19.8148,118L19.8148,116.5L27.7407,116.5L27.7407,118ZM39.6296,118L31.7037,118L31.7037,116.5L39.6296,116.5L39.6296,118ZM51.5185,118L43.5926,118L43.5926,116.5L51.5185,116.5L51.5185,118ZM63.4074,118L55.4815,118L55.4815,116.5L63.4074,116.5L63.4074,118ZM75.2963,118L67.3704,118L67.3704,116.5L75.2963,116.5L75.2963,118ZM87.1852,118L79.2593,118L79.2593,116.5L87.1852,116.5L87.1852,118ZM99.0741,118L91.1481,118L91.1481,116.5L99.0741,116.5L99.0741,118ZM107,102L107,110L105.5,110L105.5,102L107,102ZM107,90L107,98L105.5,98L105.5,90L107,90ZM107,78L107,86L105.5,86L105.5,78L107,78ZM107,66L107,74L105.5,74L105.5,66L107,66ZM107,54L107,62L105.5,62L105.5,54L107,54ZM91.1481,46L99.0741,46L99.0741,47.5L91.1481,47.5L91.1481,46ZM79.2593,46L87.1852,46L87.1852,47.5L79.2593,47.5L79.2593,46ZM67.3704,46L75.2963,46L75.2963,47.5L67.3704,47.5L67.3704,46ZM55.4815,46L63.4074,46L63.4074,47.5L55.4815,47.5L55.4815,46ZM43.5926,46L51.5185,46L51.5185,47.5L43.5926,47.5L43.5926,46ZM31.7037,46L39.6296,46L39.6296,47.5L31.7037,47.5L31.7037,46ZM19.8148,46L27.7407,46L27.7407,47.5L19.8148,47.5L19.8148,46ZM7.92593,46L15.8519,46L15.8519,47.5L7.92593,47.5L7.92593,46ZM3.96296,46L3.96296,47.5L1.5,47.5L1.5,50L0,50L0,46L3.96296,46ZM103.037,46L107,46L107,50L105.5,50L105.5,47.5L103.037,47.5L103.037,46ZM107,114L107,118L103.037,118L103.037,116.5L105.5,116.5L105.5,114L107,114ZM3.96297,118L0,118L0,114L1.5,114L1.5,116.5L3.96297,116.5L3.96297,118Z" fill-rule="evenodd" fill="#DDDDDD" fill-opacity="1"/></g><g style="mix-blend-mode:passthrough"><g style="mix-blend-mode:passthrough"><path d="M443.2891,81.4961L442.457,80.4238Q439.1816,80.5645,435.93555,80.8281Q434.37109,80.9746,433.54492,81.0801L433.18164,79.81445Q433.79688,79.74414,434.17188,79.39258Q435.27344,78.37305,436.85547,76.375L433.5625,76.375L433.5625,75.00977L438.1152,75.00977Q437.30664,73.38672,437.10742,73.09961L438.4961,72.49023Q438.6953,72.75977,439.4453,74.23633L439.8613,75.00977L444.6309,75.00977L444.6309,76.375L438.6543,76.375Q437.9688,77.24805,437.17188,78.15625Q436.375,79.06445,435.75977,79.65625Q437.20117,79.5625,438.6309,79.45703Q440.0664,79.35156,441.4844,79.24609Q440.6172,78.17969,440.043,77.53516L441.1387,76.75Q443.1543,79.12305,444.3789,80.6172L443.2891,81.4961ZM432.06836,76.82617Q431.45312,76.28711,430.54492,75.5957Q429.63672,74.9043,429.04492,74.52344L429.87109,73.38672Q430.44531,73.76758,431.33594,74.41797Q432.22656,75.0625,432.92969,75.61914L432.06836,76.82617ZM431.56445,81.1094Q430.89648,80.5352,429.90625,79.78516Q428.91602,79.03516,428.289062,78.625L429.11523,77.5Q430.86133,78.66016,432.4082,79.9082L431.56445,81.1094ZM434.54102,83.2949Q434.51758,82.8203,434.51758,81.543L435.84766,81.543L435.83008,83.4707Q435.83008,84.9473,435.60156,85.9023Q435.37891,86.8574,434.74023,87.7012Q434.10156,88.5449,432.82422,89.6113L431.81641,88.7852Q432.89453,87.9531,433.46289,87.3145Q434.03711,86.6758,434.29492,85.8965Q434.55859,85.1113,434.55859,83.9219Q434.55859,83.5117,434.54102,83.2949ZM445.3047,85.0762Q445.252,87.0742,445.2168,87.4961Q445.1641,88.375,444.7832,88.7383Q444.4023,89.1074,443.5352,89.1426Q443.3535,89.1602,442.9727,89.1602Q442.6035,89.1602,442.4043,89.1426Q441.625,89.1074,441.2734,88.7266Q440.9219,88.3516,440.9219,87.502L440.9219,81.543L442.2578,81.543L442.2578,87.127Q442.2578,87.502,442.375,87.6719Q442.4922,87.8418,442.8027,87.8652L443.125,87.8828Q443.4941,87.8828,443.6465,87.8418Q443.8047,87.7949,443.875,87.6309Q443.9453,87.4609,443.998,87.0625Q444.0391,86.7461,444.0625,86.0664Q444.0918,85.3867,444.0918,84.9004L445.3047,85.0762ZM439.0703,89.125L437.7754,89.125L437.7754,81.7598L439.0703,81.7598L439.0703,89.125ZM432.28516,82.8262Q431.9043,84.0039,431.2832,85.9668Q430.66211,87.9297,430.28711,89.1602L428.8457,88.9141Q429.09766,88.3223,429.93555,85.668Q430.77344,83.0137,430.89648,82.4395L432.28516,82.8262ZM449.0547,88L447.4375,88L447.4375,74.5L449.0547,74.5L449.0547,88ZM455.4941,74.5Q457.3926,74.5,458.916,75.29102Q460.4395,76.08203,461.3066,77.60547Q462.1797,79.12305,462.1797,81.2324Q462.1797,83.3535,461.3184,84.877Q460.457,86.3945,458.9336,87.1973Q457.4102,88,455.4941,88L451.9375,88L451.9375,74.5L455.4941,74.5ZM455.3184,86.5293Q457.7793,86.5293,459.168,85.1523Q460.5625,83.7754,460.5625,81.2441Q460.5625,78.74805,459.1621,77.35938Q457.7617,75.9707,455.3184,75.9707L453.5547,75.9707L453.5547,86.5293L455.3184,86.5293ZM475.1582,81.3379Q475.1582,78.79492,476.002,76.64453Q476.8516,74.49414,478.3281,73L479.7812,73Q478.3281,74.76367,477.543,76.80859Q476.7578,78.85352,476.7578,81.3379Q476.7578,83.8398,477.543,85.8906Q478.3281,87.9414,479.7812,89.6699L478.3281,89.6699Q476.8516,88.1758,476.002,86.0371Q475.1582,83.8926,475.1582,81.3379ZM488.7344,75.9707L482.3125,75.9707L482.3125,74.5L490.5625,74.5L490.5625,75.54883L485.6055,88L483.8301,88L488.7344,75.9707ZM495.4375,77.125L496.9375,77.125L496.9375,80.875L500.3125,80.875L500.3125,82.3457L496.9375,82.3457L496.9375,85.75L495.4375,85.75L495.4375,82.3457L492.0625,82.3457L492.0625,80.875L495.4375,80.875L495.4375,77.125ZM507.09180000000003,81.3379Q507.09180000000003,83.875,506.2422,86.0254Q505.3984,88.1758,503.9219,89.6699L502.4688,89.6699Q503.9219,87.9062,504.707,85.8672Q505.4922,83.8223,505.4922,81.3379Q505.4922,78.83594,504.707,76.78516Q503.9219,74.72852,502.4688,73L503.9219,73Q505.3984,74.49414,506.2422,76.63867Q507.09180000000003,78.77734,507.09180000000003,81.3379Z" fill="#DDDDDD" fill-opacity="1"/></g><path d="M105,62L105,54L106.5,54L106.5,62L105,62ZM105,74L105,66L106.5,66L106.5,74L105,74ZM105,86L105,78L106.5,78L106.5,86L105,86ZM105,98L105,90L106.5,90L106.5,98L105,98ZM105,110L105,102L106.5,102L106.5,110L105,110ZM121.1091,118L113.0545,118L113.0545,116.5L121.1091,116.5L121.1091,118ZM133.1911,118L125.1365,118L125.1365,116.5L133.1911,116.5L133.1911,118ZM145.2731,118L137.2184,118L137.2184,116.5L145.2731,116.5L145.2731,118ZM157.355,118L149.3004,118L149.3004,116.5L157.355,116.5L157.355,118ZM169.437,118L161.3824,118L161.3824,116.5L169.437,116.5L169.437,118ZM181.519,118L173.4644,118L173.4644,116.5L181.519,116.5L181.519,118ZM193.601,118L185.5463,118L185.5463,116.5L193.601,116.5L193.601,118ZM205.683,118L197.6283,118L197.6283,116.5L205.683,116.5L205.683,118ZM217.765,118L209.70999999999998,118L209.70999999999998,116.5L217.765,116.5L217.765,118ZM229.84699999999998,118L221.792,118L221.792,116.5L229.84699999999998,116.5L229.84699999999998,118ZM241.929,118L233.874,118L233.874,116.5L241.929,116.5L241.929,118ZM254.011,118L245.956,118L245.956,116.5L254.011,116.5L254.011,118ZM266.09299999999996,118L258.038,118L258.038,116.5L266.09299999999996,116.5L266.09299999999996,118ZM278.175,118L270.12,118L270.12,116.5L278.175,116.5L278.175,118ZM290.257,118L282.202,118L282.202,116.5L290.257,116.5L290.257,118ZM302.339,118L294.284,118L294.284,116.5L302.339,116.5L302.339,118ZM314.421,118L306.366,118L306.366,116.5L314.421,116.5L314.421,118ZM326.503,118L318.448,118L318.448,116.5L326.503,116.5L326.503,118ZM338.58500000000004,118L330.53,118L330.53,116.5L338.58500000000004,116.5L338.58500000000004,118ZM350.66700000000003,118L342.61199999999997,118L342.61199999999997,116.5L350.66700000000003,116.5L350.66700000000003,118ZM362.749,118L354.69399999999996,118L354.69399999999996,116.5L362.749,116.5L362.749,118ZM374.831,118L366.776,118L366.776,116.5L374.831,116.5L374.831,118ZM386.913,118L378.858,118L378.858,116.5L386.913,116.5L386.913,118ZM398.994,118L390.94,118L390.94,116.5L398.994,116.5L398.994,118ZM411.076,118L403.022,118L403.022,116.5L411.076,116.5L411.076,118ZM423.158,118L415.104,118L415.104,116.5L423.158,116.5L423.158,118ZM435.24,118L427.186,118L427.186,116.5L435.24,116.5L435.24,118ZM447.322,118L439.268,118L439.268,116.5L447.322,116.5L447.322,118ZM459.404,118L451.35,118L451.35,116.5L459.404,116.5L459.404,118ZM471.486,118L463.432,118L463.432,116.5L471.486,116.5L471.486,118ZM483.568,118L475.514,118L475.514,116.5L483.568,116.5L483.568,118ZM495.65,118L487.596,118L487.596,116.5L495.65,116.5L495.65,118ZM507.732,118L499.678,118L499.678,116.5L507.732,116.5L507.732,118ZM519.8140000000001,118L511.76,118L511.76,116.5L519.8140000000001,116.5L519.8140000000001,118ZM531.896,118L523.841,118L523.841,116.5L531.896,116.5L531.896,118ZM543.9780000000001,118L535.923,118L535.923,116.5L543.9780000000001,116.5L543.9780000000001,118ZM556.06,118L548.005,118L548.005,116.5L556.06,116.5L556.06,118ZM568.142,118L560.087,118L560.087,116.5L568.142,116.5L568.142,118ZM580.2239999999999,118L572.169,118L572.169,116.5L580.2239999999999,116.5L580.2239999999999,118ZM592.306,118L584.251,118L584.251,116.5L592.306,116.5L592.306,118ZM604.3879999999999,118L596.3330000000001,118L596.3330000000001,116.5L604.3879999999999,116.5L604.3879999999999,118ZM616.47,118L608.415,118L608.415,116.5L616.47,116.5L616.47,118ZM628.552,118L620.497,118L620.497,116.5L628.552,116.5L628.552,118ZM640.634,118L632.579,118L632.579,116.5L640.634,116.5L640.634,118ZM652.716,118L644.661,118L644.661,116.5L652.716,116.5L652.716,118ZM664.798,118L656.743,118L656.743,116.5L664.798,116.5L664.798,118ZM676.88,118L668.825,118L668.825,116.5L676.88,116.5L676.88,118ZM688.962,118L680.907,118L680.907,116.5L688.962,116.5L688.962,118ZM701.044,118L692.989,118L692.989,116.5L701.044,116.5L701.044,118ZM713.126,118L705.071,118L705.071,116.5L713.126,116.5L713.126,118ZM725.208,118L717.153,118L717.153,116.5L725.208,116.5L725.208,118ZM737.29,118L729.235,118L729.235,116.5L737.29,116.5L737.29,118ZM749.372,118L741.317,118L741.317,116.5L749.372,116.5L749.372,118ZM761.454,118L753.399,118L753.399,116.5L761.454,116.5L761.454,118ZM773.536,118L765.481,118L765.481,116.5L773.536,116.5L773.536,118ZM785.617,118L777.563,118L777.563,116.5L785.617,116.5L785.617,118ZM797.699,118L789.645,118L789.645,116.5L797.699,116.5L797.699,118ZM809.781,118L801.727,118L801.727,116.5L809.781,116.5L809.781,118ZM821.863,118L813.809,118L813.809,116.5L821.863,116.5L821.863,118ZM833.945,118L825.891,118L825.891,116.5L833.945,116.5L833.945,118ZM842,102L842,110L840.5,110L840.5,102L842,102ZM842,90L842,98L840.5,98L840.5,90L842,90ZM842,78L842,86L840.5,86L840.5,78L842,78ZM842,66L842,74L840.5,74L840.5,66L842,66ZM842,54L842,62L840.5,62L840.5,54L842,54ZM825.891,46L833.945,46L833.945,47.5L825.891,47.5L825.891,46ZM813.809,46L821.864,46L821.864,47.5L813.809,47.5L813.809,46ZM801.727,46L809.782,46L809.782,47.5L801.727,47.5L801.727,46ZM789.645,46L797.7,46L797.7,47.5L789.645,47.5L789.645,46ZM777.563,46L785.618,46L785.618,47.5L777.563,47.5L777.563,46ZM765.481,46L773.536,46L773.536,47.5L765.481,47.5L765.481,46ZM753.399,46L761.454,46L761.454,47.5L753.399,47.5L753.399,46ZM741.317,46L749.372,46L749.372,47.5L741.317,47.5L741.317,46ZM729.235,46L737.29,46L737.29,47.5L729.235,47.5L729.235,46ZM717.153,46L725.208,46L725.208,47.5L717.153,47.5L717.153,46ZM705.071,46L713.126,46L713.126,47.5L705.071,47.5L705.071,46ZM692.989,46L701.044,46L701.044,47.5L692.989,47.5L692.989,46ZM680.907,46L688.962,46L688.962,47.5L680.907,47.5L680.907,46ZM668.825,46L676.88,46L676.88,47.5L668.825,47.5L668.825,46ZM656.743,46L664.798,46L664.798,47.5L656.743,47.5L656.743,46ZM644.661,46L652.716,46L652.716,47.5L644.661,47.5L644.661,46ZM632.579,46L640.634,46L640.634,47.5L632.579,47.5L632.579,46ZM620.497,46L628.552,46L628.552,47.5L620.497,47.5L620.497,46ZM608.415,46L616.47,46L616.47,47.5L608.415,47.5L608.415,46ZM596.3330000000001,46L604.3879999999999,46L604.3879999999999,47.5L596.3330000000001,47.5L596.3330000000001,46ZM584.251,46L592.306,46L592.306,47.5L584.251,47.5L584.251,46ZM572.169,46L580.2239999999999,46L580.2239999999999,47.5L572.169,47.5L572.169,46ZM560.087,46L568.142,46L568.142,47.5L560.087,47.5L560.087,46ZM548.006,46L556.06,46L556.06,47.5L548.006,47.5L548.006,46ZM535.924,46L543.9780000000001,46L543.9780000000001,47.5L535.924,47.5L535.924,46ZM523.842,46L531.896,46L531.896,47.5L523.842,47.5L523.842,46ZM511.76,46L519.8140000000001,46L519.8140000000001,47.5L511.76,47.5L511.76,46ZM499.678,46L507.732,46L507.732,47.5L499.678,47.5L499.678,46ZM487.596,46L495.65,46L495.65,47.5L487.596,47.5L487.596,46ZM475.514,46L483.568,46L483.568,47.5L475.514,47.5L475.514,46ZM463.432,46L471.486,46L471.486,47.5L463.432,47.5L463.432,46ZM451.35,46L459.404,46L459.404,47.5L451.35,47.5L451.35,46ZM439.268,46L447.322,46L447.322,47.5L439.268,47.5L439.268,46ZM427.186,46L435.24,46L435.24,47.5L427.186,47.5L427.186,46ZM415.104,46L423.159,46L423.159,47.5L415.104,47.5L415.104,46ZM403.022,46L411.077,46L411.077,47.5L403.022,47.5L403.022,46ZM390.94,46L398.995,46L398.995,47.5L390.94,47.5L390.94,46ZM378.858,46L386.913,46L386.913,47.5L378.858,47.5L378.858,46ZM366.776,46L374.831,46L374.831,47.5L366.776,47.5L366.776,46ZM354.69399999999996,46L362.749,46L362.749,47.5L354.69399999999996,47.5L354.69399999999996,46ZM342.61199999999997,46L350.66700000000003,46L350.66700000000003,47.5L342.61199999999997,47.5L342.61199999999997,46ZM330.53,46L338.58500000000004,46L338.58500000000004,47.5L330.53,47.5L330.53,46ZM318.448,46L326.503,46L326.503,47.5L318.448,47.5L318.448,46ZM306.366,46L314.421,46L314.421,47.5L306.366,47.5L306.366,46ZM294.284,46L302.339,46L302.339,47.5L294.284,47.5L294.284,46ZM282.202,46L290.257,46L290.257,47.5L282.202,47.5L282.202,46ZM270.12,46L278.175,46L278.175,47.5L270.12,47.5L270.12,46ZM258.038,46L266.09299999999996,46L266.09299999999996,47.5L258.038,47.5L258.038,46ZM245.956,46L254.011,46L254.011,47.5L245.956,47.5L245.956,46ZM233.874,46L241.929,46L241.929,47.5L233.874,47.5L233.874,46ZM221.792,46L229.84699999999998,46L229.84699999999998,47.5L221.792,47.5L221.792,46ZM209.70999999999998,46L217.765,46L217.765,47.5L209.70999999999998,47.5L209.70999999999998,46ZM197.6284,46L205.683,46L205.683,47.5L197.6284,47.5L197.6284,46ZM185.5464,46L193.6011,46L193.6011,47.5L185.5464,47.5L185.5464,46ZM173.4645,46L181.51909999999998,46L181.51909999999998,47.5L173.4645,47.5L173.4645,46ZM161.3825,46L169.43720000000002,46L169.43720000000002,47.5L161.3825,47.5L161.3825,46ZM149.3005,46L157.3552,46L157.3552,47.5L149.3005,47.5L149.3005,46ZM137.2186,46L145.2732,46L145.2732,47.5L137.2186,47.5L137.2186,46ZM125.1366,46L133.1913,46L133.1913,47.5L125.1366,47.5L125.1366,46ZM113.05464,46L121.1093,46L121.1093,47.5L113.05464,47.5L113.05464,46ZM109.02732,46L109.02732,47.5L106.5,47.5L106.5,50L105,50L105,46L109.02732,46ZM837.973,46L842,46L842,50L840.5,50L840.5,47.5L837.973,47.5L837.973,46ZM842,114L842,118L837.973,118L837.973,116.5L840.5,116.5L840.5,114L842,114ZM109.02716,118L105,118L105,114L106.5,114L106.5,116.5L109.02716,116.5L109.02716,118Z" fill-rule="evenodd" fill="#DDDDDD" fill-opacity="1"/></g></g></svg>