<svg xmlns="http://www.w3.org/2000/svg" xmlns:xlink="http://www.w3.org/1999/xlink" fill="none" version="1.1" width="676.5" height="218" viewBox="0 0 676.5 218"><g style="mix-blend-mode:passthrough"><g style="mix-blend-mode:passthrough"><g style="mix-blend-mode:passthrough"><path d="M59.4336,95.1387Q60.4824,96.9141,62.0527,98.3906Q63.6289,99.8613,65.627,100.8457L64.7129,102.1934Q62.4395,100.9395,60.7754,99.1055Q59.1113,97.2715,58.0684,95.1387L58.0332,95.1387L58.0332,103.125L56.64453,103.125L56.64453,95.1387L56.5918,95.1387Q55.47852,97.4004,54.00195,99.0527Q52.52539,100.7051,49.94727,102.1934L49.01562,100.8633Q51.2832,99.6973,52.76562,98.2793Q54.24805,96.8613,55.2207,95.1387L49.625,95.1387L49.625,93.75L56.64453,93.75L56.64453,90.75L50.79688,90.75L50.79688,89.36719L56.64453,89.36719L56.64453,86.77734L58.0332,86.77734L58.0332,89.36719L63.8809,89.36719L63.8809,90.75L58.0332,90.75L58.0332,93.75L65.0352,93.75L65.0352,95.1387L59.4336,95.1387ZM83.17580000000001,103.2773Q80.5977,102.1406,79.0332,100.7227Q77.5273,102.0527,75.002,103.3242L74.1523,102.0645Q76.6895,100.8984,78.0664,99.7148Q76.6133,98.0215,75.6465,95.25L75.1426,95.25Q75.125,96.9141,74.9727,98.0098Q74.8262,99.0996,74.4102,100.2656Q73.9941,101.4316,73.1387,103.1953L71.9258,102.5098Q72.7695,101.0977,73.1562,99.9902Q73.5488,98.877,73.6777,97.5703Q73.8125,96.2637,73.8125,94.0254L73.8125,89.33789L77.9199,89.33789L77.9199,87.03516L79.25,87.03516L79.25,89.33789L83.2285,89.33789L83.2285,90.68555L82.2031,92.95898L80.9434,92.51367L81.8281,90.7207L79.25,90.7207L79.25,93.86133L82.4375,93.86133L82.4375,95.1973Q81.9102,96.6621,81.3418,97.7578Q80.7793,98.8535,79.9883,99.7676Q81.4297,101.0039,83.8555,101.9414L83.17580000000001,103.2773ZM72.5293,98.8125Q71.8379,98.0215,70.8125,96.9961L70.8125,103.125L69.459,103.125L69.459,96.0645Q68.6152,97.1426,67.748,98.0391L67.0859,96.75Q68.293,95.5078,69.2832,94.1133Q70.2734,92.71289,70.8477,91.40625L67.625,91.40625L67.625,90L69.8398,90Q69.3828,88.44141,69.0254,87.50391L70.2559,87.1582Q70.7949,88.86914,71.0645,90L72.3594,90L72.3594,91.33594Q71.709,92.71289,70.8125,94.1133L70.8125,95.5488L71.1875,95.8828Q71.7266,95.1504,72.5352,93.86133L73.4316,94.5469Q72.5586,95.8242,71.9609,96.5566L72.418,96.9961L73.3262,97.8809L72.5293,98.8125ZM77.9199,93.86133L77.9199,90.7207L75.1426,90.7207L75.1426,93.86133L77.9199,93.86133ZM76.9531,95.25Q77.7969,97.459,78.998,98.8008Q79.625,98.0977,80.09960000000001,97.2363Q80.5801,96.3691,80.9961,95.25L76.9531,95.25ZM89.96090000000001,87.22266Q89.43950000000001,89.2207,88.625,91.18359L88.625,103.125L87.2598,103.125L87.2598,93.97852Q86.5039,95.3262,85.7832,96.3164L84.957,95.0508Q85.9824,93.61523,86.9375,91.44727Q87.8926,89.2793,88.5723,86.86523L89.96090000000001,87.22266ZM101.4102,102.9551Q99.1777,102.6445,97.50200000000001,102.2051Q95.832,101.7656,94.5547,101.1328Q93.834,101.707,92.7324,102.1758Q91.63669999999999,102.6445,90.0137,103.0723L89.35159999999999,101.7715Q90.7227,101.4434,91.6602,101.1094Q92.5977,100.7695,93.2188,100.3535Q91.80080000000001,99.3809,90.69919999999999,97.8223L91.68950000000001,97.043Q92.7324,98.5547,94.209,99.4688Q94.5898,98.9473,94.7422,98.3027Q94.8945,97.6523,94.8945,96.75L90.5,96.75L90.5,91.875L94.8945,91.875L94.8945,90.375L89.9082,90.375L89.9082,89.03906L94.8945,89.03906L94.8945,86.86523L96.2598,86.86523L96.2598,89.03906L101.375,89.03906L101.375,90.375L96.2598,90.375L96.2598,91.875L100.68950000000001,91.875L100.68950000000001,96.75L96.2598,96.75Q96.2422,97.8633,96.06049999999999,98.6895Q95.8848,99.5098,95.4688,100.1309Q97.8125,101.1328,101.8086,101.4961L101.4102,102.9551ZM94.8945,93.13477L91.83590000000001,93.13477L91.83590000000001,95.4199L94.8945,95.4199L94.8945,93.13477ZM99.3418,95.4199L99.3418,93.13477L96.2598,93.13477L96.2598,95.4199L99.3418,95.4199ZM105.125,87.82617L118.5605,87.82617L118.5605,101.0332Q118.5605,102.2051,118.1328,102.6445Q117.7051,103.0898,116.6504,103.125Q115.5664,103.166,114.4238,103.0195L114.166,101.5371Q115.5254,101.7246,116.1699,101.7246Q116.7559,101.7246,116.9375,101.4727Q117.125,101.2207,117.125,100.4941L117.125,97.875L112.5488,97.875L112.5488,103.125L111.125,103.125L111.125,97.875L106.5312,97.875Q106.4023,99.3867,106.0156,100.6641Q105.6289,101.9414,104.83789999999999,103.5234L103.5078,102.9492Q104.2285,101.5371,104.5566,100.5703Q104.8906,99.6035,105.0078,98.4551Q105.125,97.3008,105.125,95.2441L105.125,87.82617ZM111.125,92.25L111.125,89.25L106.60159999999999,89.25L106.60159999999999,92.25L111.125,92.25ZM112.5488,92.25L117.125,92.25L117.125,89.25L112.5488,89.25L112.5488,92.25ZM106.60159999999999,96.4688L111.125,96.4688L111.125,93.65625L106.60159999999999,93.65625L106.60159999999999,95.666L106.60159999999999,96.4688ZM112.5488,93.65625L112.5488,96.4688L117.125,96.4688L117.125,93.65625L112.5488,93.65625ZM136.9941,89.55469L136.9941,90.32227Q136.9941,92.63672,136.877,95.7363Q136.75979999999998,98.8359,136.60160000000002,100.834Q136.5312,101.7305,136.2793,102.2168Q136.0332,102.7031,135.5645,102.9023Q135.0957,103.1074,134.293,103.1426Q134.1055,103.1602,133.7305,103.1602Q133.4375,103.1602,133.0566,103.1426Q132.6816,103.125,132.4707,103.1074L131.9961,103.0664L131.75,101.5195Q133.00979999999998,101.7363,133.7129,101.7363Q134.2578,101.7363,134.54489999999998,101.6191Q134.8379,101.4961,135.002,101.1562Q135.166,100.8164,135.2363,100.1016Q135.5,96.9609,135.5,92.36133L135.5,90.94336L131.1523,90.94336Q130.5605,92.53711,130.0156,93.74414L128.791,92.87695Q129.47660000000002,91.51172,130.0684,89.82422Q130.6602,88.13672,131.01170000000002,86.625L132.418,86.91211Q132.0488,88.37109,131.6445,89.55469L136.9941,89.55469ZM126.3945,87.01758Q126.1426,88.20703,125.7148,89.71875L128.2988,89.71875L128.2988,102.668L122.0938,102.668L122.0938,89.71875L124.0625,89.71875Q124.5137,88.44141,124.8477,86.74805L126.3945,87.01758ZM123.5,94.875L126.875,94.875L126.875,91.125L123.5,91.125L123.5,94.875ZM132.85160000000002,98.707Q132.29489999999998,97.8105,131.4863,96.6855Q130.6836,95.5547,130.1211,94.8926L131.16989999999998,94.0078Q131.75,94.6934,132.5469,95.7832Q133.3438,96.8672,133.9414,97.7578L132.85160000000002,98.707ZM123.5,96.2637L123.5,101.25L126.875,101.25L126.875,96.2637L123.5,96.2637ZM78.7109,114.2227L78.7109,116.52539999999999L77.2344,116.52539999999999L77.2344,112.875L84.2188,112.875Q83.8613,112.1367,83.5566,111.5566L83.3223,111.1055L84.7051,110.5137L85.8594,112.875L92.0176,112.875L92.0176,116.543L90.52340000000001,116.543L90.52340000000001,114.2227L78.7109,114.2227ZM86.3809,115.4297Q87.6406,116.03909999999999,89.457,116.9941Q91.2793,117.94919999999999,92.28710000000001,118.5293L91.5664,119.8184Q90.37700000000001,119.1094,88.6309,118.18950000000001Q86.8848,117.2695,85.6953,116.707L86.3809,115.4297ZM83.5566,116.7188Q80.9785,118.4062,77.5742,120.0352L76.9648,118.67580000000001Q80.3164,117.1875,82.7422,115.4473L83.5566,116.7188ZM90.48830000000001,121.5L85.3906,121.5L85.3906,125.25L92.2695,125.25L92.2695,126.6328L77,126.6328L77,125.25L83.8789,125.25L83.8789,121.5L78.7812,121.5L78.7812,120.1289L90.48830000000001,120.1289L90.48830000000001,121.5ZM96.69919999999999,110.918Q97.291,111.4395,98.1816,112.2832Q99.0781,113.127,99.6113,113.6953L98.5215,114.668Q97.98830000000001,114.0703,97.1211,113.2383Q96.2539,112.4004,95.6445,111.9082L96.69919999999999,110.918ZM100.5137,112.125L109.625,112.125L109.625,124.5762Q109.625,125.64840000000001,109.3789,126.1816Q109.1328,126.7148,108.52340000000001,126.9199Q107.91409999999999,127.125,106.7363,127.125Q106.2441,127.125,105.22460000000001,127.0488L104.9551,125.63669999999999Q105.77539999999999,125.7363,106.6191,125.7363Q107.2695,125.7363,107.5801,125.625Q107.8906,125.5078,108.0078,125.1973Q108.1309,124.88669999999999,108.1309,124.207L108.1309,113.5664L100.5137,113.5664L100.5137,112.125ZM96.8164,127.125L95.375,127.125L95.375,114.1641L96.8164,114.1641L96.8164,127.125ZM99.125,115.5996L105.875,115.5996L105.875,124.5L99.125,124.5L99.125,115.5996ZM104.4863,119.3672L104.4863,117L100.5488,117L100.5488,119.3672L104.4863,119.3672ZM100.5488,120.75L100.5488,123.0938L104.4863,123.0938L104.4863,120.75L100.5488,120.75Z" fill="#DDDDDD" fill-opacity="1"/></g><path d="M0,76L0,68L1.5,68L1.5,76L0,76ZM0,88L0,80L1.5,80L1.5,88L0,88ZM0,100L0,92L1.5,92L1.5,100L0,100ZM0,112L0,104L1.5,104L1.5,112L0,112ZM0,124L0,116L1.5,116L1.5,124L0,124ZM0,136L0,128L1.5,128L1.5,136L0,136ZM0,148L0,140L1.5,140L1.5,148L0,148ZM15.5833,156L7.79167,156L7.79167,154.5L15.5833,154.5L15.5833,156ZM27.2708,156L19.4792,156L19.4792,154.5L27.2708,154.5L27.2708,156ZM38.9583,156L31.1667,156L31.1667,154.5L38.9583,154.5L38.9583,156ZM50.6458,156L42.8542,156L42.8542,154.5L50.6458,154.5L50.6458,156ZM62.3333,156L54.5417,156L54.5417,154.5L62.3333,154.5L62.3333,156ZM74.0208,156L66.2292,156L66.2292,154.5L74.0208,154.5L74.0208,156ZM85.7083,156L77.9167,156L77.9167,154.5L85.7083,154.5L85.7083,156ZM97.3958,156L89.6042,156L89.6042,154.5L97.3958,154.5L97.3958,156ZM109.083,156L101.292,156L101.292,154.5L109.083,154.5L109.083,156ZM120.771,156L112.979,156L112.979,154.5L120.771,154.5L120.771,156ZM132.458,156L124.667,156L124.667,154.5L132.458,154.5L132.458,156ZM144.146,156L136.354,156L136.354,154.5L144.146,154.5L144.146,156ZM155.833,156L148.042,156L148.042,154.5L155.833,154.5L155.833,156ZM167.521,156L159.729,156L159.729,154.5L167.521,154.5L167.521,156ZM179.208,156L171.417,156L171.417,154.5L179.208,154.5L179.208,156ZM187,140L187,148L185.5,148L185.5,140L187,140ZM187,128L187,136L185.5,136L185.5,128L187,128ZM187,116L187,124L185.5,124L185.5,116L187,116ZM187,104L187,112L185.5,112L185.5,104L187,104ZM187,92L187,100L185.5,100L185.5,92L187,92ZM187,80L187,88L185.5,88L185.5,80L187,80ZM187,68L187,76L185.5,76L185.5,68L187,68ZM171.417,60L179.208,60L179.208,61.5L171.417,61.5L171.417,60ZM159.729,60L167.521,60L167.521,61.5L159.729,61.5L159.729,60ZM148.042,60L155.833,60L155.833,61.5L148.042,61.5L148.042,60ZM136.354,60L144.146,60L144.146,61.5L136.354,61.5L136.354,60ZM124.667,60L132.458,60L132.458,61.5L124.667,61.5L124.667,60ZM112.979,60L120.771,60L120.771,61.5L112.979,61.5L112.979,60ZM101.292,60L109.083,60L109.083,61.5L101.292,61.5L101.292,60ZM89.6042,60L97.3958,60L97.3958,61.5L89.6042,61.5L89.6042,60ZM77.9167,60L85.7083,60L85.7083,61.5L77.9167,61.5L77.9167,60ZM66.2292,60L74.0208,60L74.0208,61.5L66.2292,61.5L66.2292,60ZM54.5417,60L62.3333,60L62.3333,61.5L54.5417,61.5L54.5417,60ZM42.8542,60L50.6458,60L50.6458,61.5L42.8542,61.5L42.8542,60ZM31.1667,60L38.9583,60L38.9583,61.5L31.1667,61.5L31.1667,60ZM19.4792,60L27.2708,60L27.2708,61.5L19.4792,61.5L19.4792,60ZM7.79167,60L15.5833,60L15.5833,61.5L7.79167,61.5L7.79167,60ZM3.89583,60L3.89583,61.5L1.5,61.5L1.5,64L0,64L0,60L3.89583,60ZM183.104,60L187,60L187,64L185.5,64L185.5,61.5L183.104,61.5L183.104,60ZM187,152L187,156L183.104,156L183.104,154.5L185.5,154.5L185.5,152L187,152ZM3.89584,156L0,156L0,152L1.5,152L1.5,154.5L3.89584,154.5L3.89584,156Z" fill-rule="evenodd" fill="#DDDDDD" fill-opacity="1"/></g><g style="mix-blend-mode:passthrough"><g style="mix-blend-mode:passthrough"><path d="M297.25,87.86719L297.25,89.25L294.877,89.25L294.877,100.5234Q294.877,101.5781,294.6602,102.123Q294.4492,102.6738,293.8691,102.8965Q293.2949,103.125,292.1523,103.125Q290.8047,103.125,289.832,103.0371L289.5449,101.625Q290.875,101.7773,292.0293,101.7773Q292.6211,101.7773,292.9199,101.6309Q293.2188,101.4844,293.3359,101.1387Q293.4531,100.793,293.4531,100.1309L293.4531,89.25L280.96094,89.25L280.96094,87.86719L297.25,87.86719ZM282.95898,91.98633L290.2305,91.98633L290.2305,99L282.95898,99L282.95898,91.98633ZM284.32422,97.6348L288.8418,97.6348L288.8418,93.375L284.32422,93.375L284.32422,97.6348ZM303.8828,87.19336Q303.2148,89.31445,302.4414,91.06055L302.4414,103.125L301,103.125L301,93.7207Q300.3027,94.8633,299.2715,96.1465L298.5918,94.6641Q299.7227,93.21094,300.7305,91.1543Q301.7383,89.0918,302.4766,86.75977L303.8828,87.19336ZM312.6016,91.74609L312.6016,96.0762L315.25,96.0762L315.25,97.5L303.3496,97.5L303.3496,96.0762L306.0859,96.0762L306.0859,91.74609L304.0176,91.74609L304.0176,90.375L306.0859,90.375L306.0859,86.95898L307.5449,86.95898L307.5449,90.375L311.1426,90.375L311.1426,86.95898L312.6016,86.95898L312.6016,90.375L314.8516,90.375L314.8516,91.74609L312.6016,91.74609ZM311.1426,91.74609L307.5449,91.74609L307.5449,96.0762L311.1426,96.0762L311.1426,91.74609ZM303.332,102.0703Q304.2871,101.3613,305.4121,100.248Q306.5371,99.1289,307.3633,98.1328L308.4648,99.0586Q307.6504,100.0195,306.4609,101.1855Q305.2773,102.3457,304.2871,103.1777L303.332,102.0703ZM311.2188,98.1797Q312.02729999999997,98.918,313.1758,100.0664Q314.3301,101.2148,315.1035,102.0527L314.0781,103.125Q313.3574,102.293,312.21479999999997,101.1152Q311.0723,99.9316,310.2461,99.1523L311.2188,98.1797ZM329.8457,86.97656L331.375,86.97656L331.375,103.125L329.8457,103.125L329.8457,86.97656ZM326.125,87.75L326.125,93.24609L319.8789,93.24609L319.668,95.625L326.2188,95.625Q326.2012,97.8574,325.873,100.4062Q325.7324,101.502,325.416,102.0703Q325.0996,102.6445,324.4492,102.8848Q323.8047,103.125,322.6562,103.125Q321.3555,103.125,319.8262,102.9434L319.5391,101.5078Q321.2676,101.7715,322.5801,101.7715Q323.4473,101.7715,323.83979999999997,101.3789Q324.2383,100.9863,324.3789,99.9961Q324.6133,98.4023,324.6895,97.0254L318.0449,97.0254L318.4785,91.875L324.5957,91.875L324.5957,89.13867L318.0625,89.13867L318.0625,87.75L326.125,87.75ZM336.625,87.82617L350.0605,87.82617L350.0605,101.0332Q350.0605,102.2051,349.6328,102.6445Q349.2051,103.0898,348.1504,103.125Q347.0664,103.166,345.9238,103.0195L345.666,101.5371Q347.0254,101.7246,347.6699,101.7246Q348.2559,101.7246,348.4375,101.4727Q348.625,101.2207,348.625,100.4941L348.625,97.875L344.0488,97.875L344.0488,103.125L342.625,103.125L342.625,97.875L338.0312,97.875Q337.90229999999997,99.3867,337.5156,100.6641Q337.1289,101.9414,336.3379,103.5234L335.0078,102.9492Q335.7285,101.5371,336.0566,100.5703Q336.3906,99.6035,336.5078,98.4551Q336.625,97.3008,336.625,95.2441L336.625,87.82617ZM342.625,92.25L342.625,89.25L338.1016,89.25L338.1016,92.25L342.625,92.25ZM344.0488,92.25L348.625,92.25L348.625,89.25L344.0488,89.25L344.0488,92.25ZM338.1016,96.4688L342.625,96.4688L342.625,93.65625L338.1016,93.65625L338.1016,95.666L338.1016,96.4688ZM344.0488,93.65625L344.0488,96.4688L348.625,96.4688L348.625,93.65625L344.0488,93.65625ZM368.4941,89.55469L368.4941,90.32227Q368.4941,92.63672,368.377,95.7363Q368.2598,98.8359,368.1016,100.834Q368.0312,101.7305,367.77930000000003,102.2168Q367.53319999999997,102.7031,367.0645,102.9023Q366.59569999999997,103.1074,365.793,103.1426Q365.6055,103.1602,365.2305,103.1602Q364.9375,103.1602,364.5566,103.1426Q364.1816,103.125,363.97069999999997,103.1074L363.4961,103.0664L363.25,101.5195Q364.5098,101.7363,365.2129,101.7363Q365.7578,101.7363,366.0449,101.6191Q366.3379,101.4961,366.502,101.1562Q366.666,100.8164,366.7363,100.1016Q367,96.9609,367,92.36133L367,90.94336L362.65229999999997,90.94336Q362.0605,92.53711,361.5156,93.74414L360.291,92.87695Q360.9766,91.51172,361.5684,89.82422Q362.16020000000003,88.13672,362.5117,86.625L363.918,86.91211Q363.5488,88.37109,363.1445,89.55469L368.4941,89.55469ZM357.8945,87.01758Q357.6426,88.20703,357.21479999999997,89.71875L359.7988,89.71875L359.7988,102.668L353.5938,102.668L353.5938,89.71875L355.5625,89.71875Q356.0137,88.44141,356.34770000000003,86.74805L357.8945,87.01758ZM355,94.875L358.375,94.875L358.375,91.125L355,91.125L355,94.875ZM364.3516,98.707Q363.7949,97.8105,362.9863,96.6855Q362.1836,95.5547,361.6211,94.8926L362.6699,94.0078Q363.25,94.6934,364.0469,95.7832Q364.8438,96.8672,365.4414,97.7578L364.3516,98.707ZM355,96.2637L355,101.25L358.375,101.25L358.375,96.2637L355,96.2637ZM307.668,118.22460000000001Q311.2012,117.6914,314.1543,116.6543Q312.6074,115.8281,311.4004,114.8145Q310.2695,115.7754,308.916,116.63669999999999L308.1543,115.459Q309.6309,114.5215,311.0137,113.2617Q312.40229999999997,111.9961,313.2695,110.8418L314.6172,111.5098Q314.2012,112.0488,313.8086,112.4648L321.9414,112.4648L321.9414,113.8301Q320.08979999999997,115.4766,317.6582,116.6719Q318.9355,117.082,320.4473,117.39840000000001Q321.959,117.709,324.0859,118.0664L323.7637,119.3906Q318.9531,118.6934,315.9121,117.46289999999999Q312.6016,118.7988,308.0488,119.5898L307.668,118.22460000000001ZM312.4434,113.8887Q313.9785,115.1719,315.8418,115.9922Q318.2734,114.9551,319.873,113.6895L312.66020000000003,113.6895L312.4434,113.8887ZM323.166,121.7402L316.6855,121.7402L316.6855,124.9043Q316.6855,126.1289,316.2168,126.62700000000001Q315.7539,127.125,314.5996,127.125Q313.3809,127.125,312.4609,127.0137L312.1738,125.625Q313.2754,125.7539,314.0781,125.7539Q314.7637,125.7539,315.0039,125.4668Q315.25,125.1797,315.25,124.43549999999999L315.25,121.7402L308.5,121.7402L308.5,120.375L315.25,120.375L315.25,118.6934L316.6855,118.6934L316.6855,120.375L323.166,120.375L323.166,121.7402ZM313.3281,123.27539999999999Q311.5469,125.0801,308.2832,126.9785L307.4922,125.625Q308.8926,124.97460000000001,310.1816,124.0898Q311.4766,123.2051,312.4082,122.2441L313.3281,123.27539999999999ZM318.666,122.3789Q318.9355,122.5195,321.5312,124.0312L323.9219,125.42580000000001L323.1484,126.7793Q321.9414,125.98830000000001,320.5117,125.08590000000001Q319.082,124.1777,317.9453,123.4922L318.666,122.3789ZM328,127.1836L328,111.8086L340,111.8086L340,127.125L338.5469,127.125L338.5469,126L329.4766,126L329.4766,127.1836L328,127.1836ZM338.5469,116.25L338.5469,113.25L329.4766,113.25L329.4766,116.25L338.5469,116.25ZM338.5469,120.375L338.5469,117.6328L329.4766,117.6328L329.4766,120.375L338.5469,120.375ZM329.4766,121.7637L329.4766,124.5938L338.5469,124.5938L338.5469,121.7637L329.4766,121.7637Z" fill="#DDDDDD" fill-opacity="1"/></g><path d="M185,76L185,68L186.5,68L186.5,76L185,76ZM185,88L185,80L186.5,80L186.5,88L185,88ZM185,100L185,92L186.5,92L186.5,100L185,100ZM185,112L185,104L186.5,104L186.5,112L185,112ZM185,124L185,116L186.5,116L186.5,124L185,124ZM185,136L185,128L186.5,128L186.5,136L185,136ZM185,148L185,140L186.5,140L186.5,148L185,148ZM201.232,156L193.11603,156L193.11603,154.5L201.232,154.5L201.232,156ZM213.4059,156L205.2899,156L205.2899,154.5L213.4059,154.5L213.4059,156ZM225.5798,156L217.4639,156L217.4639,154.5L225.5798,154.5L225.5798,156ZM237.7537,156L229.6378,156L229.6378,154.5L237.7537,154.5L237.7537,156ZM249.92759999999998,156L241.8117,156L241.8117,154.5L249.92759999999998,154.5L249.92759999999998,156ZM262.1015,156L253.9856,156L253.9856,154.5L262.1015,154.5L262.1015,156ZM274.2754,156L266.1595,156L266.1595,154.5L274.2754,154.5L274.2754,156ZM286.449,156L278.3334,156L278.3334,154.5L286.449,154.5L286.449,156ZM298.623,156L290.507,156L290.507,154.5L298.623,154.5L298.623,156ZM310.797,156L302.681,156L302.681,154.5L310.797,154.5L310.797,156ZM322.971,156L314.855,156L314.855,154.5L322.971,154.5L322.971,156ZM335.145,156L327.029,156L327.029,154.5L335.145,154.5L335.145,156ZM347.31899999999996,156L339.203,156L339.203,154.5L347.31899999999996,154.5L347.31899999999996,156ZM359.493,156L351.377,156L351.377,154.5L359.493,154.5L359.493,156ZM371.66700000000003,156L363.551,156L363.551,154.5L371.66700000000003,154.5L371.66700000000003,156ZM383.841,156L375.725,156L375.725,154.5L383.841,154.5L383.841,156ZM396.014,156L387.899,156L387.899,154.5L396.014,154.5L396.014,156ZM408.188,156L400.072,156L400.072,154.5L408.188,154.5L408.188,156ZM420.36199999999997,156L412.246,156L412.246,154.5L420.36199999999997,154.5L420.36199999999997,156ZM432.536,156L424.41999999999996,156L424.41999999999996,154.5L432.536,154.5L432.536,156ZM444.71,156L436.594,156L436.594,154.5L444.71,154.5L444.71,156ZM456.884,156L448.768,156L448.768,154.5L456.884,154.5L456.884,156ZM465,140L465,148L463.5,148L463.5,140L465,140ZM465,128L465,136L463.5,136L463.5,128L465,128ZM465,116L465,124L463.5,124L463.5,116L465,116ZM465,104L465,112L463.5,112L463.5,104L465,104ZM465,92L465,100L463.5,100L463.5,92L465,92ZM465,80L465,88L463.5,88L463.5,80L465,80ZM465,68L465,76L463.5,76L463.5,68L465,68ZM448.768,60L456.884,60L456.884,61.5L448.768,61.5L448.768,60ZM436.594,60L444.71,60L444.71,61.5L436.594,61.5L436.594,60ZM424.41999999999996,60L432.536,60L432.536,61.5L424.41999999999996,61.5L424.41999999999996,60ZM412.246,60L420.36199999999997,60L420.36199999999997,61.5L412.246,61.5L412.246,60ZM400.072,60L408.188,60L408.188,61.5L400.072,61.5L400.072,60ZM387.898,60L396.014,60L396.014,61.5L387.898,61.5L387.898,60ZM375.725,60L383.841,60L383.841,61.5L375.725,61.5L375.725,60ZM363.551,60L371.66700000000003,60L371.66700000000003,61.5L363.551,61.5L363.551,60ZM351.377,60L359.493,60L359.493,61.5L351.377,61.5L351.377,60ZM339.203,60L347.31899999999996,60L347.31899999999996,61.5L339.203,61.5L339.203,60ZM327.029,60L335.145,60L335.145,61.5L327.029,61.5L327.029,60ZM314.855,60L322.971,60L322.971,61.5L314.855,61.5L314.855,60ZM302.681,60L310.797,60L310.797,61.5L302.681,61.5L302.681,60ZM290.507,60L298.623,60L298.623,61.5L290.507,61.5L290.507,60ZM278.3333,60L286.449,60L286.449,61.5L278.3333,61.5L278.3333,60ZM266.1594,60L274.2754,60L274.2754,61.5L266.1594,61.5L266.1594,60ZM253.9855,60L262.1014,60L262.1014,61.5L253.9855,61.5L253.9855,60ZM241.8116,60L249.9275,60L249.9275,61.5L241.8116,61.5L241.8116,60ZM229.6377,60L237.7536,60L237.7536,61.5L229.6377,61.5L229.6377,60ZM217.4638,60L225.5797,60L225.5797,61.5L217.4638,61.5L217.4638,60ZM205.2899,60L213.4058,60L213.4058,61.5L205.2899,61.5L205.2899,60ZM193.11594,60L201.2319,60L201.2319,61.5L193.11594,61.5L193.11594,60ZM189.05797,60L189.05797,61.5L186.5,61.5L186.5,64L185,64L185,60L189.05797,60ZM460.942,60L465,60L465,64L463.5,64L463.5,61.5L460.942,61.5L460.942,60ZM465,152L465,156L460.942,156L460.942,154.5L463.5,154.5L463.5,152L465,152ZM189.05804,156L185,156L185,152L186.5,152L186.5,154.5L189.05804,154.5L189.05804,156Z" fill-rule="evenodd" fill="#DDDDDD" fill-opacity="1"/></g><g style="mix-blend-mode:passthrough"><g style="mix-blend-mode:passthrough"><path d="M515.28516,89.6543Q514.38867,91.05469,513.46289,92.02734L512.31445,91.25391Q513.19922,90.29883,514.00781,89.05078Q514.81641,87.79688,515.32031,86.66602L516.72656,87.02344Q516.45703,87.65625,516.04102,88.41211L520.25391,88.41211L520.25391,89.6543L517.64648,89.6543L518.19141,90.51562L518.53125,91.05469L517.37695,91.65234L516.13477,89.6543L515.28516,89.6543ZM522.3223,89.6543Q522.0352,90.1582,521.5547,90.87891L520.28906,90.26367Q520.86914,89.49023,521.332,88.63477Q521.8008,87.7793,522.2695,86.66602L523.6348,87.00586L522.9902,88.41211L528.375,88.41211L528.375,89.6543L525.1699,89.6543Q525.6562,90.35156,526.0137,90.93164L524.8594,91.57617L524.6426,91.21875Q524.4961,90.98438,524.1621,90.47461Q523.8281,89.95898,523.6172,89.6543L522.3223,89.6543ZM528.4277,96.375L524.7715,96.375L524.7715,97.8574L527.8184,97.8574L527.8184,99.0996L524.7715,99.0996L524.7715,100.9277Q524.7715,101.8125,524.5195,102.2695Q524.2676,102.7324,523.6465,102.9258Q523.0254,103.125,521.8594,103.125Q520.93945,103.125,519.98438,103.0137L519.75,101.7773Q520.92188,101.9355,521.6777,101.9355Q522.3984,101.9355,522.7207,101.8418Q523.043,101.7422,523.1602,101.4785Q523.2773,101.2148,523.2773,100.5996L523.2773,99.0996L512.88867,99.0996L512.88867,97.8574L523.2773,97.8574L523.2773,96.375L512.29688,96.375L512.29688,95.168L519.60938,95.168L519.60938,93.43359L513.5918,93.43359L513.5918,92.24414L519.60938,92.24414L519.60938,91.20117L521.1211,91.20117L521.1211,92.24414L527.1152,92.24414L527.1152,93.43359L521.1211,93.43359L521.1211,95.168L528.4277,95.168L528.4277,96.375ZM515.98828,99.3574Q518.29688,100.5586,519.30469,101.1797L518.56641,102.3164Q516.72656,101.2148,515.32031,100.4531L515.98828,99.3574ZM535.6641,87.80273Q534.9082,88.85742,533.5723,90.29297Q532.2422,91.72266,531.0645,92.72461L530.2383,91.53516Q531.3691,90.58594,532.6523,89.2207Q533.9414,87.85547,534.5684,86.90625L535.6641,87.80273ZM546.5742,94.125L544.2539,94.125L544.2539,96L546.2695,96L546.2695,97.3301L544.2539,97.3301L544.2539,101.0684Q544.2539,101.9414,544.0195,102.3867Q543.7909999999999,102.8379,543.2402,102.9961Q542.6895,103.1602,541.6582,103.1602Q541.1543,103.1602,540.0762,103.0898L539.8066,101.707Q540.8496,101.8477,541.875,101.8477Q542.3965,101.8477,542.5957,101.5723Q542.7949,101.291,542.7949,100.582L542.7949,97.3301L535.8809,97.3301L535.8809,96L542.7949,96L542.7949,94.125L535.5,94.125L535.5,92.75977L540.3281,92.75977L540.3281,90.58008L536.4551,90.58008L536.4551,89.25L540.3281,89.25L540.3281,87.01758L541.7637,87.01758L541.7637,89.25L545.6543,89.25L545.6543,90.58008L541.7637,90.58008L541.7637,92.75977L546.5742,92.75977L546.5742,94.125ZM535.5117,91.91016Q534.9551,92.90625,534,94.2305L534,103.1953L532.6348,103.1953L532.6348,95.877Q531.6094,97.0371,530.7773,97.793L530.1152,96.416Q531.1055,95.5605,532.3594,94.0371Q533.6133,92.51367,534.3633,91.21875L535.5117,91.91016ZM537.5391,97.6582Q538.1309,98.2148,540.0059,100.1719L538.9746,101.2031Q538.3477,100.4883,536.5078,98.6133L537.5391,97.6582ZM561.375,98.2734L564.7734,98.2734L564.7734,99.75L561.375,99.75L561.375,103.125L560.0039,103.125L560.0039,86.87109L561.375,86.87109L561.375,89.75977L564.3984,89.75977L564.3984,91.21289L561.375,91.21289L561.375,94.125L564.1641,94.125L564.1641,95.5605L561.375,95.5605L561.375,98.2734ZM552.0293,91.5L552.0293,94.3945Q552.4395,94.2246,553.3652,93.78516L553.3652,95.2559Q552.5449,95.6602,552.0293,95.8887L552.0293,101.1562Q552.0293,102.2285,551.6602,102.6738Q551.2969,103.125,550.4238,103.125Q549.5801,103.125,548.6191,102.9785L548.332,101.6191Q549.4453,101.8066,549.9784999999999,101.8066Q550.3301,101.8066,550.4707,101.5488Q550.6172,101.2852,550.6172,100.6934L550.6172,96.5039Q549.1348,97.1602,548.5312,97.4004L548.1738,95.9883Q549.4746,95.4961,550.6172,95.0039L550.6172,91.5L548.5840000000001,91.5L548.5840000000001,90.09961L550.6172,90.09961L550.6172,86.94141L552.0293,86.94141L552.0293,90.09961L553.5,90.09961L553.5,91.5L552.0293,91.5ZM554.2266,89.75977L556.875,89.75977L556.875,87.05273L558.2402,87.05273L558.2402,103.125L556.875,103.125L556.875,99.75L553.5645,99.75L553.5645,98.2734L556.875,98.2734L556.875,95.5605L554.1562,95.5605L554.1562,94.125L556.875,94.125L556.875,91.23047L554.2266,91.23047L554.2266,89.75977ZM568.7109,90.22266L568.7109,92.52539L567.2344,92.52539L567.2344,88.875L574.2188,88.875Q573.8613,88.13672,573.5566,87.55664L573.3223,87.10547L574.7051,86.51367L575.8594,88.875L582.0176,88.875L582.0176,92.54297L580.5234,92.54297L580.5234,90.22266L568.7109,90.22266ZM576.3809,91.42969Q577.6406,92.03906,579.457,92.99414Q581.2793,93.94922,582.2871,94.5293L581.5664,95.8184Q580.377,95.1094,578.6309,94.1895Q576.8848,93.26953,575.6953,92.70703L576.3809,91.42969ZM573.5566,92.71875Q570.9784999999999,94.4062,567.5742,96.0352L566.9648,94.6758Q570.3164,93.1875,572.7422,91.44727L573.5566,92.71875ZM580.4883,97.5L575.3906,97.5L575.3906,101.25L582.2695,101.25L582.2695,102.6328L567,102.6328L567,101.25L573.8789,101.25L573.8789,97.5L568.7812,97.5L568.7812,96.1289L580.4883,96.1289L580.4883,97.5ZM599.9941,89.55469L599.9941,90.32227Q599.9941,92.63672,599.877,95.7363Q599.7598,98.8359,599.6016,100.834Q599.5312,101.7305,599.2793,102.2168Q599.0332,102.7031,598.5645,102.9023Q598.0957,103.1074,597.293,103.1426Q597.1055,103.1602,596.7305,103.1602Q596.4375,103.1602,596.0566,103.1426Q595.6816,103.125,595.4707,103.1074L594.9961,103.0664L594.75,101.5195Q596.0098,101.7363,596.7129,101.7363Q597.2578,101.7363,597.5449,101.6191Q597.8379,101.4961,598.002,101.1562Q598.1659999999999,100.8164,598.2363,100.1016Q598.5,96.9609,598.5,92.36133L598.5,90.94336L594.1523,90.94336Q593.5605,92.53711,593.0156,93.74414L591.7909999999999,92.87695Q592.4766,91.51172,593.0684,89.82422Q593.6602,88.13672,594.0117,86.625L595.418,86.91211Q595.0488,88.37109,594.6445,89.55469L599.9941,89.55469ZM589.3945,87.01758Q589.1426,88.20703,588.7148,89.71875L591.2988,89.71875L591.2988,102.668L585.0938,102.668L585.0938,89.71875L587.0625,89.71875Q587.5137,88.44141,587.8477,86.74805L589.3945,87.01758ZM586.5,94.875L589.875,94.875L589.875,91.125L586.5,91.125L586.5,94.875ZM595.8516,98.707Q595.2949,97.8105,594.4863,96.6855Q593.6836,95.5547,593.1211,94.8926L594.1699,94.0078Q594.75,94.6934,595.5469,95.7832Q596.3438,96.8672,596.9414,97.7578L595.8516,98.707ZM586.5,96.2637L586.5,101.25L589.875,101.25L589.875,96.2637L586.5,96.2637ZM539.168,118.22460000000001Q542.7012,117.6914,545.6543,116.6543Q544.1074,115.8281,542.9004,114.8145Q541.7695,115.7754,540.416,116.63669999999999L539.6543,115.459Q541.1309,114.5215,542.5137,113.2617Q543.9023,111.9961,544.7695,110.8418L546.1172,111.5098Q545.7012,112.0488,545.3086,112.4648L553.4414,112.4648L553.4414,113.8301Q551.5898,115.4766,549.1582,116.6719Q550.4355,117.082,551.9473,117.39840000000001Q553.4590000000001,117.709,555.5859,118.0664L555.2637,119.3906Q550.4531,118.6934,547.4121,117.46289999999999Q544.1016,118.7988,539.5488,119.5898L539.168,118.22460000000001ZM543.9434,113.8887Q545.4784999999999,115.1719,547.3418,115.9922Q549.7734,114.9551,551.373,113.6895L544.1602,113.6895L543.9434,113.8887ZM554.6659999999999,121.7402L548.1855,121.7402L548.1855,124.9043Q548.1855,126.1289,547.7168,126.62700000000001Q547.2539,127.125,546.0996,127.125Q544.8809,127.125,543.9609,127.0137L543.6738,125.625Q544.7754,125.7539,545.5781,125.7539Q546.2637,125.7539,546.5039,125.4668Q546.75,125.1797,546.75,124.43549999999999L546.75,121.7402L540,121.7402L540,120.375L546.75,120.375L546.75,118.6934L548.1855,118.6934L548.1855,120.375L554.6659999999999,120.375L554.6659999999999,121.7402ZM544.8281,123.27539999999999Q543.0469,125.0801,539.7832,126.9785L538.9922,125.625Q540.3926,124.97460000000001,541.6816,124.0898Q542.9766,123.2051,543.9082,122.2441L544.8281,123.27539999999999ZM550.1659999999999,122.3789Q550.4355,122.5195,553.0312,124.0312L555.4219,125.42580000000001L554.6484,126.7793Q553.4414,125.98830000000001,552.0117,125.08590000000001Q550.582,124.1777,549.4453,123.4922L550.1659999999999,122.3789ZM559.5,127.1836L559.5,111.8086L571.5,111.8086L571.5,127.125L570.0469,127.125L570.0469,126L560.9766,126L560.9766,127.1836L559.5,127.1836ZM570.0469,116.25L570.0469,113.25L560.9766,113.25L560.9766,116.25L570.0469,116.25ZM570.0469,120.375L570.0469,117.6328L560.9766,117.6328L560.9766,120.375L570.0469,120.375ZM560.9766,121.7637L560.9766,124.5938L570.0469,124.5938L570.0469,121.7637L560.9766,121.7637Z" fill="#DDDDDD" fill-opacity="1"/></g><path d="M463,76L463,68L464.5,68L464.5,76L463,76ZM463,88L463,80L464.5,80L464.5,88L463,88ZM463,100L463,92L464.5,92L464.5,100L463,100ZM463,112L463,104L464.5,104L464.5,112L463,112ZM463,124L463,116L464.5,116L464.5,124L463,124ZM463,136L463,128L464.5,128L464.5,136L463,136ZM463,148L463,140L464.5,140L464.5,148L463,148ZM478.5833,156L470.79167,156L470.79167,154.5L478.5833,154.5L478.5833,156ZM490.2708,156L482.4792,156L482.4792,154.5L490.2708,154.5L490.2708,156ZM501.9583,156L494.1667,156L494.1667,154.5L501.9583,154.5L501.9583,156ZM513.6458,156L505.8542,156L505.8542,154.5L513.6458,154.5L513.6458,156ZM525.3333,156L517.5417,156L517.5417,154.5L525.3333,154.5L525.3333,156ZM537.0208,156L529.2292,156L529.2292,154.5L537.0208,154.5L537.0208,156ZM548.7083,156L540.9167,156L540.9167,154.5L548.7083,154.5L548.7083,156ZM560.3958,156L552.6042,156L552.6042,154.5L560.3958,154.5L560.3958,156ZM572.083,156L564.292,156L564.292,154.5L572.083,154.5L572.083,156ZM583.771,156L575.979,156L575.979,154.5L583.771,154.5L583.771,156ZM595.458,156L587.667,156L587.667,154.5L595.458,154.5L595.458,156ZM607.146,156L599.354,156L599.354,154.5L607.146,154.5L607.146,156ZM618.833,156L611.042,156L611.042,154.5L618.833,154.5L618.833,156ZM630.521,156L622.729,156L622.729,154.5L630.521,154.5L630.521,156ZM642.208,156L634.417,156L634.417,154.5L642.208,154.5L642.208,156ZM650,140L650,148L648.5,148L648.5,140L650,140ZM650,128L650,136L648.5,136L648.5,128L650,128ZM650,116L650,124L648.5,124L648.5,116L650,116ZM650,104L650,112L648.5,112L648.5,104L650,104ZM650,92L650,100L648.5,100L648.5,92L650,92ZM650,80L650,88L648.5,88L648.5,80L650,80ZM650,68L650,76L648.5,76L648.5,68L650,68ZM634.417,60L642.208,60L642.208,61.5L634.417,61.5L634.417,60ZM622.729,60L630.521,60L630.521,61.5L622.729,61.5L622.729,60ZM611.042,60L618.833,60L618.833,61.5L611.042,61.5L611.042,60ZM599.354,60L607.146,60L607.146,61.5L599.354,61.5L599.354,60ZM587.667,60L595.458,60L595.458,61.5L587.667,61.5L587.667,60ZM575.979,60L583.771,60L583.771,61.5L575.979,61.5L575.979,60ZM564.292,60L572.083,60L572.083,61.5L564.292,61.5L564.292,60ZM552.6042,60L560.3958,60L560.3958,61.5L552.6042,61.5L552.6042,60ZM540.9167,60L548.7083,60L548.7083,61.5L540.9167,61.5L540.9167,60ZM529.2292,60L537.0208,60L537.0208,61.5L529.2292,61.5L529.2292,60ZM517.5417,60L525.3333,60L525.3333,61.5L517.5417,61.5L517.5417,60ZM505.8542,60L513.6458,60L513.6458,61.5L505.8542,61.5L505.8542,60ZM494.1667,60L501.9583,60L501.9583,61.5L494.1667,61.5L494.1667,60ZM482.4792,60L490.2708,60L490.2708,61.5L482.4792,61.5L482.4792,60ZM470.79167,60L478.5833,60L478.5833,61.5L470.79167,61.5L470.79167,60ZM466.89583,60L466.89583,61.5L464.5,61.5L464.5,64L463,64L463,60L466.89583,60ZM646.104,60L650,60L650,64L648.5,64L648.5,61.5L646.104,61.5L646.104,60ZM650,152L650,156L646.104,156L646.104,154.5L648.5,154.5L648.5,152L650,152ZM466.89584,156L463,156L463,152L464.5,152L464.5,154.5L466.89584,154.5L466.89584,156Z" fill-rule="evenodd" fill="#DDDDDD" fill-opacity="1"/></g><g style="mix-blend-mode:passthrough"><path d="M241.9629,19.4062Q238.7051,19.1719,236.5078,18.7207Q234.31641,18.2754,232.60547,17.4785Q231.66797,18.1465,230.2207,18.6855Q228.77344,19.2246,226.61133,19.6934L226.05469,18.3633Q227.92383,17.9473,229.14844,17.5547Q230.37305,17.1562,231.18164,16.7051Q229.88672,15.8965,228.55664,14.707L229.54102,13.8398Q231.07031,15.1758,232.29492,15.8789Q233.12695,14.9941,233.32617,13.5L227.83594,13.5L227.83594,6.65039L233.41406,6.65039L233.41406,5.08008L226.46484,5.08008L226.46484,3.75L241.875,3.75L241.875,5.08008L234.85547,5.08008L234.85547,6.65039L240.4863,6.65039L240.4863,13.5L234.78516,13.5Q234.67383,14.4375,234.39258,15.1816Q234.11719,15.9258,233.63086,16.5234Q235.1074,17.1328,237.1582,17.4902Q239.209,17.8418,242.2734,17.9824L241.9629,19.4062ZM233.41406,9.33984L233.41406,7.875L229.25391,7.875L229.25391,9.33984L233.41406,9.33984ZM239.1035,9.33984L239.1035,7.875L234.85547,7.875L234.85547,9.33984L239.1035,9.33984ZM229.25391,10.5469L229.25391,12.2812L233.41406,12.2812L233.41406,11.9062L233.41406,10.5469L229.25391,10.5469ZM234.85547,12.2812L239.1035,12.2812L239.1035,10.5469L234.85547,10.5469L234.85547,11.9648L234.85547,12.2812ZM252.1406,13.125L248.918,13.125L248.918,17.4434Q248.918,18.1113,248.7715,18.457Q248.6309,18.8086,248.2852,18.9551Q247.9453,19.1074,247.29489999999998,19.1426Q246.4629,19.1426,245.8711,19.0547L245.6016,17.7598Q245.8887,17.8008,246.0293,17.8008Q246.6094,17.8652,246.8789,17.8652Q247.3477,17.8652,247.4531,17.666Q247.5645,17.4609,247.5645,16.7988L247.5645,13.125L244.002,13.125L244.002,11.8828L247.5645,11.8828L247.5645,9.83789L243.75,9.83789L243.75,8.56055L245.98239999999998,8.56055Q245.67770000000002,6.96094,245.4082,6L244.2012,6L244.2012,4.74023L247.66989999999998,4.74023L247.1367,3.55078L246.9375,3.11719L248.25,2.72461L249.1523,4.74023L252.1582,4.74023L252.1582,6L251.0039,6Q250.7695,7.04297,250.3242,8.56055L252.39260000000002,8.56055L252.39260000000002,9.83789L248.918,9.83789L248.918,11.8828L252.1406,11.8828L252.1406,13.125ZM260.1855,8.77148L260.1855,10.125L258.2402,10.125L258.2402,19.1426L256.875,19.1426L256.875,10.125L254.45510000000002,10.125L254.45510000000002,10.4648Q254.45510000000002,12.8027,254.291,14.25Q254.127,15.6973,253.66989999999998,16.8984Q253.2129,18.0938,252.2871,19.4473L251.04489999999998,18.5684Q251.918,17.4258,252.35739999999998,16.3477Q252.7969,15.2695,252.9609,13.875Q253.125,12.4805,253.125,10.2012L253.125,4.68164Q254.7656,4.52344,256.4355,4.17188Q258.1055,3.82031,259.2832,3.38672L259.7344,4.68164Q258.7324,5.04492,257.2676,5.38477Q255.8086,5.71875,254.45510000000002,5.87695L254.45510000000002,8.77148L260.1855,8.77148ZM246.627,6Q246.9375,7.18945,247.207,8.56055L249.0645,8.56055Q249.3867,7.48242,249.7266,6L246.627,6ZM250.7344,13.7871Q250.8809,14.1094,251.75979999999998,16.2773L251.9238,16.6816L250.7344,17.168Q250.5762,16.6465,250.2305,15.7559Q249.8906,14.8594,249.6211,14.2031L250.7344,13.7871ZM246.5625,14.1562Q246.1816,15.293,245.67770000000002,16.4297Q245.1738,17.5664,244.66989999999998,18.3516L243.5742,17.7949Q244.5059,16.418,245.3906,13.8398L246.5625,14.1562ZM277.4941,5.55469L277.4941,6.32227Q277.4941,8.63672,277.377,11.7363Q277.2598,14.8359,277.1016,16.834Q277.0312,17.7305,276.7793,18.2168Q276.5332,18.7031,276.0645,18.9023Q275.5957,19.1074,274.793,19.1426Q274.6055,19.1602,274.2305,19.1602Q273.9375,19.1602,273.5566,19.1426Q273.1816,19.125,272.9707,19.1074L272.4961,19.0664L272.25,17.5195Q273.5098,17.7363,274.2129,17.7363Q274.7578,17.7363,275.0449,17.6191Q275.3379,17.4961,275.502,17.1562Q275.666,16.8164,275.7363,16.1016Q276,12.9609,276,8.36133L276,6.94336L271.65229999999997,6.94336Q271.0605,8.53711,270.5156,9.74414L269.291,8.87695Q269.9766,7.51172,270.5684,5.82422Q271.16020000000003,4.13672,271.5117,2.625L272.918,2.91211Q272.5488,4.37109,272.1445,5.55469L277.4941,5.55469ZM266.8945,3.01758Q266.6426,4.20703,266.21479999999997,5.71875L268.7988,5.71875L268.7988,18.668L262.5938,18.668L262.5938,5.71875L264.5625,5.71875Q265.0137,4.44141,265.34770000000003,2.74805L266.8945,3.01758ZM264,10.875L267.375,10.875L267.375,7.125L264,7.125L264,10.875ZM273.3516,14.707Q272.7949,13.8105,271.9863,12.6855Q271.1836,11.5547,270.6211,10.8926L271.6699,10.0078Q272.25,10.6934,273.0469,11.7832Q273.8438,12.8672,274.4414,13.7578L273.3516,14.707ZM264,12.2637L264,17.25L267.375,17.25L267.375,12.2637L264,12.2637ZM279.668,10.2246Q283.2012,9.69141,286.1543,8.6543Q284.6074,7.82812,283.4004,6.81445Q282.2695,7.77539,280.916,8.63672L280.1543,7.45898Q281.6309,6.52148,283.0137,5.26172Q284.40229999999997,3.99609,285.2695,2.8418L286.6172,3.50977Q286.2012,4.04883,285.8086,4.46484L293.9414,4.46484L293.9414,5.83008Q292.08979999999997,7.47656,289.65819999999997,8.67188Q290.9355,9.08203,292.4473,9.39844Q293.959,9.70898,296.0859,10.0664L295.7637,11.3906Q290.9531,10.6934,287.9121,9.46289Q284.6016,10.7988,280.0488,11.5898L279.668,10.2246ZM284.4434,5.88867Q285.9785,7.17188,287.8418,7.99219Q290.2734,6.95508,291.873,5.68945L284.66020000000003,5.68945L284.4434,5.88867ZM295.166,13.7402L288.6855,13.7402L288.6855,16.9043Q288.6855,18.1289,288.2168,18.627Q287.7539,19.125,286.5996,19.125Q285.3809,19.125,284.4609,19.0137L284.1738,17.625Q285.2754,17.7539,286.0781,17.7539Q286.7637,17.7539,287.0039,17.4668Q287.25,17.1797,287.25,16.4355L287.25,13.7402L280.5,13.7402L280.5,12.375L287.25,12.375L287.25,10.6934L288.6855,10.6934L288.6855,12.375L295.166,12.375L295.166,13.7402ZM285.3281,15.2754Q283.5469,17.0801,280.2832,18.9785L279.4922,17.625Q280.8926,16.9746,282.1816,16.0898Q283.4766,15.2051,284.4082,14.2441L285.3281,15.2754ZM290.666,14.3789Q290.9355,14.5195,293.5312,16.0312L295.9219,17.4258L295.1484,18.7793Q293.9414,17.9883,292.5117,17.0859Q291.082,16.1777,289.9453,15.4922L290.666,14.3789ZM300,19.1836L300,3.80859L312,3.80859L312,19.125L310.5469,19.125L310.5469,18L301.4766,18L301.4766,19.1836L300,19.1836ZM310.5469,8.25L310.5469,5.25L301.4766,5.25L301.4766,8.25L310.5469,8.25ZM310.5469,12.375L310.5469,9.63281L301.4766,9.63281L301.4766,12.375L310.5469,12.375ZM301.4766,13.7637L301.4766,16.5938L310.5469,16.5938L310.5469,13.7637L301.4766,13.7637Z" fill="#DDDDDD" fill-opacity="1"/></g><g style="mix-blend-mode:passthrough"><path d="M500.9629,19.4062Q497.7051,19.1719,495.5078,18.7207Q493.31641,18.2754,491.60547,17.4785Q490.66797,18.1465,489.2207,18.6855Q487.77344,19.2246,485.61133,19.6934L485.05469,18.3633Q486.92383,17.9473,488.14844,17.5547Q489.37305,17.1562,490.18164,16.7051Q488.88672,15.8965,487.55664,14.707L488.54102,13.8398Q490.07031,15.1758,491.29492,15.8789Q492.12695,14.9941,492.32617,13.5L486.83594,13.5L486.83594,6.65039L492.41406,6.65039L492.41406,5.08008L485.46484,5.08008L485.46484,3.75L500.875,3.75L500.875,5.08008L493.85547,5.08008L493.85547,6.65039L499.4863,6.65039L499.4863,13.5L493.78516,13.5Q493.67383,14.4375,493.39258,15.1816Q493.11719,15.9258,492.63086,16.5234Q494.1074,17.1328,496.1582,17.4902Q498.209,17.8418,501.2734,17.9824L500.9629,19.4062ZM492.41406,9.33984L492.41406,7.875L488.25391,7.875L488.25391,9.33984L492.41406,9.33984ZM498.1035,9.33984L498.1035,7.875L493.85547,7.875L493.85547,9.33984L498.1035,9.33984ZM488.25391,10.5469L488.25391,12.2812L492.41406,12.2812L492.41406,11.9062L492.41406,10.5469L488.25391,10.5469ZM493.85547,12.2812L498.1035,12.2812L498.1035,10.5469L493.85547,10.5469L493.85547,11.9648L493.85547,12.2812ZM511.5508,14.25L518.8926,14.25L518.8926,15.6387L511.5508,15.6387L511.5508,19.125L510.0918,19.125L510.0918,15.6387L502.75,15.6387L502.75,14.25L510.0918,14.25L510.0918,12.3164L504.748,12.3164L504.748,3.75L516.8594,3.75L516.8594,12.3164L511.5508,12.3164L511.5508,14.25ZM515.4531,7.21875L515.4531,5.13281L506.1895,5.13281L506.1895,7.21875L515.4531,7.21875ZM515.4531,8.625L506.1895,8.625L506.1895,10.875L515.4531,10.875L515.4531,8.625ZM524.3534999999999,2.80078L524.3534999999999,5.87695L525.9824,5.87695L525.9824,7.35938L524.3534999999999,7.35938L524.3534999999999,10.0723L525.6543,9.49805L525.7422,10.9512L524.3534999999999,11.584L524.3534999999999,17.2969Q524.3534999999999,18.334,523.9551,18.7266Q523.5566,19.125,522.5664,19.125Q521.9746,19.125,521.4004,19.0723L521.1426,17.6426Q521.7871,17.7539,522.2909999999999,17.7539Q522.7422,17.7539,522.8945,17.5605Q523.0527,17.3672,523.0527,16.8457L523.0527,12.1699Q521.9863,12.6445,521.0137,13.0254L520.8555,11.5312Q521.8984,11.1211,523.0527,10.6289L523.0527,7.35938L521.125,7.35938L521.125,5.87695L523.0527,5.87695L523.0527,2.80078L524.3534999999999,2.80078ZM532.2461,16.8633L535.1699,16.8633L535.1699,14.707L533.1016,14.707L533.1016,13.4648L535.1699,13.4648L535.1699,11.4023L533.0312,11.4023L533.0312,10.125L536.5,10.125L536.5,19.125L535.1699,19.125L535.1699,18.1641L528.0508,18.1641L528.0508,19.1426L526.75,19.1426L526.75,10.4121Q527.4883,10.2715,528.3145,10.0195Q529.1465000000001,9.76172,529.7969,9.48633L530.1895,10.7168Q529.252,11.1738,528.0508,11.5137L528.0508,13.4648L530.0664,13.4648L530.0664,14.707L528.0508,14.707L528.0508,16.8633L530.875,16.8633L530.875,8.44336L526.5039,8.44336L526.5039,7.125L530.875,7.125L530.875,5.01562Q528.502,5.21484,526.8789,5.26758L526.75,3.97266Q528.6074,3.90234,531.5664,3.66211Q534.5254,3.41602,536.4648,3.14648L536.6992,4.44141Q534.6191,4.71094,532.2461,4.91016L532.2461,7.125L537.2031,7.125L537.2031,8.44336L532.2461,8.44336L532.2461,16.8633ZM547.7207,5.55469Q548.1543,9.47461,549.9414,12.4922Q551.7344,15.5098,555.2441,17.8828L554.2539,19.1426Q551.3184,16.9805,549.5605,14.5723Q547.8086,12.1582,547,8.90039Q545.4355,14.5371,539.6758,19.1777L538.5742,17.9531Q542.3359,15.1465,544.1348,12.082Q545.9395,9.01172,546.332,5.75391Q546.1562,5.47852,545.7871,5.36719Q545.418,5.25,544.7852,5.25L542.2305,5.25L542.2305,3.73242L545.3418,3.73242Q546.4961,3.73242,547.0645,4.14844Q547.6328,4.56445,547.7207,5.55469ZM572.4941,5.55469L572.4941,6.32227Q572.4941,8.63672,572.377,11.7363Q572.2598,14.8359,572.1016,16.834Q572.0312,17.7305,571.7793,18.2168Q571.5332,18.7031,571.0645,18.9023Q570.5957,19.1074,569.793,19.1426Q569.6055,19.1602,569.2305,19.1602Q568.9375,19.1602,568.5566,19.1426Q568.1816,19.125,567.9707,19.1074L567.4961,19.0664L567.25,17.5195Q568.5098,17.7363,569.2129,17.7363Q569.7578,17.7363,570.0449,17.6191Q570.3379,17.4961,570.502,17.1562Q570.6659999999999,16.8164,570.7363,16.1016Q571,12.9609,571,8.36133L571,6.94336L566.6523,6.94336Q566.0605,8.53711,565.5156,9.74414L564.2909999999999,8.87695Q564.9766,7.51172,565.5684,5.82422Q566.1602,4.13672,566.5117,2.625L567.918,2.91211Q567.5488,4.37109,567.1445,5.55469L572.4941,5.55469ZM561.8945,3.01758Q561.6426,4.20703,561.2148,5.71875L563.7988,5.71875L563.7988,18.668L557.5938,18.668L557.5938,5.71875L559.5625,5.71875Q560.0137,4.44141,560.3477,2.74805L561.8945,3.01758ZM559,10.875L562.375,10.875L562.375,7.125L559,7.125L559,10.875ZM568.3516,14.707Q567.7949,13.8105,566.9863,12.6855Q566.1836,11.5547,565.6211,10.8926L566.6699,10.0078Q567.25,10.6934,568.0469,11.7832Q568.8438,12.8672,569.4414,13.7578L568.3516,14.707ZM559,12.2637L559,17.25L562.375,17.25L562.375,12.2637L559,12.2637ZM574.668,10.2246Q578.2012,9.69141,581.1543,8.6543Q579.6074,7.82812,578.4004,6.81445Q577.2695,7.77539,575.9159999999999,8.63672L575.1543,7.45898Q576.6309,6.52148,578.0137,5.26172Q579.4023,3.99609,580.2695,2.8418L581.6172,3.50977Q581.2012,4.04883,580.8086,4.46484L588.941,4.46484L588.941,5.83008Q587.09,7.47656,584.658,8.67188Q585.936,9.08203,587.447,9.39844Q588.9590000000001,9.70898,591.086,10.0664L590.764,11.3906Q585.953,10.6934,582.9121,9.46289Q579.6016,10.7988,575.0488,11.5898L574.668,10.2246ZM579.4434,5.88867Q580.9784999999999,7.17188,582.8418,7.99219Q585.273,6.95508,586.873,5.68945L579.6602,5.68945L579.4434,5.88867ZM590.1659999999999,13.7402L583.6855,13.7402L583.6855,16.9043Q583.6855,18.1289,583.2168,18.627Q582.7539,19.125,581.5996,19.125Q580.3809,19.125,579.4609,19.0137L579.1738,17.625Q580.2754,17.7539,581.0781,17.7539Q581.7637,17.7539,582.0039,17.4668Q582.25,17.1797,582.25,16.4355L582.25,13.7402L575.5,13.7402L575.5,12.375L582.25,12.375L582.25,10.6934L583.6855,10.6934L583.6855,12.375L590.1659999999999,12.375L590.1659999999999,13.7402ZM580.3281,15.2754Q578.5469,17.0801,575.2832,18.9785L574.4922,17.625Q575.8926,16.9746,577.1816,16.0898Q578.4766,15.2051,579.4082,14.2441L580.3281,15.2754ZM585.6659999999999,14.3789Q585.936,14.5195,588.531,16.0312L590.922,17.4258L590.148,18.7793Q588.941,17.9883,587.512,17.0859Q586.082,16.1777,584.9449999999999,15.4922L585.6659999999999,14.3789ZM595,19.1836L595,3.80859L607,3.80859L607,19.125L605.547,19.125L605.547,18L596.477,18L596.477,19.1836L595,19.1836ZM605.547,8.25L605.547,5.25L596.477,5.25L596.477,8.25L605.547,8.25ZM605.547,12.375L605.547,9.63281L596.477,9.63281L596.477,12.375L605.547,12.375ZM596.477,13.7637L596.477,16.5938L605.547,16.5938L605.547,13.7637L596.477,13.7637Z" fill="#DDDDDD" fill-opacity="1"/></g><g style="mix-blend-mode:passthrough"><path d="M218.9707,35.3379Q218.9707,32.79492,219.8145,30.64453Q220.6641,28.49414,222.1406,27L223.5938,27Q222.1406,28.76367,221.3555,30.80859Q220.5703,32.85352,220.5703,35.3379Q220.5703,37.8398,221.3555,39.8906Q222.1406,41.9414,223.5938,43.6699L222.1406,43.6699Q220.6641,42.175799999999995,219.8145,40.037099999999995Q218.9707,37.8926,218.9707,35.3379ZM239.4141,38.5078Q237.88479999999998,38.5957,234.8203,38.7422L234.8203,41.0566Q234.8203,42.164100000000005,234.4219,42.6211Q234.0234,43.084,233.1621,43.125Q232.3828,43.1426,231.2754,43.0488L231.0234,41.7422Q231.16989999999998,41.7598,231.7031,41.8301Q232.2363,41.900400000000005,232.70510000000002,41.900400000000005Q233.0684,41.900400000000005,233.23239999999998,41.601600000000005Q233.3965,41.2969,233.3965,40.675799999999995L233.3965,38.8301L228.8555,39.0469L226.957,39.1523L226.74020000000002,37.875Q228.13479999999998,37.875,228.5273,37.7461Q230.5488,37.0898,233.1387,35.6602Q231.6914,35.7656,229.084,35.9473L227.8535,36.0469L227.6602,35.0508Q228.6738,34.9629,229.0312,34.8164Q230.1738,34.3535,232.7227,32.38477L228,32.38477L228,34.3652L226.5234,34.3652L226.5234,31.125L233.25,31.125L233.25,29.625L226.957,29.625L226.957,28.36523L233.25,28.36523L233.25,26.87109L234.6738,26.87109L234.6738,28.36523L241.0605,28.36523L241.0605,29.625L234.6738,29.625L234.6738,31.125L241.4766,31.125L241.4766,34.4004L240,34.4004L240,32.38477L234.6211,32.38477Q233.9355,32.95898,232.9629,33.67383Q231.9961,34.3828,231.293,34.8516L235.1191,34.541Q236.6895,33.5918,237.6094,32.94141L238.3945,34.0078Q236.3262,35.3789,234.832,36.2578Q233.3379,37.1309,231.873,37.6992L238.17770000000002,37.3184Q237.3516,36.5508,236.9883,36.252L237.91989999999998,35.373Q240.2227,37.4473,241.36520000000002,38.7188L240.5039,39.6504Q240.2871,39.3984,239.707,38.7949Q239.707,38.7949,239.4141,38.5078ZM231.2578,40.3301Q230.2148,41.0449,228.8672,41.7656Q227.5195,42.4863,226.2363,43.037099999999995L225.6797,41.724599999999995Q226.9102,41.2441,228.2871,40.5293Q229.66989999999998,39.8086,230.57229999999998,39.1523L231.2578,40.3301ZM236.8594,39.1348Q238.1484,39.75,241.3066,41.332L242.1387,41.7422L241.5117,42.9961Q240.6211,42.498000000000005,238.9512,41.6719Q237.2812,40.8398,236.209,40.3418L236.8594,39.1348ZM256.8457,26.97656L258.375,26.97656L258.375,43.125L256.8457,43.125L256.8457,26.97656ZM253.125,27.75L253.125,33.24609L246.8789,33.24609L246.668,35.625L253.2188,35.625Q253.2012,37.8574,252.873,40.4062Q252.73239999999998,41.501999999999995,252.416,42.0703Q252.0996,42.6445,251.4492,42.8848Q250.8047,43.125,249.6562,43.125Q248.3555,43.125,246.8262,42.9434L246.5391,41.5078Q248.26760000000002,41.7715,249.58010000000002,41.7715Q250.44729999999998,41.7715,250.8398,41.3789Q251.2383,40.9863,251.3789,39.9961Q251.6133,38.4023,251.6895,37.0254L245.04489999999998,37.0254L245.4785,31.875L251.5957,31.875L251.5957,29.13867L245.0625,29.13867L245.0625,27.75L253.125,27.75ZM266.3496,27.1582Q265.7578,29.39062,265.125,31.07227L265.125,43.125L263.7246,43.125L263.7246,33.94336Q263.0039,35.332,262.3008,36.375L261.52729999999997,34.8281Q262.5703,33.33984,263.4258,31.25977Q264.2812,29.17969,264.873,26.85938L266.3496,27.1582ZM276.668,31.40039L276.668,41.4902L278.25,41.4902L278.25,42.75L265.957,42.75L265.957,41.4902L267.5742,41.4902L267.5742,31.40039L271.4121,31.40039L271.4121,29.67188L266.8418,29.67188L266.8418,28.42969L271.4121,28.42969L271.4121,26.90039L272.84770000000003,26.90039L272.84770000000003,28.42969L277.7461,28.42969L277.7461,29.67188L272.84770000000003,29.67188L272.84770000000003,31.40039L276.668,31.40039ZM275.2266,33.76172L275.2266,32.625L269.0156,32.625L269.0156,33.76172L275.2266,33.76172ZM269.0156,36.375L275.2266,36.375L275.2266,34.875L269.0156,34.875L269.0156,36.375ZM275.2266,39L275.2266,37.5059L269.0156,37.5059L269.0156,39L275.2266,39ZM275.2266,40.0957L269.0156,40.0957L269.0156,41.4902L275.2266,41.4902L275.2266,40.0957ZM295.9629,43.4062Q292.7051,43.1719,290.5078,42.7207Q288.3164,42.275400000000005,286.6055,41.4785Q285.668,42.1465,284.22069999999997,42.685500000000005Q282.7734,43.224599999999995,280.6113,43.6934L280.0547,42.363299999999995Q281.9238,41.9473,283.1484,41.5547Q284.373,41.1562,285.1816,40.7051Q283.8867,39.8965,282.5566,38.707L283.541,37.8398Q285.0703,39.1758,286.2949,39.8789Q287.127,38.9941,287.3262,37.5L281.8359,37.5L281.8359,30.65039L287.4141,30.65039L287.4141,29.08008L280.46479999999997,29.08008L280.46479999999997,27.75L295.875,27.75L295.875,29.08008L288.8555,29.08008L288.8555,30.65039L294.4863,30.65039L294.4863,37.5L288.78520000000003,37.5Q288.6738,38.4375,288.3926,39.1816Q288.1172,39.9258,287.6309,40.523399999999995Q289.1074,41.1328,291.15819999999997,41.4902Q293.209,41.8418,296.2734,41.9824L295.9629,43.4062ZM287.4141,33.33984L287.4141,31.875L283.2539,31.875L283.2539,33.33984L287.4141,33.33984ZM293.1035,33.33984L293.1035,31.875L288.8555,31.875L288.8555,33.33984L293.1035,33.33984ZM283.2539,34.5469L283.2539,36.2812L287.4141,36.2812L287.4141,35.9062L287.4141,34.5469L283.2539,34.5469ZM288.8555,36.2812L293.1035,36.2812L293.1035,34.5469L288.8555,34.5469L288.8555,35.9648L288.8555,36.2812ZM306.5508,32.8418Q307.178,35.7363,308.971,37.8809Q310.764,40.025400000000005,314.039,41.748000000000005L313.102,43.101600000000005Q307.705,39.9844,305.959,35.4844Q304.377,39.7324,298.7578,43.1543L297.8027,41.7715Q300.9141,40.0781,302.8594,37.7754Q304.8047,35.4668,305.0215,32.625L298.125,32.625L298.125,31.16602L305.0566,31.16602L305.0566,26.61328L306.5859,26.61328L306.5859,31.16602L313.58799999999997,31.16602L313.58799999999997,32.625L306.5684,32.625Q306.5508,32.69531,306.5508,32.8418ZM321.029,35.3379Q321.029,37.875,320.18,40.025400000000005Q319.336,42.175799999999995,317.859,43.6699L316.406,43.6699Q317.859,41.9062,318.645,39.8672Q319.43,37.8223,319.43,35.3379Q319.43,32.83594,318.645,30.78516Q317.859,28.72852,316.406,27L317.859,27Q319.336,28.49414,320.18,30.63867Q321.029,32.77734,321.029,35.3379Z" fill="#DDDDDD" fill-opacity="1"/></g><g style="mix-blend-mode:passthrough"><path d="M163.85352,196.80078L163.85352,199.87695L165.48242,199.87695L165.48242,201.35938L163.85352,201.35938L163.85352,204.0723L165.1543,203.49805L165.24219,204.9512L163.85352,205.584L163.85352,211.2969Q163.85352,212.334,163.45508,212.7266Q163.05664,213.125,162.06641,213.125Q161.47461,213.125,160.90039,213.07229999999998L160.64258,211.64260000000002Q161.28711,211.7539,161.79102,211.7539Q162.24219,211.7539,162.39453,211.5605Q162.55273,211.3672,162.55273,210.8457L162.55273,206.1699Q161.48633,206.6445,160.51367,207.0254L160.355469,205.5312Q161.39844,205.1211,162.55273,204.6289L162.55273,201.35938L160.625,201.35938L160.625,199.87695L162.55273,199.87695L162.55273,196.80078L163.85352,196.80078ZM171.7461,210.8633L174.6699,210.8633L174.6699,208.707L172.6016,208.707L172.6016,207.4648L174.6699,207.4648L174.6699,205.4023L172.5312,205.4023L172.5312,204.125L176,204.125L176,213.125L174.6699,213.125L174.6699,212.1641L167.55078,212.1641L167.55078,213.14260000000002L166.25,213.14260000000002L166.25,204.4121Q166.98828,204.2715,167.81445,204.0195Q168.64648,203.76172,169.29688,203.48633L169.6895,204.7168Q168.75195,205.1738,167.55078,205.5137L167.55078,207.4648L169.5664,207.4648L169.5664,208.707L167.55078,208.707L167.55078,210.8633L170.375,210.8633L170.375,202.44336L166.00391,202.44336L166.00391,201.125L170.375,201.125L170.375,199.01562Q168.00195,199.21484,166.37891,199.26758L166.25,197.97266Q168.10742,197.90234,171.0664,197.66211Q174.0254,197.41602,175.9648,197.14648L176.1992,198.44141Q174.1191,198.71094,171.7461,198.91016L171.7461,201.125L176.7031,201.125L176.7031,202.44336L171.7461,202.44336L171.7461,210.8633ZM187.2207,199.55469Q187.6543,203.47461,189.4414,206.4922Q191.2344,209.5098,194.7441,211.8828L193.7539,213.14260000000002Q190.8184,210.9805,189.0605,208.5723Q187.3086,206.1582,186.5,202.90039Q184.9355,208.5371,179.1758,213.17770000000002L178.0742,211.9531Q181.8359,209.1465,183.63479999999998,206.082Q185.4395,203.01172,185.832,199.75391Q185.6562,199.47852,185.2871,199.36719Q184.918,199.25,184.2852,199.25L181.7305,199.25L181.7305,197.73242L184.8418,197.73242Q185.9961,197.73242,186.5645,198.14844Q187.1328,198.56445,187.2207,199.55469ZM204.8867,202.25L210.8164,202.25L210.8164,207.875L198.5,207.875L198.5,202.25L203.375,202.25L203.375,196.77734L204.8867,196.77734L204.8867,198.55859L212.1289,198.55859L212.1289,200L204.8867,200L204.8867,202.25ZM199.9414,206.4863L209.375,206.4863L209.375,203.68555L199.9414,203.68555L199.9414,206.4863ZM210.5059,208.5078Q211.4609,210.0547,212.6504,212.39260000000002L211.3906,213.1133Q210.66989999999998,211.5488,209.2285,209.0996L210.5059,208.5078ZM196.5254,212.5742Q197.1523,211.6543,197.7148,210.5469Q198.2832,209.4395,198.6055,208.5254L199.9238,209.0645Q199.5664,210.0371,198.9863,211.19729999999998Q198.4121,212.35739999999998,197.8379,213.3125L196.5254,212.5742ZM206.6504,208.7773Q206.9727,209.5332,207.36520000000002,210.5938Q207.7578,211.6543,207.9922,212.4453L206.6328,212.8262Q206.2285,211.3496,205.3438,209.1875L206.6504,208.7773ZM202.7656,208.9531Q202.9766,209.6914,203.2109,210.7988Q203.4453,211.9062,203.5742,212.69729999999998L202.1328,212.9844Q201.9688,211.38479999999998,201.418,209.2051L202.7656,208.9531Z" fill="#DDDDDD" fill-opacity="1"/></g><g style="mix-blend-mode:passthrough"><path d="M441.375,208.2734L444.7734,208.2734L444.7734,209.75L441.375,209.75L441.375,213.125L440.0039,213.125L440.0039,196.87109L441.375,196.87109L441.375,199.75977L444.3984,199.75977L444.3984,201.21289L441.375,201.21289L441.375,204.125L444.1641,204.125L444.1641,205.5605L441.375,205.5605L441.375,208.2734ZM432.0293,201.5L432.0293,204.3945Q432.43945,204.2246,433.36523,203.78516L433.36523,205.2559Q432.54492,205.6602,432.0293,205.8887L432.0293,211.1562Q432.0293,212.2285,431.66016,212.6738Q431.29688,213.125,430.42383,213.125Q429.58008,213.125,428.61914,212.9785L428.332031,211.6191Q429.44531,211.8066,429.97852,211.8066Q430.33008,211.8066,430.4707,211.5488Q430.61719,211.2852,430.61719,210.6934L430.61719,206.5039Q429.13477,207.1602,428.53125,207.4004L428.173828,205.9883Q429.47461,205.4961,430.61719,205.0039L430.61719,201.5L428.58398,201.5L428.58398,200.09961L430.61719,200.09961L430.61719,196.94141L432.0293,196.94141L432.0293,200.09961L433.5,200.09961L433.5,201.5L432.0293,201.5ZM434.22656,199.75977L436.875,199.75977L436.875,197.05273L438.2402,197.05273L438.2402,213.125L436.875,213.125L436.875,209.75L433.56445,209.75L433.56445,208.2734L436.875,208.2734L436.875,205.5605L434.15625,205.5605L434.15625,204.125L436.875,204.125L436.875,201.23047L434.22656,201.23047L434.22656,199.75977ZM448.7109,200.22266L448.7109,202.52539L447.2344,202.52539L447.2344,198.875L454.2188,198.875Q453.8613,198.13672,453.5566,197.55664L453.3223,197.10547L454.7051,196.51367L455.8594,198.875L462.0176,198.875L462.0176,202.54297L460.5234,202.54297L460.5234,200.22266L448.7109,200.22266ZM456.3809,201.42969Q457.6406,202.03906,459.457,202.99414Q461.2793,203.94922,462.2871,204.5293L461.5664,205.8184Q460.377,205.1094,458.6309,204.1895Q456.8848,203.26953,455.6953,202.70703L456.3809,201.42969ZM453.5566,202.71875Q450.9785,204.4062,447.5742,206.0352L446.9648,204.6758Q450.3164,203.1875,452.7422,201.44727L453.5566,202.71875ZM460.4883,207.5L455.3906,207.5L455.3906,211.25L462.2695,211.25L462.2695,212.6328L447,212.6328L447,211.25L453.8789,211.25L453.8789,207.5L448.7812,207.5L448.7812,206.1289L460.4883,206.1289L460.4883,207.5ZM477.9141,208.5078Q476.3848,208.5957,473.3203,208.7422L473.3203,211.0566Q473.3203,212.1641,472.9219,212.6211Q472.5234,213.084,471.6621,213.125Q470.8828,213.14260000000002,469.7754,213.0488L469.5234,211.7422Q469.6699,211.75979999999998,470.2031,211.83010000000002Q470.7363,211.9004,471.2051,211.9004Q471.5684,211.9004,471.7324,211.6016Q471.8965,211.2969,471.8965,210.6758L471.8965,208.8301L467.3555,209.0469L465.457,209.1523L465.2402,207.875Q466.6348,207.875,467.02729999999997,207.7461Q469.0488,207.0898,471.6387,205.6602Q470.1914,205.7656,467.584,205.9473L466.3535,206.0469L466.16020000000003,205.0508Q467.1738,204.9629,467.5312,204.8164Q468.6738,204.3535,471.22270000000003,202.38477L466.5,202.38477L466.5,204.3652L465.0234,204.3652L465.0234,201.125L471.75,201.125L471.75,199.625L465.457,199.625L465.457,198.36523L471.75,198.36523L471.75,196.87109L473.1738,196.87109L473.1738,198.36523L479.5605,198.36523L479.5605,199.625L473.1738,199.625L473.1738,201.125L479.9766,201.125L479.9766,204.4004L478.5,204.4004L478.5,202.38477L473.1211,202.38477Q472.4355,202.95898,471.4629,203.67383Q470.4961,204.3828,469.793,204.8516L473.6191,204.541Q475.1895,203.5918,476.1094,202.94141L476.8945,204.0078Q474.8262,205.3789,473.332,206.2578Q471.8379,207.1309,470.373,207.6992L476.6777,207.3184Q475.8516,206.5508,475.4883,206.252L476.4199,205.373Q478.72270000000003,207.4473,479.8652,208.7188L479.0039,209.6504Q478.7871,209.3984,478.207,208.7949Q478.207,208.7949,477.9141,208.5078ZM469.7578,210.33010000000002Q468.71479999999997,211.04489999999998,467.3672,211.7656Q466.0195,212.4863,464.7363,213.0371L464.1797,211.7246Q465.41020000000003,211.2441,466.7871,210.5293Q468.1699,209.8086,469.0723,209.1523L469.7578,210.33010000000002ZM475.3594,209.1348Q476.6484,209.75,479.8066,211.332L480.6387,211.7422L480.0117,212.9961Q479.1211,212.498,477.4512,211.6719Q475.7812,210.8398,474.709,210.3418L475.3594,209.1348ZM495.34569999999997,196.97656L496.875,196.97656L496.875,213.125L495.34569999999997,213.125L495.34569999999997,196.97656ZM491.625,197.75L491.625,203.24609L485.3789,203.24609L485.168,205.625L491.7188,205.625Q491.7012,207.8574,491.373,210.4062Q491.2324,211.502,490.916,212.0703Q490.5996,212.6445,489.9492,212.88479999999998Q489.3047,213.125,488.1562,213.125Q486.8555,213.125,485.3262,212.9434L485.0391,211.5078Q486.7676,211.7715,488.0801,211.7715Q488.9473,211.7715,489.33979999999997,211.3789Q489.7383,210.9863,489.8789,209.9961Q490.1133,208.4023,490.1895,207.0254L483.5449,207.0254L483.9785,201.875L490.0957,201.875L490.0957,199.13867L483.5625,199.13867L483.5625,197.75L491.625,197.75Z" fill="#DDDDDD" fill-opacity="1"/></g><g style="mix-blend-mode:passthrough"><path d="M637.4004,197.06445L638.6777,197.06445L638.6777,210.834Q638.6777,213.125,636.832,213.125Q635.8828,213.125,634.7871,212.9961L634.5586,211.877Q635.8125,211.918,636.4336,211.918Q636.9492,211.918,637.1719,211.5781Q637.4004,211.23239999999998,637.4004,210.5117L637.4004,197.06445ZM633.2754,197.74414L633.2754,203.9375L634.2129,203.9375L634.2129,205.2324L633.2754,205.2324L633.2754,211.4258Q633.2754,212.3398,632.9531,212.73239999999998Q632.6309,213.125,631.89258,213.125Q631.22461,213.125,630.7207,213.0254L630.48633,211.60739999999998Q631.13672,211.8477,631.48828,211.8477Q631.81641,211.8477,631.93945,211.6133Q632.06836,211.3789,632.06836,210.8691L632.06836,205.2324L630.5918,205.2324Q630.57422,207.2891,630.43945,208.6426Q630.30469,209.9961,630.05273,211.00979999999998Q629.80664,212.01760000000002,629.33789,213.2305L628.18359,212.8262Q628.65234,211.6602,628.89258,210.7461Q629.13867,209.8262,629.24414,208.5723Q629.35547,207.3184,629.39062,205.2324L628.21875,205.2324L628.21875,211.0566Q628.21875,211.9883,627.91992,212.3691Q627.62695,212.75,626.81836,212.75Q626.20312,212.75,625.75195,212.6621L625.5,211.3789Q626.15039,211.49020000000002,626.4668,211.49020000000002Q626.75391,211.49020000000002,626.90039,211.2441Q627.04688,210.998,627.04688,210.5762L627.04688,205.2324L625.68164,205.2324Q625.66406,207.4355,625.5293,208.748Q625.39453,210.0547,625.08984,211.0215Q624.78516,211.98239999999998,624.16992,213.17770000000002L623.015625,212.6504Q623.61328,211.5195,623.90039,210.6582Q624.1875,209.791,624.30469,208.5957Q624.42188,207.4004,624.45703,205.2324L623.25,205.2324L623.25,203.9375L624.45703,203.9375L624.45703,203.73828L624.45703,197.74414L628.21875,197.74414L628.21875,203.9375L629.39062,203.9375L629.39062,203.73828L629.39062,197.74414L633.2754,197.74414ZM634.793,198.5L636,198.5L636,209.4277L634.793,209.4277L634.793,198.5ZM625.68164,199.03906L625.68164,203.9375L627.04688,203.9375L627.04688,199.03906L625.68164,199.03906ZM630.5918,199.03906L630.5918,203.9375L632.06836,203.9375L632.06836,199.03906L630.5918,199.03906ZM657.252,207.0078L653.0566,207.0078L653.0566,211.2148Q653.0566,212.2285,652.6582,212.6738Q652.2656,213.125,651.3809,213.125Q650.5781,213.125,649.6582,212.9785L649.3887,211.6367Q650.4316,211.8066,650.918,211.8066Q651.3867,211.8066,651.5566,211.60739999999998Q651.7266,211.4023,651.7266,210.8691L651.7266,207.0078L647.625,207.0078L647.625,205.625L651.7266,205.625L651.7266,203.58008L649.0312,203.58008L649.0312,202.43164Q648.1523,203.16406,647.4727,203.65039L646.5586,202.48438Q649.9922,200.2168,651.6562,197.12305L653.0566,197.12305Q653.8652,198.57031,655.1895,199.97656Q656.5195,201.37695,658.1543,202.55469L657.2754,203.68555Q655.7578,202.61328,654.4746,201.25977Q653.1973,199.90039,652.3535,198.49414Q651.1348,200.52148,649.2305,202.25L655.4883,202.25L655.4883,203.58008L653.0566,203.58008L653.0566,205.625L657.252,205.625L657.252,207.0078ZM647.0449,207.7695Q647.0449,209.3047,646.5762,209.9023Q646.1074,210.5,645.0293,210.5Q644.5254,210.5,644.0039,210.3887L643.7344,209.0938Q644.1855,209.2402,644.7422,209.2402Q645.2988,209.2402,645.5215,208.8242Q645.75,208.4082,645.75,207.5234Q645.75,205.6953,644.4375,203.86719L645.7324,199.25L643.5,199.25L643.5,213.125L642.1641,213.125L642.1641,197.87891L647.0801,197.87891L647.0801,199.26758L645.7148,203.65039Q646.4121,204.8398,646.7285,205.8066Q647.0449,206.7734,647.0449,207.7695ZM655.0723,207.5645Q655.5938,208.3379,656.3848,209.5977Q657.1816,210.85739999999998,657.7383,211.8066L656.5664,212.4746Q656.1855,211.7656,655.377,210.4297Q654.5684,209.0938,654.0117,208.2676L655.0723,207.5645ZM650.291,208.2207Q649.7461,209.2988,648.9316,210.5234Q648.1172,211.748,647.3203,212.6738L646.2188,211.8242Q646.998,211.00979999999998,647.7715,209.8613Q648.5449,208.7129,649.1016,207.6113L650.291,208.2207ZM667.8867,202.25L673.8164,202.25L673.8164,207.875L661.5,207.875L661.5,202.25L666.375,202.25L666.375,196.77734L667.8867,196.77734L667.8867,198.55859L675.1289,198.55859L675.1289,200L667.8867,200L667.8867,202.25ZM662.9414,206.4863L672.375,206.4863L672.375,203.68555L662.9414,203.68555L662.9414,206.4863ZM673.5059,208.5078Q674.4609,210.0547,675.6504,212.39260000000002L674.3906,213.1133Q673.6699,211.5488,672.2284999999999,209.0996L673.5059,208.5078ZM659.5254,212.5742Q660.1523,211.6543,660.7148,210.5469Q661.2832,209.4395,661.6055,208.5254L662.9238,209.0645Q662.5664,210.0371,661.9863,211.19729999999998Q661.4121,212.35739999999998,660.8379,213.3125L659.5254,212.5742ZM669.6504,208.7773Q669.9727,209.5332,670.3652,210.5938Q670.7578,211.6543,670.9922,212.4453L669.6328,212.8262Q669.2284999999999,211.3496,668.3438,209.1875L669.6504,208.7773ZM665.7656,208.9531Q665.9766,209.6914,666.2109,210.7988Q666.4453,211.9062,666.5742,212.69729999999998L665.1328,212.9844Q664.9688,211.38479999999998,664.418,209.2051L665.7656,208.9531Z" fill="#DDDDDD" fill-opacity="1"/></g><g style="mix-blend-mode:passthrough"><path d="M495.9707,35.3379Q495.9707,32.79492,496.8145,30.64453Q497.6641,28.49414,499.1406,27L500.5938,27Q499.1406,28.76367,498.3555,30.80859Q497.5703,32.85352,497.5703,35.3379Q497.5703,37.8398,498.3555,39.8906Q499.1406,41.9414,500.5938,43.6699L499.1406,43.6699Q497.6641,42.175799999999995,496.8145,40.037099999999995Q495.9707,37.8926,495.9707,35.3379ZM516.4141,38.5078Q514.8848,38.5957,511.8203,38.7422L511.8203,41.0566Q511.8203,42.164100000000005,511.4219,42.6211Q511.0234,43.084,510.1621,43.125Q509.3828,43.1426,508.2754,43.0488L508.0234,41.7422Q508.1699,41.7598,508.7031,41.8301Q509.2363,41.900400000000005,509.7051,41.900400000000005Q510.0684,41.900400000000005,510.2324,41.601600000000005Q510.3965,41.2969,510.3965,40.675799999999995L510.3965,38.8301L505.8555,39.0469L503.957,39.1523L503.7402,37.875Q505.1348,37.875,505.5273,37.7461Q507.5488,37.0898,510.1387,35.6602Q508.6914,35.7656,506.084,35.9473L504.8535,36.0469L504.6602,35.0508Q505.6738,34.9629,506.0312,34.8164Q507.1738,34.3535,509.7227,32.38477L505,32.38477L505,34.3652L503.5234,34.3652L503.5234,31.125L510.25,31.125L510.25,29.625L503.957,29.625L503.957,28.36523L510.25,28.36523L510.25,26.87109L511.6738,26.87109L511.6738,28.36523L518.0605,28.36523L518.0605,29.625L511.6738,29.625L511.6738,31.125L518.4766,31.125L518.4766,34.4004L517,34.4004L517,32.38477L511.6211,32.38477Q510.9355,32.95898,509.9629,33.67383Q508.9961,34.3828,508.293,34.8516L512.1191,34.541Q513.6895,33.5918,514.6094,32.94141L515.3945,34.0078Q513.3262,35.3789,511.832,36.2578Q510.3379,37.1309,508.873,37.6992L515.1777,37.3184Q514.3516,36.5508,513.9883,36.252L514.9199,35.373Q517.2227,37.4473,518.3652,38.7188L517.5039,39.6504Q517.2871,39.3984,516.707,38.7949Q516.707,38.7949,516.4141,38.5078ZM508.2578,40.3301Q507.2148,41.0449,505.8672,41.7656Q504.5195,42.4863,503.2363,43.037099999999995L502.6797,41.724599999999995Q503.9102,41.2441,505.2871,40.5293Q506.6699,39.8086,507.5723,39.1523L508.2578,40.3301ZM513.8594,39.1348Q515.1484,39.75,518.3066,41.332L519.1387,41.7422L518.5117,42.9961Q517.6211,42.498000000000005,515.9512,41.6719Q514.2812,40.8398,513.209,40.3418L513.8594,39.1348ZM533.8457,26.97656L535.375,26.97656L535.375,43.125L533.8457,43.125L533.8457,26.97656ZM530.125,27.75L530.125,33.24609L523.8789,33.24609L523.668,35.625L530.2188,35.625Q530.2012,37.8574,529.873,40.4062Q529.7324,41.501999999999995,529.4159999999999,42.0703Q529.0996,42.6445,528.4492,42.8848Q527.8047,43.125,526.6562,43.125Q525.3555,43.125,523.8262,42.9434L523.5391,41.5078Q525.2676,41.7715,526.5801,41.7715Q527.4473,41.7715,527.8398,41.3789Q528.2383,40.9863,528.3789,39.9961Q528.6133,38.4023,528.6895,37.0254L522.0449,37.0254L522.4784999999999,31.875L528.5957,31.875L528.5957,29.13867L522.0625,29.13867L522.0625,27.75L530.125,27.75ZM543.3496,27.1582Q542.7578,29.39062,542.125,31.07227L542.125,43.125L540.7246,43.125L540.7246,33.94336Q540.0039,35.332,539.3008,36.375L538.5273,34.8281Q539.5703,33.33984,540.4258,31.25977Q541.2812,29.17969,541.873,26.85938L543.3496,27.1582ZM553.668,31.40039L553.668,41.4902L555.25,41.4902L555.25,42.75L542.957,42.75L542.957,41.4902L544.5742,41.4902L544.5742,31.40039L548.4121,31.40039L548.4121,29.67188L543.8418,29.67188L543.8418,28.42969L548.4121,28.42969L548.4121,26.90039L549.8477,26.90039L549.8477,28.42969L554.7461,28.42969L554.7461,29.67188L549.8477,29.67188L549.8477,31.40039L553.668,31.40039ZM552.2266,33.76172L552.2266,32.625L546.0156,32.625L546.0156,33.76172L552.2266,33.76172ZM546.0156,36.375L552.2266,36.375L552.2266,34.875L546.0156,34.875L546.0156,36.375ZM552.2266,39L552.2266,37.5059L546.0156,37.5059L546.0156,39L552.2266,39ZM552.2266,40.0957L546.0156,40.0957L546.0156,41.4902L552.2266,41.4902L552.2266,40.0957ZM572.9629,43.4062Q569.7051,43.1719,567.5078,42.7207Q565.3164,42.275400000000005,563.6055,41.4785Q562.668,42.1465,561.2207,42.685500000000005Q559.7734,43.224599999999995,557.6113,43.6934L557.0547,42.363299999999995Q558.9238,41.9473,560.1484,41.5547Q561.373,41.1562,562.1816,40.7051Q560.8867,39.8965,559.5566,38.707L560.5409999999999,37.8398Q562.0703,39.1758,563.2949,39.8789Q564.127,38.9941,564.3262,37.5L558.8359,37.5L558.8359,30.65039L564.4141,30.65039L564.4141,29.08008L557.4648,29.08008L557.4648,27.75L572.875,27.75L572.875,29.08008L565.8555,29.08008L565.8555,30.65039L571.4863,30.65039L571.4863,37.5L565.7852,37.5Q565.6738,38.4375,565.3926,39.1816Q565.1172,39.9258,564.6309,40.523399999999995Q566.1074,41.1328,568.1582,41.4902Q570.2090000000001,41.8418,573.2734,41.9824L572.9629,43.4062ZM564.4141,33.33984L564.4141,31.875L560.2539,31.875L560.2539,33.33984L564.4141,33.33984ZM570.1034999999999,33.33984L570.1034999999999,31.875L565.8555,31.875L565.8555,33.33984L570.1034999999999,33.33984ZM560.2539,34.5469L560.2539,36.2812L564.4141,36.2812L564.4141,35.9062L564.4141,34.5469L560.2539,34.5469ZM565.8555,36.2812L570.1034999999999,36.2812L570.1034999999999,34.5469L565.8555,34.5469L565.8555,35.9648L565.8555,36.2812ZM580.7383,41.613299999999995Q581.3828,41.613299999999995,581.6875,41.5078Q581.998,41.3965,582.1211,41.0566Q582.25,40.710899999999995,582.25,39.9902L582.25,27.01172L583.7969,27.01172L583.7969,40.476600000000005Q583.7969,41.4844,583.5684,42.041Q583.3457,42.6035,582.8242,42.8438Q582.3027,43.084,581.3477,43.1074Q580.0527,43.1426,579.0273,43.0137L578.6992,41.449200000000005Q579.9238,41.613299999999995,580.7383,41.613299999999995ZM587.412,30.01758Q588.385,32.19727,591.174,39.6328L589.645,40.2422Q588.801,37.8281,587.746,35.0156Q586.691,32.19727,585.994,30.55664L587.412,30.01758ZM574.5977,39.5566Q575.5879,37.6348,576.4609,35.0977Q577.3340000000001,32.55469,577.7676,30.50391L579.332,30.82617Q578.8281,33.07617,577.9434,35.6543Q577.0645,38.2266,576.0566,40.224599999999995L574.5977,39.5566ZM598.029,35.3379Q598.029,37.875,597.1800000000001,40.025400000000005Q596.336,42.175799999999995,594.859,43.6699L593.406,43.6699Q594.859,41.9062,595.645,39.8672Q596.4300000000001,37.8223,596.4300000000001,35.3379Q596.4300000000001,32.83594,595.645,30.78516Q594.859,28.72852,593.406,27L594.859,27Q596.336,28.49414,597.1800000000001,30.63867Q598.029,32.77734,598.029,35.3379Z" fill="#DDDDDD" fill-opacity="1"/></g><g style="mix-blend-mode:passthrough"><path d="M217,11.75L213.4444,11.75L213.4444,10.25L217,10.25M209.8889,11.75L202.7778,11.75L202.7778,10.25L209.8889,10.25M199.2222,11.75L192.11111,11.75L192.11111,10.25L199.2222,10.25M188.55556,11.75L185,11.75L185,10.25L188.55556,10.25M184.46967,10.46967L189.24264,5.6967Q189.29487,5.64447,189.35629,5.60343Q189.41771,5.56239,189.48596,5.53412Q189.5542,5.50585,189.62665,5.49144Q189.6991,5.47703,189.77297,5.47703Q189.84684,5.47703,189.91929,5.49144Q189.99174,5.50585,190.05998,5.53412Q190.12823,5.56239,190.18965,5.60343Q190.25107,5.64447,190.3033,5.6967Q190.35553,5.74893,190.39657,5.81035Q190.43761,5.87177,190.46588,5.94002Q190.49415,6.00826,190.50856,6.08071Q190.52297,6.15316,190.52297,6.22703Q190.52297,6.3009,190.50856,6.37335Q190.49415,6.4458,190.46588,6.51404Q190.43761,6.58229,190.39657,6.64371Q190.35553,6.70513,190.3033,6.75736L185.53033,11.53033Q185.478097,11.582563,185.416678,11.623602Q185.355258,11.664641,185.287012,11.69291Q185.218767,11.721178,185.146318,11.735589000000001Q185.0738684,11.75,184.999999877795,11.75Q184.9261313,11.75,184.853682,11.735589000000001Q184.781233,11.721178,184.712987,11.692909Q184.644742,11.664641,184.583322,11.623602Q184.521903,11.582563,184.46967,11.53033Q184.417437,11.478097,184.376398,11.416678Q184.335359,11.355258,184.30709,11.287012Q184.278822,11.218767,184.264411,11.146318Q184.25,11.0738684,184.25,10.999999877795Q184.25,10.9261313,184.264411,10.853682Q184.278822,10.781233,184.307091,10.712987Q184.335359,10.644742,184.376398,10.583322Q184.417437,10.521903,184.46967,10.46967ZM185.53033,10.46967L190.3033,15.24264Q190.35553,15.29487,190.39657,15.356290000000001Q190.43761,15.41771,190.46588,15.48596Q190.49415,15.5542,190.50856,15.62665Q190.52297,15.6991,190.52297,15.77297Q190.52297,15.84684,190.50856,15.91929Q190.49415,15.99174,190.46588,16.05998Q190.43761,16.128230000000002,190.39657,16.18965Q190.35553,16.25107,190.3033,16.3033Q190.25107,16.35553,190.18965,16.39657Q190.12823,16.43761,190.05998,16.46588Q189.99174,16.49415,189.91929,16.50856Q189.84684,16.52297,189.77297,16.52297Q189.6991,16.52297,189.62665,16.50856Q189.5542,16.49415,189.48596,16.46588Q189.41771,16.43761,189.35629,16.39657Q189.29487,16.35553,189.24264,16.3033L184.46967,11.53033Q184.417437,11.478097,184.376398,11.416678Q184.335359,11.355258,184.30709,11.287013Q184.278822,11.218767,184.264411,11.146318Q184.25,11.0738687,184.25,11.000000122205Q184.25,10.9261316,184.264411,10.853682Q184.278822,10.781233,184.30709,10.712988Q184.335359,10.644742,184.376398,10.583322Q184.417437,10.521903,184.46967,10.46967Q184.521903,10.417437,184.583322,10.376398Q184.644742,10.335359,184.712987,10.30709Q184.781233,10.278822,184.853682,10.264410999999999Q184.9261313,10.25,184.999999877795,10.25Q185.0738684,10.25,185.146318,10.264410999999999Q185.218767,10.278822,185.287012,10.30709Q185.355258,10.335359,185.416678,10.376398Q185.478097,10.417437,185.53033,10.46967Z" fill="#DDDDDD" fill-opacity="1"/></g><g style="mix-blend-mode:passthrough" transform="matrix(0,1,-1,0,354.5,-18.5)"><path d="M210.5,168.75L206.5,168.75L206.5,167.25L210.5,167.25M202.5,168.75L194.5,168.75L194.5,167.25L202.5,167.25M190.5,168.75L186.5,168.75L186.5,167.25L190.5,167.25M185.96967,167.46967L190.74264,162.6967Q190.79487,162.64447,190.85629,162.60343Q190.91771,162.56239,190.98596,162.53412Q191.0542,162.50585,191.12665,162.49144Q191.1991,162.47703,191.27297,162.47703Q191.34684,162.47703,191.41929,162.49144Q191.49174,162.50585,191.55998,162.53412Q191.62823,162.56239,191.68965,162.60343Q191.75107,162.64447,191.8033,162.6967Q191.85553,162.74893,191.89657,162.81035Q191.93761,162.87177,191.96588,162.94002Q191.99415,163.00826,192.00856,163.08071Q192.02297,163.15316,192.02297,163.22703Q192.02297,163.3009,192.00856,163.37335Q191.99415,163.4458,191.96588,163.51404Q191.93761,163.58229,191.89657,163.64371Q191.85553,163.70513,191.8033,163.75736L187.03033,168.53033Q186.978097,168.582563,186.916678,168.623602Q186.855258,168.664641,186.787012,168.69291Q186.718767,168.721178,186.646318,168.735589Q186.5738684,168.75,186.499999877795,168.75Q186.4261313,168.75,186.353682,168.735589Q186.281233,168.721178,186.212987,168.692909Q186.144742,168.664641,186.083322,168.623602Q186.021903,168.582563,185.96967,168.53033Q185.917437,168.478097,185.876398,168.416678Q185.835359,168.355258,185.80709,168.287012Q185.778822,168.218767,185.764411,168.146318Q185.75,168.0738684,185.75,167.999999877795Q185.75,167.9261313,185.764411,167.853682Q185.778822,167.781233,185.807091,167.712987Q185.835359,167.644742,185.876398,167.583322Q185.917437,167.521903,185.96967,167.46967ZM187.03033,167.46967L191.8033,172.24264Q191.85553,172.29487,191.89657,172.35629Q191.93761,172.41771,191.96588,172.48596Q191.99415,172.5542,192.00856,172.62665Q192.02297,172.6991,192.02297,172.77297Q192.02297,172.84684,192.00856,172.91929Q191.99415,172.99174,191.96588,173.05998Q191.93761,173.12823,191.89657,173.18965Q191.85553,173.25107,191.8033,173.3033Q191.75107,173.35553,191.68965,173.39657Q191.62823,173.43761,191.55998,173.46588Q191.49174,173.49415,191.41929,173.50856Q191.34684,173.52297,191.27297,173.52297Q191.1991,173.52297,191.12665,173.50856Q191.0542,173.49415,190.98596,173.46588Q190.91771,173.43761,190.85629,173.39657Q190.79487,173.35553,190.74264,173.3033L185.96967,168.53033Q185.917437,168.478097,185.876398,168.416678Q185.835359,168.355258,185.80709,168.287013Q185.778822,168.218767,185.764411,168.146318Q185.75,168.0738687,185.75,168.000000122205Q185.75,167.9261316,185.764411,167.853682Q185.778822,167.781233,185.80709,167.712988Q185.835359,167.644742,185.876398,167.583322Q185.917437,167.521903,185.96967,167.46967Q186.021903,167.417437,186.083322,167.376398Q186.144742,167.335359,186.212987,167.30709Q186.281233,167.278822,186.353682,167.264411Q186.4261313,167.25,186.499999877795,167.25Q186.5738684,167.25,186.646318,167.264411Q186.718767,167.278822,186.787012,167.30709Q186.855258,167.335359,186.916678,167.376398Q186.978097,167.417437,187.03033,167.46967Z" fill="#DDDDDD" fill-opacity="1"/></g><g style="mix-blend-mode:passthrough" transform="matrix(0,1,-1,0,631.5,-295.5)"><path d="M487.5,168.75L483.5,168.75L483.5,167.25L487.5,167.25M479.5,168.75L471.5,168.75L471.5,167.25L479.5,167.25M467.5,168.75L463.5,168.75L463.5,167.25L467.5,167.25M462.96967,167.46967L467.74264,162.6967Q467.79487,162.64447,467.85629,162.60343Q467.91771,162.56239,467.98596,162.53412Q468.0542,162.50585,468.12665,162.49144Q468.1991,162.47703,468.27297,162.47703Q468.34684,162.47703,468.41929,162.49144Q468.49174,162.50585,468.55998,162.53412Q468.62823,162.56239,468.68965000000003,162.60343Q468.75107,162.64447,468.8033,162.6967Q468.85553,162.74893,468.89657,162.81035Q468.93761,162.87177,468.96588,162.94002Q468.99415,163.00826,469.00856,163.08071Q469.02297,163.15316,469.02297,163.22703Q469.02297,163.3009,469.00856,163.37335Q468.99415,163.4458,468.96588,163.51404Q468.93761,163.58229,468.89657,163.64371Q468.85553,163.70513,468.8033,163.75736L464.03033,168.53033Q463.978097,168.582563,463.916678,168.623602Q463.855258,168.664641,463.787012,168.69291Q463.718767,168.721178,463.646318,168.735589Q463.5738684,168.75,463.499999877795,168.75Q463.4261313,168.75,463.353682,168.735589Q463.281233,168.721178,463.212987,168.692909Q463.144742,168.664641,463.083322,168.623602Q463.021903,168.582563,462.96967,168.53033Q462.917437,168.478097,462.876398,168.416678Q462.835359,168.355258,462.80709,168.287012Q462.778822,168.218767,462.764411,168.146318Q462.75,168.0738684,462.75,167.999999877795Q462.75,167.9261313,462.764411,167.853682Q462.778822,167.781233,462.807091,167.712987Q462.835359,167.644742,462.876398,167.583322Q462.917437,167.521903,462.96967,167.46967ZM464.03033,167.46967L468.8033,172.24264Q468.85553,172.29487,468.89657,172.35629Q468.93761,172.41771,468.96588,172.48596Q468.99415,172.5542,469.00856,172.62665Q469.02297,172.6991,469.02297,172.77297Q469.02297,172.84684,469.00856,172.91929Q468.99415,172.99174,468.96588,173.05998Q468.93761,173.12823,468.89657,173.18965Q468.85553,173.25107,468.8033,173.3033Q468.75107,173.35553,468.68965000000003,173.39657Q468.62823,173.43761,468.55998,173.46588Q468.49174,173.49415,468.41929,173.50856Q468.34684,173.52297,468.27297,173.52297Q468.1991,173.52297,468.12665,173.50856Q468.0542,173.49415,467.98596,173.46588Q467.91771,173.43761,467.85629,173.39657Q467.79487,173.35553,467.74264,173.3033L462.96967,168.53033Q462.917437,168.478097,462.876398,168.416678Q462.835359,168.355258,462.80709,168.287013Q462.778822,168.218767,462.764411,168.146318Q462.75,168.0738687,462.75,168.000000122205Q462.75,167.9261316,462.764411,167.853682Q462.778822,167.781233,462.80709,167.712988Q462.835359,167.644742,462.876398,167.583322Q462.917437,167.521903,462.96967,167.46967Q463.021903,167.417437,463.083322,167.376398Q463.144742,167.335359,463.212987,167.30709Q463.281233,167.278822,463.353682,167.264411Q463.4261313,167.25,463.499999877795,167.25Q463.5738684,167.25,463.646318,167.264411Q463.718767,167.278822,463.787012,167.30709Q463.855258,167.335359,463.916678,167.376398Q463.978097,167.417437,464.03033,167.46967Z" fill="#DDDDDD" fill-opacity="1"/></g><g style="mix-blend-mode:passthrough" transform="matrix(0,1,-1,0,817.5,-481.5)"><path d="M673.5,168.75L669.5,168.75L669.5,167.25L673.5,167.25M665.5,168.75L657.5,168.75L657.5,167.25L665.5,167.25M653.5,168.75L649.5,168.75L649.5,167.25L653.5,167.25M648.96967,167.46967L653.74264,162.6967Q653.79487,162.64447,653.85629,162.60343Q653.9177099999999,162.56239,653.98596,162.53412Q654.0542,162.50585,654.12665,162.49144Q654.1991,162.47703,654.27297,162.47703Q654.34684,162.47703,654.41929,162.49144Q654.49174,162.50585,654.55998,162.53412Q654.62823,162.56239,654.68965,162.60343Q654.75107,162.64447,654.8033,162.6967Q654.85553,162.74893,654.89657,162.81035Q654.93761,162.87177,654.96588,162.94002Q654.99415,163.00826,655.00856,163.08071Q655.02297,163.15316,655.02297,163.22703Q655.02297,163.3009,655.00856,163.37335Q654.99415,163.4458,654.96588,163.51404Q654.93761,163.58229,654.89657,163.64371Q654.85553,163.70513,654.8033,163.75736L650.03033,168.53033Q649.978097,168.582563,649.916678,168.623602Q649.855258,168.664641,649.787012,168.69291Q649.718767,168.721178,649.646318,168.735589Q649.5738684,168.75,649.499999877795,168.75Q649.4261313,168.75,649.353682,168.735589Q649.281233,168.721178,649.212987,168.692909Q649.144742,168.664641,649.083322,168.623602Q649.021903,168.582563,648.96967,168.53033Q648.917437,168.478097,648.876398,168.416678Q648.835359,168.355258,648.80709,168.287012Q648.778822,168.218767,648.764411,168.146318Q648.75,168.0738684,648.75,167.999999877795Q648.75,167.9261313,648.764411,167.853682Q648.778822,167.781233,648.807091,167.712987Q648.835359,167.644742,648.876398,167.583322Q648.917437,167.521903,648.96967,167.46967ZM650.03033,167.46967L654.8033,172.24264Q654.85553,172.29487,654.89657,172.35629Q654.93761,172.41771,654.96588,172.48596Q654.99415,172.5542,655.00856,172.62665Q655.02297,172.6991,655.02297,172.77297Q655.02297,172.84684,655.00856,172.91929Q654.99415,172.99174,654.96588,173.05998Q654.93761,173.12823,654.89657,173.18965Q654.85553,173.25107,654.8033,173.3033Q654.75107,173.35553,654.68965,173.39657Q654.62823,173.43761,654.55998,173.46588Q654.49174,173.49415,654.41929,173.50856Q654.34684,173.52297,654.27297,173.52297Q654.1991,173.52297,654.12665,173.50856Q654.0542,173.49415,653.98596,173.46588Q653.9177099999999,173.43761,653.85629,173.39657Q653.79487,173.35553,653.74264,173.3033L648.96967,168.53033Q648.917437,168.478097,648.876398,168.416678Q648.835359,168.355258,648.80709,168.287013Q648.778822,168.218767,648.764411,168.146318Q648.75,168.0738687,648.75,168.000000122205Q648.75,167.9261316,648.764411,167.853682Q648.778822,167.781233,648.80709,167.712988Q648.835359,167.644742,648.876398,167.583322Q648.917437,167.521903,648.96967,167.46967Q649.021903,167.417437,649.083322,167.376398Q649.144742,167.335359,649.212987,167.30709Q649.281233,167.278822,649.353682,167.264411Q649.4261313,167.25,649.499999877795,167.25Q649.5738684,167.25,649.646318,167.264411Q649.718767,167.278822,649.787012,167.30709Q649.855258,167.335359,649.916678,167.376398Q649.978097,167.417437,650.03033,167.46967Z" fill="#DDDDDD" fill-opacity="1"/></g><g style="mix-blend-mode:passthrough"><path d="M650,11.75L646.4444,11.75L646.4444,10.25L650,10.25M642.8889,11.75L635.7778,11.75L635.7778,10.25L642.8889,10.25M632.2222,11.75L625.11111,11.75L625.11111,10.25L632.2222,10.25M621.55556,11.75L618,11.75L618,10.25L621.55556,10.25M650.5303,11.53033L645.7574,16.3033Q645.7051,16.35553,645.6437,16.39657Q645.5823,16.43761,645.514,16.46588Q645.4458,16.49415,645.3733,16.50856Q645.3009,16.52297,645.227,16.52297Q645.1532,16.52297,645.0807,16.50856Q645.0083,16.49415,644.94,16.46588Q644.8718,16.43761,644.8103,16.39657Q644.7489,16.35553,644.6967,16.3033Q644.6445,16.25107,644.6034,16.18965Q644.5624,16.128230000000002,644.5341,16.05998Q644.5058,15.99174,644.4914,15.91929Q644.477,15.84684,644.477,15.77297Q644.477,15.6991,644.4914,15.62665Q644.5058,15.5542,644.5341,15.48596Q644.5624,15.41771,644.6034,15.356290000000001Q644.6445,15.29487,644.6967,15.24264L649.4697,10.46967Q649.5219,10.417437,649.5833,10.376398Q649.6447000000001,10.335359,649.713,10.30709Q649.7812,10.278822,649.8537,10.264410999999999Q649.9261,10.25,650,10.25Q650.0739,10.25,650.1463,10.264410999999999Q650.2188,10.278822,650.287,10.307091Q650.3552999999999,10.335359,650.4167,10.376398Q650.4781,10.417437,650.5303,10.46967Q650.5826,10.521903,650.6236,10.583323Q650.6646,10.644742,650.6929,10.712988Q650.7212,10.781233,650.7356,10.853682Q650.75,10.9261316,650.75,11.000000174578Q650.75,11.0738687,650.7356,11.146318Q650.7212,11.218767,650.6929,11.287013Q650.6646,11.355258,650.6236,11.416678Q650.5826,11.478097,650.5303,11.53033ZM649.4697,11.53033L644.6967,6.75736Q644.6445,6.70513,644.6034,6.64371Q644.5624,6.58229,644.5341,6.51404Q644.5058,6.4458,644.4914,6.37335Q644.477,6.3009,644.477,6.22703Q644.477,6.15316,644.4914,6.08071Q644.5058,6.00826,644.5341,5.94002Q644.5624,5.87177,644.6034,5.81035Q644.6445,5.74893,644.6967,5.6967Q644.7489,5.64447,644.8103,5.60343Q644.8718,5.56239,644.94,5.53412Q645.0083,5.50585,645.0807,5.49144Q645.1532,5.47703,645.227,5.47703Q645.3009,5.47703,645.3733,5.49144Q645.4458,5.50585,645.514,5.53412Q645.5823,5.56239,645.6437,5.60343Q645.7051,5.64447,645.7574,5.6967L650.5303,10.46967Q650.5826,10.521903,650.6236,10.583322Q650.6646,10.644742,650.6929,10.712987Q650.7212,10.781233,650.7356,10.853682Q650.75,10.9261313,650.75,10.999999825422Q650.75,11.0738684,650.7356,11.146318Q650.7212,11.218767,650.6929,11.287012Q650.6646,11.355258,650.6236,11.416677Q650.5826,11.478097,650.5303,11.53033Q650.4781,11.582563,650.4167,11.623602Q650.3552999999999,11.664641,650.287,11.692909Q650.2188,11.721178,650.1463,11.735589000000001Q650.0739,11.75,650,11.75Q649.9261,11.75,649.8537,11.735589000000001Q649.7812,11.721178,649.713,11.69291Q649.6447000000001,11.664641,649.5833,11.623602Q649.5219,11.582563,649.4697,11.53033Z" fill="#DDDDDD" fill-opacity="1"/></g></g></svg>