<svg xmlns="http://www.w3.org/2000/svg" xmlns:xlink="http://www.w3.org/1999/xlink" fill="none" version="1.1" width="842" height="258" viewBox="0 0 842 258"><g style="mix-blend-mode:passthrough"><g style="mix-blend-mode:passthrough"><path d="M107,32L107,37.333330000000004L105.5,37.333330000000004L105.5,32M107,42.6667L107,48L105.5,48L105.5,42.6667M0,48L0,42.6667L1.5,42.6667L1.5,48M0,37.333330000000004L0,32L1.5,32L1.5,37.333330000000004" fill="#DDDDDD" fill-opacity="1"/></g><g style="mix-blend-mode:passthrough"><path d="M527,32L527,37.333330000000004L525.5,37.333330000000004L525.5,32M527,42.6667L527,48L525.5,48L525.5,42.6667M420,48L420,42.6667L421.5,42.6667L421.5,48M420,37.333330000000004L420,32L421.5,32L421.5,37.333330000000004" fill="#DDDDDD" fill-opacity="1"/></g><g style="mix-blend-mode:passthrough"><path d="M211.99993896484375,32L211.99993896484375,37.333330000000004L210.49993896484375,37.333330000000004L210.49993896484375,32M211.99993896484375,42.6667L211.99993896484375,48L210.49993896484375,48L210.49993896484375,42.6667M104.99993896484375,48L104.99993896484375,42.6667L106.49993896484375,42.6667L106.49993896484375,48M104.99993896484375,37.333330000000004L104.99993896484375,32L106.49993896484375,32L106.49993896484375,37.333330000000004" fill="#DDDDDD" fill-opacity="1"/></g><g style="mix-blend-mode:passthrough"><path d="M632,32L632,37.333330000000004L630.5,37.333330000000004L630.5,32M632,42.6667L632,48L630.5,48L630.5,42.6667M525,48L525,42.6667L526.5,42.6667L526.5,48M525,37.333330000000004L525,32L526.5,32L526.5,37.333330000000004" fill="#DDDDDD" fill-opacity="1"/></g><g style="mix-blend-mode:passthrough"><path d="M317,32L317,37.333330000000004L315.5,37.333330000000004L315.5,32M317,42.6667L317,48L315.5,48L315.5,42.6667M210,48L210,42.6667L211.5,42.6667L211.5,48M210,37.333330000000004L210,32L211.5,32L211.5,37.333330000000004" fill="#DDDDDD" fill-opacity="1"/></g><g style="mix-blend-mode:passthrough"><path d="M737,32L737,37.333330000000004L735.5,37.333330000000004L735.5,32M737,42.6667L737,48L735.5,48L735.5,42.6667M630,48L630,42.6667L631.5,42.6667L631.5,48M630,37.333330000000004L630,32L631.5,32L631.5,37.333330000000004" fill="#DDDDDD" fill-opacity="1"/></g><g style="mix-blend-mode:passthrough"><path d="M422,32L422,37.333330000000004L420.5,37.333330000000004L420.5,32M422,42.6667L422,48L420.5,48L420.5,42.6667M315,48L315,42.6667L316.5,42.6667L316.5,48M315,37.333330000000004L315,32L316.5,32L316.5,37.333330000000004" fill="#DDDDDD" fill-opacity="1"/></g><g style="mix-blend-mode:passthrough"><path d="M57.8125,11.2734Q57.8125,14.6836,56.69336,16.4355Q55.58008,18.1875,53.49414,18.1875Q51.41992,18.1875,50.30078,16.4297Q49.1875,14.666,49.1875,11.2734Q49.1875,7.85742,50.30078,6.08789Q51.41992,4.3125,53.49414,4.3125Q55.58008,4.3125,56.69336,6.07617Q57.8125,7.83984,57.8125,11.2734ZM50.80469,11.2793Q50.80469,14.0273,51.45508,15.375Q52.11133,16.7168,53.49414,16.7168Q54.87109,16.7168,55.5332,15.3809Q56.19531,14.0449,56.19531,11.2793Q56.19531,8.49609,55.5332,7.14258Q54.87109,5.7832,53.49414,5.7832Q52.11133,5.7832,51.45508,7.14258Q50.80469,8.49609,50.80469,11.2793Z" fill="#DDDDDD" fill-opacity="1"/></g><g style="mix-blend-mode:passthrough"><path d="M476.6875,9.75L476.6875,13.5293L478.5625,13.5293L478.5625,15L476.6875,15L476.6875,18L475.07031,18L475.07031,15L469.1875,15L469.1875,13.8164L474.17969,4.5L475.94336,4.5L471.07422,13.5293L475.07031,13.5293L475.07031,9.75L476.6875,9.75Z" fill="#DDDDDD" fill-opacity="1"/></g><g style="mix-blend-mode:passthrough"><path d="M155.3125,8.47852L155.3125,6.78516L159.08008,4.5L160.30469,4.5L160.30469,18L158.6875,18L158.6875,6.46875L155.3125,8.47852Z" fill="#DDDDDD" fill-opacity="1"/></g><g style="mix-blend-mode:passthrough"><path d="M578.59375,9.4043Q579.74805,9.4043,580.65039,9.9668Q581.55859,10.5293,582.05664,11.5137Q582.55469,12.4922,582.55469,13.7402Q582.55469,15.0527,581.99805,16.0605Q581.44727,17.0684,580.48633,17.6309Q579.52539,18.1875,578.34766,18.1875Q577.04688,18.1875,576.03906,17.5254Q575.03125,16.8574,574.63867,15.5684L575.93359,14.8125Q576.25586,15.7559,576.87695,16.2363Q577.49805,16.7168,578.38281,16.7168Q579.57227,16.7168,580.25195,15.9023Q580.9375,15.0879,580.9375,13.8164Q580.9375,12.5801,580.28125,11.7305Q579.625,10.875,578.38281,10.875Q576.81836,10.875,575.93359,12.334L574.9082,11.8008L575.81055,4.5L581.99219,4.5L581.99219,5.9707L577.21094,5.9707L576.68945,9.91406Q577.46875,9.4043,578.59375,9.4043Z" fill="#DDDDDD" fill-opacity="1"/></g><g style="mix-blend-mode:passthrough"><path d="M261.63672,16.5293L267.4375,16.5293L267.4375,18L259.1875,18L259.1875,16.9395L263.45898,12.0879Q264.66016,10.7285,265.11133,9.94922Q265.5625,9.16992,265.5625,8.24414Q265.5625,7.06641,264.92969,6.42773Q264.30273,5.7832,263.34766,5.7832Q262.375,5.7832,261.63672,6.45703Q260.89844,7.125,260.57617,8.22656L259.27539,7.4707Q259.66797,5.9707,260.82812,5.14453Q261.98828,4.3125,263.41797,4.3125Q264.44922,4.3125,265.30469,4.76367Q266.16602,5.21484,266.66992,6.08789Q267.17969,6.95508,267.17969,8.17969Q267.17969,9.375,266.61133,10.4414Q266.04297,11.5078,264.61914,13.1191L261.63672,16.5293Z" fill="#DDDDDD" fill-opacity="1"/></g><g style="mix-blend-mode:passthrough"><path d="M683.96289,9.75Q685.11719,9.75,686.01953,10.3125Q686.92188,10.8691,687.42578,11.8301Q687.92969,12.7852,687.92969,13.9453Q687.92969,15.1348,687.39062,16.1133Q686.85742,17.0859,685.89062,17.6367Q684.92969,18.1875,683.74609,18.1875Q682.52734,18.1875,681.57227,17.6367Q680.61719,17.0859,680.08984,16.0957Q679.5625,15.0996,679.5625,13.8281Q679.5625,12.832,679.9082,11.9941Q680.25391,11.1562,681.05078,9.79688L684.15625,4.5L685.98438,4.5L683.24805,9.1582Q682.99023,9.57422,682.73828,9.93164Q683.28906,9.75,683.96289,9.75ZM683.75781,16.7168Q684.91797,16.7168,685.61523,15.9551Q686.3125,15.1934,686.3125,13.9805Q686.3125,12.7559,685.62109,11.9883Q684.93555,11.2207,683.75781,11.2207Q682.57422,11.2207,681.87695,11.9883Q681.17969,12.7559,681.17969,13.9805Q681.17969,15.2109,681.87695,15.9668Q682.57422,16.7168,683.75781,16.7168Z" fill="#DDDDDD" fill-opacity="1"/></g><g style="mix-blend-mode:passthrough"><path d="M370.39844,10.7227Q371.61719,11.1094,372.21484,11.9824Q372.8125,12.8555,372.8125,14.1387Q372.8125,15.3984,372.23242,16.3242Q371.6582,17.2441,370.69141,17.7188Q369.73047,18.1875,368.58789,18.1875Q367.14062,18.1875,365.91602,17.4316Q364.69141,16.6699,364.26953,15.2168L365.56445,14.4492Q365.92188,15.5684,366.7832,16.1426Q367.64453,16.7168,368.64062,16.7168Q369.73633,16.7168,370.46289,16.0371Q371.19531,15.3516,371.19531,14.1328Q371.19531,11.625,367.76758,11.625L367.1875,11.625L367.1875,10.1543L367.82617,10.1543Q369.16797,10.1543,369.86523,9.50391Q370.5625,8.85352,370.5625,7.83398Q370.5625,6.87305,369.9707,6.32812Q369.37891,5.7832,368.43555,5.7832Q367.46289,5.7832,366.7832,6.36328Q366.10938,6.94336,365.74609,8.0332L364.45117,7.28906Q364.87891,5.81836,365.95117,5.06836Q367.0293,4.3125,368.47656,4.3125Q370.15234,4.3125,371.16602,5.27344Q372.17969,6.23438,372.17969,7.79883Q372.17969,8.79492,371.74023,9.5625Q371.30664,10.3242,370.39844,10.7227Z" fill="#DDDDDD" fill-opacity="1"/></g><g style="mix-blend-mode:passthrough"><path d="M842,32L842,37.333330000000004L840.5,37.333330000000004L840.5,32M842,42.6667L842,48L840.5,48L840.5,42.6667M735,48L735,42.6667L736.5,42.6667L736.5,48M735,37.333330000000004L735,32L736.5,32L736.5,37.333330000000004" fill="#DDDDDD" fill-opacity="1"/></g><g style="mix-blend-mode:passthrough"><path d="M790.98438,5.9707L784.5625,5.9707L784.5625,4.5L792.8125,4.5L792.8125,5.54883L787.85547,18L786.08008,18L790.98438,5.9707Z" fill="#DDDDDD" fill-opacity="1"/></g><g style="mix-blend-mode:passthrough"><g style="mix-blend-mode:passthrough"></g><path d="M0,46.0000000596046L3.96296,46.0000000596046L3.96296,47.5L0,47.5M7.92593,46.0000000596046L15.8519,46.0000000596046L15.8519,47.5L7.92593,47.5M19.8148,46.0000000596046L27.7407,46.0000000596046L27.7407,47.5L19.8148,47.5M31.7037,46.0000000596046L39.6296,46.0000000596046L39.6296,47.5L31.7037,47.5M43.5926,46.0000000596046L51.5185,46.0000000596046L51.5185,47.5L43.5926,47.5M55.4815,46.0000000596046L63.4074,46.0000000596046L63.4074,47.5L55.4815,47.5M67.3704,46.0000000596046L75.2963,46.0000000596046L75.2963,47.5L67.3704,47.5M79.2592,46.0000000596046L87.1852,46.0000000596046L87.1852,47.5L79.2592,47.5M91.1481,46.0000000596046L99.0741,46.0000000596046L99.0741,47.5L91.1481,47.5M103.037,46.0000000596046L107,46.0000000596046L107,47.5L103.037,47.5M107,118L103.037,118L103.037,116.5L107,116.5M99.0741,118L91.1481,118L91.1481,116.5L99.0741,116.5M87.1852,118L79.2593,118L79.2593,116.5L87.1852,116.5M75.2963,118L67.3704,118L67.3704,116.5L75.2963,116.5M63.4074,118L55.4815,118L55.4815,116.5L63.4074,116.5M51.5185,118L43.5926,118L43.5926,116.5L51.5185,116.5M39.6296,118L31.7037,118L31.7037,116.5L39.6296,116.5M27.7408,118L19.8148,118L19.8148,116.5L27.7408,116.5M15.8519,118L7.92593,118L7.92593,116.5L15.8519,116.5M3.96297,118L0.00000762939,118L0.00000762939,116.5L3.96297,116.5M0,118L0,114L1.5,114L1.5,118M0,110L0,102L1.5,102L1.5,110M0,98L0,90L1.5,90L1.5,98M0,86L0,78L1.5,78L1.5,86M0,74L0,66L1.5,66L1.5,74M0,62L0,54L1.5,54L1.5,62M0,50L0,46L1.5,46L1.5,50" fill="#DDDDDD" fill-opacity="1"/></g><g style="mix-blend-mode:passthrough"><g style="mix-blend-mode:passthrough"><path d="M58.1875,154.25Q58.1875,155.4102,57.66602,156.3066Q57.14453,157.19729999999998,56.13086,157.6953Q55.12305,158.1875,53.74023,158.1875Q51.80664,158.1875,50.43555,157.2793Q49.06445,156.36520000000002,48.630859,154.8535L49.89062,154.0742Q50.38867,155.3516,51.36133,156.0371Q52.33398,156.7168,53.78125,156.7168Q55.09961,156.7168,55.83203,156.1309Q56.57031,155.5391,56.57031,154.4902Q56.57031,153.6406,56.11328,153.1133Q55.65625,152.5859,54.98828,152.293Q54.32617,152,53.16016,151.6543Q51.86523,151.2617,51.07422,150.916Q50.2832,150.5645,49.73242,149.86133Q49.1875,149.1582,49.1875,148.01562Q49.1875,146.86133,49.76758,146.02344Q50.34766,145.17969,51.36133,144.74609Q52.38086,144.3125,53.64648,144.3125Q55.41602,144.3125,56.50586,145.10352Q57.60156,145.88867,57.98242,147.0957L56.74023,147.86914Q56.31836,146.89062,55.56836,146.33984Q54.81836,145.7832,53.58203,145.7832Q52.32227,145.7832,51.56055,146.3457Q50.80469,146.90234,50.80469,147.8457Q50.80469,148.54297,51.21484,148.98828Q51.625,149.42773,52.24023,149.68555Q52.86133,149.94336,53.94531,150.2598Q55.31055,150.6641,56.14844,151.0508Q56.98633,151.4316,57.58398,152.2109Q58.1875,152.9844,58.1875,154.25Z" fill="#DDDDDD" fill-opacity="1"/></g><path d="M0,132L0,124L1.5,124L1.5,132L0,132ZM0,144L0,136L1.5,136L1.5,144L0,144ZM0,156L0,148L1.5,148L1.5,156L0,156ZM0,168L0,160L1.5,160L1.5,168L0,168ZM0,180L0,172L1.5,172L1.5,180L0,180ZM15.8519,188L7.92593,188L7.92593,186.5L15.8519,186.5L15.8519,188ZM27.7407,188L19.8148,188L19.8148,186.5L27.7407,186.5L27.7407,188ZM39.6296,188L31.7037,188L31.7037,186.5L39.6296,186.5L39.6296,188ZM51.5185,188L43.5926,188L43.5926,186.5L51.5185,186.5L51.5185,188ZM63.4074,188L55.4815,188L55.4815,186.5L63.4074,186.5L63.4074,188ZM75.2963,188L67.3704,188L67.3704,186.5L75.2963,186.5L75.2963,188ZM87.1852,188L79.2593,188L79.2593,186.5L87.1852,186.5L87.1852,188ZM99.0741,188L91.1481,188L91.1481,186.5L99.0741,186.5L99.0741,188ZM107,172L107,180L105.5,180L105.5,172L107,172ZM107,160L107,168L105.5,168L105.5,160L107,160ZM107,148L107,156L105.5,156L105.5,148L107,148ZM107,136L107,144L105.5,144L105.5,136L107,136ZM107,124L107,132L105.5,132L105.5,124L107,124ZM91.1481,116L99.0741,116L99.0741,117.5L91.1481,117.5L91.1481,116ZM79.2593,116L87.1852,116L87.1852,117.5L79.2593,117.5L79.2593,116ZM67.3704,116L75.2963,116L75.2963,117.5L67.3704,117.5L67.3704,116ZM55.4815,116L63.4074,116L63.4074,117.5L55.4815,117.5L55.4815,116ZM43.5926,116L51.5185,116L51.5185,117.5L43.5926,117.5L43.5926,116ZM31.7037,116L39.6296,116L39.6296,117.5L31.7037,117.5L31.7037,116ZM19.8148,116L27.7407,116L27.7407,117.5L19.8148,117.5L19.8148,116ZM7.92593,116L15.8519,116L15.8519,117.5L7.92593,117.5L7.92593,116ZM3.96296,116L3.96296,117.5L1.5,117.5L1.5,120L0,120L0,116L3.96296,116ZM103.037,116L107,116L107,120L105.5,120L105.5,117.5L103.037,117.5L103.037,116ZM107,184L107,188L103.037,188L103.037,186.5L105.5,186.5L105.5,184L107,184ZM3.96297,188L0,188L0,184L1.5,184L1.5,186.5L3.96297,186.5L3.96297,188Z" fill-rule="evenodd" fill="#DDDDDD" fill-opacity="1"/></g><g style="mix-blend-mode:passthrough"><g style="mix-blend-mode:passthrough"></g><path d="M0,186.0000000596046L3.96296,186.0000000596046L3.96296,187.5L0,187.5M7.92593,186.0000000596046L15.8519,186.0000000596046L15.8519,187.5L7.92593,187.5M19.8148,186.0000000596046L27.7407,186.0000000596046L27.7407,187.5L19.8148,187.5M31.7037,186.0000000596046L39.6296,186.0000000596046L39.6296,187.5L31.7037,187.5M43.5926,186.0000000596046L51.5185,186.0000000596046L51.5185,187.5L43.5926,187.5M55.4815,186.0000000596046L63.4074,186.0000000596046L63.4074,187.5L55.4815,187.5M67.3704,186.0000000596046L75.2963,186.0000000596046L75.2963,187.5L67.3704,187.5M79.2592,186.0000000596046L87.1852,186.0000000596046L87.1852,187.5L79.2592,187.5M91.1481,186.0000000596046L99.0741,186.0000000596046L99.0741,187.5L91.1481,187.5M103.037,186.0000000596046L107,186.0000000596046L107,187.5L103.037,187.5M107,258L103.037,258L103.037,256.5L107,256.5M99.0741,258L91.1481,258L91.1481,256.5L99.0741,256.5M87.1852,258L79.2593,258L79.2593,256.5L87.1852,256.5M75.2963,258L67.3704,258L67.3704,256.5L75.2963,256.5M63.4074,258L55.4815,258L55.4815,256.5L63.4074,256.5M51.5185,258L43.5926,258L43.5926,256.5L51.5185,256.5M39.6296,258L31.7037,258L31.7037,256.5L39.6296,256.5M27.7408,258L19.8148,258L19.8148,256.5L27.7408,256.5M15.8519,258L7.92593,258L7.92593,256.5L15.8519,256.5M3.96297,258L0.00000762939,258L0.00000762939,256.5L3.96297,256.5M0,258L0,254L1.5,254L1.5,258M0,250L0,242L1.5,242L1.5,250M0,238L0,230L1.5,230L1.5,238M0,226L0,218L1.5,218L1.5,226M0,214L0,206L1.5,206L1.5,214M0,202L0,194L1.5,194L1.5,202M0,190L0,186L1.5,186L1.5,190" fill="#DDDDDD" fill-opacity="1"/></g><g style="mix-blend-mode:passthrough"><g style="mix-blend-mode:passthrough"></g><path d="M104.99993896484375,46.0000000596046L108.96289896484375,46.0000000596046L108.96289896484375,47.5L104.99993896484375,47.5M112.92586896484374,46.0000000596046L120.85183896484375,46.0000000596046L120.85183896484375,47.5L112.92586896484374,47.5M124.81473896484376,46.0000000596046L132.74063896484375,46.0000000596046L132.74063896484375,47.5L124.81473896484376,47.5M136.70363896484375,46.0000000596046L144.62953896484376,46.0000000596046L144.62953896484376,47.5L136.70363896484375,47.5M148.59253896484375,46.0000000596046L156.51843896484377,46.0000000596046L156.51843896484377,47.5L148.59253896484375,47.5M160.48143896484373,46.0000000596046L168.40733896484375,46.0000000596046L168.40733896484375,47.5L160.48143896484373,47.5M172.37033896484377,46.0000000596046L180.29623896484375,46.0000000596046L180.29623896484375,47.5L172.37033896484377,47.5M184.25913896484377,46.0000000596046L192.18513896484376,46.0000000596046L192.18513896484376,47.5L184.25913896484377,47.5M196.14803896484375,46.0000000596046L204.07403896484374,46.0000000596046L204.07403896484374,47.5L196.14803896484375,47.5M208.03693896484376,46.0000000596046L211.99993896484375,46.0000000596046L211.99993896484375,47.5L208.03693896484376,47.5M211.99993896484375,118L208.03693896484376,118L208.03693896484376,116.5L211.99993896484375,116.5M204.07403896484374,118L196.14803896484375,118L196.14803896484375,116.5L204.07403896484374,116.5M192.18513896484376,118L184.25923896484375,118L184.25923896484375,116.5L192.18513896484376,116.5M180.29623896484375,118L172.37033896484377,118L172.37033896484377,116.5L180.29623896484375,116.5M168.40733896484375,118L160.48143896484373,118L160.48143896484373,116.5L168.40733896484375,116.5M156.51843896484377,118L148.59253896484375,118L148.59253896484375,116.5L156.51843896484377,116.5M144.62953896484376,118L136.70363896484375,118L136.70363896484375,116.5L144.62953896484376,116.5M132.74073896484376,118L124.81473896484376,118L124.81473896484376,116.5L132.74073896484376,116.5M120.85183896484375,118L112.92586896484374,118L112.92586896484374,116.5L120.85183896484375,116.5M108.96290896484375,118L104.99994659423375,118L104.99994659423375,116.5L108.96290896484375,116.5" fill="#DDDDDD" fill-opacity="1"/></g><g style="mix-blend-mode:passthrough"><g style="mix-blend-mode:passthrough"></g><path d="M104.99993896484375,116.0000000596046L108.96289896484375,116.0000000596046L108.96289896484375,117.5L104.99993896484375,117.5M112.92586896484374,116.0000000596046L120.85183896484375,116.0000000596046L120.85183896484375,117.5L112.92586896484374,117.5M124.81473896484376,116.0000000596046L132.74063896484375,116.0000000596046L132.74063896484375,117.5L124.81473896484376,117.5M136.70363896484375,116.0000000596046L144.62953896484376,116.0000000596046L144.62953896484376,117.5L136.70363896484375,117.5M148.59253896484375,116.0000000596046L156.51843896484377,116.0000000596046L156.51843896484377,117.5L148.59253896484375,117.5M160.48143896484373,116.0000000596046L168.40733896484375,116.0000000596046L168.40733896484375,117.5L160.48143896484373,117.5M172.37033896484377,116.0000000596046L180.29623896484375,116.0000000596046L180.29623896484375,117.5L172.37033896484377,117.5M184.25913896484377,116.0000000596046L192.18513896484376,116.0000000596046L192.18513896484376,117.5L184.25913896484377,117.5M196.14803896484375,116.0000000596046L204.07403896484374,116.0000000596046L204.07403896484374,117.5L196.14803896484375,117.5M208.03693896484376,116.0000000596046L211.99993896484375,116.0000000596046L211.99993896484375,117.5L208.03693896484376,117.5M211.99993896484375,188L208.03693896484376,188L208.03693896484376,186.5L211.99993896484375,186.5M204.07403896484374,188L196.14803896484375,188L196.14803896484375,186.5L204.07403896484374,186.5M192.18513896484376,188L184.25923896484375,188L184.25923896484375,186.5L192.18513896484376,186.5M180.29623896484375,188L172.37033896484377,188L172.37033896484377,186.5L180.29623896484375,186.5M168.40733896484375,188L160.48143896484373,188L160.48143896484373,186.5L168.40733896484375,186.5M156.51843896484377,188L148.59253896484375,188L148.59253896484375,186.5L156.51843896484377,186.5M144.62953896484376,188L136.70363896484375,188L136.70363896484375,186.5L144.62953896484376,186.5M132.74073896484376,188L124.81473896484376,188L124.81473896484376,186.5L132.74073896484376,186.5M120.85183896484375,188L112.92586896484374,188L112.92586896484374,186.5L120.85183896484375,186.5M108.96290896484375,188L104.99994659423375,188L104.99994659423375,186.5L108.96290896484375,186.5M104.99993896484375,188L104.99993896484375,184L106.49993896484375,184L106.49993896484375,188M104.99993896484375,180L104.99993896484375,172L106.49993896484375,172L106.49993896484375,180M104.99993896484375,168L104.99993896484375,160L106.49993896484375,160L106.49993896484375,168M104.99993896484375,156L104.99993896484375,148L106.49993896484375,148L106.49993896484375,156M104.99993896484375,144L104.99993896484375,136L106.49993896484375,136L106.49993896484375,144M104.99993896484375,132L104.99993896484375,124L106.49993896484375,124L106.49993896484375,132M104.99993896484375,120L104.99993896484375,116L106.49993896484375,116L106.49993896484375,120" fill="#DDDDDD" fill-opacity="1"/></g><g style="mix-blend-mode:passthrough"><g style="mix-blend-mode:passthrough"></g><path d="M104.99993896484375,186.0000000596046L108.96289896484375,186.0000000596046L108.96289896484375,187.5L104.99993896484375,187.5M112.92586896484374,186.0000000596046L120.85183896484375,186.0000000596046L120.85183896484375,187.5L112.92586896484374,187.5M124.81473896484376,186.0000000596046L132.74063896484375,186.0000000596046L132.74063896484375,187.5L124.81473896484376,187.5M136.70363896484375,186.0000000596046L144.62953896484376,186.0000000596046L144.62953896484376,187.5L136.70363896484375,187.5M148.59253896484375,186.0000000596046L156.51843896484377,186.0000000596046L156.51843896484377,187.5L148.59253896484375,187.5M160.48143896484373,186.0000000596046L168.40733896484375,186.0000000596046L168.40733896484375,187.5L160.48143896484373,187.5M172.37033896484377,186.0000000596046L180.29623896484375,186.0000000596046L180.29623896484375,187.5L172.37033896484377,187.5M184.25913896484377,186.0000000596046L192.18513896484376,186.0000000596046L192.18513896484376,187.5L184.25913896484377,187.5M196.14803896484375,186.0000000596046L204.07403896484374,186.0000000596046L204.07403896484374,187.5L196.14803896484375,187.5M208.03693896484376,186.0000000596046L211.99993896484375,186.0000000596046L211.99993896484375,187.5L208.03693896484376,187.5M211.99993896484375,258L208.03693896484376,258L208.03693896484376,256.5L211.99993896484375,256.5M204.07403896484374,258L196.14803896484375,258L196.14803896484375,256.5L204.07403896484374,256.5M192.18513896484376,258L184.25923896484375,258L184.25923896484375,256.5L192.18513896484376,256.5M180.29623896484375,258L172.37033896484377,258L172.37033896484377,256.5L180.29623896484375,256.5M168.40733896484375,258L160.48143896484373,258L160.48143896484373,256.5L168.40733896484375,256.5M156.51843896484377,258L148.59253896484375,258L148.59253896484375,256.5L156.51843896484377,256.5M144.62953896484376,258L136.70363896484375,258L136.70363896484375,256.5L144.62953896484376,256.5M132.74073896484376,258L124.81473896484376,258L124.81473896484376,256.5L132.74073896484376,256.5M120.85183896484375,258L112.92586896484374,258L112.92586896484374,256.5L120.85183896484375,256.5M108.96290896484375,258L104.99994659423375,258L104.99994659423375,256.5L108.96290896484375,256.5" fill="#DDDDDD" fill-opacity="1"/></g><g style="mix-blend-mode:passthrough"><g style="mix-blend-mode:passthrough"></g><path d="M210,46.0000000596046L213.96296,46.0000000596046L213.96296,47.5L210,47.5M217.92593,46.0000000596046L225.8519,46.0000000596046L225.8519,47.5L217.92593,47.5M229.8148,46.0000000596046L237.7407,46.0000000596046L237.7407,47.5L229.8148,47.5M241.7037,46.0000000596046L249.6296,46.0000000596046L249.6296,47.5L241.7037,47.5M253.5926,46.0000000596046L261.5185,46.0000000596046L261.5185,47.5L253.5926,47.5M265.4815,46.0000000596046L273.4074,46.0000000596046L273.4074,47.5L265.4815,47.5M277.3704,46.0000000596046L285.2963,46.0000000596046L285.2963,47.5L277.3704,47.5M289.2592,46.0000000596046L297.1852,46.0000000596046L297.1852,47.5L289.2592,47.5M301.1481,46.0000000596046L309.0741,46.0000000596046L309.0741,47.5L301.1481,47.5M313.03700000000003,46.0000000596046L317,46.0000000596046L317,47.5L313.03700000000003,47.5M317,118L313.03700000000003,118L313.03700000000003,116.5L317,116.5M309.0741,118L301.1481,118L301.1481,116.5L309.0741,116.5M297.1852,118L289.2593,118L289.2593,116.5L297.1852,116.5M285.2963,118L277.3704,118L277.3704,116.5L285.2963,116.5M273.4074,118L265.4815,118L265.4815,116.5L273.4074,116.5M261.5185,118L253.5926,118L253.5926,116.5L261.5185,116.5M249.6296,118L241.7037,118L241.7037,116.5L249.6296,116.5M237.7408,118L229.8148,118L229.8148,116.5L237.7408,116.5M225.8519,118L217.92593,118L217.92593,116.5L225.8519,116.5M213.96297,118L210.00000762939,118L210.00000762939,116.5L213.96297,116.5" fill="#DDDDDD" fill-opacity="1"/></g><g style="mix-blend-mode:passthrough"><g style="mix-blend-mode:passthrough"></g><path d="M210,116.0000000596046L213.96296,116.0000000596046L213.96296,117.5L210,117.5M217.92593,116.0000000596046L225.8519,116.0000000596046L225.8519,117.5L217.92593,117.5M229.8148,116.0000000596046L237.7407,116.0000000596046L237.7407,117.5L229.8148,117.5M241.7037,116.0000000596046L249.6296,116.0000000596046L249.6296,117.5L241.7037,117.5M253.5926,116.0000000596046L261.5185,116.0000000596046L261.5185,117.5L253.5926,117.5M265.4815,116.0000000596046L273.4074,116.0000000596046L273.4074,117.5L265.4815,117.5M277.3704,116.0000000596046L285.2963,116.0000000596046L285.2963,117.5L277.3704,117.5M289.2592,116.0000000596046L297.1852,116.0000000596046L297.1852,117.5L289.2592,117.5M301.1481,116.0000000596046L309.0741,116.0000000596046L309.0741,117.5L301.1481,117.5M313.03700000000003,116.0000000596046L317,116.0000000596046L317,117.5L313.03700000000003,117.5M317,188L313.03700000000003,188L313.03700000000003,186.5L317,186.5M309.0741,188L301.1481,188L301.1481,186.5L309.0741,186.5M297.1852,188L289.2593,188L289.2593,186.5L297.1852,186.5M285.2963,188L277.3704,188L277.3704,186.5L285.2963,186.5M273.4074,188L265.4815,188L265.4815,186.5L273.4074,186.5M261.5185,188L253.5926,188L253.5926,186.5L261.5185,186.5M249.6296,188L241.7037,188L241.7037,186.5L249.6296,186.5M237.7408,188L229.8148,188L229.8148,186.5L237.7408,186.5M225.8519,188L217.92593,188L217.92593,186.5L225.8519,186.5M213.96297,188L210.00000762939,188L210.00000762939,186.5L213.96297,186.5" fill="#DDDDDD" fill-opacity="1"/></g><g style="mix-blend-mode:passthrough"><g style="mix-blend-mode:passthrough"></g><path d="M210,186.0000000596046L213.96296,186.0000000596046L213.96296,187.5L210,187.5M217.92593,186.0000000596046L225.8519,186.0000000596046L225.8519,187.5L217.92593,187.5M229.8148,186.0000000596046L237.7407,186.0000000596046L237.7407,187.5L229.8148,187.5M241.7037,186.0000000596046L249.6296,186.0000000596046L249.6296,187.5L241.7037,187.5M253.5926,186.0000000596046L261.5185,186.0000000596046L261.5185,187.5L253.5926,187.5M265.4815,186.0000000596046L273.4074,186.0000000596046L273.4074,187.5L265.4815,187.5M277.3704,186.0000000596046L285.2963,186.0000000596046L285.2963,187.5L277.3704,187.5M289.2592,186.0000000596046L297.1852,186.0000000596046L297.1852,187.5L289.2592,187.5M301.1481,186.0000000596046L309.0741,186.0000000596046L309.0741,187.5L301.1481,187.5M313.03700000000003,186.0000000596046L317,186.0000000596046L317,187.5L313.03700000000003,187.5M317,258L313.03700000000003,258L313.03700000000003,256.5L317,256.5M309.0741,258L301.1481,258L301.1481,256.5L309.0741,256.5M297.1852,258L289.2593,258L289.2593,256.5L297.1852,256.5M285.2963,258L277.3704,258L277.3704,256.5L285.2963,256.5M273.4074,258L265.4815,258L265.4815,256.5L273.4074,256.5M261.5185,258L253.5926,258L253.5926,256.5L261.5185,256.5M249.6296,258L241.7037,258L241.7037,256.5L249.6296,256.5M237.7408,258L229.8148,258L229.8148,256.5L237.7408,256.5M225.8519,258L217.92593,258L217.92593,256.5L225.8519,256.5M213.96297,258L210.00000762939,258L210.00000762939,256.5L213.96297,256.5" fill="#DDDDDD" fill-opacity="1"/></g><g style="mix-blend-mode:passthrough"><g style="mix-blend-mode:passthrough"></g><path d="M315,46L318.99242,46L318.99242,47.5L315,47.5M322.98485,46L330.9697,46L330.9697,47.5L322.98485,47.5M334.9621,46L342.947,46L342.947,47.5L334.9621,47.5M346.9394,46L354.9242,46L354.9242,47.5L346.9394,47.5M358.9167,46L366.9015,46L366.9015,47.5L358.9167,47.5M370.89390000000003,46L378.8788,46L378.8788,47.5L370.89390000000003,47.5M382.8712,46L390.85609999999997,46L390.85609999999997,47.5L382.8712,47.5M394.8485,46L402.8333,46L402.8333,47.5L394.8485,47.5M406.8258,46L414.8106,46L414.8106,47.5L406.8258,47.5M418.803,46L426.788,46L426.788,47.5L418.803,47.5M430.78,46L438.765,46L438.765,47.5L430.78,47.5M442.758,46L450.74199999999996,46L450.74199999999996,47.5L442.758,47.5M454.735,46L462.72,46L462.72,47.5L454.735,47.5M466.712,46L474.697,46L474.697,47.5L466.712,47.5M478.68899999999996,46L486.674,46L486.674,47.5L478.68899999999996,47.5M490.66700000000003,46L498.652,46L498.652,47.5L490.66700000000003,47.5M502.644,46L510.629,46L510.629,47.5L502.644,47.5M514.621,46L522.606,46L522.606,47.5L514.621,47.5M526.598,46L534.583,46L534.583,47.5L526.598,47.5M538.576,46L546.561,46L546.561,47.5L538.576,47.5M550.553,46L558.538,46L558.538,47.5L550.553,47.5M562.53,46L570.515,46L570.515,47.5L562.53,47.5M574.508,46L582.492,46L582.492,47.5L574.508,47.5M586.485,46L594.47,46L594.47,47.5L586.485,47.5M598.462,46L606.447,46L606.447,47.5L598.462,47.5M610.4390000000001,46L618.424,46L618.424,47.5L610.4390000000001,47.5M622.4169999999999,46L630.402,46L630.402,47.5L622.4169999999999,47.5M634.394,46L642.379,46L642.379,47.5L634.394,47.5M646.371,46L654.356,46L654.356,47.5L646.371,47.5M658.348,46L666.3330000000001,46L666.3330000000001,47.5L658.348,47.5M670.326,46L678.3109999999999,46L678.3109999999999,47.5L670.326,47.5M682.303,46L690.288,46L690.288,47.5L682.303,47.5M694.28,46L702.265,46L702.265,47.5L694.28,47.5M706.258,46L714.242,46L714.242,47.5L706.258,47.5M718.235,46L726.22,46L726.22,47.5L718.235,47.5M730.212,46L738.197,46L738.197,47.5L730.212,47.5M742.1890000000001,46L750.174,46L750.174,47.5L742.1890000000001,47.5M754.1669999999999,46L762.152,46L762.152,47.5L754.1669999999999,47.5M766.144,46L774.129,46L774.129,47.5L766.144,47.5M778.121,46L786.106,46L786.106,47.5L778.121,47.5M790.098,46L798.0830000000001,46L798.0830000000001,47.5L790.098,47.5M802.076,46L810.0609999999999,46L810.0609999999999,47.5L802.076,47.5M814.053,46L822.038,46L822.038,47.5L814.053,47.5M826.03,46L834.015,46L834.015,47.5L826.03,47.5M838.008,46L842,46L842,47.5L838.008,47.5M842,46L842,50L840.5,50L840.5,46M842,54L842,62L840.5,62L840.5,54M842,66L842,74L840.5,74L840.5,66M842,78L842,86L840.5,86L840.5,78M842,90L842,98L840.5,98L840.5,90M842,102L842,110L840.5,110L840.5,102M842,114L842,118L840.5,118L840.5,114M842,118L838.008,118L838.008,116.5L842,116.5M834.015,118L826.03,118L826.03,116.5L834.015,116.5M822.038,118L814.053,118L814.053,116.5L822.038,116.5M810.0609999999999,118L802.076,118L802.076,116.5L810.0609999999999,116.5M798.0830000000001,118L790.098,118L790.098,116.5L798.0830000000001,116.5M786.106,118L778.121,118L778.121,116.5L786.106,116.5M774.129,118L766.144,118L766.144,116.5L774.129,116.5M762.152,118L754.1669999999999,118L754.1669999999999,116.5L762.152,116.5M750.174,118L742.1890000000001,118L742.1890000000001,116.5L750.174,116.5M738.197,118L730.212,118L730.212,116.5L738.197,116.5M726.22,118L718.235,118L718.235,116.5L726.22,116.5M714.242,118L706.258,118L706.258,116.5L714.242,116.5M702.265,118L694.28,118L694.28,116.5L702.265,116.5M690.288,118L682.303,118L682.303,116.5L690.288,116.5M678.3109999999999,118L670.326,118L670.326,116.5L678.3109999999999,116.5M666.3330000000001,118L658.348,118L658.348,116.5L666.3330000000001,116.5M654.356,118L646.371,118L646.371,116.5L654.356,116.5M642.379,118L634.394,118L634.394,116.5L642.379,116.5M630.402,118L622.4169999999999,118L622.4169999999999,116.5L630.402,116.5M618.424,118L610.4390000000001,118L610.4390000000001,116.5L618.424,116.5M606.447,118L598.462,118L598.462,116.5L606.447,116.5M594.47,118L586.485,118L586.485,116.5L594.47,116.5M582.492,118L574.508,118L574.508,116.5L582.492,116.5M570.515,118L562.53,118L562.53,116.5L570.515,116.5M558.538,118L550.553,118L550.553,116.5L558.538,116.5M546.561,118L538.576,118L538.576,116.5L546.561,116.5M534.583,118L526.598,118L526.598,116.5L534.583,116.5M522.606,118L514.621,118L514.621,116.5L522.606,116.5M510.629,118L502.644,118L502.644,116.5L510.629,116.5M498.652,118L490.66700000000003,118L490.66700000000003,116.5L498.652,116.5M486.674,118L478.68899999999996,118L478.68899999999996,116.5L486.674,116.5M474.697,118L466.712,118L466.712,116.5L474.697,116.5M462.72,118L454.735,118L454.735,116.5L462.72,116.5M450.74199999999996,118L442.758,118L442.758,116.5L450.74199999999996,116.5M438.765,118L430.78,118L430.78,116.5L438.765,116.5M426.788,118L418.803,118L418.803,116.5L426.788,116.5M414.8106,118L406.8257,118L406.8257,116.5L414.8106,116.5M402.8333,118L394.8485,118L394.8485,116.5L402.8333,116.5M390.856,118L382.8712,118L382.8712,116.5L390.856,116.5M378.8788,118L370.894,118L370.894,116.5L378.8788,116.5M366.9015,118L358.9167,118L358.9167,116.5L366.9015,116.5M354.9243,118L346.9394,118L346.9394,116.5L354.9243,116.5M342.947,118L334.9621,118L334.9621,116.5L342.947,116.5M330.9697,118L322.98486,118L322.98486,116.5L330.9697,116.5M318.99243,118L315,118L315,116.5L318.99243,116.5" fill="#DDDDDD" fill-opacity="1"/></g><g style="mix-blend-mode:passthrough"><g style="mix-blend-mode:passthrough"></g><path d="M315,116L318.99242,116L318.99242,117.5L315,117.5M322.98485,116L330.9697,116L330.9697,117.5L322.98485,117.5M334.9621,116L342.947,116L342.947,117.5L334.9621,117.5M346.9394,116L354.9242,116L354.9242,117.5L346.9394,117.5M358.9167,116L366.9015,116L366.9015,117.5L358.9167,117.5M370.89390000000003,116L378.8788,116L378.8788,117.5L370.89390000000003,117.5M382.8712,116L390.85609999999997,116L390.85609999999997,117.5L382.8712,117.5M394.8485,116L402.8333,116L402.8333,117.5L394.8485,117.5M406.8258,116L414.8106,116L414.8106,117.5L406.8258,117.5M418.803,116L426.788,116L426.788,117.5L418.803,117.5M430.78,116L438.765,116L438.765,117.5L430.78,117.5M442.758,116L450.74199999999996,116L450.74199999999996,117.5L442.758,117.5M454.735,116L462.72,116L462.72,117.5L454.735,117.5M466.712,116L474.697,116L474.697,117.5L466.712,117.5M478.68899999999996,116L486.674,116L486.674,117.5L478.68899999999996,117.5M490.66700000000003,116L498.652,116L498.652,117.5L490.66700000000003,117.5M502.644,116L510.629,116L510.629,117.5L502.644,117.5M514.621,116L522.606,116L522.606,117.5L514.621,117.5M526.598,116L534.583,116L534.583,117.5L526.598,117.5M538.576,116L546.561,116L546.561,117.5L538.576,117.5M550.553,116L558.538,116L558.538,117.5L550.553,117.5M562.53,116L570.515,116L570.515,117.5L562.53,117.5M574.508,116L582.492,116L582.492,117.5L574.508,117.5M586.485,116L594.47,116L594.47,117.5L586.485,117.5M598.462,116L606.447,116L606.447,117.5L598.462,117.5M610.4390000000001,116L618.424,116L618.424,117.5L610.4390000000001,117.5M622.4169999999999,116L630.402,116L630.402,117.5L622.4169999999999,117.5M634.394,116L642.379,116L642.379,117.5L634.394,117.5M646.371,116L654.356,116L654.356,117.5L646.371,117.5M658.348,116L666.3330000000001,116L666.3330000000001,117.5L658.348,117.5M670.326,116L678.3109999999999,116L678.3109999999999,117.5L670.326,117.5M682.303,116L690.288,116L690.288,117.5L682.303,117.5M694.28,116L702.265,116L702.265,117.5L694.28,117.5M706.258,116L714.242,116L714.242,117.5L706.258,117.5M718.235,116L726.22,116L726.22,117.5L718.235,117.5M730.212,116L738.197,116L738.197,117.5L730.212,117.5M742.1890000000001,116L750.174,116L750.174,117.5L742.1890000000001,117.5M754.1669999999999,116L762.152,116L762.152,117.5L754.1669999999999,117.5M766.144,116L774.129,116L774.129,117.5L766.144,117.5M778.121,116L786.106,116L786.106,117.5L778.121,117.5M790.098,116L798.0830000000001,116L798.0830000000001,117.5L790.098,117.5M802.076,116L810.0609999999999,116L810.0609999999999,117.5L802.076,117.5M814.053,116L822.038,116L822.038,117.5L814.053,117.5M826.03,116L834.015,116L834.015,117.5L826.03,117.5M838.008,116L842,116L842,117.5L838.008,117.5M842,116L842,120L840.5,120L840.5,116M842,124L842,132L840.5,132L840.5,124M842,136L842,144L840.5,144L840.5,136M842,148L842,156L840.5,156L840.5,148M842,160L842,168L840.5,168L840.5,160M842,172L842,180L840.5,180L840.5,172M842,184L842,188L840.5,188L840.5,184M842,188L838.008,188L838.008,186.5L842,186.5M834.015,188L826.03,188L826.03,186.5L834.015,186.5M822.038,188L814.053,188L814.053,186.5L822.038,186.5M810.0609999999999,188L802.076,188L802.076,186.5L810.0609999999999,186.5M798.0830000000001,188L790.098,188L790.098,186.5L798.0830000000001,186.5M786.106,188L778.121,188L778.121,186.5L786.106,186.5M774.129,188L766.144,188L766.144,186.5L774.129,186.5M762.152,188L754.1669999999999,188L754.1669999999999,186.5L762.152,186.5M750.174,188L742.1890000000001,188L742.1890000000001,186.5L750.174,186.5M738.197,188L730.212,188L730.212,186.5L738.197,186.5M726.22,188L718.235,188L718.235,186.5L726.22,186.5M714.242,188L706.258,188L706.258,186.5L714.242,186.5M702.265,188L694.28,188L694.28,186.5L702.265,186.5M690.288,188L682.303,188L682.303,186.5L690.288,186.5M678.3109999999999,188L670.326,188L670.326,186.5L678.3109999999999,186.5M666.3330000000001,188L658.348,188L658.348,186.5L666.3330000000001,186.5M654.356,188L646.371,188L646.371,186.5L654.356,186.5M642.379,188L634.394,188L634.394,186.5L642.379,186.5M630.402,188L622.4169999999999,188L622.4169999999999,186.5L630.402,186.5M618.424,188L610.4390000000001,188L610.4390000000001,186.5L618.424,186.5M606.447,188L598.462,188L598.462,186.5L606.447,186.5M594.47,188L586.485,188L586.485,186.5L594.47,186.5M582.492,188L574.508,188L574.508,186.5L582.492,186.5M570.515,188L562.53,188L562.53,186.5L570.515,186.5M558.538,188L550.553,188L550.553,186.5L558.538,186.5M546.561,188L538.576,188L538.576,186.5L546.561,186.5M534.583,188L526.598,188L526.598,186.5L534.583,186.5M522.606,188L514.621,188L514.621,186.5L522.606,186.5M510.629,188L502.644,188L502.644,186.5L510.629,186.5M498.652,188L490.66700000000003,188L490.66700000000003,186.5L498.652,186.5M486.674,188L478.68899999999996,188L478.68899999999996,186.5L486.674,186.5M474.697,188L466.712,188L466.712,186.5L474.697,186.5M462.72,188L454.735,188L454.735,186.5L462.72,186.5M450.74199999999996,188L442.758,188L442.758,186.5L450.74199999999996,186.5M438.765,188L430.78,188L430.78,186.5L438.765,186.5M426.788,188L418.803,188L418.803,186.5L426.788,186.5M414.8106,188L406.8257,188L406.8257,186.5L414.8106,186.5M402.8333,188L394.8485,188L394.8485,186.5L402.8333,186.5M390.856,188L382.8712,188L382.8712,186.5L390.856,186.5M378.8788,188L370.894,188L370.894,186.5L378.8788,186.5M366.9015,188L358.9167,188L358.9167,186.5L366.9015,186.5M354.9243,188L346.9394,188L346.9394,186.5L354.9243,186.5M342.947,188L334.9621,188L334.9621,186.5L342.947,186.5M330.9697,188L322.98486,188L322.98486,186.5L330.9697,186.5M318.99243,188L315,188L315,186.5L318.99243,186.5" fill="#DDDDDD" fill-opacity="1"/></g><g style="mix-blend-mode:passthrough"><g style="mix-blend-mode:passthrough"></g><path d="M315,186L318.99242,186L318.99242,187.5L315,187.5M322.98485,186L330.9697,186L330.9697,187.5L322.98485,187.5M334.9621,186L342.947,186L342.947,187.5L334.9621,187.5M346.9394,186L354.9242,186L354.9242,187.5L346.9394,187.5M358.9167,186L366.9015,186L366.9015,187.5L358.9167,187.5M370.89390000000003,186L378.8788,186L378.8788,187.5L370.89390000000003,187.5M382.8712,186L390.85609999999997,186L390.85609999999997,187.5L382.8712,187.5M394.8485,186L402.8333,186L402.8333,187.5L394.8485,187.5M406.8258,186L414.8106,186L414.8106,187.5L406.8258,187.5M418.803,186L426.788,186L426.788,187.5L418.803,187.5M430.78,186L438.765,186L438.765,187.5L430.78,187.5M442.758,186L450.74199999999996,186L450.74199999999996,187.5L442.758,187.5M454.735,186L462.72,186L462.72,187.5L454.735,187.5M466.712,186L474.697,186L474.697,187.5L466.712,187.5M478.68899999999996,186L486.674,186L486.674,187.5L478.68899999999996,187.5M490.66700000000003,186L498.652,186L498.652,187.5L490.66700000000003,187.5M502.644,186L510.629,186L510.629,187.5L502.644,187.5M514.621,186L522.606,186L522.606,187.5L514.621,187.5M526.598,186L534.583,186L534.583,187.5L526.598,187.5M538.576,186L546.561,186L546.561,187.5L538.576,187.5M550.553,186L558.538,186L558.538,187.5L550.553,187.5M562.53,186L570.515,186L570.515,187.5L562.53,187.5M574.508,186L582.492,186L582.492,187.5L574.508,187.5M586.485,186L594.47,186L594.47,187.5L586.485,187.5M598.462,186L606.447,186L606.447,187.5L598.462,187.5M610.4390000000001,186L618.424,186L618.424,187.5L610.4390000000001,187.5M622.4169999999999,186L630.402,186L630.402,187.5L622.4169999999999,187.5M634.394,186L642.379,186L642.379,187.5L634.394,187.5M646.371,186L654.356,186L654.356,187.5L646.371,187.5M658.348,186L666.3330000000001,186L666.3330000000001,187.5L658.348,187.5M670.326,186L678.3109999999999,186L678.3109999999999,187.5L670.326,187.5M682.303,186L690.288,186L690.288,187.5L682.303,187.5M694.28,186L702.265,186L702.265,187.5L694.28,187.5M706.258,186L714.242,186L714.242,187.5L706.258,187.5M718.235,186L726.22,186L726.22,187.5L718.235,187.5M730.212,186L738.197,186L738.197,187.5L730.212,187.5M742.1890000000001,186L750.174,186L750.174,187.5L742.1890000000001,187.5M754.1669999999999,186L762.152,186L762.152,187.5L754.1669999999999,187.5M766.144,186L774.129,186L774.129,187.5L766.144,187.5M778.121,186L786.106,186L786.106,187.5L778.121,187.5M790.098,186L798.0830000000001,186L798.0830000000001,187.5L790.098,187.5M802.076,186L810.0609999999999,186L810.0609999999999,187.5L802.076,187.5M814.053,186L822.038,186L822.038,187.5L814.053,187.5M826.03,186L834.015,186L834.015,187.5L826.03,187.5M838.008,186L842,186L842,187.5L838.008,187.5M842,258L838.008,258L838.008,256.5L842,256.5M834.015,258L826.03,258L826.03,256.5L834.015,256.5M822.038,258L814.053,258L814.053,256.5L822.038,256.5M810.0609999999999,258L802.076,258L802.076,256.5L810.0609999999999,256.5M798.0830000000001,258L790.098,258L790.098,256.5L798.0830000000001,256.5M786.106,258L778.121,258L778.121,256.5L786.106,256.5M774.129,258L766.144,258L766.144,256.5L774.129,256.5M762.152,258L754.1669999999999,258L754.1669999999999,256.5L762.152,256.5M750.174,258L742.1890000000001,258L742.1890000000001,256.5L750.174,256.5M738.197,258L730.212,258L730.212,256.5L738.197,256.5M726.22,258L718.235,258L718.235,256.5L726.22,256.5M714.242,258L706.258,258L706.258,256.5L714.242,256.5M702.265,258L694.28,258L694.28,256.5L702.265,256.5M690.288,258L682.303,258L682.303,256.5L690.288,256.5M678.3109999999999,258L670.326,258L670.326,256.5L678.3109999999999,256.5M666.3330000000001,258L658.348,258L658.348,256.5L666.3330000000001,256.5M654.356,258L646.371,258L646.371,256.5L654.356,256.5M642.379,258L634.394,258L634.394,256.5L642.379,256.5M630.402,258L622.4169999999999,258L622.4169999999999,256.5L630.402,256.5M618.424,258L610.4390000000001,258L610.4390000000001,256.5L618.424,256.5M606.447,258L598.462,258L598.462,256.5L606.447,256.5M594.47,258L586.485,258L586.485,256.5L594.47,256.5M582.492,258L574.508,258L574.508,256.5L582.492,256.5M570.515,258L562.53,258L562.53,256.5L570.515,256.5M558.538,258L550.553,258L550.553,256.5L558.538,256.5M546.561,258L538.576,258L538.576,256.5L546.561,256.5M534.583,258L526.598,258L526.598,256.5L534.583,256.5M522.606,258L514.621,258L514.621,256.5L522.606,256.5M510.629,258L502.644,258L502.644,256.5L510.629,256.5M498.652,258L490.66700000000003,258L490.66700000000003,256.5L498.652,256.5M486.674,258L478.68899999999996,258L478.68899999999996,256.5L486.674,256.5M474.697,258L466.712,258L466.712,256.5L474.697,256.5M462.72,258L454.735,258L454.735,256.5L462.72,256.5M450.74199999999996,258L442.758,258L442.758,256.5L450.74199999999996,256.5M438.765,258L430.78,258L430.78,256.5L438.765,256.5M426.788,258L418.803,258L418.803,256.5L426.788,256.5M414.8106,258L406.8257,258L406.8257,256.5L414.8106,256.5M402.8333,258L394.8485,258L394.8485,256.5L402.8333,256.5M390.856,258L382.8712,258L382.8712,256.5L390.856,256.5M378.8788,258L370.894,258L370.894,256.5L378.8788,256.5M366.9015,258L358.9167,258L358.9167,256.5L366.9015,256.5M354.9243,258L346.9394,258L346.9394,256.5L354.9243,256.5M342.947,258L334.9621,258L334.9621,256.5L342.947,256.5M330.9697,258L322.98486,258L322.98486,256.5L330.9697,256.5M318.99243,258L315,258L315,256.5L318.99243,256.5" fill="#DDDDDD" fill-opacity="1"/></g><g style="mix-blend-mode:passthrough"><g style="mix-blend-mode:passthrough"><path d="M343.41602,72.80078L343.41602,75.87695L345.04492,75.87695L345.04492,77.35938L343.41602,77.35938L343.41602,80.0723L344.7168,79.49805L344.80469,80.9512L343.41602,81.584L343.41602,87.2969Q343.41602,88.334,343.01758,88.7266Q342.61914,89.125,341.62891,89.125Q341.03711,89.125,340.46289,89.0723L340.20508,87.6426Q340.84961,87.7539,341.35352,87.7539Q341.80469,87.7539,341.95703,87.5605Q342.11523,87.3672,342.11523,86.8457L342.11523,82.1699Q341.04883,82.6445,340.07617,83.0254L339.917969,81.5312Q340.96094,81.1211,342.11523,80.6289L342.11523,77.35938L340.1875,77.35938L340.1875,75.87695L342.11523,75.87695L342.11523,72.80078L343.41602,72.80078ZM351.3086,86.8633L354.2324,86.8633L354.2324,84.707L352.1641,84.707L352.1641,83.4648L354.2324,83.4648L354.2324,81.4023L352.0938,81.4023L352.0938,80.125L355.5625,80.125L355.5625,89.125L354.2324,89.125L354.2324,88.1641L347.11328,88.1641L347.11328,89.1426L345.8125,89.1426L345.8125,80.4121Q346.55078,80.2715,347.37695,80.0195Q348.20898,79.76172,348.85938,79.48633L349.252,80.7168Q348.31445,81.1738,347.11328,81.5137L347.11328,83.4648L349.1289,83.4648L349.1289,84.707L347.11328,84.707L347.11328,86.8633L349.9375,86.8633L349.9375,78.44336L345.56641,78.44336L345.56641,77.125L349.9375,77.125L349.9375,75.01562Q347.56445,75.21484,345.94141,75.26758L345.8125,73.97266Q347.66992,73.90234,350.6289,73.66211Q353.5879,73.41602,355.5273,73.14648L355.7617,74.44141Q353.6816,74.71094,351.3086,74.91016L351.3086,77.125L356.2656,77.125L356.2656,78.44336L351.3086,78.44336L351.3086,86.8633ZM366.7832,75.55469Q367.2168,79.47461,369.0039,82.4922Q370.7969,85.5098,374.3066,87.8828L373.3164,89.1426Q370.3809,86.9805,368.623,84.5723Q366.8711,82.1582,366.0625,78.90039Q364.498,84.5371,358.7383,89.1777L357.6367,87.9531Q361.3984,85.1465,363.1973,82.082Q365.002,79.01172,365.3945,75.75391Q365.2188,75.47852,364.8496,75.36719Q364.4805,75.25,363.8477,75.25L361.293,75.25L361.293,73.73242L364.4043,73.73242Q365.5586,73.73242,366.127,74.14844Q366.6953,74.56445,366.7832,75.55469ZM387.666,78.63086L392.3125,78.63086L392.3125,80.125L387.666,80.125L387.666,89.125L386.1895,89.125L386.1895,80.125L381.584,80.125L381.584,78.63086L386.1895,78.63086L386.1895,72.71289L387.666,72.71289L387.666,78.63086ZM380.1484,77.01367Q378.6777,75.31445,377.248,73.76172L378.3848,72.7832Q378.9883,73.43359,379.1289,73.58008Q380.72270000000003,75.31445,381.3262,76.00586L380.1484,77.01367ZM379.9141,85.9492L383.0781,83.5879L383.582,85.0176L382.8203,85.5566Q380.5,87.1855,379.7559,87.7773Q379.0293,88.3867,378.7949,88.6211L377.8809,87.5312Q378.2266,87.2617,378.332,87.0391Q378.4375,86.8105,378.4375,86.4355L378.4375,79.92578L375.8828,79.92578L375.8828,78.43164L379.9141,78.43164L379.9141,85.9492ZM406.7031,84.7422Q407.9453,86.5586,410.1777,88.2871L409.2812,89.4941Q407.1895,87.8008,405.9121,85.9844Q404.7402,87.6367,402.6543,89.418L401.752,88.2344Q403.9316,86.4707,405.1035,84.666Q403.96680000000003,82.5156,403.375,79.5332Q403.2461,79.78516,403.1289,79.97852Q403.0117,80.166,402.9414,80.2891L401.9512,79.20508Q402.8125,77.81641,403.4805,76.16406Q404.1484,74.51172,404.4883,72.89453L405.84180000000003,73.12305Q405.58979999999997,74.32422,405.0684,75.8418L409.8906,75.8418L409.8906,77.2832L408.6309,77.2832Q408.3965,79.73828,407.9453,81.5195Q407.4941,83.3008,406.7031,84.7422ZM393.6836,80.9277Q394.6211,80.3594,395.4766,79.58008Q396.332,78.80078,396.9824,77.91016L394.1348,77.91016L394.1348,76.72656L397.7031,76.72656L397.7031,73L398.9805,73L398.9805,76.72656L402.1328,76.72656L402.1328,77.91016L398.9805,77.91016L398.9805,78.16211L402.0039,80.2129L401.3359,81.209Q400.3867,80.418,398.9805,79.47461L398.9805,81.3145L397.7031,81.3145L397.7031,78.70117Q397.0703,79.63281,396.21479999999997,80.4883Q395.3594,81.3438,394.3867,82L393.6836,80.9277ZM395.9746,76.4043Q395.4473,75.51953,394.3691,74.00781L395.2715,73.39844L396.9473,75.77148L395.9746,76.4043ZM402.3672,74.04297Q401.5527,75.23242,400.59770000000003,76.49219L399.666,75.82422Q400.6738,74.49414,401.3945,73.41602L402.3672,74.04297ZM404.2949,77.72852Q404.5645,79.46289,404.9277,80.8047Q405.2969,82.1465,405.8594,83.3008Q406.416,82.0938,406.7676,80.6289Q407.125,79.16406,407.3184,77.2832L404.4883,77.2832L404.2949,77.72852ZM401.1777,88.5742Q400.3516,88.0527,398.9453,87.332Q397.2871,88.4688,394.1699,89.459L393.5781,88.2344Q396.1914,87.4785,397.6152,86.7051Q396.2793,86.0898,395.6465,85.8203L394.9258,85.498Q395.5176,84.543,395.8633,83.875L393.8125,83.875L393.8125,82.709L396.4609,82.709Q396.8359,81.7715,396.9473,81.4492L398.27729999999997,81.8125Q398.0605,82.4219,397.9375,82.709L401.7344,82.709L401.7344,83.8223Q401.0312,85.4219,400.0234,86.4355Q400.8555,86.8281,401.8633,87.4199L401.1777,88.5742ZM396.7656,85.0117Q397.0879,85.1523,398.0254,85.5332L398.834,85.873Q399.7363,85.1172,400.2754,83.875L397.3809,83.875Q396.9824,84.6309,396.7656,85.0117ZM428.15430000000003,75.625L420.4844,75.625L420.4844,78.22656Q425.4883,81.0098,427.0762,82.0293L426.2441,83.4004Q424.6973,82.3867,420.4844,79.94336L420.4844,89.125L418.9551,89.125L418.9551,75.625L412.1875,75.625L412.1875,74.18945L428.15430000000003,74.18945L428.15430000000003,75.625ZM443.014,84.9824Q443.623,85.7734,444.443,86.3945Q445.264,87.0098,446.395,87.5312L445.516,88.7324Q443.98,87.918,442.943,86.9453Q441.91200000000003,85.9668,441.21500000000003,84.7012Q440.523,83.4355,440.002,81.625L438.0625,81.625L438.0625,87.2617L440.852,86.0605L441.057,87.3496Q439.352,87.9941,437.6934,88.7617Q436.8555,89.1602,436.75,89.2129L436.1172,88.0176Q436.4922,87.8242,436.6094,87.6719Q436.7324,87.5137,436.7324,87.209L436.7324,73.64453L444.812,73.64453L444.812,81.625L441.291,81.625Q441.777,83.0723,442.35699999999997,84.0156Q443.582,83.2129,444.83,82.0762L445.674,83.0371Q444.344,84.127,443.014,84.9824ZM435.6309,75.0332L434.207,79.14648Q435.6484,81.4375,435.6484,83.2656Q435.6484,84.7598,435.1328,85.334Q434.6172,85.9023,433.4863,85.9023Q433.041,85.9023,432.5781,85.8496L432.332,84.5371Q432.7715,84.625,433.40430000000003,84.625Q433.8965,84.625,434.1016,84.2617Q434.3125,83.8984,434.3125,82.9961Q434.3125,82.2871,433.9434,81.3496Q433.5801,80.4121,432.877,79.4043L434.2422,75.05078L431.91020000000003,75.05078L431.91020000000003,89.125L430.5625,89.125L430.5625,73.75L435.6309,73.75L435.6309,75.0332ZM443.46500000000003,77.08984L443.46500000000003,74.93945L438.0625,74.93945L438.0625,77.08984L443.46500000000003,77.08984ZM443.46500000000003,78.36719L438.0625,78.36719L438.0625,80.3828L443.46500000000003,80.3828L443.46500000000003,78.36719ZM459.033,81.3379Q459.033,78.79492,459.877,76.64453Q460.727,74.49414,462.203,73L463.656,73Q462.203,74.76367,461.418,76.80859Q460.633,78.85352,460.633,81.3379Q460.633,83.8398,461.418,85.8906Q462.203,87.9414,463.656,89.6699L462.203,89.6699Q460.727,88.1758,459.877,86.0371Q459.033,83.8926,459.033,81.3379ZM472.076,80.8047Q473.178,81.2734,473.805,82.1816Q474.438,83.084,474.438,84.25Q474.438,85.375,473.898,86.2715Q473.35900000000004,87.1621,472.387,87.6777Q471.41999999999996,88.1875,470.166,88.1875Q468.871,88.1875,467.887,87.6836Q466.908,87.1797,466.35699999999997,86.2773Q465.812,85.375,465.812,84.25Q465.812,83.084,466.363,82.1816Q466.914,81.2734,467.898,80.8047Q467.096,80.3535,466.639,79.59766Q466.188,78.8418,466.188,77.88672Q466.188,76.91406,466.674,76.09375Q467.15999999999997,75.26758,468.04499999999996,74.79297Q468.93,74.3125,470.055,74.3125Q471.15,74.3125,472.006,74.79297Q472.86699999999996,75.26758,473.336,76.08203Q473.805,76.89648,473.805,77.88672Q473.805,78.8418,473.348,79.59766Q472.89099999999996,80.3535,472.076,80.8047ZM470.02,75.7832Q468.994,75.7832,468.39599999999996,76.38672Q467.805,76.98438,467.805,77.96289Q467.805,78.91797,468.39599999999996,79.52148Q468.994,80.125,470.02,80.125Q471.02099999999996,80.125,471.602,79.51562Q472.188,78.90039,472.188,77.96289Q472.188,77.00195,471.602,76.39258Q471.02099999999996,75.7832,470.02,75.7832ZM470.148,86.7168Q471.35,86.7168,472.082,86.0371Q472.82,85.3516,472.82,84.1797Q472.82,82.9961,472.1,82.2988Q471.385,81.5957,470.148,81.5957Q468.88300000000004,81.5957,468.156,82.2988Q467.43,82.9961,467.43,84.1797Q467.43,85.3691,468.16200000000003,86.043Q468.9,86.7168,470.148,86.7168ZM479.312,77.125L480.812,77.125L480.812,80.875L484.188,80.875L484.188,82.3457L480.812,82.3457L480.812,85.75L479.312,85.75L479.312,82.3457L475.938,82.3457L475.938,80.875L479.312,80.875L479.312,77.125ZM490.967,81.3379Q490.967,83.875,490.11699999999996,86.0254Q489.273,88.1758,487.797,89.6699L486.344,89.6699Q487.797,87.9062,488.582,85.8672Q489.36699999999996,83.8223,489.36699999999996,81.3379Q489.36699999999996,78.83594,488.582,76.78516Q487.797,74.72852,486.344,73L487.797,73Q489.273,74.49414,490.11699999999996,76.63867Q490.967,78.77734,490.967,81.3379Z" fill="#DDDDDD" fill-opacity="1"/></g></g><g style="mix-blend-mode:passthrough"><g style="mix-blend-mode:passthrough"><path d="M431.1543,152.4219Q432.0156,153.4707,433.0703,154.1855Q434.125,154.8945,435.7422,155.6035L435.1328,156.82229999999998Q433.1875,155.9082,431.8867,154.9062Q430.5859,153.8984,429.5547,152.4219L425.24805,152.4219Q424.42188,153.6875,422.99805,154.8477Q421.58008,156.002,419.66992,156.9453L419.060547,155.7266Q422.10156,154.3203,423.64844,152.4219L419.3125,152.4219L419.3125,151.25L422.51758,151.25L422.51758,145.625L419.9043,145.625L419.9043,144.49414L422.51758,144.49414L422.51758,143.10547L423.91797,143.10547L423.91797,144.49414L430.8848,144.49414L430.8848,143.10547L432.2852,143.10547L432.2852,144.49414L434.916,144.49414L434.916,145.625L432.2852,145.625L432.2852,151.25L435.5254,151.25L435.5254,152.4219L431.1543,152.4219ZM430.8848,146.75L430.8848,145.625L423.91797,145.625L423.91797,146.75L430.8848,146.75ZM430.8848,147.88672L423.91797,147.88672L423.91797,149.02344L430.8848,149.02344L430.8848,147.88672ZM430.8848,150.125L423.91797,150.125L423.91797,151.25L430.8848,151.25L430.8848,150.125ZM431.6406,156.125L428.11328,156.125L428.11328,157.5254L434.7695,157.5254L434.7695,158.75L420.01562,158.75L420.01562,157.5254L426.70703,157.5254L426.70703,156.125L423.10938,156.125L423.10938,154.9707L426.70703,154.9707L426.70703,153.1953L428.11328,153.1953L428.11328,154.9707L431.6406,154.9707L431.6406,156.125ZM445.9492,148.25L451.8789,148.25L451.8789,153.875L439.5625,153.875L439.5625,148.25L444.4375,148.25L444.4375,142.77734L445.9492,142.77734L445.9492,144.55859L453.1914,144.55859L453.1914,146L445.9492,146L445.9492,148.25ZM441.0039,152.4863L450.4375,152.4863L450.4375,149.68555L441.0039,149.68555L441.0039,152.4863ZM451.5684,154.5078Q452.5234,156.0547,453.7129,158.39260000000002L452.4531,159.1133Q451.7324,157.5488,450.291,155.0996L451.5684,154.5078ZM437.5879,158.5742Q438.2148,157.6543,438.7773,156.5469Q439.3457,155.4395,439.668,154.5254L440.9863,155.0645Q440.6289,156.0371,440.0488,157.19729999999998Q439.4746,158.35739999999998,438.9004,159.3125L437.5879,158.5742ZM447.7129,154.7773Q448.0352,155.5332,448.4277,156.5938Q448.8203,157.6543,449.0547,158.4453L447.6953,158.8262Q447.291,157.3496,446.4062,155.1875L447.7129,154.7773ZM443.8281,154.9531Q444.0391,155.6914,444.2734,156.7988Q444.5078,157.9062,444.6367,158.69729999999998L443.1953,158.9844Q443.0312,157.38479999999998,442.4805,155.2051L443.8281,154.9531ZM471.4375,152L462.1504,152Q461.6465,152.9258,460.9961,153.7578L470.0137,153.7578L470.0137,155L465.1562,155L465.1562,157.5254L471.332,157.5254L471.332,158.75L457.4336,158.75L457.4336,157.5254L463.6445,157.5254L463.6445,155L459.8125,155Q458.3008,156.377,455.7578,157.7422L455.16020000000003,156.5234Q457,155.5625,458.3008,154.4551Q459.6074,153.3418,460.4746,152L455.4883,152L455.4883,150.7754L461.16020000000003,150.7754Q461.5059,150.0488,461.793,149.08203L456.877,149.08203L456.877,147.875L462.1152,147.875Q462.2617,147.25977,462.3145,146.84961L462.3848,146.375L456.1562,146.375L456.1562,145.13281L460.2402,145.13281Q459.5605,143.89062,459.1621,143.33398L460.3867,142.72461Q460.6973,143.15234,461.1543,143.90234Q461.6113,144.64648,461.8809,145.13281L465.0859,145.13281Q465.9883,143.83789,466.59770000000003,142.67188L467.9805,143.17578Q467.3301,144.23633,466.7207,145.13281L470.8047,145.13281L470.8047,146.375L463.8613,146.375L463.7734,146.82031Q463.7207,147.22461,463.5742,147.875L470.1074,147.875L470.1074,149.08203L463.2871,149.08203Q463.03520000000003,150.0078,462.7246,150.7754L471.4375,150.7754L471.4375,152ZM484.53319999999997,151.3379Q484.53319999999997,148.79492,485.377,146.64453Q486.2266,144.49414,487.7031,143L489.1562,143Q487.7031,144.76367,486.918,146.80859Q486.1328,148.85352,486.1328,151.3379Q486.1328,153.8398,486.918,155.8906Q487.7031,157.9414,489.1562,159.66989999999998L487.7031,159.66989999999998Q486.2266,158.1758,485.377,156.0371Q484.53319999999997,153.8926,484.53319999999997,151.3379ZM498.1094,145.9707L491.6875,145.9707L491.6875,144.5L499.9375,144.5L499.9375,145.54883L494.9805,158L493.2051,158L498.1094,145.9707ZM504.8125,147.125L506.3125,147.125L506.3125,150.875L509.6875,150.875L509.6875,152.3457L506.3125,152.3457L506.3125,155.75L504.8125,155.75L504.8125,152.3457L501.4375,152.3457L501.4375,150.875L504.8125,150.875L504.8125,147.125ZM516.4668,151.3379Q516.4668,153.875,515.6172,156.0254Q514.7734,158.1758,513.2969,159.66989999999998L511.8438,159.66989999999998Q513.2969,157.9062,514.082,155.8672Q514.8672,153.8223,514.8672,151.3379Q514.8672,148.83594,514.082,146.78516Q513.2969,144.72852,511.8438,143L513.2969,143Q514.7734,144.49414,515.6172,146.63867Q516.4668,148.77734,516.4668,151.3379Z" fill="#DDDDDD" fill-opacity="1"/></g></g><g style="mix-blend-mode:passthrough"><g style="mix-blend-mode:passthrough"><path d="M392.7168,220.4941L392.7168,227.7012Q392.7168,228.4805,392.4766,228.80270000000002Q392.2422,229.125,391.6094,229.125Q391.1699,229.125,390.7305,229.07229999999998L390.4785,227.8945L391.0293,227.9883Q391.3457,228.0234,391.4453,227.918Q391.5449,227.8125,391.5449,227.5137L391.5449,225.375L390.2031,225.375L390.2031,228.3809L389.125,228.3809L389.125,225.375L387.9414,225.375L387.9414,228.3809L386.875,228.3809L386.875,225.375L385.45703,225.375L385.45703,229.2012L384.20898,229.2012L384.20898,220.9805Q383.92188,226.3066,382.24023,228.91989999999998L381.13867,228.24020000000002Q382.23438,226.5703,382.65625,224.3496Q383.08398,222.123,383.08398,218.55469L383.08398,214.75781L387.5254,214.75781Q387.0918,213.63867,386.8574,213.09961L388.2285,212.8125Q388.498,213.5332,388.8848,214.75781L392.5,214.75781L392.5,219L384.27344,219Q384.27344,219.5332,384.23242,220.4941L392.7168,220.4941ZM378.25586,219.7793Q377.7168,219.87891,377.14258,220.0137L376.855469,218.67188Q377.27148,218.50195,377.42969,218.21484Q377.86328,217.44727,378.55469,215.88867Q379.24609,214.33008,379.69727,213.11719L380.93945,213.65625Q380.38281,215.01562,379.69727,216.51562Q379.01758,218.01562,378.6543,218.66016L380.43555,218.37305Q381.24414,216.73828,381.57227,216.05273L382.63281,216.59766Q382.05859,217.99219,381.0918,219.89062Q380.13086,221.7832,379.41016,222.8203L382.09375,221.9941L382.12891,223.3359L378.51367,224.2852L377.64648,224.5254L377.3418,223.1191Q377.66406,223.0488,377.81641,222.9375Q377.96875,222.8262,378.11523,222.5918Q378.49023,222.0059,379.82617,219.51562Q378.76562,219.66211,378.25586,219.7793ZM391.2227,217.78125L391.2227,216L384.27344,216L384.27344,217.78125L391.2227,217.78125ZM385.45703,221.666L385.45703,224.2031L386.875,224.2031L386.875,221.666L385.45703,221.666ZM387.9414,221.666L387.9414,224.2031L389.125,224.2031L389.125,221.666L387.9414,221.666ZM390.2031,221.666L390.2031,224.2031L391.5449,224.2031L391.5449,221.666L390.2031,221.666ZM381.82422,226.541Q380.99219,226.7988,379.51562,227.23239999999998Q378.04492,227.666,377.19531,227.8945L376.978516,226.5586Q377.8457,226.33010000000002,379.33984,225.9141Q380.83398,225.4922,381.73047,225.2285L381.82422,226.541ZM408.8125,220.6113L410.9043,220.6113Q410.7988,223.5,410.4121,226.418Q410.2715,227.4844,410.0371,228.05270000000002Q409.8027,228.627,409.3281,228.873Q408.8535,229.125,408.0039,229.125Q406.6914,229.125,405.1504,228.9785L404.916,227.60739999999998Q406.627,227.7891,407.4824,227.7891Q408.2676,227.7891,408.5723,227.4727Q408.8828,227.1562,409.0293,226.2305Q409.33979999999997,224.3027,409.4277,222L402.4785,222L403.0469,216.01758L404.4473,216.11133L404.0254,220.6113L407.3535,220.6113L407.8633,215.20312L402.2266,215.20312L402.2266,213.83203L409.4453,213.83203L408.8125,220.6113ZM395.125,215.52539L395.125,214.125L401.3535,214.125L401.3535,215.52539L398.6172,215.52539Q398.0957,217.68164,397.4629,219.33398L400.8145,219.33398L400.8145,228.24020000000002L396.4199,228.24020000000002L396.4199,221.7305Q395.9336,222.6855,395.1777,223.8516L394.6035,222.2637Q395.4121,220.9395,396.1094,219.12305Q396.8125,217.30664,397.1934,215.52539L395.125,215.52539ZM399.5371,220.6992L397.7148,220.6992L397.7148,226.875L399.5371,226.875L399.5371,220.6992ZM401.6289,224.0566L408.209,224.0566L408.209,225.375L401.6289,225.375L401.6289,224.0566ZM414.8535,216.25781L414.8535,218.8125L413.377,218.8125L413.377,214.875L420.3438,214.875Q419.752,213.63281,419.4824,213.19922L420.9941,212.7832L422.0488,214.875L428.3711,214.875L428.3711,218.83008L426.877,218.83008L426.877,216.25781L414.8535,216.25781ZM428.875,222.8438L428.875,224.25L421.7266,224.25L421.7266,226.7637Q421.7266,227.75979999999998,421.52729999999997,228.252Q421.334,228.75,420.8535,228.9375Q420.3789,229.125,419.4238,229.125Q418.668,229.125,417.1914,228.9785L416.9043,227.5781Q418.1641,227.7539,419.16020000000003,227.7539Q419.6465,227.7539,419.8633,227.6602Q420.0801,227.5605,420.1562,227.2734Q420.2383,226.9805,420.2383,226.3594L420.2383,224.25L412.8379,224.25L412.8379,222.8438L420.2383,222.8438L420.2383,221.666L423.4902,219.63281L415.6973,219.63281L415.6973,218.25L426.0332,218.25L426.0332,219.61523L421.7266,222.2344L421.7266,222.8438L428.875,222.8438ZM438.1738,225.498Q436.873,225.6562,433.75,226.0781L433.75,229.125L432.4551,229.125L432.4551,226.25979999999998L430.9609,226.4531L430.9609,225.0527L432.4551,224.8945L432.4551,214.03711Q433.78520000000003,213.93164,435.3613,213.69141Q436.9434,213.44531,437.9863,213.14062L438.373,214.48828Q437.5234,214.70508,436.1582,214.93945Q434.7988,215.16797,433.75,215.25586L433.75,217.32422L437.5996,217.32422L437.5996,218.63086L433.75,218.63086L433.75,220.875L437.5996,220.875L437.5996,222.1875L433.75,222.1875L433.75,224.7363Q436.78520000000003,224.3496,438.1738,224.1328L438.1738,225.498ZM437.9043,219.07031Q438.6074,218.4668,438.959,218.00977Q439.3105,217.55273,439.4336,217.03711Q439.5625,216.51562,439.5625,215.69531L439.5625,213.75L445.0176,213.75L445.0176,216.98438Q445.0176,217.51758,445.1758,217.68164Q445.33979999999997,217.83984,445.8613,217.875L446.5469,217.89258L447.2324,217.875L446.9805,219.20508L446.1895,219.22266L445.3926,219.20508Q444.5137,219.16992,444.1152,218.82422Q443.72270000000003,218.47852,443.72270000000003,217.60547L443.72270000000003,215.08008L440.8809,215.08008L440.8809,216.15234Q440.8809,217.30664,440.459,218.11523Q440.0371,218.91797,438.8945,219.91406L437.9043,219.07031ZM446.7109,229.2129Q444.0449,228.13479999999998,442.2461,226.5762Q440.4766,228.0117,437.5293,229.2363L436.8086,227.8887Q439.6094,226.793,441.2383,225.5859Q439.6914,223.9043,438.7539,221.5781L438.25,221.5781L438.25,220.3301L445.9902,220.3301L445.9902,221.6309Q444.9238,224.0801,443.2363,225.709Q444.9062,226.9805,447.373,227.8125L446.7109,229.2129ZM440.248,221.5781Q441.0039,223.4766,442.2285,224.7891Q443.5762,223.5293,444.5137,221.5781L440.248,221.5781ZM454.5625,213.83203Q453.66020000000003,214.98047,452.3008,216.31641Q450.9473,217.65234,449.7402,218.57812L448.96680000000003,217.20703Q450.0156,216.44531,451.293,215.19141Q452.5762,213.93164,453.4434,212.8418L454.5625,213.83203ZM455.9688,213.84961L464.4941,213.84961L464.4941,215.25L455.9688,215.25L455.9688,213.84961ZM454.5801,218.38477Q453.9121,219.4043,452.8164,220.6992L452.8164,229.125L451.375,229.125L451.375,222.2637Q450.40229999999997,223.2715,449.2539,224.2852L448.6387,222.9082Q449.9336,221.7656,451.252,220.2832Q452.5762,218.79492,453.4434,217.48828L454.5801,218.38477ZM465.25,219.09375L465.25,220.5L462.3555,220.5L462.3555,226.752Q462.3555,228.0117,461.8164,228.5566Q461.27729999999997,229.10739999999998,459.9941,229.1484L459.4434,229.1484Q458.34770000000003,229.1484,457.5391,229.0547L457.2285,227.5781Q458.5469,227.75979999999998,459.6191,227.75979999999998Q460.33979999999997,227.75979999999998,460.59180000000003,227.4668Q460.8438,227.168,460.8438,226.3359L460.8438,220.5L455.2656,220.5L455.2656,219.09375L465.25,219.09375Z" fill="#DDDDDD" fill-opacity="1"/></g></g><g style="mix-blend-mode:passthrough"><g style="mix-blend-mode:passthrough"><path d="M809.55664,228.1875Q809.16992,228.1875,808.89453,227.8535Q808.625,227.5137,808.625,227.0684Q808.625,226.5938,808.89453,226.2656Q809.16992,225.9375,809.55664,225.9375Q809.95508,225.9375,810.22461,226.2656Q810.5,226.5938,810.5,227.0684Q810.5,227.5312,810.22461,227.8594Q809.95508,228.1875,809.55664,228.1875ZM815.55664,228.1875Q815.16992,228.1875,814.89453,227.8535Q814.625,227.5137,814.625,227.0684Q814.625,226.5938,814.89453,226.2656Q815.16992,225.9375,815.55664,225.9375Q815.95508,225.9375,816.2246,226.2656Q816.5,226.5938,816.5,227.0684Q816.5,227.5312,816.2246,227.8594Q815.95508,228.1875,815.55664,228.1875ZM821.5566,228.1875Q821.1699,228.1875,820.8945,227.8535Q820.625,227.5137,820.625,227.0684Q820.625,226.5938,820.8945,226.2656Q821.1699,225.9375,821.5566,225.9375Q821.9551,225.9375,822.2246,226.2656Q822.5,226.5938,822.5,227.0684Q822.5,227.5312,822.2246,227.8594Q821.9551,228.1875,821.5566,228.1875ZM827.1816,228.1875Q826.7949,228.1875,826.5195,227.8535Q826.25,227.5137,826.25,227.0684Q826.25,226.5938,826.5195,226.2656Q826.7949,225.9375,827.1816,225.9375Q827.5801,225.9375,827.8496,226.2656Q828.125,226.5938,828.125,227.0684Q828.125,227.5312,827.8496,227.8594Q827.5801,228.1875,827.1816,228.1875ZM833.1816,228.1875Q832.7949,228.1875,832.5195,227.8535Q832.25,227.5137,832.25,227.0684Q832.25,226.5938,832.5195,226.2656Q832.7949,225.9375,833.1816,225.9375Q833.5801,225.9375,833.8496,226.2656Q834.125,226.5938,834.125,227.0684Q834.125,227.5312,833.8496,227.8594Q833.5801,228.1875,833.1816,228.1875ZM839.1816,228.1875Q838.7949,228.1875,838.5195,227.8535Q838.25,227.5137,838.25,227.0684Q838.25,226.5938,838.5195,226.2656Q838.7949,225.9375,839.1816,225.9375Q839.5801,225.9375,839.8496,226.2656Q840.125,226.5938,840.125,227.0684Q840.125,227.5312,839.8496,227.8594Q839.5801,228.1875,839.1816,228.1875Z" fill="#DDDDDD" fill-opacity="1"/></g></g></g></svg>