<svg xmlns="http://www.w3.org/2000/svg" xmlns:xlink="http://www.w3.org/1999/xlink" fill="none" version="1.1" width="842" height="118" viewBox="0 0 842 118"><g style="mix-blend-mode:passthrough"><g style="mix-blend-mode:passthrough"><path d="M107,32L107,37.333330000000004L105.5,37.333330000000004L105.5,32M107,42.6667L107,48L105.5,48L105.5,42.6667M0,48L0,42.6667L1.5,42.6667L1.5,48M0,37.333330000000004L0,32L1.5,32L1.5,37.333330000000004" fill="#DDDDDD" fill-opacity="1"/></g><g style="mix-blend-mode:passthrough"><path d="M527,32L527,37.333330000000004L525.5,37.333330000000004L525.5,32M527,42.6667L527,48L525.5,48L525.5,42.6667M420,48L420,42.6667L421.5,42.6667L421.5,48M420,37.333330000000004L420,32L421.5,32L421.5,37.333330000000004" fill="#DDDDDD" fill-opacity="1"/></g><g style="mix-blend-mode:passthrough"><path d="M211.99993896484375,32L211.99993896484375,37.333330000000004L210.49993896484375,37.333330000000004L210.49993896484375,32M211.99993896484375,42.6667L211.99993896484375,48L210.49993896484375,48L210.49993896484375,42.6667M104.99993896484375,48L104.99993896484375,42.6667L106.49993896484375,42.6667L106.49993896484375,48M104.99993896484375,37.333330000000004L104.99993896484375,32L106.49993896484375,32L106.49993896484375,37.333330000000004" fill="#DDDDDD" fill-opacity="1"/></g><g style="mix-blend-mode:passthrough"><path d="M632,32L632,37.333330000000004L630.5,37.333330000000004L630.5,32M632,42.6667L632,48L630.5,48L630.5,42.6667M525,48L525,42.6667L526.5,42.6667L526.5,48M525,37.333330000000004L525,32L526.5,32L526.5,37.333330000000004" fill="#DDDDDD" fill-opacity="1"/></g><g style="mix-blend-mode:passthrough"><path d="M317,32L317,37.333330000000004L315.5,37.333330000000004L315.5,32M317,42.6667L317,48L315.5,48L315.5,42.6667M210,48L210,42.6667L211.5,42.6667L211.5,48M210,37.333330000000004L210,32L211.5,32L211.5,37.333330000000004" fill="#DDDDDD" fill-opacity="1"/></g><g style="mix-blend-mode:passthrough"><path d="M737,32L737,37.333330000000004L735.5,37.333330000000004L735.5,32M737,42.6667L737,48L735.5,48L735.5,42.6667M630,48L630,42.6667L631.5,42.6667L631.5,48M630,37.333330000000004L630,32L631.5,32L631.5,37.333330000000004" fill="#DDDDDD" fill-opacity="1"/></g><g style="mix-blend-mode:passthrough"><path d="M422,32L422,37.333330000000004L420.5,37.333330000000004L420.5,32M422,42.6667L422,48L420.5,48L420.5,42.6667M315,48L315,42.6667L316.5,42.6667L316.5,48M315,37.333330000000004L315,32L316.5,32L316.5,37.333330000000004" fill="#DDDDDD" fill-opacity="1"/></g><g style="mix-blend-mode:passthrough"><path d="M57.8125,11.2734Q57.8125,14.6836,56.69336,16.4355Q55.58008,18.1875,53.49414,18.1875Q51.41992,18.1875,50.30078,16.4297Q49.1875,14.666,49.1875,11.2734Q49.1875,7.85742,50.30078,6.08789Q51.41992,4.3125,53.49414,4.3125Q55.58008,4.3125,56.69336,6.07617Q57.8125,7.83984,57.8125,11.2734ZM50.80469,11.2793Q50.80469,14.0273,51.45508,15.375Q52.11133,16.7168,53.49414,16.7168Q54.87109,16.7168,55.5332,15.3809Q56.19531,14.0449,56.19531,11.2793Q56.19531,8.49609,55.5332,7.14258Q54.87109,5.7832,53.49414,5.7832Q52.11133,5.7832,51.45508,7.14258Q50.80469,8.49609,50.80469,11.2793Z" fill="#DDDDDD" fill-opacity="1"/></g><g style="mix-blend-mode:passthrough"><path d="M476.6875,9.75L476.6875,13.5293L478.5625,13.5293L478.5625,15L476.6875,15L476.6875,18L475.07031,18L475.07031,15L469.1875,15L469.1875,13.8164L474.17969,4.5L475.94336,4.5L471.07422,13.5293L475.07031,13.5293L475.07031,9.75L476.6875,9.75Z" fill="#DDDDDD" fill-opacity="1"/></g><g style="mix-blend-mode:passthrough"><path d="M155.3125,8.47852L155.3125,6.78516L159.08008,4.5L160.30469,4.5L160.30469,18L158.6875,18L158.6875,6.46875L155.3125,8.47852Z" fill="#DDDDDD" fill-opacity="1"/></g><g style="mix-blend-mode:passthrough"><path d="M578.59375,9.4043Q579.74805,9.4043,580.65039,9.9668Q581.55859,10.5293,582.05664,11.5137Q582.55469,12.4922,582.55469,13.7402Q582.55469,15.0527,581.99805,16.0605Q581.44727,17.0684,580.48633,17.6309Q579.52539,18.1875,578.34766,18.1875Q577.04688,18.1875,576.03906,17.5254Q575.03125,16.8574,574.63867,15.5684L575.93359,14.8125Q576.25586,15.7559,576.87695,16.2363Q577.49805,16.7168,578.38281,16.7168Q579.57227,16.7168,580.25195,15.9023Q580.9375,15.0879,580.9375,13.8164Q580.9375,12.5801,580.28125,11.7305Q579.625,10.875,578.38281,10.875Q576.81836,10.875,575.93359,12.334L574.9082,11.8008L575.81055,4.5L581.99219,4.5L581.99219,5.9707L577.21094,5.9707L576.68945,9.91406Q577.46875,9.4043,578.59375,9.4043Z" fill="#DDDDDD" fill-opacity="1"/></g><g style="mix-blend-mode:passthrough"><path d="M261.63672,16.5293L267.4375,16.5293L267.4375,18L259.1875,18L259.1875,16.9395L263.45898,12.0879Q264.66016,10.7285,265.11133,9.94922Q265.5625,9.16992,265.5625,8.24414Q265.5625,7.06641,264.92969,6.42773Q264.30273,5.7832,263.34766,5.7832Q262.375,5.7832,261.63672,6.45703Q260.89844,7.125,260.57617,8.22656L259.27539,7.4707Q259.66797,5.9707,260.82812,5.14453Q261.98828,4.3125,263.41797,4.3125Q264.44922,4.3125,265.30469,4.76367Q266.16602,5.21484,266.66992,6.08789Q267.17969,6.95508,267.17969,8.17969Q267.17969,9.375,266.61133,10.4414Q266.04297,11.5078,264.61914,13.1191L261.63672,16.5293Z" fill="#DDDDDD" fill-opacity="1"/></g><g style="mix-blend-mode:passthrough"><path d="M683.96289,9.75Q685.11719,9.75,686.01953,10.3125Q686.92188,10.8691,687.42578,11.8301Q687.92969,12.7852,687.92969,13.9453Q687.92969,15.1348,687.39062,16.1133Q686.85742,17.0859,685.89062,17.6367Q684.92969,18.1875,683.74609,18.1875Q682.52734,18.1875,681.57227,17.6367Q680.61719,17.0859,680.08984,16.0957Q679.5625,15.0996,679.5625,13.8281Q679.5625,12.832,679.9082,11.9941Q680.25391,11.1562,681.05078,9.79688L684.15625,4.5L685.98438,4.5L683.24805,9.1582Q682.99023,9.57422,682.73828,9.93164Q683.28906,9.75,683.96289,9.75ZM683.75781,16.7168Q684.91797,16.7168,685.61523,15.9551Q686.3125,15.1934,686.3125,13.9805Q686.3125,12.7559,685.62109,11.9883Q684.93555,11.2207,683.75781,11.2207Q682.57422,11.2207,681.87695,11.9883Q681.17969,12.7559,681.17969,13.9805Q681.17969,15.2109,681.87695,15.9668Q682.57422,16.7168,683.75781,16.7168Z" fill="#DDDDDD" fill-opacity="1"/></g><g style="mix-blend-mode:passthrough"><path d="M370.39844,10.7227Q371.61719,11.1094,372.21484,11.9824Q372.8125,12.8555,372.8125,14.1387Q372.8125,15.3984,372.23242,16.3242Q371.6582,17.2441,370.69141,17.7188Q369.73047,18.1875,368.58789,18.1875Q367.14062,18.1875,365.91602,17.4316Q364.69141,16.6699,364.26953,15.2168L365.56445,14.4492Q365.92188,15.5684,366.7832,16.1426Q367.64453,16.7168,368.64062,16.7168Q369.73633,16.7168,370.46289,16.0371Q371.19531,15.3516,371.19531,14.1328Q371.19531,11.625,367.76758,11.625L367.1875,11.625L367.1875,10.1543L367.82617,10.1543Q369.16797,10.1543,369.86523,9.50391Q370.5625,8.85352,370.5625,7.83398Q370.5625,6.87305,369.9707,6.32812Q369.37891,5.7832,368.43555,5.7832Q367.46289,5.7832,366.7832,6.36328Q366.10938,6.94336,365.74609,8.0332L364.45117,7.28906Q364.87891,5.81836,365.95117,5.06836Q367.0293,4.3125,368.47656,4.3125Q370.15234,4.3125,371.16602,5.27344Q372.17969,6.23438,372.17969,7.79883Q372.17969,8.79492,371.74023,9.5625Q371.30664,10.3242,370.39844,10.7227Z" fill="#DDDDDD" fill-opacity="1"/></g><g style="mix-blend-mode:passthrough"><path d="M842,32L842,37.333330000000004L840.5,37.333330000000004L840.5,32M842,42.6667L842,48L840.5,48L840.5,42.6667M735,48L735,42.6667L736.5,42.6667L736.5,48M735,37.333330000000004L735,32L736.5,32L736.5,37.333330000000004" fill="#DDDDDD" fill-opacity="1"/></g><g style="mix-blend-mode:passthrough"><path d="M790.98438,5.9707L784.5625,5.9707L784.5625,4.5L792.8125,4.5L792.8125,5.54883L787.85547,18L786.08008,18L790.98438,5.9707Z" fill="#DDDDDD" fill-opacity="1"/></g><g style="mix-blend-mode:passthrough"><g style="mix-blend-mode:passthrough"><path d="M57.8125,81.2734Q57.8125,84.6836,56.69336,86.4355Q55.58008,88.1875,53.49414,88.1875Q51.41992,88.1875,50.30078,86.4297Q49.1875,84.666,49.1875,81.2734Q49.1875,77.85742,50.30078,76.08789Q51.41992,74.3125,53.49414,74.3125Q55.58008,74.3125,56.69336,76.07617Q57.8125,77.83984,57.8125,81.2734ZM50.80469,81.2793Q50.80469,84.0273,51.45508,85.375Q52.11133,86.7168,53.49414,86.7168Q54.87109,86.7168,55.5332,85.3809Q56.19531,84.0449,56.19531,81.2793Q56.19531,78.49609,55.5332,77.14258Q54.87109,75.7832,53.49414,75.7832Q52.11133,75.7832,51.45508,77.14258Q50.80469,78.49609,50.80469,81.2793Z" fill="#DDDDDD" fill-opacity="1"/></g><path d="M0,62L0,54L1.5,54L1.5,62L0,62ZM0,74L0,66L1.5,66L1.5,74L0,74ZM0,86L0,78L1.5,78L1.5,86L0,86ZM0,98L0,90L1.5,90L1.5,98L0,98ZM0,110L0,102L1.5,102L1.5,110L0,110ZM15.8519,118L7.92593,118L7.92593,116.5L15.8519,116.5L15.8519,118ZM27.7407,118L19.8148,118L19.8148,116.5L27.7407,116.5L27.7407,118ZM39.6296,118L31.7037,118L31.7037,116.5L39.6296,116.5L39.6296,118ZM51.5185,118L43.5926,118L43.5926,116.5L51.5185,116.5L51.5185,118ZM63.4074,118L55.4815,118L55.4815,116.5L63.4074,116.5L63.4074,118ZM75.2963,118L67.3704,118L67.3704,116.5L75.2963,116.5L75.2963,118ZM87.1852,118L79.2593,118L79.2593,116.5L87.1852,116.5L87.1852,118ZM99.0741,118L91.1481,118L91.1481,116.5L99.0741,116.5L99.0741,118ZM107,102L107,110L105.5,110L105.5,102L107,102ZM107,90L107,98L105.5,98L105.5,90L107,90ZM107,78L107,86L105.5,86L105.5,78L107,78ZM107,66L107,74L105.5,74L105.5,66L107,66ZM107,54L107,62L105.5,62L105.5,54L107,54ZM91.1481,46L99.0741,46L99.0741,47.5L91.1481,47.5L91.1481,46ZM79.2593,46L87.1852,46L87.1852,47.5L79.2593,47.5L79.2593,46ZM67.3704,46L75.2963,46L75.2963,47.5L67.3704,47.5L67.3704,46ZM55.4815,46L63.4074,46L63.4074,47.5L55.4815,47.5L55.4815,46ZM43.5926,46L51.5185,46L51.5185,47.5L43.5926,47.5L43.5926,46ZM31.7037,46L39.6296,46L39.6296,47.5L31.7037,47.5L31.7037,46ZM19.8148,46L27.7407,46L27.7407,47.5L19.8148,47.5L19.8148,46ZM7.92593,46L15.8519,46L15.8519,47.5L7.92593,47.5L7.92593,46ZM3.96296,46L3.96296,47.5L1.5,47.5L1.5,50L0,50L0,46L3.96296,46ZM103.037,46L107,46L107,50L105.5,50L105.5,47.5L103.037,47.5L103.037,46ZM107,114L107,118L103.037,118L103.037,116.5L105.5,116.5L105.5,114L107,114ZM3.96297,118L0,118L0,114L1.5,114L1.5,116.5L3.96297,116.5L3.96297,118Z" fill-rule="evenodd" fill="#DDDDDD" fill-opacity="1"/></g><g style="mix-blend-mode:passthrough"><g style="mix-blend-mode:passthrough"><path d="M162.81243896484375,81.2734Q162.81243896484375,84.6836,161.69329896484376,86.4355Q160.58001896484376,88.1875,158.49407896484374,88.1875Q156.41985896484374,88.1875,155.30071896484375,86.4297Q154.18743896484375,84.666,154.18743896484375,81.2734Q154.18743896484375,77.85742,155.30071896484375,76.08789Q156.41985896484374,74.3125,158.49407896484374,74.3125Q160.58001896484376,74.3125,161.69329896484376,76.07617Q162.81243896484375,77.83984,162.81243896484375,81.2734ZM155.80462896484374,81.2793Q155.80462896484374,84.0273,156.45501896484376,85.375Q157.11126896484376,86.7168,158.49407896484374,86.7168Q159.87102896484376,86.7168,160.53313896484374,85.3809Q161.19524896484376,84.0449,161.19524896484376,81.2793Q161.19524896484376,78.49609,160.53313896484374,77.14258Q159.87102896484376,75.7832,158.49407896484374,75.7832Q157.11126896484376,75.7832,156.45501896484376,77.14258Q155.80462896484374,78.49609,155.80462896484374,81.2793Z" fill="#DDDDDD" fill-opacity="1"/></g><path d="M104.99993896484375,62L104.99993896484375,54L106.49993896484375,54L106.49993896484375,62L104.99993896484375,62ZM104.99993896484375,74L104.99993896484375,66L106.49993896484375,66L106.49993896484375,74L104.99993896484375,74ZM104.99993896484375,86L104.99993896484375,78L106.49993896484375,78L106.49993896484375,86L104.99993896484375,86ZM104.99993896484375,98L104.99993896484375,90L106.49993896484375,90L106.49993896484375,98L104.99993896484375,98ZM104.99993896484375,110L104.99993896484375,102L106.49993896484375,102L106.49993896484375,110L104.99993896484375,110ZM120.85183896484375,118L112.92586896484374,118L112.92586896484374,116.5L120.85183896484375,116.5L120.85183896484375,118ZM132.74063896484375,118L124.81473896484376,118L124.81473896484376,116.5L132.74063896484375,116.5L132.74063896484375,118ZM144.62953896484376,118L136.70363896484375,118L136.70363896484375,116.5L144.62953896484376,116.5L144.62953896484376,118ZM156.51843896484377,118L148.59253896484375,118L148.59253896484375,116.5L156.51843896484377,116.5L156.51843896484377,118ZM168.40733896484375,118L160.48143896484373,118L160.48143896484373,116.5L168.40733896484375,116.5L168.40733896484375,118ZM180.29623896484375,118L172.37033896484377,118L172.37033896484377,116.5L180.29623896484375,116.5L180.29623896484375,118ZM192.18513896484376,118L184.25923896484375,118L184.25923896484375,116.5L192.18513896484376,116.5L192.18513896484376,118ZM204.07403896484374,118L196.14803896484375,118L196.14803896484375,116.5L204.07403896484374,116.5L204.07403896484374,118ZM211.99993896484375,102L211.99993896484375,110L210.49993896484375,110L210.49993896484375,102L211.99993896484375,102ZM211.99993896484375,90L211.99993896484375,98L210.49993896484375,98L210.49993896484375,90L211.99993896484375,90ZM211.99993896484375,78L211.99993896484375,86L210.49993896484375,86L210.49993896484375,78L211.99993896484375,78ZM211.99993896484375,66L211.99993896484375,74L210.49993896484375,74L210.49993896484375,66L211.99993896484375,66ZM211.99993896484375,54L211.99993896484375,62L210.49993896484375,62L210.49993896484375,54L211.99993896484375,54ZM196.14803896484375,46L204.07403896484374,46L204.07403896484374,47.5L196.14803896484375,47.5L196.14803896484375,46ZM184.25923896484375,46L192.18513896484376,46L192.18513896484376,47.5L184.25923896484375,47.5L184.25923896484375,46ZM172.37033896484377,46L180.29623896484375,46L180.29623896484375,47.5L172.37033896484377,47.5L172.37033896484377,46ZM160.48143896484373,46L168.40733896484375,46L168.40733896484375,47.5L160.48143896484373,47.5L160.48143896484373,46ZM148.59253896484375,46L156.51843896484377,46L156.51843896484377,47.5L148.59253896484375,47.5L148.59253896484375,46ZM136.70363896484375,46L144.62953896484376,46L144.62953896484376,47.5L136.70363896484375,47.5L136.70363896484375,46ZM124.81473896484376,46L132.74063896484375,46L132.74063896484375,47.5L124.81473896484376,47.5L124.81473896484376,46ZM112.92586896484374,46L120.85183896484375,46L120.85183896484375,47.5L112.92586896484374,47.5L112.92586896484374,46ZM108.96289896484375,46L108.96289896484375,47.5L106.49993896484375,47.5L106.49993896484375,50L104.99993896484375,50L104.99993896484375,46L108.96289896484375,46ZM208.03693896484376,46L211.99993896484375,46L211.99993896484375,50L210.49993896484375,50L210.49993896484375,47.5L208.03693896484376,47.5L208.03693896484376,46ZM211.99993896484375,114L211.99993896484375,118L208.03693896484376,118L208.03693896484376,116.5L210.49993896484375,116.5L210.49993896484375,114L211.99993896484375,114ZM108.96290896484375,118L104.99993896484375,118L104.99993896484375,114L106.49993896484375,114L106.49993896484375,116.5L108.96290896484375,116.5L108.96290896484375,118Z" fill-rule="evenodd" fill="#DDDDDD" fill-opacity="1"/></g><g style="mix-blend-mode:passthrough"><g style="mix-blend-mode:passthrough"><path d="M260.3125,78.47852L260.3125,76.78516L264.08008,74.5L265.30469,74.5L265.30469,88L263.6875,88L263.6875,76.46875L260.3125,78.47852Z" fill="#DDDDDD" fill-opacity="1"/></g><path d="M210,62L210,54L211.5,54L211.5,62L210,62ZM210,74L210,66L211.5,66L211.5,74L210,74ZM210,86L210,78L211.5,78L211.5,86L210,86ZM210,98L210,90L211.5,90L211.5,98L210,98ZM210,110L210,102L211.5,102L211.5,110L210,110ZM225.8519,118L217.92593,118L217.92593,116.5L225.8519,116.5L225.8519,118ZM237.7407,118L229.8148,118L229.8148,116.5L237.7407,116.5L237.7407,118ZM249.6296,118L241.7037,118L241.7037,116.5L249.6296,116.5L249.6296,118ZM261.5185,118L253.5926,118L253.5926,116.5L261.5185,116.5L261.5185,118ZM273.4074,118L265.4815,118L265.4815,116.5L273.4074,116.5L273.4074,118ZM285.2963,118L277.3704,118L277.3704,116.5L285.2963,116.5L285.2963,118ZM297.1852,118L289.2593,118L289.2593,116.5L297.1852,116.5L297.1852,118ZM309.0741,118L301.1481,118L301.1481,116.5L309.0741,116.5L309.0741,118ZM317,102L317,110L315.5,110L315.5,102L317,102ZM317,90L317,98L315.5,98L315.5,90L317,90ZM317,78L317,86L315.5,86L315.5,78L317,78ZM317,66L317,74L315.5,74L315.5,66L317,66ZM317,54L317,62L315.5,62L315.5,54L317,54ZM301.1481,46L309.0741,46L309.0741,47.5L301.1481,47.5L301.1481,46ZM289.2593,46L297.1852,46L297.1852,47.5L289.2593,47.5L289.2593,46ZM277.3704,46L285.2963,46L285.2963,47.5L277.3704,47.5L277.3704,46ZM265.4815,46L273.4074,46L273.4074,47.5L265.4815,47.5L265.4815,46ZM253.5926,46L261.5185,46L261.5185,47.5L253.5926,47.5L253.5926,46ZM241.7037,46L249.6296,46L249.6296,47.5L241.7037,47.5L241.7037,46ZM229.8148,46L237.7407,46L237.7407,47.5L229.8148,47.5L229.8148,46ZM217.92593,46L225.8519,46L225.8519,47.5L217.92593,47.5L217.92593,46ZM213.96296,46L213.96296,47.5L211.5,47.5L211.5,50L210,50L210,46L213.96296,46ZM313.03700000000003,46L317,46L317,50L315.5,50L315.5,47.5L313.03700000000003,47.5L313.03700000000003,46ZM317,114L317,118L313.03700000000003,118L313.03700000000003,116.5L315.5,116.5L315.5,114L317,114ZM213.96297,118L210,118L210,114L211.5,114L211.5,116.5L213.96297,116.5L213.96297,118Z" fill-rule="evenodd" fill="#DDDDDD" fill-opacity="1"/></g><g style="mix-blend-mode:passthrough"><g style="mix-blend-mode:passthrough"><path d="M535.5625,76L535.5625,77.99805L534.16211,77.99805L534.16211,74.66992L540.88867,74.66992Q540.47266,73.71484,540.09766,73.01172L541.48633,72.49023Q541.97852,73.46289,542.41211,74.66992L548.6875,74.66992L548.6875,78.0332L547.2637,78.0332L547.2637,76L535.5625,76ZM543.332,76.63281Q544.3281,77.10156,545.9277,77.92188Q547.5332,78.74219,548.8105,79.44531L548.1836,80.623Q546.8535,79.87891,545.2363,79.02344Q543.6191,78.16211,542.6641,77.72852L543.332,76.63281ZM534.17969,79.42773Q535.39844,78.94141,536.76367,78.19141Q538.13477,77.44141,539.33594,76.65039L540.03906,77.76367Q537.58984,79.42773,534.78906,80.6934L534.17969,79.42773ZM549.1387,84.9766Q548.002,84.543,546.8125,83.9688L546.8125,89.125L545.3945,89.125L545.3945,88.5273L537.4375,88.5273L537.4375,89.125L536.01367,89.125L536.01367,83.9688Q534.73633,84.5781,533.69336,84.9766L533.136719,83.6816Q535.80859,82.7031,537.6543,81.584Q539.50586,80.459,540.76562,79.04688L542.08398,79.04688Q543.4199,80.4941,545.2773,81.6191Q547.1348,82.7383,549.7305,83.6641L549.1387,84.9766ZM545.8809,83.5Q543.1855,82.0527,541.43359,80.2422Q539.61133,82.0703,536.93359,83.5L545.8809,83.5ZM537.4375,84.8125L537.4375,87.25L545.3945,87.25L545.3945,84.8125L537.4375,84.8125ZM553.2227,73.5625L565.7148,73.5625L565.7148,77.65234L553.2227,77.65234L553.2227,73.5625ZM564.2969,75.21484L564.2969,74.5L554.6641,74.5L554.6641,75.21484L564.2969,75.21484ZM554.6641,76.02344L554.6641,76.75L564.2969,76.75L564.2969,76.02344L554.6641,76.02344ZM551.3125,79.69141L551.3125,78.625L567.625,78.625L567.625,79.69141L551.3125,79.69141ZM566.2188,86.875L560.1719,86.875L560.1719,88.0586L567.4258,88.0586L567.4258,89.125L551.5117,89.125L551.5117,88.0586L558.7832,88.0586L558.7832,86.875L552.7188,86.875L552.7188,85.8848L558.7832,85.8848L558.7832,85L553.2227,85L553.2227,80.5L565.7148,80.5L565.7148,85L560.1719,85L560.1719,85.8848L566.2188,85.8848L566.2188,86.875ZM558.7832,82.3457L558.7832,81.4375L554.6465,81.4375L554.6465,82.3457L558.7832,82.3457ZM560.1719,82.3457L564.2969,82.3457L564.2969,81.4375L560.1719,81.4375L560.1719,82.3457ZM554.6465,83.2656L554.6465,84.0625L558.7832,84.0625L558.7832,83.2656L554.6465,83.2656ZM560.1719,83.2656L560.1719,84.0625L564.2969,84.0625L564.2969,83.2656L560.1719,83.2656ZM580.5332,81.3379Q580.5332,78.79492,581.377,76.64453Q582.2266,74.49414,583.7031,73L585.1562,73Q583.7031,74.76367,582.918,76.80859Q582.1328,78.85352,582.1328,81.3379Q582.1328,83.8398,582.918,85.8906Q583.7031,87.9414,585.1562,89.6699L583.7031,89.6699Q582.2266,88.1758,581.377,86.0371Q580.5332,83.8926,580.5332,81.3379ZM591.7188,79.4043Q592.873,79.4043,593.7754,79.9668Q594.6836,80.5293,595.1816,81.5137Q595.6797,82.4922,595.6797,83.7402Q595.6797,85.0527,595.123,86.0605Q594.5723,87.0684,593.6113,87.6309Q592.6504,88.1875,591.4727,88.1875Q590.1719,88.1875,589.1641,87.5254Q588.1562,86.8574,587.7637,85.5684L589.0586,84.8125Q589.3809,85.7559,590.002,86.2363Q590.623,86.7168,591.5078,86.7168Q592.6973,86.7168,593.377,85.9023Q594.0625,85.0879,594.0625,83.8164Q594.0625,82.5801,593.4062,81.7305Q592.75,80.875,591.5078,80.875Q589.9434,80.875,589.0586,82.334L588.0332,81.8008L588.9355,74.5L595.1172,74.5L595.1172,75.9707L590.3359,75.9707L589.8145,79.91406Q590.5938,79.4043,591.7188,79.4043ZM600.8125,77.125L602.3125,77.125L602.3125,80.875L605.6875,80.875L605.6875,82.3457L602.3125,82.3457L602.3125,85.75L600.8125,85.75L600.8125,82.3457L597.4375,82.3457L597.4375,80.875L600.8125,80.875L600.8125,77.125ZM612.4668,81.3379Q612.4668,83.875,611.6172,86.0254Q610.7734,88.1758,609.2969,89.6699L607.8438,89.6699Q609.2969,87.9062,610.082,85.8672Q610.8672,83.8223,610.8672,81.3379Q610.8672,78.83594,610.082,76.78516Q609.2969,74.72852,607.8438,73L609.2969,73Q610.7734,74.49414,611.6172,76.63867Q612.4668,78.77734,612.4668,81.3379Z" fill="#DDDDDD" fill-opacity="1"/></g><path d="M315,62L315,54L316.5,54L316.5,62L315,62ZM315,74L315,66L316.5,66L316.5,74L315,74ZM315,86L315,78L316.5,78L316.5,86L315,86ZM315,98L315,90L316.5,90L316.5,98L315,98ZM315,110L315,102L316.5,102L316.5,110L315,110ZM330.9691,118L322.98431,118L322.98431,116.5L330.9691,116.5L330.9691,118ZM342.9464,118L334.9616,118L334.9616,116.5L342.9464,116.5L342.9464,118ZM354.9237,118L346.9389,118L346.9389,116.5L354.9237,116.5L354.9237,118ZM366.901,118L358.9162,118L358.9162,116.5L366.901,116.5L366.901,118ZM378.8783,118L370.8935,118L370.8935,116.5L378.8783,116.5L378.8783,118ZM390.8556,118L382.87080000000003,118L382.87080000000003,116.5L390.8556,116.5L390.8556,118ZM402.8329,118L394.8481,118L394.8481,116.5L402.8329,116.5L402.8329,118ZM414.8102,118L406.82529999999997,118L406.82529999999997,116.5L414.8102,116.5L414.8102,118ZM426.788,118L418.803,118L418.803,116.5L426.788,116.5L426.788,118ZM438.765,118L430.78,118L430.78,116.5L438.765,116.5L438.765,118ZM450.74199999999996,118L442.757,118L442.757,116.5L450.74199999999996,116.5L450.74199999999996,118ZM462.719,118L454.735,118L454.735,116.5L462.719,116.5L462.719,118ZM474.697,118L466.712,118L466.712,116.5L474.697,116.5L474.697,118ZM486.674,118L478.68899999999996,118L478.68899999999996,116.5L486.674,116.5L486.674,118ZM498.651,118L490.666,118L490.666,116.5L498.651,116.5L498.651,118ZM510.629,118L502.644,118L502.644,116.5L510.629,116.5L510.629,118ZM522.606,118L514.621,118L514.621,116.5L522.606,116.5L522.606,118ZM534.583,118L526.598,118L526.598,116.5L534.583,116.5L534.583,118ZM546.56,118L538.576,118L538.576,116.5L546.56,116.5L546.56,118ZM558.538,118L550.553,118L550.553,116.5L558.538,116.5L558.538,118ZM570.515,118L562.53,118L562.53,116.5L570.515,116.5L570.515,118ZM582.492,118L574.5070000000001,118L574.5070000000001,116.5L582.492,116.5L582.492,118ZM594.47,118L586.485,118L586.485,116.5L594.47,116.5L594.47,118ZM606.447,118L598.462,118L598.462,116.5L606.447,116.5L606.447,118ZM618.424,118L610.4390000000001,118L610.4390000000001,116.5L618.424,116.5L618.424,118ZM630.4010000000001,118L622.4169999999999,118L622.4169999999999,116.5L630.4010000000001,116.5L630.4010000000001,118ZM642.379,118L634.394,118L634.394,116.5L642.379,116.5L642.379,118ZM654.356,118L646.371,118L646.371,116.5L654.356,116.5L654.356,118ZM666.3330000000001,118L658.348,118L658.348,116.5L666.3330000000001,116.5L666.3330000000001,118ZM678.3109999999999,118L670.326,118L670.326,116.5L678.3109999999999,116.5L678.3109999999999,118ZM690.288,118L682.303,118L682.303,116.5L690.288,116.5L690.288,118ZM702.265,118L694.28,118L694.28,116.5L702.265,116.5L702.265,118ZM714.242,118L706.258,118L706.258,116.5L714.242,116.5L714.242,118ZM726.22,118L718.235,118L718.235,116.5L726.22,116.5L726.22,118ZM738.197,118L730.212,118L730.212,116.5L738.197,116.5L738.197,118ZM750.174,118L742.1890000000001,118L742.1890000000001,116.5L750.174,116.5L750.174,118ZM762.152,118L754.1669999999999,118L754.1669999999999,116.5L762.152,116.5L762.152,118ZM774.129,118L766.144,118L766.144,116.5L774.129,116.5L774.129,118ZM786.106,118L778.121,118L778.121,116.5L786.106,116.5L786.106,118ZM798.0830000000001,118L790.098,118L790.098,116.5L798.0830000000001,116.5L798.0830000000001,118ZM810.0609999999999,118L802.076,118L802.076,116.5L810.0609999999999,116.5L810.0609999999999,118ZM822.038,118L814.053,118L814.053,116.5L822.038,116.5L822.038,118ZM834.015,118L826.03,118L826.03,116.5L834.015,116.5L834.015,118ZM842,102L842,110L840.5,110L840.5,102L842,102ZM842,90L842,98L840.5,98L840.5,90L842,90ZM842,78L842,86L840.5,86L840.5,78L842,78ZM842,66L842,74L840.5,74L840.5,66L842,66ZM842,54L842,62L840.5,62L840.5,54L842,54ZM826.031,46L834.016,46L834.016,47.5L826.031,47.5L826.031,46ZM814.054,46L822.038,46L822.038,47.5L814.054,47.5L814.054,46ZM802.076,46L810.0609999999999,46L810.0609999999999,47.5L802.076,47.5L802.076,46ZM790.0989999999999,46L798.0840000000001,46L798.0840000000001,47.5L790.0989999999999,47.5L790.0989999999999,46ZM778.1220000000001,46L786.107,46L786.107,47.5L778.1220000000001,47.5L778.1220000000001,46ZM766.144,46L774.129,46L774.129,47.5L766.144,47.5L766.144,46ZM754.1669999999999,46L762.152,46L762.152,47.5L754.1669999999999,47.5L754.1669999999999,46ZM742.19,46L750.175,46L750.175,47.5L742.19,47.5L742.19,46ZM730.212,46L738.197,46L738.197,47.5L730.212,47.5L730.212,46ZM718.235,46L726.22,46L726.22,47.5L718.235,47.5L718.235,46ZM706.258,46L714.2429999999999,46L714.2429999999999,47.5L706.258,47.5L706.258,46ZM694.281,46L702.265,46L702.265,47.5L694.281,47.5L694.281,46ZM682.303,46L690.288,46L690.288,47.5L682.303,47.5L682.303,46ZM670.326,46L678.3109999999999,46L678.3109999999999,47.5L670.326,47.5L670.326,46ZM658.3489999999999,46L666.3340000000001,46L666.3340000000001,47.5L658.3489999999999,47.5L658.3489999999999,46ZM646.371,46L654.356,46L654.356,47.5L646.371,47.5L646.371,46ZM634.394,46L642.379,46L642.379,47.5L634.394,47.5L634.394,46ZM622.4169999999999,46L630.402,46L630.402,47.5L622.4169999999999,47.5L622.4169999999999,46ZM610.44,46L618.424,46L618.424,47.5L610.44,47.5L610.44,46ZM598.462,46L606.447,46L606.447,47.5L598.462,47.5L598.462,46ZM586.485,46L594.47,46L594.47,47.5L586.485,47.5L586.485,46ZM574.508,46L582.4929999999999,46L582.4929999999999,47.5L574.508,47.5L574.508,46ZM562.53,46L570.515,46L570.515,47.5L562.53,47.5L562.53,46ZM550.553,46L558.538,46L558.538,47.5L550.553,47.5L550.553,46ZM538.576,46L546.561,46L546.561,47.5L538.576,47.5L538.576,46ZM526.5989999999999,46L534.583,46L534.583,47.5L526.5989999999999,47.5L526.5989999999999,46ZM514.621,46L522.606,46L522.606,47.5L514.621,47.5L514.621,46ZM502.644,46L510.629,46L510.629,47.5L502.644,47.5L502.644,46ZM490.66700000000003,46L498.652,46L498.652,47.5L490.66700000000003,47.5L490.66700000000003,46ZM478.68899999999996,46L486.674,46L486.674,47.5L478.68899999999996,47.5L478.68899999999996,46ZM466.712,46L474.697,46L474.697,47.5L466.712,47.5L466.712,46ZM454.735,46L462.72,46L462.72,47.5L454.735,47.5L454.735,46ZM442.758,46L450.74199999999996,46L450.74199999999996,47.5L442.758,47.5L442.758,46ZM430.78,46L438.765,46L438.765,47.5L430.78,47.5L430.78,46ZM418.803,46L426.788,46L426.788,47.5L418.803,47.5L418.803,46ZM406.8258,46L414.8106,46L414.8106,47.5L406.8258,47.5L406.8258,46ZM394.8485,46L402.8333,46L402.8333,47.5L394.8485,47.5L394.8485,46ZM382.8712,46L390.85609999999997,46L390.85609999999997,47.5L382.8712,47.5L382.8712,46ZM370.89390000000003,46L378.8788,46L378.8788,47.5L370.89390000000003,47.5L370.89390000000003,46ZM358.9167,46L366.9015,46L366.9015,47.5L358.9167,47.5L358.9167,46ZM346.9394,46L354.9242,46L354.9242,47.5L346.9394,47.5L346.9394,46ZM334.9621,46L342.947,46L342.947,47.5L334.9621,47.5L334.9621,46ZM322.98485,46L330.9697,46L330.9697,47.5L322.98485,47.5L322.98485,46ZM318.99242,46L318.99242,47.5L316.5,47.5L316.5,50L315,50L315,46L318.99242,46ZM838.008,46L842,46L842,50L840.5,50L840.5,47.5L838.008,47.5L838.008,46ZM842,114L842,118L838.008,118L838.008,116.5L840.5,116.5L840.5,114L842,114ZM318.99188,118L315,118L315,114L316.5,114L316.5,116.5L318.99188,116.5L318.99188,118Z" fill-rule="evenodd" fill="#DDDDDD" fill-opacity="1"/></g></g></svg>