<svg xmlns="http://www.w3.org/2000/svg" xmlns:xlink="http://www.w3.org/1999/xlink" fill="none" version="1.1" width="842" height="118" viewBox="0 0 842 118"><g style="mix-blend-mode:passthrough"><g style="mix-blend-mode:passthrough"><path d="M107,32L107,37.333330000000004L105.5,37.333330000000004L105.5,32M107,42.6667L107,48L105.5,48L105.5,42.6667M0,48L0,42.6667L1.5,42.6667L1.5,48M0,37.333330000000004L0,32L1.5,32L1.5,37.333330000000004" fill="#DDDDDD" fill-opacity="1"/></g><g style="mix-blend-mode:passthrough"><path d="M527,32L527,37.333330000000004L525.5,37.333330000000004L525.5,32M527,42.6667L527,48L525.5,48L525.5,42.6667M420,48L420,42.6667L421.5,42.6667L421.5,48M420,37.333330000000004L420,32L421.5,32L421.5,37.333330000000004" fill="#DDDDDD" fill-opacity="1"/></g><g style="mix-blend-mode:passthrough"><path d="M211.99993896484375,32L211.99993896484375,37.333330000000004L210.49993896484375,37.333330000000004L210.49993896484375,32M211.99993896484375,42.6667L211.99993896484375,48L210.49993896484375,48L210.49993896484375,42.6667M104.99993896484375,48L104.99993896484375,42.6667L106.49993896484375,42.6667L106.49993896484375,48M104.99993896484375,37.333330000000004L104.99993896484375,32L106.49993896484375,32L106.49993896484375,37.333330000000004" fill="#DDDDDD" fill-opacity="1"/></g><g style="mix-blend-mode:passthrough"><path d="M632,32L632,37.333330000000004L630.5,37.333330000000004L630.5,32M632,42.6667L632,48L630.5,48L630.5,42.6667M525,48L525,42.6667L526.5,42.6667L526.5,48M525,37.333330000000004L525,32L526.5,32L526.5,37.333330000000004" fill="#DDDDDD" fill-opacity="1"/></g><g style="mix-blend-mode:passthrough"><path d="M317,32L317,37.333330000000004L315.5,37.333330000000004L315.5,32M317,42.6667L317,48L315.5,48L315.5,42.6667M210,48L210,42.6667L211.5,42.6667L211.5,48M210,37.333330000000004L210,32L211.5,32L211.5,37.333330000000004" fill="#DDDDDD" fill-opacity="1"/></g><g style="mix-blend-mode:passthrough"><path d="M737,32L737,37.333330000000004L735.5,37.333330000000004L735.5,32M737,42.6667L737,48L735.5,48L735.5,42.6667M630,48L630,42.6667L631.5,42.6667L631.5,48M630,37.333330000000004L630,32L631.5,32L631.5,37.333330000000004" fill="#DDDDDD" fill-opacity="1"/></g><g style="mix-blend-mode:passthrough"><path d="M422,32L422,37.333330000000004L420.5,37.333330000000004L420.5,32M422,42.6667L422,48L420.5,48L420.5,42.6667M315,48L315,42.6667L316.5,42.6667L316.5,48M315,37.333330000000004L315,32L316.5,32L316.5,37.333330000000004" fill="#DDDDDD" fill-opacity="1"/></g><g style="mix-blend-mode:passthrough"><path d="M57.8125,11.2734Q57.8125,14.6836,56.69336,16.4355Q55.58008,18.1875,53.49414,18.1875Q51.41992,18.1875,50.30078,16.4297Q49.1875,14.666,49.1875,11.2734Q49.1875,7.85742,50.30078,6.08789Q51.41992,4.3125,53.49414,4.3125Q55.58008,4.3125,56.69336,6.07617Q57.8125,7.83984,57.8125,11.2734ZM50.80469,11.2793Q50.80469,14.0273,51.45508,15.375Q52.11133,16.7168,53.49414,16.7168Q54.87109,16.7168,55.5332,15.3809Q56.19531,14.0449,56.19531,11.2793Q56.19531,8.49609,55.5332,7.14258Q54.87109,5.7832,53.49414,5.7832Q52.11133,5.7832,51.45508,7.14258Q50.80469,8.49609,50.80469,11.2793Z" fill="#DDDDDD" fill-opacity="1"/></g><g style="mix-blend-mode:passthrough"><path d="M476.6875,9.75L476.6875,13.5293L478.5625,13.5293L478.5625,15L476.6875,15L476.6875,18L475.07031,18L475.07031,15L469.1875,15L469.1875,13.8164L474.17969,4.5L475.94336,4.5L471.07422,13.5293L475.07031,13.5293L475.07031,9.75L476.6875,9.75Z" fill="#DDDDDD" fill-opacity="1"/></g><g style="mix-blend-mode:passthrough"><path d="M155.3125,8.47852L155.3125,6.78516L159.08008,4.5L160.30469,4.5L160.30469,18L158.6875,18L158.6875,6.46875L155.3125,8.47852Z" fill="#DDDDDD" fill-opacity="1"/></g><g style="mix-blend-mode:passthrough"><path d="M578.59375,9.4043Q579.74805,9.4043,580.65039,9.9668Q581.55859,10.5293,582.05664,11.5137Q582.55469,12.4922,582.55469,13.7402Q582.55469,15.0527,581.99805,16.0605Q581.44727,17.0684,580.48633,17.6309Q579.52539,18.1875,578.34766,18.1875Q577.04688,18.1875,576.03906,17.5254Q575.03125,16.8574,574.63867,15.5684L575.93359,14.8125Q576.25586,15.7559,576.87695,16.2363Q577.49805,16.7168,578.38281,16.7168Q579.57227,16.7168,580.25195,15.9023Q580.9375,15.0879,580.9375,13.8164Q580.9375,12.5801,580.28125,11.7305Q579.625,10.875,578.38281,10.875Q576.81836,10.875,575.93359,12.334L574.9082,11.8008L575.81055,4.5L581.99219,4.5L581.99219,5.9707L577.21094,5.9707L576.68945,9.91406Q577.46875,9.4043,578.59375,9.4043Z" fill="#DDDDDD" fill-opacity="1"/></g><g style="mix-blend-mode:passthrough"><path d="M261.63672,16.5293L267.4375,16.5293L267.4375,18L259.1875,18L259.1875,16.9395L263.45898,12.0879Q264.66016,10.7285,265.11133,9.94922Q265.5625,9.16992,265.5625,8.24414Q265.5625,7.06641,264.92969,6.42773Q264.30273,5.7832,263.34766,5.7832Q262.375,5.7832,261.63672,6.45703Q260.89844,7.125,260.57617,8.22656L259.27539,7.4707Q259.66797,5.9707,260.82812,5.14453Q261.98828,4.3125,263.41797,4.3125Q264.44922,4.3125,265.30469,4.76367Q266.16602,5.21484,266.66992,6.08789Q267.17969,6.95508,267.17969,8.17969Q267.17969,9.375,266.61133,10.4414Q266.04297,11.5078,264.61914,13.1191L261.63672,16.5293Z" fill="#DDDDDD" fill-opacity="1"/></g><g style="mix-blend-mode:passthrough"><path d="M683.96289,9.75Q685.11719,9.75,686.01953,10.3125Q686.92188,10.8691,687.42578,11.8301Q687.92969,12.7852,687.92969,13.9453Q687.92969,15.1348,687.39062,16.1133Q686.85742,17.0859,685.89062,17.6367Q684.92969,18.1875,683.74609,18.1875Q682.52734,18.1875,681.57227,17.6367Q680.61719,17.0859,680.08984,16.0957Q679.5625,15.0996,679.5625,13.8281Q679.5625,12.832,679.9082,11.9941Q680.25391,11.1562,681.05078,9.79688L684.15625,4.5L685.98438,4.5L683.24805,9.1582Q682.99023,9.57422,682.73828,9.93164Q683.28906,9.75,683.96289,9.75ZM683.75781,16.7168Q684.91797,16.7168,685.61523,15.9551Q686.3125,15.1934,686.3125,13.9805Q686.3125,12.7559,685.62109,11.9883Q684.93555,11.2207,683.75781,11.2207Q682.57422,11.2207,681.87695,11.9883Q681.17969,12.7559,681.17969,13.9805Q681.17969,15.2109,681.87695,15.9668Q682.57422,16.7168,683.75781,16.7168Z" fill="#DDDDDD" fill-opacity="1"/></g><g style="mix-blend-mode:passthrough"><path d="M370.39844,10.7227Q371.61719,11.1094,372.21484,11.9824Q372.8125,12.8555,372.8125,14.1387Q372.8125,15.3984,372.23242,16.3242Q371.6582,17.2441,370.69141,17.7188Q369.73047,18.1875,368.58789,18.1875Q367.14062,18.1875,365.91602,17.4316Q364.69141,16.6699,364.26953,15.2168L365.56445,14.4492Q365.92188,15.5684,366.7832,16.1426Q367.64453,16.7168,368.64062,16.7168Q369.73633,16.7168,370.46289,16.0371Q371.19531,15.3516,371.19531,14.1328Q371.19531,11.625,367.76758,11.625L367.1875,11.625L367.1875,10.1543L367.82617,10.1543Q369.16797,10.1543,369.86523,9.50391Q370.5625,8.85352,370.5625,7.83398Q370.5625,6.87305,369.9707,6.32812Q369.37891,5.7832,368.43555,5.7832Q367.46289,5.7832,366.7832,6.36328Q366.10938,6.94336,365.74609,8.0332L364.45117,7.28906Q364.87891,5.81836,365.95117,5.06836Q367.0293,4.3125,368.47656,4.3125Q370.15234,4.3125,371.16602,5.27344Q372.17969,6.23438,372.17969,7.79883Q372.17969,8.79492,371.74023,9.5625Q371.30664,10.3242,370.39844,10.7227Z" fill="#DDDDDD" fill-opacity="1"/></g><g style="mix-blend-mode:passthrough"><path d="M842,32L842,37.333330000000004L840.5,37.333330000000004L840.5,32M842,42.6667L842,48L840.5,48L840.5,42.6667M735,48L735,42.6667L736.5,42.6667L736.5,48M735,37.333330000000004L735,32L736.5,32L736.5,37.333330000000004" fill="#DDDDDD" fill-opacity="1"/></g><g style="mix-blend-mode:passthrough"><path d="M790.98438,5.9707L784.5625,5.9707L784.5625,4.5L792.8125,4.5L792.8125,5.54883L787.85547,18L786.08008,18L790.98438,5.9707Z" fill="#DDDDDD" fill-opacity="1"/></g><g style="mix-blend-mode:passthrough"><g style="mix-blend-mode:passthrough"><path d="M57.8125,81.2734Q57.8125,84.6836,56.69336,86.4355Q55.58008,88.1875,53.49414,88.1875Q51.41992,88.1875,50.30078,86.4297Q49.1875,84.666,49.1875,81.2734Q49.1875,77.85742,50.30078,76.08789Q51.41992,74.3125,53.49414,74.3125Q55.58008,74.3125,56.69336,76.07617Q57.8125,77.83984,57.8125,81.2734ZM50.80469,81.2793Q50.80469,84.0273,51.45508,85.375Q52.11133,86.7168,53.49414,86.7168Q54.87109,86.7168,55.5332,85.3809Q56.19531,84.0449,56.19531,81.2793Q56.19531,78.49609,55.5332,77.14258Q54.87109,75.7832,53.49414,75.7832Q52.11133,75.7832,51.45508,77.14258Q50.80469,78.49609,50.80469,81.2793Z" fill="#DDDDDD" fill-opacity="1"/></g><path d="M0,62L0,54L1.5,54L1.5,62L0,62ZM0,74L0,66L1.5,66L1.5,74L0,74ZM0,86L0,78L1.5,78L1.5,86L0,86ZM0,98L0,90L1.5,90L1.5,98L0,98ZM0,110L0,102L1.5,102L1.5,110L0,110ZM15.8519,118L7.92593,118L7.92593,116.5L15.8519,116.5L15.8519,118ZM27.7407,118L19.8148,118L19.8148,116.5L27.7407,116.5L27.7407,118ZM39.6296,118L31.7037,118L31.7037,116.5L39.6296,116.5L39.6296,118ZM51.5185,118L43.5926,118L43.5926,116.5L51.5185,116.5L51.5185,118ZM63.4074,118L55.4815,118L55.4815,116.5L63.4074,116.5L63.4074,118ZM75.2963,118L67.3704,118L67.3704,116.5L75.2963,116.5L75.2963,118ZM87.1852,118L79.2593,118L79.2593,116.5L87.1852,116.5L87.1852,118ZM99.0741,118L91.1481,118L91.1481,116.5L99.0741,116.5L99.0741,118ZM107,102L107,110L105.5,110L105.5,102L107,102ZM107,90L107,98L105.5,98L105.5,90L107,90ZM107,78L107,86L105.5,86L105.5,78L107,78ZM107,66L107,74L105.5,74L105.5,66L107,66ZM107,54L107,62L105.5,62L105.5,54L107,54ZM91.1481,46L99.0741,46L99.0741,47.5L91.1481,47.5L91.1481,46ZM79.2593,46L87.1852,46L87.1852,47.5L79.2593,47.5L79.2593,46ZM67.3704,46L75.2963,46L75.2963,47.5L67.3704,47.5L67.3704,46ZM55.4815,46L63.4074,46L63.4074,47.5L55.4815,47.5L55.4815,46ZM43.5926,46L51.5185,46L51.5185,47.5L43.5926,47.5L43.5926,46ZM31.7037,46L39.6296,46L39.6296,47.5L31.7037,47.5L31.7037,46ZM19.8148,46L27.7407,46L27.7407,47.5L19.8148,47.5L19.8148,46ZM7.92593,46L15.8519,46L15.8519,47.5L7.92593,47.5L7.92593,46ZM3.96296,46L3.96296,47.5L1.5,47.5L1.5,50L0,50L0,46L3.96296,46ZM103.037,46L107,46L107,50L105.5,50L105.5,47.5L103.037,47.5L103.037,46ZM107,114L107,118L103.037,118L103.037,116.5L105.5,116.5L105.5,114L107,114ZM3.96297,118L0,118L0,114L1.5,114L1.5,116.5L3.96297,116.5L3.96297,118Z" fill-rule="evenodd" fill="#DDDDDD" fill-opacity="1"/></g><g style="mix-blend-mode:passthrough"><g style="mix-blend-mode:passthrough"><path d="M162.81243896484375,81.2734Q162.81243896484375,84.6836,161.69329896484376,86.4355Q160.58001896484376,88.1875,158.49407896484374,88.1875Q156.41985896484374,88.1875,155.30071896484375,86.4297Q154.18743896484375,84.666,154.18743896484375,81.2734Q154.18743896484375,77.85742,155.30071896484375,76.08789Q156.41985896484374,74.3125,158.49407896484374,74.3125Q160.58001896484376,74.3125,161.69329896484376,76.07617Q162.81243896484375,77.83984,162.81243896484375,81.2734ZM155.80462896484374,81.2793Q155.80462896484374,84.0273,156.45501896484376,85.375Q157.11126896484376,86.7168,158.49407896484374,86.7168Q159.87102896484376,86.7168,160.53313896484374,85.3809Q161.19524896484376,84.0449,161.19524896484376,81.2793Q161.19524896484376,78.49609,160.53313896484374,77.14258Q159.87102896484376,75.7832,158.49407896484374,75.7832Q157.11126896484376,75.7832,156.45501896484376,77.14258Q155.80462896484374,78.49609,155.80462896484374,81.2793Z" fill="#DDDDDD" fill-opacity="1"/></g><path d="M104.99993896484375,62L104.99993896484375,54L106.49993896484375,54L106.49993896484375,62L104.99993896484375,62ZM104.99993896484375,74L104.99993896484375,66L106.49993896484375,66L106.49993896484375,74L104.99993896484375,74ZM104.99993896484375,86L104.99993896484375,78L106.49993896484375,78L106.49993896484375,86L104.99993896484375,86ZM104.99993896484375,98L104.99993896484375,90L106.49993896484375,90L106.49993896484375,98L104.99993896484375,98ZM104.99993896484375,110L104.99993896484375,102L106.49993896484375,102L106.49993896484375,110L104.99993896484375,110ZM120.85183896484375,118L112.92586896484374,118L112.92586896484374,116.5L120.85183896484375,116.5L120.85183896484375,118ZM132.74063896484375,118L124.81473896484376,118L124.81473896484376,116.5L132.74063896484375,116.5L132.74063896484375,118ZM144.62953896484376,118L136.70363896484375,118L136.70363896484375,116.5L144.62953896484376,116.5L144.62953896484376,118ZM156.51843896484377,118L148.59253896484375,118L148.59253896484375,116.5L156.51843896484377,116.5L156.51843896484377,118ZM168.40733896484375,118L160.48143896484373,118L160.48143896484373,116.5L168.40733896484375,116.5L168.40733896484375,118ZM180.29623896484375,118L172.37033896484377,118L172.37033896484377,116.5L180.29623896484375,116.5L180.29623896484375,118ZM192.18513896484376,118L184.25923896484375,118L184.25923896484375,116.5L192.18513896484376,116.5L192.18513896484376,118ZM204.07403896484374,118L196.14803896484375,118L196.14803896484375,116.5L204.07403896484374,116.5L204.07403896484374,118ZM211.99993896484375,102L211.99993896484375,110L210.49993896484375,110L210.49993896484375,102L211.99993896484375,102ZM211.99993896484375,90L211.99993896484375,98L210.49993896484375,98L210.49993896484375,90L211.99993896484375,90ZM211.99993896484375,78L211.99993896484375,86L210.49993896484375,86L210.49993896484375,78L211.99993896484375,78ZM211.99993896484375,66L211.99993896484375,74L210.49993896484375,74L210.49993896484375,66L211.99993896484375,66ZM211.99993896484375,54L211.99993896484375,62L210.49993896484375,62L210.49993896484375,54L211.99993896484375,54ZM196.14803896484375,46L204.07403896484374,46L204.07403896484374,47.5L196.14803896484375,47.5L196.14803896484375,46ZM184.25923896484375,46L192.18513896484376,46L192.18513896484376,47.5L184.25923896484375,47.5L184.25923896484375,46ZM172.37033896484377,46L180.29623896484375,46L180.29623896484375,47.5L172.37033896484377,47.5L172.37033896484377,46ZM160.48143896484373,46L168.40733896484375,46L168.40733896484375,47.5L160.48143896484373,47.5L160.48143896484373,46ZM148.59253896484375,46L156.51843896484377,46L156.51843896484377,47.5L148.59253896484375,47.5L148.59253896484375,46ZM136.70363896484375,46L144.62953896484376,46L144.62953896484376,47.5L136.70363896484375,47.5L136.70363896484375,46ZM124.81473896484376,46L132.74063896484375,46L132.74063896484375,47.5L124.81473896484376,47.5L124.81473896484376,46ZM112.92586896484374,46L120.85183896484375,46L120.85183896484375,47.5L112.92586896484374,47.5L112.92586896484374,46ZM108.96289896484375,46L108.96289896484375,47.5L106.49993896484375,47.5L106.49993896484375,50L104.99993896484375,50L104.99993896484375,46L108.96289896484375,46ZM208.03693896484376,46L211.99993896484375,46L211.99993896484375,50L210.49993896484375,50L210.49993896484375,47.5L208.03693896484376,47.5L208.03693896484376,46ZM211.99993896484375,114L211.99993896484375,118L208.03693896484376,118L208.03693896484376,116.5L210.49993896484375,116.5L210.49993896484375,114L211.99993896484375,114ZM108.96290896484375,118L104.99993896484375,118L104.99993896484375,114L106.49993896484375,114L106.49993896484375,116.5L108.96290896484375,116.5L108.96290896484375,118Z" fill-rule="evenodd" fill="#DDDDDD" fill-opacity="1"/></g><g style="mix-blend-mode:passthrough"><g style="mix-blend-mode:passthrough"><path d="M267.8125,81.2734Q267.8125,84.6836,266.69336,86.4355Q265.58008,88.1875,263.49414,88.1875Q261.41992,88.1875,260.30078,86.4297Q259.1875,84.666,259.1875,81.2734Q259.1875,77.85742,260.30078,76.08789Q261.41992,74.3125,263.49414,74.3125Q265.58008,74.3125,266.69336,76.07617Q267.8125,77.83984,267.8125,81.2734ZM260.80469,81.2793Q260.80469,84.0273,261.45508,85.375Q262.11133,86.7168,263.49414,86.7168Q264.87109,86.7168,265.5332,85.3809Q266.19531,84.0449,266.19531,81.2793Q266.19531,78.49609,265.5332,77.14258Q264.87109,75.7832,263.49414,75.7832Q262.11133,75.7832,261.45508,77.14258Q260.80469,78.49609,260.80469,81.2793Z" fill="#DDDDDD" fill-opacity="1"/></g><path d="M210,62L210,54L211.5,54L211.5,62L210,62ZM210,74L210,66L211.5,66L211.5,74L210,74ZM210,86L210,78L211.5,78L211.5,86L210,86ZM210,98L210,90L211.5,90L211.5,98L210,98ZM210,110L210,102L211.5,102L211.5,110L210,110ZM225.8519,118L217.92593,118L217.92593,116.5L225.8519,116.5L225.8519,118ZM237.7407,118L229.8148,118L229.8148,116.5L237.7407,116.5L237.7407,118ZM249.6296,118L241.7037,118L241.7037,116.5L249.6296,116.5L249.6296,118ZM261.5185,118L253.5926,118L253.5926,116.5L261.5185,116.5L261.5185,118ZM273.4074,118L265.4815,118L265.4815,116.5L273.4074,116.5L273.4074,118ZM285.2963,118L277.3704,118L277.3704,116.5L285.2963,116.5L285.2963,118ZM297.1852,118L289.2593,118L289.2593,116.5L297.1852,116.5L297.1852,118ZM309.0741,118L301.1481,118L301.1481,116.5L309.0741,116.5L309.0741,118ZM317,102L317,110L315.5,110L315.5,102L317,102ZM317,90L317,98L315.5,98L315.5,90L317,90ZM317,78L317,86L315.5,86L315.5,78L317,78ZM317,66L317,74L315.5,74L315.5,66L317,66ZM317,54L317,62L315.5,62L315.5,54L317,54ZM301.1481,46L309.0741,46L309.0741,47.5L301.1481,47.5L301.1481,46ZM289.2593,46L297.1852,46L297.1852,47.5L289.2593,47.5L289.2593,46ZM277.3704,46L285.2963,46L285.2963,47.5L277.3704,47.5L277.3704,46ZM265.4815,46L273.4074,46L273.4074,47.5L265.4815,47.5L265.4815,46ZM253.5926,46L261.5185,46L261.5185,47.5L253.5926,47.5L253.5926,46ZM241.7037,46L249.6296,46L249.6296,47.5L241.7037,47.5L241.7037,46ZM229.8148,46L237.7407,46L237.7407,47.5L229.8148,47.5L229.8148,46ZM217.92593,46L225.8519,46L225.8519,47.5L217.92593,47.5L217.92593,46ZM213.96296,46L213.96296,47.5L211.5,47.5L211.5,50L210,50L210,46L213.96296,46ZM313.03700000000003,46L317,46L317,50L315.5,50L315.5,47.5L313.03700000000003,47.5L313.03700000000003,46ZM317,114L317,118L313.03700000000003,118L313.03700000000003,116.5L315.5,116.5L315.5,114L317,114ZM213.96297,118L210,118L210,114L211.5,114L211.5,116.5L213.96297,116.5L213.96297,118Z" fill-rule="evenodd" fill="#DDDDDD" fill-opacity="1"/></g><g style="mix-blend-mode:passthrough"><g style="mix-blend-mode:passthrough"><path d="M365.3125,78.47852L365.3125,76.78516L369.08008,74.5L370.30469,74.5L370.30469,88L368.6875,88L368.6875,76.46875L365.3125,78.47852Z" fill="#DDDDDD" fill-opacity="1"/></g><path d="M315,62L315,54L316.5,54L316.5,62L315,62ZM315,74L315,66L316.5,66L316.5,74L315,74ZM315,86L315,78L316.5,78L316.5,86L315,86ZM315,98L315,90L316.5,90L316.5,98L315,98ZM315,110L315,102L316.5,102L316.5,110L315,110ZM330.8519,118L322.92593,118L322.92593,116.5L330.8519,116.5L330.8519,118ZM342.7407,118L334.8148,118L334.8148,116.5L342.7407,116.5L342.7407,118ZM354.6296,118L346.7037,118L346.7037,116.5L354.6296,116.5L354.6296,118ZM366.5185,118L358.5926,118L358.5926,116.5L366.5185,116.5L366.5185,118ZM378.4074,118L370.4815,118L370.4815,116.5L378.4074,116.5L378.4074,118ZM390.2963,118L382.3704,118L382.3704,116.5L390.2963,116.5L390.2963,118ZM402.1852,118L394.2593,118L394.2593,116.5L402.1852,116.5L402.1852,118ZM414.0741,118L406.1481,118L406.1481,116.5L414.0741,116.5L414.0741,118ZM422,102L422,110L420.5,110L420.5,102L422,102ZM422,90L422,98L420.5,98L420.5,90L422,90ZM422,78L422,86L420.5,86L420.5,78L422,78ZM422,66L422,74L420.5,74L420.5,66L422,66ZM422,54L422,62L420.5,62L420.5,54L422,54ZM406.1481,46L414.0741,46L414.0741,47.5L406.1481,47.5L406.1481,46ZM394.2593,46L402.1852,46L402.1852,47.5L394.2593,47.5L394.2593,46ZM382.3704,46L390.2963,46L390.2963,47.5L382.3704,47.5L382.3704,46ZM370.4815,46L378.4074,46L378.4074,47.5L370.4815,47.5L370.4815,46ZM358.5926,46L366.5185,46L366.5185,47.5L358.5926,47.5L358.5926,46ZM346.7037,46L354.6296,46L354.6296,47.5L346.7037,47.5L346.7037,46ZM334.8148,46L342.7407,46L342.7407,47.5L334.8148,47.5L334.8148,46ZM322.92593,46L330.8519,46L330.8519,47.5L322.92593,47.5L322.92593,46ZM318.96296,46L318.96296,47.5L316.5,47.5L316.5,50L315,50L315,46L318.96296,46ZM418.03700000000003,46L422,46L422,50L420.5,50L420.5,47.5L418.03700000000003,47.5L418.03700000000003,46ZM422,114L422,118L418.03700000000003,118L418.03700000000003,116.5L420.5,116.5L420.5,114L422,114ZM318.96297,118L315,118L315,114L316.5,114L316.5,116.5L318.96297,116.5L318.96297,118Z" fill-rule="evenodd" fill="#DDDDDD" fill-opacity="1"/></g><g style="mix-blend-mode:passthrough"><g style="mix-blend-mode:passthrough"><path d="M599.4766,84.5078Q597.9473,84.5957,594.88281,84.7422L594.88281,87.0566Q594.88281,88.1641,594.48438,88.6211Q594.08594,89.084,593.22461,89.125Q592.44531,89.1426,591.33789,89.0488L591.08594,87.7422Q591.23242,87.7598,591.76562,87.8301Q592.29883,87.9004,592.76758,87.9004Q593.13086,87.9004,593.29492,87.6016Q593.45898,87.2969,593.45898,86.6758L593.45898,84.8301L588.91797,85.0469L587.01953,85.1523L586.80273,83.875Q588.19727,83.875,588.58984,83.7461Q590.61133,83.0898,593.20117,81.6602Q591.75391,81.7656,589.14648,81.9473L587.91602,82.0469L587.72266,81.0508Q588.73633,80.9629,589.09375,80.8164Q590.23633,80.3535,592.78516,78.38477L588.0625,78.38477L588.0625,80.3652L586.58594,80.3652L586.58594,77.125L593.3125,77.125L593.3125,75.625L587.01953,75.625L587.01953,74.36523L593.3125,74.36523L593.3125,72.87109L594.73633,72.87109L594.73633,74.36523L601.123,74.36523L601.123,75.625L594.73633,75.625L594.73633,77.125L601.5391,77.125L601.5391,80.4004L600.0625,80.4004L600.0625,78.38477L594.68359,78.38477Q593.99805,78.95898,593.02539,79.67383Q592.05859,80.3828,591.35547,80.8516L595.1816,80.541Q596.752,79.5918,597.6719,78.94141L598.457,80.0078Q596.3887,81.3789,594.89453,82.2578Q593.40039,83.1309,591.93555,83.6992L598.2402,83.3184Q597.4141,82.5508,597.0508,82.252L597.9824,81.373Q600.2852,83.4473,601.4277,84.7188L600.5664,85.6504Q600.3496,85.3984,599.7695,84.7949Q599.7695,84.7949,599.4766,84.5078ZM591.32031,86.3301Q590.27734,87.0449,588.92969,87.7656Q587.58203,88.4863,586.29883,89.0371L585.742188,87.7246Q586.97266,87.2441,588.34961,86.5293Q589.73242,85.8086,590.63477,85.1523L591.32031,86.3301ZM596.9219,85.1348Q598.2109,85.75,601.3691,87.332L602.2012,87.7422L601.5742,88.9961Q600.6836,88.498,599.0137,87.6719Q597.3438,86.8398,596.2715,86.3418L596.9219,85.1348ZM616.9082,72.97656L618.4375,72.97656L618.4375,89.125L616.9082,89.125L616.9082,72.97656ZM613.1875,73.75L613.1875,79.24609L606.9414,79.24609L606.7305,81.625L613.2812,81.625Q613.2637,83.8574,612.9355,86.4062Q612.7949,87.502,612.4785,88.0703Q612.1621,88.6445,611.5117,88.8848Q610.8672,89.125,609.7188,89.125Q608.418,89.125,606.8887,88.9434L606.6016,87.5078Q608.3301,87.7715,609.6426,87.7715Q610.5098,87.7715,610.9023,87.3789Q611.3008,86.9863,611.4414,85.9961Q611.6758,84.4023,611.752,83.0254L605.1074,83.0254L605.541,77.875L611.6582,77.875L611.6582,75.13867L605.125,75.13867L605.125,73.75L613.1875,73.75ZM633.0332,81.3379Q633.0332,78.79492,633.877,76.64453Q634.7266,74.49414,636.2031,73L637.6562,73Q636.2031,74.76367,635.418,76.80859Q634.6328,78.85352,634.6328,81.3379Q634.6328,83.8398,635.418,85.8906Q636.2031,87.9414,637.6562,89.6699L636.2031,89.6699Q634.7266,88.1758,633.877,86.0371Q633.0332,83.8926,633.0332,81.3379ZM647.3125,79.75L647.3125,83.5293L649.1875,83.5293L649.1875,85L647.3125,85L647.3125,88L645.6953,88L645.6953,85L639.8125,85L639.8125,83.8164L644.8047,74.5L646.5684,74.5L641.6992,83.5293L645.6953,83.5293L645.6953,79.75L647.3125,79.75ZM653.3125,77.125L654.8125,77.125L654.8125,80.875L658.1875,80.875L658.1875,82.3457L654.8125,82.3457L654.8125,85.75L653.3125,85.75L653.3125,82.3457L649.9375,82.3457L649.9375,80.875L653.3125,80.875L653.3125,77.125ZM664.9668,81.3379Q664.9668,83.875,664.1172,86.0254Q663.2734,88.1758,661.7969,89.6699L660.3438,89.6699Q661.7969,87.9062,662.582,85.8672Q663.3672,83.8223,663.3672,81.3379Q663.3672,78.83594,662.582,76.78516Q661.7969,74.72852,660.3438,73L661.7969,73Q663.2734,74.49414,664.1172,76.63867Q664.9668,78.77734,664.9668,81.3379Z" fill="#DDDDDD" fill-opacity="1"/></g><path d="M420,62L420,54L421.5,54L421.5,62L420,62ZM420,74L420,66L421.5,66L421.5,74L420,74ZM420,86L420,78L421.5,78L421.5,86L420,86ZM420,98L420,90L421.5,90L421.5,98L420,98ZM420,110L420,102L421.5,102L421.5,110L420,110ZM436.0764,118L428.03827,118L428.03827,116.5L436.0764,116.5L436.0764,118ZM448.1335,118L440.0954,118L440.0954,116.5L448.1335,116.5L448.1335,118ZM460.1906,118L452.15250000000003,118L452.15250000000003,116.5L460.1906,116.5L460.1906,118ZM472.2477,118L464.2097,118L464.2097,116.5L472.2477,116.5L472.2477,118ZM484.3049,118L476.2668,118L476.2668,116.5L484.3049,116.5L484.3049,118ZM496.36199999999997,118L488.3239,118L488.3239,116.5L496.36199999999997,116.5L496.36199999999997,118ZM508.4191,118L500.381,118L500.381,116.5L508.4191,116.5L508.4191,118ZM520.476,118L512.4382,118L512.4382,116.5L520.476,116.5L520.476,118ZM532.533,118L524.495,118L524.495,116.5L532.533,116.5L532.533,118ZM544.591,118L536.552,118L536.552,116.5L544.591,116.5L544.591,118ZM556.648,118L548.61,118L548.61,116.5L556.648,116.5L556.648,118ZM568.705,118L560.667,118L560.667,116.5L568.705,116.5L568.705,118ZM580.762,118L572.7239999999999,118L572.7239999999999,116.5L580.762,116.5L580.762,118ZM592.819,118L584.781,118L584.781,116.5L592.819,116.5L592.819,118ZM604.876,118L596.838,118L596.838,116.5L604.876,116.5L604.876,118ZM616.933,118L608.895,118L608.895,116.5L616.933,116.5L616.933,118ZM628.99,118L620.952,118L620.952,116.5L628.99,116.5L628.99,118ZM641.048,118L633.01,118L633.01,116.5L641.048,116.5L641.048,118ZM653.105,118L645.067,118L645.067,116.5L653.105,116.5L653.105,118ZM665.162,118L657.124,118L657.124,116.5L665.162,116.5L665.162,118ZM677.219,118L669.181,118L669.181,116.5L677.219,116.5L677.219,118ZM689.2760000000001,118L681.238,118L681.238,116.5L689.2760000000001,116.5L689.2760000000001,118ZM701.3330000000001,118L693.2950000000001,118L693.2950000000001,116.5L701.3330000000001,116.5L701.3330000000001,118ZM713.39,118L705.352,118L705.352,116.5L713.39,116.5L713.39,118ZM725.448,118L717.4100000000001,118L717.4100000000001,116.5L725.448,116.5L725.448,118ZM737.505,118L729.467,118L729.467,116.5L737.505,116.5L737.505,118ZM749.562,118L741.524,118L741.524,116.5L749.562,116.5L749.562,118ZM761.619,118L753.581,118L753.581,116.5L761.619,116.5L761.619,118ZM773.6759999999999,118L765.6379999999999,118L765.6379999999999,116.5L773.6759999999999,116.5L773.6759999999999,118ZM785.733,118L777.6949999999999,118L777.6949999999999,116.5L785.733,116.5L785.733,118ZM797.79,118L789.752,118L789.752,116.5L797.79,116.5L797.79,118ZM809.848,118L801.81,118L801.81,116.5L809.848,116.5L809.848,118ZM821.905,118L813.867,118L813.867,116.5L821.905,116.5L821.905,118ZM833.962,118L825.924,118L825.924,116.5L833.962,116.5L833.962,118ZM842,102L842,110L840.5,110L840.5,102L842,102ZM842,90L842,98L840.5,98L840.5,90L842,90ZM842,78L842,86L840.5,86L840.5,78L842,78ZM842,66L842,74L840.5,74L840.5,66L842,66ZM842,54L842,62L840.5,62L840.5,54L842,54ZM825.924,46L833.962,46L833.962,47.5L825.924,47.5L825.924,46ZM813.867,46L821.905,46L821.905,47.5L813.867,47.5L813.867,46ZM801.809,46L809.847,46L809.847,47.5L801.809,47.5L801.809,46ZM789.752,46L797.79,46L797.79,47.5L789.752,47.5L789.752,46ZM777.6949999999999,46L785.733,46L785.733,47.5L777.6949999999999,47.5L777.6949999999999,46ZM765.6379999999999,46L773.6759999999999,46L773.6759999999999,47.5L765.6379999999999,47.5L765.6379999999999,46ZM753.581,46L761.619,46L761.619,47.5L753.581,47.5L753.581,46ZM741.524,46L749.562,46L749.562,47.5L741.524,47.5L741.524,46ZM729.467,46L737.505,46L737.505,47.5L729.467,47.5L729.467,46ZM717.409,46L725.448,46L725.448,47.5L717.409,47.5L717.409,46ZM705.352,46L713.39,46L713.39,47.5L705.352,47.5L705.352,46ZM693.2950000000001,46L701.3330000000001,46L701.3330000000001,47.5L693.2950000000001,47.5L693.2950000000001,46ZM681.238,46L689.2760000000001,46L689.2760000000001,47.5L681.238,47.5L681.238,46ZM669.181,46L677.219,46L677.219,47.5L669.181,47.5L669.181,46ZM657.124,46L665.162,46L665.162,47.5L657.124,47.5L657.124,46ZM645.067,46L653.105,46L653.105,47.5L645.067,47.5L645.067,46ZM633.01,46L641.048,46L641.048,47.5L633.01,47.5L633.01,46ZM620.952,46L628.99,46L628.99,47.5L620.952,47.5L620.952,46ZM608.895,46L616.933,46L616.933,47.5L608.895,47.5L608.895,46ZM596.838,46L604.876,46L604.876,47.5L596.838,47.5L596.838,46ZM584.781,46L592.819,46L592.819,47.5L584.781,47.5L584.781,46ZM572.7239999999999,46L580.762,46L580.762,47.5L572.7239999999999,47.5L572.7239999999999,46ZM560.667,46L568.705,46L568.705,47.5L560.667,47.5L560.667,46ZM548.61,46L556.648,46L556.648,47.5L548.61,47.5L548.61,46ZM536.552,46L544.59,46L544.59,47.5L536.552,47.5L536.552,46ZM524.495,46L532.533,46L532.533,47.5L524.495,47.5L524.495,46ZM512.4381,46L520.476,46L520.476,47.5L512.4381,47.5L512.4381,46ZM500.381,46L508.4191,46L508.4191,47.5L500.381,47.5L500.381,46ZM488.3238,46L496.3619,46L496.3619,47.5L488.3238,47.5L488.3238,46ZM476.2667,46L484.3048,46L484.3048,47.5L476.2667,47.5L476.2667,46ZM464.2095,46L472.2476,46L472.2476,47.5L464.2095,47.5L464.2095,46ZM452.1524,46L460.1905,46L460.1905,47.5L452.1524,47.5L452.1524,46ZM440.0952,46L448.1333,46L448.1333,47.5L440.0952,47.5L440.0952,46ZM428.0381,46L436.0762,46L436.0762,47.5L428.0381,47.5L428.0381,46ZM424.01905,46L424.01905,47.5L421.5,47.5L421.5,50L420,50L420,46L424.01905,46ZM837.981,46L842,46L842,50L840.5,50L840.5,47.5L837.981,47.5L837.981,46ZM842,114L842,118L837.981,118L837.981,116.5L840.5,116.5L840.5,114L842,114ZM424.01923,118L420,118L420,114L421.5,114L421.5,116.5L424.01923,116.5L424.01923,118Z" fill-rule="evenodd" fill="#DDDDDD" fill-opacity="1"/></g></g></svg>