<svg xmlns="http://www.w3.org/2000/svg" xmlns:xlink="http://www.w3.org/1999/xlink" fill="none" version="1.1" width="842" height="300" viewBox="0 0 842 300"><g style="mix-blend-mode:passthrough"><g style="mix-blend-mode:passthrough"><g style="mix-blend-mode:passthrough"><path d="M565.47461,164.4375Q566.95703,164.4375,567.85352,165.42773Q568.75,166.418,568.75,168.2344L568.75,174L567.13281,174L567.13281,168.6738Q567.13281,167.3438,566.61133,166.6289Q566.08984,165.9082,565.07031,165.9082Q564.4082,165.9082,563.81641,166.2246Q563.23047,166.5352,562.86133,167.1562Q562.49219,167.7773,562.49219,168.6914L562.49219,174L560.875,174L560.875,164.625L562.32812,164.625Q562.32812,165.55078,562.42188,166.2129Q562.89062,165.33984,563.6875,164.88867Q564.48438,164.4375,565.47461,164.4375ZM575.875,169.125L575.875,167.6543L582.25,167.6543L582.25,169.125L575.875,169.125ZM596.125,160.125L597.7422,160.125L597.7422,174L596.2891,174Q596.2891,173.0391,596.1953,172.377Q595.6914,173.291,594.8594,173.7422Q594.0332,174.1875,593.1016,174.1875Q592.0293,174.1875,591.0859,173.6133Q590.1484,173.0391,589.5742,171.9316Q589,170.8242,589,169.3125Q589,167.8184,589.5742,166.7109Q590.1484,165.60352,591.0859,165.02344Q592.0293,164.4375,593.1016,164.4375Q593.9922,164.4375,594.8008,164.85938Q595.6094,165.27539,596.125,166.1074L596.125,160.125ZM593.2949,172.7168Q594.4492,172.7168,595.2871,171.8965Q596.125,171.0703,596.125,169.3008Q596.125,167.5488,595.2871,166.7285Q594.4492,165.9082,593.2949,165.9082Q592.082,165.9082,591.3496,166.8047Q590.6172,167.6953,590.6172,169.3008Q590.6172,170.9238,591.3496,171.8203Q592.082,172.7168,593.2949,172.7168ZM605.125,169.125L605.125,167.6543L611.5,167.6543L611.5,169.125L605.125,169.125ZM624.4609,166.7227Q625.6797,167.1094,626.2773,167.9824Q626.875,168.8555,626.875,170.1387Q626.875,171.3984,626.2949,172.3242Q625.7207,173.2441,624.7539,173.7188Q623.793,174.1875,622.6504,174.1875Q621.2031,174.1875,619.9784999999999,173.4316Q618.7539,172.66989999999998,618.332,171.2168L619.627,170.4492Q619.9844,171.5684,620.8457,172.14260000000002Q621.707,172.7168,622.7031,172.7168Q623.7988,172.7168,624.5254,172.0371Q625.2578,171.3516,625.2578,170.1328Q625.2578,167.625,621.8301,167.625L621.25,167.625L621.25,166.1543L621.8887,166.1543Q623.2305,166.1543,623.9277,165.50391Q624.625,164.85352,624.625,163.83398Q624.625,162.87305,624.0332,162.32812Q623.4414,161.7832,622.498,161.7832Q621.5254,161.7832,620.8457,162.36328Q620.1719,162.94336,619.8086,164.0332L618.5137,163.28906Q618.9414,161.81836,620.0137,161.06836Q621.0918,160.3125,622.5391,160.3125Q624.2148,160.3125,625.2284999999999,161.27344Q626.2422,162.23438,626.2422,163.79883Q626.2422,164.79492,625.8027,165.5625Q625.3691,166.3242,624.4609,166.7227Z" fill="#DDDDDD" fill-opacity="1"/></g><path d="M511,148L511,140L512.5,140L512.5,148L511,148ZM511,160L511,152L512.5,152L512.5,160L511,160ZM511,172L511,164L512.5,164L512.5,172L511,172ZM511,184L511,176L512.5,176L512.5,184L511,184ZM511,196L511,188L512.5,188L512.5,196L511,196ZM526.7143,204L518.85713,204L518.85713,202.5L526.7143,202.5L526.7143,204ZM538.5,204L530.6429,204L530.6429,202.5L538.5,202.5L538.5,204ZM550.2857,204L542.4286,204L542.4286,202.5L550.2857,202.5L550.2857,204ZM562.0714,204L554.2143,204L554.2143,202.5L562.0714,202.5L562.0714,204ZM573.8571,204L566,204L566,202.5L573.8571,202.5L573.8571,204ZM585.6429,204L577.7857,204L577.7857,202.5L585.6429,202.5L585.6429,204ZM597.4286,204L589.5714,204L589.5714,202.5L597.4286,202.5L597.4286,204ZM609.2143,204L601.3571,204L601.3571,202.5L609.2143,202.5L609.2143,204ZM621,204L613.143,204L613.143,202.5L621,202.5L621,204ZM632.7860000000001,204L624.929,204L624.929,202.5L632.7860000000001,202.5L632.7860000000001,204ZM644.571,204L636.7139999999999,204L636.7139999999999,202.5L644.571,202.5L644.571,204ZM656.357,204L648.5,204L648.5,202.5L656.357,202.5L656.357,204ZM668.143,204L660.2860000000001,204L660.2860000000001,202.5L668.143,202.5L668.143,204ZM676,188L676,196L674.5,196L674.5,188L676,188ZM676,176L676,184L674.5,184L674.5,176L676,176ZM676,164L676,172L674.5,172L674.5,164L676,164ZM676,152L676,160L674.5,160L674.5,152L676,152ZM676,140L676,148L674.5,148L674.5,140L676,140ZM660.2860000000001,132L668.143,132L668.143,133.5L660.2860000000001,133.5L660.2860000000001,132ZM648.5,132L656.357,132L656.357,133.5L648.5,133.5L648.5,132ZM636.7139999999999,132L644.571,132L644.571,133.5L636.7139999999999,133.5L636.7139999999999,132ZM624.929,132L632.7860000000001,132L632.7860000000001,133.5L624.929,133.5L624.929,132ZM613.143,132L621,132L621,133.5L613.143,133.5L613.143,132ZM601.3571,132L609.2143,132L609.2143,133.5L601.3571,133.5L601.3571,132ZM589.5714,132L597.4286,132L597.4286,133.5L589.5714,133.5L589.5714,132ZM577.7857,132L585.6429,132L585.6429,133.5L577.7857,133.5L577.7857,132ZM566,132L573.8571,132L573.8571,133.5L566,133.5L566,132ZM554.2143,132L562.0714,132L562.0714,133.5L554.2143,133.5L554.2143,132ZM542.4286,132L550.2857,132L550.2857,133.5L542.4286,133.5L542.4286,132ZM530.6429,132L538.5,132L538.5,133.5L530.6429,133.5L530.6429,132ZM518.85714,132L526.7143,132L526.7143,133.5L518.85714,133.5L518.85714,132ZM514.92857,132L514.92857,133.5L512.5,133.5L512.5,136L511,136L511,132L514.92857,132ZM672.071,132L676,132L676,136L674.5,136L674.5,133.5L672.071,133.5L672.071,132ZM676,200L676,204L672.071,204L672.071,202.5L674.5,202.5L674.5,200L676,200ZM514.92856,204L511,204L511,200L512.5,200L512.5,202.5L514.92856,202.5L514.92856,204Z" fill-rule="evenodd" fill="#DDDDDD" fill-opacity="1"/></g><g style="mix-blend-mode:passthrough"><g style="mix-blend-mode:passthrough"><path d="M449.99414,174.1875Q449.60742,174.1875,449.33203,173.8535Q449.0625,173.5137,449.0625,173.0684Q449.0625,172.5938,449.33203,172.2656Q449.60742,171.9375,449.99414,171.9375Q450.39258,171.9375,450.66211,172.2656Q450.9375,172.5938,450.9375,173.0684Q450.9375,173.5312,450.66211,173.8594Q450.39258,174.1875,449.99414,174.1875ZM455.99414,174.1875Q455.60742,174.1875,455.33203,173.8535Q455.0625,173.5137,455.0625,173.0684Q455.0625,172.5938,455.33203,172.2656Q455.60742,171.9375,455.99414,171.9375Q456.39258,171.9375,456.66211,172.2656Q456.9375,172.5938,456.9375,173.0684Q456.9375,173.5312,456.66211,173.8594Q456.39258,174.1875,455.99414,174.1875ZM461.9941,174.1875Q461.6074,174.1875,461.332,173.8535Q461.0625,173.5137,461.0625,173.0684Q461.0625,172.5938,461.332,172.2656Q461.6074,171.9375,461.9941,171.9375Q462.3926,171.9375,462.6621,172.2656Q462.9375,172.5938,462.9375,173.0684Q462.9375,173.5312,462.6621,173.8594Q462.3926,174.1875,461.9941,174.1875Z" fill="#DDDDDD" fill-opacity="1"/></g><path d="M399,148L399,140L400.5,140L400.5,148L399,148ZM399,160L399,152L400.5,152L400.5,160L399,160ZM399,172L399,164L400.5,164L400.5,172L399,172ZM399,184L399,176L400.5,176L400.5,184L399,184ZM399,196L399,188L400.5,188L400.5,196L399,196ZM414.2,204L406.6,204L406.6,202.5L414.2,202.5L414.2,204ZM425.6,204L418,204L418,202.5L425.6,202.5L425.6,204ZM437,204L429.4,204L429.4,202.5L437,202.5L437,204ZM448.4,204L440.8,204L440.8,202.5L448.4,202.5L448.4,204ZM459.8,204L452.2,204L452.2,202.5L459.8,202.5L459.8,204ZM471.2,204L463.6,204L463.6,202.5L471.2,202.5L471.2,204ZM482.6,204L475,204L475,202.5L482.6,202.5L482.6,204ZM494,204L486.4,204L486.4,202.5L494,202.5L494,204ZM505.4,204L497.8,204L497.8,202.5L505.4,202.5L505.4,204ZM513,188L513,196L511.5,196L511.5,188L513,188ZM513,176L513,184L511.5,184L511.5,176L513,176ZM513,164L513,172L511.5,172L511.5,164L513,164ZM513,152L513,160L511.5,160L511.5,152L513,152ZM513,140L513,148L511.5,148L511.5,140L513,140ZM497.8,132L505.4,132L505.4,133.5L497.8,133.5L497.8,132ZM486.4,132L494,132L494,133.5L486.4,133.5L486.4,132ZM475,132L482.6,132L482.6,133.5L475,133.5L475,132ZM463.6,132L471.2,132L471.2,133.5L463.6,133.5L463.6,132ZM452.2,132L459.8,132L459.8,133.5L452.2,133.5L452.2,132ZM440.8,132L448.4,132L448.4,133.5L440.8,133.5L440.8,132ZM429.4,132L437,132L437,133.5L429.4,133.5L429.4,132ZM418,132L425.6,132L425.6,133.5L418,133.5L418,132ZM406.6,132L414.2,132L414.2,133.5L406.6,133.5L406.6,132ZM402.8,132L402.8,133.5L400.5,133.5L400.5,136L399,136L399,132L402.8,132ZM509.2,132L513,132L513,136L511.5,136L511.5,133.5L509.2,133.5L509.2,132ZM513,200L513,204L509.2,204L509.2,202.5L511.5,202.5L511.5,200L513,200ZM402.8,204L399,204L399,200L400.5,200L400.5,202.5L402.8,202.5L402.8,204Z" fill-rule="evenodd" fill="#DDDDDD" fill-opacity="1"/></g><g style="mix-blend-mode:passthrough"><g style="mix-blend-mode:passthrough"><path d="M337.8125,167.2734Q337.8125,170.6836,336.69336,172.4355Q335.58008,174.1875,333.49414,174.1875Q331.41992,174.1875,330.30078,172.4297Q329.1875,170.666,329.1875,167.2734Q329.1875,163.85742,330.30078,162.08789Q331.41992,160.3125,333.49414,160.3125Q335.58008,160.3125,336.69336,162.07617Q337.8125,163.83984,337.8125,167.2734ZM330.80469,167.2793Q330.80469,170.0273,331.45508,171.375Q332.11133,172.7168,333.49414,172.7168Q334.87109,172.7168,335.5332,171.3809Q336.19531,170.0449,336.19531,167.2793Q336.19531,164.49609,335.5332,163.14258Q334.87109,161.7832,333.49414,161.7832Q332.11133,161.7832,331.45508,163.14258Q330.80469,164.49609,330.80469,167.2793Z" fill="#DDDDDD" fill-opacity="1"/></g><path d="M266,148L266,140L267.5,140L267.5,148L266,148ZM266,160L266,152L267.5,152L267.5,160L266,160ZM266,172L266,164L267.5,164L267.5,172L266,172ZM266,184L266,176L267.5,176L267.5,184L266,184ZM266,196L266,188L267.5,188L267.5,196L266,196ZM282.3636,204L274.18182,204L274.18182,202.5L282.3636,202.5L282.3636,204ZM294.6364,204L286.4545,204L286.4545,202.5L294.6364,202.5L294.6364,204ZM306.9091,204L298.7273,204L298.7273,202.5L306.9091,202.5L306.9091,204ZM319.1818,204L311,204L311,202.5L319.1818,202.5L319.1818,204ZM331.4545,204L323.2727,204L323.2727,202.5L331.4545,202.5L331.4545,204ZM343.7273,204L335.5455,204L335.5455,202.5L343.7273,202.5L343.7273,204ZM356,204L347.8182,204L347.8182,202.5L356,202.5L356,204ZM368.273,204L360.09090000000003,204L360.09090000000003,202.5L368.273,202.5L368.273,204ZM380.545,204L372.36400000000003,204L372.36400000000003,202.5L380.545,202.5L380.545,204ZM392.818,204L384.63599999999997,204L384.63599999999997,202.5L392.818,202.5L392.818,204ZM401,188L401,196L399.5,196L399.5,188L401,188ZM401,176L401,184L399.5,184L399.5,176L401,176ZM401,164L401,172L399.5,172L399.5,164L401,164ZM401,152L401,160L399.5,160L399.5,152L401,152ZM401,140L401,148L399.5,148L399.5,140L401,140ZM384.63599999999997,132L392.818,132L392.818,133.5L384.63599999999997,133.5L384.63599999999997,132ZM372.36400000000003,132L380.545,132L380.545,133.5L372.36400000000003,133.5L372.36400000000003,132ZM360.09090000000003,132L368.273,132L368.273,133.5L360.09090000000003,133.5L360.09090000000003,132ZM347.8182,132L356,132L356,133.5L347.8182,133.5L347.8182,132ZM335.5455,132L343.7273,132L343.7273,133.5L335.5455,133.5L335.5455,132ZM323.2727,132L331.4545,132L331.4545,133.5L323.2727,133.5L323.2727,132ZM311,132L319.1818,132L319.1818,133.5L311,133.5L311,132ZM298.7273,132L306.9091,132L306.9091,133.5L298.7273,133.5L298.7273,132ZM286.4545,132L294.6364,132L294.6364,133.5L286.4545,133.5L286.4545,132ZM274.18182,132L282.3636,132L282.3636,133.5L274.18182,133.5L274.18182,132ZM270.09091,132L270.09091,133.5L267.5,133.5L267.5,136L266,136L266,132L270.09091,132ZM396.909,132L401,132L401,136L399.5,136L399.5,133.5L396.909,133.5L396.909,132ZM401,200L401,204L396.909,204L396.909,202.5L399.5,202.5L399.5,200L401,200ZM270.09091,204L266,204L266,200L267.5,200L267.5,202.5L270.09091,202.5L270.09091,204Z" fill-rule="evenodd" fill="#DDDDDD" fill-opacity="1"/></g><g style="mix-blend-mode:passthrough"><g style="mix-blend-mode:passthrough"><path d="M449.99414,104.1875Q449.60742,104.1875,449.33203,103.8535Q449.0625,103.5137,449.0625,103.0684Q449.0625,102.5938,449.33203,102.2656Q449.60742,101.9375,449.99414,101.9375Q450.39258,101.9375,450.66211,102.2656Q450.9375,102.5938,450.9375,103.0684Q450.9375,103.5312,450.66211,103.8594Q450.39258,104.1875,449.99414,104.1875ZM455.99414,104.1875Q455.60742,104.1875,455.33203,103.8535Q455.0625,103.5137,455.0625,103.0684Q455.0625,102.5938,455.33203,102.2656Q455.60742,101.9375,455.99414,101.9375Q456.39258,101.9375,456.66211,102.2656Q456.9375,102.5938,456.9375,103.0684Q456.9375,103.5312,456.66211,103.8594Q456.39258,104.1875,455.99414,104.1875ZM461.9941,104.1875Q461.6074,104.1875,461.332,103.8535Q461.0625,103.5137,461.0625,103.0684Q461.0625,102.5938,461.332,102.2656Q461.6074,101.9375,461.9941,101.9375Q462.3926,101.9375,462.6621,102.2656Q462.9375,102.5938,462.9375,103.0684Q462.9375,103.5312,462.6621,103.8594Q462.3926,104.1875,461.9941,104.1875Z" fill="#DDDDDD" fill-opacity="1"/></g><path d="M399,78L399,70L400.5,70L400.5,78L399,78ZM399,90L399,82L400.5,82L400.5,90L399,90ZM399,102L399,94L400.5,94L400.5,102L399,102ZM399,114L399,106L400.5,106L400.5,114L399,114ZM399,126L399,118L400.5,118L400.5,126L399,126ZM414.2,134L406.6,134L406.6,132.5L414.2,132.5L414.2,134ZM425.6,134L418,134L418,132.5L425.6,132.5L425.6,134ZM437,134L429.4,134L429.4,132.5L437,132.5L437,134ZM448.4,134L440.8,134L440.8,132.5L448.4,132.5L448.4,134ZM459.8,134L452.2,134L452.2,132.5L459.8,132.5L459.8,134ZM471.2,134L463.6,134L463.6,132.5L471.2,132.5L471.2,134ZM482.6,134L475,134L475,132.5L482.6,132.5L482.6,134ZM494,134L486.4,134L486.4,132.5L494,132.5L494,134ZM505.4,134L497.8,134L497.8,132.5L505.4,132.5L505.4,134ZM513,118L513,126L511.5,126L511.5,118L513,118ZM513,106L513,114L511.5,114L511.5,106L513,106ZM513,94L513,102L511.5,102L511.5,94L513,94ZM513,82L513,90L511.5,90L511.5,82L513,82ZM513,70L513,78L511.5,78L511.5,70L513,70ZM497.8,62L505.4,62L505.4,63.5L497.8,63.5L497.8,62ZM486.4,62L494,62L494,63.5L486.4,63.5L486.4,62ZM475,62L482.6,62L482.6,63.5L475,63.5L475,62ZM463.6,62L471.2,62L471.2,63.5L463.6,63.5L463.6,62ZM452.2,62L459.8,62L459.8,63.5L452.2,63.5L452.2,62ZM440.8,62L448.4,62L448.4,63.5L440.8,63.5L440.8,62ZM429.4,62L437,62L437,63.5L429.4,63.5L429.4,62ZM418,62L425.6,62L425.6,63.5L418,63.5L418,62ZM406.6,62L414.2,62L414.2,63.5L406.6,63.5L406.6,62ZM402.8,62L402.8,63.5L400.5,63.5L400.5,66L399,66L399,62L402.8,62ZM509.2,62L513,62L513,66L511.5,66L511.5,63.5L509.2,63.5L509.2,62ZM513,130L513,134L509.2,134L509.2,132.5L511.5,132.5L511.5,130L513,130ZM402.8,134L399,134L399,130L400.5,130L400.5,132.5L402.8,132.5L402.8,134Z" fill-rule="evenodd" fill="#DDDDDD" fill-opacity="1"/></g><g style="mix-blend-mode:passthrough"><g style="mix-blend-mode:passthrough"><path d="M320.09961,94.4375Q321.58203,94.4375,322.47852,95.42773Q323.375,96.418,323.375,98.2344L323.375,104L321.75781,104L321.75781,98.6738Q321.75781,97.3438,321.23633,96.6289Q320.71484,95.9082,319.69531,95.9082Q319.0332,95.9082,318.44141,96.2246Q317.85547,96.5352,317.48633,97.1562Q317.11719,97.7773,317.11719,98.6914L317.11719,104L315.5,104L315.5,94.625L316.95312,94.625Q316.95312,95.55078,317.04688,96.2129Q317.51562,95.33984,318.3125,94.88867Q319.10938,94.4375,320.09961,94.4375ZM330.5,99.125L330.5,97.6543L336.875,97.6543L336.875,99.125L330.5,99.125ZM349.8359,96.7227Q351.0547,97.1094,351.65229999999997,97.9824Q352.25,98.8555,352.25,100.1387Q352.25,101.3984,351.6699,102.3242Q351.0957,103.2441,350.1289,103.7188Q349.168,104.1875,348.0254,104.1875Q346.5781,104.1875,345.3535,103.4316Q344.1289,102.6699,343.707,101.2168L345.002,100.4492Q345.3594,101.5684,346.2207,102.1426Q347.082,102.7168,348.0781,102.7168Q349.1738,102.7168,349.9004,102.0371Q350.6328,101.3516,350.6328,100.1328Q350.6328,97.625,347.2051,97.625L346.625,97.625L346.625,96.1543L347.2637,96.1543Q348.6055,96.1543,349.3027,95.50391Q350,94.85352,350,93.83398Q350,92.87305,349.4082,92.32812Q348.8164,91.7832,347.873,91.7832Q346.9004,91.7832,346.2207,92.36328Q345.5469,92.94336,345.1836,94.0332L343.8887,93.28906Q344.3164,91.81836,345.3887,91.06836Q346.4668,90.3125,347.9141,90.3125Q349.58979999999997,90.3125,350.6035,91.27344Q351.6172,92.23438,351.6172,93.79883Q351.6172,94.79492,351.1777,95.5625Q350.7441,96.3242,349.8359,96.7227Z" fill="#DDDDDD" fill-opacity="1"/></g><path d="M266,78L266,70L267.5,70L267.5,78L266,78ZM266,90L266,82L267.5,82L267.5,90L266,90ZM266,102L266,94L267.5,94L267.5,102L266,102ZM266,114L266,106L267.5,106L267.5,114L266,114ZM266,126L266,118L267.5,118L267.5,126L266,126ZM282.3636,134L274.18182,134L274.18182,132.5L282.3636,132.5L282.3636,134ZM294.6364,134L286.4545,134L286.4545,132.5L294.6364,132.5L294.6364,134ZM306.9091,134L298.7273,134L298.7273,132.5L306.9091,132.5L306.9091,134ZM319.1818,134L311,134L311,132.5L319.1818,132.5L319.1818,134ZM331.4545,134L323.2727,134L323.2727,132.5L331.4545,132.5L331.4545,134ZM343.7273,134L335.5455,134L335.5455,132.5L343.7273,132.5L343.7273,134ZM356,134L347.8182,134L347.8182,132.5L356,132.5L356,134ZM368.273,134L360.09090000000003,134L360.09090000000003,132.5L368.273,132.5L368.273,134ZM380.545,134L372.36400000000003,134L372.36400000000003,132.5L380.545,132.5L380.545,134ZM392.818,134L384.63599999999997,134L384.63599999999997,132.5L392.818,132.5L392.818,134ZM401,118L401,126L399.5,126L399.5,118L401,118ZM401,106L401,114L399.5,114L399.5,106L401,106ZM401,94L401,102L399.5,102L399.5,94L401,94ZM401,82L401,90L399.5,90L399.5,82L401,82ZM401,70L401,78L399.5,78L399.5,70L401,70ZM384.63599999999997,62L392.818,62L392.818,63.5L384.63599999999997,63.5L384.63599999999997,62ZM372.36400000000003,62L380.545,62L380.545,63.5L372.36400000000003,63.5L372.36400000000003,62ZM360.09090000000003,62L368.273,62L368.273,63.5L360.09090000000003,63.5L360.09090000000003,62ZM347.8182,62L356,62L356,63.5L347.8182,63.5L347.8182,62ZM335.5455,62L343.7273,62L343.7273,63.5L335.5455,63.5L335.5455,62ZM323.2727,62L331.4545,62L331.4545,63.5L323.2727,63.5L323.2727,62ZM311,62L319.1818,62L319.1818,63.5L311,63.5L311,62ZM298.7273,62L306.9091,62L306.9091,63.5L298.7273,63.5L298.7273,62ZM286.4545,62L294.6364,62L294.6364,63.5L286.4545,63.5L286.4545,62ZM274.18182,62L282.3636,62L282.3636,63.5L274.18182,63.5L274.18182,62ZM270.09091,62L270.09091,63.5L267.5,63.5L267.5,66L266,66L266,62L270.09091,62ZM396.909,62L401,62L401,66L399.5,66L399.5,63.5L396.909,63.5L396.909,62ZM401,130L401,134L396.909,134L396.909,132.5L399.5,132.5L399.5,130L401,130ZM270.09091,134L266,134L266,130L267.5,130L267.5,132.5L270.09091,132.5L270.09091,134Z" fill-rule="evenodd" fill="#DDDDDD" fill-opacity="1"/></g><g style="mix-blend-mode:passthrough"><g style="mix-blend-mode:passthrough"><path d="M187.09961,94.4375Q188.58203,94.4375,189.47852,95.42773Q190.375,96.418,190.375,98.2344L190.375,104L188.75781,104L188.75781,98.6738Q188.75781,97.3438,188.23633,96.6289Q187.71484,95.9082,186.69531,95.9082Q186.0332,95.9082,185.44141,96.2246Q184.85547,96.5352,184.48633,97.1562Q184.11719,97.7773,184.11719,98.6914L184.11719,104L182.5,104L182.5,94.625L183.95312,94.625Q183.95312,95.55078,184.04688,96.2129Q184.51562,95.33984,185.3125,94.88867Q186.10938,94.4375,187.09961,94.4375ZM197.5,99.125L197.5,97.6543L203.875,97.6543L203.875,99.125L197.5,99.125ZM213.0742,102.5293L218.875,102.5293L218.875,104L210.625,104L210.625,102.9395L214.8965,98.0879Q216.0977,96.7285,216.5488,95.94922Q217,95.16992,217,94.24414Q217,93.06641,216.3672,92.42773Q215.74020000000002,91.7832,214.7852,91.7832Q213.8125,91.7832,213.0742,92.45703Q212.3359,93.125,212.0137,94.22656L210.7129,93.4707Q211.1055,91.9707,212.2656,91.14453Q213.4258,90.3125,214.8555,90.3125Q215.8867,90.3125,216.7422,90.76367Q217.6035,91.21484,218.10739999999998,92.08789Q218.6172,92.95508,218.6172,94.17969Q218.6172,95.375,218.0488,96.4414Q217.4805,97.5078,216.0566,99.1191L213.0742,102.5293Z" fill="#DDDDDD" fill-opacity="1"/></g><path d="M133,78L133,70L134.5,70L134.5,78L133,78ZM133,90L133,82L134.5,82L134.5,90L133,90ZM133,102L133,94L134.5,94L134.5,102L133,102ZM133,114L133,106L134.5,106L134.5,114L133,114ZM133,126L133,118L134.5,118L134.5,126L133,126ZM149.3636,134L141.18182,134L141.18182,132.5L149.3636,132.5L149.3636,134ZM161.6364,134L153.4545,134L153.4545,132.5L161.6364,132.5L161.6364,134ZM173.9091,134L165.7273,134L165.7273,132.5L173.9091,132.5L173.9091,134ZM186.1818,134L178,134L178,132.5L186.1818,132.5L186.1818,134ZM198.4545,134L190.2727,134L190.2727,132.5L198.4545,132.5L198.4545,134ZM210.7273,134L202.5455,134L202.5455,132.5L210.7273,132.5L210.7273,134ZM223,134L214.8182,134L214.8182,132.5L223,132.5L223,134ZM235.273,134L227.0909,134L227.0909,132.5L235.273,132.5L235.273,134ZM247.54500000000002,134L239.364,134L239.364,132.5L247.54500000000002,132.5L247.54500000000002,134ZM259.818,134L251.636,134L251.636,132.5L259.818,132.5L259.818,134ZM268,118L268,126L266.5,126L266.5,118L268,118ZM268,106L268,114L266.5,114L266.5,106L268,106ZM268,94L268,102L266.5,102L266.5,94L268,94ZM268,82L268,90L266.5,90L266.5,82L268,82ZM268,70L268,78L266.5,78L266.5,70L268,70ZM251.636,62L259.818,62L259.818,63.5L251.636,63.5L251.636,62ZM239.364,62L247.54500000000002,62L247.54500000000002,63.5L239.364,63.5L239.364,62ZM227.0909,62L235.273,62L235.273,63.5L227.0909,63.5L227.0909,62ZM214.8182,62L223,62L223,63.5L214.8182,63.5L214.8182,62ZM202.5455,62L210.7273,62L210.7273,63.5L202.5455,63.5L202.5455,62ZM190.2727,62L198.4545,62L198.4545,63.5L190.2727,63.5L190.2727,62ZM178,62L186.1818,62L186.1818,63.5L178,63.5L178,62ZM165.7273,62L173.9091,62L173.9091,63.5L165.7273,63.5L165.7273,62ZM153.4545,62L161.6364,62L161.6364,63.5L153.4545,63.5L153.4545,62ZM141.18182,62L149.3636,62L149.3636,63.5L141.18182,63.5L141.18182,62ZM137.09091,62L137.09091,63.5L134.5,63.5L134.5,66L133,66L133,62L137.09091,62ZM263.909,62L268,62L268,66L266.5,66L266.5,63.5L263.909,63.5L263.909,62ZM268,130L268,134L263.909,134L263.909,132.5L266.5,132.5L266.5,130L268,130ZM137.09091,134L133,134L133,130L134.5,130L134.5,132.5L137.09091,132.5L137.09091,134Z" fill-rule="evenodd" fill="#DDDDDD" fill-opacity="1"/></g><g style="mix-blend-mode:passthrough"><g style="mix-blend-mode:passthrough"><path d="M54.09961,94.4375Q55.58203,94.4375,56.47852,95.42773Q57.375,96.418,57.375,98.2344L57.375,104L55.75781,104L55.75781,98.6738Q55.75781,97.3438,55.23633,96.6289Q54.71484,95.9082,53.69531,95.9082Q53.0332,95.9082,52.44141,96.2246Q51.85547,96.5352,51.48633,97.1562Q51.11719,97.7773,51.11719,98.6914L51.11719,104L49.5,104L49.5,94.625L50.95312,94.625Q50.95312,95.55078,51.04688,96.2129Q51.51562,95.33984,52.3125,94.88867Q53.10938,94.4375,54.09961,94.4375ZM64.5,99.125L64.5,97.6543L70.875,97.6543L70.875,99.125L64.5,99.125ZM78.75,94.47852L78.75,92.78516L82.5176,90.5L83.7422,90.5L83.7422,104L82.125,104L82.125,92.46875L78.75,94.47852Z" fill="#DDDDDD" fill-opacity="1"/></g><path d="M0,78L0,70L1.5,70L1.5,78L0,78ZM0,90L0,82L1.5,82L1.5,90L0,90ZM0,102L0,94L1.5,94L1.5,102L0,102ZM0,114L0,106L1.5,106L1.5,114L0,114ZM0,126L0,118L1.5,118L1.5,126L0,126ZM16.3636,134L8.18182,134L8.18182,132.5L16.3636,132.5L16.3636,134ZM28.6364,134L20.4545,134L20.4545,132.5L28.6364,132.5L28.6364,134ZM40.9091,134L32.7273,134L32.7273,132.5L40.9091,132.5L40.9091,134ZM53.1818,134L45,134L45,132.5L53.1818,132.5L53.1818,134ZM65.4545,134L57.2727,134L57.2727,132.5L65.4545,132.5L65.4545,134ZM77.7273,134L69.5455,134L69.5455,132.5L77.7273,132.5L77.7273,134ZM90,134L81.8182,134L81.8182,132.5L90,132.5L90,134ZM102.273,134L94.0909,134L94.0909,132.5L102.273,132.5L102.273,134ZM114.545,134L106.364,134L106.364,132.5L114.545,132.5L114.545,134ZM126.818,134L118.636,134L118.636,132.5L126.818,132.5L126.818,134ZM135,118L135,126L133.5,126L133.5,118L135,118ZM135,106L135,114L133.5,114L133.5,106L135,106ZM135,94L135,102L133.5,102L133.5,94L135,94ZM135,82L135,90L133.5,90L133.5,82L135,82ZM135,70L135,78L133.5,78L133.5,70L135,70ZM118.636,62L126.818,62L126.818,63.5L118.636,63.5L118.636,62ZM106.364,62L114.545,62L114.545,63.5L106.364,63.5L106.364,62ZM94.0909,62L102.273,62L102.273,63.5L94.0909,63.5L94.0909,62ZM81.8182,62L90,62L90,63.5L81.8182,63.5L81.8182,62ZM69.5455,62L77.7273,62L77.7273,63.5L69.5455,63.5L69.5455,62ZM57.2727,62L65.4545,62L65.4545,63.5L57.2727,63.5L57.2727,62ZM45,62L53.1818,62L53.1818,63.5L45,63.5L45,62ZM32.7273,62L40.9091,62L40.9091,63.5L32.7273,63.5L32.7273,62ZM20.4545,62L28.6364,62L28.6364,63.5L20.4545,63.5L20.4545,62ZM8.18182,62L16.3636,62L16.3636,63.5L8.18182,63.5L8.18182,62ZM4.09091,62L4.09091,63.5L1.5,63.5L1.5,66L0,66L0,62L4.09091,62ZM130.909,62L135,62L135,66L133.5,66L133.5,63.5L130.909,63.5L130.909,62ZM135,130L135,134L130.909,134L130.909,132.5L133.5,132.5L133.5,130L135,130ZM4.09091,134L0,134L0,130L1.5,130L1.5,132.5L4.09091,132.5L4.09091,134Z" fill-rule="evenodd" fill="#DDDDDD" fill-opacity="1"/></g><g style="mix-blend-mode:passthrough"><g style="mix-blend-mode:passthrough"><path d="M595.9375,90.125L597.55469,90.125L597.55469,104L596.10156,104Q596.10156,103.0391,596.00781,102.377Q595.50391,103.291,594.67188,103.7422Q593.8457,104.1875,592.91406,104.1875Q591.8418,104.1875,590.89844,103.6133Q589.96094,103.0391,589.38672,101.9316Q588.8125,100.8242,588.8125,99.3125Q588.8125,97.8184,589.38672,96.7109Q589.96094,95.60352,590.89844,95.02344Q591.8418,94.4375,592.91406,94.4375Q593.80469,94.4375,594.61328,94.85938Q595.42188,95.27539,595.9375,96.1074L595.9375,90.125ZM593.10742,102.7168Q594.26172,102.7168,595.09961,101.8965Q595.9375,101.0703,595.9375,99.3008Q595.9375,97.5488,595.09961,96.7285Q594.26172,95.9082,593.10742,95.9082Q591.89453,95.9082,591.16211,96.8047Q590.42969,97.6953,590.42969,99.3008Q590.42969,100.9238,591.16211,101.8203Q591.89453,102.7168,593.10742,102.7168Z" fill="#DDDDDD" fill-opacity="1"/></g><path d="M511,78L511,70L512.5,70L512.5,78L511,78ZM511,90L511,82L512.5,82L512.5,90L511,90ZM511,102L511,94L512.5,94L512.5,102L511,102ZM511,114L511,106L512.5,106L512.5,114L511,114ZM511,126L511,118L512.5,118L512.5,126L511,126ZM526.7143,134L518.85713,134L518.85713,132.5L526.7143,132.5L526.7143,134ZM538.5,134L530.6429,134L530.6429,132.5L538.5,132.5L538.5,134ZM550.2857,134L542.4286,134L542.4286,132.5L550.2857,132.5L550.2857,134ZM562.0714,134L554.2143,134L554.2143,132.5L562.0714,132.5L562.0714,134ZM573.8571,134L566,134L566,132.5L573.8571,132.5L573.8571,134ZM585.6429,134L577.7857,134L577.7857,132.5L585.6429,132.5L585.6429,134ZM597.4286,134L589.5714,134L589.5714,132.5L597.4286,132.5L597.4286,134ZM609.2143,134L601.3571,134L601.3571,132.5L609.2143,132.5L609.2143,134ZM621,134L613.143,134L613.143,132.5L621,132.5L621,134ZM632.7860000000001,134L624.929,134L624.929,132.5L632.7860000000001,132.5L632.7860000000001,134ZM644.571,134L636.7139999999999,134L636.7139999999999,132.5L644.571,132.5L644.571,134ZM656.357,134L648.5,134L648.5,132.5L656.357,132.5L656.357,134ZM668.143,134L660.2860000000001,134L660.2860000000001,132.5L668.143,132.5L668.143,134ZM676,118L676,126L674.5,126L674.5,118L676,118ZM676,106L676,114L674.5,114L674.5,106L676,106ZM676,94L676,102L674.5,102L674.5,94L676,94ZM676,82L676,90L674.5,90L674.5,82L676,82ZM676,70L676,78L674.5,78L674.5,70L676,70ZM660.2860000000001,62L668.143,62L668.143,63.5L660.2860000000001,63.5L660.2860000000001,62ZM648.5,62L656.357,62L656.357,63.5L648.5,63.5L648.5,62ZM636.7139999999999,62L644.571,62L644.571,63.5L636.7139999999999,63.5L636.7139999999999,62ZM624.929,62L632.7860000000001,62L632.7860000000001,63.5L624.929,63.5L624.929,62ZM613.143,62L621,62L621,63.5L613.143,63.5L613.143,62ZM601.3571,62L609.2143,62L609.2143,63.5L601.3571,63.5L601.3571,62ZM589.5714,62L597.4286,62L597.4286,63.5L589.5714,63.5L589.5714,62ZM577.7857,62L585.6429,62L585.6429,63.5L577.7857,63.5L577.7857,62ZM566,62L573.8571,62L573.8571,63.5L566,63.5L566,62ZM554.2143,62L562.0714,62L562.0714,63.5L554.2143,63.5L554.2143,62ZM542.4286,62L550.2857,62L550.2857,63.5L542.4286,63.5L542.4286,62ZM530.6429,62L538.5,62L538.5,63.5L530.6429,63.5L530.6429,62ZM518.85714,62L526.7143,62L526.7143,63.5L518.85714,63.5L518.85714,62ZM514.92857,62L514.92857,63.5L512.5,63.5L512.5,66L511,66L511,62L514.92857,62ZM672.071,62L676,62L676,66L674.5,66L674.5,63.5L672.071,63.5L672.071,62ZM676,130L676,134L672.071,134L672.071,132.5L674.5,132.5L674.5,130L676,130ZM514.92856,134L511,134L511,130L512.5,130L512.5,132.5L514.92856,132.5L514.92856,134Z" fill-rule="evenodd" fill="#DDDDDD" fill-opacity="1"/></g><g style="mix-blend-mode:passthrough"><g style="mix-blend-mode:passthrough"><path d="M738.8398,101.2227Q738.8398,101.8438,738.7461,102.7695Q738.6582,103.6543,738.4121,104.1172Q738.1719,104.5801,737.6445,104.7852Q737.123,104.9961,736.1504,105.0664Q734.8613,105.1602,733.8359,105.1602Q732.8164,105.1602,731.52148,105.0664Q730.5957,104.9961,730.12695,104.791Q729.66406,104.5859,729.47656,104.1055Q729.28906,103.6309,729.28906,102.6699L729.28906,94.94727L728.41016,94.28516Q730.57227,91.7832,731.94336,88.48438L733.1973,88.95312Q732.9688,89.49219,732.4707,90.5L737.1465,90.5L737.1465,91.67188L735.3125,94.13867L737.8848,94.13867L737.8848,99.875L730.625,99.875L730.625,102.3477Q730.625,102.9336,730.71875,103.2031Q730.81836,103.4668,731.07617,103.5723Q731.33984,103.6777,731.93164,103.7305Q732.8633,103.8066,734.0117,103.8066Q735.1602,103.8066,736.0742,103.7305Q736.6484,103.6777,736.9121,103.5664Q737.1816,103.4492,737.2871,103.1855Q737.3984,102.916,737.4336,102.3652L737.4512,101.9258Q737.5098,101.3574,737.5098,100.8652L738.8398,101.2227ZM723.27734,95.95508Q722.990234,96.0254,722.867188,96.043L722.503906,94.5957Q722.902344,94.44922,723.18945,94.08594Q723.64062,93.48828,724.44922,91.78906Q725.25781,90.08984,725.81445,88.68359L727.05664,89.22266L726.76953,89.84961Q725.96094,91.60156,725.39258,92.76172Q724.83008,93.91602,724.41406,94.57227Q725.1875,94.4082,725.47461,94.36719L726.51758,94.16797Q727.40234,92.44531,727.74219,91.70703L728.83789,92.28125Q727.91797,94.14453,726.88672,96.0664Q725.85547,97.9883,725.16992,99.0078L728.21094,98.1758L728.22852,99.459Q725.74414,100.1504,724.19727,100.5605L723.24219,100.8242L722.849609,99.2891Q723.56445,99.0898,723.89258,98.6094Q724.83008,97.2441,725.83789,95.39844L723.89258,95.82617L723.27734,95.95508ZM735.5,91.70703L731.82031,91.70703Q731.02344,93.10156,730.26172,94.13867L733.7363,94.13867L735.5,91.70703ZM730.625,95.39844L730.625,98.6504L732.875,98.6504L732.875,95.39844L730.625,95.39844ZM734.1875,98.6504L736.625,98.6504L736.625,95.39844L734.1875,95.39844L734.1875,98.6504ZM722.650391,103.0684Q723.79883,102.7637,725.79688,102.2012Q727.79492,101.6387,728.35742,101.4512L728.49805,102.9688Q727.79492,103.1914,725.66797,103.7598Q723.54688,104.3223,722.9375,104.4395L722.650391,103.0684ZM757.2559,92.48633L757.2559,93.875L755.0409999999999,93.875L755.0409999999999,102.6406Q755.0409999999999,103.9766,754.5078,104.5332Q753.9805,105.0898,752.627,105.1074Q751.4082,105.1484,750.418,105.0195L750.1074,103.543Q751.2617,103.6895,752.2871,103.6895Q752.8262,103.6895,753.0957,103.5723Q753.3652,103.4551,753.4648,103.1504Q753.5645,102.8398,753.5645,102.2246L753.5645,93.875L748.543,93.875L748.543,92.48633L753.5645,92.48633L753.5645,88.90625L755.0409999999999,88.90625L755.0409999999999,92.48633L757.2559,92.48633ZM747.752,92.26953Q747.1367,95.78516,745.9531,98.4746Q746.3105,98.9785,746.9961,99.9922Q748.3086,101.8906,748.6309,102.3359L747.4121,103.2734Q746.1875,101.4336,745.1973,99.9922Q743.9199,102.3652,741.6465,104.9082L740.6035,103.7422Q742.9648,101.1641,744.2598,98.6035Q742.0742,95.43359,741.2305,94.29102L742.3848,93.47656Q743.2871,94.67188,744.9805,97.0684Q745.8242,94.92383,746.3105,92.25195L741.125,92.25195L741.125,90.81055L747.752,90.81055L747.752,92.26953ZM751.1504,100.3672Q750.6699,99.5762,749.7734,98.1875Q748.8828,96.793,748.4199,96.1309L749.5332,95.375Q750.1426,96.2715,750.9336,97.4668Q751.7305,98.6621,752.3574,99.6113L751.1504,100.3672ZM772.4141,100.5078Q770.8848,100.5957,767.8203,100.7422L767.8203,103.0566Q767.8203,104.1641,767.4219,104.6211Q767.0234,105.084,766.1621,105.125Q765.3828,105.1426,764.2754,105.0488L764.0234,103.7422Q764.1699,103.7598,764.7031,103.8301Q765.2363,103.9004,765.7051,103.9004Q766.0684,103.9004,766.2324,103.6016Q766.3965000000001,103.2969,766.3965000000001,102.6758L766.3965000000001,100.8301L761.8555,101.0469L759.957,101.1523L759.7402,99.875Q761.1348,99.875,761.5273,99.7461Q763.5488,99.0898,766.1387,97.6602Q764.6914,97.7656,762.0840000000001,97.9473L760.8534999999999,98.0469L760.6602,97.0508Q761.6738,96.9629,762.0312,96.8164Q763.1738,96.3535,765.7227,94.38477L761,94.38477L761,96.3652L759.5234,96.3652L759.5234,93.125L766.25,93.125L766.25,91.625L759.957,91.625L759.957,90.36523L766.25,90.36523L766.25,88.87109L767.6738,88.87109L767.6738,90.36523L774.0605,90.36523L774.0605,91.625L767.6738,91.625L767.6738,93.125L774.4766,93.125L774.4766,96.4004L773,96.4004L773,94.38477L767.6211,94.38477Q766.9355,94.95898,765.9629,95.67383Q764.9961,96.3828,764.293,96.8516L768.1191,96.541Q769.6895,95.5918,770.6094,94.94141L771.3945,96.0078Q769.3262,97.3789,767.832,98.2578Q766.3379,99.1309,764.873,99.6992L771.1777,99.3184Q770.3516,98.5508,769.9883,98.252L770.9199,97.373Q773.2227,99.4473,774.3652,100.7188L773.5039,101.6504Q773.2871,101.3984,772.707,100.7949Q772.707,100.7949,772.4141,100.5078ZM764.2578,102.3301Q763.2148,103.0449,761.8672,103.7656Q760.5195,104.4863,759.2363,105.0371L758.6797,103.7246Q759.9102,103.2441,761.2871,102.5293Q762.6699,101.8086,763.5723,101.1523L764.2578,102.3301ZM769.8594,101.1348Q771.1484,101.75,774.3066,103.332L775.1387,103.7422L774.5117,104.9961Q773.6211,104.498,771.9512,103.6719Q770.2812,102.8398,769.2090000000001,102.3418L769.8594,101.1348ZM789.8457,88.97656L791.375,88.97656L791.375,105.125L789.8457,105.125L789.8457,88.97656ZM786.125,89.75L786.125,95.24609L779.8789,95.24609L779.668,97.625L786.2188,97.625Q786.2012,99.8574,785.873,102.4062Q785.7324,103.502,785.4159999999999,104.0703Q785.0996,104.6445,784.4492,104.8848Q783.8047,105.125,782.6562,105.125Q781.3555,105.125,779.8262,104.9434L779.5391,103.5078Q781.2676,103.7715,782.5801,103.7715Q783.4473,103.7715,783.8398,103.3789Q784.2383,102.9863,784.3789,101.9961Q784.6133,100.4023,784.6895,99.0254L778.0449,99.0254L778.4784999999999,93.875L784.5957,93.875L784.5957,91.13867L778.0625,91.13867L778.0625,89.75L786.125,89.75Z" fill="#DDDDDD" fill-opacity="1"/></g></g><g style="mix-blend-mode:passthrough"><g style="mix-blend-mode:passthrough"><path d="M726.98633,163.69336L726.98633,165.02344Q728.11719,166.2012,729.35938,167.7188L728.49805,168.8086Q727.99414,168.0586,726.98633,166.793L726.98633,175.125L725.63281,175.125L725.63281,166.8281Q724.54883,169.541,723.40039,171.2168L722.591797,169.9219Q723.44141,168.7266,724.25,167.0332Q725.05859,165.33398,725.5625,163.69336L723.0957,163.69336L723.0957,162.375L725.63281,162.375L725.63281,158.71289L726.98633,158.71289L726.98633,162.375L729.27148,162.375L729.27148,163.69336L726.98633,163.69336ZM730.02148,175.1602L730.02148,160.125L738.3652,160.125L738.3652,175.125L737,175.125L737,174L731.375,174L731.375,175.1602L730.02148,175.1602ZM737,164.25L737,161.47852L731.375,161.47852L731.375,164.25L737,164.25ZM737,165.5625L731.375,165.5625L731.375,168.375L737,168.375L737,165.5625ZM731.375,169.6699L731.375,172.66989999999998L737,172.66989999999998L737,169.6699L731.375,169.6699ZM757.2559,162.48633L757.2559,163.875L755.0409999999999,163.875L755.0409999999999,172.6406Q755.0409999999999,173.9766,754.5078,174.5332Q753.9805,175.0898,752.627,175.10739999999998Q751.4082,175.1484,750.418,175.0195L750.1074,173.543Q751.2617,173.6895,752.2871,173.6895Q752.8262,173.6895,753.0957,173.57229999999998Q753.3652,173.45510000000002,753.4648,173.1504Q753.5645,172.8398,753.5645,172.2246L753.5645,163.875L748.543,163.875L748.543,162.48633L753.5645,162.48633L753.5645,158.90625L755.0409999999999,158.90625L755.0409999999999,162.48633L757.2559,162.48633ZM747.752,162.26953Q747.1367,165.78516,745.9531,168.4746Q746.3105,168.9785,746.9961,169.9922Q748.3086,171.8906,748.6309,172.3359L747.4121,173.2734Q746.1875,171.4336,745.1973,169.9922Q743.9199,172.36520000000002,741.6465,174.9082L740.6035,173.7422Q742.9648,171.1641,744.2598,168.6035Q742.0742,165.43359,741.2305,164.29102L742.3848,163.47656Q743.2871,164.67188,744.9805,167.0684Q745.8242,164.92383,746.3105,162.25195L741.125,162.25195L741.125,160.81055L747.752,160.81055L747.752,162.26953ZM751.1504,170.3672Q750.6699,169.5762,749.7734,168.1875Q748.8828,166.793,748.4199,166.1309L749.5332,165.375Q750.1426,166.2715,750.9336,167.4668Q751.7305,168.6621,752.3574,169.6113L751.1504,170.3672ZM772.4141,170.5078Q770.8848,170.5957,767.8203,170.7422L767.8203,173.0566Q767.8203,174.1641,767.4219,174.6211Q767.0234,175.084,766.1621,175.125Q765.3828,175.14260000000002,764.2754,175.0488L764.0234,173.7422Q764.1699,173.75979999999998,764.7031,173.83010000000002Q765.2363,173.9004,765.7051,173.9004Q766.0684,173.9004,766.2324,173.6016Q766.3965000000001,173.2969,766.3965000000001,172.6758L766.3965000000001,170.8301L761.8555,171.0469L759.957,171.1523L759.7402,169.875Q761.1348,169.875,761.5273,169.7461Q763.5488,169.0898,766.1387,167.6602Q764.6914,167.7656,762.0840000000001,167.9473L760.8534999999999,168.0469L760.6602,167.0508Q761.6738,166.9629,762.0312,166.8164Q763.1738,166.3535,765.7227,164.38477L761,164.38477L761,166.3652L759.5234,166.3652L759.5234,163.125L766.25,163.125L766.25,161.625L759.957,161.625L759.957,160.36523L766.25,160.36523L766.25,158.87109L767.6738,158.87109L767.6738,160.36523L774.0605,160.36523L774.0605,161.625L767.6738,161.625L767.6738,163.125L774.4766,163.125L774.4766,166.4004L773,166.4004L773,164.38477L767.6211,164.38477Q766.9355,164.95898,765.9629,165.67383Q764.9961,166.3828,764.293,166.8516L768.1191,166.541Q769.6895,165.5918,770.6094,164.94141L771.3945,166.0078Q769.3262,167.3789,767.832,168.2578Q766.3379,169.1309,764.873,169.6992L771.1777,169.3184Q770.3516,168.5508,769.9883,168.252L770.9199,167.373Q773.2227,169.4473,774.3652,170.7188L773.5039,171.6504Q773.2871,171.3984,772.707,170.7949Q772.707,170.7949,772.4141,170.5078ZM764.2578,172.33010000000002Q763.2148,173.04489999999998,761.8672,173.7656Q760.5195,174.4863,759.2363,175.0371L758.6797,173.7246Q759.9102,173.2441,761.2871,172.5293Q762.6699,171.8086,763.5723,171.1523L764.2578,172.33010000000002ZM769.8594,171.1348Q771.1484,171.75,774.3066,173.332L775.1387,173.7422L774.5117,174.9961Q773.6211,174.498,771.9512,173.6719Q770.2812,172.8398,769.2090000000001,172.3418L769.8594,171.1348ZM789.8457,158.97656L791.375,158.97656L791.375,175.125L789.8457,175.125L789.8457,158.97656ZM786.125,159.75L786.125,165.24609L779.8789,165.24609L779.668,167.625L786.2188,167.625Q786.2012,169.8574,785.873,172.4062Q785.7324,173.502,785.4159999999999,174.0703Q785.0996,174.6445,784.4492,174.88479999999998Q783.8047,175.125,782.6562,175.125Q781.3555,175.125,779.8262,174.9434L779.5391,173.5078Q781.2676,173.7715,782.5801,173.7715Q783.4473,173.7715,783.8398,173.3789Q784.2383,172.9863,784.3789,171.9961Q784.6133,170.4023,784.6895,169.0254L778.0449,169.0254L778.4784999999999,163.875L784.5957,163.875L784.5957,161.13867L778.0625,161.13867L778.0625,159.75L786.125,159.75Z" fill="#DDDDDD" fill-opacity="1"/></g></g><g style="mix-blend-mode:passthrough"><path d="M262.0918,12.4219Q262.9531,13.4707,264.0078,14.1855Q265.0625,14.8945,266.6797,15.6035L266.0703,16.8223Q264.125,15.9082,262.8242,14.9062Q261.5234,13.8984,260.4922,12.4219L256.18555,12.4219Q255.35938,13.6875,253.93555,14.8477Q252.51758,16.002,250.60742,16.9453L249.998047,15.7266Q253.03906,14.3203,254.58594,12.4219L250.25,12.4219L250.25,11.25L253.45508,11.25L253.45508,5.625L250.8418,5.625L250.8418,4.49414L253.45508,4.49414L253.45508,3.10547L254.85547,3.10547L254.85547,4.49414L261.8223,4.49414L261.8223,3.10547L263.2227,3.10547L263.2227,4.49414L265.8535,4.49414L265.8535,5.625L263.2227,5.625L263.2227,11.25L266.4629,11.25L266.4629,12.4219L262.0918,12.4219ZM261.8223,6.75L261.8223,5.625L254.85547,5.625L254.85547,6.75L261.8223,6.75ZM261.8223,7.88672L254.85547,7.88672L254.85547,9.02344L261.8223,9.02344L261.8223,7.88672ZM261.8223,10.125L254.85547,10.125L254.85547,11.25L261.8223,11.25L261.8223,10.125ZM262.5781,16.125L259.05078,16.125L259.05078,17.5254L265.707,17.5254L265.707,18.75L250.95312,18.75L250.95312,17.5254L257.64453,17.5254L257.64453,16.125L254.04688,16.125L254.04688,14.9707L257.64453,14.9707L257.64453,13.1953L259.05078,13.1953L259.05078,14.9707L262.5781,14.9707L262.5781,16.125ZM276.8867,8.25L282.8164,8.25L282.8164,13.875L270.5,13.875L270.5,8.25L275.375,8.25L275.375,2.77734L276.8867,2.77734L276.8867,4.55859L284.1289,4.55859L284.1289,6L276.8867,6L276.8867,8.25ZM271.9414,12.4863L281.375,12.4863L281.375,9.68555L271.9414,9.68555L271.9414,12.4863ZM282.5059,14.5078Q283.4609,16.0547,284.6504,18.3926L283.3906,19.1133Q282.6699,17.5488,281.2285,15.0996L282.5059,14.5078ZM268.5254,18.5742Q269.1523,17.6543,269.7148,16.5469Q270.2832,15.4395,270.6055,14.5254L271.9238,15.0645Q271.5664,16.0371,270.9863,17.1973Q270.4121,18.3574,269.8379,19.3125L268.5254,18.5742ZM278.6504,14.7773Q278.9727,15.5332,279.3652,16.5938Q279.7578,17.6543,279.9922,18.4453L278.6328,18.8262Q278.2285,17.3496,277.3438,15.1875L278.6504,14.7773ZM274.7656,14.9531Q274.9766,15.6914,275.2109,16.7988Q275.4453,17.9062,275.5742,18.6973L274.1328,18.9844Q273.9688,17.3848,273.418,15.2051L274.7656,14.9531Z" fill="#DDDDDD" fill-opacity="1"/></g><g style="mix-blend-mode:passthrough" transform="matrix(0,1,-1,0,293.5,-241.5)"><path d="M291.5,26.75L287.5,26.75L287.5,25.25L291.5,25.25M283.5,26.75L275.5,26.75L275.5,25.25L283.5,25.25M271.5,26.75L267.5,26.75L267.5,25.25L271.5,25.25M292.0303,26.53033L287.2574,31.3033Q287.2051,31.35553,287.1437,31.39657Q287.0823,31.43761,287.014,31.46588Q286.9458,31.49415,286.8733,31.50856Q286.8009,31.52297,286.727,31.52297Q286.65319999999997,31.52297,286.5807,31.50856Q286.5083,31.49415,286.44,31.46588Q286.3718,31.43761,286.3103,31.39657Q286.2489,31.35553,286.1967,31.3033Q286.1445,31.25107,286.1034,31.18965Q286.0624,31.128230000000002,286.0341,31.05998Q286.0058,30.99174,285.9914,30.91929Q285.977,30.84684,285.977,30.77297Q285.977,30.6991,285.9914,30.626649999999998Q286.0058,30.5542,286.0341,30.48596Q286.0624,30.41771,286.1034,30.35629Q286.1445,30.29487,286.1967,30.24264L290.9697,25.46967Q291.0219,25.417437,291.0833,25.376398000000002Q291.1447,25.335359,291.213,25.30709Q291.2812,25.278822,291.3537,25.264411Q291.4261,25.25,291.5,25.25Q291.5739,25.25,291.6463,25.264411Q291.7188,25.278822,291.787,25.307091Q291.8553,25.335359,291.9167,25.376398000000002Q291.9781,25.417437,292.0303,25.46967Q292.0826,25.521903000000002,292.1236,25.583323Q292.1646,25.644742,292.1929,25.712988Q292.2212,25.781233,292.2356,25.853682Q292.25,25.9261316,292.25,26.000000174578Q292.25,26.0738687,292.2356,26.146318Q292.2212,26.218767,292.1929,26.287013Q292.1646,26.355258,292.1236,26.416678Q292.0826,26.478096999999998,292.0303,26.53033ZM290.9697,26.53033L286.1967,21.75736Q286.1445,21.70513,286.1034,21.64371Q286.0624,21.58229,286.0341,21.51404Q286.0058,21.4458,285.9914,21.373350000000002Q285.977,21.3009,285.977,21.22703Q285.977,21.15316,285.9914,21.08071Q286.0058,21.00826,286.0341,20.94002Q286.0624,20.871769999999998,286.1034,20.81035Q286.1445,20.74893,286.1967,20.6967Q286.2489,20.64447,286.3103,20.60343Q286.3718,20.56239,286.44,20.53412Q286.5083,20.50585,286.5807,20.49144Q286.65319999999997,20.47703,286.727,20.47703Q286.8009,20.47703,286.8733,20.49144Q286.9458,20.50585,287.014,20.53412Q287.0823,20.56239,287.1437,20.60343Q287.2051,20.64447,287.2574,20.6967L292.0303,25.46967Q292.0826,25.521903000000002,292.1236,25.583322Q292.1646,25.644742,292.1929,25.712987Q292.2212,25.781233,292.2356,25.853682Q292.25,25.9261313,292.25,25.999999825422Q292.25,26.0738684,292.2356,26.146318Q292.2212,26.218767,292.1929,26.287012Q292.1646,26.355258,292.1236,26.416677Q292.0826,26.478096999999998,292.0303,26.53033Q291.9781,26.582563,291.9167,26.623601999999998Q291.8553,26.664641,291.787,26.692909Q291.7188,26.721178,291.6463,26.735589Q291.5739,26.75,291.5,26.75Q291.4261,26.75,291.3537,26.735589Q291.2812,26.721178,291.213,26.69291Q291.1447,26.664641,291.0833,26.623601999999998Q291.0219,26.582563,290.9697,26.53033Z" fill="#DDDDDD" fill-opacity="1"/></g><g style="mix-blend-mode:passthrough"><path d="M6.09961,236.4375Q7.58203,236.4375,8.47852,237.42773Q9.375,238.418,9.375,240.2344L9.375,246L7.75781,246L7.75781,240.6738Q7.75781,239.3438,7.23633,238.6289Q6.71484,237.9082,5.69531,237.9082Q5.0332,237.9082,4.44141,238.2246Q3.85547,238.5352,3.48633,239.1562Q3.11719,239.7773,3.11719,240.6914L3.11719,246L1.5,246L1.5,236.625L2.95312,236.625Q2.95312,237.55078,3.04688,238.2129Q3.51562,237.33984,4.3125,236.88867Q5.10938,236.4375,6.09961,236.4375ZM24.375,238.0957L16.125,238.0957L16.125,236.625L24.375,236.625L24.375,238.0957ZM24.375,241.875L16.125,241.875L16.125,240.4043L24.375,240.4043L24.375,241.875ZM34.3535,230.80078L34.3535,233.87695L35.9824,233.87695L35.9824,235.35938L34.3535,235.35938L34.3535,238.0723L35.6543,237.49805L35.7422,238.9512L34.3535,239.584L34.3535,245.2969Q34.3535,246.334,33.9551,246.7266Q33.5566,247.125,32.5664,247.125Q31.9746,247.125,31.4004,247.07229999999998L31.1426,245.64260000000002Q31.7871,245.7539,32.291,245.7539Q32.7422,245.7539,32.8945,245.5605Q33.0527,245.3672,33.0527,244.8457L33.0527,240.1699Q31.9863,240.6445,31.0137,241.0254L30.8555,239.5312Q31.8984,239.1211,33.0527,238.6289L33.0527,235.35938L31.125,235.35938L31.125,233.87695L33.0527,233.87695L33.0527,230.80078L34.3535,230.80078ZM42.2461,244.8633L45.1699,244.8633L45.1699,242.707L43.1016,242.707L43.1016,241.4648L45.1699,241.4648L45.1699,239.4023L43.0312,239.4023L43.0312,238.125L46.5,238.125L46.5,247.125L45.1699,247.125L45.1699,246.1641L38.0508,246.1641L38.0508,247.14260000000002L36.75,247.14260000000002L36.75,238.4121Q37.4883,238.2715,38.3145,238.0195Q39.1465,237.76172,39.7969,237.48633L40.1895,238.7168Q39.252,239.1738,38.0508,239.5137L38.0508,241.4648L40.0664,241.4648L40.0664,242.707L38.0508,242.707L38.0508,244.8633L40.875,244.8633L40.875,236.44336L36.5039,236.44336L36.5039,235.125L40.875,235.125L40.875,233.01562Q38.502,233.21484,36.8789,233.26758L36.75,231.97266Q38.6074,231.90234,41.5664,231.66211Q44.5254,231.41602,46.4648,231.14648L46.6992,232.44141Q44.6191,232.71094,42.2461,232.91016L42.2461,235.125L47.2031,235.125L47.2031,236.44336L42.2461,236.44336L42.2461,244.8633ZM57.7207,233.55469Q58.1543,237.47461,59.9414,240.4922Q61.7344,243.5098,65.2441,245.8828L64.2539,247.14260000000002Q61.3184,244.9805,59.5605,242.5723Q57.8086,240.1582,57,236.90039Q55.4355,242.5371,49.6758,247.17770000000002L48.5742,245.9531Q52.3359,243.1465,54.1348,240.082Q55.9395,237.01172,56.332,233.75391Q56.1562,233.47852,55.7871,233.36719Q55.418,233.25,54.7852,233.25L52.2305,233.25L52.2305,231.73242L55.3418,231.73242Q56.4961,231.73242,57.0645,232.14844Q57.6328,232.56445,57.7207,233.55469ZM82.4941,233.55469L82.4941,234.32227Q82.4941,236.63672,82.377,239.7363Q82.2598,242.8359,82.1016,244.834Q82.0312,245.7305,81.7793,246.2168Q81.5332,246.7031,81.0645,246.9023Q80.5957,247.10739999999998,79.793,247.14260000000002Q79.6055,247.1602,79.2305,247.1602Q78.9375,247.1602,78.5566,247.14260000000002Q78.1816,247.125,77.9707,247.10739999999998L77.4961,247.0664L77.25,245.5195Q78.5098,245.7363,79.2129,245.7363Q79.7578,245.7363,80.0449,245.6191Q80.3379,245.4961,80.502,245.1562Q80.666,244.8164,80.7363,244.1016Q81,240.9609,81,236.36133L81,234.94336L76.6523,234.94336Q76.0605,236.53711,75.5156,237.74414L74.291,236.87695Q74.9766,235.51172,75.5684,233.82422Q76.1602,232.13672,76.5117,230.625L77.918,230.91211Q77.5488,232.37109,77.1445,233.55469L82.4941,233.55469ZM71.8945,231.01758Q71.6426,232.20703,71.2148,233.71875L73.7988,233.71875L73.7988,246.668L67.5938,246.668L67.5938,233.71875L69.5625,233.71875Q70.0137,232.44141,70.3477,230.74805L71.8945,231.01758ZM69,238.875L72.375,238.875L72.375,235.125L69,235.125L69,238.875ZM78.3516,242.707Q77.7949,241.8105,76.9863,240.6855Q76.1836,239.5547,75.6211,238.8926L76.6699,238.0078Q77.25,238.6934,78.0469,239.7832Q78.8438,240.8672,79.4414,241.7578L78.3516,242.707ZM69,240.2637L69,245.25L72.375,245.25L72.375,240.2637L69,240.2637ZM84.668,238.2246Q88.2012,237.69141,91.1543,236.6543Q89.6074,235.82812,88.4004,234.81445Q87.2695,235.77539,85.916,236.63672L85.1543,235.45898Q86.6309,234.52148,88.0137,233.26172Q89.4023,231.99609,90.2695,230.8418L91.6172,231.50977Q91.2012,232.04883,90.8086,232.46484L98.9414,232.46484L98.9414,233.83008Q97.0898,235.47656,94.6582,236.67188Q95.9355,237.08203,97.4473,237.39844Q98.959,237.70898,101.086,238.0664L100.764,239.3906Q95.9531,238.6934,92.9121,237.46289Q89.6016,238.7988,85.0488,239.5898L84.668,238.2246ZM89.4434,233.88867Q90.9785,235.17188,92.8418,235.99219Q95.2734,234.95508,96.873,233.68945L89.6602,233.68945L89.4434,233.88867ZM100.166,241.7402L93.6855,241.7402L93.6855,244.9043Q93.6855,246.1289,93.2168,246.627Q92.7539,247.125,91.5996,247.125Q90.3809,247.125,89.4609,247.0137L89.1738,245.625Q90.2754,245.7539,91.0781,245.7539Q91.7637,245.7539,92.0039,245.4668Q92.25,245.1797,92.25,244.4355L92.25,241.7402L85.5,241.7402L85.5,240.375L92.25,240.375L92.25,238.6934L93.6855,238.6934L93.6855,240.375L100.166,240.375L100.166,241.7402ZM90.3281,243.2754Q88.5469,245.08010000000002,85.2832,246.9785L84.4922,245.625Q85.8926,244.9746,87.1816,244.0898Q88.4766,243.2051,89.4082,242.2441L90.3281,243.2754ZM95.666,242.3789Q95.9355,242.5195,98.5312,244.0312L100.922,245.4258L100.148,246.7793Q98.9414,245.9883,97.5117,245.0859Q96.082,244.17770000000002,94.9453,243.4922L95.666,242.3789ZM105,247.1836L105,231.80859L117,231.80859L117,247.125L115.547,247.125L115.547,246L106.477,246L106.477,247.1836L105,247.1836ZM115.547,236.25L115.547,233.25L106.477,233.25L106.477,236.25L115.547,236.25ZM115.547,240.375L115.547,237.63281L106.477,237.63281L106.477,240.375L115.547,240.375ZM106.477,241.7637L106.477,244.5938L115.547,244.5938L115.547,241.7637L106.477,241.7637ZM133.641,242.7422Q134.883,244.5586,137.115,246.2871L136.219,247.4941Q134.127,245.8008,132.85,243.9844Q131.678,245.6367,129.592,247.418L128.689,246.2344Q130.869,244.4707,132.041,242.666Q130.904,240.5156,130.312,237.5332Q130.184,237.78516,130.066,237.97852Q129.949,238.166,129.879,238.2891L128.889,237.20508Q129.75,235.81641,130.418,234.16406Q131.086,232.51172,131.426,230.89453L132.779,231.12305Q132.527,232.32422,132.006,233.8418L136.828,233.8418L136.828,235.2832L135.568,235.2832Q135.334,237.73828,134.883,239.5195Q134.432,241.3008,133.641,242.7422ZM120.621,238.9277Q121.559,238.3594,122.414,237.58008Q123.27,236.80078,123.92,235.91016L121.072,235.91016L121.072,234.72656L124.641,234.72656L124.641,231L125.918,231L125.918,234.72656L129.07,234.72656L129.07,235.91016L125.918,235.91016L125.918,236.16211L128.941,238.2129L128.273,239.209Q127.324,238.418,125.918,237.47461L125.918,239.3145L124.641,239.3145L124.641,236.70117Q124.008,237.63281,123.152,238.4883Q122.297,239.3438,121.324,240L120.621,238.9277ZM122.912,234.4043Q122.385,233.51953,121.307,232.00781L122.209,231.39844L123.885,233.77148L122.912,234.4043ZM129.305,232.04297Q128.49,233.23242,127.535,234.49219L126.604,233.82422Q127.611,232.49414,128.332,231.41602L129.305,232.04297ZM131.232,235.72852Q131.502,237.46289,131.865,238.8047Q132.234,240.1465,132.797,241.3008Q133.354,240.0938,133.705,238.6289Q134.062,237.16406,134.256,235.2832L131.426,235.2832L131.232,235.72852ZM128.115,246.5742Q127.289,246.05270000000002,125.883,245.332Q124.225,246.4688,121.107,247.459L120.516,246.2344Q123.129,245.4785,124.553,244.70510000000002Q123.217,244.0898,122.584,243.8203L121.863,243.498Q122.455,242.543,122.801,241.875L120.75,241.875L120.75,240.709L123.398,240.709Q123.773,239.7715,123.885,239.4492L125.215,239.8125Q124.998,240.4219,124.875,240.709L128.672,240.709L128.672,241.8223Q127.969,243.4219,126.961,244.4355Q127.793,244.8281,128.801,245.41989999999998L128.115,246.5742ZM123.703,243.0117Q124.025,243.1523,124.963,243.5332L125.771,243.873Q126.674,243.1172,127.213,241.875L124.318,241.875Q123.92,242.6309,123.703,243.0117Z" fill="#DDDDDD" fill-opacity="1"/></g><g style="mix-blend-mode:passthrough"><path d="M7.875,256.125L9.49219,256.125L9.49219,270L8.03906,270Q8.03906,269.0391,7.94531,268.377Q7.44141,269.291,6.60938,269.7422Q5.7832,270.1875,4.85156,270.1875Q3.7793,270.1875,2.83594,269.6133Q1.89844,269.0391,1.32422,267.9316Q0.75,266.8242,0.75,265.3125Q0.75,263.8184,1.32422,262.7109Q1.89844,261.60352,2.83594,261.02344Q3.7793,260.4375,4.85156,260.4375Q5.74219,260.4375,6.55078,260.85938Q7.35938,261.27539,7.875,262.1074L7.875,256.125ZM5.04492,268.7168Q6.19922,268.7168,7.03711,267.8965Q7.875,267.0703,7.875,265.3008Q7.875,263.5488,7.03711,262.7285Q6.19922,261.9082,5.04492,261.9082Q3.83203,261.9082,3.09961,262.8047Q2.36719,263.6953,2.36719,265.3008Q2.36719,266.9238,3.09961,267.8203Q3.83203,268.7168,5.04492,268.7168ZM24.75,262.0957L16.5,262.0957L16.5,260.625L24.75,260.625L24.75,262.0957ZM24.75,265.875L16.5,265.875L16.5,264.4043L24.75,264.4043L24.75,265.875ZM45.2754,255.06445L46.5527,255.06445L46.5527,268.834Q46.5527,271.125,44.707,271.125Q43.7578,271.125,42.6621,270.9961L42.4336,269.877Q43.6875,269.918,44.3086,269.918Q44.8242,269.918,45.0469,269.5781Q45.2754,269.2324,45.2754,268.5117L45.2754,255.06445ZM41.1504,255.74414L41.1504,261.9375L42.0879,261.9375L42.0879,263.2324L41.1504,263.2324L41.1504,269.4258Q41.1504,270.3398,40.8281,270.7324Q40.5059,271.125,39.7676,271.125Q39.0996,271.125,38.5957,271.0254L38.3613,269.6074Q39.0117,269.8477,39.3633,269.8477Q39.6914,269.8477,39.8145,269.6133Q39.9434,269.3789,39.9434,268.8691L39.9434,263.2324L38.4668,263.2324Q38.4492,265.2891,38.3145,266.6426Q38.1797,267.9961,37.9277,269.0098Q37.6816,270.0176,37.2129,271.2305L36.0586,270.8262Q36.5273,269.6602,36.7676,268.7461Q37.0137,267.8262,37.1191,266.5723Q37.2305,265.3184,37.2656,263.2324L36.0938,263.2324L36.0938,269.0566Q36.0938,269.9883,35.7949,270.3691Q35.502,270.75,34.6934,270.75Q34.0781,270.75,33.627,270.6621L33.375,269.3789Q34.0254,269.4902,34.3418,269.4902Q34.6289,269.4902,34.7754,269.2441Q34.9219,268.998,34.9219,268.5762L34.9219,263.2324L33.5566,263.2324Q33.5391,265.4355,33.4043,266.748Q33.2695,268.0547,32.9648,269.0215Q32.6602,269.9824,32.0449,271.1777L30.8906,270.6504Q31.4883,269.5195,31.7754,268.6582Q32.0625,267.791,32.1797,266.5957Q32.2969,265.4004,32.332,263.2324L31.125,263.2324L31.125,261.9375L32.332,261.9375L32.332,261.73828L32.332,255.74414L36.0938,255.74414L36.0938,261.9375L37.2656,261.9375L37.2656,261.73828L37.2656,255.74414L41.1504,255.74414ZM42.668,256.5L43.875,256.5L43.875,267.4277L42.668,267.4277L42.668,256.5ZM33.5566,257.03906L33.5566,261.9375L34.9219,261.9375L34.9219,257.03906L33.5566,257.03906ZM38.4668,257.03906L38.4668,261.9375L39.9434,261.9375L39.9434,257.03906L38.4668,257.03906ZM65.127,265.0078L60.9316,265.0078L60.9316,269.2148Q60.9316,270.2285,60.5332,270.6738Q60.1406,271.125,59.2559,271.125Q58.4531,271.125,57.5332,270.9785L57.2637,269.6367Q58.3066,269.8066,58.793,269.8066Q59.2617,269.8066,59.4316,269.6074Q59.6016,269.4023,59.6016,268.8691L59.6016,265.0078L55.5,265.0078L55.5,263.625L59.6016,263.625L59.6016,261.58008L56.9062,261.58008L56.9062,260.43164Q56.0273,261.16406,55.3477,261.65039L54.4336,260.48438Q57.8672,258.2168,59.5312,255.12305L60.9316,255.12305Q61.7402,256.57031,63.0645,257.97656Q64.3945,259.37695,66.0293,260.55469L65.1504,261.68555Q63.6328,260.61328,62.3496,259.25977Q61.0723,257.90039,60.2285,256.49414Q59.0098,258.52148,57.1055,260.25L63.3633,260.25L63.3633,261.58008L60.9316,261.58008L60.9316,263.625L65.127,263.625L65.127,265.0078ZM54.9199,265.7695Q54.9199,267.3047,54.4512,267.9023Q53.9824,268.5,52.9043,268.5Q52.4004,268.5,51.8789,268.3887L51.6094,267.0938Q52.0605,267.2402,52.6172,267.2402Q53.1738,267.2402,53.3965,266.8242Q53.625,266.4082,53.625,265.5234Q53.625,263.6953,52.3125,261.86719L53.6074,257.25L51.375,257.25L51.375,271.125L50.0391,271.125L50.0391,255.87891L54.9551,255.87891L54.9551,257.26758L53.5898,261.65039Q54.2871,262.8398,54.6035,263.8066Q54.9199,264.7734,54.9199,265.7695ZM62.9473,265.5645Q63.4688,266.3379,64.2598,267.5977Q65.0566,268.8574,65.6133,269.8066L64.4414,270.4746Q64.0605,269.7656,63.252,268.4297Q62.4434,267.0938,61.8867,266.2676L62.9473,265.5645ZM58.166,266.2207Q57.6211,267.2988,56.8066,268.5234Q55.9922,269.748,55.1953,270.6738L54.0938,269.8242Q54.873,269.0098,55.6465,267.8613Q56.4199,266.7129,56.9766,265.6113L58.166,266.2207ZM82.8691,257.55469L82.8691,258.32227Q82.8691,260.63672,82.752,263.7363Q82.6348,266.8359,82.4766,268.834Q82.4062,269.7305,82.1543,270.2168Q81.9082,270.7031,81.4395,270.9023Q80.9707,271.1074,80.168,271.1426Q79.9805,271.1602,79.6055,271.1602Q79.3125,271.1602,78.9316,271.1426Q78.5566,271.125,78.3457,271.1074L77.8711,271.0664L77.625,269.5195Q78.8848,269.7363,79.5879,269.7363Q80.1328,269.7363,80.4199,269.6191Q80.7129,269.4961,80.877,269.1562Q81.041,268.8164,81.1113,268.1016Q81.375,264.9609,81.375,260.36133L81.375,258.94336L77.0273,258.94336Q76.4355,260.53711,75.8906,261.74414L74.666,260.87695Q75.3516,259.51172,75.9434,257.82422Q76.5352,256.13672,76.8867,254.625L78.293,254.91211Q77.9238,256.37109,77.5195,257.55469L82.8691,257.55469ZM72.2695,255.01758Q72.0176,256.20703,71.5898,257.71875L74.1738,257.71875L74.1738,270.668L67.9688,270.668L67.9688,257.71875L69.9375,257.71875Q70.3887,256.44141,70.7227,254.74805L72.2695,255.01758ZM69.375,262.875L72.75,262.875L72.75,259.125L69.375,259.125L69.375,262.875ZM78.7266,266.707Q78.1699,265.8105,77.3613,264.6855Q76.5586,263.5547,75.9961,262.8926L77.0449,262.0078Q77.625,262.6934,78.4219,263.7832Q79.2188,264.8672,79.8164,265.7578L78.7266,266.707ZM69.375,264.2637L69.375,269.25L72.75,269.25L72.75,264.2637L69.375,264.2637ZM85.043,262.2246Q88.5762,261.69141,91.5293,260.6543Q89.9824,259.82812,88.7754,258.81445Q87.6445,259.77539,86.291,260.63672L85.5293,259.45898Q87.0059,258.52148,88.3887,257.26172Q89.7773,255.99609,90.6445,254.8418L91.9922,255.50977Q91.5762,256.04883,91.1836,256.46484L99.3164,256.46484L99.3164,257.83008Q97.4648,259.47656,95.0332,260.67188Q96.3105,261.08203,97.8223,261.39844Q99.334,261.70898,101.461,262.0664L101.139,263.3906Q96.3281,262.6934,93.2871,261.46289Q89.9766,262.7988,85.4238,263.5898L85.043,262.2246ZM89.8184,257.88867Q91.3535,259.17188,93.2168,259.99219Q95.6484,258.95508,97.248,257.68945L90.0352,257.68945L89.8184,257.88867ZM100.541,265.7402L94.0605,265.7402L94.0605,268.9043Q94.0605,270.1289,93.5918,270.627Q93.1289,271.125,91.9746,271.125Q90.7559,271.125,89.8359,271.0137L89.5488,269.625Q90.6504,269.7539,91.4531,269.7539Q92.1387,269.7539,92.3789,269.4668Q92.625,269.1797,92.625,268.4355L92.625,265.7402L85.875,265.7402L85.875,264.375L92.625,264.375L92.625,262.6934L94.0605,262.6934L94.0605,264.375L100.541,264.375L100.541,265.7402ZM90.7031,267.2754Q88.9219,269.0801,85.6582,270.9785L84.8672,269.625Q86.2676,268.9746,87.5566,268.0898Q88.8516,267.2051,89.7832,266.2441L90.7031,267.2754ZM96.041,266.3789Q96.3105,266.5195,98.9062,268.0312L101.297,269.4258L100.523,270.7793Q99.3164,269.9883,97.8867,269.0859Q96.457,268.1777,95.3203,267.4922L96.041,266.3789ZM105.375,271.1836L105.375,255.80859L117.375,255.80859L117.375,271.125L115.922,271.125L115.922,270L106.852,270L106.852,271.1836L105.375,271.1836ZM115.922,260.25L115.922,257.25L106.852,257.25L106.852,260.25L115.922,260.25ZM115.922,264.375L115.922,261.63281L106.852,261.63281L106.852,264.375L115.922,264.375ZM106.852,265.7637L106.852,268.5938L115.922,268.5938L115.922,265.7637L106.852,265.7637ZM134.016,266.7422Q135.258,268.5586,137.49,270.2871L136.594,271.4941Q134.502,269.8008,133.225,267.9844Q132.053,269.6367,129.967,271.418L129.064,270.2344Q131.244,268.4707,132.416,266.666Q131.279,264.5156,130.688,261.5332Q130.559,261.78516,130.441,261.97852Q130.324,262.166,130.254,262.2891L129.264,261.20508Q130.125,259.81641,130.793,258.16406Q131.461,256.51172,131.801,254.89453L133.154,255.12305Q132.902,256.32422,132.381,257.8418L137.203,257.8418L137.203,259.2832L135.943,259.2832Q135.709,261.73828,135.258,263.5195Q134.807,265.3008,134.016,266.7422ZM120.996,262.9277Q121.934,262.3594,122.789,261.58008Q123.645,260.80078,124.295,259.91016L121.447,259.91016L121.447,258.72656L125.016,258.72656L125.016,255L126.293,255L126.293,258.72656L129.445,258.72656L129.445,259.91016L126.293,259.91016L126.293,260.16211L129.316,262.2129L128.648,263.209Q127.699,262.418,126.293,261.47461L126.293,263.3145L125.016,263.3145L125.016,260.70117Q124.383,261.63281,123.527,262.4883Q122.672,263.3438,121.699,264L120.996,262.9277ZM123.287,258.4043Q122.76,257.51953,121.682,256.00781L122.584,255.39844L124.26,257.77148L123.287,258.4043ZM129.68,256.04297Q128.865,257.23242,127.91,258.49219L126.979,257.82422Q127.986,256.49414,128.707,255.41602L129.68,256.04297ZM131.607,259.72852Q131.877,261.46289,132.24,262.8047Q132.609,264.1465,133.172,265.3008Q133.729,264.0938,134.08,262.6289Q134.438,261.16406,134.631,259.2832L131.801,259.2832L131.607,259.72852ZM128.49,270.5742Q127.664,270.0527,126.258,269.332Q124.6,270.4688,121.482,271.459L120.891,270.2344Q123.504,269.4785,124.928,268.7051Q123.592,268.0898,122.959,267.8203L122.238,267.498Q122.83,266.543,123.176,265.875L121.125,265.875L121.125,264.709L123.773,264.709Q124.148,263.7715,124.26,263.4492L125.59,263.8125Q125.373,264.4219,125.25,264.709L129.047,264.709L129.047,265.8223Q128.344,267.4219,127.336,268.4355Q128.168,268.8281,129.176,269.4199L128.49,270.5742ZM124.078,267.0117Q124.4,267.1523,125.338,267.5332L126.146,267.873Q127.049,267.1172,127.588,265.875L124.693,265.875Q124.295,266.6309,124.078,267.0117Z" fill="#DDDDDD" fill-opacity="1"/></g><g style="mix-blend-mode:passthrough"><path d="M17.875,281.00391L17.875,282.375L8.26562,282.375Q7.25781,284.60742,5.91016,286.4941L5.91016,295.125L4.46875,295.125L4.46875,288.2754Q3.54883,289.2891,2.38281,290.3379L1.4980470000000001,289.0547Q4.65039,286.3945,6.63086,282.375L2.00195,282.375L2.00195,281.00391L7.25781,281.00391Q7.73242,279.9082,8.142579999999999,278.5957L9.57812,278.93555Q9.16211,280.19531,8.839839999999999,281.00391L17.875,281.00391ZM17.1895,288.2578L12.9414,288.2578L12.9414,293.25L17.8574,293.25L17.8574,294.6387L6.70117,294.6387L6.70117,293.25L11.4883,293.25L11.4883,288.2578L7.45703,288.2578L7.45703,286.875L11.4883,286.875L11.4883,283.64648L12.9414,283.64648L12.9414,286.875L17.1895,286.875L17.1895,288.2578ZM30.0039,283.36523Q31.0645,285.83203,32.6113,287.7832Q34.1582,289.7344,36.502,291.5273L35.4707,292.6934Q33.2383,290.8711,31.5449,288.5449Q29.8574,286.2129,28.8496,283.54102L28.8496,290.7715L32.5938,290.7715L32.5938,292.125L28.8496,292.125L28.8496,295.125L27.3203,295.125L27.3203,292.125L23.6113,292.125L23.6113,290.7715L27.3203,290.7715L27.3203,283.57617Q26.3477,286.1191,24.7715,288.2637Q23.2012,290.4023,20.6641,292.8281L19.6855,291.7441Q21.9941,289.7402,23.5469,287.7422Q25.1055,285.74414,26.1484,283.36523L20.5,283.36523L20.5,282L27.3203,282L27.3203,278.63672L28.8496,278.63672L28.8496,282L35.7051,282L35.7051,283.36523L30.0039,283.36523ZM42.291,279.31641Q41.6641,281.63086,40.9082,283.52344L40.9082,295.125L39.6074,295.125L39.6074,286.3008Q39.0684,287.3262,38.3301,288.4043L37.4688,287.1797Q38.4414,285.65039,39.3848,283.42969Q40.3281,281.20312,40.9082,279.04688L42.291,279.31641ZM52.1816,279.22266L53.5,279.22266L53.5,292.9219Q53.5,293.8008,53.2598,294.2754Q53.0195,294.75,52.4805,294.9375Q51.9414,295.125,50.9277,295.125Q50.4297,295.125,49.4043,295.0547L49.1465,293.7246Q50.0312,293.8301,50.9043,293.8301Q51.6602,293.8301,51.918,293.5723Q52.1816,293.3086,52.1816,292.5234L52.1816,279.22266ZM42.6133,281.36719L42.6133,280.01953L48.7188,280.01953L48.7188,281.36719L45.6191,281.36719Q45.4258,282.52148,45.0449,283.92188L48.1035,283.92188L48.1035,285.41602Q47.6758,287.7363,47.0254,289.3945Q46.3809,291.0469,45.3379,292.418Q44.3008,293.7891,42.6484,295.1602L41.7168,294.2812Q44.0898,292.418,45.3496,290.0098Q44.4004,289.0723,43.4395,288.2812Q42.9707,289.2891,42.4141,290.1504L41.4648,289.2129Q42.3438,287.6836,43.1289,285.51562Q43.9141,283.34766,44.2891,281.36719L42.6133,281.36719ZM49.3281,281.11523L50.6289,281.11523L50.6289,291.375L49.3281,291.375L49.3281,281.11523ZM44.6289,285.29297Q44.3184,286.2246,43.9785,287.0566Q45.0566,287.9355,45.9062,288.709Q46.4512,287.2148,46.7734,285.29297L44.6289,285.29297ZM64.7441,282L70.75,282L70.75,289.8164L64.7441,289.8164L64.7441,295.125L63.25,295.125L63.25,289.8164L56.8984,289.8164L56.8984,282L63.25,282L63.25,278.6543L64.7441,278.6543L64.7441,282ZM58.375,283.42383L58.375,288.375L63.25,288.375L63.25,283.42383L58.375,283.42383ZM64.7441,288.375L69.2734,288.375L69.2734,283.42383L64.7441,283.42383L64.7441,288.375ZM77.0137,292.125Q77.5469,292.125,77.8691,292.5293Q78.1914,292.9336,78.1914,293.7773Q78.1914,295.002,77.5469,295.793Q76.9082,296.5898,75.8652,296.7832L75.8652,295.9395Q77.0898,295.5586,77.1602,294.1934Q77.1074,294.2109,77.002,294.2109Q76.5566,294.2109,76.293,293.9062Q76.0293,293.6016,76.0293,293.168Q76.0293,292.7168,76.3047,292.4238Q76.5859,292.125,77.0137,292.125ZM103.592,288.4219Q104.453,289.4707,105.508,290.1855Q106.562,290.8945,108.18,291.6035L107.57,292.8223Q105.625,291.9082,104.324,290.9062Q103.023,289.8984,101.992,288.4219L97.6855,288.4219Q96.8594,289.6875,95.4355,290.8477Q94.0176,292.002,92.1074,292.9453L91.498,291.7266Q94.5391,290.3203,96.0859,288.4219L91.75,288.4219L91.75,287.25L94.9551,287.25L94.9551,281.625L92.3418,281.625L92.3418,280.49414L94.9551,280.49414L94.9551,279.10547L96.3555,279.10547L96.3555,280.49414L103.322,280.49414L103.322,279.10547L104.723,279.10547L104.723,280.49414L107.354,280.49414L107.354,281.625L104.723,281.625L104.723,287.25L107.963,287.25L107.963,288.4219L103.592,288.4219ZM103.322,282.75L103.322,281.625L96.3555,281.625L96.3555,282.75L103.322,282.75ZM103.322,283.88672L96.3555,283.88672L96.3555,285.02344L103.322,285.02344L103.322,283.88672ZM103.322,286.125L96.3555,286.125L96.3555,287.25L103.322,287.25L103.322,286.125ZM104.078,292.125L100.5508,292.125L100.5508,293.5254L107.207,293.5254L107.207,294.75L92.4531,294.75L92.4531,293.5254L99.1445,293.5254L99.1445,292.125L95.5469,292.125L95.5469,290.9707L99.1445,290.9707L99.1445,289.1953L100.5508,289.1953L100.5508,290.9707L104.078,290.9707L104.078,292.125ZM118.387,284.25L124.316,284.25L124.316,289.875L112,289.875L112,284.25L116.875,284.25L116.875,278.77734L118.387,278.77734L118.387,280.55859L125.629,280.55859L125.629,282L118.387,282L118.387,284.25ZM113.441,288.4863L122.875,288.4863L122.875,285.68555L113.441,285.68555L113.441,288.4863ZM124.006,290.5078Q124.961,292.0547,126.15,294.3926L124.891,295.1133Q124.17,293.5488,122.729,291.0996L124.006,290.5078ZM110.025,294.5742Q110.652,293.6543,111.215,292.5469Q111.783,291.4395,112.105,290.5254L113.424,291.0645Q113.066,292.0371,112.486,293.1973Q111.912,294.3574,111.338,295.3125L110.025,294.5742ZM120.15,290.7773Q120.473,291.5332,120.865,292.5938Q121.258,293.6543,121.492,294.4453L120.133,294.8262Q119.729,293.3496,118.844,291.1875L120.15,290.7773ZM116.266,290.9531Q116.477,291.6914,116.711,292.7988Q116.945,293.9062,117.074,294.6973L115.633,294.9844Q115.469,293.3848,114.918,291.2051L116.266,290.9531ZM140.875,286.0957L132.625,286.0957L132.625,284.625L140.875,284.625L140.875,286.0957ZM140.875,289.875L132.625,289.875L132.625,288.4043L140.875,288.4043L140.875,289.875ZM152.6,284.4375Q154.082,284.4375,154.979,285.42773Q155.875,286.418,155.875,288.2344L155.875,294L154.258,294L154.258,288.6738Q154.258,287.3438,153.736,286.6289Q153.215,285.9082,152.195,285.9082Q151.533,285.9082,150.941,286.2246Q150.355,286.5352,149.986,287.1562Q149.617,287.7773,149.617,288.6914L149.617,294L148,294L148,284.625L149.453,284.625Q149.453,285.55078,149.547,286.2129Q150.016,285.33984,150.812,284.88867Q151.609,284.4375,152.6,284.4375ZM163,289.125L163,287.6543L169.375,287.6543L169.375,289.125L163,289.125ZM178.574,292.5293L184.375,292.5293L184.375,294L176.125,294L176.125,292.9395L180.396,288.0879Q181.598,286.7285,182.049,285.94922Q182.5,285.16992,182.5,284.24414Q182.5,283.06641,181.867,282.42773Q181.24,281.7832,180.285,281.7832Q179.312,281.7832,178.574,282.45703Q177.836,283.125,177.514,284.22656L176.213,283.4707Q176.605,281.9707,177.766,281.14453Q178.926,280.3125,180.355,280.3125Q181.387,280.3125,182.242,280.76367Q183.104,281.21484,183.607,282.08789Q184.117,282.95508,184.117,284.17969Q184.117,285.375,183.549,286.4414Q182.98,287.5078,181.557,289.1191L178.574,292.5293Z" fill="#DDDDDD" fill-opacity="1"/></g></g></svg>