<svg xmlns="http://www.w3.org/2000/svg" xmlns:xlink="http://www.w3.org/1999/xlink" fill="none" version="1.1" width="842" height="258" viewBox="0 0 842 258"><g style="mix-blend-mode:passthrough"><g style="mix-blend-mode:passthrough"><path d="M107,32L107,37.333330000000004L105.5,37.333330000000004L105.5,32M107,42.6667L107,48L105.5,48L105.5,42.6667M0,48L0,42.6667L1.5,42.6667L1.5,48M0,37.333330000000004L0,32L1.5,32L1.5,37.333330000000004" fill="#DDDDDD" fill-opacity="1"/></g><g style="mix-blend-mode:passthrough"><path d="M527,32L527,37.333330000000004L525.5,37.333330000000004L525.5,32M527,42.6667L527,48L525.5,48L525.5,42.6667M420,48L420,42.6667L421.5,42.6667L421.5,48M420,37.333330000000004L420,32L421.5,32L421.5,37.333330000000004" fill="#DDDDDD" fill-opacity="1"/></g><g style="mix-blend-mode:passthrough"><path d="M211.99993896484375,32L211.99993896484375,37.333330000000004L210.49993896484375,37.333330000000004L210.49993896484375,32M211.99993896484375,42.6667L211.99993896484375,48L210.49993896484375,48L210.49993896484375,42.6667M104.99993896484375,48L104.99993896484375,42.6667L106.49993896484375,42.6667L106.49993896484375,48M104.99993896484375,37.333330000000004L104.99993896484375,32L106.49993896484375,32L106.49993896484375,37.333330000000004" fill="#DDDDDD" fill-opacity="1"/></g><g style="mix-blend-mode:passthrough"><path d="M632,32L632,37.333330000000004L630.5,37.333330000000004L630.5,32M632,42.6667L632,48L630.5,48L630.5,42.6667M525,48L525,42.6667L526.5,42.6667L526.5,48M525,37.333330000000004L525,32L526.5,32L526.5,37.333330000000004" fill="#DDDDDD" fill-opacity="1"/></g><g style="mix-blend-mode:passthrough"><path d="M317,32L317,37.333330000000004L315.5,37.333330000000004L315.5,32M317,42.6667L317,48L315.5,48L315.5,42.6667M210,48L210,42.6667L211.5,42.6667L211.5,48M210,37.333330000000004L210,32L211.5,32L211.5,37.333330000000004" fill="#DDDDDD" fill-opacity="1"/></g><g style="mix-blend-mode:passthrough"><path d="M737,32L737,37.333330000000004L735.5,37.333330000000004L735.5,32M737,42.6667L737,48L735.5,48L735.5,42.6667M630,48L630,42.6667L631.5,42.6667L631.5,48M630,37.333330000000004L630,32L631.5,32L631.5,37.333330000000004" fill="#DDDDDD" fill-opacity="1"/></g><g style="mix-blend-mode:passthrough"><path d="M422,32L422,37.333330000000004L420.5,37.333330000000004L420.5,32M422,42.6667L422,48L420.5,48L420.5,42.6667M315,48L315,42.6667L316.5,42.6667L316.5,48M315,37.333330000000004L315,32L316.5,32L316.5,37.333330000000004" fill="#DDDDDD" fill-opacity="1"/></g><g style="mix-blend-mode:passthrough"><path d="M57.8125,11.2734Q57.8125,14.6836,56.69336,16.4355Q55.58008,18.1875,53.49414,18.1875Q51.41992,18.1875,50.30078,16.4297Q49.1875,14.666,49.1875,11.2734Q49.1875,7.85742,50.30078,6.08789Q51.41992,4.3125,53.49414,4.3125Q55.58008,4.3125,56.69336,6.07617Q57.8125,7.83984,57.8125,11.2734ZM50.80469,11.2793Q50.80469,14.0273,51.45508,15.375Q52.11133,16.7168,53.49414,16.7168Q54.87109,16.7168,55.5332,15.3809Q56.19531,14.0449,56.19531,11.2793Q56.19531,8.49609,55.5332,7.14258Q54.87109,5.7832,53.49414,5.7832Q52.11133,5.7832,51.45508,7.14258Q50.80469,8.49609,50.80469,11.2793Z" fill="#DDDDDD" fill-opacity="1"/></g><g style="mix-blend-mode:passthrough"><path d="M476.6875,9.75L476.6875,13.5293L478.5625,13.5293L478.5625,15L476.6875,15L476.6875,18L475.07031,18L475.07031,15L469.1875,15L469.1875,13.8164L474.17969,4.5L475.94336,4.5L471.07422,13.5293L475.07031,13.5293L475.07031,9.75L476.6875,9.75Z" fill="#DDDDDD" fill-opacity="1"/></g><g style="mix-blend-mode:passthrough"><path d="M155.3125,8.47852L155.3125,6.78516L159.08008,4.5L160.30469,4.5L160.30469,18L158.6875,18L158.6875,6.46875L155.3125,8.47852Z" fill="#DDDDDD" fill-opacity="1"/></g><g style="mix-blend-mode:passthrough"><path d="M578.59375,9.4043Q579.74805,9.4043,580.65039,9.9668Q581.55859,10.5293,582.05664,11.5137Q582.55469,12.4922,582.55469,13.7402Q582.55469,15.0527,581.99805,16.0605Q581.44727,17.0684,580.48633,17.6309Q579.52539,18.1875,578.34766,18.1875Q577.04688,18.1875,576.03906,17.5254Q575.03125,16.8574,574.63867,15.5684L575.93359,14.8125Q576.25586,15.7559,576.87695,16.2363Q577.49805,16.7168,578.38281,16.7168Q579.57227,16.7168,580.25195,15.9023Q580.9375,15.0879,580.9375,13.8164Q580.9375,12.5801,580.28125,11.7305Q579.625,10.875,578.38281,10.875Q576.81836,10.875,575.93359,12.334L574.9082,11.8008L575.81055,4.5L581.99219,4.5L581.99219,5.9707L577.21094,5.9707L576.68945,9.91406Q577.46875,9.4043,578.59375,9.4043Z" fill="#DDDDDD" fill-opacity="1"/></g><g style="mix-blend-mode:passthrough"><path d="M261.63672,16.5293L267.4375,16.5293L267.4375,18L259.1875,18L259.1875,16.9395L263.45898,12.0879Q264.66016,10.7285,265.11133,9.94922Q265.5625,9.16992,265.5625,8.24414Q265.5625,7.06641,264.92969,6.42773Q264.30273,5.7832,263.34766,5.7832Q262.375,5.7832,261.63672,6.45703Q260.89844,7.125,260.57617,8.22656L259.27539,7.4707Q259.66797,5.9707,260.82812,5.14453Q261.98828,4.3125,263.41797,4.3125Q264.44922,4.3125,265.30469,4.76367Q266.16602,5.21484,266.66992,6.08789Q267.17969,6.95508,267.17969,8.17969Q267.17969,9.375,266.61133,10.4414Q266.04297,11.5078,264.61914,13.1191L261.63672,16.5293Z" fill="#DDDDDD" fill-opacity="1"/></g><g style="mix-blend-mode:passthrough"><path d="M683.96289,9.75Q685.11719,9.75,686.01953,10.3125Q686.92188,10.8691,687.42578,11.8301Q687.92969,12.7852,687.92969,13.9453Q687.92969,15.1348,687.39062,16.1133Q686.85742,17.0859,685.89062,17.6367Q684.92969,18.1875,683.74609,18.1875Q682.52734,18.1875,681.57227,17.6367Q680.61719,17.0859,680.08984,16.0957Q679.5625,15.0996,679.5625,13.8281Q679.5625,12.832,679.9082,11.9941Q680.25391,11.1562,681.05078,9.79688L684.15625,4.5L685.98438,4.5L683.24805,9.1582Q682.99023,9.57422,682.73828,9.93164Q683.28906,9.75,683.96289,9.75ZM683.75781,16.7168Q684.91797,16.7168,685.61523,15.9551Q686.3125,15.1934,686.3125,13.9805Q686.3125,12.7559,685.62109,11.9883Q684.93555,11.2207,683.75781,11.2207Q682.57422,11.2207,681.87695,11.9883Q681.17969,12.7559,681.17969,13.9805Q681.17969,15.2109,681.87695,15.9668Q682.57422,16.7168,683.75781,16.7168Z" fill="#DDDDDD" fill-opacity="1"/></g><g style="mix-blend-mode:passthrough"><path d="M370.39844,10.7227Q371.61719,11.1094,372.21484,11.9824Q372.8125,12.8555,372.8125,14.1387Q372.8125,15.3984,372.23242,16.3242Q371.6582,17.2441,370.69141,17.7188Q369.73047,18.1875,368.58789,18.1875Q367.14062,18.1875,365.91602,17.4316Q364.69141,16.6699,364.26953,15.2168L365.56445,14.4492Q365.92188,15.5684,366.7832,16.1426Q367.64453,16.7168,368.64062,16.7168Q369.73633,16.7168,370.46289,16.0371Q371.19531,15.3516,371.19531,14.1328Q371.19531,11.625,367.76758,11.625L367.1875,11.625L367.1875,10.1543L367.82617,10.1543Q369.16797,10.1543,369.86523,9.50391Q370.5625,8.85352,370.5625,7.83398Q370.5625,6.87305,369.9707,6.32812Q369.37891,5.7832,368.43555,5.7832Q367.46289,5.7832,366.7832,6.36328Q366.10938,6.94336,365.74609,8.0332L364.45117,7.28906Q364.87891,5.81836,365.95117,5.06836Q367.0293,4.3125,368.47656,4.3125Q370.15234,4.3125,371.16602,5.27344Q372.17969,6.23438,372.17969,7.79883Q372.17969,8.79492,371.74023,9.5625Q371.30664,10.3242,370.39844,10.7227Z" fill="#DDDDDD" fill-opacity="1"/></g><g style="mix-blend-mode:passthrough"><path d="M842,32L842,37.333330000000004L840.5,37.333330000000004L840.5,32M842,42.6667L842,48L840.5,48L840.5,42.6667M735,48L735,42.6667L736.5,42.6667L736.5,48M735,37.333330000000004L735,32L736.5,32L736.5,37.333330000000004" fill="#DDDDDD" fill-opacity="1"/></g><g style="mix-blend-mode:passthrough"><path d="M790.98438,5.9707L784.5625,5.9707L784.5625,4.5L792.8125,4.5L792.8125,5.54883L787.85547,18L786.08008,18L790.98438,5.9707Z" fill="#DDDDDD" fill-opacity="1"/></g><g style="mix-blend-mode:passthrough"><g style="mix-blend-mode:passthrough"><path d="M57.8125,81.2734Q57.8125,84.6836,56.69336,86.4355Q55.58008,88.1875,53.49414,88.1875Q51.41992,88.1875,50.30078,86.4297Q49.1875,84.666,49.1875,81.2734Q49.1875,77.85742,50.30078,76.08789Q51.41992,74.3125,53.49414,74.3125Q55.58008,74.3125,56.69336,76.07617Q57.8125,77.83984,57.8125,81.2734ZM50.80469,81.2793Q50.80469,84.0273,51.45508,85.375Q52.11133,86.7168,53.49414,86.7168Q54.87109,86.7168,55.5332,85.3809Q56.19531,84.0449,56.19531,81.2793Q56.19531,78.49609,55.5332,77.14258Q54.87109,75.7832,53.49414,75.7832Q52.11133,75.7832,51.45508,77.14258Q50.80469,78.49609,50.80469,81.2793Z" fill="#DDDDDD" fill-opacity="1"/></g><path d="M0,62L0,54L1.5,54L1.5,62L0,62ZM0,74L0,66L1.5,66L1.5,74L0,74ZM0,86L0,78L1.5,78L1.5,86L0,86ZM0,98L0,90L1.5,90L1.5,98L0,98ZM0,110L0,102L1.5,102L1.5,110L0,110ZM15.8519,118L7.92593,118L7.92593,116.5L15.8519,116.5L15.8519,118ZM27.7407,118L19.8148,118L19.8148,116.5L27.7407,116.5L27.7407,118ZM39.6296,118L31.7037,118L31.7037,116.5L39.6296,116.5L39.6296,118ZM51.5185,118L43.5926,118L43.5926,116.5L51.5185,116.5L51.5185,118ZM63.4074,118L55.4815,118L55.4815,116.5L63.4074,116.5L63.4074,118ZM75.2963,118L67.3704,118L67.3704,116.5L75.2963,116.5L75.2963,118ZM87.1852,118L79.2593,118L79.2593,116.5L87.1852,116.5L87.1852,118ZM99.0741,118L91.1481,118L91.1481,116.5L99.0741,116.5L99.0741,118ZM107,102L107,110L105.5,110L105.5,102L107,102ZM107,90L107,98L105.5,98L105.5,90L107,90ZM107,78L107,86L105.5,86L105.5,78L107,78ZM107,66L107,74L105.5,74L105.5,66L107,66ZM107,54L107,62L105.5,62L105.5,54L107,54ZM91.1481,46L99.0741,46L99.0741,47.5L91.1481,47.5L91.1481,46ZM79.2593,46L87.1852,46L87.1852,47.5L79.2593,47.5L79.2593,46ZM67.3704,46L75.2963,46L75.2963,47.5L67.3704,47.5L67.3704,46ZM55.4815,46L63.4074,46L63.4074,47.5L55.4815,47.5L55.4815,46ZM43.5926,46L51.5185,46L51.5185,47.5L43.5926,47.5L43.5926,46ZM31.7037,46L39.6296,46L39.6296,47.5L31.7037,47.5L31.7037,46ZM19.8148,46L27.7407,46L27.7407,47.5L19.8148,47.5L19.8148,46ZM7.92593,46L15.8519,46L15.8519,47.5L7.92593,47.5L7.92593,46ZM3.96296,46L3.96296,47.5L1.5,47.5L1.5,50L0,50L0,46L3.96296,46ZM103.037,46L107,46L107,50L105.5,50L105.5,47.5L103.037,47.5L103.037,46ZM107,114L107,118L103.037,118L103.037,116.5L105.5,116.5L105.5,114L107,114ZM3.96297,118L0,118L0,114L1.5,114L1.5,116.5L3.96297,116.5L3.96297,118Z" fill-rule="evenodd" fill="#DDDDDD" fill-opacity="1"/></g><g style="mix-blend-mode:passthrough"><g style="mix-blend-mode:passthrough"><path d="M49.86719,150.1543L56.875,150.1543L56.875,144.5L58.4922,144.5L58.4922,158L56.875,158L56.875,151.625L49.86719,151.625L49.86719,158L48.25,158L48.25,144.5L49.86719,144.5L49.86719,150.1543Z" fill="#DDDDDD" fill-opacity="1"/></g><path d="M0,132L0,124L1.5,124L1.5,132L0,132ZM0,144L0,136L1.5,136L1.5,144L0,144ZM0,156L0,148L1.5,148L1.5,156L0,156ZM0,168L0,160L1.5,160L1.5,168L0,168ZM0,180L0,172L1.5,172L1.5,180L0,180ZM15.8519,188L7.92593,188L7.92593,186.5L15.8519,186.5L15.8519,188ZM27.7407,188L19.8148,188L19.8148,186.5L27.7407,186.5L27.7407,188ZM39.6296,188L31.7037,188L31.7037,186.5L39.6296,186.5L39.6296,188ZM51.5185,188L43.5926,188L43.5926,186.5L51.5185,186.5L51.5185,188ZM63.4074,188L55.4815,188L55.4815,186.5L63.4074,186.5L63.4074,188ZM75.2963,188L67.3704,188L67.3704,186.5L75.2963,186.5L75.2963,188ZM87.1852,188L79.2593,188L79.2593,186.5L87.1852,186.5L87.1852,188ZM99.0741,188L91.1481,188L91.1481,186.5L99.0741,186.5L99.0741,188ZM107,172L107,180L105.5,180L105.5,172L107,172ZM107,160L107,168L105.5,168L105.5,160L107,160ZM107,148L107,156L105.5,156L105.5,148L107,148ZM107,136L107,144L105.5,144L105.5,136L107,136ZM107,124L107,132L105.5,132L105.5,124L107,124ZM91.1481,116L99.0741,116L99.0741,117.5L91.1481,117.5L91.1481,116ZM79.2593,116L87.1852,116L87.1852,117.5L79.2593,117.5L79.2593,116ZM67.3704,116L75.2963,116L75.2963,117.5L67.3704,117.5L67.3704,116ZM55.4815,116L63.4074,116L63.4074,117.5L55.4815,117.5L55.4815,116ZM43.5926,116L51.5185,116L51.5185,117.5L43.5926,117.5L43.5926,116ZM31.7037,116L39.6296,116L39.6296,117.5L31.7037,117.5L31.7037,116ZM19.8148,116L27.7407,116L27.7407,117.5L19.8148,117.5L19.8148,116ZM7.92593,116L15.8519,116L15.8519,117.5L7.92593,117.5L7.92593,116ZM3.96296,116L3.96296,117.5L1.5,117.5L1.5,120L0,120L0,116L3.96296,116ZM103.037,116L107,116L107,120L105.5,120L105.5,117.5L103.037,117.5L103.037,116ZM107,184L107,188L103.037,188L103.037,186.5L105.5,186.5L105.5,184L107,184ZM3.96297,188L0,188L0,184L1.5,184L1.5,186.5L3.96297,186.5L3.96297,188Z" fill-rule="evenodd" fill="#DDDDDD" fill-opacity="1"/></g><g style="mix-blend-mode:passthrough"><g style="mix-blend-mode:passthrough"></g><path d="M0,186.0000000596046L3.96296,186.0000000596046L3.96296,187.5L0,187.5M7.92593,186.0000000596046L15.8519,186.0000000596046L15.8519,187.5L7.92593,187.5M19.8148,186.0000000596046L27.7407,186.0000000596046L27.7407,187.5L19.8148,187.5M31.7037,186.0000000596046L39.6296,186.0000000596046L39.6296,187.5L31.7037,187.5M43.5926,186.0000000596046L51.5185,186.0000000596046L51.5185,187.5L43.5926,187.5M55.4815,186.0000000596046L63.4074,186.0000000596046L63.4074,187.5L55.4815,187.5M67.3704,186.0000000596046L75.2963,186.0000000596046L75.2963,187.5L67.3704,187.5M79.2592,186.0000000596046L87.1852,186.0000000596046L87.1852,187.5L79.2592,187.5M91.1481,186.0000000596046L99.0741,186.0000000596046L99.0741,187.5L91.1481,187.5M103.037,186.0000000596046L107,186.0000000596046L107,187.5L103.037,187.5M107,258L103.037,258L103.037,256.5L107,256.5M99.0741,258L91.1481,258L91.1481,256.5L99.0741,256.5M87.1852,258L79.2593,258L79.2593,256.5L87.1852,256.5M75.2963,258L67.3704,258L67.3704,256.5L75.2963,256.5M63.4074,258L55.4815,258L55.4815,256.5L63.4074,256.5M51.5185,258L43.5926,258L43.5926,256.5L51.5185,256.5M39.6296,258L31.7037,258L31.7037,256.5L39.6296,256.5M27.7408,258L19.8148,258L19.8148,256.5L27.7408,256.5M15.8519,258L7.92593,258L7.92593,256.5L15.8519,256.5M3.96297,258L0.00000762939,258L0.00000762939,256.5L3.96297,256.5M0,258L0,254L1.5,254L1.5,258M0,250L0,242L1.5,242L1.5,250M0,238L0,230L1.5,230L1.5,238M0,226L0,218L1.5,218L1.5,226M0,214L0,206L1.5,206L1.5,214M0,202L0,194L1.5,194L1.5,202M0,190L0,186L1.5,186L1.5,190" fill="#DDDDDD" fill-opacity="1"/></g><g style="mix-blend-mode:passthrough"><g style="mix-blend-mode:passthrough"><path d="M162.81243896484375,81.2734Q162.81243896484375,84.6836,161.69329896484376,86.4355Q160.58001896484376,88.1875,158.49407896484374,88.1875Q156.41985896484374,88.1875,155.30071896484375,86.4297Q154.18743896484375,84.666,154.18743896484375,81.2734Q154.18743896484375,77.85742,155.30071896484375,76.08789Q156.41985896484374,74.3125,158.49407896484374,74.3125Q160.58001896484376,74.3125,161.69329896484376,76.07617Q162.81243896484375,77.83984,162.81243896484375,81.2734ZM155.80462896484374,81.2793Q155.80462896484374,84.0273,156.45501896484376,85.375Q157.11126896484376,86.7168,158.49407896484374,86.7168Q159.87102896484376,86.7168,160.53313896484374,85.3809Q161.19524896484376,84.0449,161.19524896484376,81.2793Q161.19524896484376,78.49609,160.53313896484374,77.14258Q159.87102896484376,75.7832,158.49407896484374,75.7832Q157.11126896484376,75.7832,156.45501896484376,77.14258Q155.80462896484374,78.49609,155.80462896484374,81.2793Z" fill="#DDDDDD" fill-opacity="1"/></g><path d="M104.99993896484375,62L104.99993896484375,54L106.49993896484375,54L106.49993896484375,62L104.99993896484375,62ZM104.99993896484375,74L104.99993896484375,66L106.49993896484375,66L106.49993896484375,74L104.99993896484375,74ZM104.99993896484375,86L104.99993896484375,78L106.49993896484375,78L106.49993896484375,86L104.99993896484375,86ZM104.99993896484375,98L104.99993896484375,90L106.49993896484375,90L106.49993896484375,98L104.99993896484375,98ZM104.99993896484375,110L104.99993896484375,102L106.49993896484375,102L106.49993896484375,110L104.99993896484375,110ZM120.85183896484375,118L112.92586896484374,118L112.92586896484374,116.5L120.85183896484375,116.5L120.85183896484375,118ZM132.74063896484375,118L124.81473896484376,118L124.81473896484376,116.5L132.74063896484375,116.5L132.74063896484375,118ZM144.62953896484376,118L136.70363896484375,118L136.70363896484375,116.5L144.62953896484376,116.5L144.62953896484376,118ZM156.51843896484377,118L148.59253896484375,118L148.59253896484375,116.5L156.51843896484377,116.5L156.51843896484377,118ZM168.40733896484375,118L160.48143896484373,118L160.48143896484373,116.5L168.40733896484375,116.5L168.40733896484375,118ZM180.29623896484375,118L172.37033896484377,118L172.37033896484377,116.5L180.29623896484375,116.5L180.29623896484375,118ZM192.18513896484376,118L184.25923896484375,118L184.25923896484375,116.5L192.18513896484376,116.5L192.18513896484376,118ZM204.07403896484374,118L196.14803896484375,118L196.14803896484375,116.5L204.07403896484374,116.5L204.07403896484374,118ZM211.99993896484375,102L211.99993896484375,110L210.49993896484375,110L210.49993896484375,102L211.99993896484375,102ZM211.99993896484375,90L211.99993896484375,98L210.49993896484375,98L210.49993896484375,90L211.99993896484375,90ZM211.99993896484375,78L211.99993896484375,86L210.49993896484375,86L210.49993896484375,78L211.99993896484375,78ZM211.99993896484375,66L211.99993896484375,74L210.49993896484375,74L210.49993896484375,66L211.99993896484375,66ZM211.99993896484375,54L211.99993896484375,62L210.49993896484375,62L210.49993896484375,54L211.99993896484375,54ZM196.14803896484375,46L204.07403896484374,46L204.07403896484374,47.5L196.14803896484375,47.5L196.14803896484375,46ZM184.25923896484375,46L192.18513896484376,46L192.18513896484376,47.5L184.25923896484375,47.5L184.25923896484375,46ZM172.37033896484377,46L180.29623896484375,46L180.29623896484375,47.5L172.37033896484377,47.5L172.37033896484377,46ZM160.48143896484373,46L168.40733896484375,46L168.40733896484375,47.5L160.48143896484373,47.5L160.48143896484373,46ZM148.59253896484375,46L156.51843896484377,46L156.51843896484377,47.5L148.59253896484375,47.5L148.59253896484375,46ZM136.70363896484375,46L144.62953896484376,46L144.62953896484376,47.5L136.70363896484375,47.5L136.70363896484375,46ZM124.81473896484376,46L132.74063896484375,46L132.74063896484375,47.5L124.81473896484376,47.5L124.81473896484376,46ZM112.92586896484374,46L120.85183896484375,46L120.85183896484375,47.5L112.92586896484374,47.5L112.92586896484374,46ZM108.96289896484375,46L108.96289896484375,47.5L106.49993896484375,47.5L106.49993896484375,50L104.99993896484375,50L104.99993896484375,46L108.96289896484375,46ZM208.03693896484376,46L211.99993896484375,46L211.99993896484375,50L210.49993896484375,50L210.49993896484375,47.5L208.03693896484376,47.5L208.03693896484376,46ZM211.99993896484375,114L211.99993896484375,118L208.03693896484376,118L208.03693896484376,116.5L210.49993896484375,116.5L210.49993896484375,114L211.99993896484375,114ZM108.96290896484375,118L104.99993896484375,118L104.99993896484375,114L106.49993896484375,114L106.49993896484375,116.5L108.96290896484375,116.5L108.96290896484375,118Z" fill-rule="evenodd" fill="#DDDDDD" fill-opacity="1"/></g><g style="mix-blend-mode:passthrough"><g style="mix-blend-mode:passthrough"></g><path d="M104.99993896484375,116.0000000596046L108.96289896484375,116.0000000596046L108.96289896484375,117.5L104.99993896484375,117.5M112.92586896484374,116.0000000596046L120.85183896484375,116.0000000596046L120.85183896484375,117.5L112.92586896484374,117.5M124.81473896484376,116.0000000596046L132.74063896484375,116.0000000596046L132.74063896484375,117.5L124.81473896484376,117.5M136.70363896484375,116.0000000596046L144.62953896484376,116.0000000596046L144.62953896484376,117.5L136.70363896484375,117.5M148.59253896484375,116.0000000596046L156.51843896484377,116.0000000596046L156.51843896484377,117.5L148.59253896484375,117.5M160.48143896484373,116.0000000596046L168.40733896484375,116.0000000596046L168.40733896484375,117.5L160.48143896484373,117.5M172.37033896484377,116.0000000596046L180.29623896484375,116.0000000596046L180.29623896484375,117.5L172.37033896484377,117.5M184.25913896484377,116.0000000596046L192.18513896484376,116.0000000596046L192.18513896484376,117.5L184.25913896484377,117.5M196.14803896484375,116.0000000596046L204.07403896484374,116.0000000596046L204.07403896484374,117.5L196.14803896484375,117.5M208.03693896484376,116.0000000596046L211.99993896484375,116.0000000596046L211.99993896484375,117.5L208.03693896484376,117.5M211.99993896484375,188L208.03693896484376,188L208.03693896484376,186.5L211.99993896484375,186.5M204.07403896484374,188L196.14803896484375,188L196.14803896484375,186.5L204.07403896484374,186.5M192.18513896484376,188L184.25923896484375,188L184.25923896484375,186.5L192.18513896484376,186.5M180.29623896484375,188L172.37033896484377,188L172.37033896484377,186.5L180.29623896484375,186.5M168.40733896484375,188L160.48143896484373,188L160.48143896484373,186.5L168.40733896484375,186.5M156.51843896484377,188L148.59253896484375,188L148.59253896484375,186.5L156.51843896484377,186.5M144.62953896484376,188L136.70363896484375,188L136.70363896484375,186.5L144.62953896484376,186.5M132.74073896484376,188L124.81473896484376,188L124.81473896484376,186.5L132.74073896484376,186.5M120.85183896484375,188L112.92586896484374,188L112.92586896484374,186.5L120.85183896484375,186.5M108.96290896484375,188L104.99994659423375,188L104.99994659423375,186.5L108.96290896484375,186.5M104.99993896484375,188L104.99993896484375,184L106.49993896484375,184L106.49993896484375,188M104.99993896484375,180L104.99993896484375,172L106.49993896484375,172L106.49993896484375,180M104.99993896484375,168L104.99993896484375,160L106.49993896484375,160L106.49993896484375,168M104.99993896484375,156L104.99993896484375,148L106.49993896484375,148L106.49993896484375,156M104.99993896484375,144L104.99993896484375,136L106.49993896484375,136L106.49993896484375,144M104.99993896484375,132L104.99993896484375,124L106.49993896484375,124L106.49993896484375,132M104.99993896484375,120L104.99993896484375,116L106.49993896484375,116L106.49993896484375,120" fill="#DDDDDD" fill-opacity="1"/></g><g style="mix-blend-mode:passthrough"><g style="mix-blend-mode:passthrough"></g><path d="M104.99993896484375,186.0000000596046L108.96289896484375,186.0000000596046L108.96289896484375,187.5L104.99993896484375,187.5M112.92586896484374,186.0000000596046L120.85183896484375,186.0000000596046L120.85183896484375,187.5L112.92586896484374,187.5M124.81473896484376,186.0000000596046L132.74063896484375,186.0000000596046L132.74063896484375,187.5L124.81473896484376,187.5M136.70363896484375,186.0000000596046L144.62953896484376,186.0000000596046L144.62953896484376,187.5L136.70363896484375,187.5M148.59253896484375,186.0000000596046L156.51843896484377,186.0000000596046L156.51843896484377,187.5L148.59253896484375,187.5M160.48143896484373,186.0000000596046L168.40733896484375,186.0000000596046L168.40733896484375,187.5L160.48143896484373,187.5M172.37033896484377,186.0000000596046L180.29623896484375,186.0000000596046L180.29623896484375,187.5L172.37033896484377,187.5M184.25913896484377,186.0000000596046L192.18513896484376,186.0000000596046L192.18513896484376,187.5L184.25913896484377,187.5M196.14803896484375,186.0000000596046L204.07403896484374,186.0000000596046L204.07403896484374,187.5L196.14803896484375,187.5M208.03693896484376,186.0000000596046L211.99993896484375,186.0000000596046L211.99993896484375,187.5L208.03693896484376,187.5M211.99993896484375,258L208.03693896484376,258L208.03693896484376,256.5L211.99993896484375,256.5M204.07403896484374,258L196.14803896484375,258L196.14803896484375,256.5L204.07403896484374,256.5M192.18513896484376,258L184.25923896484375,258L184.25923896484375,256.5L192.18513896484376,256.5M180.29623896484375,258L172.37033896484377,258L172.37033896484377,256.5L180.29623896484375,256.5M168.40733896484375,258L160.48143896484373,258L160.48143896484373,256.5L168.40733896484375,256.5M156.51843896484377,258L148.59253896484375,258L148.59253896484375,256.5L156.51843896484377,256.5M144.62953896484376,258L136.70363896484375,258L136.70363896484375,256.5L144.62953896484376,256.5M132.74073896484376,258L124.81473896484376,258L124.81473896484376,256.5L132.74073896484376,256.5M120.85183896484375,258L112.92586896484374,258L112.92586896484374,256.5L120.85183896484375,256.5M108.96290896484375,258L104.99994659423375,258L104.99994659423375,256.5L108.96290896484375,256.5" fill="#DDDDDD" fill-opacity="1"/></g><g style="mix-blend-mode:passthrough"><g style="mix-blend-mode:passthrough"><path d="M267.8125,81.2734Q267.8125,84.6836,266.69336,86.4355Q265.58008,88.1875,263.49414,88.1875Q261.41992,88.1875,260.30078,86.4297Q259.1875,84.666,259.1875,81.2734Q259.1875,77.85742,260.30078,76.08789Q261.41992,74.3125,263.49414,74.3125Q265.58008,74.3125,266.69336,76.07617Q267.8125,77.83984,267.8125,81.2734ZM260.80469,81.2793Q260.80469,84.0273,261.45508,85.375Q262.11133,86.7168,263.49414,86.7168Q264.87109,86.7168,265.5332,85.3809Q266.19531,84.0449,266.19531,81.2793Q266.19531,78.49609,265.5332,77.14258Q264.87109,75.7832,263.49414,75.7832Q262.11133,75.7832,261.45508,77.14258Q260.80469,78.49609,260.80469,81.2793Z" fill="#DDDDDD" fill-opacity="1"/></g><path d="M210,62L210,54L211.5,54L211.5,62L210,62ZM210,74L210,66L211.5,66L211.5,74L210,74ZM210,86L210,78L211.5,78L211.5,86L210,86ZM210,98L210,90L211.5,90L211.5,98L210,98ZM210,110L210,102L211.5,102L211.5,110L210,110ZM225.8519,118L217.92593,118L217.92593,116.5L225.8519,116.5L225.8519,118ZM237.7407,118L229.8148,118L229.8148,116.5L237.7407,116.5L237.7407,118ZM249.6296,118L241.7037,118L241.7037,116.5L249.6296,116.5L249.6296,118ZM261.5185,118L253.5926,118L253.5926,116.5L261.5185,116.5L261.5185,118ZM273.4074,118L265.4815,118L265.4815,116.5L273.4074,116.5L273.4074,118ZM285.2963,118L277.3704,118L277.3704,116.5L285.2963,116.5L285.2963,118ZM297.1852,118L289.2593,118L289.2593,116.5L297.1852,116.5L297.1852,118ZM309.0741,118L301.1481,118L301.1481,116.5L309.0741,116.5L309.0741,118ZM317,102L317,110L315.5,110L315.5,102L317,102ZM317,90L317,98L315.5,98L315.5,90L317,90ZM317,78L317,86L315.5,86L315.5,78L317,78ZM317,66L317,74L315.5,74L315.5,66L317,66ZM317,54L317,62L315.5,62L315.5,54L317,54ZM301.1481,46L309.0741,46L309.0741,47.5L301.1481,47.5L301.1481,46ZM289.2593,46L297.1852,46L297.1852,47.5L289.2593,47.5L289.2593,46ZM277.3704,46L285.2963,46L285.2963,47.5L277.3704,47.5L277.3704,46ZM265.4815,46L273.4074,46L273.4074,47.5L265.4815,47.5L265.4815,46ZM253.5926,46L261.5185,46L261.5185,47.5L253.5926,47.5L253.5926,46ZM241.7037,46L249.6296,46L249.6296,47.5L241.7037,47.5L241.7037,46ZM229.8148,46L237.7407,46L237.7407,47.5L229.8148,47.5L229.8148,46ZM217.92593,46L225.8519,46L225.8519,47.5L217.92593,47.5L217.92593,46ZM213.96296,46L213.96296,47.5L211.5,47.5L211.5,50L210,50L210,46L213.96296,46ZM313.03700000000003,46L317,46L317,50L315.5,50L315.5,47.5L313.03700000000003,47.5L313.03700000000003,46ZM317,114L317,118L313.03700000000003,118L313.03700000000003,116.5L315.5,116.5L315.5,114L317,114ZM213.96297,118L210,118L210,114L211.5,114L211.5,116.5L213.96297,116.5L213.96297,118Z" fill-rule="evenodd" fill="#DDDDDD" fill-opacity="1"/></g><g style="mix-blend-mode:passthrough"><g style="mix-blend-mode:passthrough"></g><path d="M210,116.0000000596046L213.96296,116.0000000596046L213.96296,117.5L210,117.5M217.92593,116.0000000596046L225.8519,116.0000000596046L225.8519,117.5L217.92593,117.5M229.8148,116.0000000596046L237.7407,116.0000000596046L237.7407,117.5L229.8148,117.5M241.7037,116.0000000596046L249.6296,116.0000000596046L249.6296,117.5L241.7037,117.5M253.5926,116.0000000596046L261.5185,116.0000000596046L261.5185,117.5L253.5926,117.5M265.4815,116.0000000596046L273.4074,116.0000000596046L273.4074,117.5L265.4815,117.5M277.3704,116.0000000596046L285.2963,116.0000000596046L285.2963,117.5L277.3704,117.5M289.2592,116.0000000596046L297.1852,116.0000000596046L297.1852,117.5L289.2592,117.5M301.1481,116.0000000596046L309.0741,116.0000000596046L309.0741,117.5L301.1481,117.5M313.03700000000003,116.0000000596046L317,116.0000000596046L317,117.5L313.03700000000003,117.5M317,188L313.03700000000003,188L313.03700000000003,186.5L317,186.5M309.0741,188L301.1481,188L301.1481,186.5L309.0741,186.5M297.1852,188L289.2593,188L289.2593,186.5L297.1852,186.5M285.2963,188L277.3704,188L277.3704,186.5L285.2963,186.5M273.4074,188L265.4815,188L265.4815,186.5L273.4074,186.5M261.5185,188L253.5926,188L253.5926,186.5L261.5185,186.5M249.6296,188L241.7037,188L241.7037,186.5L249.6296,186.5M237.7408,188L229.8148,188L229.8148,186.5L237.7408,186.5M225.8519,188L217.92593,188L217.92593,186.5L225.8519,186.5M213.96297,188L210.00000762939,188L210.00000762939,186.5L213.96297,186.5" fill="#DDDDDD" fill-opacity="1"/></g><g style="mix-blend-mode:passthrough"><g style="mix-blend-mode:passthrough"></g><path d="M210,186.0000000596046L213.96296,186.0000000596046L213.96296,187.5L210,187.5M217.92593,186.0000000596046L225.8519,186.0000000596046L225.8519,187.5L217.92593,187.5M229.8148,186.0000000596046L237.7407,186.0000000596046L237.7407,187.5L229.8148,187.5M241.7037,186.0000000596046L249.6296,186.0000000596046L249.6296,187.5L241.7037,187.5M253.5926,186.0000000596046L261.5185,186.0000000596046L261.5185,187.5L253.5926,187.5M265.4815,186.0000000596046L273.4074,186.0000000596046L273.4074,187.5L265.4815,187.5M277.3704,186.0000000596046L285.2963,186.0000000596046L285.2963,187.5L277.3704,187.5M289.2592,186.0000000596046L297.1852,186.0000000596046L297.1852,187.5L289.2592,187.5M301.1481,186.0000000596046L309.0741,186.0000000596046L309.0741,187.5L301.1481,187.5M313.03700000000003,186.0000000596046L317,186.0000000596046L317,187.5L313.03700000000003,187.5M317,258L313.03700000000003,258L313.03700000000003,256.5L317,256.5M309.0741,258L301.1481,258L301.1481,256.5L309.0741,256.5M297.1852,258L289.2593,258L289.2593,256.5L297.1852,256.5M285.2963,258L277.3704,258L277.3704,256.5L285.2963,256.5M273.4074,258L265.4815,258L265.4815,256.5L273.4074,256.5M261.5185,258L253.5926,258L253.5926,256.5L261.5185,256.5M249.6296,258L241.7037,258L241.7037,256.5L249.6296,256.5M237.7408,258L229.8148,258L229.8148,256.5L237.7408,256.5M225.8519,258L217.92593,258L217.92593,256.5L225.8519,256.5M213.96297,258L210.00000762939,258L210.00000762939,256.5L213.96297,256.5" fill="#DDDDDD" fill-opacity="1"/></g><g style="mix-blend-mode:passthrough"><g style="mix-blend-mode:passthrough"><path d="M372.8125,81.2734Q372.8125,84.6836,371.69336,86.4355Q370.58008,88.1875,368.49414,88.1875Q366.41992,88.1875,365.30078,86.4297Q364.1875,84.666,364.1875,81.2734Q364.1875,77.85742,365.30078,76.08789Q366.41992,74.3125,368.49414,74.3125Q370.58008,74.3125,371.69336,76.07617Q372.8125,77.83984,372.8125,81.2734ZM365.80469,81.2793Q365.80469,84.0273,366.45508,85.375Q367.11133,86.7168,368.49414,86.7168Q369.87109,86.7168,370.5332,85.3809Q371.19531,84.0449,371.19531,81.2793Q371.19531,78.49609,370.5332,77.14258Q369.87109,75.7832,368.49414,75.7832Q367.11133,75.7832,366.45508,77.14258Q365.80469,78.49609,365.80469,81.2793Z" fill="#DDDDDD" fill-opacity="1"/></g><path d="M315,62L315,54L316.5,54L316.5,62L315,62ZM315,74L315,66L316.5,66L316.5,74L315,74ZM315,86L315,78L316.5,78L316.5,86L315,86ZM315,98L315,90L316.5,90L316.5,98L315,98ZM315,110L315,102L316.5,102L316.5,110L315,110ZM330.8519,118L322.92593,118L322.92593,116.5L330.8519,116.5L330.8519,118ZM342.7407,118L334.8148,118L334.8148,116.5L342.7407,116.5L342.7407,118ZM354.6296,118L346.7037,118L346.7037,116.5L354.6296,116.5L354.6296,118ZM366.5185,118L358.5926,118L358.5926,116.5L366.5185,116.5L366.5185,118ZM378.4074,118L370.4815,118L370.4815,116.5L378.4074,116.5L378.4074,118ZM390.2963,118L382.3704,118L382.3704,116.5L390.2963,116.5L390.2963,118ZM402.1852,118L394.2593,118L394.2593,116.5L402.1852,116.5L402.1852,118ZM414.0741,118L406.1481,118L406.1481,116.5L414.0741,116.5L414.0741,118ZM422,102L422,110L420.5,110L420.5,102L422,102ZM422,90L422,98L420.5,98L420.5,90L422,90ZM422,78L422,86L420.5,86L420.5,78L422,78ZM422,66L422,74L420.5,74L420.5,66L422,66ZM422,54L422,62L420.5,62L420.5,54L422,54ZM406.1481,46L414.0741,46L414.0741,47.5L406.1481,47.5L406.1481,46ZM394.2593,46L402.1852,46L402.1852,47.5L394.2593,47.5L394.2593,46ZM382.3704,46L390.2963,46L390.2963,47.5L382.3704,47.5L382.3704,46ZM370.4815,46L378.4074,46L378.4074,47.5L370.4815,47.5L370.4815,46ZM358.5926,46L366.5185,46L366.5185,47.5L358.5926,47.5L358.5926,46ZM346.7037,46L354.6296,46L354.6296,47.5L346.7037,47.5L346.7037,46ZM334.8148,46L342.7407,46L342.7407,47.5L334.8148,47.5L334.8148,46ZM322.92593,46L330.8519,46L330.8519,47.5L322.92593,47.5L322.92593,46ZM318.96296,46L318.96296,47.5L316.5,47.5L316.5,50L315,50L315,46L318.96296,46ZM418.03700000000003,46L422,46L422,50L420.5,50L420.5,47.5L418.03700000000003,47.5L418.03700000000003,46ZM422,114L422,118L418.03700000000003,118L418.03700000000003,116.5L420.5,116.5L420.5,114L422,114ZM318.96297,118L315,118L315,114L316.5,114L316.5,116.5L318.96297,116.5L318.96297,118Z" fill-rule="evenodd" fill="#DDDDDD" fill-opacity="1"/></g><g style="mix-blend-mode:passthrough"><g style="mix-blend-mode:passthrough"></g><path d="M315,116.0000000596046L318.96296,116.0000000596046L318.96296,117.5L315,117.5M322.92593,116.0000000596046L330.8519,116.0000000596046L330.8519,117.5L322.92593,117.5M334.8148,116.0000000596046L342.7407,116.0000000596046L342.7407,117.5L334.8148,117.5M346.7037,116.0000000596046L354.6296,116.0000000596046L354.6296,117.5L346.7037,117.5M358.5926,116.0000000596046L366.5185,116.0000000596046L366.5185,117.5L358.5926,117.5M370.4815,116.0000000596046L378.4074,116.0000000596046L378.4074,117.5L370.4815,117.5M382.3704,116.0000000596046L390.2963,116.0000000596046L390.2963,117.5L382.3704,117.5M394.2592,116.0000000596046L402.1852,116.0000000596046L402.1852,117.5L394.2592,117.5M406.1481,116.0000000596046L414.0741,116.0000000596046L414.0741,117.5L406.1481,117.5M418.03700000000003,116.0000000596046L422,116.0000000596046L422,117.5L418.03700000000003,117.5M422,188L418.03700000000003,188L418.03700000000003,186.5L422,186.5M414.0741,188L406.1481,188L406.1481,186.5L414.0741,186.5M402.1852,188L394.2593,188L394.2593,186.5L402.1852,186.5M390.2963,188L382.3704,188L382.3704,186.5L390.2963,186.5M378.4074,188L370.4815,188L370.4815,186.5L378.4074,186.5M366.5185,188L358.5926,188L358.5926,186.5L366.5185,186.5M354.6296,188L346.7037,188L346.7037,186.5L354.6296,186.5M342.7408,188L334.8148,188L334.8148,186.5L342.7408,186.5M330.8519,188L322.92593,188L322.92593,186.5L330.8519,186.5M318.96297,188L315.00000762939,188L315.00000762939,186.5L318.96297,186.5" fill="#DDDDDD" fill-opacity="1"/></g><g style="mix-blend-mode:passthrough"><g style="mix-blend-mode:passthrough"></g><path d="M315,186.0000000596046L318.96296,186.0000000596046L318.96296,187.5L315,187.5M322.92593,186.0000000596046L330.8519,186.0000000596046L330.8519,187.5L322.92593,187.5M334.8148,186.0000000596046L342.7407,186.0000000596046L342.7407,187.5L334.8148,187.5M346.7037,186.0000000596046L354.6296,186.0000000596046L354.6296,187.5L346.7037,187.5M358.5926,186.0000000596046L366.5185,186.0000000596046L366.5185,187.5L358.5926,187.5M370.4815,186.0000000596046L378.4074,186.0000000596046L378.4074,187.5L370.4815,187.5M382.3704,186.0000000596046L390.2963,186.0000000596046L390.2963,187.5L382.3704,187.5M394.2592,186.0000000596046L402.1852,186.0000000596046L402.1852,187.5L394.2592,187.5M406.1481,186.0000000596046L414.0741,186.0000000596046L414.0741,187.5L406.1481,187.5M418.03700000000003,186.0000000596046L422,186.0000000596046L422,187.5L418.03700000000003,187.5M422,258L418.03700000000003,258L418.03700000000003,256.5L422,256.5M414.0741,258L406.1481,258L406.1481,256.5L414.0741,256.5M402.1852,258L394.2593,258L394.2593,256.5L402.1852,256.5M390.2963,258L382.3704,258L382.3704,256.5L390.2963,256.5M378.4074,258L370.4815,258L370.4815,256.5L378.4074,256.5M366.5185,258L358.5926,258L358.5926,256.5L366.5185,256.5M354.6296,258L346.7037,258L346.7037,256.5L354.6296,256.5M342.7408,258L334.8148,258L334.8148,256.5L342.7408,256.5M330.8519,258L322.92593,258L322.92593,256.5L330.8519,256.5M318.96297,258L315.00000762939,258L315.00000762939,256.5L318.96297,256.5" fill="#DDDDDD" fill-opacity="1"/></g><g style="mix-blend-mode:passthrough"><g style="mix-blend-mode:passthrough"><path d="M469.87891,74.5L477.0625,85.0703L477.0625,74.5L478.6797,74.5L478.6797,88L477.2383,88L470.05469,77.41211L470.05469,88L468.4375,88L468.4375,74.5L469.87891,74.5Z" fill="#DDDDDD" fill-opacity="1"/></g><path d="M420,62L420,54L421.5,54L421.5,62L420,62ZM420,74L420,66L421.5,66L421.5,74L420,74ZM420,86L420,78L421.5,78L421.5,86L420,86ZM420,98L420,90L421.5,90L421.5,98L420,98ZM420,110L420,102L421.5,102L421.5,110L420,110ZM435.8519,118L427.92593,118L427.92593,116.5L435.8519,116.5L435.8519,118ZM447.7407,118L439.8148,118L439.8148,116.5L447.7407,116.5L447.7407,118ZM459.6296,118L451.7037,118L451.7037,116.5L459.6296,116.5L459.6296,118ZM471.5185,118L463.5926,118L463.5926,116.5L471.5185,116.5L471.5185,118ZM483.4074,118L475.4815,118L475.4815,116.5L483.4074,116.5L483.4074,118ZM495.2963,118L487.3704,118L487.3704,116.5L495.2963,116.5L495.2963,118ZM507.1852,118L499.2593,118L499.2593,116.5L507.1852,116.5L507.1852,118ZM519.0741,118L511.1481,118L511.1481,116.5L519.0741,116.5L519.0741,118ZM527,102L527,110L525.5,110L525.5,102L527,102ZM527,90L527,98L525.5,98L525.5,90L527,90ZM527,78L527,86L525.5,86L525.5,78L527,78ZM527,66L527,74L525.5,74L525.5,66L527,66ZM527,54L527,62L525.5,62L525.5,54L527,54ZM511.1481,46L519.0741,46L519.0741,47.5L511.1481,47.5L511.1481,46ZM499.2593,46L507.1852,46L507.1852,47.5L499.2593,47.5L499.2593,46ZM487.3704,46L495.2963,46L495.2963,47.5L487.3704,47.5L487.3704,46ZM475.4815,46L483.4074,46L483.4074,47.5L475.4815,47.5L475.4815,46ZM463.5926,46L471.5185,46L471.5185,47.5L463.5926,47.5L463.5926,46ZM451.7037,46L459.6296,46L459.6296,47.5L451.7037,47.5L451.7037,46ZM439.8148,46L447.7407,46L447.7407,47.5L439.8148,47.5L439.8148,46ZM427.92593,46L435.8519,46L435.8519,47.5L427.92593,47.5L427.92593,46ZM423.96296,46L423.96296,47.5L421.5,47.5L421.5,50L420,50L420,46L423.96296,46ZM523.037,46L527,46L527,50L525.5,50L525.5,47.5L523.037,47.5L523.037,46ZM527,114L527,118L523.037,118L523.037,116.5L525.5,116.5L525.5,114L527,114ZM423.96297,118L420,118L420,114L421.5,114L421.5,116.5L423.96297,116.5L423.96297,118Z" fill-rule="evenodd" fill="#DDDDDD" fill-opacity="1"/></g><g style="mix-blend-mode:passthrough"><g style="mix-blend-mode:passthrough"></g><path d="M420,116.0000000596046L423.96296,116.0000000596046L423.96296,117.5L420,117.5M427.92593,116.0000000596046L435.8519,116.0000000596046L435.8519,117.5L427.92593,117.5M439.8148,116.0000000596046L447.7407,116.0000000596046L447.7407,117.5L439.8148,117.5M451.7037,116.0000000596046L459.6296,116.0000000596046L459.6296,117.5L451.7037,117.5M463.5926,116.0000000596046L471.5185,116.0000000596046L471.5185,117.5L463.5926,117.5M475.4815,116.0000000596046L483.4074,116.0000000596046L483.4074,117.5L475.4815,117.5M487.3704,116.0000000596046L495.2963,116.0000000596046L495.2963,117.5L487.3704,117.5M499.2592,116.0000000596046L507.1852,116.0000000596046L507.1852,117.5L499.2592,117.5M511.1481,116.0000000596046L519.0741,116.0000000596046L519.0741,117.5L511.1481,117.5M523.037,116.0000000596046L527,116.0000000596046L527,117.5L523.037,117.5M527,188L523.037,188L523.037,186.5L527,186.5M519.0741,188L511.1481,188L511.1481,186.5L519.0741,186.5M507.1852,188L499.2593,188L499.2593,186.5L507.1852,186.5M495.2963,188L487.3704,188L487.3704,186.5L495.2963,186.5M483.4074,188L475.4815,188L475.4815,186.5L483.4074,186.5M471.5185,188L463.5926,188L463.5926,186.5L471.5185,186.5M459.6296,188L451.7037,188L451.7037,186.5L459.6296,186.5M447.7408,188L439.8148,188L439.8148,186.5L447.7408,186.5M435.8519,188L427.92593,188L427.92593,186.5L435.8519,186.5M423.96297,188L420.00000762939,188L420.00000762939,186.5L423.96297,186.5" fill="#DDDDDD" fill-opacity="1"/></g><g style="mix-blend-mode:passthrough"><g style="mix-blend-mode:passthrough"></g><path d="M420,186.0000000596046L423.96296,186.0000000596046L423.96296,187.5L420,187.5M427.92593,186.0000000596046L435.8519,186.0000000596046L435.8519,187.5L427.92593,187.5M439.8148,186.0000000596046L447.7407,186.0000000596046L447.7407,187.5L439.8148,187.5M451.7037,186.0000000596046L459.6296,186.0000000596046L459.6296,187.5L451.7037,187.5M463.5926,186.0000000596046L471.5185,186.0000000596046L471.5185,187.5L463.5926,187.5M475.4815,186.0000000596046L483.4074,186.0000000596046L483.4074,187.5L475.4815,187.5M487.3704,186.0000000596046L495.2963,186.0000000596046L495.2963,187.5L487.3704,187.5M499.2592,186.0000000596046L507.1852,186.0000000596046L507.1852,187.5L499.2592,187.5M511.1481,186.0000000596046L519.0741,186.0000000596046L519.0741,187.5L511.1481,187.5M523.037,186.0000000596046L527,186.0000000596046L527,187.5L523.037,187.5M527,258L523.037,258L523.037,256.5L527,256.5M519.0741,258L511.1481,258L511.1481,256.5L519.0741,256.5M507.1852,258L499.2593,258L499.2593,256.5L507.1852,256.5M495.2963,258L487.3704,258L487.3704,256.5L495.2963,256.5M483.4074,258L475.4815,258L475.4815,256.5L483.4074,256.5M471.5185,258L463.5926,258L463.5926,256.5L471.5185,256.5M459.6296,258L451.7037,258L451.7037,256.5L459.6296,256.5M447.7408,258L439.8148,258L439.8148,256.5L447.7408,256.5M435.8519,258L427.92593,258L427.92593,256.5L435.8519,256.5M423.96297,258L420.00000762939,258L420.00000762939,256.5L423.96297,256.5" fill="#DDDDDD" fill-opacity="1"/></g><g style="mix-blend-mode:passthrough"><g style="mix-blend-mode:passthrough"><path d="M635.3359,76Q633.8008,77.82227,631.8906,79.24609Q629.9805,80.6641,627.50781,81.8066L635.3125,81.8066L635.3125,89.125L633.9121,89.125L633.9121,88.2109L625.48633,88.2109L625.48633,89.125L624.0625,89.125L624.0625,83.2188Q622.46289,83.7812,620.93359,84.2383L620.376953,82.8906Q625.04102,81.584,628.15234,79.91992Q631.2637,78.25586,633.3555,76L626.60547,76Q626.13672,76.47461,625.61523,76.94922Q627.03906,77.98633,628.01172,78.80078L627.10938,79.9668Q626.04297,79.01758,624.51367,77.89258Q623.28906,78.89453,622.08789,79.65625L621.18555,78.41992Q622.9668,77.35352,624.74219,75.71875Q626.51758,74.08398,627.60156,72.61914L628.98438,73.14062Q628.5332,73.79102,627.84766,74.63477L635.3359,74.63477L635.3359,76ZM625.48633,86.875L633.9121,86.875L633.9121,83.125L625.48633,83.125L625.48633,86.875ZM647.5996,76.62109Q647.0137,78.28516,646.2285,79.82031L644.9688,79.15234Q645.666,77.875,646.293,76.15234Q646.9199,74.42383,647.248,72.87695L648.6543,73.11133Q648.4199,74.11914,648.0742,75.25L654.5254,75.25L654.5254,76.62109L653.1016,79.63867L651.8066,79.15234L653.0137,76.62109L647.5996,76.62109ZM642.3496,80.4004Q644.0664,82.0234,644.6406,82.6211L643.7559,83.6348Q643.4512,83.2891,642.3496,82.1875L642.3496,89.125L641.0371,89.125L641.0371,81.8242Q640.0469,84.4082,638.9277,86.0371L638.1367,84.8066Q638.9453,83.6172,639.6836,82.1348Q640.4219,80.6523,640.9082,79.20508L638.6582,79.20508L638.6582,77.875L641.0371,77.875L641.0371,75.44922Q639.3965,75.68359,638.875,75.73633L638.7285,74.42383Q640.0117,74.27734,641.582,74.01953Q643.1582,73.75586,644.3301,73.46875L644.5293,74.78125Q643.4629,75.05078,642.3496,75.23242L642.3496,77.875L644.3125,77.875L644.3125,79.20508L642.3496,79.20508L642.3496,80.4004ZM648.9473,78.05664L650.3125,78.05664L650.3125,87.1738Q650.3125,88.2051,649.8848,88.6445Q649.4629,89.084,648.4961,89.125Q647.5176,89.1602,646.7324,89.0312L646.4453,87.625Q647.2832,87.7715,648.0332,87.7715Q648.5254,87.7715,648.7363,87.4961Q648.9473,87.2148,648.9473,86.6523L648.9473,78.05664ZM652.7441,80.5059Q653.2129,81.6777,653.875,83.793Q654.543,85.9082,654.9062,87.2266L653.6406,87.6836Q653.2598,86.1484,652.6387,84.1855Q652.0234,82.2227,651.5195,80.9395L652.7441,80.5059ZM647.5469,81.0449Q647.1309,82.6914,646.4863,84.4902Q645.8477,86.2832,645.1152,87.6602L643.8438,87.1738Q644.5352,85.9434,645.1797,84.1738Q645.8301,82.4043,646.2812,80.7578L647.5469,81.0449ZM669.9766,84.5078Q668.4473,84.5957,665.3828,84.7422L665.3828,87.0566Q665.3828,88.1641,664.9844,88.6211Q664.5859,89.084,663.7246,89.125Q662.9453,89.1426,661.8379,89.0488L661.5859,87.7422Q661.7324,87.7598,662.2656,87.8301Q662.7988,87.9004,663.2676,87.9004Q663.6309,87.9004,663.7949,87.6016Q663.9590000000001,87.2969,663.9590000000001,86.6758L663.9590000000001,84.8301L659.418,85.0469L657.5195,85.1523L657.3027,83.875Q658.6973,83.875,659.0898,83.7461Q661.1113,83.0898,663.7012,81.6602Q662.2539,81.7656,659.6465000000001,81.9473L658.4159999999999,82.0469L658.2227,81.0508Q659.2363,80.9629,659.5938,80.8164Q660.7363,80.3535,663.2852,78.38477L658.5625,78.38477L658.5625,80.3652L657.0859,80.3652L657.0859,77.125L663.8125,77.125L663.8125,75.625L657.5195,75.625L657.5195,74.36523L663.8125,74.36523L663.8125,72.87109L665.2363,72.87109L665.2363,74.36523L671.623,74.36523L671.623,75.625L665.2363,75.625L665.2363,77.125L672.0391,77.125L672.0391,80.4004L670.5625,80.4004L670.5625,78.38477L665.1836,78.38477Q664.498,78.95898,663.5254,79.67383Q662.5586,80.3828,661.8555,80.8516L665.6816,80.541Q667.252,79.5918,668.1719,78.94141L668.957,80.0078Q666.8887,81.3789,665.3945,82.2578Q663.9004,83.1309,662.4355,83.6992L668.7402,83.3184Q667.9141,82.5508,667.5508,82.252L668.4824,81.373Q670.7852,83.4473,671.9277,84.7188L671.0664,85.6504Q670.8496,85.3984,670.2695,84.7949Q670.2695,84.7949,669.9766,84.5078ZM661.8203,86.3301Q660.7773,87.0449,659.4297,87.7656Q658.082,88.4863,656.7988,89.0371L656.2422,87.7246Q657.4727,87.2441,658.8496,86.5293Q660.2324,85.8086,661.1348,85.1523L661.8203,86.3301ZM667.4219,85.1348Q668.7109,85.75,671.8691,87.332L672.7012,87.7422L672.0742,88.9961Q671.1836,88.498,669.5137,87.6719Q667.8438,86.8398,666.7715000000001,86.3418L667.4219,85.1348ZM687.4082,72.97656L688.9375,72.97656L688.9375,89.125L687.4082,89.125L687.4082,72.97656ZM683.6875,73.75L683.6875,79.24609L677.4414,79.24609L677.2305,81.625L683.7812,81.625Q683.7637,83.8574,683.4355,86.4062Q683.2949,87.502,682.9784999999999,88.0703Q682.6621,88.6445,682.0117,88.8848Q681.3672,89.125,680.2188,89.125Q678.918,89.125,677.3887,88.9434L677.1016,87.5078Q678.8301,87.7715,680.1426,87.7715Q681.0098,87.7715,681.4023,87.3789Q681.8008,86.9863,681.9414,85.9961Q682.1758,84.4023,682.252,83.0254L675.6074,83.0254L676.0409999999999,77.875L682.1582,77.875L682.1582,75.13867L675.625,75.13867L675.625,73.75L683.6875,73.75ZM703.5332,81.3379Q703.5332,78.79492,704.377,76.64453Q705.2266,74.49414,706.7031,73L708.1562,73Q706.7031,74.76367,705.918,76.80859Q705.1328,78.85352,705.1328,81.3379Q705.1328,83.8398,705.918,85.8906Q706.7031,87.9414,708.1562,89.6699L706.7031,89.6699Q705.2266,88.1758,704.377,86.0371Q703.5332,83.8926,703.5332,81.3379ZM716.5234,80.7227Q717.7422,81.1094,718.3398,81.9824Q718.9375,82.8555,718.9375,84.1387Q718.9375,85.3984,718.3574,86.3242Q717.7832,87.2441,716.8164,87.7188Q715.8555,88.1875,714.7129,88.1875Q713.2656,88.1875,712.0409999999999,87.4316Q710.8164,86.6699,710.3945,85.2168L711.6895,84.4492Q712.0469,85.5684,712.9082,86.1426Q713.7695,86.7168,714.7656,86.7168Q715.8613,86.7168,716.5879,86.0371Q717.3203,85.3516,717.3203,84.1328Q717.3203,81.625,713.8926,81.625L713.3125,81.625L713.3125,80.1543L713.9512,80.1543Q715.293,80.1543,715.9902,79.50391Q716.6875,78.85352,716.6875,77.83398Q716.6875,76.87305,716.0957,76.32812Q715.5039,75.7832,714.5605,75.7832Q713.5879,75.7832,712.9082,76.36328Q712.2344,76.94336,711.8711,78.0332L710.5762,77.28906Q711.0039,75.81836,712.0762,75.06836Q713.1543,74.3125,714.6016,74.3125Q716.2773,74.3125,717.2909999999999,75.27344Q718.3047,76.23438,718.3047,77.79883Q718.3047,78.79492,717.8652,79.5625Q717.4316,80.3242,716.5234,80.7227ZM723.812,77.125L725.312,77.125L725.312,80.875L728.688,80.875L728.688,82.3457L725.312,82.3457L725.312,85.75L723.812,85.75L723.812,82.3457L720.438,82.3457L720.438,80.875L723.812,80.875L723.812,77.125ZM735.467,81.3379Q735.467,83.875,734.617,86.0254Q733.773,88.1758,732.297,89.6699L730.844,89.6699Q732.297,87.9062,733.082,85.8672Q733.867,83.8223,733.867,81.3379Q733.867,78.83594,733.082,76.78516Q732.297,74.72852,730.844,73L732.297,73Q733.773,74.49414,734.617,76.63867Q735.467,78.77734,735.467,81.3379Z" fill="#DDDDDD" fill-opacity="1"/></g><path d="M525,62L525,54L526.5,54L526.5,62L525,62ZM525,74L525,66L526.5,66L526.5,74L525,74ZM525,86L525,78L526.5,78L526.5,86L525,86ZM525,98L525,90L526.5,90L526.5,98L525,98ZM525,110L525,102L526.5,102L526.5,110L525,110ZM541.2563,118L533.12814,118L533.12814,116.5L541.2563,116.5L541.2563,118ZM553.4487,118L545.3205,118L545.3205,116.5L553.4487,116.5L553.4487,118ZM565.641,118L557.5128,118L557.5128,116.5L565.641,116.5L565.641,118ZM577.8333,118L569.7051,118L569.7051,116.5L577.8333,116.5L577.8333,118ZM590.0257,118L581.8974,118L581.8974,116.5L590.0257,116.5L590.0257,118ZM602.218,118L594.0898,118L594.0898,116.5L602.218,116.5L602.218,118ZM614.4103,118L606.2821,118L606.2821,116.5L614.4103,116.5L614.4103,118ZM626.603,118L618.4744000000001,118L618.4744000000001,116.5L626.603,116.5L626.603,118ZM638.795,118L630.667,118L630.667,116.5L638.795,116.5L638.795,118ZM650.987,118L642.859,118L642.859,116.5L650.987,116.5L650.987,118ZM663.179,118L655.0509999999999,118L655.0509999999999,116.5L663.179,116.5L663.179,118ZM675.3720000000001,118L667.244,118L667.244,116.5L675.3720000000001,116.5L675.3720000000001,118ZM687.564,118L679.436,118L679.436,116.5L687.564,116.5L687.564,118ZM699.756,118L691.6279999999999,118L691.6279999999999,116.5L699.756,116.5L699.756,118ZM711.9490000000001,118L703.821,118L703.821,116.5L711.9490000000001,116.5L711.9490000000001,118ZM724.141,118L716.013,118L716.013,116.5L724.141,116.5L724.141,118ZM736.333,118L728.205,118L728.205,116.5L736.333,116.5L736.333,118ZM748.5260000000001,118L740.3969999999999,118L740.3969999999999,116.5L748.5260000000001,116.5L748.5260000000001,118ZM760.718,118L752.59,118L752.59,116.5L760.718,116.5L760.718,118ZM772.91,118L764.782,118L764.782,116.5L772.91,116.5L772.91,118ZM785.1030000000001,118L776.9739999999999,118L776.9739999999999,116.5L785.1030000000001,116.5L785.1030000000001,118ZM797.2950000000001,118L789.1669999999999,118L789.1669999999999,116.5L797.2950000000001,116.5L797.2950000000001,118ZM809.4870000000001,118L801.3589999999999,118L801.3589999999999,116.5L809.4870000000001,116.5L809.4870000000001,118ZM821.679,118L813.5509999999999,118L813.5509999999999,116.5L821.679,116.5L821.679,118ZM833.8720000000001,118L825.744,118L825.744,116.5L833.8720000000001,116.5L833.8720000000001,118ZM842,102L842,110L840.5,110L840.5,102L842,102ZM842,90L842,98L840.5,98L840.5,90L842,90ZM842,78L842,86L840.5,86L840.5,78L842,78ZM842,66L842,74L840.5,74L840.5,66L842,66ZM842,54L842,62L840.5,62L840.5,54L842,54ZM825.744,46L833.8720000000001,46L833.8720000000001,47.5L825.744,47.5L825.744,46ZM813.5509999999999,46L821.6800000000001,46L821.6800000000001,47.5L813.5509999999999,47.5L813.5509999999999,46ZM801.3589999999999,46L809.4870000000001,46L809.4870000000001,47.5L801.3589999999999,47.5L801.3589999999999,46ZM789.1669999999999,46L797.2950000000001,46L797.2950000000001,47.5L789.1669999999999,47.5L789.1669999999999,46ZM776.9739999999999,46L785.1030000000001,46L785.1030000000001,47.5L776.9739999999999,47.5L776.9739999999999,46ZM764.782,46L772.91,46L772.91,47.5L764.782,47.5L764.782,46ZM752.59,46L760.718,46L760.718,47.5L752.59,47.5L752.59,46ZM740.3969999999999,46L748.5260000000001,46L748.5260000000001,47.5L740.3969999999999,47.5L740.3969999999999,46ZM728.205,46L736.333,46L736.333,47.5L728.205,47.5L728.205,46ZM716.013,46L724.141,46L724.141,47.5L716.013,47.5L716.013,46ZM703.821,46L711.9490000000001,46L711.9490000000001,47.5L703.821,47.5L703.821,46ZM691.6279999999999,46L699.756,46L699.756,47.5L691.6279999999999,47.5L691.6279999999999,46ZM679.436,46L687.564,46L687.564,47.5L679.436,47.5L679.436,46ZM667.244,46L675.3720000000001,46L675.3720000000001,47.5L667.244,47.5L667.244,46ZM655.0509999999999,46L663.179,46L663.179,47.5L655.0509999999999,47.5L655.0509999999999,46ZM642.859,46L650.987,46L650.987,47.5L642.859,47.5L642.859,46ZM630.667,46L638.795,46L638.795,47.5L630.667,47.5L630.667,46ZM618.4744000000001,46L626.603,46L626.603,47.5L618.4744000000001,47.5L618.4744000000001,46ZM606.2821,46L614.4103,46L614.4103,47.5L606.2821,47.5L606.2821,46ZM594.0897,46L602.2179,46L602.2179,47.5L594.0897,47.5L594.0897,46ZM581.8974,46L590.0255999999999,46L590.0255999999999,47.5L581.8974,47.5L581.8974,46ZM569.7051,46L577.8333,46L577.8333,47.5L569.7051,47.5L569.7051,46ZM557.5128,46L565.641,46L565.641,47.5L557.5128,47.5L557.5128,46ZM545.3205,46L553.4487,46L553.4487,47.5L545.3205,47.5L545.3205,46ZM533.12821,46L541.2564,46L541.2564,47.5L533.12821,47.5L533.12821,46ZM529.0641,46L529.0641,47.5L526.5,47.5L526.5,50L525,50L525,46L529.0641,46ZM837.9359999999999,46L842,46L842,50L840.5,50L840.5,47.5L837.9359999999999,47.5L837.9359999999999,46ZM842,114L842,118L837.9359999999999,118L837.9359999999999,116.5L840.5,116.5L840.5,114L842,114ZM529.06403,118L525,118L525,114L526.5,114L526.5,116.5L529.06403,116.5L529.06403,118Z" fill-rule="evenodd" fill="#DDDDDD" fill-opacity="1"/></g><g style="mix-blend-mode:passthrough"><g style="mix-blend-mode:passthrough"></g><path d="M525,116L529.0641,116L529.0641,117.5L525,117.5M533.12821,116L541.2564,116L541.2564,117.5L533.12821,117.5M545.3205,116L553.4487,116L553.4487,117.5L545.3205,117.5M557.5128,116L565.641,116L565.641,117.5L557.5128,117.5M569.7051,116L577.8333,116L577.8333,117.5L569.7051,117.5M581.8974,116L590.0255999999999,116L590.0255999999999,117.5L581.8974,117.5M594.0897,116L602.2179,116L602.2179,117.5L594.0897,117.5M606.2821,116L614.4103,116L614.4103,117.5L606.2821,117.5M618.4744000000001,116L626.603,116L626.603,117.5L618.4744000000001,117.5M630.667,116L638.795,116L638.795,117.5L630.667,117.5M642.859,116L650.987,116L650.987,117.5L642.859,117.5M655.0509999999999,116L663.179,116L663.179,117.5L655.0509999999999,117.5M667.244,116L675.3720000000001,116L675.3720000000001,117.5L667.244,117.5M679.436,116L687.564,116L687.564,117.5L679.436,117.5M691.6279999999999,116L699.756,116L699.756,117.5L691.6279999999999,117.5M703.821,116L711.9490000000001,116L711.9490000000001,117.5L703.821,117.5M716.013,116L724.141,116L724.141,117.5L716.013,117.5M728.205,116L736.333,116L736.333,117.5L728.205,117.5M740.3969999999999,116L748.5260000000001,116L748.5260000000001,117.5L740.3969999999999,117.5M752.59,116L760.718,116L760.718,117.5L752.59,117.5M764.782,116L772.91,116L772.91,117.5L764.782,117.5M776.9739999999999,116L785.1030000000001,116L785.1030000000001,117.5L776.9739999999999,117.5M789.1669999999999,116L797.2950000000001,116L797.2950000000001,117.5L789.1669999999999,117.5M801.3589999999999,116L809.4870000000001,116L809.4870000000001,117.5L801.3589999999999,117.5M813.5509999999999,116L821.6800000000001,116L821.6800000000001,117.5L813.5509999999999,117.5M825.744,116L833.8720000000001,116L833.8720000000001,117.5L825.744,117.5M837.9359999999999,116L842,116L842,117.5L837.9359999999999,117.5M842,116L842,120L840.5,120L840.5,116M842,124L842,132L840.5,132L840.5,124M842,136L842,144L840.5,144L840.5,136M842,148L842,156L840.5,156L840.5,148M842,160L842,168L840.5,168L840.5,160M842,172L842,180L840.5,180L840.5,172M842,184L842,188L840.5,188L840.5,184M842,188L837.9359999999999,188L837.9359999999999,186.5L842,186.5M833.8720000000001,188L825.744,188L825.744,186.5L833.8720000000001,186.5M821.679,188L813.5509999999999,188L813.5509999999999,186.5L821.679,186.5M809.4870000000001,188L801.3589999999999,188L801.3589999999999,186.5L809.4870000000001,186.5M797.2950000000001,188L789.1669999999999,188L789.1669999999999,186.5L797.2950000000001,186.5M785.1030000000001,188L776.9739999999999,188L776.9739999999999,186.5L785.1030000000001,186.5M772.91,188L764.782,188L764.782,186.5L772.91,186.5M760.718,188L752.59,188L752.59,186.5L760.718,186.5M748.5260000000001,188L740.3969999999999,188L740.3969999999999,186.5L748.5260000000001,186.5M736.333,188L728.205,188L728.205,186.5L736.333,186.5M724.141,188L716.013,188L716.013,186.5L724.141,186.5M711.9490000000001,188L703.821,188L703.821,186.5L711.9490000000001,186.5M699.756,188L691.6279999999999,188L691.6279999999999,186.5L699.756,186.5M687.564,188L679.436,188L679.436,186.5L687.564,186.5M675.3720000000001,188L667.244,188L667.244,186.5L675.3720000000001,186.5M663.179,188L655.0509999999999,188L655.0509999999999,186.5L663.179,186.5M650.987,188L642.859,188L642.859,186.5L650.987,186.5M638.795,188L630.667,188L630.667,186.5L638.795,186.5M626.603,188L618.4743,188L618.4743,186.5L626.603,186.5M614.4102,188L606.282,188L606.282,186.5L614.4102,186.5M602.2179,188L594.0897,188L594.0897,186.5L602.2179,186.5M590.0255999999999,188L581.8974,188L581.8974,186.5L590.0255999999999,186.5M577.8333,188L569.7051,188L569.7051,186.5L577.8333,186.5M565.641,188L557.5128,188L557.5128,186.5L565.641,186.5M553.4487,188L545.3205,188L545.3205,186.5L553.4487,186.5M541.2564,188L533.1282,188L533.1282,186.5L541.2564,186.5M529.06409,188L525,188L525,186.5L529.06409,186.5" fill="#DDDDDD" fill-opacity="1"/></g><g style="mix-blend-mode:passthrough"><g style="mix-blend-mode:passthrough"></g><path d="M525,186L529.0641,186L529.0641,187.5L525,187.5M533.12821,186L541.2564,186L541.2564,187.5L533.12821,187.5M545.3205,186L553.4487,186L553.4487,187.5L545.3205,187.5M557.5128,186L565.641,186L565.641,187.5L557.5128,187.5M569.7051,186L577.8333,186L577.8333,187.5L569.7051,187.5M581.8974,186L590.0255999999999,186L590.0255999999999,187.5L581.8974,187.5M594.0897,186L602.2179,186L602.2179,187.5L594.0897,187.5M606.2821,186L614.4103,186L614.4103,187.5L606.2821,187.5M618.4744000000001,186L626.603,186L626.603,187.5L618.4744000000001,187.5M630.667,186L638.795,186L638.795,187.5L630.667,187.5M642.859,186L650.987,186L650.987,187.5L642.859,187.5M655.0509999999999,186L663.179,186L663.179,187.5L655.0509999999999,187.5M667.244,186L675.3720000000001,186L675.3720000000001,187.5L667.244,187.5M679.436,186L687.564,186L687.564,187.5L679.436,187.5M691.6279999999999,186L699.756,186L699.756,187.5L691.6279999999999,187.5M703.821,186L711.9490000000001,186L711.9490000000001,187.5L703.821,187.5M716.013,186L724.141,186L724.141,187.5L716.013,187.5M728.205,186L736.333,186L736.333,187.5L728.205,187.5M740.3969999999999,186L748.5260000000001,186L748.5260000000001,187.5L740.3969999999999,187.5M752.59,186L760.718,186L760.718,187.5L752.59,187.5M764.782,186L772.91,186L772.91,187.5L764.782,187.5M776.9739999999999,186L785.1030000000001,186L785.1030000000001,187.5L776.9739999999999,187.5M789.1669999999999,186L797.2950000000001,186L797.2950000000001,187.5L789.1669999999999,187.5M801.3589999999999,186L809.4870000000001,186L809.4870000000001,187.5L801.3589999999999,187.5M813.5509999999999,186L821.6800000000001,186L821.6800000000001,187.5L813.5509999999999,187.5M825.744,186L833.8720000000001,186L833.8720000000001,187.5L825.744,187.5M837.9359999999999,186L842,186L842,187.5L837.9359999999999,187.5M842,186L842,190L840.5,190L840.5,186M842,194L842,202L840.5,202L840.5,194M842,206L842,214L840.5,214L840.5,206M842,218L842,226L840.5,226L840.5,218M842,230L842,238L840.5,238L840.5,230M842,242L842,250L840.5,250L840.5,242M842,254L842,258L840.5,258L840.5,254M842,258L837.9359999999999,258L837.9359999999999,256.5L842,256.5M833.8720000000001,258L825.744,258L825.744,256.5L833.8720000000001,256.5M821.679,258L813.5509999999999,258L813.5509999999999,256.5L821.679,256.5M809.4870000000001,258L801.3589999999999,258L801.3589999999999,256.5L809.4870000000001,256.5M797.2950000000001,258L789.1669999999999,258L789.1669999999999,256.5L797.2950000000001,256.5M785.1030000000001,258L776.9739999999999,258L776.9739999999999,256.5L785.1030000000001,256.5M772.91,258L764.782,258L764.782,256.5L772.91,256.5M760.718,258L752.59,258L752.59,256.5L760.718,256.5M748.5260000000001,258L740.3969999999999,258L740.3969999999999,256.5L748.5260000000001,256.5M736.333,258L728.205,258L728.205,256.5L736.333,256.5M724.141,258L716.013,258L716.013,256.5L724.141,256.5M711.9490000000001,258L703.821,258L703.821,256.5L711.9490000000001,256.5M699.756,258L691.6279999999999,258L691.6279999999999,256.5L699.756,256.5M687.564,258L679.436,258L679.436,256.5L687.564,256.5M675.3720000000001,258L667.244,258L667.244,256.5L675.3720000000001,256.5M663.179,258L655.0509999999999,258L655.0509999999999,256.5L663.179,256.5M650.987,258L642.859,258L642.859,256.5L650.987,256.5M638.795,258L630.667,258L630.667,256.5L638.795,256.5M626.603,258L618.4743,258L618.4743,256.5L626.603,256.5M614.4102,258L606.282,258L606.282,256.5L614.4102,256.5M602.2179,258L594.0897,258L594.0897,256.5L602.2179,256.5M590.0255999999999,258L581.8974,258L581.8974,256.5L590.0255999999999,256.5M577.8333,258L569.7051,258L569.7051,256.5L577.8333,256.5M565.641,258L557.5128,258L557.5128,256.5L565.641,256.5M553.4487,258L545.3205,258L545.3205,256.5L553.4487,256.5M541.2564,258L533.1282,258L533.1282,256.5L541.2564,256.5M529.06409,258L525,258L525,256.5L529.06409,256.5" fill="#DDDDDD" fill-opacity="1"/></g><g style="mix-blend-mode:passthrough"><g style="mix-blend-mode:passthrough"><path d="M414.91211,143.1582Q414.32031,145.39062,413.6875,147.07227L413.6875,159.125L412.28711,159.125L412.28711,149.94336Q411.56641,151.332,410.86328,152.375L410.089844,150.8281Q411.13281,149.33984,411.98828,147.25977Q412.84375,145.17969,413.43555,142.85938L414.91211,143.1582ZM425.2305,147.40039L425.2305,157.49020000000002L426.8125,157.49020000000002L426.8125,158.75L414.51953,158.75L414.51953,157.49020000000002L416.13672,157.49020000000002L416.13672,147.40039L419.9746,147.40039L419.9746,145.67188L415.4043,145.67188L415.4043,144.42969L419.9746,144.42969L419.9746,142.90039L421.4102,142.90039L421.4102,144.42969L426.3086,144.42969L426.3086,145.67188L421.4102,145.67188L421.4102,147.40039L425.2305,147.40039ZM423.7891,149.76172L423.7891,148.625L417.57812,148.625L417.57812,149.76172L423.7891,149.76172ZM417.57812,152.375L423.7891,152.375L423.7891,150.875L417.57812,150.875L417.57812,152.375ZM423.7891,155L423.7891,153.5059L417.57812,153.5059L417.57812,155L423.7891,155ZM423.7891,156.0957L417.57812,156.0957L417.57812,157.49020000000002L423.7891,157.49020000000002L423.7891,156.0957ZM444.0566,145.55469L444.0566,146.32227Q444.0566,148.63672,443.9395,151.7363Q443.8223,154.8359,443.6641,156.834Q443.5938,157.7305,443.3418,158.2168Q443.0957,158.7031,442.627,158.9023Q442.1582,159.10739999999998,441.3555,159.14260000000002Q441.168,159.1602,440.793,159.1602Q440.5,159.1602,440.1191,159.14260000000002Q439.7441,159.125,439.5332,159.10739999999998L439.0586,159.0664L438.8125,157.5195Q440.0723,157.7363,440.7754,157.7363Q441.3203,157.7363,441.6074,157.6191Q441.9004,157.4961,442.0645,157.1562Q442.2285,156.8164,442.2988,156.1016Q442.5625,152.9609,442.5625,148.36133L442.5625,146.94336L438.2148,146.94336Q437.623,148.53711,437.0781,149.74414L435.8535,148.87695Q436.5391,147.51172,437.1309,145.82422Q437.7227,144.13672,438.0742,142.625L439.4805,142.91211Q439.1113,144.37109,438.707,145.55469L444.0566,145.55469ZM433.457,143.01758Q433.2051,144.20703,432.7773,145.71875L435.3613,145.71875L435.3613,158.668L429.1562,158.668L429.1562,145.71875L431.125,145.71875Q431.5762,144.44141,431.9102,142.74805L433.457,143.01758ZM430.5625,150.875L433.9375,150.875L433.9375,147.125L430.5625,147.125L430.5625,150.875ZM439.9141,154.707Q439.3574,153.8105,438.5488,152.6855Q437.7461,151.5547,437.1836,150.8926L438.2324,150.0078Q438.8125,150.6934,439.6094,151.7832Q440.4062,152.8672,441.0039,153.7578L439.9141,154.707ZM430.5625,152.2637L430.5625,157.25L433.9375,157.25L433.9375,152.2637L430.5625,152.2637ZM455.0371,151.25Q456.1387,153.4297,457.873,154.8184Q459.6133,156.2012,462.6016,157.2969L461.8633,158.7383Q458.6406,157.5137,456.6777,155.7617Q454.71479999999997,154.0039,453.47270000000003,151.25L450.6484,151.25L450.6484,157.2617L455.1484,155.5332L455.2012,157.0977L454.4805,157.3496Q451.6387,158.3398,450.6484,158.7559Q449.8926,159.043,449.2422,159.4062L448.5215,157.8535Q448.8672,157.67770000000002,449.0371,157.4785Q449.207,157.2793,449.207,157.0273L449.207,151.25L446.3301,151.25L446.3301,149.82617L449.207,149.82617L449.207,142.9707L450.6484,142.9707L450.6484,149.82617L462.4375,149.82617L462.4375,151.25L455.0371,151.25ZM460.8379,144.73438Q459.0332,145.84766,456.666,146.9668Q454.2988,148.08008,452.1777,148.81836L451.6211,147.45312Q453.6895,146.75,456.0039,145.625Q458.3184,144.5,460.1348,143.3457L460.8379,144.73438ZM467.3125,149L467.3125,150.3711Q467.3125,152.498,467.1133,153.9922Q466.9199,155.4805,466.4922,156.6992Q466.0703,157.9121,465.3145,159.248L464.0195,158.5273Q464.793,157.1445,465.1797,155.9844Q465.5664,154.8242,465.7305,153.4355Q465.8945,152.041,465.8945,149.9082L465.8945,144.48242L472.6094,144.48242Q472.1934,143.54492,471.959,143.13477L473.418,142.78906Q473.6875,143.29297,474.209,144.48242L480.3672,144.48242L480.3672,145.75977L477.3555,145.75977L477.3555,147.75781L480.2734,147.75781L480.2734,149L477.3555,149L477.3555,151.625L470.08979999999997,151.625L470.08979999999997,149L467.3125,149ZM470.08979999999997,147.75781L470.08979999999997,145.75977L467.3125,145.75977L467.3125,147.75781L470.08979999999997,147.75781ZM471.47270000000003,147.75781L475.9551,147.75781L475.9551,145.75977L471.47270000000003,145.75977L471.47270000000003,147.75781ZM471.47270000000003,150.4062L475.9551,150.4062L475.9551,149L471.47270000000003,149L471.47270000000003,150.4062ZM480.1152,159.2305Q477.9531,158.8906,476.3828,158.4805Q474.8184,158.0762,473.5762,157.4844Q471.1504,158.5273,467.2246,159.3594L466.6504,158.0586Q469.8965,157.5195,472.1406,156.6934Q470.5527,155.668,469.15229999999997,153.9395L468.0918,153.9395L468.0918,152.75L478.5625,152.75L478.5625,153.957Q477.1445,155.6328,475.03520000000003,156.7812Q477.03319999999997,157.4844,480.543,157.9004L480.1152,159.2305ZM470.7344,153.9395Q471.9238,155.2871,473.5059,156.1367Q475.3633,155.2695,476.6934,153.9395L470.7344,153.9395ZM493.53319999999997,151.3379Q493.53319999999997,148.79492,494.377,146.64453Q495.2266,144.49414,496.7031,143L498.1562,143Q496.7031,144.76367,495.918,146.80859Q495.1328,148.85352,495.1328,151.3379Q495.1328,153.8398,495.918,155.8906Q496.7031,157.9414,498.1562,159.66989999999998L496.7031,159.66989999999998Q495.2266,158.1758,494.377,156.0371Q493.53319999999997,153.8926,493.53319999999997,151.3379ZM507.1094,145.9707L500.6875,145.9707L500.6875,144.5L508.9375,144.5L508.9375,145.54883L503.9805,158L502.2051,158L507.1094,145.9707ZM513.812,147.125L515.312,147.125L515.312,150.875L518.688,150.875L518.688,152.3457L515.312,152.3457L515.312,155.75L513.812,155.75L513.812,152.3457L510.438,152.3457L510.438,150.875L513.812,150.875L513.812,147.125ZM525.467,151.3379Q525.467,153.875,524.617,156.0254Q523.773,158.1758,522.297,159.66989999999998L520.844,159.66989999999998Q522.297,157.9062,523.082,155.8672Q523.867,153.8223,523.867,151.3379Q523.867,148.83594,523.082,146.78516Q522.297,144.72852,520.844,143L522.297,143Q523.773,144.49414,524.617,146.63867Q525.467,148.77734,525.467,151.3379Z" fill="#DDDDDD" fill-opacity="1"/></g></g><g style="mix-blend-mode:passthrough"><g style="mix-blend-mode:passthrough"><path d="M282.34961,213.1582Q281.75781,215.39062,281.125,217.07227L281.125,229.125L279.72461,229.125L279.72461,219.94336Q279.00391,221.332,278.30078,222.375L277.527344,220.8281Q278.57031,219.33984,279.42578,217.25977Q280.28125,215.17969,280.87305,212.85938L282.34961,213.1582ZM292.668,217.40039L292.668,227.49020000000002L294.25,227.49020000000002L294.25,228.75L281.95703,228.75L281.95703,227.49020000000002L283.57422,227.49020000000002L283.57422,217.40039L287.4121,217.40039L287.4121,215.67188L282.8418,215.67188L282.8418,214.42969L287.4121,214.42969L287.4121,212.90039L288.8477,212.90039L288.8477,214.42969L293.7461,214.42969L293.7461,215.67188L288.8477,215.67188L288.8477,217.40039L292.668,217.40039ZM291.2266,219.76172L291.2266,218.625L285.01562,218.625L285.01562,219.76172L291.2266,219.76172ZM285.01562,222.375L291.2266,222.375L291.2266,220.875L285.01562,220.875L285.01562,222.375ZM291.2266,225L291.2266,223.5059L285.01562,223.5059L285.01562,225L291.2266,225ZM291.2266,226.0957L285.01562,226.0957L285.01562,227.49020000000002L291.2266,227.49020000000002L291.2266,226.0957ZM311.4941,215.55469L311.4941,216.32227Q311.4941,218.63672,311.377,221.7363Q311.2598,224.8359,311.1016,226.834Q311.0312,227.7305,310.7793,228.2168Q310.5332,228.7031,310.0645,228.9023Q309.5957,229.10739999999998,308.793,229.14260000000002Q308.6055,229.1602,308.2305,229.1602Q307.9375,229.1602,307.5566,229.14260000000002Q307.1816,229.125,306.9707,229.10739999999998L306.4961,229.0664L306.25,227.5195Q307.5098,227.7363,308.2129,227.7363Q308.7578,227.7363,309.0449,227.6191Q309.3379,227.4961,309.502,227.1562Q309.666,226.8164,309.7363,226.1016Q310,222.9609,310,218.36133L310,216.94336L305.6523,216.94336Q305.0605,218.53711,304.5156,219.74414L303.291,218.87695Q303.9766,217.51172,304.5684,215.82422Q305.1602,214.13672,305.5117,212.625L306.918,212.91211Q306.5488,214.37109,306.1445,215.55469L311.4941,215.55469ZM300.8945,213.01758Q300.6426,214.20703,300.2148,215.71875L302.7988,215.71875L302.7988,228.668L296.5938,228.668L296.5938,215.71875L298.5625,215.71875Q299.0137,214.44141,299.3477,212.74805L300.8945,213.01758ZM298,220.875L301.375,220.875L301.375,217.125L298,217.125L298,220.875ZM307.3516,224.707Q306.7949,223.8105,305.9863,222.6855Q305.1836,221.5547,304.6211,220.8926L305.6699,220.0078Q306.25,220.6934,307.0469,221.7832Q307.8438,222.8672,308.4414,223.7578L307.3516,224.707ZM298,222.2637L298,227.25L301.375,227.25L301.375,222.2637L298,222.2637ZM329.0605,215.70703L329.0605,226.9336Q329.0605,227.8594,328.8555,228.3105Q328.6562,228.76760000000002,328.15229999999997,228.9434Q327.6543,229.125,326.65229999999997,229.125Q325.3223,229.125,324.373,229.0371L324.09770000000003,227.57229999999998Q325.2402,227.7188,326.2129,227.7188Q326.8574,227.7188,327.1387,227.625Q327.4199,227.5254,327.5195,227.2734Q327.625,227.0156,327.625,226.4531L327.625,217.125L322.7676,217.125Q322.7324,218.43164,322.4805,219.49805Q323.4473,220.3477,324.9297,221.7422Q326.4121,223.1367,327.3262,224.0801L326.2363,225.2402Q325.3984,224.3145,324.1914,223.0781Q322.9844,221.8359,321.9941,220.8926Q321.4609,222.0879,320.4531,223.2012Q319.4453,224.3145,317.83979999999997,225.5449L316.8789,224.2793Q318.584,223.0312,319.5215,221.9648Q320.459,220.8926,320.8574,219.76172Q321.2559,218.625,321.291,217.125L316.6855,217.125L316.6855,229.125L315.25,229.125L315.25,215.70703L321.291,215.70703L321.291,212.98828L322.7676,212.98828L322.7676,215.70703L329.0605,215.70703ZM334,216L334,217.99805L332.5996,217.99805L332.5996,214.66992L339.3262,214.66992Q338.91020000000003,213.71484,338.53520000000003,213.01172L339.9238,212.49023Q340.416,213.46289,340.8496,214.66992L347.125,214.66992L347.125,218.0332L345.7012,218.0332L345.7012,216L334,216ZM341.7695,216.63281Q342.7656,217.10156,344.3652,217.92188Q345.97069999999997,218.74219,347.248,219.44531L346.6211,220.623Q345.291,219.87891,343.6738,219.02344Q342.0566,218.16211,341.1016,217.72852L341.7695,216.63281ZM332.6172,219.42773Q333.8359,218.94141,335.2012,218.19141Q336.5723,217.44141,337.7734,216.65039L338.4766,217.76367Q336.02729999999997,219.42773,333.2266,220.6934L332.6172,219.42773ZM347.5762,224.9766Q346.4395,224.543,345.25,223.9688L345.25,229.125L343.832,229.125L343.832,228.5273L335.875,228.5273L335.875,229.125L334.4512,229.125L334.4512,223.9688Q333.1738,224.5781,332.1309,224.9766L331.5742,223.6816Q334.2461,222.7031,336.0918,221.584Q337.9434,220.459,339.2031,219.04688L340.5215,219.04688Q341.8574,220.4941,343.71479999999997,221.6191Q345.5723,222.7383,348.168,223.6641L347.5762,224.9766ZM344.3184,223.5Q341.623,222.0527,339.8711,220.2422Q338.0488,222.0703,335.3711,223.5L344.3184,223.5ZM335.875,224.8125L335.875,227.25L343.832,227.25L343.832,224.8125L335.875,224.8125ZM360.97069999999997,221.3379Q360.97069999999997,218.79492,361.8145,216.64453Q362.6641,214.49414,364.1406,213L365.5938,213Q364.1406,214.76367,363.3555,216.80859Q362.5703,218.85352,362.5703,221.3379Q362.5703,223.8398,363.3555,225.8906Q364.1406,227.9414,365.5938,229.66989999999998L364.1406,229.66989999999998Q362.6641,228.1758,361.8145,226.0371Q360.97069999999997,223.8926,360.97069999999997,221.3379ZM369.8535,216.25781L369.8535,218.8125L368.377,218.8125L368.377,214.875L375.3438,214.875Q374.752,213.63281,374.4824,213.19922L375.9941,212.7832L377.049,214.875L383.371,214.875L383.371,218.83008L381.877,218.83008L381.877,216.25781L369.8535,216.25781ZM383.875,222.8438L383.875,224.25L376.7266,224.25L376.7266,226.7637Q376.7266,227.75979999999998,376.52729999999997,228.252Q376.334,228.75,375.8535,228.9375Q375.3789,229.125,374.4238,229.125Q373.668,229.125,372.1914,228.9785L371.90430000000003,227.5781Q373.1641,227.7539,374.16020000000003,227.7539Q374.6465,227.7539,374.8633,227.6602Q375.0801,227.5605,375.1562,227.2734Q375.2383,226.9805,375.2383,226.3594L375.2383,224.25L367.8379,224.25L367.8379,222.8438L375.2383,222.8438L375.2383,221.666L378.49,219.63281L370.6973,219.63281L370.6973,218.25L381.033,218.25L381.033,219.61523L376.7266,222.2344L376.7266,222.8438L383.875,222.8438ZM397.451,213L397.451,215.17969L401.969,215.17969L401.969,216.63281L397.451,216.63281L397.451,218.52539L395.975,218.52539L395.975,216.63281L391.762,216.63281L391.762,218.52539L390.303,218.52539L390.303,216.63281L385.75,216.63281L385.75,215.17969L390.303,215.17969L390.303,213L391.762,213L391.762,215.17969L395.975,215.17969L395.975,213L397.451,213ZM386.67,220.8164L386.67,219.375L400.223,219.375Q400.205,222.0059,399.953,224.5312Q399.848,225.5977,399.596,226.166Q399.344,226.7344,398.84000000000003,226.9863Q398.336,227.23239999999998,397.43399999999997,227.25Q396.244,227.26760000000002,394.949,227.1387L394.66200000000003,225.6855Q394.826,225.7031,395.51800000000003,225.8027Q396.209,225.8965,396.889,225.8965Q397.445,225.8965,397.744,225.7207Q398.043,225.5449,398.18399999999997,225.1523Q398.33,224.7539,398.418,224.0098Q398.512,223.3066,398.57,222.2754Q398.635,221.2383,398.617,220.8164L392.986,220.8164L392.986,229.125L391.43899999999996,229.125L391.43899999999996,220.8164L386.67,220.8164ZM416.64099999999996,224.7422Q417.88300000000004,226.5586,420.115,228.2871L419.219,229.4941Q417.127,227.8008,415.85,225.9844Q414.678,227.6367,412.592,229.418L411.68899999999996,228.2344Q413.869,226.4707,415.041,224.666Q413.904,222.5156,413.312,219.5332Q413.18399999999997,219.78516,413.06600000000003,219.97852Q412.949,220.166,412.879,220.2891L411.889,219.20508Q412.75,217.81641,413.418,216.16406Q414.086,214.51172,414.426,212.89453L415.779,213.12305Q415.527,214.32422,415.006,215.8418L419.828,215.8418L419.828,217.2832L418.568,217.2832Q418.334,219.73828,417.88300000000004,221.5195Q417.432,223.3008,416.64099999999996,224.7422ZM403.621,220.9277Q404.55899999999997,220.3594,405.414,219.58008Q406.27,218.80078,406.91999999999996,217.91016L404.072,217.91016L404.072,216.72656L407.64099999999996,216.72656L407.64099999999996,213L408.918,213L408.918,216.72656L412.07,216.72656L412.07,217.91016L408.918,217.91016L408.918,218.16211L411.94100000000003,220.2129L411.273,221.209Q410.324,220.418,408.918,219.47461L408.918,221.3145L407.64099999999996,221.3145L407.64099999999996,218.70117Q407.00800000000004,219.63281,406.152,220.4883Q405.297,221.3438,404.324,222L403.621,220.9277ZM405.91200000000003,216.4043Q405.385,215.51953,404.307,214.00781L405.209,213.39844L406.885,215.77148L405.91200000000003,216.4043ZM412.305,214.04297Q411.49,215.23242,410.53499999999997,216.49219L409.60400000000004,215.82422Q410.611,214.49414,411.332,213.41602L412.305,214.04297ZM414.23199999999997,217.72852Q414.502,219.46289,414.865,220.8047Q415.23400000000004,222.1465,415.797,223.3008Q416.35400000000004,222.0938,416.70500000000004,220.6289Q417.062,219.16406,417.256,217.2832L414.426,217.2832L414.23199999999997,217.72852ZM411.115,228.5742Q410.289,228.05270000000002,408.88300000000004,227.332Q407.225,228.4688,404.10699999999997,229.459L403.516,228.2344Q406.129,227.4785,407.553,226.70510000000002Q406.217,226.0898,405.584,225.8203L404.863,225.498Q405.45500000000004,224.543,405.801,223.875L403.75,223.875L403.75,222.709L406.398,222.709Q406.773,221.7715,406.885,221.4492L408.21500000000003,221.8125Q407.998,222.4219,407.875,222.709L411.672,222.709L411.672,223.8223Q410.969,225.4219,409.961,226.4355Q410.793,226.8281,411.801,227.41989999999998L411.115,228.5742ZM406.703,225.0117Q407.025,225.1523,407.96299999999997,225.5332L408.77099999999996,225.873Q409.674,225.1172,410.21299999999997,223.875L407.318,223.875Q406.91999999999996,224.6309,406.703,225.0117ZM437.342,216.75L426.361,216.75L426.16200000000003,219.38086L436.457,219.38086Q436.404,222.668,436.006,226.0605Q435.865,227.3262,435.584,227.9531Q435.30899999999997,228.58010000000002,434.70500000000004,228.8438Q434.102,229.10739999999998,432.91200000000003,229.125L432.174,229.125Q430.66200000000003,229.125,429.602,229.0371L429.31399999999996,227.5898Q430.791,227.7422,432.051,227.7422Q433.076,227.7422,433.52099999999996,227.625Q433.973,227.5078,434.18899999999996,227.11520000000002Q434.406,226.7227,434.53499999999997,225.7734Q434.875,223.3477,434.875,220.875L424.504,220.875L425.119,213.11133L426.631,213.11133L426.467,215.32617L437.342,215.32617L437.342,216.75ZM421.75,223.2012L433.562,223.2012L433.562,224.625L421.75,224.625L421.75,223.2012ZM444.35,213.1582Q443.75800000000004,215.39062,443.125,217.07227L443.125,229.125L441.725,229.125L441.725,219.94336Q441.004,221.332,440.301,222.375L439.527,220.8281Q440.57,219.33984,441.426,217.25977Q442.281,215.17969,442.873,212.85938L444.35,213.1582ZM454.668,217.40039L454.668,227.49020000000002L456.25,227.49020000000002L456.25,228.75L443.957,228.75L443.957,227.49020000000002L445.574,227.49020000000002L445.574,217.40039L449.41200000000003,217.40039L449.41200000000003,215.67188L444.842,215.67188L444.842,214.42969L449.41200000000003,214.42969L449.41200000000003,212.90039L450.848,212.90039L450.848,214.42969L455.746,214.42969L455.746,215.67188L450.848,215.67188L450.848,217.40039L454.668,217.40039ZM453.227,219.76172L453.227,218.625L447.01599999999996,218.625L447.01599999999996,219.76172L453.227,219.76172ZM447.01599999999996,222.375L453.227,222.375L453.227,220.875L447.01599999999996,220.875L447.01599999999996,222.375ZM453.227,225L453.227,223.5059L447.01599999999996,223.5059L447.01599999999996,225L453.227,225ZM453.227,226.0957L447.01599999999996,226.0957L447.01599999999996,227.49020000000002L453.227,227.49020000000002L453.227,226.0957ZM473.494,215.55469L473.494,216.32227Q473.494,218.63672,473.377,221.7363Q473.26,224.8359,473.102,226.834Q473.031,227.7305,472.779,228.2168Q472.533,228.7031,472.06399999999996,228.9023Q471.596,229.10739999999998,470.793,229.14260000000002Q470.605,229.1602,470.23,229.1602Q469.938,229.1602,469.557,229.14260000000002Q469.182,229.125,468.971,229.10739999999998L468.496,229.0664L468.25,227.5195Q469.51,227.7363,470.21299999999997,227.7363Q470.75800000000004,227.7363,471.04499999999996,227.6191Q471.33799999999997,227.4961,471.502,227.1562Q471.666,226.8164,471.736,226.1016Q472,222.9609,472,218.36133L472,216.94336L467.652,216.94336Q467.06100000000004,218.53711,466.51599999999996,219.74414L465.291,218.87695Q465.977,217.51172,466.568,215.82422Q467.15999999999997,214.13672,467.512,212.625L468.918,212.91211Q468.549,214.37109,468.145,215.55469L473.494,215.55469ZM462.895,213.01758Q462.64300000000003,214.20703,462.21500000000003,215.71875L464.799,215.71875L464.799,228.668L458.594,228.668L458.594,215.71875L460.562,215.71875Q461.014,214.44141,461.348,212.74805L462.895,213.01758ZM460,220.875L463.375,220.875L463.375,217.125L460,217.125L460,220.875ZM469.352,224.707Q468.79499999999996,223.8105,467.986,222.6855Q467.18399999999997,221.5547,466.621,220.8926L467.66999999999996,220.0078Q468.25,220.6934,469.047,221.7832Q469.844,222.8672,470.44100000000003,223.7578L469.352,224.707ZM460,222.2637L460,227.25L463.375,227.25L463.375,222.2637L460,222.2637ZM484.475,221.25Q485.576,223.4297,487.31100000000004,224.8184Q489.051,226.2012,492.039,227.2969L491.301,228.7383Q488.078,227.5137,486.115,225.7617Q484.152,224.0039,482.90999999999997,221.25L480.086,221.25L480.086,227.2617L484.586,225.5332L484.639,227.0977L483.918,227.3496Q481.076,228.3398,480.086,228.7559Q479.33000000000004,229.043,478.68,229.4062L477.959,227.8535Q478.305,227.67770000000002,478.475,227.4785Q478.645,227.2793,478.645,227.0273L478.645,221.25L475.76800000000003,221.25L475.76800000000003,219.82617L478.645,219.82617L478.645,212.9707L480.086,212.9707L480.086,219.82617L491.875,219.82617L491.875,221.25L484.475,221.25ZM490.275,214.73438Q488.471,215.84766,486.10400000000004,216.9668Q483.736,218.08008,481.615,218.81836L481.05899999999997,217.45312Q483.127,216.75,485.44100000000003,215.625Q487.756,214.5,489.572,213.3457L490.275,214.73438ZM496.75,219L496.75,220.3711Q496.75,222.498,496.551,223.9922Q496.35699999999997,225.4805,495.93,226.6992Q495.50800000000004,227.9121,494.752,229.248L493.457,228.5273Q494.23,227.1445,494.61699999999996,225.9844Q495.004,224.8242,495.168,223.4355Q495.332,222.041,495.332,219.9082L495.332,214.48242L502.047,214.48242Q501.631,213.54492,501.39599999999996,213.13477L502.855,212.78906Q503.125,213.29297,503.64599999999996,214.48242L509.805,214.48242L509.805,215.75977L506.793,215.75977L506.793,217.75781L509.711,217.75781L509.711,219L506.793,219L506.793,221.625L499.527,221.625L499.527,219L496.75,219ZM499.527,217.75781L499.527,215.75977L496.75,215.75977L496.75,217.75781L499.527,217.75781ZM500.90999999999997,217.75781L505.39300000000003,217.75781L505.39300000000003,215.75977L500.90999999999997,215.75977L500.90999999999997,217.75781ZM500.90999999999997,220.4062L505.39300000000003,220.4062L505.39300000000003,219L500.90999999999997,219L500.90999999999997,220.4062ZM509.553,229.2305Q507.39099999999996,228.8906,505.82,228.4805Q504.256,228.0762,503.014,227.4844Q500.58799999999997,228.5273,496.66200000000003,229.3594L496.08799999999997,228.0586Q499.334,227.5195,501.578,226.6934Q499.99,225.668,498.59000000000003,223.9395L497.529,223.9395L497.529,222.75L508,222.75L508,223.957Q506.582,225.6328,504.473,226.7812Q506.471,227.4844,509.98,227.9004L509.553,229.2305ZM500.172,223.9395Q501.361,225.2871,502.943,226.1367Q504.801,225.2695,506.131,223.9395L500.172,223.9395ZM511.75,219.75L527.91,219.75L527.91,221.3027L511.75,221.3027L511.75,219.75ZM542.5409999999999,224.7715Q543.818,226.7168,546.068,228.2461L545.148,229.5234Q542.975,227.9238,541.75,226.0664Q540.473,227.8828,538.182,229.6113L537.367,228.4102Q539.799,226.6406,540.971,224.7539Q540.361,223.5059,539.969,222.0527Q539.576,220.5996,539.2660000000001,218.71289Q538.8140000000001,219.55664,538.434,220.1133L537.596,219.00586Q538.393,217.76953,538.9200000000001,216.24023Q539.447,214.70508,539.8399999999999,212.78906L541.1700000000001,213.02344Q540.848,214.51172,540.4490000000001,215.75391L545.8340000000001,215.75391L545.8340000000001,217.125L544.375,217.125Q544.105,219.74414,543.6890000000001,221.5312Q543.279,223.3184,542.5409999999999,224.7715ZM537.566,227.6133L529.58,228.80270000000002L529.451,227.4375L529.873,227.3789Q532.023,227.0566,533.102,226.916L533.102,224.25L530.143,224.25L530.143,222.8965L533.102,222.8965L533.102,220.4648L531.982,220.6289L530.16,220.8867L529.855,219.58594Q530.178,219.49219,530.359,219.29297Q531.033,218.52539,532.592,215.37891L529.779,215.37891L529.779,214.03125L537.625,214.03125L537.625,215.37891L534.139,215.37891Q532.609,218.27344,531.877,219.41016L535.744,218.8418Q535.381,217.9043,534.865,216.85547L536.037,216.43945Q536.688,217.82227,537.6949999999999,220.5176L536.5640000000001,221.0332Q536.512,220.8867,536.201,220.0195Q535.164,220.1543,534.52,220.2598L534.52,222.8965L537.367,222.8965L537.367,224.25L534.52,224.25L534.52,226.6992L537.549,226.2656L537.566,227.6133ZM540.256,217.125Q540.49,219.08203,540.8299999999999,220.5703Q541.1759999999999,222.0586,541.732,223.3301Q542.236,222.1523,542.512,220.7461Q542.793,219.33984,543.062,217.125L540.256,217.125ZM553.029,221.3379Q553.029,223.875,552.1800000000001,226.0254Q551.336,228.1758,549.8589999999999,229.66989999999998L548.406,229.66989999999998Q549.8589999999999,227.9062,550.645,225.8672Q551.4300000000001,223.8223,551.4300000000001,221.3379Q551.4300000000001,218.83594,550.645,216.78516Q549.8589999999999,214.72852,548.406,213L549.8589999999999,213Q551.336,214.49414,552.1800000000001,216.63867Q553.029,218.77734,553.029,221.3379Z" fill="#DDDDDD" fill-opacity="1"/></g></g></g></svg>