<svg xmlns="http://www.w3.org/2000/svg" xmlns:xlink="http://www.w3.org/1999/xlink" fill="none" version="1.1" width="550" height="317.5" viewBox="0 0 550 317.5"><g style="mix-blend-mode:passthrough"><g><g style="mix-blend-mode:passthrough"><g><g style="mix-blend-mode:passthrough"><path d="M453.14453,27.99316L462.6191,27.99316L462.6191,33.61816L461.3711,33.61816L461.3711,33.24316L454.39258,33.24316L454.39258,33.61816L453.14453,33.61816L453.14453,27.99316ZM452.19531,33.99316L463.5684,33.99316L463.5684,38.1182L462.373,38.1182L462.373,37.7432L453.39062,37.7432L453.39062,38.1182L452.19531,38.1182L452.19531,33.99316ZM452.75781,39.9932L452.75781,38.8682L462.373,38.8682L462.373,40.0635Q461.0898,41.5283,459.3672,42.4775Q459.4023,42.4775,459.4375,42.4893Q460.5625,42.799800000000005,464.1133,43.0869Q463.9551,43.3154,463.4102,44.1182Q460.0527,43.6553,457.8906,42.8994Q455.5,43.637699999999995,452.07227,44.1182Q451.9668,43.8955,451.43945,43.0869Q454.41016,42.8525,456.5195,42.4775Q454.99023,41.5459,453.90039,39.9932L452.75781,39.9932ZM449.17188,27.61816L450.4375,27.61816L450.4375,31.50293L451.26367,30.99316Q452.08984,32.06543,452.81055,33.14941L451.79102,33.61816Q451.21094,32.60449,450.4375,31.60254L450.4375,44.1182L449.17188,44.1182L449.17188,27.61816ZM461.3711,29.11816L454.39258,29.11816L454.39258,29.86816L461.3711,29.86816L461.3711,29.11816ZM454.39258,32.11816L461.3711,32.11816L461.3711,30.99316L454.39258,30.99316L454.39258,32.11816ZM460.791,39.9932L455.32422,39.9932Q456.39648,41.042,457.9785,41.6455Q459.6836,40.9717,460.791,39.9932ZM447.50195,31.36816L448.67969,31.5498Q448.41602,33.77051,447.90625,36.2432Q447.414062,36.1201,446.728516,35.9619Q447.150391,34.06934,447.50195,31.36816ZM456.7305,36.6182L459.0332,36.6182L459.0332,35.11816L456.7305,35.11816L456.7305,36.6182ZM453.39062,36.6182L455.64062,36.6182L455.64062,35.11816L453.39062,35.11816L453.39062,36.6182ZM462.373,35.11816L460.123,35.11816L460.123,36.6182L462.373,36.6182L462.373,35.11816ZM472.3223,27.12598L473.5703,26.493164Q474.2559,27.58887,474.8828,28.74316L481.1992,28.74316L481.1992,34.74316L479.8281,34.74316L479.8281,33.99316L468.1211,33.99316L468.1211,34.0459Q468.1211,41.3408,465.6602,44.4932Q465.1855,43.9834,464.6406,43.4619Q466.7148,40.7607,466.7148,34.18066L466.7148,28.74316L473.2715,28.74316Q472.8438,27.94629,472.3223,27.12598ZM481.0059,36.9932L481.0059,44.4932L479.6348,44.4932L479.6348,43.3682L470.7578,43.3682L470.7578,44.4932L469.3867,44.4932L469.3867,36.9932L481.0059,36.9932ZM479.6348,38.1182L470.7578,38.1182L470.7578,42.2432L479.6348,42.2432L479.6348,38.1182ZM468.1211,29.86816L468.1211,32.86816L479.8281,32.86816L479.8281,29.86816L468.1211,29.86816ZM490.8672,30.61816L493.4863,30.61816Q493.5156,28.79004,493.5039,26.86816L494.9453,26.86816Q494.9395,28.77246,494.9043,30.61816L499.6387,30.61816Q499.5156,37.2158,499.2871,41.2471Q499.0938,43.708,496.9844,43.7432Q495.8945,43.7432,494.6113,43.6904Q494.4883,42.998999999999995,494.3301,42.2432Q495.543,42.2432,496.5449,42.2432Q497.8457,42.2432,497.8984,40.8311Q498.1621,36.6123,498.21479999999997,32.11816L494.875,32.11816Q494.8574,32.85059,494.83979999999997,33.55957Q494.752,40.251,490.6562,44.1182Q490.1641,43.6025,489.6016,43.0869Q493.2754,39.8936,493.4336,33.54199Q493.4512,32.83887,493.4688,32.11816L490.8672,32.11816L490.8672,30.61816ZM489.0742,36.6182Q490.1816,38.9678,491.1133,41.2822Q490.33979999999997,41.6221,489.7949,41.8682Q489.6719,41.4932,489.5488,41.1182Q486.2031,41.4932,483.4492,41.8682L482.834,40.3682Q483.6074,39.9404,484.082,38.9912Q484.9434,37.3154,485.875,34.74316L482.9043,34.74316L482.9043,33.24316L491.3945,33.24316L491.3945,34.74316L487.3516,34.74316Q485.8516,38.3643,484.75,40.3682Q486.7715,40.2275,489.1035,39.9932Q488.5117,38.5459,487.8613,37.1631L489.0742,36.6182ZM483.6426,28.36816L490.6914,28.36816L490.6914,29.86816L483.6426,29.86816L483.6426,28.36816Z" fill="#DDDDDD" fill-opacity="1"/></g></g><path d="M398.5,1.5L398.5,3L406.5,3L406.5,1.5L398.5,1.5ZM410.5,1.5L410.5,3L418.5,3L418.5,1.5L410.5,1.5ZM422.5,1.5L422.5,3L430.5,3L430.5,1.5L422.5,1.5ZM434.5,1.5L434.5,3L442.5,3L442.5,1.5L434.5,1.5ZM446.5,1.5L446.5,3L454.5,3L454.5,1.5L446.5,1.5ZM458.5,1.5L458.5,3L466.5,3L466.5,1.5L458.5,1.5ZM470.5,1.5L470.5,3L478.5,3L478.5,1.5L470.5,1.5ZM482.5,1.5L482.5,3L490.5,3L490.5,1.5L482.5,1.5ZM494.5,1.5L494.5,3L502.5,3L502.5,1.5L494.5,1.5ZM506.5,1.5L506.5,3L514.5,3L514.5,1.5L506.5,1.5ZM518.5,1.5L518.5,3L526.5,3L526.5,1.5L518.5,1.5ZM530.5,1.5L530.5,3L538.5,3L538.5,1.5L530.5,1.5ZM542.5,1.5L542.5,3L547,3L547,3.5L548.5,3.5L548.5,1.5L542.5,1.5ZM548.5,7.5L547,7.5L547,15.5L548.5,15.5L548.5,7.5ZM548.5,19.5L547,19.5L547,27.5L548.5,27.5L548.5,19.5ZM548.5,31.5L547,31.5L547,39.5L548.5,39.5L548.5,31.5ZM548.5,43.5L547,43.5L547,51.5L548.5,51.5L548.5,43.5ZM548.5,55.5L547,55.5L547,63.5L548.5,63.5L548.5,55.5ZM548.5,67.5L547,67.5L547,72L546.5,72L546.5,73.5L548.5,73.5L548.5,67.5ZM542.5,73.5L542.5,72L534.5,72L534.5,73.5L542.5,73.5ZM530.5,73.5L530.5,72L522.5,72L522.5,73.5L530.5,73.5ZM518.5,73.5L518.5,72L510.5,72L510.5,73.5L518.5,73.5ZM506.5,73.5L506.5,72L498.5,72L498.5,73.5L506.5,73.5ZM494.5,73.5L494.5,72L486.5,72L486.5,73.5L494.5,73.5ZM482.5,73.5L482.5,72L474.5,72L474.5,73.5L482.5,73.5ZM470.5,73.5L470.5,72L462.5,72L462.5,73.5L470.5,73.5ZM458.5,73.5L458.5,72L450.5,72L450.5,73.5L458.5,73.5ZM446.5,73.5L446.5,72L438.5,72L438.5,73.5L446.5,73.5ZM434.5,73.5L434.5,72L426.5,72L426.5,73.5L434.5,73.5ZM422.5,73.5L422.5,72L414.5,72L414.5,73.5L422.5,73.5ZM410.5,73.5L410.5,72L402.5,72L402.5,73.5L410.5,73.5ZM400,73.5L400,65.5L398.5,65.5L398.5,73.5L400,73.5ZM398.5,61.5L400,61.5L400,53.5L398.5,53.5L398.5,61.5ZM398.5,49.5L400,49.5L400,41.5L398.5,41.5L398.5,49.5ZM398.5,37.5L400,37.5L400,29.5L398.5,29.5L398.5,37.5ZM398.5,25.5L400,25.5L400,17.5L398.5,17.5L398.5,25.5ZM398.5,13.5L400,13.5L400,5.5L398.5,5.5L398.5,13.5Z" fill-rule="evenodd" fill="#DDDDDD" fill-opacity="1"/></g><g style="mix-blend-mode:passthrough"><g><g style="mix-blend-mode:passthrough"><path d="M450.47266,228.1689Q453.44336,224.0908,454.23438,218.24316L452.125,218.24316L452.125,217.11816L454.39258,217.11816Q454.49805,216.02832,454.5332,214.86816L455.86914,214.86816Q455.83398,216.02832,455.72852,217.11816L464.043,217.11816L464.043,218.24316L455.58789,218.24316Q455.30664,220.46387,454.72656,222.4502L455.55273,221.99316Q456.5547,223.5049,457.3633,224.8994L456.2207,225.7432Q455.48242,224.1553,454.58594,222.71973Q453.53125,226.2881,451.58008,229.1182Q451.17578,228.6963,450.47266,228.1689ZM459.4902,219.36816Q459.4375,221.6123,459.3496,223.02441Q460.4746,228.6436,464.2539,231.0869Q463.6211,231.585,463.1113,232.1182Q459.9473,229.5225,458.8574,225.4092Q457.8906,229.4756,454.11133,232.4932Q453.74219,232.001,453.12695,231.4619Q456.7129,228.8193,457.5742,225.7256Q458.1543,223.88569999999999,458.1719,219.36816L459.4902,219.36816ZM449.13672,214.86816L450.4375,214.86816L450.4375,218.73535L451.12305,218.24316Q452.17773,219.34473,452.95117,220.39941L451.93164,221.24316Q451.24609,220.10645,450.4375,219.11621L450.4375,232.4932L449.13672,232.4932L449.13672,214.86816ZM447.50195,218.99316L448.67969,219.1748Q448.41602,221.39551,447.90625,223.8682Q447.414062,223.7451,446.728516,223.5869Q447.150391,221.69434,447.50195,218.99316ZM460.4746,224.8994Q461.7227,223.5693,462.7422,221.99316L463.8848,222.74902Q462.7422,224.3252,461.4414,225.7432L460.4746,224.8994ZM464.7285,219.83691Q467.2422,217.8916,468.8945,214.86816L470.4414,214.86816Q470.0195,215.64746,469.5742,216.36816L481.9375,216.36816L481.9375,217.49316L468.7891,217.49316Q468.3145,218.0791,467.8047,218.61816L480.1797,218.61816L480.1797,225.3682L478.9492,225.3682L478.9492,224.6182L468.6133,224.6182L468.6133,225.3682L467.4004,225.3682L467.4004,219.09277Q466.5156,220.04199,465.5371,220.86816Q465.2383,220.39355,464.7285,219.83691ZM464.7285,228.8369Q467.9629,227.3135,469.9316,224.9932L471.4961,224.9932Q471.1094,225.5791,470.7051,226.1182L480.21479999999997,226.1182L480.21479999999997,227.2432Q478.5098,228.7139,475.8555,229.874Q478.6094,230.4131,482.2715,230.6182Q481.7969,231.4385,481.4453,232.1182Q477.168,231.585,474.1094,230.5596Q470.9805,231.6318,466.5391,232.4932Q466.2051,231.9951,465.7305,231.4619Q470.0898,230.6709,472.5332,229.8975Q470.5586,228.96,469.2227,227.7295Q467.5527,229.0127,465.5898,229.8682Q465.2031,229.32319999999999,464.7285,228.8369ZM468.6133,223.49316L478.9492,223.49316L478.9492,222.36816L468.6133,222.36816L468.6133,223.49316ZM478.9492,219.74316L468.6133,219.74316L468.6133,221.24316L478.9492,221.24316L478.9492,219.74316ZM478.1934,227.2432L470.1953,227.2432Q471.7363,228.5146,474.1445,229.3525Q476.5879,228.4092,478.1934,227.2432ZM493.0996,215.61816L499.3223,215.61816L499.3223,229.6924Q499.3223,231.7432,497.3535,231.7432Q496.3691,231.7432,495.4199,231.6904Q495.3496,231.2334,495.209,230.6182Q496.4922,230.6182,497.0547,230.6182Q498.0215,230.6182,498.0215,229.6865L498.0215,226.1182L494.2598,226.1182Q494.0664,229.7275,491.9219,232.1182Q491.4473,231.626,490.8672,231.1338Q492.291,229.5283,492.6777,227.8057Q493.0996,226.1475,493.0996,222.04004L493.0996,215.61816ZM482.8516,226.4932L484.5039,226.4932L484.5039,218.61816L483.0625,218.61816L483.0625,217.49316L484.5039,217.49316L484.5039,215.24316L485.8047,215.24316L485.8047,217.49316L489.4609,217.49316L489.4609,215.24316L490.7617,215.24316L490.7617,217.49316L492.1855,217.49316L492.1855,218.61816L490.7617,218.61816L490.7617,226.4932L492.168,226.4932L492.168,227.6182L482.8516,227.6182L482.8516,226.4932ZM494.3418,224.9932L498.0215,224.9932L498.0215,221.24316L494.4004,221.24316Q494.418,223.71,494.3418,224.9932ZM498.0215,216.74316L494.4004,216.74316L494.4004,220.11816L498.0215,220.11816L498.0215,216.74316ZM485.8047,226.4932L489.4609,226.4932L489.4609,224.6182L485.8047,224.6182L485.8047,226.4932ZM485.8047,223.49316L489.4609,223.49316L489.4609,221.61816L485.8047,221.61816L485.8047,223.49316ZM485.8047,220.49316L489.4609,220.49316L489.4609,218.61816L485.8047,218.61816L485.8047,220.49316ZM485.8047,227.9932L486.877,228.8369Q485.1016,230.7939,483.6426,232.1182Q483.2734,231.6963,482.7109,231.1865Q484.3809,229.7334,485.8047,227.9932ZM488.1074,228.79L488.9512,227.9932Q490.1816,228.8369,491.2715,229.6924L490.33979999999997,230.6182Q489.3555,229.71,488.1074,228.79Z" fill="#DDDDDD" fill-opacity="1"/></g></g><path d="M398.5,189.5L398.5,191L406.5,191L406.5,189.5L398.5,189.5ZM410.5,189.5L410.5,191L418.5,191L418.5,189.5L410.5,189.5ZM422.5,189.5L422.5,191L430.5,191L430.5,189.5L422.5,189.5ZM434.5,189.5L434.5,191L442.5,191L442.5,189.5L434.5,189.5ZM446.5,189.5L446.5,191L454.5,191L454.5,189.5L446.5,189.5ZM458.5,189.5L458.5,191L466.5,191L466.5,189.5L458.5,189.5ZM470.5,189.5L470.5,191L478.5,191L478.5,189.5L470.5,189.5ZM482.5,189.5L482.5,191L490.5,191L490.5,189.5L482.5,189.5ZM494.5,189.5L494.5,191L502.5,191L502.5,189.5L494.5,189.5ZM506.5,189.5L506.5,191L514.5,191L514.5,189.5L506.5,189.5ZM518.5,189.5L518.5,191L526.5,191L526.5,189.5L518.5,189.5ZM530.5,189.5L530.5,191L538.5,191L538.5,189.5L530.5,189.5ZM542.5,189.5L542.5,191L547,191L547,191.5L548.5,191.5L548.5,189.5L542.5,189.5ZM548.5,195.5L547,195.5L547,203.5L548.5,203.5L548.5,195.5ZM548.5,207.5L547,207.5L547,215.5L548.5,215.5L548.5,207.5ZM548.5,219.5L547,219.5L547,227.5L548.5,227.5L548.5,219.5ZM548.5,231.5L547,231.5L547,239.5L548.5,239.5L548.5,231.5ZM548.5,243.5L547,243.5L547,251.5L548.5,251.5L548.5,243.5ZM548.5,255.5L547,255.5L547,260L546.5,260L546.5,261.5L548.5,261.5L548.5,255.5ZM542.5,261.5L542.5,260L534.5,260L534.5,261.5L542.5,261.5ZM530.5,261.5L530.5,260L522.5,260L522.5,261.5L530.5,261.5ZM518.5,261.5L518.5,260L510.5,260L510.5,261.5L518.5,261.5ZM506.5,261.5L506.5,260L498.5,260L498.5,261.5L506.5,261.5ZM494.5,261.5L494.5,260L486.5,260L486.5,261.5L494.5,261.5ZM482.5,261.5L482.5,260L474.5,260L474.5,261.5L482.5,261.5ZM470.5,261.5L470.5,260L462.5,260L462.5,261.5L470.5,261.5ZM458.5,261.5L458.5,260L450.5,260L450.5,261.5L458.5,261.5ZM446.5,261.5L446.5,260L438.5,260L438.5,261.5L446.5,261.5ZM434.5,261.5L434.5,260L426.5,260L426.5,261.5L434.5,261.5ZM422.5,261.5L422.5,260L414.5,260L414.5,261.5L422.5,261.5ZM410.5,261.5L410.5,260L402.5,260L402.5,261.5L410.5,261.5ZM400,261.5L400,253.5L398.5,253.5L398.5,261.5L400,261.5ZM398.5,249.5L400,249.5L400,241.5L398.5,241.5L398.5,249.5ZM398.5,237.5L400,237.5L400,229.5L398.5,229.5L398.5,237.5ZM398.5,225.5L400,225.5L400,217.5L398.5,217.5L398.5,225.5ZM398.5,213.5L400,213.5L400,205.5L398.5,205.5L398.5,213.5ZM398.5,201.5L400,201.5L400,193.5L398.5,193.5L398.5,201.5Z" fill-rule="evenodd" fill="#DDDDDD" fill-opacity="1"/></g><g style="mix-blend-mode:passthrough"><g><g style="mix-blend-mode:passthrough"><path d="M56.95312,226.8682Q56.74219,230.0264,55.16016,232.1182Q54.65039,231.5557,54.12305,231.0811Q55.17773,229.4111,55.49414,227.6533Q55.75781,226.1064,55.75781,222.50293L55.75781,215.99316L66.1992,215.99316L66.1992,230.167Q66.1992,232.1006,64.459,232.1182Q63.7031,232.13569999999999,62.3848,232.1182Q62.2441,231.3037,62.1035,230.6182Q63.3691,230.6182,64.0371,230.6182Q64.8984,230.6182,64.8984,229.7627L64.8984,226.8682L61.6113,226.8682L61.6113,231.3682L60.3105,231.3682L60.3105,226.8682L56.95312,226.8682ZM49.728516,224.2432Q50.85352,223.9385,52.03125,223.5928L52.03125,219.74316L49.921875,219.74316L49.921875,218.61816L52.03125,218.61816L52.03125,215.24316L53.33203,215.24316L53.33203,218.61816L55.30078,218.61816L55.30078,219.74316L53.33203,219.74316L53.33203,223.20605Q54.22852,222.94238,55.16016,222.64941Q55.17773,223.5225,55.19531,224.1494Q54.26367,224.4072,53.33203,224.6885L53.33203,230.2256Q53.33203,232.083,51.71484,232.1182Q51.06445,232.1533,50.027344,232.1182Q49.921875,231.2979,49.798828,230.5127Q50.80078,230.6182,51.32812,230.6182Q52.03125,230.6182,52.03125,229.8096L52.03125,225.0986Q50.97656,225.415,49.921875,225.7432L49.728516,224.2432ZM61.6113,225.3682L64.8984,225.3682L64.8984,221.99316L61.6113,221.99316L61.6113,225.3682ZM64.8984,217.49316L61.6113,217.49316L61.6113,220.49316L64.8984,220.49316L64.8984,217.49316ZM57.07617,221.99316Q57.09375,223.833,57.02344,225.3682L60.3105,225.3682L60.3105,221.99316L57.07617,221.99316ZM57.07617,220.49316L60.3105,220.49316L60.3105,217.49316L57.07617,217.49316L57.07617,220.49316ZM68.2734,224.2432L73.2832,224.2432L73.2832,223.11816L69.5215,223.11816L69.5215,221.99316L73.2832,221.99316L73.2832,220.86816L69.0293,220.86816L69.0293,219.74316L73.2832,219.74316L73.2832,218.24316L74.5488,218.24316L74.5488,219.74316L78.4688,219.74316L78.4688,218.24316L79.7344,218.24316L79.7344,219.74316L84.0938,219.74316L84.0938,220.86816L79.7344,220.86816L79.7344,221.99316L83.5664,221.99316L83.5664,223.11816L79.7344,223.11816L79.7344,224.2432L84.7969,224.2432L84.7969,225.3682L80.0332,225.3682Q82.0195,227.2666,85.28909999999999,228.0869Q84.7793,228.61430000000001,84.3926,229.1182Q80.7363,227.9463,78.5039,225.3682L74.4375,225.3682Q72.082,227.6064,68.5898,229.1182Q68.2559,228.6494,67.7461,228.0869Q70.4883,227.167,72.75,225.3682L68.2734,225.3682L68.2734,224.2432ZM69.1875,230.2432L75.8496,230.2432L75.8496,228.7432L72.1406,228.7432L72.1406,227.6182L75.8496,227.6182L75.8496,226.1182L77.1152,226.1182L77.1152,227.6182L80.5254,227.6182L80.5254,228.7432L77.1152,228.7432L77.1152,230.2432L83.6719,230.2432L83.6719,231.3682L69.1875,231.3682L69.1875,230.2432ZM68.5195,216.74316L75.9199,216.74316Q75.5801,216.0752,75.1992,215.43066L76.4473,214.86816Q77.0273,215.83496,77.5195,216.74316L84.5156,216.74316L84.5156,219.36816L83.2148,219.36816L83.2148,217.86816L69.8203,217.86816L69.8203,219.36816L68.5195,219.36816L68.5195,216.74316ZM74.5488,224.2432L78.4688,224.2432L78.4688,223.11816L74.5488,223.11816L74.5488,224.2432ZM74.5488,221.99316L78.4688,221.99316L78.4688,220.86816L74.5488,220.86816L74.5488,221.99316ZM86.83590000000001,215.99316L102.19919999999999,215.99316L102.19919999999999,231.7432L100.7227,231.7432L100.7227,230.6182L88.3125,230.6182L88.3125,231.7432L86.83590000000001,231.7432L86.83590000000001,215.99316ZM100.7227,217.49316L88.3125,217.49316L88.3125,229.4932L100.7227,229.4932L100.7227,217.49316ZM90.77340000000001,219.74316L98.2441,219.74316L98.2441,227.6182L96.87299999999999,227.6182L96.87299999999999,226.4932L92.1445,226.4932L92.1445,227.6182L90.77340000000001,227.6182L90.77340000000001,219.74316ZM96.87299999999999,220.86816L92.1445,220.86816L92.1445,225.3682L96.87299999999999,225.3682L96.87299999999999,220.86816ZM109.0195,215.99316L113.9766,215.99316L113.9766,221.61816L112.8164,221.61816L112.8164,221.24316L110.08590000000001,221.24316Q109.99799999999999,222.22754,109.81049999999999,223.11816L114.0996,223.11816L114.0996,229.4932L112.93950000000001,229.4932L112.93950000000001,228.7432L110.918,228.7432L110.918,229.8682L109.7578,229.8682L109.7578,223.41113Q109.2305,226.0479,108.0703,227.9932Q107.7188,227.5068,107.26169999999999,226.9619Q109.0195,224.126,109.0195,218.9873L109.0195,215.99316ZM110.93549999999999,230.5479L114.9434,230.6182L121.1484,230.4775Q120.9551,230.999,120.6562,231.7256L114.293,231.7432L110.72460000000001,231.6553Q107.666,231.6377,106.4707,229.5576Q105.62700000000001,230.46,104.3789,232.1182L103.6582,230.6182Q104.9062,229.4053,105.9434,228.4385L105.9434,222.36816L103.834,222.36816L103.834,221.24316L107.1562,221.24316L107.1562,228.5557Q108.1875,230.5127,110.93549999999999,230.5479ZM114.6621,225.3682L117,225.3682L117,222.74316L114.4688,222.74316L114.4688,221.61816L121.0957,221.61816L121.0957,222.74316L118.248,222.74316L118.248,225.3682L120.8672,225.3682L120.8672,226.4932L118.248,226.4932L118.248,229.8682L117,229.8682L117,226.4932L114.6621,226.4932L114.6621,225.3682ZM114.5742,217.49316L117.4688,217.49316Q116.9766,216.44434,116.3848,215.43066L117.457,214.86816Q118.1074,215.89355,118.5996,216.94238L117.6445,217.49316L120.8672,217.49316L120.8672,218.61816L114.5742,218.61816L114.5742,217.49316ZM112.8164,217.11816L110.1797,217.11816Q110.1797,218.9873,110.1562,220.11816L112.8164,220.11816L112.8164,217.11816ZM112.93950000000001,224.2432L110.918,224.2432L110.918,227.6182L112.93950000000001,227.6182L112.93950000000001,224.2432ZM105.53909999999999,215.61816Q106.5938,216.96582,107.6309,218.57715L106.5586,219.36816Q105.62700000000001,217.74512,104.5723,216.30371L105.53909999999999,215.61816ZM118.0547,220.62793Q118.793,219.86621,119.3379,218.99316L120.3926,219.53809Q119.8301,220.28223,118.9863,221.24316L118.0547,220.62793ZM114.9609,219.52051L115.875,218.99316Q116.543,219.70801,117.2285,220.5752L116.2441,221.15527Q115.6465,220.31152,114.9609,219.52051Z" fill="#DDDDDD" fill-opacity="1"/></g></g><path d="M1.5,189.5L1.5,191L9.5,191L9.5,189.5L1.5,189.5ZM13.5,189.5L13.5,191L21.5,191L21.5,189.5L13.5,189.5ZM25.5,189.5L25.5,191L33.5,191L33.5,189.5L25.5,189.5ZM37.5,189.5L37.5,191L45.5,191L45.5,189.5L37.5,189.5ZM49.5,189.5L49.5,191L57.5,191L57.5,189.5L49.5,189.5ZM61.5,189.5L61.5,191L69.5,191L69.5,189.5L61.5,189.5ZM73.5,189.5L73.5,191L81.5,191L81.5,189.5L73.5,189.5ZM85.5,189.5L85.5,191L93.5,191L93.5,189.5L85.5,189.5ZM97.5,189.5L97.5,191L105.5,191L105.5,189.5L97.5,189.5ZM109.5,189.5L109.5,191L117.5,191L117.5,189.5L109.5,189.5ZM121.5,189.5L121.5,191L129.5,191L129.5,189.5L121.5,189.5ZM133.5,189.5L133.5,191L141.5,191L141.5,189.5L133.5,189.5ZM145.5,189.5L145.5,191L153.5,191L153.5,189.5L145.5,189.5ZM157.5,189.5L157.5,191L165.5,191L165.5,189.5L157.5,189.5ZM168,189.5L168,197.5L169.5,197.5L169.5,189.5L168,189.5ZM169.5,201.5L168,201.5L168,209.5L169.5,209.5L169.5,201.5ZM169.5,213.5L168,213.5L168,221.5L169.5,221.5L169.5,213.5ZM169.5,225.5L168,225.5L168,233.5L169.5,233.5L169.5,225.5ZM169.5,237.5L168,237.5L168,245.5L169.5,245.5L169.5,237.5ZM169.5,249.5L168,249.5L168,257.5L169.5,257.5L169.5,249.5ZM169.5,260L161.5,260L161.5,261.5L169.5,261.5L169.5,260ZM157.5,261.5L157.5,260L149.5,260L149.5,261.5L157.5,261.5ZM145.5,261.5L145.5,260L137.5,260L137.5,261.5L145.5,261.5ZM133.5,261.5L133.5,260L125.5,260L125.5,261.5L133.5,261.5ZM121.5,261.5L121.5,260L113.5,260L113.5,261.5L121.5,261.5ZM109.5,261.5L109.5,260L101.5,260L101.5,261.5L109.5,261.5ZM97.5,261.5L97.5,260L89.5,260L89.5,261.5L97.5,261.5ZM85.5,261.5L85.5,260L77.5,260L77.5,261.5L85.5,261.5ZM73.5,261.5L73.5,260L65.5,260L65.5,261.5L73.5,261.5ZM61.5,261.5L61.5,260L53.5,260L53.5,261.5L61.5,261.5ZM49.5,261.5L49.5,260L41.5,260L41.5,261.5L49.5,261.5ZM37.5,261.5L37.5,260L29.5,260L29.5,261.5L37.5,261.5ZM25.5,261.5L25.5,260L17.5,260L17.5,261.5L25.5,261.5ZM13.5,261.5L13.5,260L5.5,260L5.5,261.5L13.5,261.5ZM3,261.5L3,253.5L1.5,253.5L1.5,261.5L3,261.5ZM1.5,249.5L3,249.5L3,241.5L1.5,241.5L1.5,249.5ZM1.5,237.5L3,237.5L3,229.5L1.5,229.5L1.5,237.5ZM1.5,225.5L3,225.5L3,217.5L1.5,217.5L1.5,225.5ZM1.5,213.5L3,213.5L3,205.5L1.5,205.5L1.5,213.5ZM1.5,201.5L3,201.5L3,193.5L1.5,193.5L1.5,201.5Z" fill-rule="evenodd" fill="#DDDDDD" fill-opacity="1"/></g><g style="mix-blend-mode:passthrough"><path d="M77.11523,45.6182Q73.125,41.8447,73.125,37.2744Q73.125,36.2021,73.33008,35.1416Q73.53516,34.0752,73.99219,33.00879Q74.45508,31.93652,75.24023,30.87012Q76.02539,29.79785,77.15039,28.74316L78.03516,29.65137Q74.625,33.03809,74.625,37.1572Q74.625,39.208,75.48633,41.1006Q76.34766,42.9932,78.03516,44.674800000000005L77.11523,45.6182ZM89.625,35.9795Q89.625,37.5029,89.2559,38.6162Q88.8867,39.7236,88.2598,40.4443Q87.6387,41.165,86.7949,41.5166Q85.957,41.8682,85.0254,41.8682Q83.9062,41.8682,83.0742,41.4756Q82.248,41.083,81.7031,40.3389Q81.1582,39.5889,80.8887,38.5225Q80.625,37.4561,80.625,36.1143Q80.625,34.6084,80.9883,33.50098Q81.3516,32.3877,81.9785,31.66699Q82.6055,30.94629,83.4375,30.59473Q84.2754,30.24316,85.207,30.24316Q86.3203,30.24316,87.1523,30.6416Q87.9844,31.04004,88.5352,31.78418Q89.0859,32.52246,89.3555,33.58887Q89.625,34.64941,89.625,35.9795ZM88.125,36.0908Q88.125,35.12988,87.9609,34.33301Q87.7969,33.53027,87.4336,32.95605Q87.0703,32.37598,86.4961,32.05957Q85.9277,31.74316,85.1133,31.74316Q84.334,31.74316,83.7656,32.08301Q83.2031,32.42285,82.8398,33.00293Q82.4766,33.58301,82.3008,34.36816Q82.125,35.14746,82.125,36.0205Q82.125,36.9932,82.2891,37.79Q82.459,38.5869,82.8164,39.1611Q83.1797,39.7354,83.748,40.0518Q84.3164,40.3682,85.1133,40.3682Q85.8984,40.3682,86.4668,40.0283Q87.0352,39.6885,87.4043,39.1084Q87.7734,38.5283,87.9492,37.7549Q88.125,36.9756,88.125,36.0908ZM93.1465,28.74316Q97.125,32.5166,97.125,37.1396Q97.125,38.0947,96.9375,39.1201Q96.7559,40.1455,96.3105,41.2236Q95.8652,42.2959,95.0859,43.3975Q94.3066,44.5049,93.1113,45.6182L92.2207,44.71Q93.9375,42.998999999999995,94.7812,41.1475Q95.625,39.29,95.625,37.2568Q95.625,33.0498,92.2207,29.68652L93.1465,28.74316Z" fill="#DDDDDD" fill-opacity="1"/></g><g style="mix-blend-mode:passthrough"><g><g style="mix-blend-mode:passthrough"><g><g style="mix-blend-mode:passthrough"><path d="M445.6738,110.99316L445.6738,112.11816L441.6836,112.11816L441.6836,113.24316L445.0762,113.24316L445.0762,118.8682L443.8809,118.8682L443.8809,118.11816L435.0918,118.11816L435.0918,118.8682L433.8965,118.8682L433.8965,113.24316L437.2715,113.24316L437.2715,112.11816L433.4043,112.11816L433.4043,110.99316L437.2715,110.99316L437.2715,109.86816L438.3965,109.86816L438.3965,110.99316L440.5586,110.99316L440.5586,109.88574L441.6836,109.88574L441.6836,110.99316L445.6738,110.99316ZM434.8809,119.2432L444.1094,119.2432L444.1094,124.8682L442.9141,124.8682L442.9141,124.4932L436.0762,124.4932L436.0762,124.8682L434.8809,124.8682L434.8809,119.2432ZM435.9707,125.5244L439.9785,125.6182L446.2012,125.46000000000001Q446.0078,125.999,445.709,126.7256L439.293,126.7432L435.8301,126.6553Q432.7715,126.6377,431.5234,124.55760000000001Q430.6621,125.46000000000001,429.4316,127.1182L428.6934,125.7119Q429.9414,124.4521,430.9609,123.45609999999999L430.9609,117.36816L428.8691,117.36816L428.8691,115.86816L432.3145,115.86816L432.3145,123.6904Q433.3809,125.4893,435.9707,125.5244ZM436.0762,123.3682L442.9141,123.3682L442.9141,121.8682L436.0762,121.8682L436.0762,123.3682ZM442.9141,120.3682L436.0762,120.3682L436.0762,121.1182L442.9141,121.1182L442.9141,120.3682ZM430.8906,110.24316Q431.9453,111.60254,433.0176,113.18457L431.7344,113.99316Q430.8027,112.40527,429.7305,110.94629L430.8906,110.24316ZM441.6836,117.36816L443.8809,117.36816L443.8809,115.86816L441.6836,115.86816L441.6836,117.36816ZM435.0918,117.36816L437.2715,117.36816L437.2715,115.86816L435.0918,115.86816L435.0918,117.36816ZM443.8809,113.99316L441.6836,113.99316L441.6836,115.11816L443.8809,115.11816L443.8809,113.99316ZM438.3965,117.36816L440.5586,117.36816L440.5586,115.86816L438.3965,115.86816L438.3965,117.36816ZM435.0918,115.11816L437.2715,115.11816L437.2715,113.99316L435.0918,113.99316L435.0918,115.11816ZM438.3965,115.11816L440.5586,115.11816L440.5586,113.99316L438.3965,113.99316L438.3965,115.11816ZM438.3965,113.24316L440.5586,113.24316L440.5586,112.11816L438.3965,112.11816L438.3965,113.24316ZM459.2969,120.0928L460.3164,119.6182Q461.1074,121.0771,461.7578,122.4658L460.6328,122.9932Q460.4512,122.5244,460.2461,122.0498Q457.5039,122.27250000000001,454.0234,122.6182L453.84770000000003,121.31739999999999Q455.3535,121.2471,456.959,121.1357L456.959,119.2432L453.1973,119.2432L453.1973,124.4932L451.9668,124.4932L451.9668,118.11816L456.959,118.11816L456.959,116.99316L453.8652,116.99316L453.8652,117.36816L452.6699,117.36816L452.6699,110.61816L462.4961,110.61816L462.4961,117.36816L461.3008,117.36816L461.3008,116.99316L458.1895,116.99316L458.1895,118.11816L463.3574,118.11816L463.3574,122.79390000000001Q463.3574,124.833,461.5117,124.8506Q460.59770000000003,124.8682,459.2441,124.833Q459.1738,124.2822,458.998,123.6377Q460.2637,123.7432,461.1074,123.7432Q462.127,123.7432,462.127,122.75880000000001L462.127,119.2432L458.1895,119.2432L458.1895,121.0361Q458.9395,120.97749999999999,459.7129,120.9131Q459.5195,120.4971,459.2969,120.0928ZM453.9707,125.5303L457.9961,125.6182L464.2188,125.46000000000001Q464.0254,125.9873,463.7266,126.7256L457.3105,126.7432L453.8301,126.6553Q450.7891,126.64359999999999,449.5586,124.63380000000001Q448.8203,125.3545,447.4316,127.1182L446.7109,125.6182Q448.3105,124.07130000000001,448.9961,123.4209L448.9961,117.36816L446.8867,117.36816L446.8867,116.24316L450.2969,116.24316L450.2969,123.6553Q451.3516,125.49510000000001,453.9707,125.5303ZM448.9082,110.24316Q450.1211,111.79004,451.3691,113.48926L450.1211,114.36816Q448.9609,112.52832,447.7832,110.99902L448.9082,110.24316ZM458.1895,115.86816L461.3008,115.86816L461.3008,114.36816L458.1895,114.36816L458.1895,115.86816ZM453.8652,115.86816L456.959,115.86816L456.959,114.36816L453.8652,114.36816L453.8652,115.86816ZM461.3008,111.74316L458.1895,111.74316L458.1895,113.24316L461.3008,113.24316L461.3008,111.74316ZM453.8652,113.24316L456.959,113.24316L456.959,111.74316L453.8652,111.74316L453.8652,113.24316ZM476.3652,121.4932Q478.7734,123.8252,481.1113,126.5791L479.84569999999997,127.4932Q479.28319999999997,126.6846,478.6328,125.8291Q472.8086,126.03999999999999,468.4199,126.3682Q467.91020000000003,126.4385,466.9082,126.7432L466.1875,125.3369Q467.1191,124.95609999999999,467.83979999999997,124.4346Q469.5801,122.9873,471.2324,120.7432L464.9746,120.7432L464.9746,119.6182L472.7617,119.6182L472.7617,116.61816L466.1172,116.61816L466.1172,115.49316L472.7617,115.49316L472.7617,112.59863Q469.7324,112.74512,466.3633,112.86816Q466.2402,112.12988,466.082,111.36816Q474.2559,111.13965,480.5488,110.61816L480.7598,112.11816Q477.7539,112.34082,474.2559,112.5166L474.2559,115.49316L480.8828,115.49316L480.8828,116.61816L474.2559,116.61816L474.2559,119.6182L482.043,119.6182L482.043,120.7432L473.1133,120.7432Q471.21479999999997,122.98140000000001,469.1406,124.8682Q471.1211,124.8154,477.6074,124.58109999999999Q476.5527,123.4854,475.3105,122.2842L476.3652,121.4932ZM487.1758,109.86816L488.6172,110.25488Q488.2305,111.21582,487.8086,112.11816L497.9336,112.11816Q497.8633,118.41699,497.65229999999997,120.83109999999999Q497.4414,123.7607,494.752,123.7432Q494.0488,123.7432,492.2559,123.7432Q492.1504,123.05760000000001,491.9746,122.2432Q493.4336,122.2432,494.5586,122.2432Q496.15819999999997,122.2607,496.2812,120.5967Q496.4746,118.44042999999999,496.52729999999997,113.61816L487.15819999999997,113.61816Q486.543,114.59668,485.83979999999997,115.49316L493.15229999999997,115.49316L493.15229999999997,120.3682L486.7891,120.3682L486.7891,123.8018Q486.7891,125.2432,488.248,125.2432L496.4395,125.2432Q498.1094,125.2432,498.3906,124.1416Q498.65430000000003,123.1514,498.8125,121.4932Q499.5684,121.792,500.2188,122.0029Q500.0078,123.6494,499.7617,124.6865Q499.3223,126.7432,496.7734,126.7432L487.9492,126.7432Q485.3828,126.7432,485.3828,124.2295L485.3828,116.17871Q484.5215,117.39746,483.5547,118.49316Q483.1504,117.90137,482.6758,117.46191Q485.7344,113.99316,487.1758,109.86816ZM491.7812,116.61816L486.7891,116.61816L486.7891,119.2432L491.7812,119.2432L491.7812,116.61816ZM508.023,126.0869Q510.221,124.61619999999999,511.873,122.7178Q510.748,119.6416,510.53700000000003,114.36816L501.0625,114.36816L501.0625,112.86816L510.484,112.86816Q510.414,111.42676,510.361,109.86816L511.803,109.86816Q511.81399999999996,111.42676,511.855,112.86816L518.078,112.86816L518.078,114.36816L511.885,114.36816Q511.996,118.6807,512.869,121.4346Q514.562,119.12010000000001,515.547,116.24316L516.936,116.82324Q515.506,120.32130000000001,513.449,122.958Q514.24,124.6455,515.336,125.3545Q516.391,126.03999999999999,516.637,124.76859999999999Q516.9,123.4502,517.0409999999999,121.8682Q517.762,122.1846,518.395,122.3779Q518.061,124.52250000000001,517.762,125.624Q517.393,127.083,516.162,127.1182Q515.143,127.1182,514.176,126.3623Q513.191,125.5127,512.482,124.12989999999999Q510.924,125.8408,509.043,127.1182Q508.639,126.6611,508.023,126.0869ZM502.3105,115.86816L508.639,115.86816L508.639,121.8682L507.373,121.8682L507.373,121.1182L503.5762,121.1182L503.5762,122.2432L502.3105,122.2432L502.3105,115.86816ZM500.7988,124.4932Q504.1562,123.9834,509.553,122.8994Q509.57,123.749,509.605,124.3994Q505.6504,125.0615,501.1504,125.9932L500.7988,124.4932ZM507.373,116.99316L503.5762,116.99316L503.5762,119.9932L507.373,119.9932L507.373,116.99316ZM513.139,110.89941L513.877,109.86816Q515.301,110.74707,516.76,111.83691L515.9159999999999,112.86816Q514.598,111.86035,513.139,110.89941ZM416.58789,148.8682L410.125,148.8682L410.125,137.2432L416.58789,137.2432L416.58789,138.7432L411.625,138.7432L411.625,142.1182L416.39453,142.1182L416.39453,143.6182L411.625,143.6182L411.625,147.3682L416.58789,147.3682L416.58789,148.8682ZM426.5254,148.2529Q425.1426,148.8682,423.6309,148.8682Q421.1992,148.8682,419.9746,147.4326Q418.75,145.9971,418.75,143.1787Q418.75,141.8193,419.0723,140.7178Q419.4004,139.6162,420.0215,138.8486Q420.6426,138.0752,421.5918,137.6592Q422.541,137.2432,423.7188,137.2432Q424.5215,137.2432,425.207,137.3896Q425.8926,137.5361,426.5254,137.8408L426.5254,139.4463Q425.8984,139.1064,425.2305,138.9248Q424.5625,138.7432,423.7715,138.7432Q422.9629,138.7432,422.3066,139.0361Q421.6562,139.32319999999999,421.1992,139.8799Q420.7422,140.4307,420.4961,141.2275Q420.25,142.0244,420.25,143.0498Q420.25,145.1885,421.1523,146.2783Q422.0605,147.3682,423.8066,147.3682Q424.5449,147.3682,425.2188,147.19819999999999Q425.8984,147.0283,426.5254,146.7178L426.5254,148.2529ZM436.375,148.8682L434.4473,148.8682L431.2891,141.7021L430.375,139.3994L430.375,145.1943L430.375,148.8682L428.875,148.8682L428.875,137.2432L430.7734,137.2432L433.7852,144.0283L434.875,146.6592L434.875,140.5068L434.875,137.2432L436.375,137.2432L436.375,148.8682ZM445.0762,144.7432L439.8203,144.7432L439.8203,143.2432L445.0762,143.2432L445.0762,144.7432ZM455.7754,148.2529Q454.3926,148.8682,452.8809,148.8682Q450.4492,148.8682,449.2246,147.4326Q448,145.9971,448,143.1787Q448,141.8193,448.3223,140.7178Q448.6504,139.6162,449.2715,138.8486Q449.8926,138.0752,450.8418,137.6592Q451.791,137.2432,452.9688,137.2432Q453.7715,137.2432,454.457,137.3896Q455.1426,137.5361,455.7754,137.8408L455.7754,139.4463Q455.1484,139.1064,454.4805,138.9248Q453.8125,138.7432,453.0215,138.7432Q452.2129,138.7432,451.5566,139.0361Q450.9062,139.32319999999999,450.4492,139.8799Q449.9922,140.4307,449.7461,141.2275Q449.5,142.0244,449.5,143.0498Q449.5,145.1885,450.40229999999997,146.2783Q451.3105,147.3682,453.0566,147.3682Q453.7949,147.3682,454.4688,147.19819999999999Q455.1484,147.0283,455.7754,146.7178L455.7754,148.2529ZM465.3379,148.8682L458.875,148.8682L458.875,137.2432L465.3379,137.2432L465.3379,138.7432L460.375,138.7432L460.375,142.1182L465.1445,142.1182L465.1445,143.6182L460.375,143.6182L460.375,147.3682L465.3379,147.3682L465.3379,148.8682ZM472.6562,139.8682L477.7715,139.8682L477.7715,133.8682L479.28319999999997,133.8682L479.28319999999997,139.8682L484.4336,139.8682L484.4336,140.9932L479.28319999999997,140.9932L479.28319999999997,151.1182L477.7715,151.1182L477.7715,140.9932L472.6562,140.9932L472.6562,139.8682ZM474.2734,146.2432Q474.3262,147.1572,474.3965,147.7725Q471.584,149.4775,469.7559,150.7432L468.9121,149.7119Q469.52729999999997,149.1729,469.52729999999997,148.083L469.52729999999997,140.9932L467.0312,140.9932L467.0312,139.8682L470.9336,139.8682L470.9336,148.3994Q472.4629,147.4443,474.2734,146.2432ZM468.8242,134.2432Q470.7402,136.0713,471.6016,136.9561L470.3711,137.9932Q469.2637,136.6338,467.752,135.1748L468.8242,134.2432ZM496.4922,133.8682L497.8984,134.0791Q497.52930000000003,135.7725,497.0371,137.2432L502.416,137.2432L502.416,138.3682L501.3086,138.3682Q500.8691,143.6123,499.0586,146.6943Q500.4824,148.7686,502.6797,150.0869Q502.1172,150.8721,501.7305,151.4932Q499.5859,149.999,498.1621,147.9424Q496.5449,149.9873,494.3125,151.4932Q493.9258,151.0186,493.3105,150.4619Q495.7715,148.8096,497.3008,146.7061Q495.877,144.1631,495.4199,140.835Q495.0508,141.5205,494.6465,142.1182Q494.2949,141.6494,493.7676,141.0869Q495.8066,138.1221,496.4922,133.8682ZM485.1719,143.9932L487.8438,143.9932Q488.2305,143.26069999999999,488.5996,142.4932L489.8652,142.8975Q489.584,143.45409999999998,489.3027,143.9932L493.6094,143.9932L493.6094,145.1006Q492.9414,146.9346,491.5879,148.3174Q492.5547,148.8271,493.5566,149.3369L492.78319999999997,150.3682Q491.6934,149.7354,490.5156,149.1025Q488.52930000000003,150.61430000000001,485.5059,151.4932Q485.2246,150.9775,484.90819999999997,150.3682Q487.4746,149.7002,489.25,148.4463Q487.7383,147.6553,486.0859,146.82909999999998Q486.6484,145.9971,487.1758,145.1182L485.1719,145.1182L485.1719,143.9932ZM485.3652,137.9932L489.40819999999997,137.9932L489.40819999999997,133.8682L490.709,133.8682L490.709,137.9932L494.084,137.9932L494.084,139.1182L490.709,139.1182L490.709,140.0029L491.2363,139.3994Q492.8711,140.5654,493.9785,141.4619L493.1348,142.4932Q492.168,141.57909999999998,490.709,140.4365L490.709,142.4932L489.40819999999997,142.4932L489.40819999999997,139.9795Q487.8086,141.6201,485.6816,142.8682Q485.34770000000003,142.376,484.9258,141.8369Q487.1406,140.7236,488.9863,139.1182L485.3652,139.1182L485.3652,137.9932ZM499.90229999999997,138.3682L496.6152,138.3682Q496.52729999999997,138.6025,496.4219,138.8193Q496.7383,142.6455,498.1797,145.3701Q499.5859,142.73340000000002,499.90229999999997,138.3682ZM487.8086,146.3838Q489.0566,147.04,490.375,147.7549Q491.5879,146.63569999999999,492.2734,145.1182L488.6172,145.1182Q488.2129,145.7686,487.8086,146.3838ZM493.293,134.6182L494.3828,135.3389Q493.416,136.3701,492.4492,137.2432Q492.0449,136.8916,491.5,136.5049Q492.4141,135.6318,493.293,134.6182ZM485.8223,135.3037L486.8242,134.6182Q487.6152,135.4795,488.459,136.4697L487.3691,137.2432Q486.59569999999997,136.2178,485.8223,135.3037ZM508.902,136.4932L511.92,136.4932Q511.305,135.5498,510.555,134.5713L511.557,133.8682Q512.471,134.9521,513.139,135.8955L512.324,136.4932L515.277,136.4932Q516.139,135.2627,516.953,133.8682L518.219,134.5889Q517.475,135.585,516.754,136.4932L519.73,136.4932L519.73,142.8682L518.5,142.8682L518.5,142.4932L510.133,142.4932L510.133,142.8682L508.902,142.8682L508.902,136.4932ZM509.605,143.9932L519.027,143.9932L519.027,151.1182L517.762,151.1182L517.762,150.3682L510.871,150.3682L510.871,151.1182L509.605,151.1182L509.605,143.9932ZM502.9785,147.3682Q504.0625,147.1104,505.2637,146.7881L505.2637,139.8682L503.15430000000003,139.8682L503.15430000000003,138.7432L505.2637,138.7432L505.2637,134.2432L506.5645,134.2432L506.5645,138.7432L508.375,138.7432L508.375,139.8682L506.5645,139.8682L506.5645,146.4424Q507.5605,146.1729,508.639,145.8682Q508.674,146.7588,508.727,147.3682Q506.4238,147.95409999999998,503.4531,148.8682L502.9785,147.3682ZM518.5,137.6182L514.914,137.6182L514.914,141.3682L518.5,141.3682L518.5,137.6182ZM510.133,141.3682L513.701,141.3682L513.701,137.6182L510.133,137.6182L510.133,141.3682ZM517.762,145.1182L510.871,145.1182L510.871,146.6182L517.762,146.6182L517.762,145.1182ZM510.871,149.2432L517.762,149.2432L517.762,147.7432L510.871,147.7432L510.871,149.2432ZM517.797,138.9834Q516.83,140.48930000000001,516.408,140.9932L515.4590000000001,140.4307Q516.092,139.5811,516.76,138.3682L517.797,138.9834ZM510.801,138.94819999999999L511.697,138.3682Q512.488,139.2295,513.068,139.9854L512.0840000000001,140.6182Q511.521,139.8271,510.801,138.94819999999999ZM531.051,136.1182L537.73,136.1182L537.73,150.7432L536.342,150.7432L536.342,148.8682L532.439,148.8682L532.439,150.7432L531.051,150.7432L531.051,136.1182ZM521.4,136.8682L523.855,136.8682Q523.873,135.5205,523.861,133.8682L525.25,133.8682Q525.25,135.5381,525.232,136.8682L529.328,136.8682Q529.24,143.7354,529.1,147.6494Q529.029,150.8662,526.7090000000001,150.7432Q526.023,150.7432,524.688,150.6904Q524.564,149.9932,524.406,149.2432Q525.637,149.2432,526.41,149.2432Q527.588,149.2783,527.693,147.57319999999999Q527.887,143.4131,527.922,138.3682L525.215,138.3682Q525.197,139.73930000000001,525.162,140.7002Q525.092,147.708,521.857,151.4932Q521.418,151.0186,520.8199999999999,150.4619Q523.738,147.1514,523.7909999999999,140.5889Q523.826,139.6338,523.844,138.3682L521.4,138.3682L521.4,136.8682ZM536.342,137.6182L532.439,137.6182L532.439,147.7432L536.342,147.7432L536.342,137.6182Z" fill="#DDDDDD" fill-opacity="1"/></g></g></g><g style="mix-blend-mode:passthrough"><path d="M491.5,182.25L483.5,182.25L483.5,180.75L491.5,180.75M479.5,182.25L472.5,182.25L472.5,180.75L479.5,180.75M471.96967,180.96967L476.74264,176.1967Q476.79487,176.14447,476.85629,176.10343Q476.91771,176.06239,476.98596,176.03412Q477.0542,176.00585,477.12665,175.99144Q477.1991,175.97703,477.27297,175.97703Q477.34684,175.97703,477.41929,175.99144Q477.49174,176.00585,477.55998,176.03412Q477.62823,176.06239,477.68965000000003,176.10343Q477.75107,176.14447,477.8033,176.1967Q477.85553,176.24893,477.89657,176.31035Q477.93761,176.37177,477.96588,176.44002Q477.99415,176.50826,478.00856,176.58071Q478.02297,176.65316,478.02297,176.72703Q478.02297,176.8009,478.00856,176.87335Q477.99415,176.9458,477.96588,177.01404Q477.93761,177.08229,477.89657,177.14371Q477.85553,177.20513,477.8033,177.25736L473.03033,182.03033Q472.978097,182.082563,472.916678,182.123602Q472.855258,182.164641,472.787012,182.19291Q472.718767,182.221178,472.646318,182.235589Q472.5738684,182.25,472.499999877795,182.25Q472.4261313,182.25,472.353682,182.235589Q472.281233,182.221178,472.212987,182.192909Q472.144742,182.164641,472.083322,182.123602Q472.021903,182.082563,471.96967,182.03033Q471.917437,181.978097,471.876398,181.916678Q471.835359,181.855258,471.80709,181.787012Q471.778822,181.718767,471.764411,181.646318Q471.75,181.5738684,471.75,181.499999877795Q471.75,181.4261313,471.764411,181.353682Q471.778822,181.281233,471.807091,181.212987Q471.835359,181.144742,471.876398,181.083322Q471.917437,181.021903,471.96967,180.96967ZM473.03033,180.96967L477.8033,185.74264Q477.85553,185.79487,477.89657,185.85629Q477.93761,185.91771,477.96588,185.98596Q477.99415,186.0542,478.00856,186.12665Q478.02297,186.1991,478.02297,186.27297Q478.02297,186.34684,478.00856,186.41929Q477.99415,186.49174,477.96588,186.55998Q477.93761,186.62823,477.89657,186.68965Q477.85553,186.75107,477.8033,186.8033Q477.75107,186.85553,477.68965000000003,186.89657Q477.62823,186.93761,477.55998,186.96588Q477.49174,186.99415,477.41929,187.00856Q477.34684,187.02297,477.27297,187.02297Q477.1991,187.02297,477.12665,187.00856Q477.0542,186.99415,476.98596,186.96588Q476.91771,186.93761,476.85629,186.89657Q476.79487,186.85553,476.74264,186.8033L471.96967,182.03033Q471.917437,181.978097,471.876398,181.916678Q471.835359,181.855258,471.80709,181.787013Q471.778822,181.718767,471.764411,181.646318Q471.75,181.5738687,471.75,181.500000122205Q471.75,181.4261316,471.764411,181.353682Q471.778822,181.281233,471.80709,181.212988Q471.835359,181.144742,471.876398,181.083322Q471.917437,181.021903,471.96967,180.96967Q472.021903,180.917437,472.083322,180.876398Q472.144742,180.835359,472.212987,180.80709Q472.281233,180.778822,472.353682,180.764411Q472.4261313,180.75,472.499999877795,180.75Q472.5738684,180.75,472.646318,180.764411Q472.718767,180.778822,472.787012,180.80709Q472.855258,180.835359,472.916678,180.876398Q472.978097,180.917437,473.03033,180.96967Z" transform="matrix(0,-1,1,0,291,654)" fill="#DDDDDD" fill-opacity="1"/></g><g style="mix-blend-mode:passthrough"><path d="M491.5,101.25L483.5,101.25L483.5,99.75L491.5,99.75M479.5,101.25L472.5,101.25L472.5,99.75L479.5,99.75" transform="matrix(0,-1,1,0,372,573)" fill="#DDDDDD" fill-opacity="1"/></g></g></g><g style="mix-blend-mode:passthrough"><g><g style="mix-blend-mode:passthrough"><g><g style="mix-blend-mode:passthrough"><path d="M190.6074,28.36816Q194.2461,28.33301,197.32229999999998,27.61816L197.7793,29.11816Q194.2988,29.40527,191.8555,29.49316L191.8555,33.61816L198.2715,33.61816L198.2715,34.74316L195.7578,34.74316L195.7578,44.1182L194.457,44.1182L194.457,34.74316L191.8555,34.74316L191.8555,35.6162Q191.8555,41.0771,189.27148,44.1182Q188.84961,43.6201,188.33984,43.0869Q190.6074,40.5967,190.6074,35.7275L190.6074,28.36816ZM181.238281,36.2432L184.82422,36.2432L184.82422,34.36816L186.08984,34.36816L186.08984,36.2432L189.53516,36.2432L189.53516,37.3682L186.08984,37.3682L186.08984,41.9033Q186.08984,43.7432,184.29688,43.7432Q183.54102,43.7432,182.5918,43.7256Q182.52148,43.1982,182.39844,42.512699999999995Q183.41797,42.6182,183.99805,42.6182Q184.82422,42.6182,184.82422,41.7158L184.82422,37.3682L181.238281,37.3682L181.238281,36.2432ZM180.746094,32.86816L183.57617,32.86816Q182.83203,31.73145,182.16992,30.91113L183.11914,30.24316Q183.69922,30.92285,184.61328,32.1709L183.62305,32.86816L185.94336,32.86816Q186.89844,31.53809,187.70703,30.24316L188.95508,30.94629Q188.10547,31.98926,187.33203,32.86816L189.99219,32.86816L189.99219,33.99316L180.746094,33.99316L180.746094,32.86816ZM181.308594,28.74316L185.10547,28.74316Q184.73047,28.12207,184.24414,27.39551L185.36914,26.86816Q185.91406,27.6709,186.38867,28.49121L185.80273,28.74316L189.53516,28.74316L189.53516,29.86816L181.308594,29.86816L181.308594,28.74316ZM182.5918,38.1182L183.78711,38.6807Q182.83789,40.6553,181.90625,42.2432Q181.396484,41.9268,180.746094,41.6045Q181.60742,40.2803,182.5918,38.1182ZM187.6543,38.1182Q188.63867,39.5303,189.37695,40.7197L188.25195,41.4932Q187.47852,40.0635,186.61719,38.8037L187.6543,38.1182ZM199.8535,35.11816L201.0137,35.11816L201.0137,41.54Q201.7285,41.417,202.4727,41.2881L202.4727,33.24316L201.0664,33.24316L201.0664,33.99316L199.8008,33.99316L199.8008,27.99316L205.5664,27.99316L205.5664,33.24316L203.7031,33.24316L203.7031,36.2432L205.5312,36.2432L205.5312,37.3682L203.7031,37.3682L203.7031,41.0771Q204.8047,40.8779,205.9531,40.6494Q205.918,41.1709,205.918,41.7744Q202.49020000000002,42.5713,199.1328,43.3682L198.7812,41.8682Q199.3086,41.7979,199.8535,41.7158L199.8535,35.11816ZM205.7422,32.21191Q207.5879,29.97949,208.9414,26.86816L210.2422,27.34277Q209.8672,28.0752,209.4863,28.74316L215.041,28.74316L215.041,29.85059Q213.89260000000002,32.01855,211.9941,33.85254Q213.7227,34.94824,216.2539,35.49316Q215.9023,36.29,215.6738,36.9932Q212.9141,36.0908,210.9922,34.72559Q209.0762,36.208,206.3398,37.3682Q206.1641,37.0752,205.6367,36.3369Q208.0215,35.45801,209.95510000000002,33.97559Q208.8887,32.86816,208.0391,31.2041Q207.3242,32.34668,206.6211,33.24316Q206.1992,32.68652,205.7422,32.21191ZM207.043,37.3682L214.6895,37.3682L214.6895,44.1182L213.3711,44.1182L213.3711,43.3682L208.3613,43.3682L208.3613,44.1182L207.043,44.1182L207.043,37.3682ZM213.3711,38.4932L208.3613,38.4932L208.3613,42.2432L213.3711,42.2432L213.3711,38.4932ZM204.3008,32.11816L204.3008,29.11816L201.0664,29.11816L201.0664,32.11816L204.3008,32.11816ZM213.5293,29.86816L208.8359,29.86816Q208.7832,29.95605,208.7305,30.0498Q209.6211,31.91309,210.9453,33.16699Q212.5273,31.69043,213.5293,29.86816ZM223.2148,29.11816L223.2148,27.99316L232.6367,27.99316L232.6367,29.13574Q231.1719,30.88184,229.49020000000002,32.27637Q232.1387,34.00488,234.3242,35.5869L233.4805,36.6182Q231.2832,34.98926,228.3594,33.12012Q225.6523,35.10645,222.4238,36.2432Q222.125,35.7334,221.7031,35.21191Q227.4512,33.10254,230.6328,29.11816L223.2148,29.11816ZM221.9316,42.2432L227.416,42.2432L227.416,37.7432L222.9336,37.7432L222.9336,36.6182L233.2344,36.6182L233.2344,37.7432L228.7168,37.7432L228.7168,42.2432L234.2188,42.2432L234.2188,43.3682L221.9316,43.3682L221.9316,42.2432ZM216.6055,37.3682Q219.2422,35.1416,221.4219,30.99316L222.6172,31.74902Q221.6855,33.43652,220.6484,34.90137L220.6484,44.1182L219.29489999999998,44.1182L219.29489999999998,36.665Q218.293,37.8545,217.2031,38.8682Q216.9395,38.0889,216.6055,37.3682ZM216.7988,31.50879Q219.418,29.40527,221.1055,26.493164L222.3008,27.2666Q220.3145,30.43066,217.4668,32.86816Q217.168,32.23535,216.7988,31.50879ZM242.0234,43.0869Q244.2207,41.6162,245.873,39.7178Q244.748,36.6416,244.5371,31.36816L235.0625,31.36816L235.0625,29.86816L244.4844,29.86816Q244.4141,28.42676,244.3613,26.86816L245.80270000000002,26.86816Q245.8145,28.42676,245.8555,29.86816L252.0781,29.86816L252.0781,31.36816L245.88479999999998,31.36816Q245.9961,35.6807,246.8691,38.4346Q248.5625,36.1201,249.5469,33.24316L250.9355,33.82324Q249.5059,37.3213,247.44920000000002,39.958Q248.24020000000002,41.6455,249.33589999999998,42.3545Q250.3906,43.04,250.63670000000002,41.7686Q250.9004,40.4502,251.041,38.8682Q251.76170000000002,39.1846,252.3945,39.3779Q252.0605,41.5225,251.76170000000002,42.623999999999995Q251.39260000000002,44.083,250.1621,44.1182Q249.14260000000002,44.1182,248.17579999999998,43.362300000000005Q247.1914,42.512699999999995,246.48239999999998,41.1299Q244.9238,42.8408,243.043,44.1182Q242.6387,43.661100000000005,242.0234,43.0869ZM236.3105,32.86816L242.6387,32.86816L242.6387,38.8682L241.373,38.8682L241.373,38.1182L237.5762,38.1182L237.5762,39.2432L236.3105,39.2432L236.3105,32.86816ZM234.7988,41.4932Q238.1562,40.9834,243.55270000000002,39.8994Q243.5703,40.749,243.6055,41.3994Q239.6504,42.061499999999995,235.1504,42.9932L234.7988,41.4932ZM241.373,33.99316L237.5762,33.99316L237.5762,36.9932L241.373,36.9932L241.373,33.99316ZM247.1387,27.89941L247.877,26.86816Q249.30079999999998,27.74707,250.75979999999998,28.83691L249.916,29.86816Q248.5977,28.86035,247.1387,27.89941ZM252.7461,36.2432Q254.082,35.9385,255.207,35.6572L255.207,31.36816L252.9043,31.36816L252.9043,30.24316L255.207,30.24316L255.207,26.86816L256.5781,26.86816L256.5781,30.24316L258.8281,30.24316L258.8281,31.36816L256.5781,31.36816L256.5781,35.31152Q257.6797,35.00684,258.5117,34.74316Q258.52930000000003,35.43457,258.6348,36.2432Q257.5391,36.5186,256.5781,36.7646L256.5781,42.126000000000005Q256.5781,44.1182,254.7852,44.1182Q254.24020000000002,44.1182,253.11520000000002,44.083Q253.04489999999998,43.2979,252.88670000000002,42.4951Q253.9941,42.6182,254.4863,42.6182Q255.207,42.6182,255.207,41.7979L255.207,37.1396Q253.9062,37.4736,252.9219,37.7432L252.7461,36.2432ZM258.6172,33.24316L263.6797,33.24316L263.6797,30.61816L259.6191,30.61816L259.6191,29.49316L263.6797,29.49316L263.6797,26.86816L265.0508,26.86816L265.0508,29.49316L269.1641,29.49316L269.1641,30.61816L265.0508,30.61816L265.0508,33.24316L270.2715,33.24316L270.2715,34.36816L258.6172,34.36816L258.6172,33.24316ZM258.6875,36.6182L266.123,36.6182L266.123,34.74316L267.4941,34.74316L267.4941,36.6182L270.1133,36.6182L270.1133,37.7432L267.4941,37.7432L267.4941,41.7744Q267.4941,43.7256,265.6836,43.7432Q264.5938,43.7607,263.082,43.7256Q263.0117,43.262699999999995,262.8887,42.6182Q264.2246,42.6182,265.27930000000003,42.6182Q266.123,42.6182,266.123,41.6279L266.123,37.7432L258.6875,37.7432L258.6875,36.6182ZM259.7949,38.8389L260.77930000000003,38.1182Q262.0801,39.4717,262.9941,40.667L261.8164,41.4932Q260.9551,40.1748,259.7949,38.8389ZM276.8633,31.74316L281.68,31.74316L281.68,29.86816L277.5488,29.86816L277.5488,28.74316L281.68,28.74316L281.68,26.86816L283.016,26.86816L283.016,28.74316L287.199,28.74316L287.199,29.86816L283.016,29.86816L283.016,31.74316L288.025,31.74316L288.025,32.86816Q287.217,34.35645,286.373,35.49316Q285.688,35.17676,285.10699999999997,35.01855Q285.951,33.94043,286.584,32.86816L276.8633,32.86816L276.8633,31.74316ZM276.793,38.8682L282.084,38.8682Q282.488,37.1924,282.453,33.61816L283.736,33.61816Q283.736,37.0811,283.402,38.8682L288.043,38.8682L288.043,39.9932L283.402,39.9932Q285.81100000000004,41.6455,288.201,43.4619L287.217,44.4932Q285.14300000000003,42.6064,282.611,40.8135Q281.029,43.3213,276.916,44.4932Q276.6172,43.9951,276.1777,43.4619Q280.502,42.2314,281.627,39.9932L276.793,39.9932L276.793,38.8682ZM272.8555,37.4619Q274.7715,37.2275,276.4414,36.8994Q276.3711,37.6084,276.3184,38.0244Q274.2617,38.3701,271.3262,38.9619L271.0449,37.5088Q272.1348,36.4482,273.71680000000003,33.4248Q272.0996,33.53027,271.09770000000003,33.61816L270.7461,32.48145Q272.082,30.68262,273.6816,26.86816L275.0176,27.36035Q273.4355,30.46582,272.2051,32.49316Q273.1367,32.49316,274.332,32.45801Q274.9473,31.29199,275.6328,29.86816L276.8633,30.44824Q274.6309,34.72559,272.8555,37.4619ZM270.8691,41.4932Q273.6289,40.9658,276.5469,40.2744Q276.4766,41.3701,276.4766,41.7744Q273.91020000000003,42.3428,271.2559,42.9932L270.8691,41.4932ZM277.0742,36.5244L277.77729999999997,35.49316Q279.5,36.6182,280.4316,37.4619L279.623,38.4932Q278.832,37.7549,277.0742,36.5244ZM278.3047,34.64941L279.0254,33.61816Q280.4316,34.32715,281.645,35.21191L280.854,36.2432Q279.7285,35.46973,278.3047,34.64941ZM295.953,38.8682Q295.742,42.026399999999995,294.15999999999997,44.1182Q293.65,43.5557,293.123,43.0811Q294.178,41.4111,294.494,39.6533Q294.758,38.1064,294.758,34.50293L294.758,27.99316L305.199,27.99316L305.199,42.167Q305.199,44.1006,303.459,44.1182Q302.703,44.1357,301.385,44.1182Q301.244,43.3037,301.104,42.6182Q302.369,42.6182,303.03700000000003,42.6182Q303.898,42.6182,303.898,41.762699999999995L303.898,38.8682L300.611,38.8682L300.611,43.3682L299.31100000000004,43.3682L299.31100000000004,38.8682L295.953,38.8682ZM288.729,36.2432Q289.854,35.9385,291.031,35.5928L291.031,31.74316L288.922,31.74316L288.922,30.61816L291.031,30.61816L291.031,27.24316L292.332,27.24316L292.332,30.61816L294.301,30.61816L294.301,31.74316L292.332,31.74316L292.332,35.20605Q293.229,34.94238,294.15999999999997,34.64941Q294.178,35.5225,294.195,36.1494Q293.264,36.4072,292.332,36.6885L292.332,42.2256Q292.332,44.083,290.71500000000003,44.1182Q290.06399999999996,44.1533,289.027,44.1182Q288.922,43.2979,288.799,42.512699999999995Q289.801,42.6182,290.328,42.6182Q291.031,42.6182,291.031,41.8096L291.031,37.0986Q289.977,37.415,288.922,37.7432L288.729,36.2432ZM300.611,37.3682L303.898,37.3682L303.898,33.99316L300.611,33.99316L300.611,37.3682ZM303.898,29.49316L300.611,29.49316L300.611,32.49316L303.898,32.49316L303.898,29.49316ZM296.076,33.99316Q296.094,35.833,296.023,37.3682L299.31100000000004,37.3682L299.31100000000004,33.99316L296.076,33.99316ZM296.076,32.49316L299.31100000000004,32.49316L299.31100000000004,29.49316L296.076,29.49316L296.076,32.49316ZM307.273,36.2432L312.283,36.2432L312.283,35.11816L308.52099999999996,35.11816L308.52099999999996,33.99316L312.283,33.99316L312.283,32.86816L308.029,32.86816L308.029,31.74316L312.283,31.74316L312.283,30.24316L313.549,30.24316L313.549,31.74316L317.469,31.74316L317.469,30.24316L318.73400000000004,30.24316L318.73400000000004,31.74316L323.094,31.74316L323.094,32.86816L318.73400000000004,32.86816L318.73400000000004,33.99316L322.56600000000003,33.99316L322.56600000000003,35.11816L318.73400000000004,35.11816L318.73400000000004,36.2432L323.797,36.2432L323.797,37.3682L319.033,37.3682Q321.02,39.2666,324.289,40.0869Q323.779,40.6143,323.39300000000003,41.1182Q319.736,39.9463,317.504,37.3682L313.438,37.3682Q311.082,39.6064,307.59000000000003,41.1182Q307.256,40.6494,306.746,40.0869Q309.488,39.167,311.75,37.3682L307.273,37.3682L307.273,36.2432ZM308.188,42.2432L314.85,42.2432L314.85,40.7432L311.14099999999996,40.7432L311.14099999999996,39.6182L314.85,39.6182L314.85,38.1182L316.115,38.1182L316.115,39.6182L319.525,39.6182L319.525,40.7432L316.115,40.7432L316.115,42.2432L322.672,42.2432L322.672,43.3682L308.188,43.3682L308.188,42.2432ZM307.52,28.74316L314.91999999999996,28.74316Q314.58000000000004,28.0752,314.199,27.43066L315.447,26.86816Q316.027,27.83496,316.52,28.74316L323.51599999999996,28.74316L323.51599999999996,31.36816L322.21500000000003,31.36816L322.21500000000003,29.86816L308.82,29.86816L308.82,31.36816L307.52,31.36816L307.52,28.74316ZM313.549,36.2432L317.469,36.2432L317.469,35.11816L313.549,35.11816L313.549,36.2432ZM313.549,33.99316L317.469,33.99316L317.469,32.86816L313.549,32.86816L313.549,33.99316Z" fill="#DDDDDD" fill-opacity="1"/></g></g></g><g style="mix-blend-mode:passthrough"><g><g style="mix-blend-mode:passthrough"><path d="M235.5,37.25L227.5,37.25L227.5,35.75L235.5,35.75M223.5,37.25L215.5,37.25L215.5,35.75L223.5,35.75M211.5,37.25L203.5,37.25L203.5,35.75L211.5,35.75M199.5,37.25L191.5,37.25L191.5,35.75L199.5,35.75M187.5,37.25L179.49999,37.25L179.49999,35.75L187.5,35.75M175.49999,37.25L172.5,37.25L172.5,35.75L175.49999,35.75" transform="matrix(-1,0,0,-1,345,73)" fill="#DDDDDD" fill-opacity="1"/></g></g></g><g style="mix-blend-mode:passthrough"><g><g style="mix-blend-mode:passthrough"><path d="M447.5,37.25L439.5,37.25L439.5,35.75L447.5,35.75M435.5,37.25L427.5,37.25L427.5,35.75L435.5,35.75M423.5,37.25L415.5,37.25L415.5,35.75L423.5,35.75M411.5,37.25L403.5,37.25L403.5,35.75L411.5,35.75M399.5,37.25L391.499996,37.25L391.499996,35.75L399.5,35.75M389.96967,35.96967L394.74264,31.1967Q394.79487,31.14447,394.85629,31.10343Q394.91771,31.06239,394.98596,31.03412Q395.0542,31.00585,395.12665,30.99144Q395.1991,30.97703,395.27297,30.97703Q395.34684,30.97703,395.41929,30.99144Q395.49174,31.00585,395.55998,31.03412Q395.62823,31.06239,395.68965000000003,31.10343Q395.75107,31.14447,395.8033,31.1967Q395.85553,31.24893,395.89657,31.31035Q395.93761,31.371769999999998,395.96588,31.44002Q395.99415,31.50826,396.00856,31.58071Q396.02297,31.65316,396.02297,31.72703Q396.02297,31.8009,396.00856,31.873350000000002Q395.99415,31.9458,395.96588,32.01404Q395.93761,32.08229,395.89657,32.14371Q395.85553,32.20513,395.8033,32.25736L391.03033,37.03033Q390.978097,37.082563,390.916678,37.123602Q390.855258,37.164641,390.787012,37.19291Q390.718767,37.221178,390.646318,37.235589Q390.5738684,37.25,390.499999877795,37.25Q390.4261313,37.25,390.353682,37.235589Q390.281233,37.221178,390.212987,37.192909Q390.144742,37.164641,390.083322,37.123602Q390.021903,37.082563,389.96967,37.03033Q389.917437,36.978097,389.876398,36.916678Q389.835359,36.855258,389.80709,36.787012Q389.778822,36.718767,389.764411,36.646318Q389.75,36.5738684,389.75,36.499999877795Q389.75,36.4261313,389.764411,36.353682Q389.778822,36.281233,389.807091,36.212987Q389.835359,36.144742,389.876398,36.083322Q389.917437,36.021903,389.96967,35.96967ZM391.03033,35.96967L395.8033,40.74264Q395.85553,40.79487,395.89657,40.85629Q395.93761,40.91771,395.96588,40.98596Q395.99415,41.0542,396.00856,41.12665Q396.02297,41.1991,396.02297,41.27297Q396.02297,41.34684,396.00856,41.419290000000004Q395.99415,41.49174,395.96588,41.55998Q395.93761,41.62823,395.89657,41.68965Q395.85553,41.75107,395.8033,41.8033Q395.75107,41.85553,395.68965000000003,41.89657Q395.62823,41.93761,395.55998,41.96588Q395.49174,41.99415,395.41929,42.00856Q395.34684,42.02297,395.27297,42.02297Q395.1991,42.02297,395.12665,42.00856Q395.0542,41.99415,394.98596,41.96588Q394.91771,41.93761,394.85629,41.89657Q394.79487,41.85553,394.74264,41.8033L389.96967,37.03033Q389.917437,36.978097,389.876398,36.916678Q389.835359,36.855258,389.80709,36.787013Q389.778822,36.718767,389.764411,36.646318Q389.75,36.5738687,389.75,36.500000122205Q389.75,36.4261316,389.764411,36.353682Q389.778822,36.281233,389.80709,36.212988Q389.835359,36.144742,389.876398,36.083322Q389.917437,36.021903,389.96967,35.96967Q390.021903,35.917437,390.083322,35.876398Q390.144742,35.835359,390.212987,35.80709Q390.281233,35.778822,390.353682,35.764411Q390.4261313,35.75,390.499999877795,35.75Q390.5738684,35.75,390.646318,35.764411Q390.718767,35.778822,390.787012,35.80709Q390.855258,35.835359,390.916678,35.876398Q390.978097,35.917437,391.03033,35.96967Z" transform="matrix(-1,0,0,-1,781,73)" fill="#DDDDDD" fill-opacity="1"/></g></g></g></g></g><g style="mix-blend-mode:passthrough"><g><g style="mix-blend-mode:passthrough"><g><g style="mix-blend-mode:passthrough"><path d="M144.203125,297.11816L149.37109,297.11816Q149.80469,296.02246,150.14453,294.86816L151.60352,295.2373Q151.29883,296.19824,150.94727,297.11816L161.1484,297.11816L161.1484,298.61816L150.39062,298.61816Q149.34766,300.87988,147.94727,302.87793L147.94727,311.7432L146.57617,311.7432L146.57617,304.6826Q145.62695,305.8252,144.55469,306.8682Q144.185547,306.3643,143.710938,305.8369Q146.94531,302.51465,148.80273,298.61816L144.203125,298.61816L144.203125,297.11816ZM148.5625,309.4932L154.0645,309.4932L154.0645,304.2432L149.49414,304.2432L149.49414,303.11816L154.0645,303.11816L154.0645,299.74316L155.5059,299.74316L155.5059,303.11816L160.1465,303.11816L160.1465,304.2432L155.5059,304.2432L155.5059,309.4932L161.1484,309.4932L161.1484,310.6182L148.5625,310.6182L148.5625,309.4932ZM165.4727,308.1689Q168.4434,304.0908,169.2344,298.24316L167.125,298.24316L167.125,297.11816L169.39260000000002,297.11816Q169.498,296.02832,169.5332,294.86816L170.8691,294.86816Q170.834,296.02832,170.7285,297.11816L179.043,297.11816L179.043,298.24316L170.5879,298.24316Q170.3066,300.46387,169.7266,302.4502L170.55270000000002,301.99316Q171.5547,303.5049,172.3633,304.8994L171.2207,305.7432Q170.48239999999998,304.1553,169.5859,302.71973Q168.5312,306.2881,166.58010000000002,309.1182Q166.1758,308.6963,165.4727,308.1689ZM174.49020000000002,299.36816Q174.4375,301.6123,174.3496,303.02441Q175.4746,308.6436,179.2539,311.0869Q178.6211,311.585,178.1113,312.1182Q174.94729999999998,309.5225,173.85739999999998,305.4092Q172.8906,309.4756,169.1113,312.4932Q168.7422,312.001,168.127,311.4619Q171.7129,308.8193,172.5742,305.7256Q173.1543,303.8857,173.1719,299.36816L174.49020000000002,299.36816ZM164.1367,294.86816L165.4375,294.86816L165.4375,298.73535L166.123,298.24316Q167.17770000000002,299.34473,167.9512,300.39941L166.9316,301.24316Q166.2461,300.10645,165.4375,299.11621L165.4375,312.4932L164.1367,312.4932L164.1367,294.86816ZM162.502,298.99316L163.6797,299.1748Q163.416,301.39551,162.9062,303.8682Q162.4141,303.7451,161.7285,303.5869Q162.1504,301.69434,162.502,298.99316ZM175.4746,304.8994Q176.7227,303.5693,177.7422,301.99316L178.88479999999998,302.74902Q177.7422,304.3252,176.4414,305.7432L175.4746,304.8994ZM179.7285,299.83691Q182.2422,297.8916,183.8945,294.86816L185.4414,294.86816Q185.0195,295.64746,184.5742,296.36816L196.9375,296.36816L196.9375,297.49316L183.7891,297.49316Q183.3145,298.0791,182.8047,298.61816L195.1797,298.61816L195.1797,305.3682L193.9492,305.3682L193.9492,304.6182L183.6133,304.6182L183.6133,305.3682L182.4004,305.3682L182.4004,299.09277Q181.5156,300.04199,180.5371,300.86816Q180.2383,300.39355,179.7285,299.83691ZM179.7285,308.8369Q182.9629,307.3135,184.9316,304.9932L186.4961,304.9932Q186.1094,305.5791,185.70510000000002,306.1182L195.2148,306.1182L195.2148,307.2432Q193.50979999999998,308.7139,190.8555,309.874Q193.6094,310.4131,197.2715,310.6182Q196.7969,311.4385,196.4453,312.1182Q192.168,311.585,189.1094,310.5596Q185.9805,311.6318,181.5391,312.4932Q181.20510000000002,311.9951,180.7305,311.4619Q185.0898,310.6709,187.5332,309.8975Q185.5586,308.96,184.2227,307.7295Q182.55270000000002,309.0127,180.5898,309.8682Q180.2031,309.3232,179.7285,308.8369ZM183.6133,303.49316L193.9492,303.49316L193.9492,302.36816L183.6133,302.36816L183.6133,303.49316ZM193.9492,299.74316L183.6133,299.74316L183.6133,301.24316L193.9492,301.24316L193.9492,299.74316ZM193.1934,307.2432L185.1953,307.2432Q186.7363,308.5146,189.1445,309.3525Q191.5879,308.4092,193.1934,307.2432ZM208.0996,295.61816L214.32229999999998,295.61816L214.32229999999998,309.6924Q214.32229999999998,311.7432,212.3535,311.7432Q211.3691,311.7432,210.41989999999998,311.6904Q210.3496,311.2334,210.209,310.6182Q211.4922,310.6182,212.0547,310.6182Q213.0215,310.6182,213.0215,309.6865L213.0215,306.1182L209.25979999999998,306.1182Q209.0664,309.7275,206.9219,312.1182Q206.44729999999998,311.626,205.8672,311.1338Q207.291,309.5283,207.67770000000002,307.8057Q208.0996,306.1475,208.0996,302.04004L208.0996,295.61816ZM197.8516,306.4932L199.5039,306.4932L199.5039,298.61816L198.0625,298.61816L198.0625,297.49316L199.5039,297.49316L199.5039,295.24316L200.8047,295.24316L200.8047,297.49316L204.4609,297.49316L204.4609,295.24316L205.7617,295.24316L205.7617,297.49316L207.1855,297.49316L207.1855,298.61816L205.7617,298.61816L205.7617,306.4932L207.168,306.4932L207.168,307.6182L197.8516,307.6182L197.8516,306.4932ZM209.3418,304.9932L213.0215,304.9932L213.0215,301.24316L209.4004,301.24316Q209.418,303.71,209.3418,304.9932ZM213.0215,296.74316L209.4004,296.74316L209.4004,300.11816L213.0215,300.11816L213.0215,296.74316ZM200.8047,306.4932L204.4609,306.4932L204.4609,304.6182L200.8047,304.6182L200.8047,306.4932ZM200.8047,303.49316L204.4609,303.49316L204.4609,301.61816L200.8047,301.61816L200.8047,303.49316ZM200.8047,300.49316L204.4609,300.49316L204.4609,298.61816L200.8047,298.61816L200.8047,300.49316ZM200.8047,307.9932L201.877,308.8369Q200.1016,310.7939,198.64260000000002,312.1182Q198.2734,311.6963,197.7109,311.1865Q199.3809,309.7334,200.8047,307.9932ZM203.10739999999998,308.79L203.9512,307.9932Q205.1816,308.8369,206.2715,309.6924L205.3398,310.6182Q204.3555,309.71,203.10739999999998,308.79ZM218.1543,298.99316L221.875,298.99316Q222.30270000000002,297.10059,222.60160000000002,294.86816L224.0957,295.06738Q223.7969,297.11816,223.3691,298.99316L233.0781,298.99316L233.0781,300.49316L223.0352,300.49316Q222.7188,301.46582,222.3379,302.36816L231.0566,302.36816L231.0566,303.49316Q229.8965,306.4287,227.44729999999998,308.5674Q229.91410000000002,310.0908,233.2012,310.7119Q232.4102,311.5498,231.9707,312.1182Q229.1582,311.1748,226.3105,309.3584Q224.0254,310.8174,219.7715,312.1182Q219.2793,311.3564,218.7168,310.7119Q223.041,309.6807,225.1797,308.5264Q222.86520000000002,306.5283,221.8809,303.49316Q219.959,308.2861,216.64260000000002,311.3682Q216.168,310.7939,215.71089999999998,310.3369Q219.67770000000002,306.874,221.541,300.49316L216.6602,300.49316L216.6602,298.97559Q217.3809,297.30566,217.9785,295.61816L219.4023,296.00488Q218.7871,297.55176,218.1543,298.99316ZM229.50979999999998,303.49316L223.1582,303.49316Q223.94920000000002,305.9893,226.293,307.7939Q228.57229999999998,305.8662,229.50979999999998,303.49316ZM226.80270000000002,296.21582L227.5762,295.24316Q229.2988,296.32129,230.8809,297.4873L229.9316,298.61816Q228.4023,297.3291,226.80270000000002,296.21582ZM238.58010000000002,302.74316L243.836,302.74316Q243.87099999999998,302.36816,243.87099999999998,299.74316L239.2305,299.74316L239.2305,298.61816L245.26,298.61816Q246.982,296.38574,247.738,294.86816L249.14499999999998,295.72949Q248.424,296.69043,246.824,298.61816L250.48000000000002,298.61816L250.48000000000002,299.74316L245.24200000000002,299.74316Q245.24200000000002,301.9873,245.225,302.74316L250.902,302.74316L250.902,303.8682L245.102,303.8682Q245.066,304.3486,244.961,304.7939Q247.738,306.7686,250.357,308.8369L249.426,309.8682Q246.719,307.665,244.52100000000002,306.0596Q243.3262,308.6963,239.8105,310.2432Q239.33589999999998,309.6689,238.8613,309.2119Q243.3789,307.2725,243.713,303.8682L238.58010000000002,303.8682L238.58010000000002,302.74316ZM241.1113,310.6182Q244.99599999999998,310.6885,251.25400000000002,310.6182Q250.95499999999998,311.2041,250.674,311.7432Q244.416,311.7959,241.0059,311.7432Q237.82420000000002,311.6611,236.5586,309.7744Q236.0488,310.1963,234.502,312.1182L233.7461,310.7119Q234.83589999999998,309.7217,235.92579999999998,308.79L235.92579999999998,302.36816L233.9219,302.36816L233.9219,301.24316L237.2969,301.24316L237.2969,309.0244Q238.54489999999998,310.5186,241.1113,310.6182ZM235.5566,295.24316Q236.85739999999998,296.77246,238.2637,298.6709L236.998,299.40918Q235.8555,297.7041,234.4668,296.03418L235.5566,295.24316ZM240.4961,295.65918L241.55079999999998,294.86816Q242.44729999999998,295.88184,243.607,297.39941L242.3945,298.24316Q241.3398,296.67285,240.4961,295.65918ZM252.502,297.86816L254.277,297.86816Q254.928,296.22168,255.35,294.86816L256.826,295.29004Q256.275,296.67871,255.75400000000002,297.86816L259.27,297.86816L259.27,312.1182L257.863,312.1182L257.863,310.6182L253.90800000000002,310.6182L253.90800000000002,312.1182L252.502,312.1182L252.502,297.86816ZM259.533,301.71777Q261.18600000000004,298.96973,262.328,294.86816L263.805,295.2373Q263.359,296.6377,262.891,297.86816L268.551,297.86816Q268.34000000000003,306.9795,268.199,309.335Q268.076,312.1182,265.299,312.1182Q263.699,312.1182,262.047,312.1182Q261.94100000000003,311.2744,261.766,310.6182L261.818,310.6182Q263.576,310.6182,265.03499999999997,310.6182Q266.635,310.6182,266.758,308.9541Q266.951,306.3643,267.039,299.36816L262.328,299.36816Q261.56600000000003,301.07324,260.746,302.36816Q260.271,302.03418,259.533,301.71777ZM253.90800000000002,309.1182L257.863,309.1182L257.863,304.9932L253.90800000000002,304.9932L253.90800000000002,309.1182ZM257.863,299.36816L253.90800000000002,299.36816L253.90800000000002,303.49316L257.863,303.49316L257.863,299.36816ZM261.08,302.78418L262.152,301.99316Q264.104,304.4951,265.264,306.3291L263.96299999999997,307.2432Q262.71500000000003,305.0342,261.08,302.78418ZM281.24199999999996,294.86816L282.648,295.0791Q282.279,296.77246,281.78700000000003,298.24316L287.166,298.24316L287.166,299.36816L286.05899999999997,299.36816Q285.619,304.6123,283.80899999999997,307.6943Q285.23199999999997,309.7686,287.43,311.0869Q286.86699999999996,311.8721,286.48,312.4932Q284.336,310.999,282.91200000000003,308.9424Q281.29499999999996,310.9873,279.062,312.4932Q278.676,312.0186,278.06100000000004,311.4619Q280.52099999999996,309.8096,282.051,307.7061Q280.627,305.1631,280.16999999999996,301.83496Q279.801,302.52051,279.39599999999996,303.11816Q279.04499999999996,302.64941,278.51800000000003,302.08691Q280.557,299.12207,281.24199999999996,294.86816ZM269.922,304.9932L272.594,304.9932Q272.98,304.2607,273.35,303.49316L274.615,303.8975Q274.334,304.4541,274.053,304.9932L278.35900000000004,304.9932L278.35900000000004,306.1006Q277.69100000000003,307.9346,276.33799999999997,309.3174Q277.305,309.8271,278.307,310.3369L277.533,311.3682Q276.443,310.7354,275.26599999999996,310.1025Q273.279,311.6143,270.256,312.4932Q269.975,311.9775,269.658,311.3682Q272.225,310.7002,274,309.4463Q272.488,308.6553,270.836,307.8291Q271.398,306.9971,271.926,306.1182L269.922,306.1182L269.922,304.9932ZM270.115,298.99316L274.158,298.99316L274.158,294.86816L275.459,294.86816L275.459,298.99316L278.834,298.99316L278.834,300.11816L275.459,300.11816L275.459,301.00293L275.986,300.39941Q277.621,301.56543,278.72900000000004,302.46191L277.885,303.49316Q276.918,302.5791,275.459,301.43652L275.459,303.49316L274.158,303.49316L274.158,300.97949Q272.55899999999997,302.62012,270.432,303.8682Q270.098,303.37598,269.676,302.83691Q271.89099999999996,301.72363,273.736,300.11816L270.115,300.11816L270.115,298.99316ZM284.652,299.36816L281.365,299.36816Q281.277,299.60254,281.172,299.81934Q281.488,303.6455,282.93,306.3701Q284.336,303.7334,284.652,299.36816ZM272.55899999999997,307.3838Q273.807,308.04,275.125,308.7549Q276.33799999999997,307.6357,277.023,306.1182L273.36699999999996,306.1182Q272.96299999999997,306.7686,272.55899999999997,307.3838ZM278.043,295.61816L279.13300000000004,296.33887Q278.166,297.37012,277.199,298.24316Q276.79499999999996,297.8916,276.25,297.50488Q277.164,296.63184,278.043,295.61816ZM270.572,296.30371L271.574,295.61816Q272.365,296.47949,273.209,297.46973L272.119,298.24316Q271.346,297.21777,270.572,296.30371ZM295.656,306.1182L299.277,306.1182L299.277,303.8682L295.182,303.8682Q294.988,309.2061,292.68600000000004,312.1182Q292.264,311.6084,291.736,311.0869Q293.93399999999997,308.3916,293.93399999999997,302.81348L293.93399999999997,295.99316L304.305,295.99316L304.305,300.86816L303.039,300.86816L303.039,300.49316L295.199,300.49316L295.199,302.74316L299.277,302.74316L299.277,300.86816L300.543,300.86816L300.543,302.74316L305.18399999999997,302.74316L305.18399999999997,303.8682L300.543,303.8682L300.543,306.1182L304.199,306.1182L304.199,312.1182L302.93399999999997,312.1182L302.93399999999997,310.9932L296.922,310.9932L296.922,312.1182L295.656,312.1182L295.656,306.1182ZM287.781,304.2432Q289.029,303.9268,290.207,303.6045L290.207,299.36816L287.99199999999996,299.36816L287.99199999999996,298.24316L290.207,298.24316L290.207,294.86816L291.50800000000004,294.86816L291.50800000000004,298.24316L293.424,298.24316L293.424,299.36816L291.50800000000004,299.36816L291.50800000000004,303.2002Q292.346,302.97754,293.14300000000003,302.74316Q293.15999999999997,303.6104,293.248,304.2432Q292.346,304.4893,291.50800000000004,304.7236L291.50800000000004,310.0791Q291.50800000000004,312.08299999999997,289.76800000000003,312.1182Q289.223,312.1357,288.15,312.1006Q288.08000000000004,311.33299999999997,287.93899999999996,310.5127Q288.906,310.6182,289.416,310.6182Q290.207,310.6182,290.207,309.7334L290.207,305.1514Q289.006,305.4619,287.957,305.7432L287.781,304.2432ZM303.039,297.11816L295.199,297.11816L295.199,299.36816L303.039,299.36816L303.039,297.11816ZM302.93399999999997,307.2432L296.922,307.2432L296.922,309.8682L302.93399999999997,309.8682L302.93399999999997,307.2432ZM310.176,294.86816L311.61699999999996,295.25488Q311.23,296.21582,310.80899999999997,297.11816L320.93399999999997,297.11816Q320.863,303.41699,320.652,305.8311Q320.44100000000003,308.7607,317.752,308.7432Q317.049,308.7432,315.256,308.7432Q315.15,308.0576,314.975,307.2432Q316.43399999999997,307.2432,317.55899999999997,307.2432Q319.158,307.2607,319.281,305.5967Q319.475,303.44043,319.527,298.61816L310.158,298.61816Q309.543,299.59668,308.84000000000003,300.49316L316.152,300.49316L316.152,305.3682L309.789,305.3682L309.789,308.8018Q309.789,310.2432,311.248,310.2432L319.43899999999996,310.2432Q321.10900000000004,310.2432,321.39099999999996,309.1416Q321.654,308.1514,321.812,306.4932Q322.568,306.792,323.219,307.0029Q323.00800000000004,308.6494,322.762,309.6865Q322.322,311.7432,319.773,311.7432L310.949,311.7432Q308.38300000000004,311.7432,308.38300000000004,309.2295L308.38300000000004,301.17871Q307.52099999999996,302.39746,306.555,303.49316Q306.15,302.90137,305.676,302.46191Q308.73400000000004,298.99316,310.176,294.86816ZM314.781,301.61816L309.789,301.61816L309.789,304.2432L314.781,304.2432L314.781,301.61816ZM330.619,295.61816L339.602,295.61816L339.602,302.74316L338.336,302.74316L338.336,301.99316L331.885,301.99316L331.885,302.74316L330.619,302.74316L330.619,295.61816ZM328.914,306.1182L337.352,306.1182L337.352,304.6182L329.652,304.6182L329.652,303.49316L340.832,303.49316L340.832,304.6182L338.688,304.6182L338.688,306.1182L341.254,306.1182L341.254,307.2432L338.688,307.2432L338.688,309.9209Q338.688,312.1182,336.578,312.1182Q335.629,312.1182,333.959,312.1006Q333.871,311.4971,333.695,310.6182Q334.855,310.6182,336.262,310.6182Q337.352,310.6182,337.352,309.4932L337.352,307.2432L328.914,307.2432L328.914,306.1182ZM323.72900000000004,305.3682Q325.943,303.18848,327.98199999999997,299.36816L329.21299999999997,300.00098Q328.422,301.40137,327.631,302.62012L327.631,312.4932L326.312,312.4932L326.312,304.5244Q325.34000000000003,305.8135,324.344,306.8682Q324.08000000000004,306.1357,323.72900000000004,305.3682ZM331.885,300.86816L338.336,300.86816L338.336,299.36816L331.885,299.36816L331.885,300.86816ZM338.336,296.74316L331.885,296.74316L331.885,298.24316L338.336,298.24316L338.336,296.74316ZM323.799,299.83691Q326.277,297.85645,327.98199999999997,294.86816L329.23,295.58887Q327.068,298.71191,324.52,300.86816Q324.203,300.3584,323.799,299.83691ZM330.602,307.999L331.60400000000004,307.2432Q332.623,308.5205,333.52,309.8213L332.43,310.6182Q331.586,309.3174,330.602,307.999ZM349.533,298.61816Q350.93899999999996,300.62207,352.16999999999996,302.79004Q351.502,303.10645,350.81600000000003,303.49316Q350.512,302.9248,350.18399999999997,302.36816Q346.398,302.75488,342.994,303.11816L342.361,301.61816Q343.381,301.06152,344.119,299.83691Q344.799,298.78809,345.449,297.49316L342.168,297.49316L342.168,295.99316L352.25800000000004,295.99316L352.25800000000004,297.49316L347.10699999999997,297.49316Q345.801,299.77246,344.453,301.63574Q346.961,301.47754,349.551,301.24316Q348.971,300.2002,348.33799999999997,299.21582L349.533,298.61816ZM342.291,304.9932L346.422,304.9932L346.422,303.11816L347.828,303.11816L347.828,304.9932L351.85400000000004,304.9932L351.85400000000004,306.4932L347.828,306.4932L347.828,309.417Q349.902,309.1006,352.1,308.7432Q352.1,309.417,352.16999999999996,310.2432Q347.195,310.9229,342.168,311.7432L341.764,310.2432Q344.00800000000004,309.9678,346.422,309.6221L346.422,306.4932L342.291,306.4932L342.291,304.9932ZM357.02099999999996,294.86816L358.48,294.86816L358.48,309.8975Q358.48,312.1182,356.35400000000004,312.1182Q355.63300000000004,312.1182,353.78700000000003,312.1182Q353.682,311.4326,353.523,310.6182Q355.07,310.6182,355.914,310.6182Q357.02099999999996,310.6357,357.02099999999996,309.4639L357.02099999999996,294.86816ZM353.207,297.11816L354.631,297.11816L354.631,307.9932L353.207,307.9932L353.207,297.11816ZM368.043,301.61816Q371.049,299.78418,373.63300000000004,297.86816L360.432,297.86816L360.432,296.36816L376.05899999999997,296.36816L376.05899999999997,298.14941Q372.91200000000003,300.31152,369.625,302.36816L369.625,308.6846Q369.625,310.3838,368.957,311.04Q368.307,311.7256,366.549,311.7432Q365.582,311.7432,363.68399999999997,311.6904Q363.578,310.7529,363.402,309.8682Q365.15999999999997,310.2139,366.426,310.2432Q368.043,310.2607,368.043,308.6729L368.043,301.61816ZM383.336,300.34668Q385.81399999999996,297.81543,387.221,294.86816L388.557,295.11426Q388.135,295.94629,387.678,296.74316L392.793,296.74316L392.793,297.85059L391.31100000000004,299.74316L394.551,299.74316L394.551,309.8975Q394.551,311.7432,392.898,311.7432Q391.967,311.7432,391.299,311.70799999999997Q391.193,311.1865,391.03499999999997,310.6182Q392.002,310.6182,392.494,310.6182Q393.303,310.6182,393.303,309.83299999999997L393.303,307.9932L390.402,307.9932L390.402,311.7432L389.154,311.7432L389.154,307.9932L386.254,307.9932Q385.779,310.7646,384.373,312.4932Q383.93399999999997,311.9951,383.35400000000004,311.4619Q385.252,309.1768,385.252,304.7471L385.252,299.9834Q384.807,300.62793,384.33799999999997,301.24316Q383.916,300.83887,383.336,300.34668ZM377.58799999999997,305.0869Q379.586,301.91113,380.5,297.86816L378.15,297.86816L378.15,296.74316L384.443,296.74316L384.443,297.86816L381.748,297.86816Q381.31399999999996,299.8252,380.676,301.61816L383.688,301.61816L383.688,309.4932L380.73400000000004,309.4932L380.73400000000004,310.9932L379.574,310.9932L379.574,304.1143Q379.076,305.1514,378.48400000000004,306.1182Q378.13300000000004,305.667,377.58799999999997,305.0869ZM382.527,308.3682L382.527,302.74316L380.73400000000004,302.74316L380.73400000000004,308.3682L382.527,308.3682ZM391.211,297.86816L386.969,297.86816Q386.324,298.84082,385.615,299.74316L389.834,299.74316L391.211,297.86816ZM390.402,306.8682L393.303,306.8682L393.303,304.2432L390.402,304.2432L390.402,306.8682ZM393.303,300.86816L390.402,300.86816L390.402,303.11816L393.303,303.11816L393.303,300.86816ZM386.406,306.8682L389.154,306.8682L389.154,304.2432L386.5,304.2432Q386.5,304.7002,386.406,306.8682ZM386.5,303.11816L389.154,303.11816L389.154,300.86816L386.5,300.86816L386.5,303.11816ZM406.152,295.24316L407.576,295.24316Q407.559,297.51074,407.518,299.67871Q408.484,307.5479,413.289,310.3369Q412.656,311.0693,412.146,311.7432Q408.396,309.1533,407.043,303.46387Q406.076,308.7139,401.635,312.1182Q401.23,311.66700000000003,400.615,311.0869Q406.064,307.1904,406.1,299.64355Q406.152,297.68652,406.152,295.24316ZM402.602,304.9932Q402.707,305.7666,402.883,306.417Q401.055,307.8291,399.385,309.3291Q398.90999999999997,309.7686,398.576,310.2432L397.539,309.1182Q398.102,308.5381,398.102,307.5654L398.102,301.61816L395.746,301.61816L395.746,300.49316L399.473,300.49316L399.473,307.5654Q400.773,306.5342,402.602,304.9932ZM398.38300000000004,295.24316Q400.07,296.9541,401.354,298.36621L400.141,299.36816Q398.90999999999997,297.81543,397.346,296.12207L398.38300000000004,295.24316Z" fill="#DDDDDD" fill-opacity="1"/></g></g></g><g style="mix-blend-mode:passthrough"><g><g style="mix-blend-mode:passthrough"><path d="M188.5,305.25L180.5,305.25L180.5,303.75L188.5,303.75M176.5,305.25L168.5,305.25L168.5,303.75L176.5,303.75M164.5,305.25L156.5,305.25L156.5,303.75L164.5,303.75M152.5,305.25L144.5,305.25L144.5,303.75L152.5,303.75M140.5,305.25L137.5,305.25L137.5,303.75L140.5,303.75" transform="matrix(-1,0,0,-1,275,609)" fill="#DDDDDD" fill-opacity="1"/></g></g></g><g style="mix-blend-mode:passthrough"><g><g style="mix-blend-mode:passthrough"><path d="M472.5,304.25L464.5,304.25L464.5,302.75L472.5,302.75M460.5,304.25L452.5,304.25L452.5,302.75L460.5,302.75M448.5,304.25L440.5,304.25L440.5,302.75L448.5,302.75M436.5,304.25L428.5,304.25L428.5,302.75L436.5,302.75M424.5,304.25L422.5,304.25L422.5,302.75L424.5,302.75" fill="#DDDDDD" fill-opacity="1"/></g></g></g></g></g><g style="mix-blend-mode:passthrough"><g><g style="mix-blend-mode:passthrough"><g><g style="mix-blend-mode:passthrough"><path d="M256.1738,203.99316L256.1738,205.11816L252.1836,205.11816L252.1836,206.24316L255.5762,206.24316L255.5762,211.8682L254.3809,211.8682L254.3809,211.11816L245.5918,211.11816L245.5918,211.8682L244.3965,211.8682L244.3965,206.24316L247.7715,206.24316L247.7715,205.11816L243.9043,205.11816L243.9043,203.99316L247.7715,203.99316L247.7715,202.86816L248.8965,202.86816L248.8965,203.99316L251.0586,203.99316L251.0586,202.88574L252.1836,202.88574L252.1836,203.99316L256.1738,203.99316ZM245.3809,212.2432L254.6094,212.2432L254.6094,217.8682L253.4141,217.8682L253.4141,217.4932L246.5762,217.4932L246.5762,217.8682L245.3809,217.8682L245.3809,212.2432ZM246.4707,218.5244L250.4785,218.6182L256.7012,218.46Q256.5078,218.999,256.209,219.7256L249.793,219.7432L246.33010000000002,219.6553Q243.2715,219.6377,242.0234,217.5576Q241.1621,218.46,239.9316,220.1182L239.1934,218.7119Q240.4414,217.4521,241.4609,216.4561L241.4609,210.36816L239.3691,210.36816L239.3691,208.86816L242.8145,208.86816L242.8145,216.6904Q243.8809,218.48930000000001,246.4707,218.5244ZM246.5762,216.3682L253.4141,216.3682L253.4141,214.8682L246.5762,214.8682L246.5762,216.3682ZM253.4141,213.3682L246.5762,213.3682L246.5762,214.1182L253.4141,214.1182L253.4141,213.3682ZM241.3906,203.24316Q242.4453,204.60254,243.51760000000002,206.18457L242.2344,206.99316Q241.30270000000002,205.40527,240.2305,203.94629L241.3906,203.24316ZM252.1836,210.36816L254.3809,210.36816L254.3809,208.86816L252.1836,208.86816L252.1836,210.36816ZM245.5918,210.36816L247.7715,210.36816L247.7715,208.86816L245.5918,208.86816L245.5918,210.36816ZM254.3809,206.99316L252.1836,206.99316L252.1836,208.11816L254.3809,208.11816L254.3809,206.99316ZM248.8965,210.36816L251.0586,210.36816L251.0586,208.86816L248.8965,208.86816L248.8965,210.36816ZM245.5918,208.11816L247.7715,208.11816L247.7715,206.99316L245.5918,206.99316L245.5918,208.11816ZM248.8965,208.11816L251.0586,208.11816L251.0586,206.99316L248.8965,206.99316L248.8965,208.11816ZM248.8965,206.24316L251.0586,206.24316L251.0586,205.11816L248.8965,205.11816L248.8965,206.24316ZM269.7969,213.0928L270.8164,212.6182Q271.6074,214.0771,272.2578,215.4658L271.1328,215.9932Q270.9512,215.5244,270.7461,215.0498Q268.0039,215.2725,264.5234,215.6182L264.34770000000003,214.3174Q265.8535,214.2471,267.459,214.13569999999999L267.459,212.2432L263.6973,212.2432L263.6973,217.4932L262.4668,217.4932L262.4668,211.11816L267.459,211.11816L267.459,209.99316L264.3652,209.99316L264.3652,210.36816L263.1699,210.36816L263.1699,203.61816L272.9961,203.61816L272.9961,210.36816L271.8008,210.36816L271.8008,209.99316L268.6895,209.99316L268.6895,211.11816L273.8574,211.11816L273.8574,215.7939Q273.8574,217.833,272.0117,217.8506Q271.09770000000003,217.8682,269.7441,217.833Q269.6738,217.2822,269.498,216.6377Q270.7637,216.7432,271.6074,216.7432Q272.627,216.7432,272.627,215.7588L272.627,212.2432L268.6895,212.2432L268.6895,214.0361Q269.4395,213.9775,270.2129,213.9131Q270.0195,213.4971,269.7969,213.0928ZM264.4707,218.5303L268.4961,218.6182L274.7188,218.46Q274.5254,218.9873,274.2266,219.7256L267.8105,219.7432L264.3301,219.6553Q261.2891,219.6436,260.0586,217.6338Q259.3203,218.3545,257.9316,220.1182L257.2109,218.6182Q258.8105,217.0713,259.4961,216.4209L259.4961,210.36816L257.3867,210.36816L257.3867,209.24316L260.7969,209.24316L260.7969,216.6553Q261.8516,218.4951,264.4707,218.5303ZM259.4082,203.24316Q260.6211,204.79004,261.8691,206.48926L260.6211,207.36816Q259.4609,205.52832,258.2832,203.99902L259.4082,203.24316ZM268.6895,208.86816L271.8008,208.86816L271.8008,207.36816L268.6895,207.36816L268.6895,208.86816ZM264.3652,208.86816L267.459,208.86816L267.459,207.36816L264.3652,207.36816L264.3652,208.86816ZM271.8008,204.74316L268.6895,204.74316L268.6895,206.24316L271.8008,206.24316L271.8008,204.74316ZM264.3652,206.24316L267.459,206.24316L267.459,204.74316L264.3652,204.74316L264.3652,206.24316ZM286.8652,214.4932Q289.2734,216.8252,291.6113,219.5791L290.34569999999997,220.4932Q289.78319999999997,219.6846,289.1328,218.8291Q283.3086,219.04,278.9199,219.3682Q278.41020000000003,219.4385,277.4082,219.7432L276.6875,218.3369Q277.6191,217.9561,278.33979999999997,217.4346Q280.0801,215.9873,281.7324,213.7432L275.4746,213.7432L275.4746,212.6182L283.2617,212.6182L283.2617,209.61816L276.6172,209.61816L276.6172,208.49316L283.2617,208.49316L283.2617,205.59863Q280.2324,205.74512,276.8633,205.86816Q276.7402,205.12988,276.582,204.36816Q284.7559,204.13965,291.0488,203.61816L291.2598,205.11816Q288.2539,205.34082,284.7559,205.5166L284.7559,208.49316L291.3828,208.49316L291.3828,209.61816L284.7559,209.61816L284.7559,212.6182L292.543,212.6182L292.543,213.7432L283.6133,213.7432Q281.71479999999997,215.9814,279.6406,217.8682Q281.6211,217.8154,288.1074,217.5811Q287.0527,216.4854,285.8105,215.2842L286.8652,214.4932ZM297.6758,202.86816L299.1172,203.25488Q298.7305,204.21582,298.3086,205.11816L308.4336,205.11816Q308.3633,211.41699,308.15229999999997,213.8311Q307.9414,216.76069999999999,305.252,216.7432Q304.5488,216.7432,302.7559,216.7432Q302.6504,216.0576,302.4746,215.2432Q303.9336,215.2432,305.0586,215.2432Q306.65819999999997,215.26069999999999,306.7812,213.5967Q306.9746,211.44043,307.02729999999997,206.61816L297.65819999999997,206.61816Q297.043,207.59668,296.33979999999997,208.49316L303.65229999999997,208.49316L303.65229999999997,213.3682L297.2891,213.3682L297.2891,216.80180000000001Q297.2891,218.2432,298.748,218.2432L306.9395,218.2432Q308.6094,218.2432,308.8906,217.1416Q309.15430000000003,216.1514,309.3125,214.4932Q310.0684,214.792,310.7188,215.0029Q310.5078,216.6494,310.2617,217.6865Q309.8223,219.7432,307.2734,219.7432L298.4492,219.7432Q295.8828,219.7432,295.8828,217.2295L295.8828,209.17871Q295.0215,210.39746,294.0547,211.49316Q293.6504,210.90137,293.1758,210.46191Q296.2344,206.99316,297.6758,202.86816ZM302.2812,209.61816L297.2891,209.61816L297.2891,212.2432L302.2812,212.2432L302.2812,209.61816ZM318.523,219.0869Q320.721,217.6162,322.373,215.7178Q321.248,212.6416,321.03700000000003,207.36816L311.5625,207.36816L311.5625,205.86816L320.984,205.86816Q320.914,204.42676,320.861,202.86816L322.303,202.86816Q322.31399999999996,204.42676,322.355,205.86816L328.578,205.86816L328.578,207.36816L322.385,207.36816Q322.496,211.6807,323.369,214.4346Q325.062,212.1201,326.047,209.24316L327.43600000000004,209.82324Q326.006,213.3213,323.949,215.958Q324.74,217.6455,325.836,218.3545Q326.891,219.04,327.137,217.7686Q327.4,216.4502,327.541,214.8682Q328.262,215.1846,328.895,215.3779Q328.56100000000004,217.5225,328.262,218.624Q327.89300000000003,220.083,326.66200000000003,220.1182Q325.64300000000003,220.1182,324.676,219.3623Q323.69100000000003,218.5127,322.98199999999997,217.1299Q321.424,218.8408,319.543,220.1182Q319.139,219.6611,318.523,219.0869ZM312.8105,208.86816L319.139,208.86816L319.139,214.8682L317.873,214.8682L317.873,214.1182L314.0762,214.1182L314.0762,215.2432L312.8105,215.2432L312.8105,208.86816ZM311.2988,217.4932Q314.6562,216.9834,320.053,215.8994Q320.07,216.749,320.105,217.3994Q316.1504,218.0615,311.6504,218.9932L311.2988,217.4932ZM317.873,209.99316L314.0762,209.99316L314.0762,212.9932L317.873,212.9932L317.873,209.99316ZM323.639,203.89941L324.377,202.86816Q325.801,203.74707,327.26,204.83691L326.416,205.86816Q325.098,204.86035,323.639,203.89941ZM227.08789,241.8682L220.625,241.8682L220.625,230.2432L227.08789,230.2432L227.08789,231.7432L222.125,231.7432L222.125,235.1182L226.89453,235.1182L226.89453,236.6182L222.125,236.6182L222.125,240.3682L227.08789,240.3682L227.08789,241.8682ZM237.0254,241.2529Q235.64260000000002,241.8682,234.1309,241.8682Q231.6992,241.8682,230.4746,240.4326Q229.25,238.9971,229.25,236.1787Q229.25,234.8193,229.5723,233.7178Q229.9004,232.6162,230.5215,231.8486Q231.1426,231.0752,232.0918,230.6592Q233.041,230.2432,234.2188,230.2432Q235.0215,230.2432,235.707,230.3896Q236.39260000000002,230.5361,237.0254,230.8408L237.0254,232.4463Q236.3984,232.1064,235.7305,231.9248Q235.0625,231.7432,234.2715,231.7432Q233.4629,231.7432,232.8066,232.0361Q232.1562,232.32319999999999,231.6992,232.8799Q231.2422,233.4307,230.9961,234.2275Q230.75,235.0244,230.75,236.0498Q230.75,238.1885,231.6523,239.2783Q232.5605,240.3682,234.3066,240.3682Q235.04489999999998,240.3682,235.7188,240.19819999999999Q236.3984,240.0283,237.0254,239.7178L237.0254,241.2529ZM246.875,241.8682L244.94729999999998,241.8682L241.7891,234.7021L240.875,232.3994L240.875,238.1943L240.875,241.8682L239.375,241.8682L239.375,230.2432L241.2734,230.2432L244.2852,237.0283L245.375,239.6592L245.375,233.5068L245.375,230.2432L246.875,230.2432L246.875,241.8682ZM255.5762,237.7432L250.3203,237.7432L250.3203,236.2432L255.5762,236.2432L255.5762,237.7432ZM266.2754,241.2529Q264.8926,241.8682,263.3809,241.8682Q260.9492,241.8682,259.7246,240.4326Q258.5,238.9971,258.5,236.1787Q258.5,234.8193,258.8223,233.7178Q259.1504,232.6162,259.7715,231.8486Q260.3926,231.0752,261.3418,230.6592Q262.291,230.2432,263.4688,230.2432Q264.2715,230.2432,264.957,230.3896Q265.6426,230.5361,266.2754,230.8408L266.2754,232.4463Q265.6484,232.1064,264.9805,231.9248Q264.3125,231.7432,263.5215,231.7432Q262.7129,231.7432,262.0566,232.0361Q261.4062,232.32319999999999,260.9492,232.8799Q260.4922,233.4307,260.2461,234.2275Q260,235.0244,260,236.0498Q260,238.1885,260.90229999999997,239.2783Q261.8105,240.3682,263.5566,240.3682Q264.2949,240.3682,264.9688,240.19819999999999Q265.6484,240.0283,266.2754,239.7178L266.2754,241.2529ZM275.8379,241.8682L269.375,241.8682L269.375,230.2432L275.8379,230.2432L275.8379,231.7432L270.875,231.7432L270.875,235.1182L275.6445,235.1182L275.6445,236.6182L270.875,236.6182L270.875,240.3682L275.8379,240.3682L275.8379,241.8682ZM283.1562,232.8682L288.2715,232.8682L288.2715,226.8682L289.78319999999997,226.8682L289.78319999999997,232.8682L294.9336,232.8682L294.9336,233.9932L289.78319999999997,233.9932L289.78319999999997,244.1182L288.2715,244.1182L288.2715,233.9932L283.1562,233.9932L283.1562,232.8682ZM284.7734,239.2432Q284.8262,240.1572,284.8965,240.7725Q282.084,242.4775,280.2559,243.7432L279.4121,242.7119Q280.02729999999997,242.1729,280.02729999999997,241.083L280.02729999999997,233.9932L277.5312,233.9932L277.5312,232.8682L281.4336,232.8682L281.4336,241.3994Q282.9629,240.4443,284.7734,239.2432ZM279.3242,227.2432Q281.2402,229.0713,282.1016,229.9561L280.8711,230.9932Q279.7637,229.6338,278.252,228.1748L279.3242,227.2432ZM306.9922,226.8682L308.3984,227.0791Q308.02930000000003,228.7725,307.5371,230.2432L312.916,230.2432L312.916,231.3682L311.8086,231.3682Q311.3691,236.6123,309.5586,239.6943Q310.9824,241.7686,313.1797,243.0869Q312.6172,243.8721,312.2305,244.4932Q310.0859,242.999,308.6621,240.9424Q307.0449,242.9873,304.8125,244.4932Q304.4258,244.0186,303.8105,243.4619Q306.2715,241.8096,307.8008,239.7061Q306.377,237.1631,305.9199,233.835Q305.5508,234.5205,305.1465,235.1182Q304.7949,234.6494,304.2676,234.0869Q306.3066,231.1221,306.9922,226.8682ZM295.6719,236.9932L298.3438,236.9932Q298.7305,236.26069999999999,299.0996,235.4932L300.3652,235.8975Q300.084,236.45409999999998,299.8027,236.9932L304.1094,236.9932L304.1094,238.1006Q303.4414,239.9346,302.0879,241.3174Q303.0547,241.8271,304.0566,242.3369L303.28319999999997,243.3682Q302.1934,242.7354,301.0156,242.1025Q299.02930000000003,243.61430000000001,296.0059,244.4932Q295.7246,243.9775,295.40819999999997,243.3682Q297.9746,242.7002,299.75,241.4463Q298.2383,240.6553,296.5859,239.82909999999998Q297.1484,238.9971,297.6758,238.1182L295.6719,238.1182L295.6719,236.9932ZM295.8652,230.9932L299.90819999999997,230.9932L299.90819999999997,226.8682L301.209,226.8682L301.209,230.9932L304.584,230.9932L304.584,232.1182L301.209,232.1182L301.209,233.0029L301.7363,232.3994Q303.3711,233.5654,304.4785,234.4619L303.6348,235.4932Q302.668,234.57909999999998,301.209,233.4365L301.209,235.4932L299.90819999999997,235.4932L299.90819999999997,232.9795Q298.3086,234.6201,296.1816,235.8682Q295.84770000000003,235.376,295.4258,234.8369Q297.6406,233.7236,299.4863,232.1182L295.8652,232.1182L295.8652,230.9932ZM310.40229999999997,231.3682L307.1152,231.3682Q307.02729999999997,231.6025,306.9219,231.8193Q307.2383,235.6455,308.6797,238.3701Q310.0859,235.73340000000002,310.40229999999997,231.3682ZM298.3086,239.3838Q299.5566,240.04,300.875,240.7549Q302.0879,239.63569999999999,302.7734,238.1182L299.1172,238.1182Q298.7129,238.7686,298.3086,239.3838ZM303.793,227.6182L304.8828,228.3389Q303.916,229.3701,302.9492,230.2432Q302.5449,229.8916,302,229.5049Q302.9141,228.6318,303.793,227.6182ZM296.3223,228.3037L297.3242,227.6182Q298.1152,228.4795,298.959,229.4697L297.8691,230.2432Q297.09569999999997,229.2178,296.3223,228.3037ZM319.402,229.4932L322.42,229.4932Q321.805,228.5498,321.055,227.5713L322.057,226.8682Q322.971,227.9521,323.639,228.8955L322.824,229.4932L325.777,229.4932Q326.639,228.2627,327.453,226.8682L328.719,227.5889Q327.975,228.585,327.254,229.4932L330.23,229.4932L330.23,235.8682L329,235.8682L329,235.4932L320.633,235.4932L320.633,235.8682L319.402,235.8682L319.402,229.4932ZM320.105,236.9932L329.527,236.9932L329.527,244.1182L328.262,244.1182L328.262,243.3682L321.371,243.3682L321.371,244.1182L320.105,244.1182L320.105,236.9932ZM313.4785,240.3682Q314.5625,240.1104,315.7637,239.7881L315.7637,232.8682L313.65430000000003,232.8682L313.65430000000003,231.7432L315.7637,231.7432L315.7637,227.2432L317.0645,227.2432L317.0645,231.7432L318.875,231.7432L318.875,232.8682L317.0645,232.8682L317.0645,239.4424Q318.0605,239.1729,319.139,238.8682Q319.174,239.7588,319.227,240.3682Q316.9238,240.95409999999998,313.9531,241.8682L313.4785,240.3682ZM329,230.6182L325.414,230.6182L325.414,234.3682L329,234.3682L329,230.6182ZM320.633,234.3682L324.201,234.3682L324.201,230.6182L320.633,230.6182L320.633,234.3682ZM328.262,238.1182L321.371,238.1182L321.371,239.6182L328.262,239.6182L328.262,238.1182ZM321.371,242.2432L328.262,242.2432L328.262,240.7432L321.371,240.7432L321.371,242.2432ZM328.297,231.9834Q327.33,233.48930000000001,326.908,233.9932L325.959,233.4307Q326.592,232.5811,327.26,231.3682L328.297,231.9834ZM321.301,231.94819999999999L322.197,231.3682Q322.988,232.2295,323.568,232.9854L322.584,233.6182Q322.021,232.8271,321.301,231.94819999999999ZM341.551,229.1182L348.23,229.1182L348.23,243.7432L346.842,243.7432L346.842,241.8682L342.93899999999996,241.8682L342.93899999999996,243.7432L341.551,243.7432L341.551,229.1182ZM331.9,229.8682L334.355,229.8682Q334.373,228.5205,334.361,226.8682L335.75,226.8682Q335.75,228.5381,335.73199999999997,229.8682L339.828,229.8682Q339.74,236.7354,339.6,240.6494Q339.529,243.8662,337.209,243.7432Q336.523,243.7432,335.188,243.6904Q335.06399999999996,242.9932,334.906,242.2432Q336.137,242.2432,336.90999999999997,242.2432Q338.08799999999997,242.2783,338.193,240.57319999999999Q338.387,236.4131,338.422,231.3682L335.71500000000003,231.3682Q335.697,232.73930000000001,335.66200000000003,233.7002Q335.592,240.708,332.35699999999997,244.4932Q331.918,244.0186,331.32,243.4619Q334.238,240.1514,334.291,233.5889Q334.326,232.6338,334.344,231.3682L331.9,231.3682L331.9,229.8682ZM346.842,230.6182L342.93899999999996,230.6182L342.93899999999996,240.7432L346.842,240.7432L346.842,230.6182Z" fill="#DDDDDD" fill-opacity="1"/></g></g></g><g style="mix-blend-mode:passthrough"><g><g style="mix-blend-mode:passthrough"><path d="M242.5,225.25L234.5,225.25L234.5,223.75L242.5,223.75M230.5,225.25L222.5,225.25L222.5,223.75L230.5,223.75M218.5,225.25L210.5,225.25L210.5,223.75L218.5,223.75" transform="matrix(-1,0,0,-1,421,449)" fill="#DDDDDD" fill-opacity="1"/></g></g></g><g style="mix-blend-mode:passthrough"><g><g style="mix-blend-mode:passthrough"><path d="M422.5,225.25L414.5,225.25L414.5,223.75L422.5,223.75M410.5,225.25L402.5,225.25L402.5,223.75L410.5,223.75M398.5,225.25L390.5,225.25L390.5,223.75L398.5,223.75M389.96967,223.96967L394.74264,219.1967Q394.79487,219.14447,394.85629,219.10343Q394.91771,219.06239,394.98596,219.03412Q395.0542,219.00585,395.12665,218.99144Q395.1991,218.97703,395.27297,218.97703Q395.34684,218.97703,395.41929,218.99144Q395.49174,219.00585,395.55998,219.03412Q395.62823,219.06239,395.68965000000003,219.10343Q395.75107,219.14447,395.8033,219.1967Q395.85553,219.24893,395.89657,219.31035Q395.93761,219.37177,395.96588,219.44002Q395.99415,219.50826,396.00856,219.58071Q396.02297,219.65316,396.02297,219.72703Q396.02297,219.8009,396.00856,219.87335Q395.99415,219.9458,395.96588,220.01404Q395.93761,220.08229,395.89657,220.14371Q395.85553,220.20513,395.8033,220.25736L391.03033,225.03033Q390.978097,225.082563,390.916678,225.123602Q390.855258,225.164641,390.787012,225.19291Q390.718767,225.221178,390.646318,225.235589Q390.5738684,225.25,390.499999877795,225.25Q390.4261313,225.25,390.353682,225.235589Q390.281233,225.221178,390.212987,225.192909Q390.144742,225.164641,390.083322,225.123602Q390.021903,225.082563,389.96967,225.03033Q389.917437,224.978097,389.876398,224.916678Q389.835359,224.855258,389.80709,224.787012Q389.778822,224.718767,389.764411,224.646318Q389.75,224.5738684,389.75,224.499999877795Q389.75,224.4261313,389.764411,224.353682Q389.778822,224.281233,389.807091,224.212987Q389.835359,224.144742,389.876398,224.083322Q389.917437,224.021903,389.96967,223.96967ZM391.03033,223.96967L395.8033,228.74264Q395.85553,228.79487,395.89657,228.85629Q395.93761,228.91771,395.96588,228.98596Q395.99415,229.0542,396.00856,229.12665Q396.02297,229.1991,396.02297,229.27297Q396.02297,229.34684,396.00856,229.41929Q395.99415,229.49174,395.96588,229.55998Q395.93761,229.62823,395.89657,229.68965Q395.85553,229.75107,395.8033,229.8033Q395.75107,229.85553,395.68965000000003,229.89657Q395.62823,229.93761,395.55998,229.96588Q395.49174,229.99415,395.41929,230.00856Q395.34684,230.02297,395.27297,230.02297Q395.1991,230.02297,395.12665,230.00856Q395.0542,229.99415,394.98596,229.96588Q394.91771,229.93761,394.85629,229.89657Q394.79487,229.85553,394.74264,229.8033L389.96967,225.03033Q389.917437,224.978097,389.876398,224.916678Q389.835359,224.855258,389.80709,224.787013Q389.778822,224.718767,389.764411,224.646318Q389.75,224.5738687,389.75,224.500000122205Q389.75,224.4261316,389.764411,224.353682Q389.778822,224.281233,389.80709,224.212988Q389.835359,224.144742,389.876398,224.083322Q389.917437,224.021903,389.96967,223.96967Q390.021903,223.917437,390.083322,223.876398Q390.144742,223.835359,390.212987,223.80709Q390.281233,223.778822,390.353682,223.764411Q390.4261313,223.75,390.499999877795,223.75Q390.5738684,223.75,390.646318,223.764411Q390.718767,223.778822,390.787012,223.80709Q390.855258,223.835359,390.916678,223.876398Q390.978097,223.917437,391.03033,223.96967Z" transform="matrix(-1,0,0,-1,781,449)" fill="#DDDDDD" fill-opacity="1"/></g></g></g></g></g><g style="mix-blend-mode:passthrough"><path d="M508.5,306.25L500.5,306.25L500.5,304.75L508.5,304.75M496.5,306.25L488.5,306.25L488.5,304.75L496.5,304.75M484.5,306.25L476.5,306.25L476.5,304.75L484.5,304.75" transform="matrix(0,-1,1,0,167,778)" fill="#DDDDDD" fill-opacity="1"/></g><g style="mix-blend-mode:passthrough"><path d="M121.5,306.25L113.5,306.25L113.5,304.75L121.5,304.75M109.5,306.25L101.5,306.25L101.5,304.75L109.5,304.75M97.5,306.25L89.5,306.25L89.5,304.75L97.5,304.75M122.0303,306.03033L117.2574,310.8033Q117.2051,310.85553,117.1437,310.89657Q117.0823,310.93761,117.014,310.96588Q116.94579999999999,310.99415,116.8733,311.00856Q116.8009,311.02297,116.727,311.02297Q116.6532,311.02297,116.58070000000001,311.00856Q116.50829999999999,310.99415,116.44,310.96588Q116.37180000000001,310.93761,116.3103,310.89657Q116.24889999999999,310.85553,116.19669999999999,310.8033Q116.1445,310.75107,116.1034,310.68965000000003Q116.0624,310.62823,116.0341,310.55998Q116.0058,310.49174,115.9914,310.41929Q115.977,310.34684,115.977,310.27297Q115.977,310.1991,115.9914,310.12665Q116.0058,310.0542,116.0341,309.98596Q116.0624,309.91771,116.1034,309.85629Q116.1445,309.79487,116.19669999999999,309.74264L120.9697,304.96967Q121.0219,304.917437,121.08330000000001,304.876398Q121.1447,304.835359,121.213,304.80709Q121.2812,304.778822,121.3537,304.764411Q121.42609999999999,304.75,121.5,304.75Q121.57390000000001,304.75,121.6463,304.764411Q121.7188,304.778822,121.787,304.807091Q121.8553,304.835359,121.91669999999999,304.876398Q121.9781,304.917437,122.0303,304.96967Q122.0826,305.021903,122.12360000000001,305.083323Q122.16460000000001,305.144742,122.19290000000001,305.212988Q122.22120000000001,305.281233,122.2356,305.353682Q122.25,305.4261316,122.25,305.500000174578Q122.25,305.5738687,122.2356,305.646318Q122.22120000000001,305.718767,122.19290000000001,305.787013Q122.16460000000001,305.855258,122.12360000000001,305.916678Q122.0826,305.978097,122.0303,306.03033ZM120.9697,306.03033L116.19669999999999,301.25736Q116.1445,301.20513,116.1034,301.14371Q116.0624,301.08229,116.0341,301.01404Q116.0058,300.9458,115.9914,300.87335Q115.977,300.8009,115.977,300.72703Q115.977,300.65316,115.9914,300.58071Q116.0058,300.50826,116.0341,300.44002Q116.0624,300.37177,116.1034,300.31034999999997Q116.1445,300.24893,116.19669999999999,300.1967Q116.24889999999999,300.14447,116.3103,300.10343Q116.37180000000001,300.06239,116.44,300.03412Q116.50829999999999,300.00585,116.58070000000001,299.99144Q116.6532,299.97703,116.727,299.97703Q116.8009,299.97703,116.8733,299.99144Q116.94579999999999,300.00585,117.014,300.03412Q117.0823,300.06239,117.1437,300.10343Q117.2051,300.14447,117.2574,300.1967L122.0303,304.96967Q122.0826,305.021903,122.12360000000001,305.083322Q122.16460000000001,305.144742,122.19290000000001,305.212987Q122.22120000000001,305.281233,122.2356,305.353682Q122.25,305.4261313,122.25,305.499999825422Q122.25,305.5738684,122.2356,305.646318Q122.22120000000001,305.718767,122.19290000000001,305.787012Q122.16460000000001,305.855258,122.12360000000001,305.916677Q122.0826,305.978097,122.0303,306.03033Q121.9781,306.082563,121.91669999999999,306.123602Q121.8553,306.164641,121.787,306.192909Q121.7188,306.221178,121.6463,306.235589Q121.57390000000001,306.25,121.5,306.25Q121.42609999999999,306.25,121.3537,306.235589Q121.2812,306.221178,121.213,306.19291Q121.1447,306.164641,121.08330000000001,306.123602Q121.0219,306.082563,120.9697,306.03033Z" transform="matrix(0,-1,1,0,-220,391)" fill="#DDDDDD" fill-opacity="1"/></g></g></g></svg>